<svg id="Layer_1" data-name="Layer 1" xmlns="http://www.w3.org/2000/svg" viewBox="0 0 465.29 129.54"><defs><style>.cls-1{fill:#158285;}.cls-2{fill:#f7941d;}.cls-3{fill:#2bb574;}.cls-4{fill:#fcb614;}</style></defs><path class="cls-1" d="M249.78,130.05H253v8.35h9.76v-8.35h3.19v20.21h-3.19v-8.87H253v8.87h-3.19Z" transform="translate(-67.35 -91.22)"/><path class="cls-1" d="M283.22,149.86a43.3,43.3,0,0,1-6.41.72c-3.94,0-6.3-1.57-6.3-5.38v-9h3.19c0,2.84,0,5.55,0,8.4,0,2.24,1.17,2.86,3.24,2.86a17.78,17.78,0,0,0,3-.3v-11h3.22Z" transform="translate(-67.35 -91.22)"/><path class="cls-1" d="M308,141.16v9.1h-3.22c0-2.84,0-5.66,0-8.5,0-1.74-.6-2.87-2.92-2.87a5.5,5.5,0,0,0-2.64.78,9,9,0,0,1,.18,1.72v8.87h-3.22v-8.5c0-2.09-1.17-2.87-3-2.87a12.39,12.39,0,0,0-2.54.33v11h-3.21V136.48a37.24,37.24,0,0,1,5.9-.7,6.82,6.82,0,0,1,4.24,1.2,8.82,8.82,0,0,1,4.43-1.2C305.59,135.78,308,137.27,308,141.16Z" transform="translate(-67.35 -91.22)"/><path class="cls-1" d="M323.78,141.19v8.42a25.79,25.79,0,0,1-6.23.9c-4.31,0-6.68-1.67-6.68-4.79v0c0-3,2.24-4.66,6.35-4.66a28.82,28.82,0,0,1,3.39.25v-.08c0-1.69-1.29-2.69-3.86-2.69a13.5,13.5,0,0,0-4.81.92l.75-2.94a13.55,13.55,0,0,1,4.78-.8C321.19,135.7,323.78,137.32,323.78,141.19Zm-6.21,6.45a15.06,15.06,0,0,0,3-.32V144a21.37,21.37,0,0,0-3-.28c-2.36,0-3.46.63-3.46,2S315.21,147.64,317.57,147.64Z" transform="translate(-67.35 -91.22)"/><path class="cls-1" d="M327.74,136.48a45.36,45.36,0,0,1,6.38-.7c3.44,0,6.3,1.22,6.3,5.36,0,3,0,6.08,0,9.12h-3.22v-8.5c0-2.12-1.19-2.87-3.26-2.87a18,18,0,0,0-3,.3v11.07h-3.19Z" transform="translate(-67.35 -91.22)"/><path class="cls-1" d="M356.27,142.11h-3.71v8.15h-3.19V130.05h7.79c5.06,0,7.16,2.44,7.16,5.88v0a5.75,5.75,0,0,1-4.76,5.91l5.28,8.4h-3.51Zm-3.71-2.79h4.85c2.3,0,3.72-1.17,3.72-3.24v0c0-2-1.45-3-3.72-3h-4.85Z" transform="translate(-67.35 -91.22)"/><path class="cls-1" d="M380,144.28H369.2a4.07,4.07,0,0,0,4.38,3.46,8.91,8.91,0,0,0,4.36-1.05l1.35,2.5a12.66,12.66,0,0,1-5.93,1.37,7,7,0,0,1-7.45-7.43v0c0-4.47,2.91-7.46,7.27-7.46,4.12,0,6.83,2.85,6.83,7.11Zm-10.79-2.72h7.68c-.2-1.92-1.62-3.09-3.79-3.09A3.63,3.63,0,0,0,369.22,141.56Z" transform="translate(-67.35 -91.22)"/><path class="cls-1" d="M381.31,149.36l.84-2.52a12.52,12.52,0,0,0,4.79,1c2,0,3.29-.29,3.29-1.49s-.48-1.3-2.84-1.92l-1.27-.32c-3.07-.78-4.44-2.15-4.44-4.44,0-2.49,2.09-4,5.61-4a12.05,12.05,0,0,1,5.58,1.2l-.9,2.51a10.41,10.41,0,0,0-4.31-1c-1.67,0-2.66.32-2.66,1.29s.82,1.25,2.74,1.75l1,.27c3.26.85,4.61,2.24,4.61,4.48,0,2.9-2.05,4.39-6.13,4.39A14.07,14.07,0,0,1,381.31,149.36Z" transform="translate(-67.35 -91.22)"/><path class="cls-1" d="M394.94,143.18v0a7.4,7.4,0,0,1,7.65-7.5h0a7.42,7.42,0,0,1,7.7,7.5v0c0,4.29-3.29,7.38-7.7,7.4h0A7.34,7.34,0,0,1,394.94,143.18Zm7.7,4.44a4.32,4.32,0,0,0,4.46-4.44v0a4.37,4.37,0,0,0-4.46-4.51h0a4.34,4.34,0,0,0-4.43,4.51v0a4.31,4.31,0,0,0,4.43,4.44Z" transform="translate(-67.35 -91.22)"/><path class="cls-1" d="M425.91,149.86a43.16,43.16,0,0,1-6.41.72c-3.93,0-6.3-1.57-6.3-5.38v-9h3.19c0,2.84,0,5.55,0,8.4,0,2.24,1.18,2.86,3.24,2.86a17.69,17.69,0,0,0,3-.3v-11h3.22Z" transform="translate(-67.35 -91.22)"/><path class="cls-1" d="M429.84,136.85a21.57,21.57,0,0,1,5.54-.67h2.56v3h-2.17a9.44,9.44,0,0,0-2.74.3v10.82h-3.19Z" transform="translate(-67.35 -91.22)"/><path class="cls-1" d="M439.56,143.11v0a7.12,7.12,0,0,1,7.55-7.4,11.13,11.13,0,0,1,4.81,1l-1.25,2.72a7.78,7.78,0,0,0-3.53-.78,4.11,4.11,0,0,0-4.34,4.44v0a4.11,4.11,0,0,0,4.36,4.44,7.35,7.35,0,0,0,3.54-.78l1.24,2.72a11.32,11.32,0,0,1-4.85,1.05C442.48,150.56,439.59,147.69,439.56,143.11Z" transform="translate(-67.35 -91.22)"/><path class="cls-1" d="M467.22,144.28H456.4a4.08,4.08,0,0,0,4.39,3.46,8.94,8.94,0,0,0,4.36-1.05l1.35,2.5a12.67,12.67,0,0,1-5.94,1.37,7,7,0,0,1-7.45-7.43v0c0-4.47,2.92-7.46,7.28-7.46,4.11,0,6.83,2.85,6.83,7.11Zm-10.79-2.72h7.67c-.2-1.92-1.62-3.09-3.78-3.09A3.63,3.63,0,0,0,456.43,141.56Z" transform="translate(-67.35 -91.22)"/><path class="cls-1" d="M468.51,149.36l.85-2.52a12.47,12.47,0,0,0,4.78,1c2,0,3.29-.29,3.29-1.49s-.47-1.3-2.84-1.92l-1.27-.32c-3.06-.78-4.43-2.15-4.43-4.44,0-2.49,2.09-4,5.6-4a12.05,12.05,0,0,1,5.58,1.2l-.89,2.51a10.45,10.45,0,0,0-4.31-1c-1.67,0-2.67.32-2.67,1.29s.82,1.25,2.74,1.75l1,.27c3.27.85,4.61,2.24,4.61,4.48,0,2.9-2,4.39-6.13,4.39A14.13,14.13,0,0,1,468.51,149.36Z" transform="translate(-67.35 -91.22)"/><path class="cls-1" d="M499.46,141.19v8.42a25.79,25.79,0,0,1-6.23.9c-4.31,0-6.68-1.67-6.68-4.79v0c0-3,2.24-4.66,6.36-4.66a28.81,28.81,0,0,1,3.38.25v-.08c0-1.69-1.29-2.69-3.86-2.69a13.5,13.5,0,0,0-4.81.92l.75-2.94a13.55,13.55,0,0,1,4.78-.8C496.87,135.7,499.46,137.32,499.46,141.19Zm-6.21,6.45a15.06,15.06,0,0,0,3-.32V144a21.23,21.23,0,0,0-3-.28c-2.36,0-3.46.63-3.46,2S490.89,147.64,493.25,147.64Z" transform="translate(-67.35 -91.22)"/><path class="cls-1" d="M503.42,136.48a45.36,45.36,0,0,1,6.38-.7c3.44,0,6.3,1.22,6.3,5.36,0,3,0,6.08,0,9.12h-3.22v-8.5c0-2.12-1.19-2.87-3.26-2.87a18.07,18.07,0,0,0-3,.3v11.07h-3.19Z" transform="translate(-67.35 -91.22)"/><path class="cls-1" d="M532.65,130.05v19.71a20.33,20.33,0,0,1-5.76,1c-4.88,0-7.82-2.84-7.82-7.45v0c0-4.68,3.09-7.4,7.82-7.4a19.23,19.23,0,0,1,2.54.2v-6Zm-3.22,17.57v-8.53a12,12,0,0,0-2.64-.32c-3,0-4.63,1.84-4.63,4.48v.05c0,2.8,1.79,4.54,4.66,4.54A14.44,14.44,0,0,0,529.43,147.62Z" transform="translate(-67.35 -91.22)"/><path class="cls-1" d="M248.9,180.53l1.25-2.66a10.39,10.39,0,0,0,5.73,1.67c2.89,0,4.51-1.18,4.51-3v0c0-1.52-1.09-2.29-4-3.16l-1.74-.53c-3.59-1-5.16-2.79-5.16-5.8V167c0-3.24,2.61-5.41,7-5.41a12.72,12.72,0,0,1,6.71,1.74L261.94,166a10.06,10.06,0,0,0-5.46-1.57c-2.59,0-3.81,1.05-3.81,2.49v0c0,1.75,1,2.37,3.14,3,.54.18,1.27.38,1.82.53,4.26,1.19,6,3,6,5.95v.05c0,3.69-2.92,5.88-7.6,5.88A13.21,13.21,0,0,1,248.9,180.53Z" transform="translate(-67.35 -91.22)"/><path class="cls-1" d="M266.05,175v0a7.4,7.4,0,0,1,7.65-7.5h0a7.42,7.42,0,0,1,7.7,7.5v0c0,4.28-3.29,7.37-7.7,7.4h0A7.35,7.35,0,0,1,266.05,175Zm7.7,4.43a4.32,4.32,0,0,0,4.46-4.43v0a4.36,4.36,0,0,0-4.46-4.51h0a4.33,4.33,0,0,0-4.43,4.51v0a4.3,4.3,0,0,0,4.43,4.43Z" transform="translate(-67.35 -91.22)"/><path class="cls-1" d="M283.19,175v0c.05-4.44,3.06-7.4,7.55-7.4a11,11,0,0,1,4.81,1l-1.25,2.71a8,8,0,0,0-3.54-.77,4.1,4.1,0,0,0-4.33,4.44v0a4.11,4.11,0,0,0,4.36,4.43,7.49,7.49,0,0,0,3.54-.77l1.24,2.71a11.19,11.19,0,0,1-4.86,1.05C286.1,182.4,283.21,179.54,283.19,175Z" transform="translate(-67.35 -91.22)"/><path class="cls-1" d="M297.81,164.31a1.83,1.83,0,0,1,2-1.77,1.8,1.8,0,1,1,0,3.59A1.83,1.83,0,0,1,297.81,164.31Zm.38,3.71h3.21V182.1h-3.21Z" transform="translate(-67.35 -91.22)"/><path class="cls-1" d="M317.23,173v8.42a25.37,25.37,0,0,1-6.23.9c-4.32,0-6.68-1.67-6.68-4.78v0c0-3,2.24-4.66,6.35-4.66a28.82,28.82,0,0,1,3.39.25v-.07c0-1.7-1.29-2.69-3.86-2.69a13.47,13.47,0,0,0-4.81.92l.75-2.94a13.29,13.29,0,0,1,4.78-.8C314.63,167.55,317.23,169.17,317.23,173ZM311,179.49a15.06,15.06,0,0,0,3-.33v-3.34a21.74,21.74,0,0,0-3-.27c-2.37,0-3.46.62-3.46,1.94S308.65,179.49,311,179.49Z" transform="translate(-67.35 -91.22)"/><path class="cls-1" d="M321.19,161.89h3.21V182.1h-3.21Z" transform="translate(-67.35 -91.22)"/><path class="cls-1" d="M350.39,171.89v0c0,6.25-4.31,10.19-11.14,10.19h-5.93V161.89h5.93C346.1,161.89,350.39,165.73,350.39,171.89Zm-3.47,0c0-4.46-2.64-7-7.25-7h-3.16v14.23h3.16c4.61,0,7.23-2.61,7.25-7.2Z" transform="translate(-67.35 -91.22)"/><path class="cls-1" d="M366.28,176.12H355.47a4.08,4.08,0,0,0,4.39,3.47,9.08,9.08,0,0,0,4.36-1.05l1.34,2.49a12.66,12.66,0,0,1-5.93,1.37,7,7,0,0,1-7.45-7.42v0c0-4.46,2.92-7.45,7.28-7.45,4.11,0,6.82,2.84,6.82,7.1Zm-10.79-2.71h7.68c-.2-1.92-1.62-3.09-3.79-3.09A3.62,3.62,0,0,0,355.49,173.41Z" transform="translate(-67.35 -91.22)"/><path class="cls-1" d="M381.43,168l-4.78,14.08h-4.19L367.58,168H371l3.59,11.17L378.07,168Z" transform="translate(-67.35 -91.22)"/><path class="cls-1" d="M396.81,176.12H386a4.09,4.09,0,0,0,4.39,3.47,9.05,9.05,0,0,0,4.36-1.05l1.34,2.49a12.66,12.66,0,0,1-5.93,1.37A7,7,0,0,1,382.7,175v0c0-4.46,2.92-7.45,7.28-7.45,4.11,0,6.83,2.84,6.83,7.1ZM386,173.41h7.67c-.2-1.92-1.62-3.09-3.79-3.09A3.62,3.62,0,0,0,386,173.41Z" transform="translate(-67.35 -91.22)"/><path class="cls-1" d="M399.72,161.89h3.22V182.1h-3.22Z" transform="translate(-67.35 -91.22)"/><path class="cls-1" d="M405.8,175v0a7.4,7.4,0,0,1,7.65-7.5h0a7.41,7.41,0,0,1,7.69,7.5v0c0,4.28-3.28,7.37-7.69,7.4h0A7.35,7.35,0,0,1,405.8,175Zm7.7,4.43A4.31,4.31,0,0,0,418,175v0a4.36,4.36,0,0,0-4.46-4.51h0A4.34,4.34,0,0,0,409,175v0a4.31,4.31,0,0,0,4.44,4.43Z" transform="translate(-67.35 -91.22)"/><path class="cls-1" d="M437.52,175.1v0c0,4.61-2.94,7.46-7.82,7.46a15.38,15.38,0,0,1-2.55-.23v5.26h-3.21V168.42h.62a20.26,20.26,0,0,1,5.14-.72C434.43,167.7,437.52,170.42,437.52,175.1Zm-3.09,0c0-2.64-1.64-4.48-4.63-4.48a11.61,11.61,0,0,0-2.65.32v8.52a13.68,13.68,0,0,0,2.62.22c2.87,0,4.66-1.74,4.66-4.53Z" transform="translate(-67.35 -91.22)"/><path class="cls-1" d="M460.94,173v9.09h-3.21c0-2.84,0-5.65,0-8.5,0-1.74-.6-2.86-2.91-2.86a5.64,5.64,0,0,0-2.65.77,9.17,9.17,0,0,1,.18,1.72v8.87H449.1v-8.5c0-2.09-1.17-2.86-3-2.86a12.49,12.49,0,0,0-2.54.32v11h-3.21V168.32a37.24,37.24,0,0,1,5.9-.7,6.82,6.82,0,0,1,4.24,1.2,9,9,0,0,1,4.44-1.2C458.57,167.62,460.94,169.12,460.94,173Z" transform="translate(-67.35 -91.22)"/><path class="cls-1" d="M478,176.12H467.19a4.09,4.09,0,0,0,4.39,3.47,9.05,9.05,0,0,0,4.36-1.05l1.35,2.49a12.7,12.7,0,0,1-5.94,1.37A7,7,0,0,1,463.9,175v0c0-4.46,2.92-7.45,7.28-7.45,4.11,0,6.83,2.84,6.83,7.1Zm-10.79-2.71h7.67c-.2-1.92-1.62-3.09-3.78-3.09A3.62,3.62,0,0,0,467.22,173.41Z" transform="translate(-67.35 -91.22)"/><path class="cls-1" d="M481.05,168.32a45.21,45.21,0,0,1,6.38-.7c3.43,0,6.3,1.23,6.3,5.36,0,3,0,6.08,0,9.12h-3.22v-8.5c0-2.11-1.2-2.86-3.26-2.86a17.88,17.88,0,0,0-3,.3V182.1h-3.19Z" transform="translate(-67.35 -91.22)"/><path class="cls-1" d="M499,177.62v-6.71h-2.57V168H499v-5.08h3.16V168h5.33v2.89h-5.33v5.76c0,1.92.92,2.49,2.79,2.49h2.57v2.94H503.8C500.18,182.1,499,180.66,499,177.62Z" transform="translate(-67.35 -91.22)"/><path class="cls-1" d="M128.18,124.7c.67.09,1.33.21,2,.32a105,105,0,0,1,10.54-15.81,113.36,113.36,0,0,0-33.45-18Zm54,42.47L147.74,156l40.47,64.77A112.15,112.15,0,0,0,182.18,167.17Z" transform="translate(-67.35 -91.22)"/><path class="cls-2" d="M125.71,142.22c14.92-23.88,34.37-41.31,62.5-51L147.74,156l-40.48,64.77C103.65,191.22,110.79,166.1,125.71,142.22Z" transform="translate(-67.35 -91.22)"/><path class="cls-3" d="M67.35,129.87l43.05,14A154.89,154.89,0,0,1,124.46,137q.93-2.28,2-4.56c1.17-2.55,2.42-5,3.74-7.42A130.46,130.46,0,0,0,67.35,129.87Zm117.72,14L147.74,156l80.38,26.12A129.93,129.93,0,0,0,185.07,143.85Z" transform="translate(-67.35 -91.22)"/><path class="cls-4" d="M67.35,182.1l45.94-14.93A126.91,126.91,0,0,1,119.06,154a108.8,108.8,0,0,1,5.4-17C101.69,146.75,82.62,161,67.35,182.1Zm99.94-57.4L147.74,156l80.38-26.11A130.19,130.19,0,0,0,167.29,124.7Z" transform="translate(-67.35 -91.22)"/></svg>