<svg xmlns="http://www.w3.org/2000/svg" width="137.338" height="54.141" viewBox="0 0 137.338 54.141">
  <g id="logo1" transform="translate(-1531.042 -2265.334)">
    <path id="Path_1251" data-name="Path 1251" d="M1630.693,2319.474h5v-24.418l-5,2.883Z" fill="#0c1d46"/>
    <path id="Path_1252" data-name="Path 1252" d="M1618.987,2300.907h-5.5a6.711,6.711,0,0,0-6.711,6.711v5.146a6.71,6.71,0,0,0,6.711,6.711h12.21v-4.419h-12.583a1.341,1.341,0,0,1-1.341-1.341v-1.452H1625.7v-4.645a6.71,6.71,0,0,0-6.709-6.711m1.714,7.956h-8.93v-2.2a1.342,1.342,0,0,1,1.342-1.341h6.245a1.342,1.342,0,0,1,1.342,1.341v2.2Z" fill="#0c1d46"/>
    <path id="Path_1253" data-name="Path 1253" d="M1661.67,2300.908h-4.164l-2.81,1.622a6.688,6.688,0,0,0-4.371-1.622h-9.63v18.566h4.995v-14.148h5.005a1.344,1.344,0,0,1,1.341,1.341v12.807h5v-11.856a6.721,6.721,0,0,0-.4-2.292h5.409a1.342,1.342,0,0,1,1.342,1.341v12.8h4.995v-11.856a6.711,6.711,0,0,0-6.711-6.711" fill="#0c1d46"/>
    <path id="Path_1254" data-name="Path 1254" d="M1655.69,2288.017v-7.155a1.342,1.342,0,0,1,1.341-1.342h6.354V2275.1H1657.4a6.709,6.709,0,0,0-6.709,6.711v6.21h-3.662a1.347,1.347,0,0,1-1.342-1.342V2268.02l-5,2.883v14.826a6.679,6.679,0,0,0,.4,2.288h-5.406V2275.1h-9.649a6.71,6.71,0,0,0-6.711,6.709v6.206h-10.336l-2.554,4.422h33.784l2.808-1.623a6.684,6.684,0,0,0,4.372,1.623h20.976v-4.419h-12.692Zm-31.362,0v-7.152a1.342,1.342,0,0,1,1.342-1.342h5.021v8.494Z" fill="#0c1d46"/>
    <path id="Path_1255" data-name="Path 1255" d="M1559.185,2308.655v-10.864l9.411,5.454v10.819Z" fill="#f16845"/>
    <path id="Path_1256" data-name="Path 1256" d="M1559.185,2286.972l9.411-5.409v10.819l-9.411,5.41Z" fill="#6e43b5"/>
    <path id="Path_1257" data-name="Path 1257" d="M1578.006,2276.153l-9.411,5.409v-10.819l9.411-5.409Z" fill="#6e43b5"/>
    <path id="Path_1258" data-name="Path 1258" d="M1540.408,2286.972l9.411-5.409v10.819l-9.411,5.41Z" fill="#6e43b5"/>
    <path id="Path_1259" data-name="Path 1259" d="M1549.819,2292.381v-10.819l9.366,5.409v10.819Z" fill="#c18fd6"/>
    <path id="Path_1260" data-name="Path 1260" d="M1587.372,2292.381v-10.819l9.411,5.409v10.819Z" fill="#0070c7"/>
    <path id="Path_1261" data-name="Path 1261" d="M1531.042,2314.064l9.366-5.409,9.411,5.409-9.411,5.41Z" fill="#f7a573"/>
    <path id="Path_1262" data-name="Path 1262" d="M1549.819,2314.064l9.366-5.409,9.411,5.409-9.411,5.41Z" fill="#f7a573"/>
    <path id="Path_1263" data-name="Path 1263" d="M1559.185,2297.791l9.411-5.41,9.366,5.41-9.366,5.454Z" fill="#2e9fda"/>
    <path id="Path_1264" data-name="Path 1264" d="M1577.961,2297.791l9.411-5.41,9.411,5.41-9.411,5.454Z" fill="#2e9fda"/>
  </g>
</svg>
