<svg xmlns="http://www.w3.org/2000/svg" width="321.286" height="73.649" viewBox="0 0 321.286 73.649">
  <g id="MainLogo_1" data-name="MainLogo 1" transform="translate(-7.449 -12.941)">
    <path id="Path_1" data-name="Path 1" d="M65.547,58.564a.851.851,0,1,0-.853-.851A.916.916,0,0,0,65.547,58.564Z" transform="translate(22.473 17.242)" fill="#fff"/>
    <path id="Path_2" data-name="Path 2" d="M69.322,56.828a.857.857,0,0,0,.71-.568.526.526,0,0,0,.426.284c.71,0,.853-.71.995-2.129l-.284.142s-.142,1.419-.568,1.419c-.142,0-.284-.284-.284-.284s.142-.851.142-1.135a1.433,1.433,0,0,0-.426.142s-.284,1.419-.71,1.419c-.284,0-.284-.284-.284-.426v-.426a.621.621,0,0,1,.142-.426H68.9a1.712,1.712,0,0,0-.426,1.135,1.278,1.278,0,0,0,.142.71A2.894,2.894,0,0,1,69.322,56.828Z" transform="translate(23.955 16.282)" fill="#fff"/>
    <path id="Path_3" data-name="Path 3" d="M70.853,64.2a.851.851,0,1,0,.853.851A.819.819,0,0,0,70.853,64.2Z" transform="translate(24.556 20.122)" fill="#fff"/>
    <path id="Path_4" data-name="Path 4" d="M69.118,64.2a.851.851,0,1,0,.853.851A.753.753,0,0,0,69.118,64.2Z" transform="translate(23.875 20.122)" fill="#fff"/>
    <path id="Path_5" data-name="Path 5" d="M81.771,57.851A.851.851,0,1,0,80.919,57Q81.132,57.851,81.771,57.851Z" transform="translate(28.842 16.962)" fill="#fff"/>
    <path id="Path_6" data-name="Path 6" d="M80.138,57.851A.851.851,0,1,0,79.286,57,.819.819,0,0,0,80.138,57.851Z" transform="translate(28.201 16.962)" fill="#fff"/>
    <path id="Path_7" data-name="Path 7" d="M93.452,54.434V56.7c.142,2.7.142,5.818.142,8.514H89.474v-.426a25.516,25.516,0,0,0-.284-3.973,4.258,4.258,0,0,1-1.137.568,34.869,34.869,0,0,1,.284,3.689H84.358v-.284a3.152,3.152,0,0,0-3.126-3.122,3.032,3.032,0,0,0-2.984,3.122v.284H74.411v-.426c0-1.845-.284-4.4-.426-5.676a4.257,4.257,0,0,1-1.137.568c.142,1.561.284,4.115.426,5.392H67.022V61.1l-1.421.851c0,.851.142,3.548.142,4.825a3.991,3.991,0,0,1-2.274,3.689c3.126-.426,3.41-2.129,3.552-3.831h11.51a3.176,3.176,0,0,0,2.558,1.419,2.816,2.816,0,0,0,2.558-1.419H94.589c-.142-4.4-.142-8.373-.284-12.63A4.2,4.2,0,0,1,93.452,54.434ZM81.232,66.78a1.845,1.845,0,1,1,1.847-1.845A1.88,1.88,0,0,1,81.232,66.78Z" transform="translate(21.992 16.122)" fill="#fff"/>
    <path id="Path_8" data-name="Path 8" d="M87.653,54.474l.284,10.359c0,1.277.142,1.845.568,1.845a5.6,5.6,0,0,0,.853-.284c-.284-.71-.284-2.98-.426-12.488C88.506,54.048,88.079,54.332,87.653,54.474Z" transform="translate(31.486 16.082)" fill="#fff"/>
    <path id="Path_9" data-name="Path 9" d="M113.764,58.324a37.373,37.373,0,0,1,.426,5.392h-4.263c-1.7,0-2.7-1.419-3.837-2.98-.994-1.419-1.848-2.7-3.268-2.7H102.4l-1.137,1.419a1.8,1.8,0,0,1,.853-.142c1.421,0,2.131,1.277,3.127,2.412a11.012,11.012,0,0,0,1.847,1.845h-9.8c0-1.561-.426-4.683-1.989-4.683-1.137,0-2.842,1.7-2.842,4.257a1.667,1.667,0,0,0,1.847,1.7h1.563a5.669,5.669,0,0,1-2.842,3.832c2.7,0,3.837-1.987,4.121-3.832h18.189c0-.568.142-1.277.142-1.7,0-1.845-.284-4.4-.428-5.676A2.823,2.823,0,0,1,113.764,58.324ZM94.58,63.859c-.284,0-1.137-.142-1.137-.993,0-1.419.853-2.554,1.279-2.554.853,0,1.137,2.838,1.279,3.69H94.58Z" transform="translate(33.369 17.482)" fill="#fff"/>
    <path id="Path_10" data-name="Path 10" d="M108.2,57.036a.851.851,0,1,0-.852-.851A.916.916,0,0,0,108.2,57.036Z" transform="translate(39.217 16.642)" fill="#fff"/>
    <path id="Path_11" data-name="Path 11" d="M115.3,53.349v.284c0,.142-.142.426-.142.568a.662.662,0,0,0,.71.71c.57,0,1.138-1.277,1.28-1.561h.142q.213,0,.426-.426h-.426c0-.71-.284-.851-.426-.851-.284,0-.568.426-.568.71a.6.6,0,0,0,.568.568c-.284.568-.568.993-1,.993s-.426-.284-.426-.71a.853.853,0,0,1,.142-.568v-.142c0-.142,0-.284-.142-.284s-.142,0-.284.142a1.527,1.527,0,0,0-.568.71v.284C115.018,53.349,115.3,53.349,115.3,53.349Zm1.28-.851a.5.5,0,0,1,.142-.284,1.467,1.467,0,0,1,.142.568C116.866,52.923,116.724,52.782,116.582,52.5Z" transform="translate(42.061 15.362)" fill="#fff"/>
    <path id="Path_12" data-name="Path 12" d="M115.4,55.005h-.284a1.712,1.712,0,0,0-.426,1.135,1.278,1.278,0,0,0,.142.71c.142.142.284.284.426.284a.857.857,0,0,0,.71-.568.526.526,0,0,0,.428.284c.71,0,.852-.71.994-2.129l-.284.142s-.142,1.419-.568,1.419c-.142,0-.284-.284-.284-.284s.142-.852.142-1.135a1.445,1.445,0,0,0-.428.142s-.284,1.419-.71,1.419c-.284,0-.284-.284-.284-.426v-.426C115.4,55.289,115.4,55.005,115.4,55.005Z" transform="translate(42.101 16.402)" fill="#fff"/>
    <path id="Path_13" data-name="Path 13" d="M115.342,64.1a.851.851,0,1,0,.852.851A.916.916,0,0,0,115.342,64.1Z" transform="translate(42.021 20.082)" fill="#fff"/>
    <path id="Path_14" data-name="Path 14" d="M116.975,64.1a.851.851,0,1,0,.852.851A.818.818,0,0,0,116.975,64.1Z" transform="translate(42.662 20.082)" fill="#fff"/>
    <path id="Path_15" data-name="Path 15" d="M147.037,57.779a.522.522,0,0,1-.426.142l-.852.426c.142,1.561.284,4.4.284,5.392h-1.99a42.663,42.663,0,0,0-.284-4.967.522.522,0,0,1-.426.142c-.284.142-.426.284-.71.426.142,1.561.284,3.689.284,4.4h-2.274a27.069,27.069,0,0,0-.284-3.973l-1.136.568a14.02,14.02,0,0,1,.142,2.129V63.6h-6.537c1.42-2.412,1.7-3.548,1.7-4.115,0-.851-.71-.993-1.562-.993a12.65,12.65,0,0,0-2.132.284,12.618,12.618,0,0,1-2.131.284c-.284,0-.568-.142-.994-.142.142.142.284.142.284.284a.139.139,0,0,1,.142.142,14.074,14.074,0,0,0,1.7,4.541h-5.969c-.71-1.561-1.562-3.264-2.415-4.825a1.66,1.66,0,0,0-1.564-.993c-.994,0-2.273.71-2.273,1.845,0,.426.142.993,1.7,3.973h-4.4c-2.274,0-2.7-1.7-2.842-4.4a10.043,10.043,0,0,0-.142,1.987c0,2.7.71,3.832,3.268,3.832h6.253c-2.558-4.967-2.558-5.109-2.558-5.392a.916.916,0,0,1,.852-.851c.426,0,.71.284,1,.851l2.7,5.251h23.731V63.881A28.224,28.224,0,0,0,147.037,57.779Zm-14.21,2.7c0,.568-.142,1.135-1.42,3.69a11.682,11.682,0,0,1-1.706-4.4h.568a1.8,1.8,0,0,0,.852-.142,6.129,6.129,0,0,0,.712-.142C132.544,59.481,132.828,59.765,132.828,60.475Z" transform="translate(41.02 17.602)" fill="#fff"/>
    <path id="Path_16" data-name="Path 16" d="M72.222,47.109c-.284-.142-.568-.568-1.137-.993L67.39,42.143l2.7-2.7a3.677,3.677,0,0,1,1.989-1.277h.142v-.426h-2.7v.426h.142c.426,0,.568.142.568.284s-.284.426-.71.993l-2.984,3.122V39.447a2.437,2.437,0,0,1,.142-1.135,1.2,1.2,0,0,1,.853-.284h.142V37.6H63.98v.426h.142a1.2,1.2,0,0,1,.853.284c.142.142.142.568.142,1.135v6.67c0,.568,0,.851-.142.993a1.2,1.2,0,0,1-.853.284H63.98v.426h3.695v-.426h-.142a1.2,1.2,0,0,1-.853-.284c-.142-.142-.142-.568-.142-.993V42.71l4.689,5.109h1.989v-.426h-.284A2.4,2.4,0,0,1,72.222,47.109Z" transform="translate(22.192 9.681)" fill="#fff"/>
    <path id="Path_17" data-name="Path 17" d="M70.919,37.988a1.36,1.36,0,0,1,.995.284c.142.142.142.568.142,1.135v6.67a2.435,2.435,0,0,1-.142,1.135,1.2,1.2,0,0,1-.853.284h-.142v.426h3.694V47.5h-.142a1.2,1.2,0,0,1-.853-.284,1.653,1.653,0,0,1-.284-.993v-6.67a2.2,2.2,0,0,1,.284-1.135,1.2,1.2,0,0,1,.853-.284h.142V37.7H70.919Z" transform="translate(24.916 9.721)" fill="#fff"/>
    <path id="Path_18" data-name="Path 18" d="M81.107,38.028a1.36,1.36,0,0,1,.995.284c.142.142.142.568.142,1.135v5.676l-5.968-7.379H74.286v.426h.142a1.471,1.471,0,0,1,.995.71l.142.284v6.953a2.437,2.437,0,0,1-.142,1.135,1.2,1.2,0,0,1-.853.284v.426H77.7v-.426h-.142a1.2,1.2,0,0,1-.853-.284c-.142-.142-.142-.568-.142-1.135v-6.1L83.1,48.1V39.447a2.435,2.435,0,0,1,.142-1.135,1.2,1.2,0,0,1,.853-.284h.142V37.6H81.107Z" transform="translate(26.238 9.681)" fill="#fff"/>
    <path id="Path_19" data-name="Path 19" d="M87.867,43.784a1.36,1.36,0,0,1,.995.284c.142.142.142.568.142.993v2.27a4.9,4.9,0,0,1-1.279.142A4.427,4.427,0,0,1,84.6,46.338a5.173,5.173,0,0,1-1.137-3.406,5.966,5.966,0,0,1,.995-3.689,3.392,3.392,0,0,1,2.558-1.419,3,3,0,0,1,2.274.851,1.885,1.885,0,0,1,.426,1.135v.142h.568L90,37.824a10.409,10.409,0,0,0-3.126-.426,4.513,4.513,0,0,0-3.552,1.419,5.674,5.674,0,0,0-1.279,3.831,6.319,6.319,0,0,0,1.137,3.69,4.6,4.6,0,0,0,3.979,1.7,8.6,8.6,0,0,0,3.126-.568V44.919a1.356,1.356,0,0,1,.284-.993,1.2,1.2,0,0,1,.853-.284v-.426H87.725v.568Z" transform="translate(29.283 9.601)" fill="#fff"/>
    <path id="Path_20" data-name="Path 20" d="M101.908,47.189a7.9,7.9,0,0,1-.568-1.135L97.645,37.4h-.426l-3.552,8.656a1.988,1.988,0,0,1-.568.993,1.086,1.086,0,0,1-.71.284h-.142v.426H94.8v-.426h-.142c-.426,0-.71-.142-.71-.426a5.577,5.577,0,0,1,.284-.851l.568-1.561h4.405l.568,1.419c.142.568.284.851.284.993s0,.284-.142.284-.284.142-.568.142h-.142v.426h2.984v-.426h-.142Zm-6.821-2.98,1.989-4.825,1.989,4.825Z" transform="translate(33.289 9.601)" fill="#fff"/>
    <path id="Path_21" data-name="Path 21" d="M104.729,42.143a5.1,5.1,0,0,0,1.706-1.135A2.133,2.133,0,0,0,107,39.447a1.746,1.746,0,0,0-.71-1.419,2.02,2.02,0,0,0-.852-.284c-.285,0-.854-.142-1.848-.142H100.04v.426a1.2,1.2,0,0,1,.852.284c.142.142.142.568.142,1.135v6.67a2.438,2.438,0,0,1-.142,1.135,1.2,1.2,0,0,1-.852.284H99.9v.426h3.979a4.07,4.07,0,0,0,2.416-.71,2.381,2.381,0,0,0,.852-1.987,2.987,2.987,0,0,0-.71-1.845A2.645,2.645,0,0,0,104.729,42.143Zm-2.273-4.115h.71a3.226,3.226,0,0,1,1.847.426,1.381,1.381,0,0,1,.57,1.277,2.129,2.129,0,0,1-.57,1.561,1.5,1.5,0,0,1-1.278.71h-1.278Zm2.984,8.8a1.547,1.547,0,0,1-1.28.568q-1.7,0-1.7-1.277V42.569h.284a3.586,3.586,0,0,1,2.415.851,2.475,2.475,0,0,1,1,1.987A2.7,2.7,0,0,1,105.44,46.826Z" transform="translate(36.293 9.681)" fill="#fff"/>
    <path id="Path_22" data-name="Path 22" d="M114.222,38.737a4.8,4.8,0,0,0-1.706-.851,11.023,11.023,0,0,0-2.7-.284h-3.695v.426h.142a1.2,1.2,0,0,1,.852.284c.142.142.142.568.142,1.135v6.67a2.438,2.438,0,0,1-.142,1.135,1.2,1.2,0,0,1-.852.284h-.142v.426h3.695a13.5,13.5,0,0,0,2.841-.284,3.619,3.619,0,0,0,1.706-1.135,6.45,6.45,0,0,0,1.42-3.973A4.426,4.426,0,0,0,114.222,38.737Zm-.852,7.379a2.873,2.873,0,0,1-2.558,1.277q-2.131,0-2.132-1.277V38.169h.712a8.056,8.056,0,0,1,2.273.284,3.653,3.653,0,0,1,1.564,1.135,5.175,5.175,0,0,1,1.136,3.406A5.817,5.817,0,0,1,113.37,46.116Z" transform="translate(38.737 9.681)" fill="#fff"/>
    <path id="Path_23" data-name="Path 23" d="M120.129,38.028a1.361,1.361,0,0,1,1,.284c.142.142.142.568.142,1.135v4.825a5.87,5.87,0,0,1-.568,2.7,2.028,2.028,0,0,1-1.706.852A2.58,2.58,0,0,1,117,46.968a5.059,5.059,0,0,1-.712-2.98V39.447a2.2,2.2,0,0,1,.284-1.135,1.208,1.208,0,0,1,.854-.284h.142V37.6h-3.694v.426h.142a1.2,1.2,0,0,1,.852.284,1.832,1.832,0,0,1,.284,1.135v4.541a10.087,10.087,0,0,0,.142,2.27,2.208,2.208,0,0,0,.852,1.135,4.073,4.073,0,0,0,2.416.71,4.248,4.248,0,0,0,2.842-.851,2.3,2.3,0,0,0,.71-1.277,8.817,8.817,0,0,0,.142-2.27V39.447a2.2,2.2,0,0,1,.284-1.135,1.2,1.2,0,0,1,.852-.284h.142V37.6h-3.41Z" transform="translate(41.781 9.681)" fill="#fff"/>
    <path id="Path_24" data-name="Path 24" d="M128.068,45.69l-.426,1.277a1.665,1.665,0,0,1-1,.284h-.284a4.94,4.94,0,0,1-1.847-.284.859.859,0,0,1-.428-.851v-6.67a2.416,2.416,0,0,1,.143-1.135,1.2,1.2,0,0,1,.852-.284h.142V37.6h-3.695v.426h.142a1.2,1.2,0,0,1,.852.284c.142.142.142.568.142,1.135v6.67a2.438,2.438,0,0,1-.142,1.135,1.2,1.2,0,0,1-.852.284h-.142v.426h2.557c1.422,0,2.984,0,4.406.142l.284-2.412h-.71Z" transform="translate(44.785 9.681)" fill="#fff"/>
    <path id="Path_25" data-name="Path 25" d="M136.194,47.189a7.7,7.7,0,0,1-.57-1.135L131.93,37.4H131.5l-3.552,8.656a1.988,1.988,0,0,1-.568.993,1.086,1.086,0,0,1-.71.284h-.142v.426h2.557v-.426h-.142c-.426,0-.71-.142-.71-.426a5.579,5.579,0,0,1,.284-.851l.568-1.561h4.406l.568,1.419c.142.568.284.851.284.993s0,.284-.142.284-.284.142-.568.142h-.142v.426h2.984v-.426h-.142Zm-6.821-2.98,1.989-4.825,1.99,4.825Z" transform="translate(46.748 9.601)" fill="#fff"/>
    <path id="Path_26" data-name="Path 26" d="M140.619,45.73c-.142.71-.284,1.135-.568,1.277q-.428.426-2.558.426h-1.706l5.116-9.366v-.426h-.71l-5.684-.142v2.27h.568v-.142a5.014,5.014,0,0,1,.142-.851c.142-.142.284-.284.426-.284a7.313,7.313,0,0,1,2.274-.284H139.2l-5.115,9.366V48h1.278c1.706,0,3.552,0,5.4.142l.142-2.412Z" transform="translate(49.713 9.641)" fill="#fff"/>
    <path id="Path_27" data-name="Path 27" d="M140,37.988a1.359,1.359,0,0,1,.994.284c.142.142.142.568.142,1.135v6.67a2.438,2.438,0,0,1-.142,1.135,1.2,1.2,0,0,1-.852.284H140v.426h3.694V47.5h-.142a1.2,1.2,0,0,1-.852-.284,1.653,1.653,0,0,1-.284-.993v-6.67a2.2,2.2,0,0,1,.284-1.135,1.2,1.2,0,0,1,.852-.284h.142V37.7H140Z" transform="translate(52.036 9.721)" fill="#fff"/>
    <path id="Path_28" data-name="Path 28" d="M149.8,45.73c-.142.71-.284,1.135-.568,1.277q-.426.426-2.558.426h-1.7l5.115-9.366v-.426h-.71l-5.683-.142v2.27h.568v-.142a5.013,5.013,0,0,1,.142-.851c.142-.142.284-.284.426-.284a7.3,7.3,0,0,1,2.273-.284h1.28l-5.116,9.366V48h1.28c1.7,0,3.552,0,5.4.142l.142-2.412Z" transform="translate(53.318 9.641)" fill="#fff"/>
    <path id="Path_29" data-name="Path 29" d="M160.366,48.994a9.035,9.035,0,0,1-2.557-.852,4.042,4.042,0,0,0,2.983-1.7,5.872,5.872,0,0,0,1.138-3.548,5.67,5.67,0,0,0-1.28-3.832,4.506,4.506,0,0,0-6.821,0,5.676,5.676,0,0,0-1.278,3.832,5.561,5.561,0,0,0,.568,2.554,7.1,7.1,0,0,0,1.422,1.987,4.817,4.817,0,0,0,2.841.851,11.18,11.18,0,0,0,2.558,1.561,6.46,6.46,0,0,0,2.558.568,4.1,4.1,0,0,0,2.842-.993v-.426a7.9,7.9,0,0,1-2.416.426C161.93,49.278,161.22,49.136,160.366,48.994Zm-5.541-2.7a6.942,6.942,0,0,1-1-3.548,5.528,5.528,0,0,1,1-3.548,2.637,2.637,0,0,1,2.415-1.419,2.791,2.791,0,0,1,2.416,1.419,6.941,6.941,0,0,1,.994,3.548,5.536,5.536,0,0,1-.994,3.548,2.765,2.765,0,0,1-4.831,0Z" transform="translate(56.963 9.641)" fill="#fff"/>
    <path id="Path_30" data-name="Path 30" d="M166.355,38.028a1.359,1.359,0,0,1,.994.284c.142.142.142.568.142,1.135v4.825a5.871,5.871,0,0,1-.568,2.7,2.025,2.025,0,0,1-1.7.852,2.581,2.581,0,0,1-1.99-.852,5.071,5.071,0,0,1-.71-2.98V39.447c0-.568,0-.851.284-1.135a1.2,1.2,0,0,1,.852-.284h.142V37.6H160.1v.426h.142a1.2,1.2,0,0,1,.852.284,1.832,1.832,0,0,1,.284,1.135v4.541a10.088,10.088,0,0,0,.142,2.27,2.211,2.211,0,0,0,.854,1.135,4.066,4.066,0,0,0,2.415.71,4.246,4.246,0,0,0,2.842-.851,2.3,2.3,0,0,0,.71-1.277,8.818,8.818,0,0,0,.142-2.27V39.447a2.2,2.2,0,0,1,.285-1.135,1.2,1.2,0,0,1,.852-.284h.142V37.6H166.5v.426Z" transform="translate(59.927 9.681)" fill="#fff"/>
    <path id="Path_31" data-name="Path 31" d="M176.806,47.189a8,8,0,0,1-.57-1.135L172.542,37.4h-.426l-3.552,8.656a1.988,1.988,0,0,1-.568.993,1.086,1.086,0,0,1-.71.284h-.142v.426H169.7v-.426h-.142c-.428,0-.712-.142-.712-.426a5.576,5.576,0,0,1,.284-.851l.57-1.561h4.4l.568,1.419c.142.568.284.851.284.993s0,.284-.142.284-.284.142-.568.142h-.142v.426h2.984v-.426h-.142Zm-6.821-2.98,1.989-4.825,1.99,4.825Z" transform="translate(62.692 9.601)" fill="#fff"/>
    <path id="Path_32" data-name="Path 32" d="M181.537,45.69l-.426,1.277a1.658,1.658,0,0,1-1,.284h-.284a4.939,4.939,0,0,1-1.847-.284.858.858,0,0,1-.426-.851v-6.67a2.438,2.438,0,0,1,.142-1.135,1.2,1.2,0,0,1,.852-.284h.142V37.6H175v.426h.142a1.2,1.2,0,0,1,.852.284c.142.142.142.568.142,1.135v6.67a2.439,2.439,0,0,1-.142,1.135,1.2,1.2,0,0,1-.852.284H175v.426h2.558c1.42,0,2.984,0,4.4.142l.284-2.412h-.71Z" transform="translate(65.776 9.681)" fill="#fff"/>
    <path id="Path_33" data-name="Path 33" d="M180.51,37.988a1.364,1.364,0,0,1,1,.284c.142.142.142.568.142,1.135v6.67a2.438,2.438,0,0,1-.142,1.135,1.206,1.206,0,0,1-.854.284h-.142v.426H184.2V47.5h-.142a1.2,1.2,0,0,1-.852-.284,1.653,1.653,0,0,1-.284-.993v-6.67a2.2,2.2,0,0,1,.284-1.135,1.2,1.2,0,0,1,.852-.284h.142V37.7H180.51Z" transform="translate(67.939 9.721)" fill="#fff"/>
    <path id="Path_34" data-name="Path 34" d="M188.829,37.642h-1.42a28.567,28.567,0,0,1-3.552-.142l-.284,2.412h.568V39.77a2.673,2.673,0,0,1,.568-1.277,3.8,3.8,0,0,1,1.562-.284h1v7.947a2.2,2.2,0,0,1-.284,1.135,1.845,1.845,0,0,1-1.138.284H185.7V48h4.121v-.426h-.142a1.359,1.359,0,0,1-.994-.284,1.832,1.832,0,0,1-.284-1.135V38.209h.994a3.812,3.812,0,0,1,1.564.284c.284.142.426.568.568,1.277v.142h.568l-.284-2.412A16.464,16.464,0,0,1,188.829,37.642Z" transform="translate(69.141 9.641)" fill="#fff"/>
    <path id="Path_35" data-name="Path 35" d="M196.457,38.068h.142c.426,0,.568.142.568.426a2.193,2.193,0,0,1-.426.851l-1.706,3.122-1.7-3.122a1.885,1.885,0,0,1-.426-.993c0-.284.142-.284.426-.284h.142v-.426H190.2v.426h.142c.426,0,.994.426,1.422,1.277l2.131,3.69v2.98a2.2,2.2,0,0,1-.284,1.135,1.657,1.657,0,0,1-.994.284h-.142v.426H196.6v-.426h-.142a1.359,1.359,0,0,1-.994-.284,1.832,1.832,0,0,1-.284-1.135v-2.98l1.989-3.69a5.357,5.357,0,0,1,.71-1.135,1.086,1.086,0,0,1,.712-.284h.142V37.5h-2.416v.568Z" transform="translate(71.745 9.641)" fill="#fff"/>
    <path id="Path_36" data-name="Path 36" d="M209.255,47.189a7.842,7.842,0,0,1-.57-1.135L204.991,37.4h-.426l-3.552,8.656a1.989,1.989,0,0,1-.568.993,1.086,1.086,0,0,1-.71.284h-.142v.426h2.558v-.426h-.143c-.426,0-.71-.142-.71-.426a5.576,5.576,0,0,1,.284-.851l.57-1.561h4.4l.568,1.419c.142.568.284.851.284.993s0,.284-.142.284-.284.142-.568.142h-.142v.426h2.984v-.426H209.4Zm-6.821-2.98,1.989-4.825,1.99,4.825Z" transform="translate(75.43 9.601)" fill="#fff"/>
    <path id="Path_37" data-name="Path 37" d="M218.347,38.108c.71,0,.852.284.852.568a1.8,1.8,0,0,1-.142.851l-1.847,6.386-2.984-8.231H213.8l-2.558,8.089L209.4,39.385a1.8,1.8,0,0,1-.142-.851c0-.284,0-.426.142-.426.142-.142.284-.142.568-.142h.142V37.54h-3.268v.426h.142a.738.738,0,0,1,.568.284,3.388,3.388,0,0,1,.426.993l2.558,8.656h.426l2.558-8.231L216.5,47.9h.426l2.558-8.656a4.8,4.8,0,0,1,.426-1.135.738.738,0,0,1,.568-.284h.142V37.4H218.2v.71Z" transform="translate(78.274 9.601)" fill="#fff"/>
    <path id="Path_38" data-name="Path 38" d="M226.358,47.189a8,8,0,0,1-.57-1.135L222.094,37.4h-.284l-3.552,8.656a1.988,1.988,0,0,1-.568.993,1.086,1.086,0,0,1-.71.284h-.142v.426H219.4v-.426h-.142c-.428,0-.712-.142-.712-.426a5.577,5.577,0,0,1,.284-.851l.57-1.561h4.4l.568,1.419c.142.568.284.851.284.993s0,.284-.142.284-.284.142-.568.142H223.8v.426h2.984v-.426h-.142C226.642,47.473,226.5,47.331,226.358,47.189Zm-6.679-2.98,1.989-4.825,1.99,4.825Z" transform="translate(82.2 9.601)" fill="#fff"/>
    <path id="Path_39" data-name="Path 39" d="M232.447,47.07c-.142-.284-.568-.71-.994-1.419l-.71-1.135a9.138,9.138,0,0,0-.854-1.277,3.1,3.1,0,0,0-.71-.568,4.579,4.579,0,0,0,1.848-1.135,2.615,2.615,0,0,0,.568-1.845,1.831,1.831,0,0,0-.71-1.561,5.149,5.149,0,0,0-2.558-.426H224.49v.426h.142a1.2,1.2,0,0,1,.852.284c.142.142.142.568.142,1.135v6.67a2.437,2.437,0,0,1-.142,1.135,1.2,1.2,0,0,1-.852.284h-.142v.426h3.694v-.426a1.2,1.2,0,0,1-.852-.284c-.142-.142-.142-.568-.142-.993V43.238h1.278l2.842,4.825H233.3v-.426h-.284C232.873,47.353,232.589,47.211,232.447,47.07Zm-5.4-4.541V37.988h.57a3.765,3.765,0,0,1,1.989.426,1.645,1.645,0,0,1,.568,1.419,3.368,3.368,0,0,1-.426,1.7,3.092,3.092,0,0,1-1.278.993Z" transform="translate(85.204 9.721)" fill="#fff"/>
    <path id="Path_40" data-name="Path 40" d="M239.324,38.737a4.8,4.8,0,0,0-1.706-.851,11.023,11.023,0,0,0-2.7-.284h-3.694v.426h.142a1.2,1.2,0,0,1,.852.284c.142.142.142.568.142,1.135v6.67a2.439,2.439,0,0,1-.142,1.135,1.2,1.2,0,0,1-.852.284h-.142v.426h3.694a13.494,13.494,0,0,0,2.841-.284,3.619,3.619,0,0,0,1.706-1.135,6.45,6.45,0,0,0,1.42-3.973A4.426,4.426,0,0,0,239.324,38.737Zm-.852,7.379a2.871,2.871,0,0,1-2.558,1.277q-2.131,0-2.132-1.277V38.169h.712a8.056,8.056,0,0,1,2.273.284,3.653,3.653,0,0,1,1.564,1.135,5.175,5.175,0,0,1,1.136,3.406A7.356,7.356,0,0,1,238.472,46.116Z" transform="translate(87.848 9.681)" fill="#fff"/>
    <path id="Path_41" data-name="Path 41" d="M65.769,23.138a1.4,1.4,0,0,0,1.421-1.277,1.311,1.311,0,0,0-1.421-1.277,1.277,1.277,0,1,0,0,2.554Z" transform="translate(22.393 3)" fill="#fff"/>
    <path id="Path_42" data-name="Path 42" d="M68.1,23.539a4.323,4.323,0,0,0-3.553,1.419,5.3,5.3,0,0,0-1.279,3.69A4.942,4.942,0,0,0,64.544,32.2a4.5,4.5,0,0,0,3.268,1.277,4.215,4.215,0,0,0,3.41-1.419A5.184,5.184,0,0,0,72.5,28.506C72.5,25.384,70.939,23.539,68.1,23.539Zm-.142,8.372c-1.563,0-2.274-1.135-2.274-3.548,0-2.271.853-3.406,2.416-3.406,1.421,0,2.274,1.135,2.274,3.406C70.228,30.776,69.518,31.912,67.955,31.912Z" transform="translate(21.912 4.16)" fill="#fff"/>
    <path id="Path_43" data-name="Path 43" d="M68.36,23.138a1.277,1.277,0,1,0,0-2.554,1.4,1.4,0,0,0-1.421,1.277A1.306,1.306,0,0,0,68.36,23.138Z" transform="translate(23.354 3)" fill="#fff"/>
    <path id="Path_44" data-name="Path 44" d="M91.013,32.2a1.4,1.4,0,0,0-1.421,1.277c0,.851.568,1.277,1.421,1.277a1.273,1.273,0,0,0,1.279-1.277C92.434,32.769,91.723,32.2,91.013,32.2Z" transform="translate(32.247 7.561)" fill="#fff"/>
    <path id="Path_45" data-name="Path 45" d="M114.625,23.928v6.953c0,1.135-.568,1.845-1.564,1.845h-3.837c-.994,0-1.563-.568-1.563-1.845V20.522H105.53v10.5c0,1.135-.568,1.845-1.563,1.845h-3.837V30.314a5.184,5.184,0,0,0-1.279-3.548,5.358,5.358,0,0,0-3.41-1.419H91.747v1.135H95.3a2.5,2.5,0,0,1,1.847.851,4.262,4.262,0,0,1,.568,2.554v2.7h-10.8V25.063H83.789a5.407,5.407,0,0,0-3.695,1.419,5.132,5.132,0,0,0-1.421,3.831,4.169,4.169,0,0,0,1.279,3.122,3.97,3.97,0,0,0,2.842,1.135h2.131c-.142,1.987-.71,3.264-2.558,3.973V39.4c2.7-.71,4.263-2.271,4.689-4.825H104.82a3.494,3.494,0,0,0,2.131-.71,3.493,3.493,0,0,0,2.131.71h4.832a3.057,3.057,0,0,0,3.268-3.264V20.38h-2.132v3.548ZM84.5,32.726H82.795c-1.421,0-1.989-.852-1.989-2.554,0-2.27.995-3.689,2.7-3.689h1.137v6.244Z" transform="translate(27.961 2.92)" fill="#fff"/>
    <path id="Path_46" data-name="Path 46" d="M118.981,27.455v2.129c0,1.135-.568,1.7-1.562,1.7h-3.41c-1.136,0-1.564-.568-1.564-1.845V24.049h-2.131v8.94c0,2.129-.568,3.548-2.558,4.257V38.1c2.842-.851,4.4-2.412,4.689-4.967a2.782,2.782,0,0,0,1.138.142h4.4a3.021,3.021,0,0,0,3.268-3.122v-6.1h-2.132v3.406Z" transform="translate(39.377 4.36)" fill="#fff"/>
    <path id="Path_47" data-name="Path 47" d="M110.36,23.138a1.277,1.277,0,1,0-1.278-1.277A1.192,1.192,0,0,0,110.36,23.138Z" transform="translate(39.898 3)" fill="#fff"/>
    <path id="Path_48" data-name="Path 48" d="M115.6,32.2a1.4,1.4,0,0,0-1.42,1.277c0,.851.568,1.277,1.42,1.277a1.277,1.277,0,1,0,0-2.554Z" transform="translate(41.901 7.561)" fill="#fff"/>
    <path id="Path_49" data-name="Path 49" d="M113.115,32.2a1.273,1.273,0,0,0-1.278,1.277,1.192,1.192,0,0,0,1.278,1.277,1.4,1.4,0,0,0,1.422-1.277A1.511,1.511,0,0,0,113.115,32.2Z" transform="translate(40.98 7.561)" fill="#fff"/>
    <path id="Path_50" data-name="Path 50" d="M120.666,23.138a1.277,1.277,0,1,0-1.278-1.277A1.192,1.192,0,0,0,120.666,23.138Z" transform="translate(43.944 3)" fill="#fff"/>
    <path id="Path_51" data-name="Path 51" d="M144.106,23.888v6.953c0,1.135-.568,1.845-1.564,1.845h-6.963a1.8,1.8,0,0,1-.852-.142c2.274-2.129,3.41-3.264,3.695-3.406a3.406,3.406,0,0,0-1.562-2.7,6.838,6.838,0,0,0-7.959,0,3.454,3.454,0,0,0-1.7,2.838c1.847,1.845,3.126,2.98,3.552,3.406-.284,0-.568.142-.852.142h-5.684c-1.136,0-1.562-.568-1.562-1.845V25.591h-2.132v8.8c0,2.129-.568,3.548-2.558,4.257V39.5c2.842-.851,4.4-2.412,4.69-4.967a2.772,2.772,0,0,0,1.136.142h19.183a3.056,3.056,0,0,0,3.268-3.264V20.482h-2.131Zm-14.494,4.967c0-.426.426-.851.852-1.135a4.069,4.069,0,0,1,2.416-.568,4.356,4.356,0,0,1,2.415.568,1.331,1.331,0,0,1,.852,1.135l-3.267,3.122C131.317,30.558,130.322,29.422,129.612,28.855Z" transform="translate(43.383 2.96)" fill="#fff"/>
    <path id="Path_52" data-name="Path 52" d="M140,23.462V34.673h2.132V20.482H140Z" transform="translate(52.036 2.96)" fill="#fff"/>
    <path id="Path_53" data-name="Path 53" d="M154.647,32.2a1.274,1.274,0,0,0-1.28,1.277,1.193,1.193,0,0,0,1.28,1.277,1.277,1.277,0,1,0,0-2.554Z" transform="translate(57.283 7.561)" fill="#fff"/>
    <path id="Path_54" data-name="Path 54" d="M176.828,25.216l-1.278.142h-1.564c0-.993.428-1.561,1.28-1.561a1.89,1.89,0,0,1,1.136.426,6.911,6.911,0,0,1,.426-.993,3.346,3.346,0,0,0-1.847-.71c-1.706,0-2.416.851-2.416,2.7h-1.136v1.419h5.541V25.216Z" transform="translate(64.374 3.76)" fill="#fff"/>
    <path id="Path_55" data-name="Path 55" d="M213,23.888v6.953c0,1.135-.568,1.845-1.562,1.845h-3.98c-1.136,0-1.562-.568-1.562-1.7V26.3h-2.842c-3.268,0-5.4,1.845-5.4,4.967,0,.993-.57,1.419-1.564,1.419H194.1c-1,0-1.564-.568-1.564-1.845V20.482h-2.416v10.5c0,1.135-.568,1.845-1.562,1.845h-2.7a1.42,1.42,0,0,1-1.562-1.561V20.624h-2.132v10.5c0,1.135-.568,1.7-1.562,1.7H171.65c-1.7,0-2.558-1.135-2.558-3.122a4.527,4.527,0,0,1,1-2.7H168.1a6.072,6.072,0,0,0-.852,3.122,5.175,5.175,0,0,0,1.136,3.406,3.673,3.673,0,0,0,2.984,1.277h9.805a4.709,4.709,0,0,0,2.131-.568,3.433,3.433,0,0,0,2.132.568h3.837a3.5,3.5,0,0,0,2.132-.71,3.491,3.491,0,0,0,2.131.71h3.126a3.791,3.791,0,0,0,1.706-.426,2.87,2.87,0,0,0,2.842,1.561,4.587,4.587,0,0,0,3.837-1.845,3.491,3.491,0,0,0,2.131.71h5.116a3.057,3.057,0,0,0,3.268-3.264V20.624h-2.132v3.264Zm-9.379,5.25v3.973a2.557,2.557,0,0,1-2.131.993c-1,0-1.848-1.135-1.848-2.98,0-2.271.852-3.406,2.7-3.406h1.278Z" transform="translate(62.732 2.96)" fill="#fff"/>
    <path id="Path_56" data-name="Path 56" d="M203.265,23.462V34.673h2.274V20.482h-2.274Z" transform="translate(76.872 2.96)" fill="#fff"/>
    <path id="Path_57" data-name="Path 57" d="M209.85,23.138a1.4,1.4,0,0,0,1.42-1.277,1.311,1.311,0,0,0-1.42-1.277,1.277,1.277,0,1,0,0,2.554Z" transform="translate(78.955 3)" fill="#fff"/>
    <path id="Path_58" data-name="Path 58" d="M212.441,23.138a1.277,1.277,0,1,0,0-2.554,1.4,1.4,0,0,0-1.42,1.277A1.305,1.305,0,0,0,212.441,23.138Z" transform="translate(79.917 3)" fill="#fff"/>
    <path id="Path_59" data-name="Path 59" d="M212.178,23.539a4.325,4.325,0,0,0-3.552,1.419,5.3,5.3,0,0,0-1.278,3.69,4.943,4.943,0,0,0,1.278,3.548,4.286,4.286,0,0,0,3.268,1.277,4.214,4.214,0,0,0,3.41-1.419,5.186,5.186,0,0,0,1.28-3.548C216.584,25.384,215.02,23.539,212.178,23.539Zm-.142,8.372c-1.562,0-2.273-1.135-2.273-3.548,0-2.271.852-3.406,2.415-3.406,1.422,0,2.274,1.135,2.274,3.406C214.31,30.776,213.6,31.912,212.036,31.912Z" transform="translate(78.474 4.16)" fill="#fff"/>
    <path id="Path_60" data-name="Path 60" d="M217.2,23.138a1.277,1.277,0,1,0-1.28-1.277C215.781,22.713,216.493,23.138,217.2,23.138Z" transform="translate(81.834 3)" fill="#fff"/>
    <path id="Path_61" data-name="Path 61" d="M234.545,32.2a1.277,1.277,0,1,0,1.278,1.277A1.274,1.274,0,0,0,234.545,32.2Z" transform="translate(88.649 7.561)" fill="#fff"/>
    <path id="Path_62" data-name="Path 62" d="M223.538,22.691c0-.993.426-1.419,1.138-1.419a1.29,1.29,0,0,1,.994.426,5.575,5.575,0,0,0,.284-.851,2.732,2.732,0,0,0-1.706-.568,2.247,2.247,0,0,0-2.273,2.554h-.852v1.135h4.831V22.833l-1.562.142h-.854Z" transform="translate(83.883 2.88)" fill="#fff"/>
    <path id="Path_63" data-name="Path 63" d="M226.71,27.455v2.129c0,1.135-.568,1.7-1.562,1.7h-4.263c-1.138,0-1.564-.568-1.564-1.845V24.049h-2.274v8.94c0,2.129-.568,3.548-2.557,4.257V38.1c2.842-.851,4.4-2.412,4.689-4.967a2.772,2.772,0,0,0,1.136.142h5.258a3.021,3.021,0,0,0,3.268-3.122v-6.1H226.71Z" transform="translate(81.279 4.36)" fill="#fff"/>
    <path id="Path_64" data-name="Path 64" d="M75.079,24.049H71.811v1.135h3.126a1.73,1.73,0,0,1,1.421.852,4.262,4.262,0,0,1,.568,2.554v2.7h-6.11v1.987H79.2v-4.4a5.184,5.184,0,0,0-1.279-3.548A3.579,3.579,0,0,0,75.079,24.049Z" transform="translate(24.876 4.36)" fill="#fff"/>
    <path id="Path_65" data-name="Path 65" d="M168.079,31.326h-6.963c-1.138,0-1.564-.568-1.564-1.7V24.089h-2.131v5.534c0,1.135-.568,1.7-1.564,1.7h-2.984V28.914a5.185,5.185,0,0,0-1.278-3.548,4.269,4.269,0,0,0-2.984-1.419h-3.268v1.135h3.268a1.733,1.733,0,0,1,1.422.851,4.264,4.264,0,0,1,.568,2.554v2.7H144.49v1.987h11.936a3.492,3.492,0,0,0,2.132-.71,3.492,3.492,0,0,0,2.132.71h12.362V31.184h-4.973Z" transform="translate(53.799 4.32)" fill="#fff"/>
    <path id="Path_66" data-name="Path 66" d="M241.167,26.828a5.359,5.359,0,0,0-3.41-1.419h-3.694v1.135h3.552a2.5,2.5,0,0,1,1.847.851,4.252,4.252,0,0,1,.57,2.554v2.7h-9.805c-.994,0-1.564-.568-1.564-1.845V20.584h-2.131V31.369a3.056,3.056,0,0,0,3.268,3.264h12.788v-4.4A5.345,5.345,0,0,0,241.167,26.828Z" transform="translate(86.006 3)" fill="#fff"/>
    <path id="Path_67" data-name="Path 67" d="M160.743,28.488a6.181,6.181,0,0,1,.568-2.554,1.732,1.732,0,0,1,1.422-.851h4.121V23.947h-4.121a4.248,4.248,0,0,0-2.984,1.419,4.945,4.945,0,0,0-1.28,3.548v2.412h2.274V28.488Z" transform="translate(59.286 4.32)" fill="#fff"/>
    <path id="Path_68" data-name="Path 68" d="M41.586,25.117a20.17,20.17,0,0,1,6.252-1.7c-7.957-2.98-15.062-8.231-26.146-8.231-4.973,0-9.8,1.561-11.794,4.825,1.705-1.7,7.1-3.548,13.073-2.129C28.8,19.157,40.733,24.691,41.586,25.117Z" transform="translate(0.961 0.88)" fill="#fff" fill-rule="evenodd"/>
    <path id="Path_69" data-name="Path 69" d="M24.388,48.449a12.336,12.336,0,0,0,.853,3.264c.284.993.426,1.419.71,2.554a4.544,4.544,0,0,1,1.989-.426,4.381,4.381,0,0,1,1.847.426c.284-.993.426-1.419.71-2.412a13.853,13.853,0,0,0,.853-3.264c-.142-.851-.853-1.277-1.563-1.845.426-1.561.568-3.406.995-4.967-1.421.142-2.274,1.987-2.842,3.122-.71-1.135-1.421-3.122-2.842-3.122.426,1.561.71,3.406.995,4.967C25.383,47.172,24.53,47.6,24.388,48.449Z" transform="translate(6.65 11.321)" fill="#fff" fill-rule="evenodd"/>
    <path id="Path_70" data-name="Path 70" d="M29.966,67.18c.284-1.561,1.421-9.508,1.279-9.933a.305.305,0,0,0-.284-.284,5.178,5.178,0,0,1-2.984,2.27,7.227,7.227,0,0,1-2.416.426h-.284c.284,2.27.853,6.528.995,7.521a5.7,5.7,0,0,0-2.7,2.129H32.95A7.781,7.781,0,0,0,29.966,67.18Z" transform="translate(6.329 17.282)" fill="#fff" fill-rule="evenodd"/>
    <path id="Path_71" data-name="Path 71" d="M52.736,36.106c-.853-.568-1.705-.993-2.7-1.561a32.878,32.878,0,0,1-.71,13.481C46.483,59.946,38.384,70.163,30,75.981a3.1,3.1,0,0,1,1.137.71A50.9,50.9,0,0,0,47.62,61.081C51.315,54.979,54.725,45.755,52.736,36.106Z" transform="translate(8.853 8.481)" fill="#fff" fill-rule="evenodd"/>
    <path id="Path_72" data-name="Path 72" d="M27.784,56.611c-.284,1.7.426,3.406,1.705,3.406,1.137.142,1.137-1.135,2.274-.71-.142,3.548-14.636,6.244-10.515-15.184a6.557,6.557,0,0,0-.995.993,10.842,10.842,0,0,0-1.563,2.27,13.691,13.691,0,0,0,.142,3.406c.426,4.541,3.837,14.049,10.8,11.92,1.989-.568,3.41-3.264,3.126-5.818C32.189,53.773,28.211,53.631,27.784,56.611Z" transform="translate(4.39 12.241)" fill="#fff" fill-rule="evenodd"/>
    <path id="Path_73" data-name="Path 73" d="M37.975,22.113c-8.384,2.27-14.068,7.379-18.9,13.907-2.416,3.406-4.689,6.67-6.11,10.927a45.312,45.312,0,0,0-2.558,14.475c.142,11.21,6.11,20.434,16.768,21.57-.284-.284-.71-.568-.995-.851-.568-.142-1.279-.284-1.847-.426-7.958-2.554-11.51-10.643-10.942-20.576C14.245,47.8,20.071,38.432,26.75,31.053a40.77,40.77,0,0,1,10.231-8.231l1.137-.568A.139.139,0,0,0,37.975,22.113Z" transform="translate(1.162 3.6)" fill="#fff" fill-rule="evenodd"/>
    <path id="Path_74" data-name="Path 74" d="M54.4,24.446a9.475,9.475,0,0,0-4.263-2.554,35.018,35.018,0,0,0-13.5-1.7,9.8,9.8,0,0,1,1.137.426c3.979.142,13.215.851,16.341,4.541a3.4,3.4,0,0,1,.71,3.122c-.71,1.987-4.405,1.7-6.679.993-1.279-.426-3.41-2.129-4.547-2.7a24.946,24.946,0,0,0-3.41,1.561,49.885,49.885,0,0,0,6.963,1.845c2.842.568,6.963,1.135,7.958-1.561A3.289,3.289,0,0,0,54.4,24.446Z" transform="translate(11.457 2.829)" fill="#fff" fill-rule="evenodd"/>
    <path id="Path_75" data-name="Path 75" d="M46.466,35.923c4.973-.426,8.384,1.7,11.51,3.689C56.271,33.368,51.3,30.246,45.33,28.118c2.842-2.412,6.679-3.831,11.226-4.541-2.558-1.7-10.231-3.406-17.194.142a7.93,7.93,0,0,1-2.274-.993,6.936,6.936,0,0,0-.995.426,42.7,42.7,0,0,0-10.515,8.372A50.735,50.735,0,0,0,17.62,42.876c.71-.284,1.279.142,1.847.426-2.842,2.412-3.837,7.947-1.563,12.488A19.123,19.123,0,0,1,21.457,49.4a7.71,7.71,0,0,1,6.679-2.412c1.705.284,2.274,1.7,3.126,2.98.71-1.419,1.421-2.7,3.126-2.98A7.558,7.558,0,0,1,41.067,49.4c1.847,1.987,2.7,4.257,3.694,6.386a13.282,13.282,0,0,0,.995-4.825,11.6,11.6,0,0,0-2.558-7.8c2.7-.993,4.831.284,6.394,1.845,1.279,1.277,3.837,4.257,4.121,4.683C53.571,42.876,50.019,39.328,46.466,35.923Z" transform="translate(3.612 3.414)" fill="#fff" fill-rule="evenodd"/>
    <path id="Path_76" data-name="Path 76" d="M7.449,41.131c3.126-1.845,6.394-3.973,11.51-3.548a11.976,11.976,0,0,0-7.105,14.049c.426-1.419.71-2.7,1.137-3.973,1.421-4.257,3.41-6.528,5.826-9.933.284-.284.426-.568.71-.851,4.547-6.244,9.947-11.211,17.762-13.481.142,0,.284-.142.426-.142-2.558-1.135-14.068-6.244-18.047-5.818,1.705,1.135,4.973,3.406,5.258,7.237-4.263-2.129-12.363-2.129-16.057.568A20.866,20.866,0,0,1,20.1,29.778C13.986,31.765,9.3,35.029,7.449,41.131Z" transform="translate(0 1.753)" fill="#fff" fill-rule="evenodd"/>
    <path id="Path_77" data-name="Path 77" d="M36.082,20.641A39.53,39.53,0,0,1,39.776,16.1a20.79,20.79,0,0,0-7.531,2.838Z" transform="translate(9.734 1.24)" fill="#fff" fill-rule="evenodd"/>
    <path id="Path_78" data-name="Path 78" d="M29,17.766A48.21,48.21,0,0,0,27.3,12.941c-.426,1.277-.853,2.554-1.279,3.69A25.641,25.641,0,0,1,29,17.766Z" transform="translate(7.291)" fill="#fff" fill-rule="evenodd"/>
    <path id="Path_79" data-name="Path 79" d="M56.357,83.911V19.769h.484V83.911Z" transform="translate(19.2 2.68)" fill="#fff" fill-rule="evenodd"/>
  </g>
</svg>
