<?xml version="1.0" encoding="utf-8"?>
<!-- Generator: Adobe Illustrator 27.5.0, SVG Export Plug-In . SVG Version: 6.00 Build 0)  -->
<svg version="1.1" xmlns="http://www.w3.org/2000/svg" xmlns:xlink="http://www.w3.org/1999/xlink" x="0px" y="0px"
	 viewBox="0 0 500 500" style="enable-background:new 0 0 500 500;" xml:space="preserve">
<g id="BACKGROUND">
	<rect style="fill:#FFFFFF;" width="500" height="500"/>
</g>
<g id="OBJECTS">
	<g>
		<defs>
			<rect id="SVGID_1_" width="500" height="500"/>
		</defs>
		<clipPath id="SVGID_00000111174887999264576440000009653012203347934376_">
			<use xlink:href="#SVGID_1_"  style="overflow:visible;"/>
		</clipPath>
		
			<linearGradient id="SVGID_00000162312688631349609990000004659424849245016995_" gradientUnits="userSpaceOnUse" x1="63.4771" y1="250.7159" x2="554.0955" y2="250.7159">
			<stop  offset="0.0066" style="stop-color:#5F4FE4"/>
			<stop  offset="0.9996" style="stop-color:#60D1EF"/>
		</linearGradient>
		
			<path style="clip-path:url(#SVGID_00000111174887999264576440000009653012203347934376_);fill:url(#SVGID_00000162312688631349609990000004659424849245016995_);" d="
			M329.046,505.814c14.5-117.451,97.151-149.351,155.151-123.251c20.949,9.427,45.114,14.501,69.898,14.748L540.53-5.667
			c0,0-296.214-37.934-262.863,2.667c33.35,40.6,58.412,136.142-59.039,150.642c-117.451,14.5-149.351,97.151-123.251,155.151
			c26.1,58,18.85,150.007-31.9,202.207l2.9,18.195l261.394-8.482C328.241,511.834,328.669,508.871,329.046,505.814z"/>
	</g>
	<ellipse style="fill:#372139;" cx="209.043" cy="319.955" rx="50.5" ry="1.777"/>
	<ellipse style="fill:#372139;" cx="314.822" cy="319.955" rx="50.5" ry="1.777"/>
	<g>
		<path style="fill:#000C7E;" d="M211.989,227.289h-37.855v44.542v48.434h82.788v-35.049c3.904-2.885,6.399-1.465,12.253,1.364
			c8.334,4.027,17.827-4.831,17.827-11.677v-5.236c0-6.846-9.492-15.705-17.827-11.677c-5.754,2.781-8.349,4.213-12.253,1.523
			v-32.223h-33.899H211.989z"/>
		<path style="fill:#0A37B3;" d="M216.57,227.289h-36.583v44.542v48.434h79.556v-35.049c3.772-2.885,6.184-1.465,11.841,1.364
			c8.054,4.027,17.228-4.831,17.228-11.677v-5.236c0-6.846-9.174-15.705-17.228-11.677c-5.56,2.781-8.069,4.213-11.841,1.523
			v-32.223h-32.76H216.57z"/>
	</g>
	<ellipse style="fill:#372139;" cx="50.936" cy="318.77" rx="30.678" ry="1.777"/>
	<g>
		<path style="fill:#000C7E;" d="M316.576,227.505h-37.084v33.251c3.41,2.069,5.935,0.65,11.149-1.958
			c8.035-4.018,17.188,4.82,17.188,11.65v5.224c0,6.83-9.152,15.668-17.188,11.65c-5.305-2.653-7.749-4.063-11.149-1.832v34.775
			h81.236v-47.054v-45.706h-33.205H316.576z"/>
		<path style="fill:#0A37B3;" d="M321.155,227.505h-37.084v33.251c3.41,2.069,5.935,0.65,11.149-1.958
			c8.035-4.018,17.188,4.82,17.188,11.65v5.224c0,6.83-9.152,15.668-17.188,11.65c-5.305-2.653-7.749-4.063-11.149-1.832v34.775
			h81.236v-47.054v-45.706h-33.205H321.155z"/>
	</g>
	<ellipse style="fill:#372139;" cx="419.726" cy="319.012" rx="52.238" ry="1.777"/>
	<path style="fill:#372139;" d="M452.973,289.176c0,0.341,4.775,0.618,10.665,0.618c5.89,0,10.665-0.277,10.665-0.618
		c0-0.341-4.775-0.618-10.665-0.618C457.748,288.558,452.973,288.835,452.973,289.176z"/>
	<g>
		<g>
			<path style="fill:#4C2E4D;" d="M477.852,276.363c2.973-0.203,9.438-2.144,9.891-5.538c0.28-2.098-1.398-3.052-2.719-3.473
				c-0.297-0.095-0.273-0.523,0.032-0.585c1.965-0.404,5.266-1.307,6.449-2.968c1.59-2.233,0.514-4.483-2.188-4.841
				c-0.257-0.034-0.352-0.357-0.157-0.528c1.187-1.042,3.65-3.563,1.984-5.314c-1.953-2.054-4.353,0.307-5.573,2.616
				c-0.122,0.232-0.458,0.215-0.552-0.03c-0.366-0.944-1.207-2.463-2.767-2.151c-2.234,0.447-3.609,1.957-3.469,5.327
				c0.063,1.526,0.068,2.69,0.054,3.507c-0.005,0.322-0.441,0.414-0.578,0.123c-0.415-0.883-1.078-1.939-1.985-2.301
				c-1.659-0.662-4.827-0.02-4.995,6.887C471.112,274.002,473.203,276.68,477.852,276.363z"/>
			<path style="fill:#000C7E;" d="M471.821,271.872c0.655-2.48,0.856-8.289-1.787-9.595c-1.634-0.807-2.874,0.298-3.583,1.259
				c-0.159,0.216-0.501,0.078-0.469-0.188c0.212-1.714,0.387-4.656-0.641-6.079c-1.383-1.913-3.514-1.656-4.552,0.449
				c-0.099,0.2-0.388,0.188-0.474-0.018c-0.522-1.256-1.898-3.96-3.786-3.085c-2.214,1.026-0.951,3.635,0.596,5.267
				c0.155,0.164,0.049,0.433-0.177,0.442c-0.871,0.038-2.342,0.305-2.518,1.663c-0.252,1.945,0.6,3.483,3.387,4.299
				c1.262,0.369,2.213,0.687,2.875,0.924c0.261,0.093,0.216,0.474-0.059,0.505c-0.835,0.095-1.879,0.344-2.424,0.984
				c-0.997,1.17-1.349,3.931,4.238,5.974C468.035,276.717,470.796,275.751,471.821,271.872z"/>
			<path style="fill:#FF6C97;" d="M476.383,273.328c2.426-2.782,6.389-10.146,3.813-13.515c-1.593-2.083-3.897-1.449-5.424-0.661
				c-0.343,0.177-0.697-0.219-0.485-0.541c1.367-2.076,3.468-5.758,3.049-8.249c-0.563-3.349-3.477-4.377-6.157-2.324
				c-0.255,0.195-0.621-0.005-0.6-0.325c0.127-1.953,0.076-6.317-2.916-6.393c-3.51-0.088-3.544,4.082-2.59,7.173
				c0.096,0.311-0.213,0.589-0.51,0.458c-1.147-0.507-3.215-1.101-4.308,0.539c-1.566,2.348-1.447,4.875,1.627,7.704
				c1.392,1.281,2.416,2.297,3.12,3.025c0.277,0.286-0.023,0.749-0.398,0.614c-1.137-0.41-2.643-0.754-3.754-0.276
				c-2.033,0.873-4.246,4.211,1.657,10.408S472.588,277.678,476.383,273.328z"/>
		</g>
		<path style="fill:#0A37B3;" d="M489.514,274.126c0,8.441-6.843,15.284-15.284,15.284c-8.441,0-15.284-6.843-15.284-15.284H489.514
			z"/>
	</g>
	<g>
		<g>
			<g>
				<path style="fill:#372139;" d="M21.447,314.503l-0.041,0.008c-0.081-0.23-0.32-0.495-0.49-0.608c0,0-1.234,0.191-3.167-0.442
					c-0.019-0.012-0.037-0.02-0.055-0.031c0.003-2.343-0.019-5.513-0.019-5.513l1.865-0.977c0.353-0.185,0.36-0.76,0.014-1.107
					l-0.909-0.911c-0.189-0.189-0.439-0.247-0.631-0.146l-0.389,0.204l-2.745-2.081l-0.774,0.086c-1.331-0.08-2.74,0.9-3.351,1.266
					c-0.056-0.101-0.164-0.149-0.246-0.106l-1.172,0.614c-0.083,0.043-0.106,0.164-0.051,0.268l5.613,10.735
					c0.354,0.636,0.759,0.726,1.113,0.616c1.594,0.037,3.185-0.043,4.75-0.253c0.471-0.063,0.818-0.373,0.843-0.753l0.044-0.685
					C21.656,314.593,21.566,314.511,21.447,314.503z"/>
				<path style="fill:#E46880;" d="M96.01,278.692l-77.383,31.477c-0.767,0.312-1.637-0.101-1.879-0.893l-2.074-6.773l72.23-38.914
					L96.01,278.692z"/>
			</g>
			<g>
				<g>
					<path style="fill:#372139;" d="M84.417,317.585c0,0-1.409,0.131-3.552-0.72c-2.19-1.536-5.641-3.903-5.641-3.903l0.299-2.367
						c0.057-0.448-0.474-0.827-1.021-0.73l-1.436,0.255c-0.298,0.053-0.514,0.248-0.545,0.493l-0.062,0.493l-3.713,1.206
						l-0.421,0.776c-1.021,1.293-0.929,3.49-1.01,4.128l4.304,0.544l-0.001,0.009c0,0,5.773,1.142,9.715,1.363
						c2.134,0.119,3.607-0.54,3.62-0.639C84.988,318.209,84.647,317.759,84.417,317.585z"/>
					<path style="fill:#372139;" d="M84.976,318.301l-3.037,0.391c-0.459,0.059-0.931,0.059-1.399,0l0,0l-13.202-1.668
						c-0.133-0.017-0.252,0.055-0.265,0.16l-0.188,1.488c-0.013,0.105,0.084,0.204,0.217,0.221l11.048,1.108
						c1.983,0.199,3.974,0.228,5.939,0.086l0,0c0.537-0.039,0.952-0.366,1.006-0.794l0.098-0.772
						C85.206,318.417,85.109,318.318,84.976,318.301z"/>
				</g>
				<g>
					<path style="fill:#FF6C97;" d="M105.413,291.958l-27.759,21.6c-0.654,0.509-1.507,0.689-2.311,0.488l-6.212-1.554
						c-0.64-0.16-0.859-0.957-0.391-1.422l28.515-28.326c2.406-2.419,6.319-2.424,8.731-0.012l0,0
						C108.607,285.354,108.339,289.68,105.413,291.958z"/>
					<path style="fill:#FF6C97;" d="M96.535,291.073l-16.62-8.706c-4.953-2.595-5.433-9.499-0.886-12.754l8.547-6.117l19.314,19.314
						c1.993,1.993,1.993,5.223,0,7.216l-1.047,1.046C103.273,293.644,99.105,293.644,96.535,291.073z"/>
				</g>
			</g>
		</g>
		<g>
			<g>
				<path style="fill:#FEC4C1;" d="M114.3,249.535l1.154,0.62c1.327,0.713,2.98,0.215,3.693-1.112l9.503-17.695l-8.026-4.31
					l-8.393,15.628C110.906,245.134,111.832,248.209,114.3,249.535z"/>
				<g>
					<g>
						<path style="fill:#FEC4C1;" d="M119.49,230.041c-2.449,4.56-0.72,10.479,3.089,12.525c3.809,2.046,9.698,0.218,12.147-4.343
							l2.755-5.13l0,0c2.248-4.186,0.677-9.403-3.509-11.651l-0.038-0.02l-0.449-0.241c-3.959-2.126-8.892-0.64-11.018,3.319
							l-0.221,0.412L119.49,230.041z"/>
						<path style="fill:#FEC4C1;" d="M135.612,233.486c-1.191-0.639-2.736-0.188-3.27,0.806c-0.534,0.994-0.057,2.532,1.134,3.171
							l1.34,0.719l0,0c1.093,0.587,2.455,0.177,3.042-0.916l0.005-0.01l0.063-0.117c0.555-1.034,0.167-2.322-0.866-2.877
							l-0.108-0.058L135.612,233.486z"/>
					</g>
					<g>
						<path style="fill:#0A37B3;" d="M148.808,228.204L148.808,228.204c-1.859,4.167-6.743,6.038-10.91,4.179l-6.837-3.05
							c-4.443-1.982-6.437-7.19-4.455-11.632l0,0c1.982-4.443,7.19-6.437,11.632-4.455l5.838,2.604
							C148.794,217.955,150.913,223.486,148.808,228.204z"/>
						<path style="fill:#0A37B3;" d="M128.677,219.322c-2.67-1.191-5.801,0.008-6.993,2.678l-3.032,6.797
							c-0.064,0.108-0.135,0.21-0.188,0.327l-2.356,5.282l2.771,1.236c1.025,0.457,2.148,0.361,3.06-0.144
							c-0.461-0.494-0.609-1.234-0.316-1.89l0.64-1.434c0.416-0.932,1.508-1.35,2.44-0.935c0.718,0.32,1.126,1.043,1.088,1.783
							c1.71-0.353,3.233-1.482,3.999-3.199l1.566-3.51C132.547,223.645,131.348,220.514,128.677,219.322z"/>
					</g>
				</g>
			</g>
			<g>
				<g>
					<g>
						<path style="fill:#FEC4C1;" d="M173.256,247.875h-26.021c-1.688,0-3.057-1.369-3.057-3.057l0,0
							c0-1.689,1.369-3.057,3.057-3.057h26.021c1.688,0,3.057,1.369,3.057,3.057l0,0
							C176.313,246.506,174.944,247.875,173.256,247.875z"/>
						<g>
							<path style="fill:#FEC4C1;" d="M174.879,242.806L174.879,242.806c-0.718,0-1.299-0.582-1.299-1.299l-0.012-7.545
								c0-0.718,0.582-1.299,1.299-1.299l0,0c0.718,0,1.299,0.582,1.299,1.299l0.012,7.545
								C176.178,242.224,175.597,242.806,174.879,242.806z"/>
							<path style="fill:#FEC4C1;" d="M173.405,241.125L173.405,241.125c-0.718,0-1.299-0.582-1.299-1.299l-0.012-7.545
								c0-0.718,0.582-1.299,1.299-1.299l0,0c0.718,0,1.299,0.582,1.299,1.299l0.012,7.545
								C174.704,240.543,174.122,241.125,173.405,241.125z"/>
							<path style="fill:#FEC4C1;" d="M172.163,242.082L172.163,242.082c-0.718,0-1.299-0.582-1.299-1.299l-0.012-7.545
								c0-0.718,0.582-1.299,1.299-1.299l0,0c0.718,0,1.299,0.582,1.299,1.299l0.012,7.545
								C173.463,241.5,172.881,242.082,172.163,242.082z"/>
							<path style="fill:#FEC4C1;" d="M171.245,244.629L171.245,244.629c-0.718,0-1.299-0.582-1.299-1.299l-0.012-7.545
								c0-0.718,0.582-1.299,1.299-1.299l0,0c0.718,0,1.299,0.582,1.299,1.299l0.012,7.545
								C172.545,244.047,171.963,244.629,171.245,244.629z"/>
							<path style="fill:#FEC4C1;" d="M173.283,247.875L173.283,247.875c1.85,0,3.349-1.499,3.349-3.349v-2.198
								c0-1.85-1.499-3.349-3.349-3.349l0,0c-1.85,0-3.349,1.499-3.349,3.349v2.198
								C169.934,246.376,171.434,247.875,173.283,247.875z"/>
						</g>
						<path style="fill:#372139;" d="M165.767,240.6h-32.865c-2.73,2.606-6.805,3.501-9.823,2.196
							c0.651,0.53,1.257,1.136,1.793,1.829l4.159,5.375l-0.497,0.443h37.234c2.718,0,4.922-2.203,4.922-4.921
							C170.689,242.803,168.485,240.6,165.767,240.6z"/>
					</g>
					<g>
						<path style="fill:#FEC4C1;" d="M182.261,251.105H144.69c-1.893,0,4.073-1.534,4.073-3.427l0,0
							c0-1.893-5.965-3.427-4.073-3.427h37.571c1.892,0,3.427,1.534,3.427,3.427l0,0
							C185.688,249.571,184.154,251.105,182.261,251.105z"/>
						<g>
							<path style="fill:#FEC4C1;" d="M180.55,245.423L180.55,245.423c0.804,0,1.456-0.652,1.456-1.456l0.013-8.457
								c0-0.804-0.652-1.456-1.456-1.456l0,0c-0.804,0-1.456,0.652-1.456,1.456l-0.013,8.457
								C179.094,244.771,179.746,245.423,180.55,245.423z"/>
							<path style="fill:#FEC4C1;" d="M182.203,243.539L182.203,243.539c0.804,0,1.456-0.652,1.456-1.456l0.013-8.457
								c0-0.804-0.652-1.457-1.456-1.457l0,0c-0.804,0-1.456,0.652-1.456,1.457l-0.013,8.457
								C180.746,242.887,181.398,243.539,182.203,243.539z"/>
							<path style="fill:#FEC4C1;" d="M183.594,244.611L183.594,244.611c0.804,0,1.456-0.652,1.456-1.456l0.013-8.457
								c0-0.804-0.652-1.456-1.456-1.456l0,0c-0.804,0-1.456,0.652-1.456,1.456l-0.013,8.457
								C182.138,243.959,182.79,244.611,183.594,244.611z"/>
							<path style="fill:#FEC4C1;" d="M184.623,247.467L184.623,247.467c0.804,0,1.456-0.652,1.456-1.456l0.013-8.457
								c0-0.804-0.652-1.456-1.456-1.456l0,0c-0.804,0-1.456,0.652-1.456,1.456l-0.013,8.457
								C183.167,246.815,183.819,247.467,184.623,247.467z"/>
							<path style="fill:#FEC4C1;" d="M182.339,251.105L182.339,251.105c-2.073,0-3.754-1.681-3.754-3.754v-2.464
								c0-2.073,1.681-3.754,3.754-3.754l0,0c2.073,0,3.754,1.681,3.754,3.754v2.464
								C186.093,249.424,184.412,251.105,182.339,251.105z"/>
						</g>
						<path style="fill:#4C2E4D;" d="M172.981,253.982H120c-3.047,0-5.516-2.47-5.516-5.516l0,0c0-3.047,2.47-5.516,5.516-5.516
							h52.981c3.047,0,5.516,2.47,5.516,5.516l0,0C178.497,251.513,176.028,253.982,172.981,253.982z"/>
					</g>
				</g>
				<path style="fill:#4C2E4D;" d="M92.43,277.875l-10.065-8.104c-1.919-1.338-1.989-4.154-0.138-5.585l26.816-21.581
					c4.928-3.813,12.015-2.909,15.828,2.02l4.159,5.375L97.89,277.74C96.296,278.974,94.084,279.029,92.43,277.875z"/>
			</g>
		</g>
	</g>
	<path style="fill:#372139;" d="M57.613,459.693c0,1.09,15.253,1.974,34.068,1.974c18.815,0,34.068-0.884,34.068-1.974
		c0-1.09-15.253-1.974-34.068-1.974C72.866,457.719,57.613,458.603,57.613,459.693z"/>
	<g>
		<g>
			<path style="fill:#4C2E4D;" d="M108.12,418.762c-9.497-0.648-30.151-6.85-31.597-17.691c-0.894-6.703,4.465-9.748,8.685-11.096
				c0.947-0.302,0.872-1.669-0.102-1.87c-6.278-1.292-16.824-4.175-20.602-9.481c-5.08-7.135-1.641-14.32,6.99-15.465
				c0.821-0.109,1.124-1.14,0.501-1.686c-3.793-3.329-11.659-11.38-6.339-16.974c6.239-6.561,13.907,0.981,17.803,8.358
				c0.391,0.741,1.462,0.687,1.764-0.094c1.168-3.017,3.855-7.868,8.839-6.872c7.136,1.426,11.528,6.251,11.081,17.016
				c-0.202,4.874-0.217,8.594-0.173,11.204c0.017,1.027,1.409,1.323,1.846,0.394c1.326-2.82,3.445-6.193,6.341-7.349
				c5.299-2.114,15.421-0.065,15.957,21.999C129.651,411.219,122.971,419.775,108.12,418.762z"/>
			<path style="fill:#000C7E;" d="M127.388,404.416c-2.092-7.924-2.734-26.48,5.709-30.65c5.22-2.579,9.182,0.951,11.446,4.021
				c0.508,0.689,1.602,0.25,1.497-0.599c-0.679-5.476-1.237-14.873,2.048-19.418c4.417-6.112,11.226-5.29,14.541,1.433
				c0.315,0.64,1.24,0.602,1.514-0.057c1.668-4.012,6.064-12.648,12.094-9.854c7.073,3.278,3.037,11.612-1.904,16.825
				c-0.496,0.523-0.157,1.382,0.564,1.413c2.782,0.12,7.48,0.973,8.043,5.312c0.806,6.213-1.917,11.127-10.819,13.733
				c-4.031,1.18-7.068,2.194-9.186,2.951c-0.833,0.298-0.691,1.514,0.188,1.614c2.666,0.303,6.002,1.1,7.743,3.144
				c3.186,3.738,4.309,12.558-13.538,19.084C139.481,419.894,130.66,416.807,127.388,404.416z"/>
			<path style="fill:#FF6C97;" d="M112.815,409.068c-7.751-8.886-20.411-32.411-12.18-43.174c5.089-6.655,12.45-4.628,17.327-2.112
				c1.095,0.565,2.226-0.699,1.549-1.727c-4.368-6.631-11.079-18.394-9.741-26.352c1.8-10.699,11.106-13.981,19.669-7.424
				c0.815,0.624,1.983-0.014,1.916-1.038c-0.407-6.238-0.244-20.181,9.316-20.422c11.213-0.282,11.322,13.041,8.273,22.916
				c-0.306,0.992,0.679,1.882,1.628,1.463c3.665-1.62,10.269-3.516,13.762,1.723c5.001,7.5,4.622,15.574-5.198,24.612
				c-4.447,4.092-7.718,7.337-9.967,9.663c-0.885,0.915,0.075,2.393,1.272,1.962c3.632-1.309,8.443-2.408,11.992-0.883
				c6.493,2.79,13.565,13.45-5.293,33.248C138.283,421.32,124.936,422.964,112.815,409.068z"/>
		</g>
		<path style="fill:#0A37B3;" d="M70.867,411.617c0,26.965,21.86,48.825,48.825,48.825s48.825-21.86,48.825-48.825H70.867z"/>
	</g>
	<g>
		<g>
			<g>
				<g>
					<path style="fill:#FF6C97;" d="M437.729,314.94c0,0-1.409,0.131-3.552-0.72c-2.19-1.536-5.641-3.903-5.641-3.903l0.299-2.367
						c0.057-0.448-0.474-0.827-1.021-0.73l-1.436,0.255c-0.298,0.053-0.514,0.248-0.545,0.493l-0.062,0.493l-3.713,1.206
						l-0.421,0.776c-1.02,1.293-0.929,3.49-1.01,4.128l4.304,0.544l-0.001,0.009c0,0,5.773,1.142,9.715,1.363
						c2.135,0.119,3.608-0.54,3.62-0.639C438.299,315.563,437.958,315.113,437.729,314.94z"/>
					<path style="fill:#FF6C97;" d="M438.287,315.656l-3.037,0.391c-0.459,0.059-0.931,0.059-1.399,0l0,0l-13.202-1.668
						c-0.133-0.017-0.252,0.055-0.265,0.16l-0.188,1.488c-0.013,0.105,0.084,0.204,0.217,0.221l11.048,1.108
						c1.983,0.199,3.974,0.228,5.939,0.086l0,0c0.537-0.039,0.952-0.366,1.006-0.794l0.098-0.772
						C438.517,315.772,438.42,315.672,438.287,315.656z"/>
				</g>
				<g>
					<path style="fill:#372139;" d="M432.836,276.566l-3.744,32.503c-0.088,0.707-0.497,1.335-1.108,1.701l-6.282,0.333
						c-0.486,0.292-1.104-0.06-1.102-0.627l1.676-34.552c-0.008-2.933,2.367-5.315,5.3-5.315l0,0
						C430.764,270.609,433.231,273.403,432.836,276.566z"/>
					<path style="fill:#372139;" d="M427.551,282.023l-21.424,10.138c-4.349,2.048-9.33-1.207-9.2-6.012l0.244-9.032l30.092-6.479
						c2.4-0.331,4.614,1.345,4.945,3.745l0.174,1.26C432.81,278.74,430.647,281.596,427.551,282.023z"/>
				</g>
			</g>
			<g>
				<g>
					<path style="fill:#FF6C97;" d="M471.745,300.792c0,0,0.005,1.462-1.204,3.52c-2.009,1.999-5.112,5.157-5.112,5.157
						l-2.714-0.678c-0.514-0.128-1.009,0.355-0.953,0.93l0.147,1.509c0.031,0.313,0.235,0.565,0.515,0.635l0.566,0.141l1.012,3.988
						l0.856,0.553c1.393,1.247,3.95,1.498,4.682,1.681l1.078-4.317l0.011,0.003c0,0,1.925-5.726,2.59-9.723
						c0.36-2.165-0.251-3.775-0.365-3.803C472.528,300.307,471.97,300.585,471.745,300.792z"/>
					<path style="fill:#FF6C97;" d="M472.633,300.333l0.138,3.168c0.021,0.479-0.028,0.962-0.145,1.431l0,0l-3.307,13.242
						c-0.033,0.134,0.038,0.266,0.158,0.296l1.705,0.426c0.121,0.03,0.246-0.054,0.279-0.187l2.433-11.127
						c0.437-1.997,0.677-4.029,0.718-6.061l0,0c0.011-0.556-0.325-1.031-0.816-1.153l-0.885-0.221
						C472.792,300.116,472.667,300.2,472.633,300.333z"/>
				</g>
				<path style="fill:#4C2E4D;" d="M389.013,274.14l76.75,34.402l-0.027,5.643c-0.614,1.851-2.551,2.915-4.442,2.442l-66.291-19.999
					c-6.392-1.6-10.402-7.936-9.112-14.398L389.013,274.14z"/>
			</g>
		</g>
		<g>
			<g>
				<g>
					<path style="fill:#FEC4C1;" d="M397.011,242.913l1.303,0.138c1.498,0.159,2.841-0.927,2.999-2.425l2.115-19.974l-9.06-0.96
						l-1.868,17.641C392.205,240.12,394.225,242.618,397.011,242.913z"/>
					<g>
						<g>
							<path style="fill:#FEC4C1;" d="M394.452,222.903c-0.545,5.147,3.291,9.975,7.591,10.43c4.299,0.455,9.062-3.462,9.607-8.609
								l0.613-5.791v0c0.5-4.725-2.924-8.962-7.65-9.462l-0.042-0.005l-0.507-0.054c-4.469-0.473-8.475,2.766-8.948,7.234
								l-0.049,0.465L394.452,222.903z"/>
							<path style="fill:#FEC4C1;" d="M409.603,224.837c0.798,0.987,2.3,1.159,3.125,0.492c0.825-0.667,0.971-2.171,0.173-3.158
								l-0.898-1.11l0,0c-0.733-0.906-2.061-1.047-2.967-0.314l-0.008,0.007l-0.097,0.079c-0.857,0.693-0.99,1.949-0.297,2.806
								l0.072,0.089L409.603,224.837z"/>
						</g>
						<path style="fill:#0A37B3;" d="M407.076,200.322c-5.65-0.182-10.383,4.172-10.723,9.779c-0.047,0.024-0.096,0.046-0.142,0.071
							c-0.999-0.458-2.103-0.73-3.269-0.768c-4.696-0.152-8.625,3.532-8.777,8.228l-0.491,15.201l7.975,0.258
							c4.092,0.132,7.632-2.48,8.861-6.177c-0.31,0.183-0.671,0.287-1.058,0.275c-0.956-0.031-1.707-0.831-1.676-1.788l0.051-1.569
							c0.033-1.02,0.886-1.82,1.906-1.787c0.786,0.025,1.438,0.541,1.681,1.242c1.449-0.974,2.434-2.595,2.494-4.474l0.033-1.012
							c9.315-0.175,16.962-7.604,17.267-17.021L407.076,200.322z"/>
					</g>
				</g>
				<path style="fill:#FF6C97;" d="M393.873,234.956c6.592-0.193,11.933,5.303,11.553,11.886l-1.697,34.044
					c-0.255,2-1.78,3.602-3.765,3.956l-12.847-1.06c-2.303,0.411-4.343-1.531-4.047-3.852l3.307-40.235
					c0.225-2.584,2.349-4.589,4.941-4.665L393.873,234.956z"/>
			</g>
			<g>
				<path style="fill:#E46880;" d="M365.307,252.277v20.934v11.304c0.611,0.256,1.281,0.391,1.987,0.338
					c2.391-0.179,4.183-2.262,4.004-4.653l-1.291-17.801l15.341-10.191l1.029-12.512c0.054-0.617,0.222-1.197,0.472-1.729
					L365.307,252.277z"/>
				<g>
					<g>
						<path style="fill:#FEC4C1;" d="M360.504,294.573l3.621-17.949c0.382-1.917,2.245-3.161,4.162-2.779l0,0
							c1.917,0.382,3.161,2.245,2.779,4.162l-3.621,17.949c-0.382,1.917-2.246,3.161-4.162,2.779l0,0
							C361.367,298.353,360.122,296.49,360.504,294.573z"/>
						<path style="fill:#FEC4C1;" d="M362.583,305.379l-0.646-5.785c-0.118-0.985,0.586-1.879,1.57-1.996l0,0
							c0.985-0.117,1.879,0.586,1.996,1.571l0.646,5.785c0.117,0.985-0.586,1.879-1.57,1.996l0,0
							C363.594,307.067,362.701,306.364,362.583,305.379z"/>
						<path style="fill:#FEC4C1;" d="M363.891,302.633l-0.646-5.785c-0.117-0.985,0.586-1.879,1.571-1.996l0,0
							c0.985-0.118,1.879,0.586,1.996,1.57l0.646,5.785c0.117,0.985-0.586,1.879-1.571,1.996l0,0
							C364.902,304.321,364.009,303.618,363.891,302.633z"/>
						<path style="fill:#FEC4C1;" d="M359.155,300.481l1.155-4.707c0.191-0.803,0.997-1.3,1.801-1.109l0,0
							c0.803,0.191,1.3,0.997,1.109,1.8l-1.156,4.707c-0.191,0.803-0.997,1.3-1.8,1.109l0,0
							C359.461,302.091,358.964,301.285,359.155,300.481z"/>
					</g>
					<g>
						<path style="fill:#FF6C97;" d="M397.995,247.405l-23.773,15.792c-2.534,1.692-5.959,1.009-7.651-1.525l0,0
							c-1.692-2.534-1.009-5.959,1.525-7.651l23.773-15.792c2.534-1.692,5.959-1.009,7.651,1.525l0,0
							C401.211,242.288,400.529,245.714,397.995,247.405z"/>
						<path style="fill:#FF6C97;" d="M360.142,285.992l5.644-27.977c0.595-2.988,3.5-4.927,6.488-4.332l0,0
							c2.988,0.595,4.927,3.5,4.332,6.488l-5.644,27.977c-0.595,2.988-3.5,4.927-6.488,4.332l0,0
							C361.487,291.884,359.547,288.979,360.142,285.992z"/>
					</g>
				</g>
			</g>
		</g>
	</g>
</g>
<g id="DESIGNED_BY_FREEPIK">
	<g>
		<g id="XMLID_319_">
			<g id="XMLID_338_">
				<path id="XMLID_346_" style="fill:#F9FBFC;" d="M260.104,465.465c-0.433,0.443-0.804,0.932-1.108,1.453l-0.465-0.241
					c-0.067-0.297-0.35-0.502-0.659-0.466c-0.331,0.039-0.567,0.339-0.529,0.67c0.039,0.331,0.339,0.567,0.67,0.528
					c0.065-0.007,0.127-0.025,0.184-0.052l0.451,0.234c-0.251,0.554-0.433,1.139-0.539,1.743l0.747,0.132
					c0.229-1.306,0.85-2.507,1.792-3.473L260.104,465.465z"/>
				<path id="XMLID_345_" style="fill:#F9FBFC;" d="M265.592,463.163c-0.171,0-0.341,0.006-0.509,0.017l-0.074-0.626
					c0.188-0.149,0.296-0.389,0.266-0.645c-0.046-0.393-0.402-0.674-0.795-0.628c-0.393,0.046-0.675,0.402-0.628,0.796
					c0.03,0.254,0.19,0.461,0.404,0.563l0.073,0.624c-0.714,0.116-1.402,0.332-2.06,0.645l0.327,0.685
					c0.935-0.447,1.941-0.674,2.995-0.674c0.497,0,0.993,0.053,1.476,0.158l0.16-0.741
					C266.692,463.222,266.143,463.163,265.592,463.163z"/>
				<path id="XMLID_344_" style="fill:#F9FBFC;" d="M272.194,465.71c0.331-0.04,0.566-0.341,0.525-0.672
					c-0.04-0.331-0.341-0.566-0.672-0.525c-0.31,0.038-0.535,0.304-0.53,0.608l-0.416,0.363c-0.418-0.43-0.89-0.813-1.407-1.14
					l-0.404,0.642c1.135,0.715,2.021,1.727,2.564,2.925l0.69-0.313c-0.251-0.554-0.567-1.071-0.942-1.545l0.402-0.351
					C272.065,465.715,272.129,465.719,272.194,465.71z"/>
				<path id="XMLID_343_" style="fill:#F9FBFC;" d="M265.045,473.371c-0.386,0.023-0.775,0.035-1.157,0.035
					c-0.88,0-1.733-0.061-2.478-0.18c-0.391-0.061-0.846-0.154-1.271-0.292c1.047,1.861,3.069,3.125,5.389,3.125
					c2.855,0,5.263-1.916,5.949-4.503c-0.682,0.449-1.505,0.825-2.458,1.122C267.839,473.047,266.464,473.286,265.045,473.371z"/>
				<path id="XMLID_339_" style="fill:#F9FBFC;" d="M265.592,464.68c-3.352,0-6.079,2.666-6.079,5.943
					c0,0.425,0.046,0.849,0.137,1.261c0.674,0.483,2.706,0.891,5.348,0.731c2.88-0.174,5.297-0.958,6.672-2.159
					c-0.005-0.194-0.021-0.39-0.045-0.581C271.244,466.913,268.65,464.68,265.592,464.68z M263.433,471.194
					c-1.02,0-1.85-0.83-1.85-1.85c0-1.021,0.83-1.85,1.85-1.85c1.02,0,1.85,0.83,1.85,1.85
					C265.282,470.364,264.452,471.194,263.433,471.194z M268.17,470.286c-0.75,0-1.36-0.61-1.36-1.36s0.61-1.36,1.36-1.36
					s1.36,0.61,1.36,1.36S268.92,470.286,268.17,470.286z"/>
			</g>
			<path id="XMLID_336_" style="fill:#F9FBFC;" d="M281.596,466.547c-0.295-0.116-0.806-0.31-1.383-0.238
				c-0.551,0.069-0.844,0.341-0.844,1.007v0.866h2.228v1.717h-2.228v5.455h-1.932v-5.455h-1.339v-1.717h1.339v-0.889
				c0-1.68,0.896-2.782,2.568-2.782c0.643,0,1.157,0.121,1.59,0.308V466.547z"/>
			<path id="XMLID_334_" style="fill:#F9FBFC;" d="M286.298,469.878c-0.177-0.029-0.357-0.046-0.525-0.046
				c-0.895,0-1.51,0.548-1.51,1.613v3.908h-1.933v-7.172h1.873v0.784c0.451-0.673,1.14-0.977,2.021-0.977
				c0.414,0,0.848,0.128,1.095,0.337L286.298,469.878z"/>
			<path id="XMLID_331_" style="fill:#F9FBFC;" d="M293.966,471.757c0,0.222-0.016,0.488-0.037,0.651h-5.085
				c0.207,1.036,0.933,1.487,1.843,1.487c0.622,0,1.295-0.252,1.813-0.689l1.133,1.243c-0.815,0.748-1.851,1.089-3.057,1.089
				c-2.198,0-3.724-1.496-3.724-3.753c0-2.258,1.48-3.797,3.627-3.797C292.544,467.989,293.958,469.522,293.966,471.757z
				 M288.852,471.091h3.175c-0.178-0.918-0.732-1.436-1.561-1.436C289.555,469.654,289.022,470.202,288.852,471.091z"/>
			<path id="XMLID_328_" style="fill:#F9FBFC;" d="M301.619,471.757c0,0.222-0.016,0.488-0.037,0.651h-5.085
				c0.207,1.036,0.933,1.487,1.843,1.487c0.622,0,1.296-0.252,1.814-0.689l1.133,1.243c-0.814,0.748-1.851,1.089-3.058,1.089
				c-2.198,0-3.723-1.496-3.723-3.753c0-2.258,1.48-3.797,3.627-3.797C300.197,467.989,301.611,469.522,301.619,471.757z
				 M296.505,471.091h3.175c-0.178-0.918-0.733-1.436-1.561-1.436C297.208,469.654,296.675,470.202,296.505,471.091z"/>
			<path id="XMLID_325_" style="fill:#F9FBFC;" d="M309.965,471.764c0,2.154-1.495,3.775-3.472,3.775
				c-0.962,0-1.643-0.378-2.109-0.933v3.708h-1.925v-10.133h1.888v0.792c0.467-0.585,1.154-0.984,2.139-0.984
				C308.47,467.989,309.965,469.61,309.965,471.764z M304.287,471.764c0,1.133,0.748,1.977,1.844,1.977
				c1.14,0,1.85-0.881,1.85-1.977c0-1.095-0.71-1.976-1.85-1.976C305.035,469.788,304.287,470.632,304.287,471.764z"/>
			<path id="XMLID_322_" style="fill:#F9FBFC;" d="M313.068,465.835c0,0.696-0.541,1.23-1.236,1.23c-0.696,0-1.228-0.533-1.228-1.23
				c0-0.695,0.532-1.243,1.228-1.243C312.527,464.592,313.068,465.14,313.068,465.835z M312.809,475.353h-1.932v-7.172h1.932
				V475.353z"/>
			<path id="XMLID_320_" style="fill:#F9FBFC;" d="M316.032,470.735l2.702-2.554h2.368l-3.478,3.375l3.501,3.797h-2.376
				l-2.717-2.901v2.901h-1.932v-10.658h1.932V470.735z"/>
		</g>
		<g>
			<path style="fill:#F9FBFC;" d="M184.413,475.289v-1.055c-0.527,0.718-1.391,1.23-2.387,1.23c-1.846,0-3.149-1.406-3.149-3.706
				c0-2.256,1.289-3.721,3.149-3.721c0.952,0,1.816,0.469,2.387,1.245v-3.765h1.099v9.771H184.413z M184.413,473.37v-3.208
				c-0.395-0.615-1.245-1.143-2.124-1.143c-1.42,0-2.27,1.172-2.27,2.739c0,1.567,0.85,2.725,2.27,2.725
				C183.168,474.483,184.018,473.985,184.413,473.37z"/>
			<path style="fill:#F9FBFC;" d="M186.932,471.744c0-2.051,1.465-3.706,3.486-3.706c2.139,0,3.398,1.67,3.398,3.794v0.278h-5.727
				c0.088,1.333,1.025,2.446,2.549,2.446c0.806,0,1.626-0.322,2.182-0.894l0.527,0.718c-0.703,0.703-1.655,1.084-2.812,1.084
				C188.441,475.465,186.932,473.956,186.932,471.744z M190.404,468.946c-1.509,0-2.256,1.274-2.314,2.358h4.644
				C192.718,470.25,192.015,468.946,190.404,468.946z"/>
			<path style="fill:#F9FBFC;" d="M194.607,474.352l0.571-0.791c0.469,0.542,1.362,1.011,2.329,1.011c1.084,0,1.67-0.513,1.67-1.216
				c0-1.714-4.38-0.659-4.38-3.281c0-1.099,0.952-2.036,2.636-2.036c1.202,0,2.051,0.454,2.623,1.025l-0.513,0.762
				c-0.424-0.513-1.201-0.893-2.109-0.893c-0.966,0-1.567,0.483-1.567,1.113c0,1.553,4.379,0.527,4.379,3.281
				c0,1.186-0.952,2.139-2.783,2.139C196.307,475.465,195.325,475.113,194.607,474.352z"/>
			<path style="fill:#F9FBFC;" d="M201.478,466.471c0-0.41,0.337-0.747,0.732-0.747c0.41,0,0.747,0.337,0.747,0.747
				c0,0.41-0.337,0.732-0.747,0.732C201.814,467.203,201.478,466.881,201.478,466.471z M201.667,475.289v-7.075h1.099v7.075H201.667
				z"/>
			<path style="fill:#F9FBFC;" d="M204.583,477.105l0.556-0.82c0.586,0.703,1.289,0.967,2.3,0.967c1.172,0,2.27-0.571,2.27-2.124
				v-1.011c-0.513,0.718-1.377,1.26-2.373,1.26c-1.846,0-3.149-1.377-3.149-3.662c0-2.271,1.289-3.677,3.149-3.677
				c0.952,0,1.802,0.469,2.373,1.245v-1.069h1.099v6.87c0,2.344-1.641,3.076-3.369,3.076
				C206.237,478.16,205.417,477.925,204.583,477.105z M209.709,473.253v-3.091c-0.381-0.615-1.23-1.143-2.109-1.143
				c-1.421,0-2.27,1.128-2.27,2.695c0,1.553,0.849,2.695,2.27,2.695C208.479,474.41,209.328,473.868,209.709,473.253z"/>
			<path style="fill:#F9FBFC;" d="M217.414,475.289v-4.629c0-1.245-0.63-1.641-1.582-1.641c-0.864,0-1.685,0.527-2.094,1.099v5.171
				h-1.099v-7.075h1.099v1.025c0.497-0.586,1.464-1.201,2.519-1.201c1.48,0,2.256,0.747,2.256,2.285v4.966H217.414z"/>
			<path style="fill:#F9FBFC;" d="M219.933,471.744c0-2.051,1.465-3.706,3.486-3.706c2.139,0,3.398,1.67,3.398,3.794v0.278h-5.727
				c0.088,1.333,1.025,2.446,2.548,2.446c0.806,0,1.626-0.322,2.183-0.894l0.527,0.718c-0.703,0.703-1.655,1.084-2.813,1.084
				C221.442,475.465,219.933,473.956,219.933,471.744z M223.404,468.946c-1.509,0-2.256,1.274-2.314,2.358h4.643
				C225.719,470.25,225.016,468.946,223.404,468.946z"/>
			<path style="fill:#F9FBFC;" d="M233.351,475.289v-1.055c-0.527,0.718-1.392,1.23-2.388,1.23c-1.845,0-3.149-1.406-3.149-3.706
				c0-2.256,1.289-3.721,3.149-3.721c0.952,0,1.817,0.469,2.388,1.245v-3.765h1.098v9.771H233.351z M233.351,473.37v-3.208
				c-0.396-0.615-1.245-1.143-2.124-1.143c-1.421,0-2.27,1.172-2.27,2.739c0,1.567,0.85,2.725,2.27,2.725
				C232.105,474.483,232.955,473.985,233.351,473.37z"/>
			<path style="fill:#F9FBFC;" d="M239.692,475.289v-9.771h1.099v3.765c0.571-0.776,1.421-1.245,2.388-1.245
				c1.845,0,3.149,1.465,3.149,3.721c0,2.3-1.304,3.706-3.149,3.706c-0.996,0-1.86-0.513-2.388-1.23v1.055H239.692z M242.9,474.483
				c1.436,0,2.285-1.157,2.285-2.725c0-1.567-0.85-2.739-2.285-2.739c-0.864,0-1.729,0.527-2.109,1.143v3.208
				C241.172,473.985,242.036,474.483,242.9,474.483z"/>
			<path style="fill:#F9FBFC;" d="M247.529,477.061c0.161,0.073,0.425,0.117,0.6,0.117c0.483,0,0.806-0.161,1.055-0.747l0.469-1.069
				l-2.959-7.148h1.187l2.358,5.801l2.344-5.801h1.2l-3.544,8.511c-0.425,1.024-1.143,1.421-2.08,1.436
				c-0.234,0-0.601-0.044-0.806-0.103L247.529,477.061z"/>
		</g>
	</g>
</g>
</svg>
