<?xml version="1.0" encoding="utf-8"?>
<!-- Generator: Adobe Illustrator 27.5.0, SVG Export Plug-In . SVG Version: 6.00 Build 0)  -->
<svg version="1.1" xmlns="http://www.w3.org/2000/svg" xmlns:xlink="http://www.w3.org/1999/xlink" x="0px" y="0px"
	 viewBox="0 0 750 500" style="enable-background:new 0 0 750 500;" xml:space="preserve">
<g id="BACKGROUND">
	<rect style="fill:#FFFFFF;" width="750" height="500"/>
</g>
<g id="OBJECTS">
	<g>
		<path style="fill:#EBEBF5;" d="M97.719,422.038c-31.763-48.436-110-290.771,159-212.302
			c117.492,34.273,173.83,36.304,233.148,12.507c59.318-23.797,260.852-75.536,183.852,199.795
			C559.719,422.038,176.719,422.038,97.719,422.038z"/>
		<g>
			<g>
				<g>
					<path style="fill:#C9C8E8;" d="M242.186,186.026c3.475-0.002,6.415,2.273,7.421,5.415c2.973-0.741,5.78-1.903,8.337-3.441
						c-1.516-2.933-1.048-6.628,1.413-9.089c2.46-2.461,6.155-2.928,9.09-1.413c1.539-2.557,2.697-5.363,3.44-8.337
						c-3.142-1.005-5.415-3.947-5.415-7.421c0-3.474,2.273-6.416,5.413-7.421c-0.74-2.973-1.899-5.78-3.438-8.337
						c-2.935,1.515-6.629,1.047-9.089-1.414c-2.462-2.46-2.93-6.155-1.413-9.09c-2.558-1.537-5.364-2.697-8.338-3.438
						c-1.006,3.14-3.946,5.414-7.421,5.414c-3.475,0-6.416-2.274-7.421-5.415c-2.974,0.741-5.781,1.901-8.339,3.439
						c1.517,2.935,1.049,6.63-1.412,9.09c-2.461,2.461-6.155,2.929-9.089,1.414c-1.539,2.557-2.699,5.364-3.44,8.337
						c3.141,1.005,5.415,3.947,5.415,7.421c0,3.474-2.274,6.415-5.413,7.421c0.74,2.974,1.899,5.78,3.438,8.337
						c2.934-1.515,6.628-1.047,9.089,1.413c2.461,2.461,2.929,6.156,1.412,9.09c2.558,1.537,5.365,2.699,8.338,3.438
						C235.77,188.299,238.712,186.024,242.186,186.026z M227.497,161.74c-0.001-8.112,6.577-14.69,14.689-14.689
						c8.112-0.001,14.691,6.576,14.69,14.689c0.001,8.113-6.577,14.689-14.69,14.689C234.073,176.43,227.496,169.852,227.497,161.74
						z"/>
					<path style="fill:#FFFFFF;" d="M223.94,159.919c0-0.026,0.001-0.051,0.005-0.074c0.13-1.276,0.396-2.536,0.788-3.751
						c0.124-0.383,0.533-0.592,0.915-0.468c0.381,0.122,0.593,0.532,0.468,0.913c-0.362,1.119-0.606,2.28-0.727,3.452
						c-0.04,0.398-0.397,0.689-0.798,0.65C224.219,160.602,223.939,160.287,223.94,159.919z M223.943,163.597
						c0.001-0.368,0.278-0.683,0.65-0.724c0.4-0.039,0.757,0.25,0.8,0.648c0.122,1.172,0.368,2.333,0.732,3.449
						c0.131,0.387-0.083,0.794-0.465,0.919c-0.383,0.124-0.791-0.086-0.917-0.467c-0.396-1.216-0.663-2.477-0.796-3.749
						C223.945,163.648,223.943,163.621,223.943,163.597z M226.191,152.952c0-0.125,0.032-0.249,0.098-0.363
						c0.639-1.106,1.395-2.149,2.251-3.102c0.269-0.3,0.727-0.323,1.025-0.056c0.299,0.27,0.323,0.73,0.056,1.025
						c-0.786,0.877-1.485,1.84-2.073,2.858c-0.201,0.347-0.645,0.466-0.991,0.266C226.322,153.446,226.192,153.203,226.191,152.952z
						 M226.209,170.559c0.001-0.251,0.131-0.493,0.362-0.629c0.35-0.201,0.792-0.081,0.993,0.265
						c0.589,1.017,1.288,1.978,2.078,2.852c0.265,0.298,0.246,0.759-0.053,1.026c-0.298,0.269-0.757,0.243-1.027-0.053
						c-0.856-0.95-1.616-1.992-2.255-3.097C226.241,170.808,226.21,170.683,226.209,170.559z M231.084,147.507
						c0-0.224,0.102-0.445,0.297-0.588c1.033-0.754,2.148-1.401,3.314-1.924c0.366-0.164,0.796-0.002,0.961,0.364
						c0.162,0.368,0,0.797-0.366,0.961c-1.073,0.48-2.101,1.079-3.051,1.773c-0.324,0.235-0.779,0.164-1.015-0.159
						C231.13,147.805,231.084,147.655,231.084,147.507z M231.111,175.994c0.001-0.148,0.046-0.298,0.141-0.428
						c0.235-0.324,0.689-0.395,1.015-0.159c0.953,0.692,1.98,1.287,3.055,1.766c0.368,0.163,0.529,0.598,0.368,0.96
						c-0.164,0.366-0.594,0.531-0.96,0.367c-1.167-0.52-2.283-1.165-3.318-1.919C231.216,176.439,231.111,176.218,231.111,175.994z
						 M237.764,144.516c0-0.336,0.233-0.639,0.575-0.711c1.247-0.266,2.528-0.401,3.81-0.403c0.4-0.003,0.727,0.32,0.728,0.724
						h0.001c0,0.4-0.324,0.727-0.725,0.727c-1.181,0.003-2.362,0.13-3.509,0.373c-0.394,0.085-0.779-0.166-0.864-0.558
						C237.769,144.615,237.764,144.564,237.764,144.516z M237.799,178.975c0-0.05,0.005-0.101,0.017-0.151
						c0.082-0.392,0.468-0.643,0.861-0.561c1.147,0.243,2.329,0.366,3.509,0.366c0.402,0,0.764,0.326,0.764,0.727
						c0,0.401-0.289,0.726-0.691,0.726h-0.071c-1.282,0-2.563-0.133-3.809-0.395C238.034,179.613,237.801,179.311,237.799,178.975z
						 M245.083,144.501c0.002-0.051,0.006-0.101,0.017-0.151c0.081-0.392,0.467-0.643,0.859-0.561
						c1.253,0.261,2.481,0.657,3.649,1.175c0.368,0.162,0.535,0.588,0.37,0.96c-0.164,0.365-0.592,0.532-0.958,0.368
						c-1.076-0.476-2.205-0.841-3.357-1.081C245.32,145.139,245.083,144.837,245.083,144.501z M245.19,178.958
						c0.001-0.336,0.232-0.636,0.573-0.711c1.153-0.247,2.279-0.619,3.352-1.101c0.366-0.166,0.795-0.002,0.961,0.364
						c0.162,0.364,0.002,0.795-0.365,0.96c-1.163,0.523-2.39,0.927-3.64,1.197c-0.394,0.085-0.781-0.164-0.864-0.557
						C245.196,179.06,245.19,179.009,245.19,178.958z M251.777,147.465c0-0.149,0.045-0.298,0.138-0.426
						c0.236-0.325,0.69-0.398,1.015-0.163c1.036,0.749,1.994,1.609,2.854,2.558c0.268,0.299,0.244,0.757-0.053,1.026
						c-0.296,0.27-0.756,0.247-1.025-0.052c-0.79-0.872-1.675-1.667-2.628-2.355C251.883,147.91,251.777,147.689,251.777,147.465z
						 M251.864,175.954c-0.001-0.224,0.104-0.444,0.297-0.586c0.947-0.694,1.826-1.491,2.614-2.372
						c0.268-0.3,0.727-0.324,1.026-0.056c0.297,0.266,0.323,0.726,0.056,1.024c-0.855,0.956-1.81,1.821-2.837,2.575
						c-0.323,0.237-0.778,0.167-1.016-0.157C251.91,176.253,251.864,176.104,251.864,175.954z M256.691,152.891
						c0.001-0.248,0.129-0.492,0.36-0.628c0.349-0.202,0.793-0.083,0.994,0.262c0.645,1.109,1.173,2.284,1.571,3.498
						c0.126,0.38-0.083,0.791-0.465,0.916c-0.382,0.126-0.791-0.083-0.917-0.465c-0.364-1.114-0.853-2.199-1.444-3.218
						C256.723,153.142,256.691,153.016,256.691,152.891z M256.745,170.496c0-0.123,0.03-0.247,0.097-0.36
						c0.587-1.023,1.066-2.109,1.425-3.229c0.125-0.381,0.533-0.591,0.915-0.469c0.383,0.122,0.594,0.533,0.47,0.913
						c-0.391,1.218-0.912,2.396-1.55,3.507c-0.2,0.35-0.644,0.469-0.992,0.27C256.876,170.992,256.745,170.747,256.745,170.496z
						 M258.972,159.845c0-0.364,0.276-0.68,0.649-0.72c0.399-0.043,0.758,0.245,0.8,0.645c0.136,1.265,0.137,2.577,0.012,3.829
						c-0.041,0.398-0.397,0.689-0.797,0.65c-0.398-0.04-0.68-0.407-0.649-0.797c0.115-1.156,0.115-2.361-0.011-3.529
						C258.974,159.898,258.972,159.872,258.972,159.845z"/>
				</g>
				<g>
					<path style="fill:#C9C8E8;" d="M567.137,160.81c-0.86-2.666,0.158-5.485,2.32-7.036c-1.305-2.097-2.891-3.963-4.703-5.545
						c-1.876,1.891-4.827,2.444-7.324,1.166c-2.496-1.278-3.771-3.997-3.334-6.624c-2.344-0.548-4.785-0.741-7.249-0.575
						c0.006,2.659-1.688,5.134-4.354,5.993c-2.665,0.86-5.484-0.157-7.033-2.318c-2.098,1.306-3.964,2.889-5.546,4.703
						c1.889,1.876,2.444,4.827,1.167,7.323c-1.279,2.498-3.999,3.772-6.624,3.335c-0.549,2.344-0.744,4.784-0.576,7.248
						c2.659-0.005,5.132,1.688,5.992,4.354c0.86,2.666-0.156,5.485-2.317,7.035c1.304,2.098,2.89,3.963,4.705,5.544
						c1.873-1.889,4.825-2.443,7.322-1.165c2.496,1.278,3.771,3.998,3.334,6.624c2.344,0.547,4.784,0.741,7.249,0.575
						c-0.007-2.659,1.687-5.133,4.353-5.993c2.665-0.859,5.485,0.157,7.035,2.318c2.097-1.306,3.964-2.89,5.546-4.703
						c-1.89-1.876-2.444-4.827-1.167-7.323c1.279-2.498,3.998-3.772,6.625-3.336c0.546-2.343,0.742-4.783,0.575-7.247
						C570.472,165.168,567.997,163.476,567.137,160.81z M552.142,178.094c-6.224,2.008-12.898-1.411-14.906-7.636
						c-2.009-6.225,1.408-12.899,7.633-14.907c6.225-2.009,12.899,1.409,14.908,7.634S558.367,176.085,552.142,178.094z"/>
					<path style="fill:#FFFFFF;" d="M551.625,181.273c-0.02,0.006-0.039,0.012-0.059,0.015c-1.009,0.215-2.044,0.324-3.073,0.323
						c-0.323,0-0.585-0.263-0.585-0.586c-0.001-0.323,0.263-0.587,0.586-0.585c0.948,0,1.899-0.1,2.828-0.297
						c0.316-0.067,0.627,0.135,0.695,0.451C552.081,180.89,551.908,181.181,551.625,181.273z M554.447,180.358
						c-0.283,0.092-0.595-0.043-0.715-0.32c-0.131-0.297,0.004-0.642,0.297-0.773c0.869-0.385,1.7-0.861,2.467-1.418
						c0.264-0.195,0.629-0.13,0.818,0.131c0.189,0.263,0.13,0.629-0.131,0.818c-0.833,0.604-1.734,1.121-2.679,1.54
						C554.485,180.345,554.465,180.352,554.447,180.358z M545.722,181.269c-0.094,0.03-0.197,0.037-0.303,0.016
						c-1.007-0.216-1.993-0.539-2.937-0.959c-0.295-0.132-0.428-0.477-0.295-0.773c0.131-0.296,0.479-0.427,0.773-0.297
						c0.867,0.388,1.778,0.686,2.705,0.884c0.315,0.068,0.519,0.379,0.45,0.695C546.069,181.047,545.913,181.207,545.722,181.269z
						 M559.228,176.896c-0.193,0.063-0.412,0.022-0.573-0.122c-0.24-0.217-0.259-0.588-0.044-0.827
						c0.636-0.704,1.198-1.479,1.675-2.301c0.163-0.278,0.521-0.377,0.8-0.213c0.279,0.162,0.375,0.521,0.214,0.8
						c-0.517,0.894-1.13,1.734-1.817,2.497C559.412,176.811,559.324,176.865,559.228,176.896z M540.332,178.864
						c-0.17,0.055-0.365,0.03-0.523-0.084c-0.834-0.605-1.607-1.3-2.295-2.066c-0.218-0.239-0.201-0.609,0.04-0.826
						c0.241-0.215,0.611-0.197,0.827,0.043c0.635,0.704,1.348,1.345,2.117,1.901c0.261,0.191,0.317,0.558,0.129,0.818
						C540.552,178.755,540.447,178.827,540.332,178.864z M562.185,171.789c-0.114,0.037-0.241,0.039-0.363-0.001
						c-0.307-0.101-0.476-0.432-0.374-0.738c0.297-0.903,0.498-1.839,0.6-2.782c0.033-0.322,0.327-0.554,0.643-0.52
						c0.323,0.034,0.555,0.323,0.523,0.645c-0.11,1.025-0.331,2.041-0.652,3.022C562.5,171.599,562.354,171.734,562.185,171.789z
						 M536.384,174.479c-0.257,0.083-0.546-0.021-0.687-0.266c-0.513-0.891-0.934-1.84-1.255-2.821
						c-0.1-0.308,0.069-0.639,0.378-0.739l0,0c0.308-0.099,0.637,0.069,0.736,0.377c0.294,0.905,0.684,1.779,1.155,2.601
						c0.161,0.28,0.065,0.638-0.216,0.8C536.46,174.451,536.421,174.467,536.384,174.479z M562.815,165.921
						c-0.038,0.012-0.079,0.021-0.121,0.025c-0.319,0.034-0.609-0.199-0.643-0.521c-0.099-0.942-0.296-1.879-0.589-2.784
						c-0.099-0.309,0.06-0.666,0.369-0.766c0.307-0.1,0.627,0.042,0.727,0.351l0.018,0.056c0.316,0.982,0.532,1.998,0.641,3.021
						C563.246,165.582,563.073,165.837,562.815,165.921z M534.56,168.867c-0.037,0.012-0.076,0.02-0.119,0.024
						c-0.32,0.033-0.609-0.199-0.643-0.521c-0.11-1.026-0.109-2.066,0-3.091c0.031-0.322,0.316-0.556,0.643-0.521
						c0.321,0.033,0.555,0.321,0.521,0.644c-0.099,0.942-0.099,1.899,0.004,2.843C534.992,168.527,534.819,168.783,534.56,168.867z
						 M560.973,160.254c-0.258,0.083-0.546-0.021-0.688-0.265c-0.476-0.821-1.041-1.595-1.674-2.299
						c-0.218-0.239-0.199-0.609,0.042-0.827c0.239-0.215,0.608-0.198,0.825,0.043c0.69,0.763,1.305,1.603,1.821,2.496
						c0.162,0.279,0.065,0.64-0.214,0.801C561.049,160.224,561.012,160.241,560.973,160.254z M535.179,162.996
						c-0.113,0.036-0.241,0.039-0.361,0c-0.308-0.101-0.477-0.432-0.377-0.738c0.318-0.979,0.74-1.928,1.257-2.822
						c0.162-0.28,0.521-0.375,0.799-0.215c0.282,0.161,0.378,0.52,0.216,0.8c-0.475,0.823-0.865,1.697-1.157,2.6
						C535.494,162.805,535.35,162.94,535.179,162.996z M557.016,155.877c-0.17,0.056-0.367,0.031-0.523-0.083
						c-0.768-0.555-1.596-1.032-2.467-1.418c-0.296-0.131-0.429-0.479-0.298-0.774c0.132-0.295,0.478-0.429,0.772-0.298
						c0.946,0.42,1.848,0.938,2.68,1.54c0.263,0.189,0.323,0.555,0.132,0.817C557.234,155.767,557.13,155.841,557.016,155.877z
						 M538.126,157.884c-0.191,0.061-0.411,0.021-0.573-0.122c-0.24-0.218-0.261-0.587-0.044-0.827
						c0.689-0.771,1.462-1.466,2.294-2.071c0.262-0.191,0.627-0.133,0.817,0.129c0.191,0.262,0.134,0.629-0.128,0.818
						c-0.767,0.557-1.477,1.198-2.11,1.905C538.309,157.796,538.22,157.854,538.126,157.884z M551.62,153.483
						c-0.095,0.03-0.197,0.036-0.302,0.015c-0.93-0.197-1.882-0.295-2.829-0.295c-0.325,0.001-0.586-0.262-0.587-0.584
						c-0.001-0.325,0.262-0.589,0.585-0.588c1.03-0.001,2.064,0.107,3.075,0.321c0.315,0.067,0.517,0.378,0.451,0.694
						C551.968,153.26,551.813,153.421,551.62,153.483z M542.896,154.411c-0.28,0.091-0.593-0.043-0.713-0.32
						c-0.133-0.295,0-0.642,0.297-0.773c0.936-0.416,1.942-0.742,2.934-0.956c0.317-0.067,0.63,0.134,0.696,0.45
						c0.068,0.316-0.144,0.622-0.448,0.695c-0.918,0.198-1.842,0.497-2.707,0.882C542.935,154.398,542.915,154.405,542.896,154.411z
						"/>
				</g>
				<g>
					<path style="fill:#C9C8E8;" d="M361.611,232.753c1.859,1.134,2.69,3.313,2.202,5.323c1.834,0.574,3.716,0.87,5.587,0.883
						c0.147-2.065,1.605-3.891,3.727-4.403c2.121-0.514,4.252,0.443,5.328,2.213c1.658-0.865,3.195-1.989,4.566-3.338
						c-1.353-1.564-1.609-3.883-0.475-5.741c1.135-1.86,3.314-2.692,5.322-2.204c0.576-1.833,0.873-3.715,0.885-5.586
						c-2.066-0.148-3.891-1.605-4.404-3.727c-0.514-2.121,0.443-4.252,2.215-5.327c-0.867-1.658-1.99-3.196-3.34-4.564
						c-1.564,1.352-3.883,1.608-5.742,0.474c-1.859-1.136-2.691-3.314-2.203-5.324c-1.834-0.574-3.716-0.871-5.587-0.884
						c-0.147,2.066-1.605,3.891-3.727,4.403c-2.121,0.514-4.251-0.442-5.327-2.212c-1.659,0.865-3.197,1.989-4.565,3.339
						c1.353,1.563,1.609,3.882,0.474,5.741c-1.135,1.859-3.313,2.69-5.322,2.203c-0.575,1.834-0.872,3.715-0.884,5.586
						c2.065,0.148,3.89,1.605,4.403,3.727c0.513,2.121-0.443,4.252-2.214,5.327c0.866,1.658,1.989,3.198,3.34,4.564
						C357.435,231.873,359.751,231.616,361.611,232.753z M361.684,214.952c2.65-4.342,8.321-5.714,12.664-3.063
						c4.342,2.65,5.714,8.32,3.063,12.663c-2.65,4.344-8.321,5.714-12.663,3.063C360.403,224.965,359.032,219.295,361.684,214.952z"
						/>
					<path style="fill:#FFFFFF;" d="M360.375,212.815c0.008-0.014,0.018-0.026,0.026-0.038c0.487-0.64,1.041-1.229,1.647-1.75
						c0.192-0.164,0.479-0.143,0.644,0.049c0.164,0.189,0.143,0.479-0.048,0.642c-0.56,0.48-1.07,1.022-1.517,1.61
						c-0.151,0.2-0.438,0.239-0.64,0.088C360.301,213.273,360.255,213.013,360.375,212.815z M359.175,214.785
						c0.121-0.196,0.372-0.275,0.585-0.175c0.227,0.11,0.323,0.382,0.216,0.608c-0.317,0.668-0.565,1.369-0.735,2.086
						c-0.056,0.25-0.304,0.397-0.549,0.34c-0.245-0.059-0.395-0.305-0.338-0.55c0.186-0.779,0.454-1.542,0.799-2.267
						C359.159,214.814,359.167,214.799,359.175,214.785z M363.857,209.822c0.04-0.067,0.098-0.123,0.17-0.162
						c0.703-0.384,1.449-0.695,2.219-0.925c0.242-0.073,0.494,0.064,0.567,0.305c0.071,0.242-0.066,0.496-0.306,0.567
						c-0.708,0.212-1.396,0.499-2.044,0.853c-0.221,0.12-0.498,0.039-0.617-0.182C363.765,210.13,363.775,209.957,363.857,209.822z
						 M358.112,219.253c0.083-0.135,0.232-0.222,0.399-0.219c0.253,0.007,0.451,0.215,0.445,0.466
						c-0.017,0.736,0.044,1.48,0.181,2.206c0.045,0.246-0.116,0.486-0.363,0.531c-0.247,0.047-0.485-0.116-0.532-0.363
						c-0.148-0.789-0.215-1.595-0.195-2.394C358.049,219.396,358.072,219.319,358.112,219.253z M368.255,208.506
						c0.072-0.119,0.2-0.204,0.351-0.217c0.8-0.066,1.608-0.049,2.403,0.053c0.249,0.032,0.427,0.259,0.395,0.509
						c-0.033,0.25-0.26,0.427-0.509,0.395c-0.732-0.093-1.477-0.108-2.213-0.048c-0.251,0.021-0.471-0.166-0.491-0.417
						C368.182,208.681,368.206,208.586,368.255,208.506z M358.961,223.764c0.049-0.079,0.122-0.145,0.215-0.183
						c0.231-0.097,0.498,0.014,0.595,0.246c0.284,0.682,0.64,1.336,1.059,1.943c0.144,0.208,0.088,0.493-0.117,0.634
						c-0.207,0.144-0.491,0.091-0.634-0.117c-0.454-0.659-0.841-1.369-1.148-2.111C358.871,224.036,358.888,223.884,358.961,223.764
						z M372.808,209.088c0.109-0.181,0.334-0.266,0.54-0.192c0.755,0.265,1.485,0.611,2.172,1.028
						c0.215,0.129,0.283,0.409,0.152,0.625l0.001,0.001c-0.132,0.214-0.411,0.283-0.626,0.152c-0.633-0.385-1.307-0.703-2-0.947
						c-0.238-0.083-0.363-0.344-0.28-0.581C372.778,209.143,372.792,209.113,372.808,209.088z M361.566,227.545
						c0.017-0.027,0.035-0.053,0.059-0.076c0.172-0.183,0.46-0.191,0.644-0.019c0.534,0.505,1.127,0.956,1.759,1.342
						c0.215,0.132,0.302,0.424,0.171,0.639c-0.131,0.215-0.392,0.294-0.607,0.163l-0.038-0.023c-0.686-0.419-1.328-0.909-1.91-1.457
						C361.483,227.964,361.457,227.726,361.566,227.545z M376.73,211.472c0.018-0.026,0.037-0.053,0.059-0.075
						c0.172-0.184,0.46-0.192,0.645-0.02c0.584,0.549,1.112,1.163,1.568,1.821c0.144,0.208,0.095,0.49-0.115,0.635
						c-0.207,0.143-0.49,0.092-0.633-0.116c-0.422-0.605-0.906-1.17-1.444-1.676C376.649,211.891,376.621,211.651,376.73,211.472z
						 M365.528,229.951c0.11-0.18,0.333-0.265,0.539-0.193c0.698,0.244,1.423,0.413,2.154,0.506c0.25,0.031,0.426,0.259,0.396,0.509
						c-0.033,0.248-0.259,0.426-0.51,0.395c-0.794-0.1-1.582-0.285-2.34-0.548c-0.238-0.084-0.364-0.343-0.28-0.581
						C365.498,230.007,365.512,229.977,365.528,229.951z M379.346,215.245c0.049-0.079,0.121-0.145,0.213-0.183
						c0.232-0.097,0.5,0.013,0.597,0.244c0.31,0.739,0.541,1.513,0.692,2.302c0.046,0.248-0.117,0.485-0.364,0.532
						c-0.247,0.048-0.485-0.114-0.532-0.362c-0.138-0.726-0.352-1.439-0.637-2.119C379.256,215.519,379.272,215.365,379.346,215.245
						z M370.083,230.523c0.072-0.12,0.2-0.204,0.351-0.216c0.733-0.063,1.464-0.202,2.174-0.416
						c0.241-0.073,0.494,0.064,0.567,0.306c0.072,0.239-0.064,0.494-0.305,0.566c-0.77,0.232-1.564,0.384-2.359,0.452
						c-0.252,0.02-0.472-0.165-0.493-0.416C370.009,230.698,370.034,230.604,370.083,230.523z M380.203,219.756
						c0.082-0.133,0.23-0.222,0.398-0.219c0.252,0.006,0.451,0.215,0.446,0.465c-0.018,0.805-0.118,1.605-0.302,2.387
						c-0.057,0.244-0.303,0.395-0.549,0.338c-0.245-0.058-0.397-0.303-0.338-0.549c0.168-0.715,0.262-1.456,0.277-2.193
						C380.138,219.9,380.162,219.822,380.203,219.756z M374.478,229.197c0.041-0.065,0.097-0.122,0.17-0.162
						c0.648-0.355,1.26-0.779,1.818-1.262c0.19-0.164,0.478-0.143,0.643,0.048c0.165,0.19,0.143,0.479-0.047,0.642
						c-0.607,0.524-1.271,0.985-1.976,1.371c-0.222,0.121-0.497,0.041-0.619-0.18C374.387,229.506,374.396,229.331,374.478,229.197z
						 M379.15,224.224c0.119-0.195,0.371-0.273,0.584-0.174c0.229,0.107,0.325,0.379,0.217,0.606
						c-0.341,0.723-0.769,1.425-1.244,2.054c-0.152,0.2-0.439,0.239-0.64,0.088c-0.2-0.151-0.232-0.439-0.087-0.638
						c0.439-0.582,0.832-1.227,1.147-1.894C379.135,224.252,379.143,224.237,379.15,224.224z"/>
				</g>
			</g>
			<g>
				<g>
					<path style="fill:#C9C8E8;" d="M526.155,259.513c0,1.104-0.896,2-2,2h-65.103c-1.104,0-2-0.896-2-2v-45.684
						c0-1.105,0.896-2,2-2h65.103c1.104,0,2,0.895,2,2V259.513z"/>
					<g>
						<g>
							<path style="fill:#9D9BCC;" d="M528.688,256.167c0,1.105-0.895,1.999-2,1.999h-65.103c-1.104,0-2-0.894-2-1.999v-45.684
								c0-1.104,0.896-2,2-2h65.103c1.105,0,2,0.896,2,2V256.167z"/>
							<rect x="462.586" y="219.04" style="fill:#FCF3E8;" width="62.944" height="36.1"/>
						</g>
						<g>
							<circle style="fill:#FCF3E8;" cx="523.718" cy="213.985" r="1.813"/>
							<circle style="fill:#FCF3E8;" cx="516.718" cy="213.985" r="1.813"/>
							<circle style="fill:#FCF3E8;" cx="509.718" cy="213.985" r="1.813"/>
						</g>
						<g>
							<path style="fill:#9D9BCC;" d="M504.374,227.447h-35.132c-0.553,0-1-0.447-1-1c0-0.552,0.447-1,1-1h35.132
								c0.553,0,1,0.448,1,1C505.374,227,504.927,227.447,504.374,227.447z"/>
							<path style="fill:#9D9BCC;" d="M485.086,235.672h-15.844c-0.553,0-1-0.447-1-1c0-0.552,0.447-1,1-1h15.844
								c0.553,0,1,0.448,1,1C486.086,235.225,485.639,235.672,485.086,235.672z"/>
							<path style="fill:#9D9BCC;" d="M496.836,243.896h-27.594c-0.553,0-1-0.447-1-1c0-0.552,0.447-1,1-1h27.594
								c0.553,0,1,0.448,1,1C497.836,243.449,497.389,243.896,496.836,243.896z"/>
							<path style="fill:#9D9BCC;" d="M504.374,252.121h-23.538c-0.553,0-1-0.447-1-1c0-0.553,0.447-1,1-1h23.538
								c0.553,0,1,0.447,1,1C505.374,251.674,504.927,252.121,504.374,252.121z"/>
						</g>
					</g>
				</g>
				<g>
					<path style="fill:#C9C8E8;" d="M325.194,281.541c0,0.799-0.647,1.447-1.447,1.447h-60.77c-0.8,0-1.447-0.648-1.447-1.447
						v-72.404c0-0.8,0.647-1.448,1.447-1.448h60.77c0.8,0,1.447,0.648,1.447,1.448V281.541z"/>
					<path style="fill:#9D9BCC;" d="M322.573,277.982c0,0.799-0.647,1.447-1.447,1.447h-60.771c-0.8,0-1.447-0.648-1.447-1.447
						v-72.405c0-0.799,0.648-1.447,1.447-1.447h60.771c0.8,0,1.447,0.648,1.447,1.447V277.982z"/>
					<g>
						<path style="fill:#FCF3E8;" d="M311.415,220.752H269.81c-0.553,0-1-0.447-1-1c0-0.552,0.447-1,1-1h41.605c0.552,0,1,0.448,1,1
							C312.415,220.305,311.967,220.752,311.415,220.752z"/>
						<path style="fill:#FCF3E8;" d="M296.085,232.087H269.81c-0.553,0-1-0.448-1-1c0-0.553,0.447-1,1-1h26.275c0.552,0,1,0.447,1,1
							C297.085,231.639,296.637,232.087,296.085,232.087z"/>
						<path style="fill:#FCF3E8;" d="M311.415,243.421H269.81c-0.553,0-1-0.447-1-1c0-0.552,0.447-1,1-1h41.605c0.552,0,1,0.448,1,1
							C312.415,242.974,311.967,243.421,311.415,243.421z"/>
						<path style="fill:#FCF3E8;" d="M311.415,254.755H284.81c-0.553,0-1-0.448-1-1c0-0.552,0.447-0.999,1-0.999h26.605
							c0.552,0,1,0.447,1,0.999C312.415,254.307,311.967,254.755,311.415,254.755z"/>
						<path style="fill:#FCF3E8;" d="M311.415,266.087H275.31c-0.553,0-1-0.447-1-1c0-0.553,0.447-1,1-1h36.105c0.552,0,1,0.447,1,1
							C312.415,265.64,311.967,266.087,311.415,266.087z"/>
					</g>
				</g>
			</g>
			<g>
				<g>
					<path style="fill:#9D9BCC;" d="M447.803,216.595c-0.397,0-0.728-0.313-0.748-0.714c-0.02-0.414,0.299-0.766,0.713-0.785
						c0.979-0.048,1.518-0.048,1.53-0.048l0,0c0.414,0,0.75,0.336,0.75,0.75c0,0.414-0.336,0.75-0.75,0.75
						c-0.011,0-0.525,0.001-1.458,0.046C447.827,216.594,447.815,216.595,447.803,216.595z"/>
					<path style="fill:#9D9BCC;" d="M352.445,262.652c-0.005,0-0.01,0-0.015,0c-0.982-0.019-1.988-0.062-2.993-0.128
						c-0.413-0.027-0.727-0.384-0.699-0.797c0.027-0.414,0.393-0.723,0.797-0.699c0.982,0.065,1.966,0.105,2.924,0.124
						c0.414,0.008,0.743,0.351,0.735,0.765C353.186,262.325,352.852,262.652,352.445,262.652z M355.404,262.634
						c-0.403,0-0.736-0.32-0.749-0.726c-0.013-0.414,0.312-0.761,0.726-0.773c0.979-0.031,1.96-0.089,2.914-0.173
						c0.409-0.034,0.776,0.269,0.813,0.682c0.036,0.412-0.268,0.775-0.682,0.813c-0.982,0.086-1.99,0.146-2.997,0.178
						C355.421,262.634,355.413,262.634,355.404,262.634z M346.538,262.27c-0.026,0-0.054-0.001-0.081-0.005
						c-0.978-0.105-1.966-0.23-2.966-0.377c-0.409-0.06-0.693-0.439-0.634-0.85c0.061-0.41,0.442-0.693,0.851-0.635
						c0.981,0.144,1.951,0.268,2.91,0.371c0.411,0.044,0.709,0.414,0.665,0.826C347.241,261.984,346.916,262.27,346.538,262.27z
						 M361.299,262.112c-0.365,0-0.686-0.268-0.74-0.641c-0.062-0.409,0.222-0.791,0.631-0.852c0.964-0.143,1.927-0.318,2.864-0.521
						c0.401-0.092,0.804,0.169,0.892,0.574c0.088,0.405-0.17,0.805-0.574,0.892c-0.97,0.21-1.965,0.392-2.961,0.539
						C361.373,262.109,361.336,262.112,361.299,262.112z M340.678,261.417c-0.044,0-0.089-0.004-0.134-0.012
						c-0.966-0.175-1.941-0.367-2.929-0.578c-0.405-0.086-0.663-0.484-0.577-0.889c0.087-0.406,0.488-0.66,0.89-0.578
						c0.972,0.207,1.933,0.396,2.883,0.568c0.407,0.074,0.678,0.465,0.605,0.871C341.35,261.163,341.033,261.417,340.678,261.417z
						 M367.082,260.858c-0.325,0-0.625-0.213-0.72-0.542c-0.115-0.397,0.114-0.814,0.513-0.929c0.93-0.269,1.858-0.572,2.761-0.904
						c0.387-0.143,0.82,0.058,0.963,0.446c0.143,0.389-0.057,0.819-0.446,0.962c-0.935,0.344-1.897,0.659-2.861,0.938
						C367.222,260.849,367.151,260.858,367.082,260.858z M372.634,258.817c-0.285,0-0.559-0.164-0.684-0.441
						c-0.171-0.377-0.003-0.821,0.375-0.991c0.878-0.396,1.755-0.83,2.603-1.291c0.363-0.197,0.819-0.063,1.018,0.303
						c0.197,0.364,0.063,0.819-0.303,1.018c-0.881,0.475-1.789,0.926-2.701,1.337C372.842,258.797,372.737,258.817,372.634,258.817z
						 M377.84,256.003c-0.248,0-0.49-0.122-0.634-0.347c-0.223-0.349-0.119-0.813,0.23-1.035c0.808-0.515,1.615-1.067,2.399-1.645
						c0.334-0.246,0.803-0.175,1.049,0.16c0.245,0.333,0.174,0.802-0.16,1.048c-0.811,0.597-1.646,1.17-2.483,1.701
						C378.117,255.965,377.977,256.003,377.84,256.003z M382.606,252.5c-0.214,0-0.426-0.092-0.574-0.268
						c-0.267-0.318-0.226-0.791,0.092-1.057c0.733-0.616,1.465-1.27,2.175-1.942c0.299-0.283,0.773-0.272,1.06,0.028
						c0.285,0.301,0.272,0.775-0.028,1.061c-0.732,0.693-1.485,1.367-2.241,2.002C382.948,252.441,382.777,252.5,382.606,252.5z
						 M386.905,248.433c-0.185,0-0.37-0.067-0.515-0.204c-0.302-0.285-0.315-0.76-0.03-1.061c0.655-0.693,1.311-1.426,1.952-2.176
						c0.271-0.314,0.743-0.351,1.058-0.083c0.314,0.27,0.352,0.742,0.083,1.058c-0.656,0.769-1.33,1.52-2.003,2.231
						C387.303,248.355,387.104,248.433,386.905,248.433z M390.751,243.934c-0.16,0-0.322-0.052-0.46-0.158
						c-0.326-0.255-0.386-0.726-0.131-1.053c0.606-0.779,1.245-1.56,1.898-2.319c0.27-0.315,0.744-0.35,1.058-0.08
						c0.314,0.271,0.35,0.744,0.079,1.058c-0.637,0.741-1.26,1.503-1.852,2.263C391.196,243.834,390.975,243.934,390.751,243.934z
						 M394.609,239.444c-0.186,0-0.371-0.068-0.516-0.206c-0.301-0.284-0.314-0.759-0.029-1.06c0.685-0.723,1.395-1.438,2.11-2.126
						c0.298-0.287,0.773-0.279,1.06,0.02c0.288,0.299,0.278,0.773-0.02,1.061c-0.698,0.672-1.392,1.37-2.06,2.076
						C395.007,239.365,394.808,239.444,394.609,239.444z M398.876,235.342c-0.208,0-0.416-0.086-0.565-0.256
						c-0.272-0.312-0.241-0.785,0.07-1.059c0.745-0.651,1.519-1.298,2.299-1.92c0.325-0.258,0.796-0.205,1.055,0.119
						c0.258,0.323,0.204,0.795-0.119,1.054c-0.763,0.608-1.518,1.239-2.246,1.876C399.227,235.281,399.052,235.342,398.876,235.342z
						 M403.505,231.649c-0.232,0-0.461-0.106-0.607-0.309c-0.244-0.335-0.17-0.805,0.165-1.048c0.814-0.592,1.635-1.16,2.46-1.707
						c0.345-0.229,0.811-0.134,1.039,0.211c0.229,0.346,0.135,0.811-0.211,1.039c-0.808,0.535-1.609,1.092-2.405,1.67
						C403.811,231.604,403.657,231.649,403.505,231.649z M408.44,228.378c-0.254,0-0.502-0.129-0.642-0.362
						c-0.215-0.354-0.101-0.815,0.254-1.029c0.861-0.52,1.727-1.018,2.593-1.494c0.361-0.2,0.818-0.067,1.019,0.296
						c0.199,0.363,0.067,0.819-0.296,1.018c-0.849,0.467-1.696,0.954-2.54,1.464C408.706,228.344,408.572,228.378,408.44,228.378z
						 M413.631,225.525c-0.275,0-0.541-0.152-0.672-0.415c-0.186-0.371-0.035-0.821,0.336-1.006c0.901-0.45,1.802-0.878,2.7-1.285
						c0.379-0.171,0.821-0.004,0.993,0.374c0.171,0.377,0.003,0.821-0.374,0.992c-0.881,0.4-1.766,0.819-2.65,1.261
						C413.857,225.5,413.743,225.525,413.631,225.525z M419.025,223.081c-0.295,0-0.575-0.176-0.694-0.467
						c-0.156-0.383,0.027-0.821,0.41-0.978c0.936-0.383,1.865-0.743,2.786-1.083c0.391-0.143,0.819,0.057,0.964,0.444
						c0.143,0.389-0.056,0.82-0.444,0.963c-0.905,0.334-1.818,0.688-2.737,1.064C419.217,223.064,419.12,223.081,419.025,223.081z
						 M424.584,221.031c-0.315,0-0.608-0.2-0.712-0.516c-0.13-0.393,0.084-0.817,0.477-0.947c0.965-0.317,1.917-0.613,2.853-0.889
						c0.404-0.118,0.814,0.111,0.932,0.508c0.116,0.398-0.111,0.814-0.508,0.932c-0.922,0.271-1.858,0.562-2.806,0.874
						C424.741,221.019,424.662,221.031,424.584,221.031z M430.269,219.36c-0.333,0-0.638-0.224-0.725-0.562
						c-0.104-0.401,0.137-0.811,0.537-0.914c0.992-0.257,1.962-0.49,2.904-0.703c0.403-0.087,0.806,0.164,0.896,0.567
						c0.091,0.404-0.163,0.806-0.566,0.896c-0.929,0.209-1.883,0.439-2.857,0.691C430.394,219.352,430.331,219.36,430.269,219.36z
						 M436.051,218.059c-0.353,0-0.666-0.249-0.735-0.608c-0.078-0.406,0.188-0.8,0.595-0.878c1.023-0.198,2.007-0.369,2.942-0.519
						c0.411-0.065,0.793,0.214,0.858,0.623c0.065,0.409-0.213,0.793-0.622,0.858c-0.92,0.146-1.888,0.315-2.895,0.51
						C436.145,218.054,436.098,218.059,436.051,218.059z M441.904,217.125c-0.372,0-0.695-0.277-0.743-0.656
						c-0.052-0.41,0.239-0.786,0.649-0.838c1.095-0.139,2.091-0.244,2.974-0.325c0.422-0.035,0.777,0.267,0.815,0.68
						c0.037,0.412-0.267,0.777-0.679,0.814c-0.867,0.079-1.846,0.183-2.921,0.319C441.968,217.123,441.935,217.125,441.904,217.125z
						"/>
					<path style="fill:#9D9BCC;" d="M334.854,260.18c-0.058,0-0.117-0.007-0.176-0.02c-0.487-0.118-0.977-0.24-1.468-0.365
						c-0.401-0.104-0.643-0.512-0.541-0.913c0.103-0.401,0.509-0.646,0.913-0.54c0.484,0.123,0.967,0.244,1.447,0.359
						c0.402,0.098,0.65,0.503,0.553,0.905C335.5,259.949,335.193,260.18,334.854,260.18z"/>
				</g>
				<path style="fill:#9D9BCC;" d="M452.389,215.798c0,1.707-1.384,3.091-3.091,3.091c-1.707,0-3.091-1.384-3.091-3.091
					c0-1.707,1.384-3.091,3.091-3.091C451.005,212.707,452.389,214.091,452.389,215.798z"/>
				<path style="fill:#9D9BCC;" d="M336.487,259.067c0,1.707-1.384,3.09-3.091,3.09s-3.091-1.383-3.091-3.09
					c0-1.706,1.384-3.091,3.091-3.091S336.487,257.361,336.487,259.067z"/>
			</g>
			<g>
				<g>
					<path style="fill:#9D9BCC;" d="M429.885,281.581c0,1.104-0.896,2-2,2h-77.269c-1.104,0-2-0.896-2-2v-5.26c0-1.104,0.896-2,2-2
						h77.269c1.104,0,2,0.896,2,2V281.581z"/>
					<g>
						<rect x="351.716" y="276.248" style="fill:#FCF3E8;" width="11.167" height="5.667"/>
						<rect x="365.05" y="276.248" style="fill:#FCF3E8;" width="11.164" height="5.667"/>
						<rect x="378.381" y="276.248" style="fill:#FCF3E8;" width="11.167" height="5.667"/>
						<rect x="391.714" y="276.248" style="fill:#FCF3E8;" width="11.168" height="5.667"/>
					</g>
				</g>
				<g>
					<path style="fill:#9D9BCC;" d="M444.885,296.543c0,1.104-0.896,2-2,2h-77.269c-1.104,0-2-0.896-2-2v-5.26c0-1.104,0.896-2,2-2
						h77.269c1.104,0,2,0.896,2,2V296.543z"/>
					<g>
						<rect x="366.716" y="291.21" style="fill:#FCF3E8;" width="11.164" height="5.667"/>
						<rect x="380.048" y="291.21" style="fill:#FCF3E8;" width="11.166" height="5.667"/>
					</g>
				</g>
			</g>
		</g>
		<g>
			<path style="fill:#C74B50;" d="M301.835,135.868c-0.643-2.222-1.616-33.175,30.642-35.195c-1.97-1.642-11.291-8.405-11.291-8.405
				s7.89-8.413,10.314-11.169c-36.167,1.663-53.85,24.422-53.85,49.012c0,3.77,0.42,7.432,1.217,10.954
				c4.641,2.763,11.522,6.591,16.718,8.327C297.677,145.153,300.917,137.646,301.835,135.868z"/>
			<path style="fill:#5653A3;" d="M358.999,154.195c-8.654,4.641-16.849,4.663-22.139,4.663c-21.343,0-31.256-11.955-34.594-21.626
				c-0.659,1.338-6.168,13.376-6.168,13.376s-12.134-5.384-16.913-8.194c5.616,21.843,26.459,37.835,58.45,37.835
				c12.686,0,22.975-2.416,31.151-5.796c1.141-3.826,2.314-7.838,3.376-14.096C368.331,158.537,362.149,155.659,358.999,154.195z"/>
			<path style="fill:#5653A3;" d="M510.892,114.316c-6.415-22.897-27.704-37.853-59.642-37.853c-18.16,0-30.737,3.847-39.565,8.998
				l13.232,5.022l-1.108,12.743c7.069-5.247,15.966-5.6,28.991-5.6c20.901,0,31.182,12.201,35.03,22.64l13.082,5.451
				L510.892,114.316z"/>
			<g>
				<path style="fill:#C74B50;" d="M511.212,115.469l-10.021,11.449l-12.924-5.385c0.983,3.03,1.423,5.858,1.423,8.125
					c0,9.904-5.913,28.389-28.496,32.852l-8.47,12.376l11.308,9.143c34.401-3.951,48.908-26.019,48.908-54.37
					C512.94,124.67,512.351,119.926,511.212,115.469z"/>
			</g>
			<path style="fill:#712B75;" d="M391.966,106.014c-5.622-7.695-19.803-25.945-59.09-24.968c-2.153,2.46-6.731,7.629-10.167,11.111
				c1.164,0.864,9.056,6.548,11.199,8.422c11.311,0,33.929,0.484,48.865,20.913C387.883,112.092,391.966,106.014,391.966,106.014z"
				/>
			<path style="fill:#D49B54;" d="M403.214,140.094c5.764-12.749,10.589-27.608,19.517-36.019l1.124-12.924l-13.252-5.031
				c-10.719,6.615-25.29,32.571-27.161,36.286c-1.871,3.714-9.447,19.187-14.834,24.574c-2.825,2.825-5.696,4.973-8.53,6.613
				c3.406,1.584,13.196,6.185,13.196,6.185s-2.196,10.471-3.295,14.175C383.658,167.994,396.219,155.568,403.214,140.094z"/>
			<path style="fill:#712B75;" d="M459.822,162.744c-2.859,0.48-5.957,0.754-9.347,0.754c-11.14,0-35.022-4.505-46.565-22.312
				c-1.005,3.444-5.368,10.456-9.657,15.159c23.965,33.223,65.15,28.139,68.359,27.821l-11.234-9.084L459.822,162.744z"/>
		</g>
		<g>
			<g>
				<g>
					<path style="fill:#EB8F59;" d="M532.416,315.451c-7.652,6.595-13.122,9.121-17.626,12.233
						c-7.366-16.837-22.756-34.375-25.211-42.793c-2.454-8.418-0.698-18.832-7.735-23.017c-9-5.352-11.03-12.625-12.831-11.709
						c-3.38,1.72,0.658,9.976,4.603,13.921c-1.93-0.002-1.837-0.472-4.236-0.472c-5.439-5.438-23.996-23.797-23.119-15.115
						c-2.28-2.28-6.227-2.807-4.911,1.666c-2.017-1.227-9.908-0.526,6.226,19.467c-1.906,0-6.971,0.307-13.785-8.307
						c-6.015-7.604-6.47-0.199-2.173,5.325c4.296,5.524,10.303,11.838,13.985,12.759c3.684,0.921,20.914,2.367,23.808,3.025
						c2.895,0.657,9.385,54.632,36.305,81.553c8.561,8.56,36.304-8.77,45.247-16.18
						C550.962,330.268,541.886,318.871,532.416,315.451z"/>
					<g>
						<path style="fill:#BD7347;" d="M447.575,269.633c3.692-1.255,7.659-1.887,11.531-2.242c3.893-0.379,7.946-0.322,11.707,0.839
							C463.025,267.67,455.307,268.768,447.575,269.633z"/>
						<path style="fill:#BD7347;" d="M446.261,248.5c3.116,2.428,6.008,5.177,8.834,7.93c2.819,2.759,5.637,5.584,8.134,8.644
							c-3.116-2.428-6.009-5.176-8.834-7.93C451.576,254.384,448.76,251.558,446.261,248.5z"/>
						<path style="fill:#BD7347;" d="M441.35,250.166c2.459,2.432,4.662,5.152,6.795,7.868c2.125,2.721,4.244,5.512,6.008,8.485
							c-2.463-2.427-4.663-5.153-6.795-7.868C445.234,255.93,443.114,253.139,441.35,250.166z"/>
					</g>
				</g>
				<g>
					<path style="fill:#BA383C;" d="M584.378,271.825c-12.018,2.192-20.086,5.7-24.646,10.26
						c-4.56,4.56-21.221,19.467-33.322,31.568c6.665,9.821,15.258,20.87,22.098,27.71c0,18.94-3.415,45.248,6.887,80.675
						c19.772,0,80.102,0,105.707,0c-4.909-10.522-14.732-37.573-14.732-48.798c3.858-7.366,11.225-14.382,11.225-14.382
						s2.046,1.18,5.466,1.18c2.893-12.364,19.191-64.59,9.326-74.455c-9.864-9.865-18.5-12.058-43.029-17.354
						C617.782,273.491,605.956,279.103,584.378,271.825z"/>
					<g>
						<path style="fill:#9E3033;" d="M651.757,397.475c-3.004-9.34-5.388-18.706-5.388-24.234
							c-9.91,9.911-78.085,48.798-78.085,48.798s23.435,0,28.452,0C608.552,422.038,635.719,402.935,651.757,397.475z"/>
						<path style="fill:#85282B;" d="M620.413,349.783c1.393-6.84,3.685-13.507,6.008-20.074c2.444-6.547,5.036-13.058,8.373-19.213
							c-1.612,6.375-3.912,12.596-6.102,18.788C626.244,336.204,623.633,343.18,620.413,349.783z"/>
						<path style="fill:#85282B;" d="M548.507,341.363c-0.417-6.82,0.234-13.896,1.305-20.629c1.21-6.831,2.561-13.545,5.011-20.06
							c-0.69,6.426-1.895,12.825-2.86,19.215C550.878,327.057,549.852,334.238,548.507,341.363z"/>
					</g>
				</g>
				<path style="fill:#EB8F59;" d="M657.594,358.858c-8.125,17.999-17.797,34.839-22.801,39.844
					c-4.106,4.107-28.824,16.667-50.159,23.336c-24.553,0-58.926,0-65.941,0c0-11.225,0-11.574,0-16.135
					c7.716,0,18.682-3.065,30.607,4.301c22.919-3.585,44.669-20,58.593-29.857c6.431-14.382,9.014-22.845,12.521-30.564
					C631.988,352.588,644.967,356.754,657.594,358.858z"/>
				<g>
					<path style="fill:#27252E;" d="M569.893,193.231c-14.195-9.734-18.931-23.413-10.513-26.833c8.419-3.42,10.442,6.516,16.958,0
						c6.517-6.517,6.367-7.366,14.04-3.42c7.674,3.945,23.9-8.335,43.236,11c16.179,16.179,11.096,25.558,7.149,36.482
						c-3.946,10.925-7.049,25.721-20.352,28.878C603.69,233.814,581.532,204.871,569.893,193.231z"/>
					<g>
						<path style="fill:#EB8F59;" d="M569.788,187.518c-6.903,19.027-15.373,70.549,17.53,74.067
							c0.931,6.255-0.403,8.925-2.94,10.24c4.966,36.167,46.294,11.662,44.979-3.596c-3.244-1.49-8.438-6.496-5.556-33.806
							c5.724-0.498,8.825-8.204,8.118-14.236c-0.707-6.032-8.308-12.443-12.413,1.824c-10.399-10.399-6.567-19.775-9.287-27.786
							C607.571,186.427,585.052,182.184,569.788,187.518z"/>
						<g>
							<path style="fill:#27252E;" d="M568.304,216.269c-0.149,1.461,0.582,2.731,1.635,2.838c1.05,0.107,2.023-0.989,2.172-2.45
								c0.149-1.461-0.583-2.73-1.635-2.838C569.425,213.712,568.452,214.809,568.304,216.269z"/>
							<path style="fill:#27252E;" d="M586.921,216.309c-0.148,1.461,0.582,2.731,1.635,2.839c1.05,0.106,2.022-0.99,2.171-2.451
								c0.15-1.461-0.581-2.732-1.634-2.838C588.042,213.751,587.069,214.849,586.921,216.309z"/>
							<path style="fill:#BD7347;" d="M587.318,261.585c4.777-0.168,9.623-1.222,14.093-2.891c4.76-1.775,8.854-4.355,12.871-7.422
								c-3.564,3.709-7.654,6.608-12.527,8.357C597.269,261.239,592.092,262.281,587.318,261.585z"/>
							<path style="fill:#BD7347;" d="M622.382,224.234c1.492-3.552,4.152-7.145,5.043-4.828c0.891,2.316-0.502,10.889-4.032,10.205
								C624.343,227.473,624.275,224.602,622.382,224.234z"/>
							<path style="fill:#BD7347;" d="M576.841,219.089c-0.507,1.427-1.023,2.851-1.512,4.283c-0.755,2.215-1.683,4.617-1.712,6.983
								c-0.048,3.759,7.192,1.879,8.119-0.544c-0.323,1.887-2.889,2.964-4.529,3.296c-2.092,0.422-4.548-0.101-4.579-2.626
								c-0.028-2.309,0.904-4.666,1.808-6.752C575.127,222.134,575.918,220.564,576.841,219.089z"/>
							<path style="fill:#B36D43;" d="M576.788,242.43c1.776-0.207,3.564-0.383,5.309-0.788c2.014-0.469,3.672-1.343,5.474-2.303
								C585.787,243.068,580.326,244.411,576.788,242.43z"/>
							<path style="fill:#BD7347;" d="M573.448,212.946c-0.774-0.196-1.547-0.408-2.337-0.533c-1.015-0.159-1.984-0.033-2.997-0.01
								C569.455,210.817,572.449,211.091,573.448,212.946z"/>
							<path style="fill:#27252E;" d="M576.788,207.405c0-0.087-3.953-0.544-4.36-0.59c-1.629-0.183-3.223,0.013-4.848,0.01
								C569.661,203.847,575.042,204.202,576.788,207.405z"/>
							<path style="fill:#BD7347;" d="M592.066,212.986c-0.774-0.197-1.548-0.408-2.338-0.533c-1.014-0.159-1.984-0.033-2.997-0.01
								C588.072,210.856,591.067,211.13,592.066,212.986z"/>
							<path style="fill:#27252E;" d="M594.969,208.238c0-0.147-4.916-0.831-5.401-0.849c-1.817-0.179-3.539,0.021-5.349,0.104
								C586.79,204.265,592.744,204.841,594.969,208.238z"/>
						</g>
					</g>
				</g>
			</g>
			<g>
				<g>
					<path style="fill:#27252E;" d="M152.064,211.877c-14.206,6.896-22.887,15.577-22.887,31.361s-24.203,17.626-11.575,36.04
						c17.889,0,26.044-1.052,38.671-6.313c5.262-11.575-0.54-22.638-4.209-26.307c-3.669-3.669-6.99-25.279,3.533-25.279
						c4.734,4.735,10.121,11.495,18.038,17.388c20.52-6.314,36.411-18.725,52.195-23.986c10.416-0.743,25.674-34.679,7.785-41.781
						c-24.572-9.757-52.894-20.273-68.941-4.226C148.628,184.82,148.382,200.771,152.064,211.877z"/>
					<path style="fill:#474454;" d="M229.013,183.39c0.759-1.422,1.683-2.752,2.444-4.17c0.845-1.361,1.596-2.823,2.574-4.095
						C233.586,178.215,231.682,181.677,229.013,183.39z"/>
					<path style="fill:#9E468A;" d="M154.225,223.38c-0.725,0-1.425-0.395-1.779-1.085c-2.29-4.447-3.638-9.705-3.693-9.927
						c-0.272-1.07,0.376-2.158,1.446-2.43c1.069-0.27,2.158,0.376,2.431,1.446c0.013,0.05,1.295,5.046,3.372,9.078
						c0.506,0.982,0.12,2.188-0.861,2.694C154.847,223.308,154.533,223.38,154.225,223.38z"/>
				</g>
				<g>
					<path style="fill:#EB8F59;" d="M277.962,330.527c9.822-13.329,18.591-22.099,21.397-28.062
						c0-15.082,2.467-37.004,14.568-33.497c4.56-10.173,8.459-22.721,11.791-21.844c3.332,0.877-0.404,12.374-4.087,23.071
						c6.489,1.052,14.206,1.053,11.4,9.296c2.547,1.139,2.573,4.624,1.106,6.091c1.93,4.318-1.106,7.125-9.101,10.209
						c-2.279,5.436-5.773,9.568-7.265,11.059c-1.929,5.086-7.523,20.168-10.776,29.814
						C300.06,336.665,288.31,335.614,277.962,330.527z"/>
					<g>
						<path style="fill:#BD7347;" d="M314.463,271.16c2.667,0.628,5.309,1.337,7.947,2.073c0.839,0.234,1.676,0.478,2.504,0.746
							c0.628,0.203,1.412,0.336,1.961,0.727c1.261,0.95,1.005,2.859,0.149,3.98c-2.178,2.857-6.391,1.533-9.235,0.811
							c-1.683-0.428-3.549-0.787-5.262-0.318c-1.45,0.397-2.037,1.754-3.325,2.308c1.025-0.613,1.476-1.852,2.558-2.46
							c1.311-0.738,2.922-0.74,4.379-0.601c2.941,0.283,6.806,2.19,9.527,0.216c0.841-0.61,1.732-2.335,0.665-3.182
							c-0.369-0.432-1.539-0.604-2.059-0.792c-0.804-0.29-1.609-0.573-2.417-0.854C319.383,272.952,316.916,272.079,314.463,271.16z
							"/>
						<path style="fill:#BD7347;" d="M333.032,279.492c-1.065,2.119-3.251,3.693-5.265,4.816c-2.643,1.512-5.668,2.241-8.661,2.63
							c-1.337,0.174-2.837,0.339-4.109-0.234c-1.292-0.582-1.69-1.9-0.916-3.09c1.504-2.31,4.537-2.418,6.654-3.843
							c-1.787,1.497-4.389,1.831-5.835,3.802c-0.785,1.013-0.519,2.08,0.747,2.418c1.318,0.352,2.718,0.044,4.039-0.124
							C324.398,285.121,330.003,283.483,333.032,279.492z"/>
						<path style="fill:#BD7347;" d="M334.139,285.583c-2.459,3.758-7.704,5.585-11.978,5.844c-1.524,0.092-6.059,0.504-6.525-1.64
							c-0.41-1.886,2.805-3.337,4.25-3.454c-1.153,0.347-3.62,1.681-3.608,3.108c0.014,1.637,5.536,1.064,6.479,0.926
							C326.755,290.103,331.257,288.445,334.139,285.583z"/>
						<path style="fill:#BD7347;" d="M325.038,295.792c-1.798,0.624-4.293,0.861-6.053,0.026c-2.548-1.211-0.729-3.719,0.858-4.818
							c-0.717,1.198-2.285,3.273-0.23,4C321.287,295.647,323.269,295.621,325.038,295.792z"/>
					</g>
				</g>
				<g>
					<path style="fill:#94377F;" d="M146.693,264.263c-16.727,1.073-30.251,3.313-35.642,8.702
						c-11.068,11.067-31.416,56.645-45.096,91.896c-11.049,17.362-7.366,21.045,0,28.411c22.098,0,29.696-10.832,39.205-20.341
						c6.917-15.784,9.021-16.569,11.915-23.148c3.42,9.731,7.643,45.336,4.643,72.255c24.162,0,74.541,0,89.8,0
						c0-22.624,9.47-56.469,14.205-72.255c11.049,3.681,19.468,10.521,25.781,10.521c8.944-8.944,14.206-24.729,14.206-28.938
						c-16.31-22.624-34.741-51.426-38.934-56.647c-4.473-5.568-8.418-6.489-19.27-7.278
						C196.611,270.51,167.98,275.201,146.693,264.263z"/>
					<g>
						<path style="fill:#702960;" d="M105.161,372.932c-2.019-1.279-4.488-1.921-6.793-2.439c-3.25-0.731-6.581-1.096-9.908-1.231
							c-5.792-0.506-11.624,0.209-17.421,0.163c5.519-1.633,11.392-2.465,17.15-2.181c3.241,0.159,6.375,0.655,9.493,1.544
							C100.299,369.532,103.336,370.834,105.161,372.932z"/>
						<path style="fill:#702960;" d="M225.724,349.783c0.592-3.593,0.866-7.085,0.616-10.729c-0.302-4.4-1.218-8.734-2.36-12.986
							c-1.912-7.831-5.128-15.322-7.727-22.938c3.974,6.962,7.456,14.284,9.559,22.046c1.219,4.504,2.046,9.155,1.983,13.833
							C227.744,342.792,227.022,346.248,225.724,349.783z"/>
						<path style="fill:#702960;" d="M135.579,315.056c-6.313,11.575-12.628,22.8-18.503,34.728
							c1.117,3.181,2.319,9.136,3.329,16.639C124.027,349.709,132.604,326.623,135.579,315.056z"/>
					</g>
				</g>
				<path style="fill:#EB8F59;" d="M105.161,372.932c16.909,15.08,34.971,30.422,55.256,37.355c19.881,0,34.269,6.814,43.074,11.751
					c-19.606,0-39.99,0-60.439,0c-15.26-5.145-62.583-19.103-77.096-28.766C71.393,384.854,84.215,376.088,105.161,372.932z"/>
				<g>
					<path style="fill:#EB8F59;" d="M229.013,183.39c3.156,19.993,0.876,76.268-32.095,73.463c-2.105,5.963-0.066,8.089,1.096,9.799
						c3.113,0.243,5.612,0.596,9.492,0.789c-4.864,14.046-40.508,32.949-60.813-3.178c2.879-0.064,5.454-0.334,7.125-0.418
						c3.372-6.6,10.084-13.24,12.452-40.6c-5.524-1.578-7.103-9.733-5.262-15.521c1.842-5.787,10.523-10.636,11.838,4.153
						c3.918-3.918,7.629-2.805,10.26-10.845C185.737,192.992,207.528,204.874,229.013,183.39z"/>
					<g>
						<path style="fill:#BD7347;" d="M196.918,256.853c-4.82-0.229-9.702-2.232-13.801-4.667
							c-4.454-2.645-7.909-6.271-10.709-10.588c3.326,3.736,6.819,7.043,11.112,9.667
							C187.633,253.778,192.212,255.766,196.918,256.853z"/>
						<path style="fill:#BD7347;" d="M169.602,213.512c-0.79-3.771-2.719-7.805-4.034-5.7c-1.314,2.105-1.578,10.786,2.018,10.786
							C167.06,216.317,167.673,213.512,169.602,213.512z"/>
						<path style="fill:#BD7347;" d="M215.902,215.375c0.544,1.753,0.942,3.561,1.244,5.37c0.433,2.599,0.954,5.732,0.127,8.301
							c-1.337,4.152-8.768,0.629-8.737-2.731c0.463,2.635,7.129,5.779,7.899,2.046c0.525-2.54,0.175-5.313-0.046-7.871
							C216.243,218.783,216.068,217.079,215.902,215.375z"/>
						<path style="fill:#B36D43;" d="M210.992,239.644c-3.854,1.271-8.951-1.09-9.997-5.087c1.503,1.216,2.877,2.294,4.623,3.16
							C207.345,238.523,209.18,239.067,210.992,239.644z"/>
						<path style="fill:#27252E;" d="M224.694,216.523c-0.151,1.46-1.125,2.556-2.176,2.447c-1.053-0.108-1.782-1.38-1.632-2.84
							c0.15-1.461,1.125-2.557,2.176-2.448C224.114,213.79,224.844,215.061,224.694,216.523z"/>
						<path style="fill:#BD7347;" d="M220.327,212.225c1.354-1.615,4.345-1.275,5.335,0.55c-0.987-0.229-1.912-0.549-2.938-0.598
							C221.926,212.139,221.126,212.189,220.327,212.225z"/>
						<path style="fill:#27252E;" d="M219.379,205.335c1.979-2.539,6.77-1.983,8.195,0.844
							C226.861,206.159,219.379,205.443,219.379,205.335z"/>
						<path style="fill:#27252E;" d="M207.008,213.672c-0.15,1.46-1.125,2.556-2.176,2.447c-1.052-0.108-1.78-1.379-1.631-2.84
							c0.15-1.46,1.125-2.557,2.176-2.448C206.428,210.94,207.157,212.211,207.008,213.672z"/>
						<path style="fill:#BD7347;" d="M202.642,209.374c1.354-1.615,4.345-1.274,5.335,0.55c-0.987-0.227-1.912-0.548-2.938-0.598
							C204.24,209.288,203.44,209.339,202.642,209.374z"/>
						<path style="fill:#27252E;" d="M201.896,204.372c1.98-2.54,6.77-1.982,8.194,0.845
							C209.378,205.197,201.896,204.48,201.896,204.372z"/>
					</g>
				</g>
			</g>
		</g>
		<g>
			<g>
				<g>
					<path style="fill:#3A3845;" d="M581.396,419.215c0,1.162-0.941,2.104-2.104,2.104h-59.98c-1.162,0-2.104-0.942-2.104-2.104
						v-1.403c0-1.163,0.942-2.104,2.104-2.104h59.98c1.163,0,2.104,0.941,2.104,2.104V419.215z"/>
					<path style="fill:#403E4D;" d="M536.337,419.215c0,1.162-0.942,2.104-2.104,2.104H404.45c-1.162,0-2.105-0.942-2.105-2.104
						l-10.01-98.563c-0.07-1.154,0.942-2.104,2.104-2.104h129.782c1.34,0,1.918,0.825,2.104,2.104L536.337,419.215z"/>
				</g>
				<g>
					<path style="fill:#D49B54;" d="M463.335,394.74c-13.679,0-24.806-11.129-24.806-24.807c0-13.68,11.127-24.807,24.806-24.807
						c13.679,0,24.807,11.127,24.807,24.807C488.142,383.611,477.014,394.74,463.335,394.74z M463.335,345.9
						c-13.252,0-24.032,10.781-24.032,24.033c0,13.252,10.78,24.033,24.032,24.033c13.252,0,24.033-10.781,24.033-24.033
						C487.368,356.682,476.587,345.9,463.335,345.9z"/>
					<g>
						<path style="fill:#D49B54;" d="M457.703,376.147l-11.221-4.58v-3.266l11.221-4.58v2.713l-9.187,3.666v-0.332l9.187,3.666
							V376.147z"/>
						<path style="fill:#D49B54;" d="M459.198,383.77l5.036-25.682h3.238l-5.037,25.682H459.198z"/>
						<path style="fill:#D49B54;" d="M468.966,376.147v-2.713l9.186-3.666v0.332l-9.186-3.666v-2.713l11.221,4.58v3.266
							L468.966,376.147z"/>
					</g>
				</g>
			</g>
			<g>
				<g>
					<path style="fill:#3A3845;" d="M180.484,419.215c0,1.162,0.941,2.104,2.104,2.104h59.98c1.162,0,2.104-0.942,2.104-2.104
						v-1.403c0-1.163-0.942-2.104-2.104-2.104h-59.98c-1.163,0-2.104,0.941-2.104,2.104V419.215z"/>
					<path style="fill:#403E4D;" d="M225.543,419.215c0,1.162,0.942,2.104,2.104,2.104H357.43c1.162,0,2.104-0.942,2.104-2.104
						l10.01-98.563c0.07-1.154-0.942-2.104-2.104-2.104H237.657c-1.34,0-1.918,0.825-2.104,2.104L225.543,419.215z"/>
				</g>
				<g>
					<path style="fill:#D49B54;" d="M298.822,394.74c-13.679,0-24.807-11.129-24.807-24.807c0-13.68,11.128-24.807,24.807-24.807
						c13.678,0,24.806,11.127,24.806,24.807C323.628,383.611,312.5,394.74,298.822,394.74z M298.822,345.9
						c-13.252,0-24.033,10.781-24.033,24.033c0,13.252,10.781,24.033,24.033,24.033c13.251,0,24.032-10.781,24.032-24.033
						C322.854,356.682,312.073,345.9,298.822,345.9z"/>
					<g>
						<path style="fill:#D49B54;" d="M294.229,384.434c-1.624,0-2.849-0.402-3.674-1.211c-0.826-0.807-1.238-1.99-1.238-3.547v-7.1
							c0-0.609-0.165-1.07-0.491-1.383c-0.327-0.314-0.782-0.471-1.363-0.471h-0.498v-2.672h0.498c0.581,0,1.036-0.156,1.363-0.469
							c0.326-0.314,0.491-0.775,0.491-1.385v-6.004c0-1.568,0.412-2.754,1.238-3.557c0.825-0.803,2.05-1.203,3.674-1.203
							c0.405,0,0.786,0.016,1.142,0.049c0.354,0.031,0.675,0.072,0.962,0.117v2.559h-1.62c-0.683,0-1.196,0.16-1.542,0.477
							c-0.346,0.32-0.52,0.811-0.52,1.475v5.853c0,1.105-0.281,1.969-0.844,2.588c-0.564,0.617-1.522,0.969-2.878,1.051v-0.43
							c1.355,0.074,2.314,0.424,2.878,1.045c0.563,0.623,0.844,1.488,0.844,2.596v6.945c0,0.654,0.174,1.143,0.52,1.467
							c0.346,0.322,0.859,0.484,1.542,0.484h1.62v2.559c-0.287,0.047-0.607,0.086-0.962,0.119
							C295.016,384.418,294.635,384.434,294.229,384.434z"/>
						<path style="fill:#D49B54;" d="M303.415,384.434c-0.396,0-0.775-0.016-1.134-0.047c-0.36-0.033-0.688-0.072-0.982-0.119
							v-2.559h1.633c0.691,0,1.207-0.162,1.55-0.484c0.341-0.324,0.512-0.813,0.512-1.467v-6.945c0-1.107,0.288-1.973,0.864-2.596
							c0.576-0.621,1.529-0.971,2.857-1.045v0.43c-1.327-0.082-2.28-0.434-2.857-1.051c-0.576-0.619-0.864-1.482-0.864-2.588v-5.853
							c0-0.664-0.171-1.154-0.512-1.475c-0.343-0.316-0.859-0.477-1.55-0.477h-1.633V355.6c0.295-0.045,0.622-0.086,0.982-0.117
							c0.358-0.033,0.737-0.049,1.134-0.049c1.633,0,2.859,0.4,3.681,1.203c0.82,0.803,1.231,1.988,1.231,3.557v6.004
							c0,0.609,0.164,1.07,0.491,1.385c0.327,0.313,0.782,0.469,1.363,0.469h0.498v2.672h-0.498c-0.581,0-1.036,0.156-1.363,0.471
							c-0.327,0.313-0.491,0.773-0.491,1.383v7.1c0,1.557-0.411,2.74-1.231,3.547C306.274,384.031,305.048,384.434,303.415,384.434z
							"/>
					</g>
				</g>
			</g>
		</g>
		<path style="fill:#847F9E;" d="M688.066,422.038c0,0-9.641,0.105-26.513,0.29c-8.436,0.074-18.68,0.163-30.43,0.266
			c-11.75,0.085-25.007,0.181-39.468,0.285c-14.462,0.077-30.129,0.16-46.699,0.248c-16.57,0.067-34.045,0.138-52.122,0.21
			c-36.153,0.063-74.718,0.132-113.282,0.199c-38.564-0.066-77.128-0.134-113.282-0.197c-18.077-0.071-35.552-0.141-52.122-0.207
			c-16.57-0.088-32.237-0.172-46.698-0.25c-14.462-0.104-27.719-0.2-39.469-0.285c-11.75-0.104-21.993-0.192-30.43-0.267
			c-16.871-0.186-26.513-0.292-26.513-0.292s9.642-0.106,26.513-0.292c8.437-0.074,18.68-0.163,30.43-0.267
			c11.75-0.085,25.007-0.181,39.469-0.285c14.461-0.078,30.128-0.162,46.698-0.25c16.57-0.066,34.045-0.136,52.122-0.207
			c36.154-0.064,74.718-0.131,113.282-0.197c38.565,0.067,77.129,0.136,113.282,0.199c18.077,0.072,35.552,0.143,52.122,0.21
			c16.57,0.088,32.237,0.171,46.699,0.248c14.461,0.104,27.718,0.2,39.468,0.285c11.75,0.103,21.993,0.191,30.43,0.266
			C678.426,421.933,688.066,422.038,688.066,422.038z"/>
	</g>
</g>
</svg>
