<?xml version="1.0" encoding="utf-8"?>
<!-- Generator: Adobe Illustrator 27.5.0, SVG Export Plug-In . SVG Version: 6.00 Build 0)  -->
<svg version="1.1" xmlns="http://www.w3.org/2000/svg" xmlns:xlink="http://www.w3.org/1999/xlink" x="0px" y="0px"
	 viewBox="0 0 750 500" style="enable-background:new 0 0 750 500;" xml:space="preserve">
<g id="BACKGROUND">
	<rect style="fill:#FFFFFF;" width="750" height="500"/>
</g>
<g id="OBJECTS">
	<path style="opacity:0.21;fill:#90CEFA;" d="M239.044,57.197c29.997,10.574,60.924,21.57,93.252,19.146
		c28.357-2.126,55.559-12.967,81.695-23.447c21.95-8.802,43.861-18.01,66.872-23.719c63.591-15.775,160.181,1.887,177.413,76.449
		c14.093,60.976-34.255,114.35-26.294,174.776c4.696,35.642,29.147,65.168,34.044,100.7c9.221,66.906-69.818,105.723-126.581,92.434
		c-29.291-6.858-52.698-27.056-79.989-38.62c-30.18-12.788-64.027-16.751-96.483-13.026c-45.728,5.248-84.883,30.18-129.859,37.056
		c-40.17,6.142-100.376,6.078-129.681-27.207c-12.165-13.817-17.288-32.521-19.221-50.828c-2.71-25.669,0.184-51.916,8.422-76.378
		c9.101-27.026,23.532-52.38,29.434-80.452c2.9-13.794,3.405-28.03-0.032-41.78c-3.762-15.048-12.965-26.895-19.388-40.747
		c-12.768-27.538-13.209-64.224,13.629-83.492C151.471,32.798,201.622,44.007,239.044,57.197z"/>
	
		<ellipse transform="matrix(0.926 -0.3776 0.3776 0.926 -30.6181 74.3196)" style="fill:#C3BBFF;" cx="174.216" cy="115.24" rx="21.914" ry="21.914"/>
	
		<ellipse transform="matrix(0.926 -0.3776 0.3776 0.926 -135.6474 151.0312)" style="fill:#C3BBFF;" cx="317.326" cy="421.434" rx="21.914" ry="21.914"/>
	
		<ellipse transform="matrix(0.926 -0.3776 0.3776 0.926 -41.1277 197.0482)" style="fill:#C3BBFF;" cx="481.935" cy="203.405" rx="21.914" ry="21.914"/>
	<path style="fill:none;stroke:#90CEFA;stroke-miterlimit:10;stroke-dasharray:3;" d="M620.133,88.373
		c0,24.772-20.081,44.854-44.854,44.854c-24.772,0-44.853-20.081-44.853-44.854c0-24.772,20.081-44.854,44.853-44.854
		C600.052,43.519,620.133,63.601,620.133,88.373z"/>
	<path style="fill:none;stroke:#90CEFA;stroke-miterlimit:10;stroke-dasharray:3;" d="M263.923,367.564
		c0,24.772-20.082,44.854-44.854,44.854c-24.772,0-44.853-20.081-44.853-44.854c0-24.772,20.082-44.854,44.853-44.854
		C243.841,322.71,263.923,342.792,263.923,367.564z"/>
	<path style="fill:none;stroke:#90CEFA;stroke-miterlimit:10;stroke-dasharray:3;" d="M584.333,348.03
		c0,24.772-20.082,44.854-44.854,44.854c-24.772,0-44.853-20.081-44.853-44.854c0-24.772,20.082-44.854,44.853-44.854
		C564.251,303.176,584.333,323.258,584.333,348.03z"/>
	
		<ellipse transform="matrix(0.1609 -0.987 0.987 0.1609 398.4473 667.4495)" style="opacity:0.38;fill:#90CEFA;" cx="591.769" cy="99.387" rx="14.833" ry="14.833"/>
	
		<ellipse transform="matrix(0.1093 -0.994 0.994 0.1093 68.5378 418.9092)" style="opacity:0.38;fill:#90CEFA;" cx="268.016" cy="171.211" rx="14.833" ry="14.833"/>
	
		<ellipse transform="matrix(0.139 -0.9903 0.9903 0.139 148.1091 734.3603)" style="opacity:0.38;fill:#90CEFA;" cx="496.365" cy="282.007" rx="14.833" ry="14.833"/>
	
		<ellipse transform="matrix(0.1606 -0.987 0.987 0.1606 -261.6539 419.4734)" style="opacity:0.38;fill:#90CEFA;" cx="115.783" cy="363.564" rx="14.833" ry="14.833"/>
	
		<ellipse transform="matrix(0.1606 -0.987 0.987 0.1606 149.0217 937.3397)" style="opacity:0.38;fill:#90CEFA;" cx="625.576" cy="381.059" rx="14.833" ry="14.833"/>
	<linearGradient id="SVGID_1_" gradientUnits="userSpaceOnUse" x1="537.4794" y1="118.1577" x2="554.4124" y2="118.1577">
		<stop  offset="0" style="stop-color:#24D2C4"/>
		<stop  offset="0.999" style="stop-color:#2BF9AA"/>
	</linearGradient>
	<path style="fill:none;stroke:url(#SVGID_1_);stroke-width:4;stroke-miterlimit:10;" d="M552.412,118.158
		c0,3.571-2.895,6.466-6.466,6.466c-3.571,0-6.466-2.895-6.466-6.466c0-3.571,2.895-6.466,6.466-6.466
		C549.517,111.691,552.412,114.586,552.412,118.158z"/>
	
		<linearGradient id="SVGID_00000083069665081652678900000012719801278867121794_" gradientUnits="userSpaceOnUse" x1="135.6223" y1="241.2923" x2="152.5552" y2="241.2923">
		<stop  offset="0" style="stop-color:#24D2C4"/>
		<stop  offset="0.999" style="stop-color:#2BF9AA"/>
	</linearGradient>
	
		<path style="fill:none;stroke:url(#SVGID_00000083069665081652678900000012719801278867121794_);stroke-width:4;stroke-miterlimit:10;" d="
		M150.555,241.292c0,3.571-2.895,6.466-6.467,6.466c-3.571,0-6.466-2.895-6.466-6.466c0-3.571,2.895-6.466,6.466-6.466
		C147.66,234.826,150.555,237.721,150.555,241.292z"/>
	
		<linearGradient id="SVGID_00000027578599688268085220000005799537300406265279_" gradientUnits="userSpaceOnUse" x1="441.6986" y1="431.5852" x2="458.6316" y2="431.5852">
		<stop  offset="0" style="stop-color:#24D2C4"/>
		<stop  offset="0.999" style="stop-color:#2BF9AA"/>
	</linearGradient>
	
		<circle style="fill:none;stroke:url(#SVGID_00000027578599688268085220000005799537300406265279_);stroke-width:4;stroke-miterlimit:10;" cx="450.165" cy="431.585" r="6.466"/>
	
		<linearGradient id="SVGID_00000111177007738223425350000006225336072029762965_" gradientUnits="userSpaceOnUse" x1="354.16" y1="404.1831" x2="395.84" y2="404.1831">
		<stop  offset="0" style="stop-color:#24D2C4"/>
		<stop  offset="0.999" style="stop-color:#2BF9AA"/>
	</linearGradient>
	<polygon style="fill:url(#SVGID_00000111177007738223425350000006225336072029762965_);" points="395.84,409.532 375,373.436 
		354.16,409.532 366.582,409.532 366.582,434.93 382.833,434.93 382.833,409.532 	"/>
	
		<linearGradient id="SVGID_00000052099277741105085360000006956623618393930624_" gradientUnits="userSpaceOnUse" x1="337.0888" y1="194.4414" x2="412.9112" y2="194.4414">
		<stop  offset="0" style="stop-color:#2BFCAC"/>
		<stop  offset="0.9995" style="stop-color:#282FF5"/>
	</linearGradient>
	<path style="fill:url(#SVGID_00000052099277741105085360000006956623618393930624_);" d="M412.911,202.119v-15.356h-9.732
		c-0.655-2.411-1.612-4.696-2.827-6.816l6.884-6.884l-10.858-10.858l-6.884,6.884c-2.12-1.215-4.405-2.172-6.816-2.827v-9.732
		h-15.356v9.732c-2.411,0.656-4.696,1.613-6.816,2.827l-6.884-6.884l-10.858,10.858l6.884,6.884
		c-1.215,2.12-2.172,4.405-2.827,6.816h-9.732v15.356h9.732c0.655,2.411,1.612,4.696,2.827,6.816l-6.884,6.884l10.858,10.858
		l6.884-6.884c2.12,1.215,4.405,2.172,6.816,2.827v9.732h15.356v-9.732c2.411-0.656,4.696-1.612,6.816-2.827l6.884,6.884
		l10.858-10.858l-6.884-6.884c1.215-2.12,2.172-4.405,2.827-6.816H412.911z M396.839,196.219
		c-0.837,10.62-9.442,19.224-20.062,20.061c-13.5,1.064-24.681-10.117-23.616-23.617c0.837-10.62,9.441-19.224,20.061-20.061
		C386.722,171.538,397.904,182.72,396.839,196.219z"/>
	<g>
		
			<linearGradient id="SVGID_00000034085279804834911440000011888914131928538545_" gradientUnits="userSpaceOnUse" x1="186.6559" y1="303.1758" x2="263.6882" y2="303.1758">
			<stop  offset="0" style="stop-color:#24D2C4"/>
			<stop  offset="0.999" style="stop-color:#2BF9AA"/>
		</linearGradient>
		<path style="fill:url(#SVGID_00000034085279804834911440000011888914131928538545_);" d="M263.688,355.864
			c-26.164-5.1-45.978-28.184-45.978-55.818c0-24.136,15.119-44.794,36.377-53.039l-18.965-25.501
			c-28.715,14.488-48.466,44.242-48.466,78.541c0,40.453,27.467,74.592,64.725,84.801L263.688,355.864z"/>
		
			<linearGradient id="SVGID_00000000220316343816670680000000939483522015489942_" gradientUnits="userSpaceOnUse" x1="386.2958" y1="249.7149" x2="514.0343" y2="249.7149">
			<stop  offset="0" style="stop-color:#24D2C4"/>
			<stop  offset="0.999" style="stop-color:#2BF9AA"/>
		</linearGradient>
		<path style="fill:url(#SVGID_00000000220316343816670680000000939483522015489942_);" d="M412.572,282.993
			c37.466-35.944,56.427-39.824,62.84-39.824c6.885,0,13.487,1.231,19.6,3.482l19.022-25.578
			c-11.666-5.729-24.772-8.958-38.622-8.958c-13.486,0-28.474,5.543-45.821,16.947c-11.931,7.843-24.89,18.449-38.517,31.522
			c-6.188,5.936-6.392,15.766-0.455,21.954C396.555,288.725,406.384,288.93,412.572,282.993z"/>
		
			<linearGradient id="SVGID_00000063626882643532359700000016282481609881028535_" gradientUnits="userSpaceOnUse" x1="237.6136" y1="260.4792" x2="384.1053" y2="260.4792">
			<stop  offset="0" style="stop-color:#2BFCAC"/>
			<stop  offset="0.9995" style="stop-color:#282FF5"/>
		</linearGradient>
		<path style="fill:url(#SVGID_00000063626882643532359700000016282481609881028535_);" d="M256.764,246.045
			c5.61-1.857,11.598-2.876,17.823-2.876c11.613,0,30.762,11.019,52.534,30.231c16.987,14.99,30.893,30.72,34.971,35.444
			l22.013-22.013c-5.983-6.839-19.69-21.939-36.437-36.716c-28.978-25.57-52.882-38-73.081-38c-13.203,0-25.725,2.944-36.974,8.18
			L256.764,246.045z"/>
		
			<linearGradient id="SVGID_00000096046680821020555270000017860098908270317746_" gradientUnits="userSpaceOnUse" x1="254.0471" y1="350.631" x2="363.3175" y2="350.631">
			<stop  offset="0" style="stop-color:#2BFCAC"/>
			<stop  offset="0.9995" style="stop-color:#282FF5"/>
		</linearGradient>
		<path style="fill:url(#SVGID_00000096046680821020555270000017860098908270317746_);" d="M337.049,317.599
			c-37.047,35.492-56.022,39.324-62.461,39.324c-2.765,0-5.481-0.209-8.141-0.592l-12.4,29.199
			c6.594,1.585,13.467,2.447,20.54,2.447c22.488,0,50.731-16.134,83.945-47.954c6.192-5.932,6.403-15.762,0.471-21.954
			C353.07,311.878,343.241,311.667,337.049,317.599z"/>
		
			<linearGradient id="SVGID_00000181064472115980915900000007008502750405907383_" gradientUnits="userSpaceOnUse" x1="363.8628" y1="338.4348" x2="497.9678" y2="338.4348">
			<stop  offset="0" style="stop-color:#24D2C4"/>
			<stop  offset="0.999" style="stop-color:#2BF9AA"/>
		</linearGradient>
		<path style="fill:url(#SVGID_00000181064472115980915900000007008502750405907383_);" d="M485.633,355.986
			c-3.318,0.605-6.73,0.938-10.22,0.938c-12.044,0-31.928-11.656-54.553-31.981c-18.877-16.958-33.45-34.262-33.928-34.832
			l-0.091-0.108c-0.235-0.278-0.558-0.657-0.948-1.11l-22.03,22.03c3.438,4.037,17.621,20.355,35.959,36.865
			c30.037,27.044,54.763,40.19,75.591,40.19c7.796,0,15.353-1.032,22.555-2.945L485.633,355.986z"/>
		
			<linearGradient id="SVGID_00000022561335773586280060000008346804377915484035_" gradientUnits="userSpaceOnUse" x1="488.3503" y1="303.3065" x2="563.3441" y2="303.3065">
			<stop  offset="0" style="stop-color:#2BFCAC"/>
			<stop  offset="0.9995" style="stop-color:#282FF5"/>
		</linearGradient>
		<path style="fill:url(#SVGID_00000022561335773586280060000008346804377915484035_);" d="M516.49,222.332l-18.859,25.359
			c20.353,8.67,34.659,28.873,34.659,52.355c0,26.911-18.793,49.5-43.94,55.375l12.256,28.86
			c36.244-10.861,62.738-44.504,62.738-84.235C563.344,266.392,544.331,237.107,516.49,222.332z"/>
	</g>
	<g>
		<path style="fill:#20225E;" d="M317.326,241.292c0,3.571-2.895,6.466-6.467,6.466c-3.571,0-6.466-2.895-6.466-6.466
			c0-3.571,2.895-6.466,6.466-6.466C314.431,234.826,317.326,237.721,317.326,241.292z"/>
		<polyline style="fill:none;stroke:#20225E;stroke-miterlimit:10;stroke-dasharray:3;" points="310.859,241.292 310.859,165.518 
			216.987,165.518 		"/>
	</g>
	<g>
		<path style="fill:#20225E;" d="M208.876,296.84c0,3.571-2.895,6.466-6.466,6.466c-3.571,0-6.467-2.895-6.467-6.466
			c0-3.571,2.895-6.466,6.467-6.466C205.981,290.374,208.876,293.269,208.876,296.84z"/>
		<polyline style="fill:none;stroke:#20225E;stroke-miterlimit:10;stroke-dasharray:3;" points="202.41,296.84 202.41,284.355 
			169.735,284.355 		"/>
	</g>
	<g>
		<path style="fill:#20225E;" d="M317.326,357.097c0,3.571-2.895,6.466-6.467,6.466c-3.571,0-6.466-2.895-6.466-6.466
			c0-3.571,2.895-6.466,6.466-6.466C314.431,350.631,317.326,353.526,317.326,357.097z"/>
		<polyline style="fill:none;stroke:#20225E;stroke-miterlimit:10;stroke-dasharray:3;" points="310.859,357.097 310.859,405.021 
			225.172,405.021 		"/>
	</g>
	<g>
		<path style="fill:#20225E;" d="M450.165,241.292c0,3.571-2.895,6.466-6.466,6.466s-6.466-2.895-6.466-6.466
			c0-3.571,2.895-6.466,6.466-6.466S450.165,237.721,450.165,241.292z"/>
		<polyline style="fill:none;stroke:#20225E;stroke-miterlimit:10;stroke-dasharray:3;" points="443.699,241.292 443.699,165.607 
			530.426,165.607 		"/>
	</g>
	<g>
		<path style="fill:#20225E;" d="M552.412,296.84c0,3.571-2.895,6.466-6.466,6.466c-3.571,0-6.466-2.895-6.466-6.466
			c0-3.571,2.895-6.466,6.466-6.466C549.517,290.374,552.412,293.269,552.412,296.84z"/>
		<polyline style="fill:none;stroke:#20225E;stroke-miterlimit:10;stroke-dasharray:3;" points="545.946,296.84 545.946,284.355 
			580.845,284.355 		"/>
	</g>
	<g>
		<path style="fill:#20225E;" d="M450.165,361.097c0,3.571-2.895,6.466-6.466,6.466s-6.466-2.895-6.466-6.466
			c0-3.571,2.895-6.466,6.466-6.466S450.165,357.526,450.165,361.097z"/>
		<polyline style="fill:none;stroke:#20225E;stroke-miterlimit:10;stroke-dasharray:3;" points="443.699,361.097 443.699,405.021 
			530.426,405.021 		"/>
	</g>
</g>
<g id="TEXTS">
	<g>
		<text transform="matrix(1 0 0 1 129.9815 284.3551)" style="fill:#8383FF; font-family:'Poppins-Black'; font-size:12.6948px;">BUILD</text>
		<rect x="21.94" y="294.019" style="fill:none;" width="145.796" height="33.977"/>
		<text transform="matrix(1 0 0 1 38.0077 298.6447)"><tspan x="0" y="0" style="fill:#20225E; font-family:'Poppins-Regular'; font-size:6.2502px;">Lorem ipsum dolor sit amet, consectetuer </tspan><tspan x="4.406" y="9" style="fill:#20225E; font-family:'Poppins-Regular'; font-size:6.2502px;">adipiscing elit, sed diam nonummy nibh </tspan><tspan x="-5.075" y="18" style="fill:#20225E; font-family:'Poppins-Regular'; font-size:6.2502px;">euismod tincidunt ut laoreet dolore magna </tspan><tspan x="-10.413" y="27" style="fill:#20225E; font-family:'Poppins-Regular'; font-size:6.2502px;">aliquam erat volutpat. Ut wisi enim ad minim </tspan></text>
	</g>
	<g>
		<text transform="matrix(1 0 0 1 172.512 165.518)" style="fill:#8383FF; font-family:'Poppins-Black'; font-size:12.6948px;">PLAN</text>
		<rect x="61.081" y="175.182" style="fill:none;" width="145.796" height="33.977"/>
		<text transform="matrix(1 0 0 1 77.1485 179.8076)"><tspan x="0" y="0" style="fill:#20225E; font-family:'Poppins-Regular'; font-size:6.2502px;">Lorem ipsum dolor sit amet, consectetuer </tspan><tspan x="4.406" y="9" style="fill:#20225E; font-family:'Poppins-Regular'; font-size:6.2502px;">adipiscing elit, sed diam nonummy nibh </tspan><tspan x="-5.075" y="18" style="fill:#20225E; font-family:'Poppins-Regular'; font-size:6.2502px;">euismod tincidunt ut laoreet dolore magna </tspan><tspan x="-10.413" y="27" style="fill:#20225E; font-family:'Poppins-Regular'; font-size:6.2502px;">aliquam erat volutpat. Ut wisi enim ad minim </tspan></text>
	</g>
	<g>
		<text transform="matrix(1 0 0 1 38.868 404.9325)" style="fill:#8383FF; font-family:'Poppins-Black'; font-size:12.6948px;">CONTINUOUS INTEGRATION</text>
		<rect x="71.191" y="414.596" style="fill:none;" width="145.796" height="33.977"/>
		<text transform="matrix(1 0 0 1 87.2587 419.222)"><tspan x="0" y="0" style="fill:#20225E; font-family:'Poppins-Regular'; font-size:6.2502px;">Lorem ipsum dolor sit amet, consectetuer </tspan><tspan x="4.406" y="9" style="fill:#20225E; font-family:'Poppins-Regular'; font-size:6.2502px;">adipiscing elit, sed diam nonummy nibh </tspan><tspan x="-5.075" y="18" style="fill:#20225E; font-family:'Poppins-Regular'; font-size:6.2502px;">euismod tincidunt ut laoreet dolore magna </tspan><tspan x="-10.413" y="27" style="fill:#20225E; font-family:'Poppins-Regular'; font-size:6.2502px;">aliquam erat volutpat. Ut wisi enim ad minim </tspan></text>
	</g>
	<g>
		<text transform="matrix(1 0 0 1 582.8447 284.3551)" style="fill:#8383FF; font-family:'Poppins-Black'; font-size:12.6948px;">INTEGRATION</text>
		<rect x="582.845" y="294.019" style="fill:none;" width="145.796" height="33.977"/>
		<text transform="matrix(1 0 0 1 582.8448 298.6447)"><tspan x="0" y="0" style="fill:#20225E; font-family:'Poppins-Regular'; font-size:6.2502px;">Lorem ipsum dolor sit amet, consectetuer </tspan><tspan x="0" y="9" style="fill:#20225E; font-family:'Poppins-Regular'; font-size:6.2502px;">adipiscing elit, sed diam nonummy nibh </tspan><tspan x="0" y="18" style="fill:#20225E; font-family:'Poppins-Regular'; font-size:6.2502px;">euismod tincidunt ut laoreet dolore magna </tspan><tspan x="0" y="27" style="fill:#20225E; font-family:'Poppins-Regular'; font-size:6.2502px;">aliquam erat volutpat. Ut wisi enim ad minim </tspan></text>
	</g>
	<g>
		<text transform="matrix(1 0 0 1 537.8447 165.518)" style="fill:#8383FF; font-family:'Poppins-Black'; font-size:12.6948px;">DEPLOY</text>
		<rect x="537.845" y="175.182" style="fill:none;" width="145.796" height="33.977"/>
		<text transform="matrix(1 0 0 1 537.8448 179.8076)"><tspan x="0" y="0" style="fill:#20225E; font-family:'Poppins-Regular'; font-size:6.2502px;">Lorem ipsum dolor sit amet, consectetuer </tspan><tspan x="0" y="9" style="fill:#20225E; font-family:'Poppins-Regular'; font-size:6.2502px;">adipiscing elit, sed diam nonummy nibh </tspan><tspan x="0" y="18" style="fill:#20225E; font-family:'Poppins-Regular'; font-size:6.2502px;">euismod tincidunt ut laoreet dolore magna </tspan><tspan x="0" y="27" style="fill:#20225E; font-family:'Poppins-Regular'; font-size:6.2502px;">aliquam erat volutpat. Ut wisi enim ad minim </tspan></text>
	</g>
	<g>
		<text transform="matrix(1 0 0 1 537.845 404.9325)" style="fill:#8383FF; font-family:'Poppins-Black'; font-size:12.6948px;">CREATE</text>
		<rect x="537.845" y="414.596" style="fill:none;" width="145.796" height="33.977"/>
		<text transform="matrix(1 0 0 1 537.8448 419.222)"><tspan x="0" y="0" style="fill:#20225E; font-family:'Poppins-Regular'; font-size:6.2502px;">Lorem ipsum dolor sit amet, consectetuer </tspan><tspan x="0" y="9" style="fill:#20225E; font-family:'Poppins-Regular'; font-size:6.2502px;">adipiscing elit, sed diam nonummy nibh </tspan><tspan x="0" y="18" style="fill:#20225E; font-family:'Poppins-Regular'; font-size:6.2502px;">euismod tincidunt ut laoreet dolore magna </tspan><tspan x="0" y="27" style="fill:#20225E; font-family:'Poppins-Regular'; font-size:6.2502px;">aliquam erat volutpat. Ut wisi enim ad minim </tspan></text>
	</g>
	<g>
		<g>
			<text transform="matrix(1 0 0 1 244.1472 95.2162)" style="fill:#20225E; font-family:'Poppins-Black'; font-size:64.1914px;">DevOps</text>
		</g>
		<text transform="matrix(1 0 0 1 252.7344 126.403)" style="fill:#8182FB; font-family:'Poppins-Regular'; font-size:15.8122px;">DEVELOPMENT AND OPERATIONS</text>
	</g>
</g>
</svg>
