<?xml version="1.0" encoding="utf-8"?>
<!-- Generator: Adobe Illustrator 27.5.0, SVG Export Plug-In . SVG Version: 6.00 Build 0)  -->
<svg version="1.1" xmlns="http://www.w3.org/2000/svg" xmlns:xlink="http://www.w3.org/1999/xlink" x="0px" y="0px"
	 viewBox="0 0 500 500" style="enable-background:new 0 0 500 500;" xml:space="preserve">
<g id="BACKGROUND">
	<rect style="fill:#FAEBD7;" width="500" height="500"/>
</g>
<g id="OBJECTS">
	<g>
		<defs>
			<rect id="SVGID_1_" width="500" height="500"/>
		</defs>
		<clipPath id="SVGID_00000137112130941634304980000000502059678618810281_">
			<use xlink:href="#SVGID_1_"  style="overflow:visible;"/>
		</clipPath>
		<g style="clip-path:url(#SVGID_00000137112130941634304980000000502059678618810281_);">
			<g>
				<g>
					<polygon style="fill:#FFF8F0;" points="276.586,509 274.986,509 274.986,416.669 365.69,325.964 468.333,325.964 
						468.333,327.564 366.352,327.564 276.586,417.331 					"/>
					<polygon style="fill:#FFF8F0;" points="365.288,483.798 364.157,482.667 440.415,406.409 505,406.409 505,408.009 
						441.077,408.009 					"/>
					<polygon style="fill:#FFF8F0;" points="322.156,484.787 321.025,483.656 421.887,382.795 512.007,382.795 512.007,384.395 
						422.549,384.395 					"/>
					<polygon style="fill:#FFF8F0;" points="204.642,509 203.042,509 203.042,376.353 203.276,376.119 347.165,232.23 
						348.296,233.361 204.642,377.016 					"/>
					<polygon style="fill:#FFF8F0;" points="505,207.64 234.793,207.64 234.559,207.406 178.306,151.152 179.438,150.021 
						235.456,206.04 505,206.04 					"/>
					<polygon style="fill:#FFF8F0;" points="458,185.146 250.188,185.146 95.842,30.8 -8.389,30.8 -8.389,29.2 96.505,29.2 
						96.739,29.434 250.851,183.546 458,183.546 					"/>
					<rect x="224.006" y="381.761" style="fill:#FFF8F0;" width="1.6" height="127.239"/>
					<polygon style="fill:#FFF8F0;" points="289.071,334.323 287.94,333.192 336.669,284.464 509,284.464 509,286.064 
						337.331,286.064 					"/>
					<rect x="381.901" y="264.2" style="fill:#FFF8F0;" width="127.099" height="1.6"/>
					<rect x="249.223" y="421.666" style="fill:#FFF8F0;" width="1.6" height="87.334"/>
					<polygon style="fill:#FFF8F0;" points="300.053,509 298.453,509 298.453,430.669 335.851,393.271 336.981,394.401 
						300.053,431.331 					"/>
					<polygon style="fill:#FFF8F0;" points="190.814,339.067 90.009,238.262 -8.389,238.262 -8.389,236.663 90.672,236.663 
						90.906,236.896 191.946,337.936 					"/>
					<rect x="-8.39" y="269.25" style="fill:#FFF8F0;" width="87.139" height="1.6"/>
					<polygon style="fill:#FFF8F0;" points="136.839,509 135.239,509 135.239,353.919 95.316,313.996 22,313.996 22,312.397 
						95.979,312.397 136.839,353.257 					"/>
					<polygon style="fill:#FFF8F0;" points="107.634,478.565 106.035,478.565 106.035,371.126 81.595,346.688 -8.39,346.688 
						-8.39,345.088 82.258,345.088 107.634,370.464 					"/>
					<polygon style="fill:#FFF8F0;" points="22.8,509 21.2,509 21.2,421.335 52.747,389.788 53.878,390.919 22.8,421.997 					"/>
					<rect x="48.422" y="435.887" style="fill:#FFF8F0;" width="1.6" height="73.113"/>
					<polygon style="fill:#FFF8F0;" points="162.908,243.566 95.417,176.076 -18.694,176.076 -18.694,174.476 96.081,174.476 
						96.315,174.71 164.04,242.435 					"/>
					
						<rect x="146.813" y="185.893" transform="matrix(0.7071 -0.7071 0.7071 0.7071 -144.3296 182.0708)" style="fill:#FFF8F0;" width="1.6" height="158.725"/>
					<polygon style="fill:#FFF8F0;" points="166.045,196.627 62.502,93.084 -8.39,93.084 -8.39,91.484 63.165,91.484 63.399,91.718 
						167.177,195.496 					"/>
					<polygon style="fill:#FFF8F0;" points="369.524,150.068 282.484,150.068 282.484,148.469 368.862,148.469 457.2,60.13 
						457.2,-7 458.8,-7 458.8,60.793 					"/>
					
						<rect x="421.08" y="99.103" transform="matrix(0.7074 -0.7068 0.7068 0.7074 66.9722 361.592)" style="fill:#FFF8F0;" width="98.318" height="1.6"/>
					<rect x="420.948" y="-7" style="fill:#FFF8F0;" width="1.6" height="58.717"/>
					
						<rect x="176.712" y="-27.991" transform="matrix(0.7071 -0.7071 0.7071 0.7071 21.1077 138.3122)" style="fill:#FFF8F0;" width="1.601" height="143.335"/>
					<polygon style="fill:#FFF8F0;" points="308.825,59.804 236.23,59.804 235.996,59.57 169.992,-6.434 171.123,-7.566 
						236.894,58.204 308.825,58.204 					"/>
					<rect x="453.333" y="438.867" style="fill:#FFF8F0;" width="51.667" height="1.6"/>
					<rect x="-5.667" y="137.392" style="fill:#FFF8F0;" width="74.597" height="1.6"/>
					<polygon style="fill:#FFF8F0;" points="309.047,113.836 307.916,112.705 351.422,69.199 351.422,-7 353.021,-7 353.021,69.862 
											"/>
					<rect x="322.805" y="-7" style="fill:#FFF8F0;" width="1.6" height="47.333"/>
				</g>
				<g>
					<circle style="fill:#FFF8F0;" cx="468.333" cy="326.764" r="4.667"/>
					<circle style="fill:#FFF8F0;" cx="321.588" cy="484.218" r="4.667"/>
					<path style="fill:#FFF8F0;" d="M369.39,483.232c0,2.578-2.09,4.667-4.667,4.667c-2.577,0-4.667-2.089-4.667-4.667
						s2.09-4.667,4.667-4.667C367.3,478.565,369.39,480.654,369.39,483.232z"/>
					<circle style="fill:#FFF8F0;" cx="347.73" cy="232.795" r="4.667"/>
					<circle style="fill:#FFF8F0;" cx="381.901" cy="265.383" r="4.667"/>
					<circle style="fill:#FFF8F0;" cx="288.506" cy="333.758" r="4.667"/>
					<path style="fill:#FFF8F0;" d="M229.473,381.761c0,2.578-2.09,4.667-4.667,4.667c-2.577,0-4.667-2.089-4.667-4.667
						c0-2.578,2.09-4.667,4.667-4.667C227.383,377.094,229.473,379.183,229.473,381.761z"/>
					<circle style="fill:#FFF8F0;" cx="179.562" cy="150.587" r="4.667"/>
					<circle style="fill:#FFF8F0;" cx="458" cy="184.346" r="4.667"/>
					<circle style="fill:#FFF8F0;" cx="435.478" cy="134.664" r="4.667"/>
					<path style="fill:#FFF8F0;" d="M426.415,51.717c0,2.578-2.09,4.667-4.667,4.667c-2.577,0-4.667-2.089-4.667-4.667
						c0-2.578,2.09-4.667,4.667-4.667C424.325,47.05,426.415,49.139,426.415,51.717z"/>
					<circle style="fill:#FFF8F0;" cx="308.343" cy="113.271" r="4.667"/>
					<circle style="fill:#FFF8F0;" cx="323.604" cy="40.333" r="4.667"/>
					<circle style="fill:#FFF8F0;" cx="308.829" cy="59.004" r="4.667"/>
					<path style="fill:#FFF8F0;" d="M287.151,149.269c0,2.578-2.09,4.667-4.667,4.667c-2.577,0-4.667-2.089-4.667-4.667
						c0-2.578,2.09-4.667,4.667-4.667C285.061,144.602,287.151,146.691,287.151,149.269z"/>
					<circle style="fill:#FFF8F0;" cx="228.188" cy="94.354" r="4.667"/>
					<circle style="fill:#FFF8F0;" cx="68.93" cy="138.191" r="4.667"/>
					<path style="fill:#FFF8F0;" d="M96.163,209.885c0,2.578-2.09,4.667-4.667,4.667c-2.577,0-4.667-2.089-4.667-4.667
						c0-2.578,2.09-4.667,4.667-4.667C94.073,205.218,96.163,207.308,96.163,209.885z"/>
					<circle style="fill:#FFF8F0;" cx="163.346" cy="243.001" r="4.667"/>
					<path style="fill:#FFF8F0;" d="M208.509,321.373c0,2.578-2.09,4.668-4.667,4.668c-2.577,0-4.667-2.09-4.667-4.668
						c0-2.577,2.09-4.666,4.667-4.666C206.419,316.707,208.509,318.796,208.509,321.373z"/>
					<path style="fill:#FFF8F0;" d="M196.047,338.814c0,2.578-2.09,4.668-4.667,4.668c-2.577,0-4.667-2.09-4.667-4.668
						c0-2.577,2.09-4.666,4.667-4.666C193.957,334.147,196.047,336.236,196.047,338.814z"/>
					<path style="fill:#FFF8F0;" d="M83.686,270.049c0,2.578-2.09,4.668-4.667,4.668c-2.577,0-4.667-2.09-4.667-4.668
						c0-2.577,2.09-4.666,4.667-4.666C81.597,265.383,83.686,267.472,83.686,270.049z"/>
					<path style="fill:#FFF8F0;" d="M26.667,313.607c0,2.578-2.09,4.668-4.667,4.668c-2.577,0-4.667-2.09-4.667-4.668
						c0-2.577,2.09-4.666,4.667-4.666C24.577,308.941,26.667,311.03,26.667,313.607z"/>
					<path style="fill:#FFF8F0;" d="M57.979,390.353c0,2.578-2.09,4.668-4.667,4.668s-4.667-2.09-4.667-4.668
						c0-2.577,2.09-4.666,4.667-4.666S57.979,387.775,57.979,390.353z"/>
					<path style="fill:#FFF8F0;" d="M53.889,435.886c0,2.578-2.09,4.668-4.667,4.668c-2.577,0-4.667-2.09-4.667-4.668
						c0-2.577,2.09-4.666,4.667-4.666C51.799,431.22,53.889,433.309,53.889,435.886z"/>
					<path style="fill:#FFF8F0;" d="M111.501,478.565c0,2.578-2.09,4.668-4.667,4.668c-2.577,0-4.667-2.09-4.667-4.668
						c0-2.577,2.09-4.666,4.667-4.666C109.412,473.898,111.501,475.987,111.501,478.565z"/>
					<path style="fill:#FFF8F0;" d="M254.689,421.665c0,2.578-2.09,4.668-4.667,4.668c-2.577,0-4.667-2.09-4.667-4.668
						c0-2.577,2.09-4.666,4.667-4.666C252.6,416.999,254.689,419.088,254.689,421.665z"/>
					<path style="fill:#FFF8F0;" d="M341.083,395.02c0,2.578-2.09,4.668-4.667,4.668c-2.577,0-4.667-2.09-4.667-4.668
						c0-2.577,2.09-4.666,4.667-4.666C338.993,390.353,341.083,392.442,341.083,395.02z"/>
					<path style="fill:#FFF8F0;" d="M458,439.666c0,2.578-2.09,4.668-4.667,4.668c-2.577,0-4.667-2.09-4.667-4.668
						c0-2.577,2.09-4.666,4.667-4.666C455.91,435,458,437.089,458,439.666z"/>
				</g>
			</g>
			<g>
				<g>
					<g>
						<g>
							<rect x="96.173" y="125.977" style="fill:#2F2D59;" width="25.941" height="18.117"/>
							<path style="fill:#5955A8;" d="M54.184,126.403c0,1.06,0.859,1.918,1.918,1.918h106.084c1.06,0,1.919-0.859,1.919-1.918
								V54.146c0-1.06-0.859-1.918-1.919-1.918H56.102c-1.059,0-1.918,0.858-1.918,1.918V126.403z"/>
							<path style="fill:#49458A;" d="M164.105,58.72v67.683c0,1.06-0.859,1.918-1.919,1.918H62.833L164.105,58.72z"/>
							<rect x="57.03" y="55.073" style="fill:#FFFFFF;" width="104.229" height="62.026"/>
							<path style="fill:#5955A8;" d="M126.835,144.094c0-0.353-0.286-0.639-0.639-0.639H92.093c-0.353,0-0.639,0.286-0.639,0.639
								v2.202c0,0.353,0.287,0.639,0.639,0.639h34.104c0.353,0,0.639-0.286,0.639-0.639V144.094z"/>
						</g>
						<g>
							<path style="fill:#5653A3;" d="M144.101,107.379c0,0.353-0.286,0.639-0.64,0.639H74.828c-0.354,0-0.64-0.286-0.64-0.639
								V64.794c0-0.353,0.286-0.64,0.64-0.64h68.633c0.354,0,0.64,0.287,0.64,0.64V107.379z"/>
							<rect x="75.862" y="71.251" style="fill:#FFFFFF;" width="66.076" height="34.05"/>
							<g>
								<path style="fill:#D49B54;" d="M79.683,67.76c0,0.75-0.608,1.358-1.359,1.358s-1.358-0.608-1.358-1.358
									c0-0.75,0.608-1.359,1.358-1.359S79.683,67.01,79.683,67.76z"/>
								<path style="fill:#D49B54;" d="M85.012,67.76c0,0.75-0.608,1.358-1.358,1.358c-0.751,0-1.359-0.608-1.359-1.358
									c0-0.75,0.608-1.359,1.359-1.359C84.403,66.401,85.012,67.01,85.012,67.76z"/>
								<path style="fill:#D49B54;" d="M90.34,67.76c0,0.75-0.608,1.358-1.358,1.358s-1.359-0.608-1.359-1.358
									c0-0.75,0.608-1.359,1.359-1.359S90.34,67.01,90.34,67.76z"/>
							</g>
							<g>
								<rect x="78.324" y="84.034" style="fill:#C74B50;" width="17.849" height="19"/>
								<rect x="98.824" y="84.034" style="fill:#C74B50;" width="17.849" height="19"/>
								<rect x="119.324" y="84.034" style="fill:#C74B50;" width="17.849" height="19"/>
							</g>
							<g>
								<g>
									<rect x="78.748" y="74.013" style="fill:#D49B54;" width="17.001" height="0.917"/>
									<rect x="78.748" y="76.075" style="fill:#D49B54;" width="17.001" height="0.917"/>
									<rect x="78.748" y="78.138" style="fill:#D49B54;" width="17.001" height="0.917"/>
									<rect x="78.748" y="80.2" style="fill:#D49B54;" width="17.001" height="0.917"/>
								</g>
								<g>
									<rect x="99.248" y="74.013" style="fill:#D49B54;" width="17.001" height="0.917"/>
									<rect x="99.248" y="76.075" style="fill:#D49B54;" width="17.001" height="0.917"/>
									<rect x="99.248" y="78.138" style="fill:#D49B54;" width="17.001" height="0.917"/>
									<rect x="99.248" y="80.2" style="fill:#D49B54;" width="17.001" height="0.917"/>
								</g>
								<g>
									<rect x="119.748" y="74.013" style="fill:#D49B54;" width="17.001" height="0.917"/>
									<rect x="119.748" y="76.075" style="fill:#D49B54;" width="17.001" height="0.917"/>
									<rect x="119.748" y="78.138" style="fill:#D49B54;" width="17.001" height="0.917"/>
									<rect x="119.748" y="80.2" style="fill:#D49B54;" width="17.001" height="0.917"/>
								</g>
							</g>
						</g>
					</g>
					<g>
						<g>
							<path style="fill:#3A3845;" d="M129.514,81.97c0-1.657,1.343-3,3-3h32.462c1.657,0,3,1.343,3,3v61.964c0,1.657-1.343,3-3,3
								h-32.462c-1.657,0-3-1.343-3-3V81.97z"/>
							<rect x="132.058" y="81.492" style="fill:#FFFFFF;" width="33.375" height="60.375"/>
							<polygon style="fill:#3A3845;" points="153.846,82.951 143.515,82.951 141.514,81.117 155.847,81.117 							"/>
						</g>
						<g>
							<g>
								<g>
									<path style="fill:#5653A3;" d="M160.514,106.534c-0.552,0-1,0.448-1,1v18.666c0,0.552,0.448,1,1,1h4.919v-20.666H160.514z"
										/>
								</g>
								<rect x="161.259" y="108.618" style="fill:#FAEBD7;" width="4.173" height="8.25"/>
								<rect x="161.259" y="119.034" style="fill:#C74B50;" width="4.173" height="6.667"/>
							</g>
							<g>
								<path style="fill:#5653A3;" d="M156.847,126.201c0,0.552-0.448,1-1,1h-19c-0.552,0-1-0.448-1-1v-18.666c0-0.552,0.448-1,1-1
									h19c0.552,0,1,0.448,1,1V126.201z"/>
								<rect x="137.806" y="119.034" style="fill:#C74B50;" width="7.416" height="6.667"/>
								<rect x="137.806" y="108.618" style="fill:#FAEBD7;" width="17" height="8.25"/>
								<rect x="147.389" y="119.034" style="fill:#C74B50;" width="7.416" height="6.667"/>
							</g>
							<g>
								<g>
									<rect x="137.806" y="130.286" style="fill:#D49B54;" width="17" height="0.917"/>
									<rect x="137.806" y="132.348" style="fill:#D49B54;" width="17" height="0.917"/>
									<rect x="137.806" y="134.411" style="fill:#D49B54;" width="17" height="0.917"/>
									<rect x="137.806" y="136.473" style="fill:#D49B54;" width="17" height="0.917"/>
								</g>
								<g>
									<rect x="161.259" y="130.286" style="fill:#D49B54;" width="4.173" height="0.917"/>
									<rect x="161.259" y="132.348" style="fill:#D49B54;" width="4.173" height="0.917"/>
									<rect x="161.259" y="134.411" style="fill:#D49B54;" width="4.173" height="0.917"/>
									<rect x="161.259" y="136.473" style="fill:#D49B54;" width="4.173" height="0.917"/>
								</g>
							</g>
							<g>
								<path style="fill:#5653A3;" d="M161.451,102.034c0,0.552-0.448,1-1,1h-23.412c-0.552,0-1-0.448-1-1V89.276
									c0-0.552,0.448-1,1-1h23.412c0.552,0,1,0.448,1,1V102.034z"/>
								<g>
									<path style="fill:#FFFFFF;" d="M158.683,92.022h-19.875c-0.165,0-0.3-0.134-0.3-0.3c0-0.166,0.134-0.3,0.3-0.3h19.875
										c0.165,0,0.3,0.134,0.3,0.3C158.982,91.888,158.848,92.022,158.683,92.022z"/>
									<path style="fill:#FFFFFF;" d="M158.683,93.988h-19.875c-0.165,0-0.3-0.134-0.3-0.3c0-0.166,0.134-0.3,0.3-0.3h19.875
										c0.165,0,0.3,0.134,0.3,0.3C158.982,93.854,158.848,93.988,158.683,93.988z"/>
									<path style="fill:#FFFFFF;" d="M158.683,95.955h-19.875c-0.165,0-0.3-0.134-0.3-0.3s0.134-0.3,0.3-0.3h19.875
										c0.165,0,0.3,0.134,0.3,0.3S158.848,95.955,158.683,95.955z"/>
									<path style="fill:#FFFFFF;" d="M158.683,97.921h-19.875c-0.165,0-0.3-0.134-0.3-0.3c0-0.166,0.134-0.3,0.3-0.3h19.875
										c0.165,0,0.3,0.134,0.3,0.3C158.982,97.787,158.848,97.921,158.683,97.921z"/>
									<path style="fill:#FFFFFF;" d="M158.683,99.887h-19.875c-0.165,0-0.3-0.134-0.3-0.3c0-0.166,0.134-0.3,0.3-0.3h19.875
										c0.165,0,0.3,0.134,0.3,0.3C158.982,99.753,158.848,99.887,158.683,99.887z"/>
								</g>
							</g>
						</g>
					</g>
				</g>
				<g>
					<g>
						<path style="fill:#8E8DD1;" d="M371.597,147.476c-24.021,0-43.564-19.543-43.564-43.564s19.543-43.564,43.564-43.564
							c24.022,0,43.564,19.543,43.564,43.564S395.618,147.476,371.597,147.476z M371.597,61.848
							c-23.194,0-42.064,18.87-42.064,42.064s18.87,42.064,42.064,42.064c23.194,0,42.064-18.87,42.064-42.064
							S394.791,61.848,371.597,61.848z"/>
						<path style="fill:#8E8DD1;" d="M371.597,147.476c-0.414,0-0.75-0.336-0.75-0.75V61.098c0-0.414,0.336-0.75,0.75-0.75
							c0.414,0,0.75,0.336,0.75,0.75v85.628C372.347,147.14,372.011,147.476,371.597,147.476z"/>
						<path style="fill:#8E8DD1;" d="M414.411,104.662h-85.629c-0.414,0-0.75-0.336-0.75-0.75s0.336-0.75,0.75-0.75h85.629
							c0.414,0,0.75,0.336,0.75,0.75S414.825,104.662,414.411,104.662z"/>
						<path style="fill:#8E8DD1;" d="M371.597,92.403c-25.893,0-36.935-8.658-37.392-9.027c-0.322-0.26-0.373-0.731-0.113-1.053
							c0.258-0.322,0.729-0.375,1.054-0.115c0.108,0.087,11.148,8.695,36.451,8.695c25.374,0,36.674-8.614,36.785-8.702
							c0.326-0.256,0.797-0.197,1.053,0.128c0.255,0.326,0.197,0.798-0.129,1.053C408.835,83.751,397.483,92.403,371.597,92.403z"/>
						<path style="fill:#8E8DD1;" d="M371.597,76.826c-20.751,0-24.194-7.991-24.331-8.331c-0.154-0.385,0.032-0.821,0.417-0.976
							c0.385-0.154,0.821,0.033,0.976,0.417c0.028,0.067,3.356,7.39,22.939,7.39c19.175,0,22.133-7.293,22.16-7.367
							c0.145-0.384,0.572-0.585,0.96-0.445c0.387,0.141,0.589,0.563,0.452,0.95C395.049,68.806,391.989,76.826,371.597,76.826z"/>
						<path style="fill:#8E8DD1;" d="M334.352,125.782c-0.224,0-0.443-0.099-0.592-0.288c-0.255-0.326-0.197-0.798,0.129-1.053
							c0.471-0.368,11.822-9.02,37.709-9.02c25.892,0,36.934,8.658,37.392,9.027c0.322,0.26,0.373,0.731,0.113,1.053
							c-0.258,0.324-0.73,0.376-1.054,0.115c-0.108-0.087-11.148-8.695-36.451-8.695c-25.374,0-36.674,8.614-36.785,8.702
							C334.676,125.729,334.513,125.782,334.352,125.782z"/>
						<path style="fill:#8E8DD1;" d="M395.232,140.359c-0.297,0-0.579-0.178-0.696-0.471c-0.028-0.067-3.356-7.39-22.938-7.39
							c-19.175,0-22.133,7.294-22.16,7.367c-0.144,0.384-0.569,0.588-0.96,0.445c-0.387-0.141-0.589-0.563-0.452-0.95
							c0.12-0.342,3.18-8.362,23.572-8.362c20.751,0,24.194,7.992,24.331,8.332c0.154,0.385-0.032,0.821-0.417,0.976
							C395.42,140.342,395.325,140.359,395.232,140.359z"/>
						<path style="fill:#8E8DD1;" d="M371.598,147.476c-0.22,0-0.438-0.096-0.585-0.281c-0.26-0.323-0.208-0.794,0.114-1.054
							c0.147-0.118,14.71-12.184,14.71-41.918c0-29.749-14.577-42.427-14.724-42.552c-0.316-0.268-0.357-0.741-0.09-1.057
							c0.266-0.315,0.738-0.358,1.057-0.09c0.623,0.525,15.257,13.201,15.257,43.699c0,30.509-14.647,42.589-15.272,43.089
							C371.928,147.422,371.762,147.476,371.598,147.476z"/>
						<path style="fill:#8E8DD1;" d="M371.597,147.476c-0.3,0-0.583-0.181-0.698-0.477c-0.151-0.386,0.039-0.821,0.425-0.972
							c0.303-0.118,30.264-12.184,30.264-41.805c0-29.654-29.973-42.307-30.275-42.431c-0.383-0.157-0.566-0.596-0.408-0.979
							c0.157-0.382,0.593-0.565,0.978-0.409c0.312,0.128,31.205,13.171,31.205,43.819c0,30.657-30.905,43.08-31.218,43.202
							C371.78,147.46,371.687,147.476,371.597,147.476z"/>
						<path style="fill:#8E8DD1;" d="M371.596,147.476c-0.164,0-0.329-0.054-0.468-0.165c-0.624-0.499-15.271-12.58-15.271-43.089
							c0-30.498,14.634-43.174,15.257-43.699c0.317-0.268,0.79-0.225,1.057,0.09c0.267,0.316,0.227,0.789-0.09,1.057
							c-0.146,0.125-14.724,12.803-14.724,42.552c0,29.734,14.563,41.8,14.71,41.918c0.322,0.26,0.374,0.732,0.114,1.054
							C372.033,147.38,371.815,147.476,371.596,147.476z"/>
						<path style="fill:#8E8DD1;" d="M371.597,147.476c-0.091,0-0.184-0.017-0.272-0.051c-0.313-0.122-31.218-12.545-31.218-43.202
							c0-30.648,30.894-43.691,31.205-43.819c0.383-0.156,0.82,0.025,0.979,0.409c0.157,0.383-0.025,0.821-0.408,0.979
							c-0.303,0.125-30.275,12.801-30.275,42.431c0,29.62,29.961,41.686,30.264,41.805c0.386,0.151,0.576,0.586,0.425,0.972
							C372.18,147.295,371.896,147.476,371.597,147.476z"/>
					</g>
					<g>
						<path style="fill:#49458A;" d="M446.325,128.501c-16.5,0-90.25,0-121.25,0c0-20.455,17.5-36.205,40.25-33.955
							c8.5-23.5,41.667-26,53-4.5C445.575,90.047,452.825,113.297,446.325,128.501z"/>
						<g>
							<g>
								<path style="fill:#2F2D59;" d="M412.368,103.089c0-1.349,0.888-2.489,2.109-2.874c-0.216-1.424-0.589-2.796-1.102-4.099
									c-1.248,0.285-2.591-0.256-3.271-1.423c-0.68-1.165-0.487-2.595,0.374-3.542c-0.906-1.122-1.939-2.141-3.077-3.032
									c-0.933,0.876-2.361,1.089-3.535,0.427c-1.177-0.661-1.736-1.994-1.47-3.248c-1.225-0.462-2.511-0.802-3.84-1.004
									c-0.386,1.221-1.526,2.108-2.875,2.108c-1.349,0-2.489-0.887-2.873-2.108c-1.423,0.216-2.797,0.589-4.098,1.103
									c0.284,1.251-0.257,2.591-1.423,3.272c-1.165,0.677-2.596,0.486-3.542-0.377c-1.125,0.909-2.141,1.939-3.033,3.076
									c0.876,0.933,1.089,2.363,0.428,3.538c-0.662,1.176-1.996,1.736-3.25,1.47c-0.461,1.223-0.803,2.509-1.004,3.84
									c1.222,0.384,2.108,1.525,2.108,2.874c0,1.349-0.887,2.49-2.108,2.875c0.216,1.423,0.59,2.796,1.103,4.098
									c1.248-0.285,2.594,0.254,3.271,1.421c0.679,1.165,0.487,2.596-0.375,3.542c0.906,1.125,1.939,2.141,3.075,3.034
									c0.935-0.876,2.362-1.089,3.538-0.428c1.175,0.661,1.736,1.995,1.47,3.25c1.225,0.461,2.51,0.802,3.84,1.004
									c0.384-1.223,1.524-2.111,2.873-2.111c1.349,0,2.491,0.888,2.875,2.109c1.422-0.216,2.797-0.588,4.099-1.102
									c-0.284-1.251,0.256-2.591,1.421-3.272c1.166-0.677,2.597-0.487,3.542,0.376c1.125-0.908,2.142-1.939,3.034-3.077
									c-0.877-0.933-1.091-2.362-0.428-3.536c0.662-1.177,1.995-1.736,3.248-1.47c0.464-1.224,0.804-2.51,1.005-3.839
									C413.256,105.58,412.368,104.438,412.368,103.089z M395.682,114.142c-6.104,0-11.054-4.946-11.054-11.053
									c0-6.105,4.949-11.054,11.054-11.054c6.105,0,11.056,4.949,11.056,11.054C406.737,109.195,401.787,114.142,395.682,114.142z
									"/>
								<path style="fill:#2F2D59;" d="M421.63,112.229c0-0.822,0.541-1.519,1.287-1.753c-0.131-0.87-0.359-1.707-0.673-2.502
									c-0.763,0.173-1.582-0.156-1.997-0.869c-0.414-0.711-0.297-1.584,0.229-2.162c-0.553-0.686-1.184-1.308-1.878-1.851
									c-0.57,0.534-1.441,0.664-2.158,0.26c-0.719-0.404-1.06-1.218-0.896-1.983c-0.748-0.282-1.532-0.49-2.344-0.613
									c-0.235,0.746-0.933,1.287-1.756,1.287c-0.823,0-1.52-0.542-1.754-1.287c-0.868,0.132-1.708,0.36-2.501,0.673
									c0.173,0.763-0.157,1.581-0.869,1.997c-0.71,0.413-1.584,0.297-2.162-0.229c-0.685,0.554-1.307,1.184-1.851,1.878
									c0.534,0.569,0.665,1.442,0.261,2.159s-1.219,1.06-1.983,0.897c-0.282,0.747-0.49,1.531-0.613,2.344
									c0.745,0.234,1.287,0.931,1.287,1.753c0,0.824-0.542,1.521-1.287,1.755c0.131,0.868,0.359,1.707,0.674,2.501
									c0.762-0.174,1.582,0.155,1.995,0.868c0.415,0.711,0.299,1.585-0.228,2.162c0.554,0.687,1.183,1.307,1.876,1.852
									c0.572-0.535,1.443-0.666,2.161-0.262c0.716,0.404,1.06,1.218,0.896,1.984c0.747,0.282,1.532,0.49,2.344,0.613
									c0.234-0.746,0.931-1.289,1.754-1.289c0.823,0,1.521,0.542,1.756,1.288c0.867-0.132,1.707-0.359,2.501-0.673
									c-0.173-0.763,0.155-1.581,0.868-1.997c0.711-0.413,1.585-0.297,2.163,0.23c0.685-0.554,1.306-1.184,1.851-1.878
									c-0.534-0.569-0.665-1.442-0.261-2.159c0.403-0.718,1.218-1.06,1.982-0.896c0.283-0.748,0.491-1.533,0.613-2.344
									C422.171,113.75,421.63,113.053,421.63,112.229z M411.443,118.977c-3.727,0-6.748-3.02-6.748-6.748
									c0-3.726,3.021-6.747,6.748-6.747c3.727,0,6.749,3.021,6.749,6.747C418.192,115.957,415.171,118.977,411.443,118.977z"/>
								<path style="fill:#2F2D59;" d="M381.783,112.229c0-0.822,0.541-1.519,1.287-1.753c-0.131-0.87-0.359-1.707-0.673-2.502
									c-0.763,0.173-1.582-0.156-1.997-0.869c-0.414-0.711-0.297-1.584,0.228-2.162c-0.553-0.686-1.184-1.308-1.878-1.851
									c-0.57,0.534-1.441,0.664-2.158,0.26c-0.719-0.404-1.06-1.218-0.896-1.983c-0.748-0.282-1.532-0.49-2.344-0.613
									c-0.235,0.746-0.933,1.287-1.756,1.287c-0.823,0-1.52-0.542-1.754-1.287c-0.868,0.132-1.708,0.36-2.501,0.673
									c0.173,0.763-0.157,1.581-0.869,1.997c-0.71,0.413-1.584,0.297-2.162-0.229c-0.685,0.554-1.307,1.184-1.85,1.878
									c0.534,0.569,0.665,1.442,0.261,2.159c-0.404,0.717-1.219,1.06-1.983,0.897c-0.282,0.747-0.49,1.531-0.613,2.344
									c0.745,0.234,1.287,0.931,1.287,1.753c0,0.824-0.542,1.521-1.287,1.755c0.131,0.868,0.359,1.707,0.674,2.501
									c0.762-0.174,1.582,0.155,1.995,0.868c0.415,0.711,0.299,1.585-0.228,2.162c0.554,0.687,1.183,1.307,1.876,1.852
									c0.572-0.535,1.443-0.666,2.161-0.262c0.716,0.404,1.06,1.218,0.897,1.984c0.747,0.282,1.532,0.49,2.344,0.613
									c0.234-0.746,0.931-1.289,1.754-1.289c0.823,0,1.522,0.542,1.756,1.288c0.867-0.132,1.707-0.359,2.501-0.673
									c-0.173-0.763,0.155-1.581,0.868-1.997c0.711-0.413,1.585-0.297,2.163,0.23c0.685-0.554,1.306-1.184,1.851-1.878
									c-0.534-0.569-0.665-1.442-0.261-2.159c0.403-0.718,1.218-1.06,1.982-0.896c0.283-0.748,0.491-1.533,0.613-2.344
									C382.324,113.75,381.783,113.053,381.783,112.229z M371.597,118.977c-3.727,0-6.748-3.02-6.748-6.748
									c0-3.726,3.022-6.747,6.748-6.747c3.728,0,6.749,3.021,6.749,6.747C378.346,115.957,375.324,118.977,371.597,118.977z"/>
							</g>
							<g>
								<path style="fill:#FFFFFF;" d="M411.199,101.919c0-1.349,0.888-2.489,2.109-2.873c-0.216-1.424-0.59-2.796-1.104-4.099
									c-1.248,0.285-2.591-0.256-3.27-1.423c-0.68-1.165-0.488-2.595,0.374-3.542c-0.906-1.122-1.939-2.141-3.077-3.032
									c-0.933,0.875-2.361,1.088-3.535,0.426c-1.177-0.661-1.736-1.994-1.47-3.248c-1.225-0.462-2.511-0.802-3.84-1.004
									c-0.386,1.221-1.526,2.108-2.875,2.108c-1.349,0-2.489-0.887-2.873-2.108c-1.423,0.216-2.798,0.589-4.098,1.103
									c0.284,1.25-0.258,2.591-1.423,3.272c-1.165,0.677-2.596,0.486-3.542-0.376c-1.125,0.908-2.142,1.938-3.033,3.076
									c0.876,0.932,1.088,2.362,0.427,3.537c-0.662,1.176-1.995,1.736-3.249,1.47c-0.462,1.224-0.803,2.509-1.004,3.84
									c1.222,0.384,2.107,1.525,2.107,2.873c0,1.349-0.886,2.49-2.107,2.875c0.216,1.423,0.589,2.796,1.104,4.098
									c1.248-0.285,2.594,0.254,3.27,1.421c0.68,1.165,0.488,2.596-0.374,3.542c0.906,1.125,1.939,2.141,3.075,3.034
									c0.935-0.876,2.362-1.089,3.538-0.428c1.175,0.661,1.735,1.995,1.47,3.25c1.224,0.462,2.51,0.802,3.84,1.004
									c0.384-1.223,1.525-2.111,2.873-2.111c1.349,0,2.491,0.888,2.875,2.109c1.422-0.216,2.796-0.588,4.098-1.103
									c-0.284-1.25,0.256-2.591,1.422-3.272c1.166-0.677,2.597-0.486,3.542,0.377c1.125-0.909,2.141-1.939,3.034-3.078
									c-0.877-0.933-1.091-2.362-0.429-3.536c0.663-1.177,1.996-1.736,3.249-1.47c0.464-1.224,0.804-2.51,1.005-3.839
									C412.087,104.41,411.199,103.268,411.199,101.919z M394.513,112.972c-6.105,0-11.055-4.947-11.055-11.053
									c0-6.105,4.95-11.054,11.055-11.054c6.105,0,11.055,4.949,11.055,11.054C405.567,108.025,400.618,112.972,394.513,112.972z"
									/>
								<path style="fill:#E09C48;" d="M420.461,111.06c0-0.823,0.541-1.52,1.287-1.754c-0.132-0.87-0.36-1.707-0.673-2.502
									c-0.763,0.174-1.583-0.156-1.997-0.868c-0.414-0.711-0.297-1.584,0.228-2.162c-0.553-0.685-1.185-1.308-1.879-1.851
									c-0.569,0.534-1.44,0.664-2.157,0.26c-0.719-0.404-1.06-1.218-0.896-1.983c-0.748-0.282-1.532-0.49-2.345-0.613
									c-0.235,0.746-0.932,1.287-1.755,1.287c-0.823,0-1.52-0.541-1.754-1.287c-0.869,0.132-1.708,0.359-2.502,0.673
									c0.174,0.763-0.156,1.581-0.869,1.997c-0.71,0.414-1.583,0.297-2.161-0.229c-0.686,0.555-1.308,1.184-1.851,1.878
									c0.534,0.569,0.664,1.442,0.26,2.159c-0.404,0.718-1.218,1.06-1.983,0.897c-0.281,0.747-0.489,1.531-0.612,2.344
									c0.745,0.234,1.286,0.931,1.286,1.754c0,0.823-0.541,1.52-1.286,1.755c0.131,0.868,0.359,1.707,0.673,2.502
									c0.762-0.174,1.583,0.154,1.996,0.868c0.415,0.711,0.298,1.585-0.228,2.162c0.554,0.687,1.184,1.307,1.876,1.852
									c0.572-0.535,1.443-0.665,2.162-0.262c0.716,0.404,1.06,1.218,0.897,1.984c0.746,0.282,1.532,0.49,2.344,0.613
									c0.234-0.746,0.931-1.289,1.754-1.289c0.823,0,1.521,0.542,1.755,1.288c0.868-0.132,1.707-0.359,2.502-0.673
									c-0.174-0.763,0.155-1.581,0.868-1.997c0.711-0.413,1.585-0.297,2.162,0.23c0.686-0.555,1.307-1.184,1.852-1.878
									c-0.535-0.57-0.665-1.442-0.261-2.159c0.403-0.718,1.217-1.06,1.982-0.897c0.283-0.748,0.491-1.533,0.613-2.344
									C421.002,112.581,420.461,111.883,420.461,111.06z M410.274,117.807c-3.727,0-6.748-3.02-6.748-6.747
									c0-3.727,3.022-6.747,6.748-6.747c3.727,0,6.748,3.021,6.748,6.747C417.022,114.788,414.001,117.807,410.274,117.807z"/>
								<path style="fill:#D65A5F;" d="M380.614,111.06c0-0.823,0.541-1.52,1.287-1.754c-0.132-0.87-0.36-1.707-0.673-2.502
									c-0.763,0.174-1.583-0.156-1.997-0.868c-0.414-0.711-0.297-1.584,0.229-2.162c-0.553-0.685-1.185-1.308-1.879-1.851
									c-0.569,0.534-1.44,0.664-2.157,0.26c-0.719-0.404-1.06-1.218-0.896-1.983c-0.748-0.282-1.532-0.49-2.345-0.613
									c-0.235,0.746-0.932,1.287-1.755,1.287c-0.823,0-1.52-0.541-1.754-1.287c-0.869,0.132-1.708,0.359-2.502,0.673
									c0.174,0.763-0.156,1.581-0.869,1.997c-0.71,0.414-1.583,0.297-2.161-0.229c-0.686,0.555-1.308,1.184-1.851,1.878
									c0.534,0.569,0.664,1.442,0.26,2.159c-0.404,0.718-1.218,1.06-1.983,0.897c-0.281,0.747-0.489,1.531-0.612,2.344
									c0.745,0.234,1.286,0.931,1.286,1.754c0,0.823-0.541,1.52-1.286,1.755c0.131,0.868,0.359,1.707,0.673,2.502
									c0.762-0.174,1.583,0.154,1.996,0.868c0.415,0.711,0.298,1.585-0.229,2.162c0.554,0.687,1.184,1.307,1.876,1.852
									c0.572-0.535,1.443-0.665,2.162-0.262c0.716,0.404,1.06,1.218,0.896,1.984c0.746,0.282,1.532,0.49,2.344,0.613
									c0.234-0.746,0.931-1.289,1.754-1.289c0.823,0,1.522,0.542,1.755,1.288c0.868-0.132,1.707-0.359,2.502-0.673
									c-0.174-0.763,0.155-1.581,0.868-1.997c0.711-0.413,1.585-0.297,2.162,0.23c0.686-0.555,1.307-1.184,1.852-1.878
									c-0.535-0.57-0.665-1.442-0.261-2.159c0.403-0.718,1.217-1.06,1.982-0.897c0.283-0.748,0.491-1.533,0.613-2.344
									C381.155,112.581,380.614,111.883,380.614,111.06z M370.428,117.807c-3.727,0-6.748-3.02-6.748-6.747
									c0-3.727,3.021-6.747,6.748-6.747c3.727,0,6.748,3.021,6.748,6.747C377.176,114.788,374.154,117.807,370.428,117.807z"/>
							</g>
						</g>
					</g>
				</g>
				<g>
					<g>
						<path style="fill:#D49B54;" d="M144.5,410.212H74.999c-0.829,0-1.5-0.672-1.5-1.5v-12.667c0-0.828,0.671-1.5,1.5-1.5
							s1.5,0.672,1.5,1.5v11.167H143v-11.167c0-0.828,0.671-1.5,1.5-1.5c0.829,0,1.5,0.672,1.5,1.5v12.667
							C146,409.54,145.329,410.212,144.5,410.212z"/>
						<path style="fill:#D49B54;" d="M264.454,392.378h-94.472c-0.829,0-1.5-0.672-1.5-1.5c0-0.828,0.671-1.5,1.5-1.5h92.972
							v-43.521c0-0.828,0.672-1.5,1.5-1.5h86.268c0.828,0,1.5,0.672,1.5,1.5c0,0.828-0.672,1.5-1.5,1.5h-84.768v43.521
							C265.954,391.706,265.282,392.378,264.454,392.378z"/>
						<path style="fill:#D49B54;" d="M437.818,397.423h-85.669c-1.614,0-2.928-1.314-2.928-2.928v-79.759
							c0-1.614,1.314-2.928,2.928-2.928h85.669c1.614,0,2.928,1.314,2.928,2.928v79.759
							C440.746,396.109,439.433,397.423,437.818,397.423z M352.222,394.423h85.524v-79.614h-85.524V394.423z"/>
						<polygon style="fill:#D49B54;" points="210.144,396.174 220.139,390.402 210.144,384.633 						"/>
						<polygon style="fill:#D49B54;" points="303.615,351.561 313.609,345.79 303.615,340.021 						"/>
					</g>
					<g>
						<g>
							<path style="fill:#2F2D59;" d="M145.337,400.233c0,0.979-0.793,1.772-1.772,1.772H63.996c-0.979,0-1.773-0.794-1.773-1.772
								v-96.89c0-0.979,0.794-1.773,1.773-1.773h79.569c0.979,0,1.772,0.794,1.772,1.773V400.233z"/>
							<g>
								<g>
									<rect x="65.976" y="313.43" style="fill:#E09C48;" width="75.326" height="8.775"/>
									<g>
										<rect x="68.93" y="315.677" style="fill:#FFFFFF;" width="4.283" height="4.282"/>
										<rect x="75.428" y="315.677" style="fill:#FFFFFF;" width="4.283" height="4.282"/>
										<rect x="81.927" y="315.677" style="fill:#FFFFFF;" width="4.283" height="4.282"/>
									</g>
								</g>
								<g>
									<rect x="65.976" y="324.359" style="fill:#E09C48;" width="75.326" height="8.775"/>
									<g>
										<rect x="68.93" y="326.606" style="fill:#FFFFFF;" width="4.283" height="4.282"/>
										<rect x="75.428" y="326.606" style="fill:#FFFFFF;" width="4.283" height="4.282"/>
										<rect x="81.927" y="326.606" style="fill:#FFFFFF;" width="4.283" height="4.282"/>
									</g>
								</g>
								<g>
									<rect x="65.976" y="335.289" style="fill:#E09C48;" width="75.326" height="8.775"/>
									<g>
										<rect x="68.93" y="337.535" style="fill:#FFFFFF;" width="4.283" height="4.282"/>
										<rect x="75.428" y="337.535" style="fill:#FFFFFF;" width="4.283" height="4.282"/>
										<rect x="81.927" y="337.535" style="fill:#FFFFFF;" width="4.283" height="4.282"/>
									</g>
								</g>
								<g>
									<rect x="65.976" y="346.219" style="fill:#E09C48;" width="75.326" height="8.775"/>
									<g>
										<rect x="68.93" y="348.465" style="fill:#FFFFFF;" width="4.283" height="4.282"/>
										<rect x="75.428" y="348.465" style="fill:#FFFFFF;" width="4.283" height="4.282"/>
										<rect x="81.927" y="348.465" style="fill:#FFFFFF;" width="4.283" height="4.282"/>
									</g>
								</g>
								<g>
									<rect x="65.976" y="357.147" style="fill:#E09C48;" width="75.326" height="8.775"/>
									<g>
										<rect x="68.93" y="359.395" style="fill:#FFFFFF;" width="4.283" height="4.282"/>
										<rect x="75.428" y="359.395" style="fill:#FFFFFF;" width="4.283" height="4.282"/>
										<rect x="81.927" y="359.395" style="fill:#FFFFFF;" width="4.283" height="4.282"/>
									</g>
								</g>
								<g>
									<rect x="65.976" y="368.077" style="fill:#E09C48;" width="75.326" height="8.775"/>
									<g>
										<rect x="68.93" y="370.323" style="fill:#FFFFFF;" width="4.283" height="4.282"/>
										<rect x="75.428" y="370.323" style="fill:#FFFFFF;" width="4.283" height="4.282"/>
										<rect x="81.927" y="370.323" style="fill:#FFFFFF;" width="4.283" height="4.282"/>
									</g>
								</g>
								<g>
									<rect x="65.976" y="379.007" style="fill:#E09C48;" width="75.326" height="8.775"/>
									<g>
										<rect x="68.93" y="381.253" style="fill:#FFFFFF;" width="4.283" height="4.282"/>
										<rect x="75.428" y="381.253" style="fill:#FFFFFF;" width="4.283" height="4.282"/>
										<rect x="81.927" y="381.253" style="fill:#FFFFFF;" width="4.283" height="4.282"/>
									</g>
								</g>
							</g>
						</g>
						<g>
							<path style="fill:#5C57AD;" d="M170.577,400.757c0,0.69-0.559,1.249-1.249,1.249h-56.052c-0.69,0-1.249-0.559-1.249-1.249
								v-68.253c0-0.689,0.559-1.249,1.249-1.249h56.052c0.69,0,1.249,0.56,1.249,1.249V400.757z"/>
							<g>
								<g>
									<rect x="114.671" y="339.609" style="fill:#2F2D59;" width="53.063" height="6.182"/>
									<g>
										<rect x="116.752" y="341.192" style="fill:#FFFFFF;" width="3.017" height="3.016"/>
										<rect x="121.33" y="341.192" style="fill:#FFFFFF;" width="3.017" height="3.016"/>
										<rect x="125.908" y="341.192" style="fill:#FFFFFF;" width="3.018" height="3.016"/>
									</g>
								</g>
								<g>
									<rect x="114.671" y="347.308" style="fill:#2F2D59;" width="53.063" height="6.182"/>
									<g>
										<rect x="116.752" y="348.891" style="fill:#FFFFFF;" width="3.017" height="3.017"/>
										<rect x="121.33" y="348.891" style="fill:#FFFFFF;" width="3.017" height="3.017"/>
										<rect x="125.908" y="348.891" style="fill:#FFFFFF;" width="3.018" height="3.017"/>
									</g>
								</g>
								<g>
									<rect x="114.671" y="355.008" style="fill:#2F2D59;" width="53.063" height="6.182"/>
									<g>
										<rect x="116.752" y="356.591" style="fill:#FFFFFF;" width="3.017" height="3.016"/>
										<rect x="121.33" y="356.591" style="fill:#FFFFFF;" width="3.017" height="3.016"/>
										<rect x="125.908" y="356.591" style="fill:#FFFFFF;" width="3.018" height="3.016"/>
									</g>
								</g>
								<g>
									<rect x="114.671" y="362.706" style="fill:#2F2D59;" width="53.063" height="6.182"/>
									<g>
										<rect x="116.752" y="364.289" style="fill:#FFFFFF;" width="3.017" height="3.017"/>
										<rect x="121.33" y="364.289" style="fill:#FFFFFF;" width="3.017" height="3.017"/>
										<rect x="125.908" y="364.289" style="fill:#FFFFFF;" width="3.018" height="3.017"/>
									</g>
								</g>
								<g>
									<rect x="114.671" y="370.406" style="fill:#2F2D59;" width="53.063" height="6.182"/>
									<g>
										<rect x="116.752" y="371.988" style="fill:#FFFFFF;" width="3.017" height="3.017"/>
										<rect x="121.33" y="371.988" style="fill:#FFFFFF;" width="3.017" height="3.017"/>
										<rect x="125.908" y="371.988" style="fill:#FFFFFF;" width="3.018" height="3.017"/>
									</g>
								</g>
								<g>
									<rect x="114.671" y="378.104" style="fill:#2F2D59;" width="53.063" height="6.182"/>
									<g>
										<rect x="116.752" y="379.688" style="fill:#FFFFFF;" width="3.017" height="3.016"/>
										<rect x="121.33" y="379.688" style="fill:#FFFFFF;" width="3.017" height="3.016"/>
										<rect x="125.908" y="379.688" style="fill:#FFFFFF;" width="3.018" height="3.016"/>
									</g>
								</g>
								<g>
									<rect x="114.671" y="385.805" style="fill:#2F2D59;" width="53.063" height="6.182"/>
									<g>
										<rect x="116.752" y="387.387" style="fill:#FFFFFF;" width="3.017" height="3.017"/>
										<rect x="121.33" y="387.387" style="fill:#FFFFFF;" width="3.017" height="3.017"/>
										<rect x="125.908" y="387.387" style="fill:#FFFFFF;" width="3.018" height="3.017"/>
									</g>
								</g>
							</g>
						</g>
					</g>
					<g>
						<circle style="fill:#D49B54;" cx="264.455" cy="391.706" r="22"/>
						<g>
							<path style="fill:#2F2D59;" d="M259.59,396.353l-9.59-3.818v-3.313l9.59-3.817v2.668l-7.635,2.944v-0.276l7.635,2.944
								V396.353z"/>
							<path style="fill:#2F2D59;" d="M260.717,402.378l4.244-21.344h3.23l-4.242,21.344H260.717z"/>
							<path style="fill:#2F2D59;" d="M269.32,396.353v-2.668l7.635-2.944v0.276l-7.635-2.944v-2.668l9.59,3.817v3.313
								L269.32,396.353z"/>
						</g>
					</g>
					<g>
						<g>
							<path style="fill:#2F2D59;" d="M433.904,334.434c0,0.395-0.319,0.714-0.714,0.714h-76.383c-0.395,0-0.714-0.319-0.714-0.714
								v-13.326c0-0.395,0.319-0.714,0.714-0.714h76.383c0.395,0,0.714,0.319,0.714,0.714V334.434z"/>
							<path style="fill:#C74B50;" d="M365.845,327.83c0,1.478-1.198,2.677-2.678,2.677c-1.479,0-2.677-1.198-2.677-2.677
								c0-1.48,1.198-2.678,2.677-2.678C364.646,325.152,365.845,326.351,365.845,327.83z"/>
							<path style="fill:#D49B54;" d="M429.014,329.079c0,0.788-0.64,1.428-1.429,1.428h-24.748c-0.788,0-1.428-0.64-1.428-1.428
								v-2.499c0-0.788,0.64-1.428,1.428-1.428h24.748c0.789,0,1.429,0.64,1.429,1.428V329.079z"/>
						</g>
						<g>
							<path style="fill:#5653A3;" d="M433.904,352.519c0,0.396-0.319,0.715-0.714,0.715h-76.383c-0.395,0-0.714-0.319-0.714-0.715
								v-13.325c0-0.395,0.319-0.714,0.714-0.714h76.383c0.395,0,0.714,0.319,0.714,0.714V352.519z"/>
							<path style="fill:#2F2D59;" d="M365.845,345.915c0,1.479-1.198,2.678-2.678,2.678c-1.479,0-2.677-1.199-2.677-2.678
								c0-1.479,1.198-2.677,2.677-2.677C364.646,343.238,365.845,344.436,365.845,345.915z"/>
							<path style="fill:#D49B54;" d="M429.014,347.165c0,0.788-0.64,1.428-1.429,1.428h-24.748c-0.788,0-1.428-0.64-1.428-1.428
								v-2.499c0-0.788,0.64-1.428,1.428-1.428h24.748c0.789,0,1.429,0.64,1.429,1.428V347.165z"/>
						</g>
						<g>
							<path style="fill:#2F2D59;" d="M433.904,370.604c0,0.395-0.319,0.714-0.714,0.714h-76.383c-0.395,0-0.714-0.319-0.714-0.714
								v-13.326c0-0.395,0.319-0.714,0.714-0.714h76.383c0.395,0,0.714,0.319,0.714,0.714V370.604z"/>
							<path style="fill:#C74B50;" d="M365.845,364.001c0,1.478-1.198,2.677-2.678,2.677c-1.479,0-2.677-1.198-2.677-2.677
								c0-1.479,1.198-2.678,2.677-2.678C364.646,361.323,365.845,362.522,365.845,364.001z"/>
							<path style="fill:#D49B54;" d="M429.014,365.25c0,0.789-0.64,1.428-1.429,1.428h-24.748c-0.788,0-1.428-0.639-1.428-1.428
								v-2.498c0-0.789,0.64-1.429,1.428-1.429h24.748c0.789,0,1.429,0.64,1.429,1.429V365.25z"/>
						</g>
						<g>
							<path style="fill:#5653A3;" d="M433.904,388.69c0,0.395-0.319,0.714-0.714,0.714h-76.383c-0.395,0-0.714-0.319-0.714-0.714
								v-13.326c0-0.395,0.319-0.714,0.714-0.714h76.383c0.395,0,0.714,0.319,0.714,0.714V388.69z"/>
							<path style="fill:#2F2D59;" d="M365.845,382.087c0,1.478-1.198,2.677-2.678,2.677c-1.479,0-2.677-1.198-2.677-2.677
								c0-1.48,1.198-2.678,2.677-2.678C364.646,379.409,365.845,380.607,365.845,382.087z"/>
							<path style="fill:#D49B54;" d="M429.014,383.336c0,0.788-0.64,1.428-1.429,1.428h-24.748c-0.788,0-1.428-0.64-1.428-1.428
								v-2.499c0-0.788,0.64-1.428,1.428-1.428h24.748c0.789,0,1.429,0.64,1.429,1.428V383.336z"/>
						</g>
					</g>
				</g>
				<g>
					<path style="fill:#5653A3;" d="M306.47,249.998c0-4.566,3.001-8.425,7.137-9.725c-0.729-4.82-1.99-9.462-3.729-13.871
						c-4.232,0.964-8.772-0.865-11.069-4.814c-2.298-3.94-1.649-8.783,1.269-11.985c-3.072-3.8-6.567-7.247-10.413-10.262
						c-3.16,2.963-7.991,3.683-11.968,1.444c-3.978-2.24-5.875-6.75-4.973-10.992c-4.147-1.564-8.496-2.716-12.994-3.399
						c-1.304,4.134-5.165,7.137-9.728,7.137c-4.564,0-8.425-3.003-9.722-7.137c-4.821,0.731-9.469,1.993-13.872,3.73
						c0.964,4.231-0.866,8.77-4.814,11.074c-3.94,2.29-8.786,1.645-11.988-1.274c-3.803,3.073-7.247,6.564-10.263,10.412
						c2.965,3.155,3.687,7.996,1.446,11.97c-2.241,3.98-6.754,5.874-10.996,4.975c-1.561,4.141-2.714,8.491-3.399,12.995
						c4.138,1.297,7.137,5.159,7.137,9.725c0,4.563-2.999,8.424-7.134,9.726c0.73,4.815,1.996,9.466,3.732,13.87
						c4.228-0.965,8.775,0.861,11.069,4.813c2.295,3.941,1.646,8.783-1.268,11.985c3.07,3.806,6.563,7.245,10.407,10.267
						c3.163-2.966,7.997-3.687,11.974-1.449c3.977,2.238,5.874,6.754,4.972,10.999c4.143,1.561,8.49,2.718,12.998,3.399
						c1.297-4.138,5.158-7.143,9.722-7.143c4.563,0,8.429,3.005,9.728,7.137c4.814-0.732,9.462-1.989,13.868-3.731
						c-0.964-4.228,0.862-8.767,4.814-11.073c3.941-2.288,8.783-1.646,11.985,1.274c3.803-3.072,7.247-6.563,10.266-10.412
						c-2.965-3.157-3.686-7.994-1.449-11.969c2.241-3.98,6.755-5.874,10.994-4.973c1.57-4.144,2.723-8.496,3.402-12.995
						C309.474,258.428,306.47,254.561,306.47,249.998z M250,287.405c-20.659,0-37.411-16.744-37.411-37.407
						c0-20.662,16.752-37.408,37.411-37.408c20.662,0,37.411,16.747,37.411,37.408C287.411,270.661,270.662,287.405,250,287.405z"/>
					<path style="fill:#2F2D59;" d="M250,299.253c-0.327,0-0.653-0.003-0.978-0.009c-1.105-0.021-1.983-0.934-1.962-2.037
						c0.02-1.104,0.94-1.945,2.037-1.963c1.25,0.024,2.529-0.002,3.792-0.082c1.089-0.073,2.053,0.77,2.121,1.871
						c0.069,1.103-0.768,2.052-1.871,2.121C252.096,299.22,251.039,299.253,250,299.253z M241.201,298.435
						c-0.124,0-0.248-0.011-0.374-0.035c-1.352-0.255-2.703-0.568-4.016-0.934c-1.064-0.295-1.688-1.397-1.393-2.462
						c0.295-1.063,1.398-1.689,2.462-1.392c1.206,0.334,2.447,0.622,3.689,0.857c1.085,0.204,1.799,1.25,1.594,2.336
						C242.982,297.766,242.143,298.435,241.201,298.435z M260.83,298.005c-0.907,0-1.729-0.621-1.945-1.543
						c-0.252-1.076,0.415-2.152,1.49-2.404c1.227-0.287,2.453-0.63,3.647-1.018c1.055-0.344,2.18,0.232,2.521,1.282
						c0.343,1.051-0.233,2.179-1.282,2.521c-1.301,0.424-2.638,0.797-3.972,1.11C261.135,297.988,260.981,298.005,260.83,298.005z
						 M229.93,294.792c-0.285,0-0.574-0.061-0.849-0.189c-1.241-0.583-2.471-1.225-3.658-1.91c-0.956-0.553-1.284-1.775-0.732-2.732
						c0.552-0.956,1.775-1.284,2.732-0.732c1.089,0.629,2.219,1.22,3.358,1.754c1,0.47,1.43,1.661,0.96,2.661
						C231.401,294.367,230.681,294.792,229.93,294.792z M271.926,293.87c-0.721,0-1.416-0.39-1.773-1.072
						c-0.513-0.979-0.135-2.187,0.844-2.699c1.109-0.581,2.211-1.22,3.274-1.897c0.933-0.592,2.169-0.319,2.762,0.611
						c0.594,0.932,0.32,2.168-0.611,2.762c-1.159,0.738-2.359,1.435-3.569,2.067C272.556,293.797,272.238,293.87,271.926,293.87z
						 M219.929,288.451c-0.449,0-0.9-0.15-1.273-0.458c-1.057-0.874-2.089-1.801-3.066-2.755c-0.79-0.772-0.806-2.037-0.034-2.828
						c0.772-0.79,2.04-0.804,2.828-0.034c0.899,0.878,1.847,1.729,2.82,2.533c0.852,0.704,0.971,1.965,0.268,2.816
						C221.076,288.204,220.504,288.451,219.929,288.451z M281.636,287.102c-0.547,0-1.092-0.223-1.486-0.661
						c-0.74-0.82-0.674-2.085,0.146-2.824c0.935-0.843,1.845-1.735,2.705-2.652c0.756-0.807,2.022-0.845,2.827-0.091
						c0.806,0.756,0.847,2.022,0.091,2.827c-0.936,0.999-1.928,1.97-2.945,2.887C282.592,286.932,282.112,287.102,281.636,287.102z
						 M211.812,279.834c-0.617,0-1.225-0.284-1.617-0.82c-0.808-1.107-1.579-2.261-2.29-3.429c-0.575-0.943-0.276-2.174,0.668-2.748
						c0.943-0.577,2.174-0.276,2.748,0.668c0.653,1.072,1.361,2.133,2.104,3.149c0.651,0.893,0.456,2.144-0.436,2.795
						C212.635,279.709,212.222,279.834,211.812,279.834z M289.37,278.139c-0.381,0-0.765-0.108-1.105-0.335
						c-0.92-0.611-1.17-1.854-0.558-2.772c0.695-1.047,1.356-2.137,1.965-3.241c0.533-0.967,1.749-1.321,2.717-0.787
						c0.968,0.532,1.32,1.749,0.787,2.717c-0.661,1.201-1.381,2.388-2.139,3.526C290.652,277.825,290.018,278.139,289.37,278.139z
						 M206.085,269.478c-0.795,0-1.546-0.477-1.858-1.261c-0.506-1.27-0.964-2.579-1.363-3.891
						c-0.321-1.058,0.275-2.175,1.332-2.495c1.058-0.326,2.174,0.275,2.495,1.331c0.366,1.206,0.788,2.408,1.252,3.574
						c0.409,1.026-0.092,2.189-1.118,2.599C206.582,269.433,206.331,269.478,206.085,269.478z M294.642,267.533
						c-0.218,0-0.439-0.036-0.657-0.112c-1.043-0.363-1.595-1.503-1.232-2.546c0.413-1.188,0.78-2.407,1.092-3.625
						c0.272-1.069,1.358-1.719,2.433-1.442c1.07,0.273,1.716,1.362,1.442,2.433c-0.339,1.327-0.739,2.655-1.189,3.949
						C296.243,267.016,295.469,267.533,294.642,267.533z M203.124,258.017c-0.992,0-1.853-0.737-1.981-1.748
						c-0.172-1.355-0.29-2.737-0.349-4.106c-0.047-1.104,0.809-2.037,1.912-2.084c1.117-0.058,2.037,0.809,2.084,1.912
						c0.054,1.259,0.162,2.528,0.32,3.774c0.14,1.096-0.636,2.097-1.731,2.236C203.293,258.012,203.208,258.017,203.124,258.017z
						 M297.092,255.951c-0.056,0-0.111-0.002-0.168-0.007c-1.101-0.092-1.919-1.059-1.827-2.159
						c0.104-1.245,0.156-2.519,0.156-3.785v-0.193c0-1.104,0.896-2,2-2c1.105,0,2,0.896,2,2V250c0,1.376-0.058,2.762-0.17,4.117
						C298.996,255.161,298.121,255.951,297.092,255.951z M203.104,246.178c-0.082,0-0.164-0.005-0.247-0.015
						c-1.096-0.135-1.876-1.133-1.741-2.229c0.167-1.359,0.393-2.727,0.674-4.067c0.226-1.081,1.287-1.773,2.367-1.548
						c1.081,0.225,1.774,1.286,1.548,2.367c-0.257,1.231-0.465,2.488-0.619,3.737C204.962,245.436,204.1,246.178,203.104,246.178z
						 M296.565,243.934c-0.956,0-1.801-0.687-1.969-1.661c-0.215-1.246-0.483-2.492-0.799-3.703
						c-0.278-1.069,0.363-2.161,1.432-2.439c1.072-0.279,2.161,0.363,2.439,1.432c0.343,1.318,0.636,2.674,0.869,4.03
						c0.188,1.088-0.542,2.123-1.631,2.311C296.792,243.924,296.678,243.934,296.565,243.934z M206.014,234.7
						c-0.244,0-0.491-0.045-0.732-0.139c-1.028-0.405-1.533-1.565-1.129-2.594c0.503-1.277,1.065-2.547,1.672-3.773
						c0.49-0.989,1.689-1.396,2.68-0.905c0.99,0.49,1.395,1.69,0.905,2.68c-0.557,1.125-1.074,2.29-1.535,3.463
						C207.566,234.219,206.812,234.7,206.014,234.7z M293.106,232.614c-0.763,0-1.491-0.439-1.824-1.179
						c-0.518-1.148-1.089-2.286-1.698-3.384c-0.537-0.965-0.189-2.183,0.776-2.719c0.968-0.537,2.184-0.188,2.72,0.777
						c0.664,1.194,1.286,2.434,1.849,3.683c0.454,1.007,0.006,2.191-1.002,2.645C293.66,232.557,293.381,232.614,293.106,232.614z
						 M211.703,224.314c-0.407,0-0.817-0.124-1.171-0.38c-0.895-0.648-1.095-1.898-0.447-2.793c0.802-1.107,1.661-2.196,2.555-3.235
						c0.72-0.839,1.982-0.933,2.82-0.213c0.838,0.72,0.933,1.983,0.213,2.82c-0.822,0.956-1.612,1.956-2.349,2.974
						C212.933,224.027,212.322,224.314,211.703,224.314z M286.931,222.517c-0.587,0-1.168-0.257-1.564-0.751
						c-0.787-0.984-1.624-1.946-2.486-2.858c-0.76-0.802-0.725-2.068,0.077-2.828c0.803-0.757,2.069-0.725,2.827,0.078
						c0.939,0.993,1.85,2.039,2.707,3.11c0.689,0.863,0.549,2.121-0.314,2.811C287.81,222.374,287.369,222.517,286.931,222.517z
						 M219.791,215.665c-0.573,0-1.143-0.245-1.538-0.721c-0.706-0.849-0.591-2.11,0.258-2.816c1.052-0.876,2.154-1.718,3.275-2.502
						c0.906-0.635,2.152-0.413,2.785,0.491c0.634,0.905,0.414,2.152-0.491,2.785c-1.03,0.722-2.043,1.496-3.01,2.3
						C220.696,215.513,220.242,215.665,219.791,215.665z M278.44,214.263c-0.419,0-0.843-0.131-1.203-0.404
						c-1.005-0.759-2.054-1.484-3.117-2.155c-0.935-0.59-1.214-1.825-0.624-2.759c0.591-0.934,1.826-1.212,2.759-0.624
						c1.157,0.73,2.299,1.519,3.393,2.345c0.882,0.665,1.057,1.919,0.392,2.801C279.645,213.989,279.047,214.263,278.44,214.263z
						 M229.764,209.289c-0.748,0-1.466-0.422-1.808-1.143c-0.474-0.998-0.049-2.191,0.949-2.665
						c1.235-0.586,2.512-1.128,3.794-1.609c1.033-0.389,2.187,0.136,2.575,1.17c0.388,1.034-0.136,2.187-1.17,2.575
						c-1.178,0.442-2.35,0.939-3.484,1.477C230.343,209.227,230.051,209.289,229.764,209.289z M268.17,208.368
						c-0.257,0-0.518-0.05-0.768-0.155c-1.158-0.483-2.355-0.923-3.556-1.309c-1.052-0.338-1.631-1.464-1.293-2.516
						c0.337-1.051,1.462-1.632,2.516-1.292c1.309,0.42,2.611,0.9,3.872,1.426c1.02,0.425,1.502,1.596,1.076,2.616
						C269.696,207.905,268.953,208.368,268.17,208.368z M241.006,205.602c-0.94,0-1.778-0.665-1.962-1.622
						c-0.209-1.085,0.501-2.133,1.586-2.342c1.345-0.259,2.716-0.464,4.077-0.609c1.099-0.124,2.083,0.678,2.201,1.776
						c0.117,1.098-0.678,2.083-1.776,2.201c-1.25,0.133-2.51,0.322-3.746,0.56C241.259,205.59,241.131,205.602,241.006,205.602z
						 M256.758,205.227c-0.095,0-0.19-0.007-0.286-0.02c-1.241-0.178-2.51-0.306-3.769-0.38c-1.102-0.065-1.944-1.011-1.879-2.114
						c0.065-1.104,1.022-1.95,2.114-1.879c1.371,0.081,2.75,0.22,4.101,0.413c1.094,0.157,1.853,1.17,1.696,2.264
						C258.592,204.508,257.736,205.227,256.758,205.227z"/>
				</g>
				<g>
					<g>
						<g>
							<g>
								<path style="fill:#5955A8;" d="M192.657,88.588h-2c-0.414,0-0.75-0.336-0.75-0.75c0-0.414,0.336-0.75,0.75-0.75h2
									c0.414,0,0.75,0.336,0.75,0.75C193.407,88.252,193.071,88.588,192.657,88.588z"/>
								<path style="fill:#5955A8;" d="M273.548,88.588h-4.044c-0.414,0-0.75-0.336-0.75-0.75c0-0.414,0.336-0.75,0.75-0.75h4.044
									c0.414,0,0.75,0.336,0.75,0.75C274.298,88.252,273.962,88.588,273.548,88.588z M265.459,88.588h-4.045
									c-0.414,0-0.75-0.336-0.75-0.75c0-0.414,0.336-0.75,0.75-0.75h4.045c0.414,0,0.75,0.336,0.75,0.75
									C266.209,88.252,265.873,88.588,265.459,88.588z M257.37,88.588h-4.045c-0.414,0-0.75-0.336-0.75-0.75
									c0-0.414,0.336-0.75,0.75-0.75h4.045c0.414,0,0.75,0.336,0.75,0.75C258.12,88.252,257.784,88.588,257.37,88.588z
									 M249.281,88.588h-4.044c-0.414,0-0.75-0.336-0.75-0.75c0-0.414,0.336-0.75,0.75-0.75h4.044c0.414,0,0.75,0.336,0.75,0.75
									C250.031,88.252,249.695,88.588,249.281,88.588z M241.192,88.588h-4.045c-0.414,0-0.75-0.336-0.75-0.75
									c0-0.414,0.336-0.75,0.75-0.75h4.045c0.414,0,0.75,0.336,0.75,0.75C241.942,88.252,241.606,88.588,241.192,88.588z
									 M233.102,88.588h-4.044c-0.414,0-0.75-0.336-0.75-0.75c0-0.414,0.336-0.75,0.75-0.75h4.044c0.414,0,0.75,0.336,0.75,0.75
									C233.852,88.252,233.517,88.588,233.102,88.588z M225.014,88.588h-4.045c-0.414,0-0.75-0.336-0.75-0.75
									c0-0.414,0.336-0.75,0.75-0.75h4.045c0.414,0,0.75,0.336,0.75,0.75C225.764,88.252,225.428,88.588,225.014,88.588z
									 M216.924,88.588h-4.044c-0.414,0-0.75-0.336-0.75-0.75c0-0.414,0.336-0.75,0.75-0.75h4.044c0.414,0,0.75,0.336,0.75,0.75
									C217.674,88.252,217.338,88.588,216.924,88.588z M208.835,88.588h-4.045c-0.414,0-0.75-0.336-0.75-0.75
									c0-0.414,0.336-0.75,0.75-0.75h4.045c0.414,0,0.75,0.336,0.75,0.75C209.585,88.252,209.249,88.588,208.835,88.588z
									 M200.746,88.588h-4.044c-0.414,0-0.75-0.336-0.75-0.75c0-0.414,0.336-0.75,0.75-0.75h4.044c0.414,0,0.75,0.336,0.75,0.75
									C201.496,88.252,201.16,88.588,200.746,88.588z"/>
								<path style="fill:#5955A8;" d="M279.593,88.588h-2c-0.414,0-0.75-0.336-0.75-0.75c0-0.414,0.336-0.75,0.75-0.75h2
									c0.414,0,0.75,0.336,0.75,0.75C280.343,88.252,280.007,88.588,279.593,88.588z"/>
							</g>
							<polygon style="fill:#5955A8;" points="282.484,82.865 291.1,87.838 282.484,92.812 							"/>
						</g>
						<g>
							<g>
								<path style="fill:#5955A8;" d="M309.343,127.065c-0.001,0-0.003,0-0.004,0l-2-0.012c-0.415-0.002-0.748-0.34-0.746-0.754
									c0.002-0.413,0.338-0.746,0.75-0.746c0.001,0,0.003,0,0.004,0l2,0.012c0.415,0.002,0.748,0.34,0.746,0.754
									C310.091,126.732,309.755,127.065,309.343,127.065z"/>
								<path style="fill:#5955A8;" d="M303.364,127.03c-0.001,0-0.003,0-0.004,0l-3.979-0.023c-0.415-0.002-0.748-0.34-0.746-0.754
									c0.002-0.413,0.338-0.746,0.75-0.746c0.001,0,0.003,0,0.004,0l3.979,0.023c0.415,0.002,0.748,0.34,0.746,0.754
									C304.112,126.697,303.776,127.03,303.364,127.03z M295.408,126.984c-0.001,0-0.003,0-0.004,0l-3.979-0.023
									c-0.415-0.002-0.748-0.34-0.746-0.754c0.002-0.413,0.338-0.746,0.75-0.746c0.001,0,0.003,0,0.004,0l3.978,0.023
									c0.415,0.002,0.748,0.34,0.746,0.754C296.156,126.651,295.82,126.984,295.408,126.984z M287.451,126.938
									c-0.001,0-0.003,0-0.004,0l-3.979-0.023c-0.415-0.002-0.748-0.34-0.746-0.754c0.002-0.413,0.338-0.746,0.75-0.746
									c0.001,0,0.003,0,0.004,0l3.978,0.023c0.415,0.002,0.748,0.34,0.746,0.754C288.199,126.605,287.863,126.938,287.451,126.938
									z M279.495,126.892c-0.001,0-0.003,0-0.004,0l-3.978-0.023c-0.415-0.002-0.748-0.34-0.746-0.754
									c0.002-0.413,0.338-0.746,0.75-0.746c0.001,0,0.003,0,0.004,0l3.979,0.023c0.415,0.002,0.748,0.34,0.746,0.754
									C280.243,126.559,279.907,126.892,279.495,126.892z M271.538,126.846c-0.001,0-0.003,0-0.004,0l-3.978-0.023
									c-0.415-0.003-0.748-0.34-0.746-0.754c0.002-0.413,0.338-0.746,0.75-0.746c0.001,0,0.003,0,0.003,0l3.98,0.023
									c0.415,0.002,0.748,0.34,0.746,0.754C272.286,126.513,271.95,126.846,271.538,126.846z M263.582,126.799
									c-0.001,0-0.003,0-0.004,0l-3.979-0.023c-0.415-0.002-0.748-0.34-0.746-0.754c0.002-0.413,0.338-0.746,0.75-0.746
									c0,0,0.003,0,0.004,0l3.978,0.023c0.415,0.003,0.748,0.34,0.746,0.754C264.33,126.466,263.994,126.799,263.582,126.799z
									 M255.625,126.753c-0.001,0-0.003,0-0.004,0l-3.979-0.023c-0.415-0.003-0.749-0.34-0.746-0.754
									c0.002-0.413,0.338-0.746,0.75-0.746c0.001,0,0.003,0,0.004,0l3.979,0.023c0.415,0.002,0.748,0.34,0.746,0.754
									C256.373,126.42,256.037,126.753,255.625,126.753z M247.668,126.707c-0.001,0-0.003,0-0.004,0l-3.978-0.023
									c-0.414-0.002-0.748-0.34-0.746-0.754c0.003-0.413,0.338-0.746,0.75-0.746c0.001,0,0.003,0,0.004,0l3.978,0.023
									c0.414,0.003,0.748,0.34,0.746,0.754C248.416,126.374,248.081,126.707,247.668,126.707z M239.712,126.661
									c-0.001,0-0.003,0-0.004,0l-3.978-0.023c-0.414-0.003-0.748-0.34-0.746-0.754c0.002-0.413,0.338-0.746,0.75-0.746
									c0.001,0,0.003,0,0.004,0l3.978,0.023c0.414,0.002,0.748,0.34,0.746,0.754C240.459,126.328,240.124,126.661,239.712,126.661
									z M231.755,126.615c-0.001,0-0.003,0-0.004,0l-3.978-0.023c-0.414-0.002-0.748-0.34-0.746-0.754
									c0.002-0.415,0.339-0.762,0.754-0.746l3.978,0.023c0.414,0.003,0.748,0.34,0.746,0.754
									C232.503,126.282,232.167,126.615,231.755,126.615z M223.799,126.569c-0.001,0-0.003,0-0.004,0l-3.978-0.023
									c-0.414-0.002-0.748-0.34-0.746-0.754c0.002-0.413,0.338-0.746,0.75-0.746c0.001,0,0.003,0,0.004,0l3.978,0.023
									c0.414,0.002,0.748,0.34,0.746,0.754C224.546,126.236,224.211,126.569,223.799,126.569z"/>
								<path style="fill:#5955A8;" d="M215.843,126.523c-0.002,0-0.003,0-0.004,0l-2-0.012c-0.414-0.002-0.748-0.34-0.746-0.754
									c0.002-0.413,0.338-0.746,0.75-0.746c0.001,0,0.003,0,0.004,0l2,0.012c0.414,0.002,0.748,0.34,0.746,0.754
									C216.59,126.19,216.255,126.523,215.843,126.523z"/>
							</g>
							<polygon style="fill:#5955A8;" points="212.457,120.788 203.842,125.761 212.457,130.735 							"/>
						</g>
					</g>
					<g>
						<g>
							<polygon style="fill:#5955A8;" points="104.96,283.655 109.933,292.271 114.908,283.655 							"/>
							<polygon style="fill:#5955A8;" points="169.502,229.057 178.118,224.085 169.502,219.11 							"/>
							<g>
								<path style="fill:#5955A8;" d="M109.934,288.714c-0.414,0-0.75-0.336-0.75-0.75c0-0.677,0.01-1.352,0.031-2.023
									c0.012-0.414,0.369-0.721,0.772-0.727c0.414,0.013,0.739,0.359,0.727,0.773c-0.02,0.656-0.03,1.315-0.03,1.977
									C110.684,288.378,110.348,288.714,109.934,288.714z"/>
								<path style="fill:#5955A8;" d="M110.198,282.866c-0.023,0-0.045-0.001-0.068-0.003c-0.413-0.037-0.717-0.402-0.68-0.815
									c0.117-1.294,0.274-2.596,0.468-3.869c0.062-0.41,0.446-0.689,0.854-0.629c0.409,0.061,0.691,0.444,0.629,0.853
									c-0.189,1.244-0.343,2.516-0.457,3.779C110.909,282.573,110.582,282.866,110.198,282.866z M111.352,275.253
									c-0.052,0-0.105-0.005-0.158-0.017c-0.405-0.087-0.663-0.485-0.576-0.891c0.271-1.263,0.584-2.536,0.931-3.784
									c0.111-0.399,0.524-0.631,0.924-0.521c0.399,0.111,0.632,0.525,0.521,0.924c-0.339,1.219-0.645,2.462-0.909,3.696
									C112.01,275.012,111.698,275.253,111.352,275.253z M113.419,267.829c-0.081,0-0.163-0.013-0.245-0.041
									c-0.392-0.136-0.6-0.563-0.464-0.954c0.423-1.225,0.889-2.452,1.385-3.649c0.158-0.383,0.597-0.565,0.98-0.405
									c0.383,0.158,0.564,0.597,0.406,0.979c-0.485,1.169-0.94,2.368-1.353,3.564C114.02,267.635,113.73,267.829,113.419,267.829z
									 M116.373,260.708c-0.11,0-0.223-0.024-0.329-0.076c-0.372-0.182-0.526-0.631-0.345-1.003
									c0.568-1.163,1.179-2.325,1.816-3.453c0.204-0.36,0.662-0.488,1.022-0.284c0.36,0.204,0.488,0.662,0.284,1.022
									c-0.622,1.102-1.219,2.236-1.774,3.373C116.917,260.554,116.65,260.708,116.373,260.708z M120.165,253.997
									c-0.14,0-0.281-0.039-0.407-0.121c-0.348-0.225-0.447-0.69-0.222-1.037c0.703-1.085,1.449-2.164,2.218-3.208
									c0.246-0.334,0.717-0.404,1.049-0.159c0.334,0.246,0.405,0.715,0.159,1.049c-0.752,1.02-1.481,2.075-2.167,3.133
									C120.652,253.876,120.411,253.997,120.165,253.997z M124.736,247.794c-0.169,0-0.34-0.057-0.48-0.174
									c-0.318-0.265-0.361-0.738-0.095-1.056c0.829-0.994,1.699-1.975,2.586-2.916c0.285-0.301,0.76-0.316,1.06-0.032
									c0.302,0.284,0.316,0.759,0.032,1.06c-0.867,0.92-1.717,1.879-2.526,2.849C125.165,247.703,124.951,247.794,124.736,247.794
									z M130.018,242.188c-0.199,0-0.399-0.079-0.546-0.236c-0.284-0.302-0.27-0.776,0.032-1.06
									c0.939-0.884,1.92-1.754,2.916-2.585c0.318-0.266,0.791-0.223,1.056,0.095c0.266,0.318,0.223,0.791-0.095,1.056
									c-0.973,0.812-1.931,1.662-2.849,2.525C130.387,242.12,130.202,242.188,130.018,242.188z M135.93,237.255
									c-0.23,0-0.457-0.105-0.604-0.305c-0.246-0.333-0.175-0.803,0.159-1.048c1.041-0.768,2.119-1.513,3.204-2.216
									c0.346-0.225,0.811-0.126,1.037,0.222c0.225,0.348,0.126,0.812-0.222,1.037c-1.06,0.687-2.112,1.415-3.13,2.164
									C136.241,237.208,136.085,237.255,135.93,237.255z M142.389,233.07c-0.261,0-0.516-0.137-0.653-0.381
									c-0.204-0.36-0.077-0.818,0.284-1.022c1.124-0.635,2.283-1.246,3.446-1.813c0.373-0.182,0.822-0.027,1.003,0.345
									c0.182,0.373,0.027,0.821-0.345,1.003c-1.136,0.555-2.268,1.15-3.366,1.771C142.641,233.039,142.515,233.07,142.389,233.07z
									 M149.302,229.696c-0.294,0-0.573-0.174-0.693-0.462c-0.159-0.383,0.023-0.821,0.405-0.98
									c1.196-0.496,2.42-0.961,3.638-1.383c0.392-0.135,0.819,0.072,0.954,0.464c0.135,0.392-0.072,0.818-0.464,0.954
									c-1.19,0.411-2.385,0.866-3.553,1.351C149.495,229.678,149.398,229.696,149.302,229.696z M156.574,227.182
									c-0.328,0-0.629-0.217-0.722-0.548c-0.111-0.399,0.122-0.813,0.521-0.924c1.242-0.347,2.515-0.661,3.784-0.934
									c0.405-0.085,0.804,0.171,0.891,0.576c0.087,0.405-0.171,0.804-0.576,0.891c-1.24,0.266-2.483,0.573-3.696,0.911
									C156.708,227.173,156.641,227.182,156.574,227.182z M164.102,225.565c-0.364,0-0.684-0.266-0.741-0.637
									c-0.062-0.41,0.22-0.792,0.629-0.855c1.279-0.194,2.581-0.352,3.869-0.47c0.402-0.04,0.777,0.266,0.815,0.679
									c0.038,0.412-0.267,0.777-0.679,0.815c-1.258,0.114-2.529,0.269-3.779,0.459
									C164.177,225.563,164.139,225.565,164.102,225.565z"/>
								<path style="fill:#5955A8;" d="M171.81,224.865c-0.403,0-0.737-0.321-0.749-0.727c-0.013-0.414,0.313-0.76,0.727-0.772
									c0.671-0.021,1.346-0.031,2.023-0.031c0.414,0,0.75,0.336,0.75,0.75c0,0.414-0.336,0.75-0.75,0.75
									c-0.662,0-1.32,0.01-1.977,0.03C171.825,224.865,171.817,224.865,171.81,224.865z"/>
							</g>
						</g>
						<g>
							<polygon style="fill:#5955A8;" points="332.22,288.005 323.604,283.032 332.22,278.058 							"/>
							<polygon style="fill:#5955A8;" points="386.814,223.459 391.787,214.844 396.762,223.459 							"/>
							<g>
								<path style="fill:#5955A8;" d="M327.912,283.781c-0.414,0-0.75-0.336-0.75-0.75c0-0.414,0.336-0.75,0.75-0.75
									c0.661,0,1.32-0.01,1.977-0.03c0.403-0.023,0.761,0.313,0.773,0.727c0.013,0.414-0.313,0.761-0.727,0.773
									C329.264,283.772,328.589,283.781,327.912,283.781z"/>
								<path style="fill:#5955A8;" d="M333.759,283.518c-0.384,0-0.711-0.293-0.746-0.683c-0.037-0.412,0.267-0.777,0.68-0.814
									c1.262-0.114,2.533-0.268,3.779-0.456c0.413-0.065,0.792,0.22,0.854,0.629c0.063,0.409-0.22,0.792-0.629,0.854
									c-1.275,0.193-2.578,0.351-3.869,0.468C333.805,283.517,333.781,283.518,333.759,283.518z M341.372,282.363
									c-0.346,0-0.657-0.241-0.732-0.593c-0.087-0.405,0.172-0.804,0.576-0.891c1.242-0.266,2.485-0.571,3.696-0.909
									c0.402-0.11,0.813,0.122,0.924,0.521c0.111,0.398-0.122,0.813-0.521,0.924c-1.24,0.346-2.514,0.659-3.784,0.931
									C341.477,282.358,341.424,282.363,341.372,282.363z M348.797,280.296c-0.311,0-0.602-0.194-0.709-0.505
									c-0.135-0.392,0.072-0.818,0.464-0.954c1.189-0.411,2.389-0.866,3.564-1.354c0.382-0.153,0.821,0.023,0.98,0.406
									c0.158,0.383-0.023,0.821-0.406,0.98c-1.203,0.498-2.431,0.964-3.648,1.385
									C348.961,280.283,348.878,280.296,348.797,280.296z M355.919,277.342c-0.278,0-0.545-0.154-0.675-0.421
									c-0.182-0.373-0.027-0.821,0.345-1.003c1.137-0.555,2.272-1.151,3.372-1.773c0.36-0.205,0.819-0.077,1.022,0.283
									c0.204,0.36,0.077,0.818-0.283,1.021c-1.127,0.638-2.289,1.249-3.452,1.816
									C356.141,277.317,356.029,277.342,355.919,277.342z M362.628,273.549c-0.246,0-0.486-0.12-0.631-0.342
									c-0.225-0.348-0.126-0.813,0.222-1.038c1.055-0.683,2.108-1.412,3.134-2.166c0.333-0.246,0.804-0.175,1.048,0.159
									c0.246,0.333,0.175,0.803-0.159,1.048c-1.048,0.772-2.127,1.518-3.206,2.219
									C362.909,273.51,362.768,273.549,362.628,273.549z M368.828,268.978c-0.214,0-0.428-0.092-0.576-0.27
									c-0.265-0.318-0.223-0.791,0.096-1.057c0.967-0.807,1.926-1.657,2.85-2.526c0.301-0.284,0.775-0.271,1.06,0.032
									c0.284,0.301,0.27,0.775-0.032,1.06c-0.944,0.89-1.926,1.76-2.916,2.587C369.168,268.92,368.998,268.978,368.828,268.978z
									 M374.435,263.697c-0.185,0-0.369-0.067-0.514-0.204c-0.302-0.284-0.316-0.759-0.032-1.06
									c0.871-0.926,1.721-1.885,2.524-2.849c0.266-0.319,0.737-0.362,1.057-0.096c0.318,0.266,0.36,0.738,0.096,1.057
									c-0.823,0.987-1.692,1.968-2.585,2.915C374.833,263.618,374.634,263.697,374.435,263.697z M379.365,257.784
									c-0.154,0-0.309-0.047-0.444-0.147c-0.333-0.245-0.404-0.715-0.158-1.049c0.748-1.016,1.477-2.069,2.165-3.132
									c0.225-0.346,0.69-0.445,1.037-0.221c0.348,0.226,0.446,0.689,0.221,1.038c-0.704,1.087-1.449,2.165-2.216,3.205
									C379.823,257.679,379.596,257.784,379.365,257.784z M383.551,251.322c-0.125,0-0.251-0.031-0.368-0.097
									c-0.36-0.204-0.487-0.662-0.284-1.023c0.62-1.098,1.217-2.23,1.772-3.366c0.182-0.372,0.631-0.528,1.003-0.345
									c0.372,0.182,0.526,0.631,0.345,1.003c-0.568,1.163-1.178,2.322-1.813,3.446
									C384.066,251.186,383.812,251.322,383.551,251.322z M386.926,244.409c-0.096,0-0.193-0.018-0.287-0.057
									c-0.383-0.159-0.564-0.598-0.405-0.98c0.485-1.17,0.94-2.365,1.35-3.553c0.136-0.391,0.563-0.597,0.954-0.464
									c0.392,0.135,0.599,0.563,0.464,0.954c-0.42,1.216-0.885,2.44-1.383,3.639C387.499,244.235,387.22,244.409,386.926,244.409z
									 M389.44,237.137c-0.066,0-0.134-0.009-0.201-0.028c-0.4-0.111-0.633-0.525-0.522-0.924
									c0.339-1.215,0.646-2.459,0.911-3.695c0.087-0.406,0.492-0.661,0.891-0.576c0.405,0.087,0.663,0.486,0.576,0.891
									c-0.271,1.267-0.586,2.54-0.933,3.784C390.07,236.92,389.769,237.137,389.44,237.137z M391.058,229.608
									c-0.038,0-0.075-0.003-0.114-0.009c-0.409-0.062-0.691-0.445-0.628-0.854c0.19-1.247,0.345-2.519,0.459-3.779
									c0.037-0.413,0.387-0.718,0.815-0.679c0.412,0.038,0.716,0.403,0.679,0.815c-0.118,1.291-0.276,2.592-0.471,3.869
									C391.741,229.342,391.422,229.608,391.058,229.608z"/>
								<path style="fill:#5955A8;" d="M391.758,221.901c-0.007,0-0.015,0-0.022-0.001c-0.414-0.012-0.739-0.357-0.728-0.771
									c0.02-0.657,0.03-1.316,0.03-1.978c0-0.414,0.336-0.75,0.75-0.75c0.414,0,0.75,0.336,0.75,0.75
									c0,0.676-0.011,1.351-0.03,2.022C392.495,221.58,392.162,221.901,391.758,221.901z"/>
							</g>
						</g>
					</g>
				</g>
			</g>
		</g>
	</g>
</g>
<g id="TEXTS">
	<g>
		
			<text transform="matrix(1 0 0 1 227.2383 259.9198)" style="fill:#2F2D59; font-family:'EncodeSansCondensed-Bold'; font-size:31px;">API</text>
		<g>
			
				<text transform="matrix(1 0 0 1 232.3015 79.6743)" style="fill:#2F2D59; font-family:'EncodeSansCondensed-Medium'; font-size:10px;">Request</text>
			
				<text transform="matrix(1 0 0 1 229.5794 117.5972)" style="fill:#2F2D59; font-family:'EncodeSansCondensed-Medium'; font-size:10px;">Response</text>
		</g>
		<g>
			
				<text transform="matrix(1 0 0 1 67.2688 172.3421)" style="fill:#2F2D59; font-family:'EncodeSansCondensed-SemiBold'; font-size:14px;">Using Application</text>
			<rect x="64.562" y="182.28" style="fill:none;" width="101.541" height="22.667"/>
			<text transform="matrix(1 0 0 1 72.9355 189.2401)"><tspan x="0" y="0" style="fill:#5955A8; font-family:'EncodeSansCondensed-Regular'; font-size:8px;">Lorem ipsum dolor sit amet, </tspan><tspan x="2.628" y="9.6" style="fill:#5955A8; font-family:'EncodeSansCondensed-Regular'; font-size:8px;">consectetur adipiscing elit.</tspan></text>
		</g>
		<g>
			
				<text transform="matrix(1 0 0 1 317.0535 172.3421)" style="fill:#2F2D59; font-family:'EncodeSansCondensed-SemiBold'; font-size:14px;">Cloud-Based Services</text>
			<rect x="324.682" y="182.28" style="fill:none;" width="101.542" height="22.667"/>
			<text transform="matrix(1 0 0 1 339.4077 189.2401)"><tspan x="0" y="0" style="fill:#5955A8; font-family:'EncodeSansCondensed-Regular'; font-size:8px;">Cras pretium iaculis nisi, </tspan><tspan x="-14.12" y="9.6" style="fill:#5955A8; font-family:'EncodeSansCondensed-Regular'; font-size:8px;">consectetur volutpat metusda ut.</tspan></text>
		</g>
		<g>
			
				<text transform="matrix(1 0 0 1 98.4568 428.949)" style="fill:#2F2D59; font-family:'EncodeSansCondensed-SemiBold'; font-size:14px;">Server</text>
			<rect x="64.562" y="438.889" style="fill:none;" width="101.541" height="22.667"/>
			<text transform="matrix(1 0 0 1 68.0117 445.847)"><tspan x="0" y="0" style="fill:#5955A8; font-family:'EncodeSansCondensed-Regular'; font-size:8px;">Vestibulum vulputate augue sit </tspan><tspan x="7.054" y="9.6" style="fill:#5955A8; font-family:'EncodeSansCondensed-Regular'; font-size:8px;">amet risus rutrum tempus.</tspan></text>
		</g>
		<g>
			
				<text transform="matrix(1 0 0 1 369.4471 428.95)" style="fill:#2F2D59; font-family:'EncodeSansCondensed-SemiBold'; font-size:14px;">Database</text>
			<rect x="343.773" y="438.89" style="fill:none;" width="101.542" height="22.667"/>
			<text transform="matrix(1 0 0 1 354.7554 445.848)"><tspan x="0" y="0" style="fill:#5955A8; font-family:'EncodeSansCondensed-Regular'; font-size:8px;">Maecenas vel sem a lorem </tspan><tspan x="2.168" y="9.6" style="fill:#5955A8; font-family:'EncodeSansCondensed-Regular'; font-size:8px;">eleifend rhoncus id lacus.</tspan></text>
		</g>
	</g>
</g>
</svg>
