<?xml version="1.0" encoding="utf-8"?>
<!-- Generator: Adobe Illustrator 27.5.0, SVG Export Plug-In . SVG Version: 6.00 Build 0)  -->
<svg version="1.1" xmlns="http://www.w3.org/2000/svg" xmlns:xlink="http://www.w3.org/1999/xlink" x="0px" y="0px"
	 viewBox="0 0 500 500" style="enable-background:new 0 0 500 500;" xml:space="preserve">
<g id="BACKGROUND">
	<rect style="fill:#FFC440;" width="500" height="500"/>
</g>
<g id="OBJECTS">
	<g>
		<g>
			<g>
				
					<line style="fill:none;stroke:#6262A5;stroke-linecap:round;stroke-linejoin:round;" x1="141.271" y1="427.024" x2="140.403" y2="427.519"/>
				
					<line style="fill:none;stroke:#6262A5;stroke-linecap:round;stroke-linejoin:round;stroke-dasharray:1.8244,1.8244;" x1="138.817" y1="428.422" x2="130.099" y2="433.389"/>
				<polyline style="fill:none;stroke:#6262A5;stroke-linecap:round;stroke-linejoin:round;" points="129.306,433.841 
					128.438,434.336 127.569,433.841 				"/>
				
					<line style="fill:none;stroke:#6262A5;stroke-linecap:round;stroke-linejoin:round;stroke-dasharray:1.9687,1.9687;" x1="125.858" y1="432.866" x2="61.714" y2="396.316"/>
				<polyline style="fill:none;stroke:#6262A5;stroke-linecap:round;stroke-linejoin:round;" points="60.859,395.829 59.99,395.334 
					60.862,394.844 				"/>
				
					<line style="fill:none;stroke:#6262A5;stroke-linecap:round;stroke-linejoin:round;stroke-dasharray:2.0052,2.0052;" x1="62.611" y1="393.862" x2="131.668" y2="355.074"/>
				<polyline style="fill:none;stroke:#6262A5;stroke-linecap:round;stroke-linejoin:round;" points="132.542,354.583 
					133.414,354.093 132.545,353.598 				"/>
				
					<line style="fill:none;stroke:#6262A5;stroke-linecap:round;stroke-linejoin:round;stroke-dasharray:2.0003,2.0003;" x1="130.807" y1="352.608" x2="23.925" y2="291.707"/>
				<polyline style="fill:none;stroke:#6262A5;stroke-linecap:round;stroke-linejoin:round;" points="23.056,291.211 
					22.187,290.716 23.054,290.217 				"/>
				
					<line style="fill:none;stroke:#6262A5;stroke-linecap:round;stroke-linejoin:round;stroke-dasharray:1.9768,1.9768;" x1="24.767" y1="289.232" x2="126.714" y2="230.568"/>
				<polyline style="fill:none;stroke:#6262A5;stroke-linecap:round;stroke-linejoin:round;" points="127.571,230.075 
					128.438,229.577 127.569,229.082 				"/>
				
					<line style="fill:none;stroke:#6262A5;stroke-linecap:round;stroke-linejoin:round;stroke-dasharray:1.9661,1.9661;" x1="125.86" y1="228.108" x2="113.049" y2="220.808"/>
				
					<line style="fill:none;stroke:#6262A5;stroke-linecap:round;stroke-linejoin:round;" x1="112.195" y1="220.322" x2="111.326" y2="219.827"/>
			</g>
		</g>
		<g>
			<g>
				
					<line style="fill:none;stroke:#6262A5;stroke-linecap:round;stroke-linejoin:round;" x1="231.109" y1="392.419" x2="231.975" y2="392.918"/>
				
					<line style="fill:none;stroke:#6262A5;stroke-linecap:round;stroke-linejoin:round;stroke-dasharray:1.9722,1.9722;" x1="233.684" y1="393.903" x2="246.5" y2="401.289"/>
				<polyline style="fill:none;stroke:#6262A5;stroke-linecap:round;stroke-linejoin:round;" points="247.354,401.781 
					248.22,402.281 249.087,401.781 				"/>
				
					<line style="fill:none;stroke:#6262A5;stroke-linecap:round;stroke-linejoin:round;stroke-dasharray:2.006,2.006;" x1="250.825" y1="400.78" x2="357.712" y2="339.177"/>
				<polyline style="fill:none;stroke:#6262A5;stroke-linecap:round;stroke-linejoin:round;" points="358.581,338.676 
					359.447,338.176 358.581,337.677 				"/>
				
					<line style="fill:none;stroke:#6262A5;stroke-linecap:round;stroke-linejoin:round;stroke-dasharray:1.8304,1.8304;" x1="356.995" y1="336.763" x2="348.273" y2="331.736"/>
				
					<line style="fill:none;stroke:#6262A5;stroke-linecap:round;stroke-linejoin:round;" x1="347.48" y1="331.279" x2="346.613" y2="330.779"/>
			</g>
		</g>
		<g>
			<g>
				
					<line style="fill:none;stroke:#6262A5;stroke-linecap:round;stroke-linejoin:round;" x1="261.054" y1="335.711" x2="261.921" y2="336.21"/>
				
					<line style="fill:none;stroke:#6262A5;stroke-linecap:round;stroke-linejoin:round;stroke-dasharray:1.9744,1.9744;" x1="263.631" y1="337.196" x2="327.78" y2="374.168"/>
				<polyline style="fill:none;stroke:#6262A5;stroke-linecap:round;stroke-linejoin:round;" points="328.635,374.661 
					329.502,375.161 330.371,374.666 				"/>
				
					<line style="fill:none;stroke:#6262A5;stroke-linecap:round;stroke-linejoin:round;stroke-dasharray:1.9819,1.9819;" x1="332.094" y1="373.687" x2="451.832" y2="305.608"/>
				<polyline style="fill:none;stroke:#6262A5;stroke-linecap:round;stroke-linejoin:round;" points="452.693,305.118 
					453.562,304.624 452.704,304.11 				"/>
				
					<line style="fill:none;stroke:#6262A5;stroke-linecap:round;stroke-linejoin:round;stroke-dasharray:2.0781,2.0781;" x1="450.922" y1="303.042" x2="430.419" y2="290.763"/>
				
					<line style="fill:none;stroke:#6262A5;stroke-linecap:round;stroke-linejoin:round;" x1="429.528" y1="290.229" x2="428.67" y2="289.715"/>
			</g>
		</g>
		<path style="fill:#44B498;" d="M472.349,248.284c0.184-1.102-0.063-2.24-0.494-3.271c-1.549-3.707-5.779-3.981-9.206-5.361
			c-0.779-0.314-3.378-1.333-2.315-3.758c0.349-0.796,3.677-1.909,4.503-2.323c3.39-1.698,6.699-3.557,9.914-5.567
			c2.563-1.603,5.311-3.69,5.625-6.697c0.099-0.952-0.087-1.967-0.685-2.715c-0.675-0.844-1.759-1.233-2.801-1.519
			c-2.138-0.586-4.208-0.871-6.411-0.889c-1.013-0.008-2.133-0.231-2.735-1.046c-0.796-1.078-0.306-2.609,0.344-3.781
			c1.138-2.052,2.675-3.854,3.917-5.845c1.242-1.991,2.204-4.285,1.989-6.621c-0.169-1.836-1.248-3.655-2.83-4.499
			c-1.54-0.919-3.655-0.903-5.314-0.099c-2.111,1.023-3.578,3.032-4.641,5.124c-1.063,2.092-1.812,4.339-2.981,6.373
			c-0.667,1.162-1.725,2.373-3.059,2.249c-1.008-0.094-1.778-0.938-2.309-1.801c-1.154-1.876-2.467-3.502-4.074-5.029
			c-0.783-0.745-1.676-1.472-2.747-1.614c-0.949-0.126-1.914,0.239-2.678,0.816c-2.413,1.822-2.779,5.253-2.828,8.276
			c-0.061,3.791,0.058,7.585,0.355,11.365c0.073,0.921,0.839,4.345,0.338,5.056c-1.527,2.163-3.742,0.464-4.413-0.04
			c-2.952-2.221-5.372-5.701-9.346-5.112c-1.106,0.164-2.208,0.54-3.056,1.267c-1.3,1.113-1.833,2.885-2.02,4.586
			c-0.641,5.84,1.968,11.613,4.613,16.662c2.181,4.163,4.781,8.113,7.627,11.863l1.563,2.007l2.526,0.301
			c4.681,0.499,9.406,0.684,14.098,0.401c5.689-0.344,11.98-1.094,16.649-4.659C470.826,251.344,472.067,249.972,472.349,248.284z"
			/>
		<path style="fill:#44B498;" d="M104.565,281.848c-0.977-0.542-2.132-0.69-3.248-0.629c-4.011,0.22-5.685,4.115-8.132,6.882
			c-0.556,0.629-2.386,2.737-4.316,0.924c-0.634-0.595-0.569-4.103-0.682-5.021c-0.466-3.763-1.11-7.504-1.93-11.206
			c-0.653-2.952-1.7-6.239-4.429-7.541c-0.864-0.412-1.882-0.576-2.787-0.263c-1.021,0.354-1.75,1.245-2.368,2.131
			c-1.268,1.819-2.229,3.674-2.983,5.744c-0.347,0.952-0.932,1.933-1.901,2.227c-1.282,0.39-2.561-0.585-3.448-1.59
			c-1.553-1.759-2.737-3.81-4.197-5.646c-1.461-1.836-3.301-3.51-5.574-4.09c-1.786-0.455-3.862-0.047-5.186,1.162
			c-1.381,1.144-2.074,3.142-1.871,4.975c0.258,2.332,1.66,4.387,3.276,6.088c1.615,1.702,3.482,3.159,5.008,4.941
			c0.872,1.018,1.659,2.42,1.095,3.635c-0.426,0.919-1.479,1.362-2.47,1.573c-2.154,0.46-4.125,1.154-6.102,2.156
			c-0.964,0.489-1.948,1.087-2.44,2.049c-0.436,0.852-0.415,1.884-0.127,2.797c0.91,2.883,4.02,4.376,6.853,5.433
			c3.552,1.326,7.167,2.483,10.829,3.467c0.893,0.24,4.376,0.663,4.877,1.373c1.527,2.162-0.815,3.682-1.515,4.145
			c-3.08,2.039-7.17,3.155-7.944,7.097c-0.216,1.097-0.229,2.261,0.172,3.304c0.614,1.597,2.105,2.693,3.646,3.438
			c5.289,2.557,11.602,2.031,17.245,1.228c4.652-0.663,9.245-1.791,13.731-3.218l2.414-0.801l1.129-2.28
			c2.036-4.244,3.792-8.635,5.094-13.151c1.579-5.477,2.978-11.655,1.179-17.248C106.939,284.307,106.061,282.678,104.565,281.848z"
			/>
		<g>
			<g>
				
					<line style="fill:none;stroke:#6262A5;stroke-linecap:round;stroke-linejoin:round;" x1="136.993" y1="409.959" x2="136.143" y2="409.433"/>
				
					<line style="fill:none;stroke:#6262A5;stroke-linecap:round;stroke-linejoin:round;stroke-dasharray:1.9954,1.9954;" x1="134.447" y1="408.382" x2="40.299" y2="350.071"/>
				<polyline style="fill:none;stroke:#6262A5;stroke-linecap:round;stroke-linejoin:round;" points="39.451,349.546 38.6,349.02 
					39.469,348.525 				"/>
				
					<line style="fill:none;stroke:#6262A5;stroke-linecap:round;stroke-linejoin:round;stroke-dasharray:2.0695,2.0695;" x1="41.268" y1="347.5" x2="87.12" y2="321.375"/>
				
					<line style="fill:none;stroke:#6262A5;stroke-linecap:round;stroke-linejoin:round;" x1="88.019" y1="320.862" x2="88.888" y2="320.367"/>
			</g>
		</g>
		<g>
			<path style="fill-rule:evenodd;clip-rule:evenodd;fill:#7675E3;" d="M414.788,108.034v54.195c0,2.297-2.486,3.734-4.477,2.587
				l-58.546-33.743c-0.925-0.533-1.495-1.519-1.495-2.587l0-54.197c0-2.297,2.486-3.734,4.477-2.587l58.546,33.744
				C414.218,105.98,414.788,106.966,414.788,108.034z"/>
			<path style="fill-rule:evenodd;clip-rule:evenodd;fill:#CFCFFF;" d="M412.484,109.36v54.195c0,2.297-2.486,3.734-4.477,2.587
				L349.462,132.4c-0.925-0.533-1.495-1.519-1.495-2.587l0-54.197c0-2.297,2.486-3.734,4.477-2.587l58.545,33.744
				C411.914,107.307,412.484,108.293,412.484,109.36z"/>
			<path style="fill-rule:evenodd;clip-rule:evenodd;fill:#FFFFFF;" d="M405.13,112.092v18.614c0,0.789-0.854,1.282-1.538,0.888
				l-20.108-11.589c-0.318-0.183-0.513-0.522-0.513-0.888v-18.615c0-0.789,0.854-1.282,1.538-0.888l20.108,11.59
				C404.934,111.386,405.13,111.725,405.13,112.092z"/>
			<path style="fill-rule:evenodd;clip-rule:evenodd;fill:#FFFFFF;" d="M405.13,137.779L405.13,137.779
				c0,0.885-0.958,1.439-1.725,0.997l-41.478-23.906c-0.356-0.205-0.576-0.586-0.576-0.997l0,0c0-0.885,0.958-1.439,1.725-0.997
				l41.478,23.906C404.91,136.988,405.13,137.368,405.13,137.779z"/>
			<path style="fill-rule:evenodd;clip-rule:evenodd;fill:#FFFFFF;" d="M405.13,143.317L405.13,143.317
				c0,0.885-0.958,1.439-1.725,0.997l-41.478-23.906c-0.356-0.205-0.576-0.586-0.576-0.997l0,0c0-0.885,0.958-1.439,1.725-0.997
				l41.478,23.906C404.91,142.526,405.13,142.906,405.13,143.317z"/>
			<path style="fill-rule:evenodd;clip-rule:evenodd;fill:#FFFFFF;" d="M405.13,148.856L405.13,148.856
				c0,0.885-0.958,1.439-1.725,0.997l-41.478-23.906c-0.356-0.205-0.576-0.586-0.576-0.997l0,0c0-0.885,0.958-1.439,1.725-0.997
				l41.478,23.906C404.91,148.064,405.13,148.444,405.13,148.856z"/>
			<path style="fill-rule:evenodd;clip-rule:evenodd;fill:#FFFFFF;" d="M405.13,154.394L405.13,154.394
				c0,0.885-0.958,1.439-1.725,0.997l-41.478-23.906c-0.356-0.205-0.576-0.585-0.576-0.997l0,0c0-0.885,0.958-1.439,1.725-0.997
				l41.478,23.906C404.91,153.602,405.13,153.982,405.13,154.394z"/>
			<path style="opacity:0.32;fill-rule:evenodd;clip-rule:evenodd;fill:#FFFFFF;" d="M412.484,109.36v54.195
				c0,2.297-64.517-87.939-64.517-87.939c0-2.297,2.486-3.734,4.477-2.587l58.546,33.744
				C411.914,107.307,412.484,108.293,412.484,109.36z"/>
		</g>
		<g>
			<path style="fill:#7675E3;" d="M199.697,76.986c-0.62-2.558-1.724-4.617-3.215-6.119l6.463-3.046l-3.711-1.903l-5.299-2.054
				l-2.37,4.317c-1.932-0.401-4.111-0.253-6.443,0.438l3.711-4.897l-3.711-1.903l-7.09,4.087v6.332
				c-2.987,2.153-5.769,4.959-8.197,8.158l-1.232-1.983l-3.711-1.903l-3.521,5.778l4.793,3.723
				c-2.348,4.198-4.061,8.717-4.896,13.124l-5.587,3.22l0,7.91l5.131-2.957c0.422,4.132,1.931,7.267,4.203,9.239l-2.434,4.435
				l3.711,1.903l1.377-0.21l2.165-3.894c2.427,0.401,5.21,0,8.197-1.291v5.627l3.711,1.903l3.379-5.989v-6.095
				c2.37-2.03,4.581-4.445,6.537-7.125l4.025,3.126l3.711,1.903l-1.13-8.097l-3.132-2.462c2.723-5.035,4.55-10.5,5.021-15.648
				l3.559-2.052l3.711-6.007l-3.711-1.903L199.697,76.986z M180.686,105.857c-5.575,3.213-10.137,0.585-10.137-5.842
				s4.561-14.313,10.137-17.527c5.575-3.214,10.137-0.585,10.137,5.842C190.823,94.757,186.261,102.644,180.686,105.857z"/>
			<g>
				<path style="fill:#9494F7;" d="M203.408,78.889c-0.62-2.558-1.724-4.617-3.215-6.119l2.752-4.948l-5.299-2.054l-2.37,4.317
					c-1.932-0.401-4.111-0.253-6.443,0.438v-6.8l-7.09,4.087v6.332c-2.987,2.153-5.769,4.959-8.197,8.158l-4.943-3.885l-3.521,5.778
					l4.793,3.723c-2.348,4.198-4.061,8.717-4.896,13.124l-5.587,3.221l0,7.91l5.131-2.957c0.422,4.132,1.931,7.267,4.203,9.239
					l-2.434,4.435l5.088,1.693l2.165-3.894c2.427,0.401,5.21,0,8.197-1.291v5.627l7.09-4.087v-6.094
					c2.37-2.03,4.581-4.445,6.537-7.125l4.025,3.126l2.581-6.195l-3.132-2.462c2.723-5.035,4.55-10.5,5.021-15.648l3.559-2.052
					l0-7.91L203.408,78.889z M184.397,107.76c-5.575,3.213-10.137,0.585-10.137-5.842c0-6.426,4.561-14.313,10.137-17.527
					c5.575-3.214,10.137-0.585,10.137,5.842C194.534,96.659,189.972,104.547,184.397,107.76z"/>
			</g>
			<polygon style="fill:#7675E3;" points="155.682,102.356 159.393,104.259 159.394,112.169 155.683,110.266 			"/>
		</g>
		<g>
			<path style="fill:#7675E3;" d="M146.266,90.095c-0.499-2.06-1.388-3.717-2.588-4.926l5.203-2.452l-2.988-1.532l-4.266-1.654
				l-1.908,3.475c-1.555-0.323-3.31-0.204-5.186,0.352l2.988-3.942l-2.988-1.532l-5.708,3.29v5.097
				c-2.405,1.733-4.645,3.992-6.599,6.567l-0.992-1.596l-2.988-1.532l-2.834,4.652l3.859,2.997c-1.89,3.379-3.27,7.018-3.941,10.566
				l-4.498,2.593l0,6.368l4.13-2.381c0.34,3.326,1.555,5.85,3.383,7.438l-1.96,3.57l2.987,1.532l1.109-0.169l1.743-3.134
				c1.954,0.323,4.194,0,6.599-1.039v4.53l2.988,1.532l2.72-4.822v-4.906c1.908-1.634,3.688-3.578,5.263-5.736l3.24,2.517
				l2.988,1.532l-0.91-6.519l-2.522-1.982c2.193-4.054,3.663-8.453,4.042-12.598l2.866-1.652l2.988-4.836l-2.988-1.532
				L146.266,90.095z M130.961,113.337c-4.488,2.587-8.161,0.471-8.161-4.703c0-5.174,3.672-11.523,8.16-14.11
				c4.488-2.587,8.16-0.471,8.16,4.703C139.122,104.401,135.449,110.75,130.961,113.337z"/>
			<g>
				<path style="fill:#9494F7;" d="M149.253,91.626c-0.499-2.06-1.388-3.717-2.588-4.926l2.215-3.984l-4.266-1.654l-1.908,3.475
					c-1.555-0.322-3.31-0.204-5.186,0.353v-5.474l-5.708,3.29v5.097c-2.405,1.733-4.645,3.992-6.599,6.567l-3.979-3.128
					l-2.834,4.652l3.859,2.997c-1.89,3.379-3.27,7.018-3.941,10.566l-4.498,2.593l0,6.368l4.13-2.381
					c0.34,3.326,1.555,5.85,3.383,7.438l-1.96,3.57l4.096,1.363l1.743-3.134c1.954,0.323,4.194,0,6.599-1.039v4.53l5.708-3.29
					v-4.906c1.908-1.634,3.688-3.578,5.263-5.736l3.24,2.517l2.078-4.987l-2.522-1.982c2.193-4.054,3.663-8.453,4.042-12.598
					l2.866-1.652v-6.368L149.253,91.626z M133.949,114.869c-4.488,2.587-8.16,0.471-8.16-4.703c0-5.174,3.672-11.523,8.16-14.11
					c4.488-2.587,8.16-0.471,8.16,4.703C142.109,105.932,138.437,112.282,133.949,114.869z"/>
			</g>
			<polygon style="fill:#7675E3;" points="110.832,110.519 113.819,112.05 113.82,118.418 110.832,116.887 			"/>
		</g>
		<g>
			<path style="fill:#7675E3;" d="M152.853,240.934c-1.076-4.442-2.993-8.016-5.582-10.624l11.221-5.288l-6.443-3.303l-9.201-3.567
				l-4.114,7.495c-3.354-0.695-7.139-0.44-11.186,0.76l6.443-8.502l-6.443-3.303l-12.31,7.096v10.993
				c-5.187,3.738-10.017,8.61-14.231,14.164l-2.139-3.443l-6.443-3.303l-6.113,10.032l8.322,6.464
				c-4.077,7.288-7.051,15.135-8.5,22.787l-9.701,5.592l0,13.733l8.908-5.134c0.733,7.173,3.353,12.617,7.297,16.041l-4.227,7.7
				l6.443,3.303l2.391-0.364l3.76-6.76c4.215,0.696,9.045,0,14.233-2.241v9.769l6.443,3.303l5.867-10.399v-10.581
				c4.115-3.524,7.954-7.717,11.35-12.37l6.988,5.428l6.443,3.303l-1.962-14.059l-5.439-4.275c4.729-8.743,7.901-18.23,8.717-27.169
				l6.18-3.562l6.443-10.43l-6.443-3.303L152.853,240.934z M119.845,291.061c-9.68,5.579-17.6,1.015-17.6-10.142
				c0-11.158,7.92-24.852,17.6-30.431c9.68-5.579,17.6-1.015,17.6,10.142C137.445,271.788,129.525,285.482,119.845,291.061z"/>
			<g>
				<path style="fill:#9494F7;" d="M159.297,244.238c-1.076-4.442-2.993-8.016-5.582-10.624l4.778-8.591l-9.201-3.567l-4.114,7.495
					c-3.354-0.695-7.139-0.439-11.186,0.76v-11.806l-12.311,7.096v10.993c-5.187,3.738-10.017,8.61-14.231,14.164l-8.582-6.746
					l-6.113,10.032l8.322,6.464c-4.077,7.288-7.051,15.135-8.5,22.787l-9.701,5.591l0.001,13.734l8.908-5.134
					c0.733,7.173,3.353,12.617,7.297,16.041l-4.227,7.7l8.834,2.939l3.76-6.76c4.215,0.696,9.045,0.001,14.233-2.241v9.769
					l12.31-7.095v-10.581c4.115-3.524,7.954-7.717,11.35-12.37l6.989,5.428l4.481-10.756l-5.439-4.275
					c4.729-8.743,7.901-18.23,8.717-27.169l6.18-3.562l0-13.733L159.297,244.238z M126.289,294.365
					c-9.68,5.579-17.6,1.015-17.6-10.142c0-11.158,7.92-24.852,17.6-30.431c9.68-5.579,17.6-1.015,17.6,10.143
					C143.888,275.092,135.968,288.785,126.289,294.365z"/>
			</g>
			<polygon style="fill:#7675E3;" points="76.433,284.983 82.876,288.286 82.876,302.02 76.433,298.716 			"/>
		</g>
		<g>
			<path style="fill:#7675E3;" d="M66.983,164.428c-6.568,3.829-11.942,13.226-11.942,20.882c0,7.656,5.374,10.788,11.942,6.96
				c6.568-3.829,11.942-13.225,11.942-20.882C78.925,163.731,73.551,160.599,66.983,164.428z"/>
			<g>
				<polygon style="fill-rule:evenodd;clip-rule:evenodd;fill:#7675E3;" points="71.006,181.193 71.006,241.157 141.942,200.273 
					141.942,140.31 				"/>
				<polygon style="fill-rule:evenodd;clip-rule:evenodd;fill:#5E5EBC;" points="71.006,241.157 110.436,191.018 141.942,200.273 
									"/>
				<g>
					<path style="fill-rule:evenodd;clip-rule:evenodd;fill:#9494F7;" d="M141.942,140.31l-29.173,55.882
						c-0.88,1.686-2.92,2.394-4.656,1.617l-37.108-16.616L141.942,140.31z"/>
				</g>
				<polygon style="fill-rule:evenodd;clip-rule:evenodd;fill:#9494F7;" points="71.006,181.193 66.277,178.323 66.277,238.285 
					71.006,241.157 				"/>
				<polygon style="fill-rule:evenodd;clip-rule:evenodd;fill:#7675E3;" points="141.942,140.31 71.006,181.193 66.277,178.323 
					137.213,137.438 				"/>
			</g>
			<path style="fill:#FFFFFF;" d="M68.486,165.656c-6.568,3.829-11.942,13.225-11.942,20.882s5.374,10.788,11.942,6.96
				c6.568-3.829,11.942-13.225,11.942-20.882S75.054,161.827,68.486,165.656z"/>
			<g>
				<path style="fill:#6969CC;" d="M67.061,186.865c-0.155,0-0.305-0.065-0.41-0.181l-3.368-3.675
					c-0.209-0.227-0.193-0.58,0.034-0.788c0.226-0.207,0.58-0.193,0.787,0.034l2.774,3.027l7.179-17.538
					c0.117-0.285,0.441-0.421,0.727-0.305c0.285,0.117,0.421,0.443,0.305,0.727l-7.512,18.351c-0.073,0.176-0.23,0.304-0.418,0.337
					C67.126,186.862,67.093,186.865,67.061,186.865z"/>
			</g>
		</g>
		<g>
			<g>
				<path style="fill:#5E5EBC;" d="M337.488,256.766l48.08-28.026c0.858-0.5,1.918-0.501,2.777-0.002l61.287,35.628
					c1.829,1.063,1.831,3.705,0.003,4.77l-47.562,27.724c-0.852,0.496-1.903,0.501-2.759,0.012l-61.805-35.325
					C335.664,260.491,335.653,257.836,337.488,256.766z"/>
				<g>
					<path style="fill:#9494F7;" d="M337.482,255.367l48.08-28.026c0.858-0.5,1.918-0.501,2.777-0.002l61.287,35.628
						c1.829,1.063,1.831,3.705,0.003,4.77l-47.562,27.724c-0.852,0.496-1.903,0.501-2.759,0.012l-61.805-35.325
						C335.658,259.093,335.647,256.437,337.482,255.367z"/>
				</g>
				<path style="fill:#DFE2FC;" d="M359.912,267.757l15.548-9.063c0.277-0.162,0.62-0.162,0.898,0l19.819,11.521
					c0.592,0.344,0.592,1.198,0.001,1.542l-15.38,8.965c-0.275,0.16-0.615,0.162-0.892,0.004l-19.986-11.423
					C359.322,268.962,359.319,268.103,359.912,267.757z"/>
			</g>
			<g>
				<path style="fill:#4F4F99;" d="M388.683,169.399l-0.897,55.645c-0.016,0.993,0.503,1.918,1.358,2.422l61.072,35.996
					c1.823,1.074,4.126-0.218,4.161-2.333l0.887-55.045c0.016-0.986-0.495-1.905-1.341-2.412l-61.062-36.595
					C391.039,165.984,388.717,167.275,388.683,169.399z"/>
				<path style="fill:#5E5EBC;" d="M387.461,170.079l-0.897,55.645c-0.016,0.993,0.503,1.918,1.358,2.422l61.072,35.996
					c1.823,1.074,4.126-0.218,4.161-2.333l0.887-55.045c0.016-0.986-0.495-1.905-1.341-2.412l-61.062-36.595
					C389.816,166.664,387.495,167.954,387.461,170.079z"/>
				<path style="fill:#4F4F99;" d="M390.898,175.947l-0.768,47.677c-0.014,0.851,0.431,1.643,1.163,2.075l52.327,30.842
					c1.562,0.92,3.536-0.186,3.565-1.999l0.76-47.163c0.014-0.844-0.424-1.632-1.149-2.066l-52.319-31.355
					C392.917,173.021,390.928,174.126,390.898,175.947z"/>
			</g>
			<g>
				<path style="fill:#5E5EBC;" d="M377.873,253.775l-14.236-8.227c-0.669-0.386-0.898-1.242-0.511-1.911l0,0
					c0.387-0.669,1.242-0.897,1.91-0.511l15.633,9.034"/>
				<path style="fill:#5E5EBC;" d="M381.543,252.639l41.585,24.031c0.669,0.386,0.897,1.242,0.511,1.911l0,0
					c-0.387,0.668-1.242,0.897-1.91,0.511l-42.982-24.839"/>
				<path style="fill:#5E5EBC;" d="M381.281,251.081l-14.237-8.227c-0.669-0.387-0.898-1.242-0.511-1.911l0,0
					c0.386-0.669,1.242-0.897,1.91-0.511l15.633,9.034"/>
				<path style="fill:#5E5EBC;" d="M384.951,249.945l41.585,24.031c0.669,0.386,0.897,1.242,0.511,1.911l0,0
					c-0.387,0.668-1.242,0.897-1.91,0.511l-42.982-24.839"/>
				<path style="fill:#5E5EBC;" d="M385.078,248.925l-14.236-8.227c-0.669-0.387-0.898-1.242-0.511-1.911l0,0
					c0.387-0.669,1.242-0.897,1.91-0.511l15.633,9.034"/>
				<path style="fill:#5E5EBC;" d="M388.748,247.789l41.585,24.031c0.669,0.386,0.897,1.242,0.511,1.911l0,0
					c-0.386,0.668-1.242,0.897-1.91,0.511l-42.982-24.839"/>
				<path style="fill:#5E5EBC;" d="M388.691,246.441l-14.237-8.227c-0.669-0.386-0.898-1.242-0.511-1.911l0,0
					c0.387-0.669,1.242-0.897,1.91-0.511l15.633,9.034"/>
				<path style="fill:#5E5EBC;" d="M392.361,245.305l41.585,24.031c0.669,0.387,0.898,1.242,0.511,1.911l0,0
					c-0.387,0.669-1.242,0.897-1.91,0.511l-42.982-24.839"/>
				<path style="fill:#5E5EBC;" d="M392.536,244.204l-14.237-8.227c-0.669-0.386-0.897-1.242-0.511-1.911l0,0
					c0.387-0.669,1.242-0.897,1.91-0.511l15.633,9.034"/>
				<path style="fill:#5E5EBC;" d="M396.206,243.067l41.585,24.031c0.669,0.387,0.897,1.242,0.511,1.911l0,0
					c-0.387,0.668-1.242,0.897-1.91,0.511l-42.982-24.839"/>
			</g>
			<g style="opacity:0.74;">
				<defs>
					<path id="SVGID_1_" style="opacity:0.74;" d="M390.898,175.947l-0.768,47.677c-0.014,0.851,0.431,1.643,1.163,2.075
						l52.327,30.842c1.562,0.92,3.536-0.186,3.565-1.999l0.76-47.163c0.014-0.844-0.424-1.632-1.149-2.066l-52.319-31.355
						C392.917,173.021,390.928,174.126,390.898,175.947z"/>
				</defs>
				<clipPath id="SVGID_00000164509056320446004740000014823736377010186122_">
					<use xlink:href="#SVGID_1_"  style="overflow:visible;"/>
				</clipPath>
				<polygon style="clip-path:url(#SVGID_00000164509056320446004740000014823736377010186122_);fill:#424284;" points="
					390.234,187.961 404.413,179.799 390.13,171.131 390.234,174.274 				"/>
				<polygon style="clip-path:url(#SVGID_00000164509056320446004740000014823736377010186122_);fill:#424284;" points="
					398.705,230.295 444.332,203.969 447.201,205.778 401.921,232.19 				"/>
				<polygon style="clip-path:url(#SVGID_00000164509056320446004740000014823736377010186122_);fill:#424284;" points="
					425.303,245.972 447.946,232.887 447.81,241.285 432.384,250.145 				"/>
			</g>
		</g>
		<g>
			<path style="fill:#7675E3;" d="M306.848,104.646c1.46,0.842,2.823,2.114,3.987,3.612c-0.13-0.914-0.209-1.818-0.209-2.699
				c0-8.14,5.778-11.47,12.84-7.399c4.987,2.875,9.323,8.703,11.447,14.746c1.369-1.62,3.728-1.863,6.399-0.324
				c4.206,2.424,7.648,8.375,7.648,13.224c0,0.387-0.029,0.749-0.072,1.099c0.024,0.014,0.048,0.023,0.072,0.037
				c4.614,2.659,8.389,9.187,8.389,14.505c0,5.318-3.775,7.494-8.389,4.834l-42.111-24.003c-4.206-2.424-7.648-8.375-7.648-13.224
				C299.2,104.205,302.641,102.221,306.848,104.646z"/>
			<path style="fill:#FFFFFF;" d="M305.039,105.684c1.46,0.842,2.823,2.114,3.987,3.612c-0.129-0.914-0.209-1.818-0.209-2.699
				c0-8.14,5.778-11.47,12.84-7.399c4.988,2.875,9.323,8.703,11.447,14.746c1.369-1.62,3.728-1.863,6.399-0.324
				c4.206,2.424,7.648,8.375,7.648,13.224c0,0.387-0.029,0.749-0.072,1.099c0.024,0.014,0.048,0.023,0.072,0.037
				c4.614,2.659,8.389,9.186,8.389,14.505c0,5.318-3.775,7.494-8.389,4.834l-42.111-24.003c-4.207-2.424-7.648-8.375-7.648-13.224
				C297.391,105.243,300.833,103.259,305.039,105.684z"/>
		</g>
		<g>
			<path style="fill:#7675E3;" d="M219.047,131.27c-41.147,23.717-74.813,81.928-74.813,129.358
				c0,24.735,9.156,41.847,23.755,49.196c1.23,0.619,33.107,19.166,33.107,19.166s0.071-14.942,17.952-25.248
				c41.148-23.716,74.814-81.928,74.814-129.358c0-15.709,11.47-28.883,11.47-28.883l-18.563-10.877
				C268.077,123.619,241.921,118.086,219.047,131.27z"/>
			<path style="fill:#CFCFFF;" d="M250.837,149.811c-41.148,23.717-74.814,81.928-74.814,129.358
				c0,47.43,33.666,66.831,74.814,43.114c41.148-23.717,74.814-81.928,74.814-129.358
				C325.651,145.495,291.984,126.094,250.837,149.811z"/>
			<path style="fill:#DFE2FC;" d="M252.331,158.85c-36.124,21.058-65.681,72.741-65.681,114.852
				c0,42.111,29.557,59.337,65.682,38.28c36.125-21.057,65.681-72.741,65.681-114.852S288.456,137.792,252.331,158.85z"/>
			<g style="opacity:0.57;">
				<path style="fill:#FFFFFF;" d="M268.297,151.562c5.206,7.921,8.184,18.758,8.184,32.105c0,42.111-29.556,93.795-65.681,114.852
					c-5.673,3.307-11.184,5.667-16.444,7.138c11.22,17.07,32.823,20.558,57.498,6.175c36.125-21.057,65.681-72.741,65.681-114.852
					C317.535,161.481,296.532,143.669,268.297,151.562z"/>
			</g>
			<path style="fill:#8F9AEE;" d="M253.496,223.02c-4.834,2.818-8.79,9.734-8.79,15.37s3.955,7.94,8.79,5.123
				c4.834-2.818,8.79-9.734,8.79-15.37C262.286,222.508,258.33,220.202,253.496,223.02z"/>
			<g style="opacity:0.23;">
				<g>
					<path style="fill:#A7A7DB;" d="M286.507,150.113c14.247,5.769,23.337,21.447,23.337,44.789
						c0,42.111-29.556,93.795-65.681,114.852c-12.496,7.284-24.203,9.981-34.176,8.658c11.456,4.639,26.243,2.877,42.344-6.508
						c36.125-21.057,65.681-72.741,65.681-114.852C318.013,169.506,305.365,152.614,286.507,150.113z"/>
				</g>
			</g>
			<polygon style="fill:#DFE2FC;" points="249.711,136.753 262.924,143.835 262.923,121.594 249.711,114.512 			"/>
			<g>
				<polygon style="fill:#6262CC;" points="227.717,146.218 243.465,154.661 243.465,128.149 227.716,119.708 				"/>
				<polygon style="fill:#CFCFFF;" points="243.465,128.149 263.62,117.652 263.62,144.163 243.465,154.661 				"/>
				<g>
					<polygon style="fill:#7675E3;" points="211.322,114.903 228.571,124.845 280.318,95.022 263.069,85.08 					"/>
					<polygon style="fill:#6262CC;" points="211.322,128.157 211.322,114.903 228.571,124.845 228.571,138.099 					"/>
					<polygon style="fill:#CFCFFF;" points="280.318,95.022 280.318,108.275 228.571,138.099 228.571,124.845 					"/>
				</g>
			</g>
			<polygon style="fill:#7675E3;" points="255.441,179.656 253.496,181.153 253.496,164.553 255.441,163.056 			"/>
			<polygon style="fill:#7675E3;" points="247.959,301.272 246.014,302.77 246.014,286.17 247.959,284.673 			"/>
			<polygon style="fill:#7675E3;" points="204.675,250.919 205.157,248.64 189.185,257.544 188.728,259.968 			"/>
			<polygon style="fill:#7675E3;" points="313.063,198.732 313.546,196.453 297.573,205.357 297.117,207.781 			"/>
			<g>
				<path style="fill:#8F9AEE;" d="M263.691,253.144c0,0-7.831-61.339-8.03-60.917c-0.199,0.422-5.445,68.841-5.445,68.841
					L263.691,253.144z"/>
				<path style="fill:#7675E3;" d="M255.661,224.47c-4.148,2.418-7.542,8.353-7.542,13.189c0,4.836,3.394,6.814,7.542,4.396
					c4.148-2.418,7.542-8.353,7.542-13.189C263.204,224.03,259.81,222.052,255.661,224.47z"/>
			</g>
		</g>
		<g>
			<polygon style="fill:#6262CC;" points="141.893,361.598 157.372,370.52 172.851,361.598 157.372,352.676 			"/>
			<g>
				<polygon style="fill:#9494F7;" points="157.372,370.52 157.372,429.993 172.851,421.071 172.851,361.598 				"/>
			</g>
			<polygon style="fill:#7675E3;" points="141.893,361.598 157.372,370.52 157.372,429.993 141.893,421.071 			"/>
			<polygon style="fill:#65D1B2;" points="172.85,325.916 188.329,334.838 203.808,325.915 188.329,316.994 			"/>
			<polygon style="fill:#44B498;" points="188.329,334.838 188.329,412.15 203.808,403.227 203.808,325.915 			"/>
			<polygon style="fill:#65D1B2;" points="172.85,325.916 188.329,334.838 188.329,412.15 172.85,403.228 			"/>
			<polygon style="fill:#6262CC;" points="203.807,290.23 219.286,299.152 234.765,290.23 219.286,281.309 			"/>
			<g>
				<polygon style="fill:#9494F7;" points="219.286,299.152 219.286,394.308 234.765,385.385 234.765,290.23 				"/>
			</g>
			<polygon style="fill:#7675E3;" points="203.807,290.23 219.286,299.152 219.286,394.308 203.807,385.385 			"/>
		</g>
		<g>
			<polygon style="fill-rule:evenodd;clip-rule:evenodd;fill:#6969CC;" points="299.793,240.385 299.793,346.368 303.249,348.51 
				364.31,308.723 367.766,205.803 363.762,203.515 			"/>
			<g>
				<polygon style="fill-rule:evenodd;clip-rule:evenodd;fill:#9494F7;" points="303.249,242.989 303.249,348.51 367.766,311.326 
					367.766,205.803 				"/>
			</g>
			<polygon style="fill-rule:evenodd;clip-rule:evenodd;fill:#FFFFFF;" points="308.14,251.508 308.14,342.081 363.517,310.164 
				363.517,219.591 			"/>
			<path style="fill-rule:evenodd;clip-rule:evenodd;fill:#DFE2FC;" d="M312.637,257.597v12.679c0,0.537,0.582,0.874,1.047,0.605
				l13.697-7.894c0.216-0.125,0.35-0.355,0.35-0.605v-12.679c0-0.538-0.582-0.874-1.047-0.605l-13.697,7.895
				C312.771,257.117,312.637,257.347,312.637,257.597z"/>
			<path style="fill-rule:evenodd;clip-rule:evenodd;fill:#DFE2FC;" d="M312.637,277.953v12.679c0,0.538,0.582,0.874,1.047,0.605
				l13.697-7.894c0.216-0.125,0.35-0.355,0.35-0.605v-12.68c0-0.537-0.582-0.873-1.047-0.605l-13.697,7.895
				C312.771,277.472,312.637,277.703,312.637,277.953z"/>
			<path style="fill-rule:evenodd;clip-rule:evenodd;fill:#DFE2FC;" d="M312.637,298.309v12.679c0,0.538,0.582,0.874,1.047,0.605
				l13.697-7.894c0.216-0.125,0.35-0.355,0.35-0.605v-12.679c0-0.538-0.582-0.874-1.047-0.605l-13.697,7.895
				C312.771,297.828,312.637,298.059,312.637,298.309z"/>
			<path style="fill-rule:evenodd;clip-rule:evenodd;fill:#DFE2FC;" d="M312.637,318.664v12.679c0,0.538,0.582,0.874,1.047,0.605
				l13.697-7.894c0.216-0.125,0.35-0.355,0.35-0.605v-12.68c0-0.537-0.582-0.874-1.047-0.605l-13.697,7.895
				C312.771,318.184,312.637,318.415,312.637,318.664z"/>
			<g>
				<path style="fill-rule:evenodd;clip-rule:evenodd;fill:#DFE2FC;" d="M330.779,248.658L330.779,248.658
					c0,0.571,0.618,0.928,1.112,0.643l26.743-15.413c0.23-0.132,0.371-0.377,0.371-0.643l0,0c0-0.571-0.618-0.928-1.112-0.643
					l-26.743,15.413C330.92,248.148,330.779,248.393,330.779,248.658z"/>
				<path style="fill-rule:evenodd;clip-rule:evenodd;fill:#DFE2FC;" d="M330.779,252.229L330.779,252.229
					c0,0.571,0.618,0.928,1.112,0.643l26.743-15.413c0.23-0.132,0.371-0.378,0.371-0.643l0,0c0-0.571-0.618-0.928-1.112-0.643
					l-26.743,15.413C330.92,251.719,330.779,251.964,330.779,252.229z"/>
				<path style="fill-rule:evenodd;clip-rule:evenodd;fill:#DFE2FC;" d="M330.779,255.8L330.779,255.8
					c0,0.571,0.618,0.928,1.112,0.643l26.743-15.413c0.23-0.132,0.371-0.378,0.371-0.643l0,0c0-0.571-0.618-0.928-1.112-0.643
					l-26.743,15.413C330.92,255.289,330.779,255.534,330.779,255.8z"/>
				<path style="fill-rule:evenodd;clip-rule:evenodd;fill:#DFE2FC;" d="M330.779,259.37L330.779,259.37
					c0,0.571,0.618,0.928,1.112,0.643l26.743-15.413c0.23-0.132,0.371-0.378,0.371-0.643l0,0c0-0.571-0.618-0.928-1.112-0.643
					l-26.743,15.413C330.92,258.86,330.779,259.105,330.779,259.37z"/>
			</g>
			<g>
				<path style="fill-rule:evenodd;clip-rule:evenodd;fill:#DFE2FC;" d="M330.779,269.128L330.779,269.128
					c0,0.571,0.618,0.928,1.112,0.643l26.743-15.413c0.23-0.132,0.371-0.378,0.371-0.643l0,0c0-0.571-0.618-0.928-1.112-0.643
					l-26.743,15.413C330.92,268.618,330.779,268.863,330.779,269.128z"/>
				<path style="fill-rule:evenodd;clip-rule:evenodd;fill:#DFE2FC;" d="M330.779,272.699L330.779,272.699
					c0,0.571,0.618,0.928,1.112,0.643l26.743-15.413c0.23-0.133,0.371-0.378,0.371-0.643l0,0c0-0.571-0.618-0.928-1.112-0.643
					l-26.743,15.413C330.92,272.188,330.779,272.434,330.779,272.699z"/>
				<path style="fill-rule:evenodd;clip-rule:evenodd;fill:#DFE2FC;" d="M330.779,276.269L330.779,276.269
					c0,0.571,0.618,0.928,1.112,0.643l26.743-15.413c0.23-0.133,0.371-0.378,0.371-0.643l0,0c0-0.571-0.618-0.928-1.112-0.643
					l-26.743,15.413C330.92,275.759,330.779,276.004,330.779,276.269z"/>
				<path style="fill-rule:evenodd;clip-rule:evenodd;fill:#DFE2FC;" d="M330.779,279.84L330.779,279.84
					c0,0.571,0.618,0.928,1.112,0.643l26.743-15.413c0.23-0.133,0.371-0.378,0.371-0.643l0,0c0-0.571-0.618-0.928-1.112-0.643
					l-26.743,15.413C330.92,279.33,330.779,279.575,330.779,279.84z"/>
			</g>
			<g>
				<path style="fill-rule:evenodd;clip-rule:evenodd;fill:#DFE2FC;" d="M330.779,289.598L330.779,289.598
					c0,0.571,0.618,0.928,1.112,0.643l26.743-15.413c0.23-0.133,0.371-0.378,0.371-0.643v0c0-0.571-0.618-0.928-1.112-0.643
					l-26.743,15.413C330.92,289.087,330.779,289.332,330.779,289.598z"/>
				<path style="fill-rule:evenodd;clip-rule:evenodd;fill:#DFE2FC;" d="M330.779,293.168L330.779,293.168
					c0,0.571,0.618,0.928,1.112,0.643l26.743-15.413c0.23-0.132,0.371-0.378,0.371-0.643v0c0-0.571-0.618-0.928-1.112-0.643
					l-26.743,15.413C330.92,292.658,330.779,292.903,330.779,293.168z"/>
				<path style="fill-rule:evenodd;clip-rule:evenodd;fill:#DFE2FC;" d="M330.779,296.739L330.779,296.739
					c0,0.571,0.618,0.928,1.112,0.643l26.743-15.413c0.23-0.132,0.371-0.378,0.371-0.643v0c0-0.571-0.618-0.928-1.112-0.643
					l-26.743,15.413C330.92,296.229,330.779,296.474,330.779,296.739z"/>
				<path style="fill-rule:evenodd;clip-rule:evenodd;fill:#DFE2FC;" d="M330.779,300.31L330.779,300.31
					c0,0.571,0.618,0.928,1.112,0.643l26.743-15.413c0.23-0.132,0.371-0.378,0.371-0.643l0,0c0-0.571-0.618-0.928-1.112-0.643
					l-26.743,15.413C330.92,299.799,330.779,300.045,330.779,300.31z"/>
			</g>
			<g>
				<path style="fill-rule:evenodd;clip-rule:evenodd;fill:#DFE2FC;" d="M330.779,310.067L330.779,310.067
					c0,0.571,0.618,0.928,1.112,0.643l26.743-15.413c0.23-0.132,0.371-0.378,0.371-0.643l0,0c0-0.571-0.618-0.928-1.112-0.643
					l-26.743,15.413C330.92,309.557,330.779,309.802,330.779,310.067z"/>
				<path style="fill-rule:evenodd;clip-rule:evenodd;fill:#DFE2FC;" d="M330.779,313.638L330.779,313.638
					c0,0.571,0.618,0.928,1.112,0.643l26.743-15.413c0.23-0.132,0.371-0.378,0.371-0.643l0,0c0-0.571-0.618-0.928-1.112-0.643
					l-26.743,15.413C330.92,313.128,330.779,313.373,330.779,313.638z"/>
				<path style="fill-rule:evenodd;clip-rule:evenodd;fill:#DFE2FC;" d="M330.779,317.209L330.779,317.209
					c0,0.571,0.618,0.928,1.112,0.643l26.743-15.413c0.23-0.132,0.371-0.378,0.371-0.643l0,0c0-0.571-0.618-0.928-1.112-0.643
					l-26.743,15.413C330.92,316.699,330.779,316.944,330.779,317.209z"/>
				<path style="fill-rule:evenodd;clip-rule:evenodd;fill:#DFE2FC;" d="M330.779,320.78L330.779,320.78
					c0,0.571,0.618,0.928,1.112,0.643l26.743-15.413c0.23-0.132,0.371-0.377,0.371-0.643l0,0c0-0.571-0.618-0.928-1.112-0.643
					l-26.743,15.413C330.92,320.269,330.779,320.514,330.779,320.78z"/>
			</g>
			<g>
				<path style="fill:#6969CC;" d="M320.816,264.114c-0.151,0-0.297-0.063-0.4-0.176l-3.282-3.582
					c-0.204-0.221-0.188-0.565,0.033-0.768c0.221-0.201,0.565-0.188,0.767,0.033l2.704,2.95l6.995-17.09
					c0.114-0.277,0.43-0.411,0.709-0.297c0.278,0.114,0.411,0.431,0.297,0.709l-7.32,17.883c-0.071,0.172-0.224,0.296-0.407,0.329
					C320.88,264.112,320.848,264.114,320.816,264.114z"/>
			</g>
			<g>
				<path style="fill:#6969CC;" d="M320.816,285.008c-0.151,0-0.297-0.063-0.4-0.176l-3.282-3.581
					c-0.204-0.221-0.188-0.565,0.033-0.768c0.221-0.201,0.565-0.187,0.767,0.033l2.704,2.95l6.995-17.09
					c0.114-0.278,0.43-0.412,0.709-0.297c0.278,0.114,0.411,0.431,0.297,0.709l-7.32,17.883c-0.071,0.172-0.224,0.296-0.407,0.329
					C320.88,285.005,320.848,285.008,320.816,285.008z"/>
			</g>
			<g>
				<path style="fill:#6969CC;" d="M320.816,305.901c-0.151,0-0.297-0.063-0.4-0.176l-3.282-3.582
					c-0.204-0.221-0.188-0.565,0.033-0.768c0.221-0.201,0.565-0.188,0.767,0.033l2.704,2.95l6.995-17.091
					c0.114-0.277,0.431-0.41,0.709-0.297c0.278,0.114,0.411,0.431,0.297,0.709l-7.32,17.883c-0.071,0.172-0.224,0.296-0.407,0.329
					C320.88,305.899,320.848,305.901,320.816,305.901z"/>
			</g>
			<g>
				<path style="fill:#6969CC;" d="M320.816,325.293c-0.151,0-0.297-0.063-0.4-0.176l-3.282-3.582
					c-0.204-0.221-0.188-0.565,0.033-0.768c0.221-0.202,0.565-0.188,0.767,0.034l2.704,2.95l6.995-17.09
					c0.114-0.277,0.43-0.41,0.709-0.297c0.278,0.114,0.411,0.431,0.297,0.709l-7.32,17.883c-0.071,0.172-0.224,0.296-0.407,0.329
					C320.88,325.29,320.848,325.293,320.816,325.293z"/>
			</g>
			<g>
				<polygon style="fill-rule:evenodd;clip-rule:evenodd;fill:#6969CC;" points="316.995,226.306 316.995,233.027 346.847,215.844 
					348.495,210.645 346.292,209.441 				"/>
			</g>
			<g>
				<polygon style="fill-rule:evenodd;clip-rule:evenodd;fill:#DFE2FC;" points="318.644,227.83 318.644,248.883 348.495,231.699 
					348.495,210.645 				"/>
			</g>
			<g>
				<polygon style="fill-rule:evenodd;clip-rule:evenodd;fill:#8080E0;" points="318.644,237.709 318.644,248.883 348.495,231.699 
					348.495,220.525 				"/>
			</g>
		</g>
		<g>
			<path style="fill:#7675E3;" d="M183.183,135.193c-1.46,0.842-2.823,2.114-3.987,3.612c0.129-0.914,0.209-1.818,0.209-2.699
				c0-8.14-5.778-11.47-12.84-7.399c-4.987,2.875-9.323,8.703-11.447,14.746c-1.369-1.62-3.728-1.863-6.399-0.324
				c-4.206,2.425-7.648,8.375-7.648,13.224c0,0.387,0.029,0.749,0.072,1.099c-0.024,0.014-0.048,0.023-0.072,0.037
				c-4.614,2.659-8.389,9.187-8.389,14.505c0,5.318,3.775,7.494,8.389,4.834l42.111-24.003c4.206-2.424,7.648-8.375,7.648-13.224
				C190.831,134.752,187.389,132.768,183.183,135.193z"/>
			<path style="fill:#FFFFFF;" d="M184.992,136.231c-1.46,0.842-2.823,2.114-3.987,3.611c0.13-0.914,0.209-1.818,0.209-2.699
				c0-8.14-5.778-11.47-12.84-7.399c-4.987,2.875-9.323,8.703-11.447,14.746c-1.369-1.62-3.728-1.863-6.399-0.324
				c-4.206,2.424-7.648,8.375-7.648,13.224c0,0.387,0.029,0.749,0.072,1.099c-0.024,0.014-0.048,0.023-0.072,0.037
				c-4.614,2.659-8.389,9.186-8.389,14.505c0,5.318,3.775,7.494,8.389,4.834l42.111-24.003c4.206-2.424,7.648-8.375,7.648-13.224
				C192.64,135.79,189.198,133.806,184.992,136.231z"/>
		</g>
		<g>
			<polygon style="fill:#7675E3;" points="421.478,346.891 421.478,366.615 417.2,369.081 382.976,344.425 382.976,354.287 
				378.698,356.753 370.142,327.165 378.698,316.665 382.976,314.199 382.976,324.699 			"/>
			<g>
				<polygon style="fill:#9494F7;" points="417.2,349.357 417.2,369.081 378.698,346.891 378.698,356.753 365.864,329.63 
					378.698,316.665 378.698,327.165 				"/>
			</g>
		</g>
		<g>
			<path style="fill:#5E5EBC;" d="M304.685,386.406c0.149-0.816,0.162-1.638,0.055-2.456l0.085-3.816h-1.568
				c-1.133-1.704-2.87-3.302-5.244-4.67c-9.082-5.234-23.943-5.234-33.024,0c-2.374,1.368-4.111,2.966-5.244,4.67h-1.568
				c0,0,0.005,3.423,0.003,4.816c0,0.02,0,0.04,0,0.061c-0.001,0.266-0.001,0.455-0.002,0.507c0,0,0.018,0.024,0.049,0.064
				c0.248,3.247,2.485,6.452,6.762,8.917c9.082,5.235,23.943,5.235,33.024,0c3.889-2.242,6.099-5.095,6.658-8.035l0.013-0.012
				L304.685,386.406z"/>
			<path style="fill:#F7D33E;" d="M264.989,370.617c-9.082,5.234-9.082,13.799,0,19.034c9.082,5.235,23.943,5.235,33.024,0
				c9.082-5.235,9.082-13.8,0-19.034C288.931,365.383,274.071,365.383,264.989,370.617z"/>
			<g>
				<path style="fill:#5E5EBC;" d="M281.501,390.853c-5.067,0-10.134-1.024-13.992-3.072c-3.802-2.018-5.896-4.738-5.895-7.659
					c0-2.921,2.094-5.64,5.895-7.657l0,0c7.715-4.094,20.268-4.094,27.983,0c3.802,2.017,5.895,4.736,5.896,7.657
					c0,2.921-2.093,5.641-5.895,7.659C291.636,389.829,286.568,390.853,281.501,390.853z M281.501,370.117
					c-4.942,0-9.885,0.999-13.648,2.995l0,0c-3.551,1.884-5.506,4.373-5.506,7.009c0,2.637,1.955,5.127,5.506,7.011
					c7.526,3.994,19.77,3.994,27.296,0c3.551-1.885,5.506-4.375,5.506-7.011c0-2.636-1.956-5.125-5.506-7.009
					C291.386,371.116,286.444,370.117,281.501,370.117z"/>
			</g>
			<g>
				<path style="fill:#7675E3;" d="M271.169,380.44l-1.671,0.055l1.17-2.87l1.502-0.044c1.142-2.064,2.975-3.034,5.377-3.097
					l0.554-0.014l-0.349,2.559l-0.814,0.023c-1.406,0.041-2.08,0.619-2.338,1.669c-0.278,1.137,0.162,1.812,1.76,1.759
					c4.572-0.15,4.801-6.113,9.769-6.242c2.338-0.061,4.194,0.816,5.407,2.772l1.404-0.041l1.268,2.718l-1.553,0.051
					c0.664,2.952-0.832,4.769-4.24,4.9l-1.735,0.066l-0.703-4.224l1.733-0.057c1.568-0.052,1.905-0.823,1.566-1.94
					c-0.312-1.031-0.992-1.625-2.369-1.585c-3.991,0.117-3.722,7.798-11.048,8.076C272.373,385.108,270.72,383.421,271.169,380.44z"
					/>
			</g>
			<path style="opacity:0.39;fill:#FFF4C5;" d="M264.989,370.617c-3.502,2.019-5.639,4.534-6.44,7.161h45.904
				c-0.801-2.627-2.938-5.142-6.44-7.161C288.932,365.383,274.071,365.383,264.989,370.617z"/>
		</g>
		<g>
			<path style="fill:#5E5EBC;" d="M304.685,378.082c0.149-0.816,0.162-1.638,0.055-2.456l0.085-3.816h-1.568
				c-1.133-1.704-2.87-3.302-5.244-4.67c-9.082-5.234-23.943-5.234-33.024,0c-2.374,1.368-4.111,2.966-5.244,4.67h-1.568
				c0,0,0.005,3.423,0.003,4.815c0,0.02,0,0.04,0,0.061c-0.001,0.266-0.001,0.455-0.002,0.507c0,0,0.018,0.024,0.049,0.064
				c0.248,3.247,2.485,6.452,6.762,8.917c9.082,5.235,23.943,5.235,33.024,0c3.889-2.242,6.099-5.095,6.658-8.035l0.013-0.012
				L304.685,378.082z"/>
			<path style="fill:#F7D33E;" d="M264.989,362.293c-9.082,5.234-9.082,13.799,0,19.034c9.082,5.235,23.943,5.235,33.024,0
				c9.082-5.235,9.082-13.8,0-19.034S274.071,357.059,264.989,362.293z"/>
			<g>
				<path style="fill:#5E5EBC;" d="M281.501,382.529c-5.067,0-10.134-1.024-13.992-3.072c-3.802-2.018-5.896-4.738-5.895-7.659
					c0-2.921,2.094-5.64,5.895-7.657l0,0c7.715-4.094,20.268-4.094,27.983,0c3.802,2.017,5.895,4.736,5.896,7.657
					c0,2.921-2.093,5.641-5.895,7.659C291.636,381.505,286.568,382.529,281.501,382.529z M281.501,361.794
					c-4.942,0-9.885,0.999-13.648,2.995l0,0c-3.551,1.884-5.506,4.373-5.506,7.009c0,2.637,1.955,5.127,5.506,7.012
					c7.526,3.994,19.77,3.994,27.296,0c3.551-1.885,5.506-4.375,5.506-7.012c0-2.636-1.956-5.125-5.506-7.009
					C291.386,362.793,286.444,361.794,281.501,361.794z"/>
			</g>
			<g>
				<path style="fill:#7675E3;" d="M271.169,372.116l-1.671,0.055l1.17-2.87l1.502-0.044c1.142-2.065,2.975-3.034,5.377-3.097
					l0.554-0.014l-0.349,2.559l-0.814,0.023c-1.406,0.041-2.08,0.619-2.338,1.668c-0.278,1.137,0.162,1.812,1.76,1.759
					c4.572-0.15,4.801-6.113,9.769-6.242c2.338-0.061,4.194,0.816,5.407,2.772l1.404-0.041l1.268,2.718l-1.553,0.051
					c0.664,2.952-0.832,4.769-4.24,4.9l-1.735,0.066l-0.703-4.224l1.733-0.057c1.568-0.052,1.905-0.823,1.566-1.94
					c-0.312-1.031-0.992-1.625-2.369-1.585c-3.991,0.117-3.722,7.798-11.048,8.076C272.373,376.784,270.72,375.097,271.169,372.116z
					"/>
			</g>
			<path style="opacity:0.39;fill:#FFF4C5;" d="M264.989,362.293c-3.502,2.018-5.639,4.534-6.44,7.161h45.904
				c-0.801-2.627-2.938-5.142-6.44-7.161C288.932,357.059,274.071,357.059,264.989,362.293z"/>
		</g>
		<g>
			<path style="fill:#5E5EBC;" d="M304.685,369.759c0.149-0.816,0.162-1.638,0.055-2.456l0.085-3.816h-1.568
				c-1.133-1.704-2.87-3.302-5.244-4.67c-9.082-5.234-23.943-5.234-33.024,0c-2.374,1.368-4.111,2.966-5.244,4.67h-1.568
				c0,0,0.005,3.423,0.003,4.815c0,0.02,0,0.04,0,0.061c-0.001,0.266-0.001,0.455-0.002,0.507c0,0,0.018,0.024,0.049,0.064
				c0.248,3.247,2.485,6.452,6.762,8.917c9.082,5.235,23.943,5.235,33.024,0c3.889-2.242,6.099-5.095,6.658-8.035l0.013-0.012
				L304.685,369.759z"/>
			<path style="fill:#F7D33E;" d="M264.989,353.97c-9.082,5.234-9.082,13.799,0,19.034c9.082,5.235,23.943,5.235,33.024,0
				c9.082-5.235,9.082-13.8,0-19.034C288.931,348.736,274.071,348.736,264.989,353.97z"/>
			<g>
				<path style="fill:#5E5EBC;" d="M281.501,374.205c-5.067,0-10.134-1.024-13.992-3.072c-3.802-2.018-5.896-4.738-5.895-7.659
					c0-2.921,2.094-5.64,5.895-7.657l0,0c7.715-4.094,20.268-4.094,27.983,0c3.802,2.017,5.895,4.736,5.896,7.657
					c0,2.921-2.093,5.641-5.895,7.659C291.636,373.182,286.568,374.205,281.501,374.205z M281.501,353.47
					c-4.942,0-9.885,0.999-13.648,2.995l0,0c-3.551,1.884-5.506,4.373-5.506,7.009c0,2.637,1.955,5.127,5.506,7.012
					c7.526,3.994,19.77,3.994,27.296,0c3.551-1.885,5.506-4.375,5.506-7.012c0-2.636-1.956-5.125-5.506-7.009
					C291.386,354.469,286.444,353.47,281.501,353.47z"/>
			</g>
			<g>
				<path style="fill:#7675E3;" d="M271.169,363.793l-1.671,0.055l1.17-2.87l1.502-0.044c1.142-2.064,2.975-3.034,5.377-3.097
					l0.554-0.014l-0.349,2.559l-0.814,0.023c-1.406,0.041-2.08,0.619-2.338,1.669c-0.278,1.137,0.162,1.812,1.76,1.759
					c4.572-0.15,4.801-6.113,9.769-6.242c2.338-0.061,4.194,0.816,5.407,2.772l1.404-0.041l1.268,2.718l-1.553,0.051
					c0.664,2.952-0.832,4.769-4.24,4.9l-1.735,0.066l-0.703-4.224l1.733-0.057c1.568-0.052,1.905-0.823,1.566-1.94
					c-0.312-1.031-0.992-1.625-2.369-1.585c-3.991,0.117-3.722,7.798-11.048,8.076C272.373,368.46,270.72,366.773,271.169,363.793z"
					/>
			</g>
			<path style="opacity:0.39;fill:#FFF4C5;" d="M264.989,353.97c-3.502,2.018-5.639,4.534-6.44,7.161h45.904
				c-0.801-2.627-2.938-5.142-6.44-7.161C288.932,348.736,274.071,348.736,264.989,353.97z"/>
		</g>
		<g>
			<path style="fill:#5E5EBC;" d="M304.685,361.435c0.149-0.816,0.162-1.638,0.055-2.456l0.085-3.816h-1.568
				c-1.133-1.704-2.87-3.302-5.244-4.67c-9.082-5.234-23.943-5.234-33.024,0c-2.374,1.368-4.111,2.966-5.244,4.67h-1.568
				c0,0,0.005,3.423,0.003,4.816c0,0.02,0,0.04,0,0.061c-0.001,0.266-0.001,0.455-0.002,0.507c0,0,0.018,0.024,0.049,0.064
				c0.248,3.247,2.485,6.452,6.762,8.917c9.082,5.235,23.943,5.235,33.024,0c3.889-2.242,6.099-5.095,6.658-8.035l0.013-0.012
				L304.685,361.435z"/>
			<path style="fill:#F7D33E;" d="M264.989,345.646c-9.082,5.234-9.082,13.799,0,19.034c9.082,5.235,23.943,5.235,33.024,0
				c9.082-5.235,9.082-13.8,0-19.034C288.931,340.412,274.071,340.412,264.989,345.646z"/>
			<g>
				<path style="fill:#5E5EBC;" d="M281.501,365.882c-5.067,0-10.134-1.024-13.992-3.072c-3.802-2.018-5.896-4.738-5.895-7.659
					c0-2.921,2.094-5.64,5.895-7.657l0,0c7.715-4.094,20.268-4.094,27.983,0c3.802,2.017,5.895,4.736,5.896,7.657
					c0,2.921-2.093,5.641-5.895,7.659C291.636,364.858,286.568,365.882,281.501,365.882z M281.501,345.147
					c-4.942,0-9.885,0.998-13.648,2.995l0,0c-3.551,1.884-5.506,4.373-5.506,7.009c0,2.637,1.955,5.127,5.506,7.011
					c7.526,3.994,19.77,3.994,27.296,0c3.551-1.885,5.506-4.375,5.506-7.011c0-2.636-1.956-5.125-5.506-7.009
					C291.386,346.145,286.444,345.147,281.501,345.147z"/>
			</g>
			<g>
				<path style="fill:#7675E3;" d="M271.169,355.469l-1.671,0.055l1.17-2.87l1.502-0.044c1.142-2.065,2.975-3.034,5.377-3.097
					l0.554-0.014l-0.349,2.559l-0.814,0.023c-1.406,0.041-2.08,0.619-2.338,1.669c-0.278,1.137,0.162,1.812,1.76,1.759
					c4.572-0.15,4.801-6.113,9.769-6.242c2.338-0.06,4.194,0.817,5.407,2.772l1.404-0.042l1.268,2.719l-1.553,0.051
					c0.664,2.952-0.832,4.769-4.24,4.9l-1.735,0.066l-0.703-4.224l1.733-0.057c1.568-0.052,1.905-0.823,1.566-1.939
					c-0.312-1.031-0.992-1.625-2.369-1.585c-3.991,0.117-3.722,7.798-11.048,8.076C272.373,360.137,270.72,358.45,271.169,355.469z"
					/>
			</g>
			<path style="opacity:0.39;fill:#FFF4C5;" d="M264.989,345.646c-3.502,2.019-5.639,4.534-6.44,7.161h45.904
				c-0.801-2.627-2.938-5.142-6.44-7.161C288.932,340.412,274.071,340.412,264.989,345.646z"/>
		</g>
		<g>
			<path style="fill:#5E5EBC;" d="M304.685,353.112c0.149-0.816,0.162-1.638,0.055-2.456l0.085-3.816h-1.568
				c-1.133-1.704-2.87-3.302-5.244-4.67c-9.082-5.234-23.943-5.234-33.024,0c-2.374,1.368-4.111,2.966-5.244,4.67h-1.568
				c0,0,0.005,3.423,0.003,4.816c0,0.02,0,0.04,0,0.061c-0.001,0.266-0.001,0.455-0.002,0.507c0,0,0.018,0.024,0.049,0.064
				c0.248,3.247,2.485,6.452,6.762,8.917c9.082,5.235,23.943,5.235,33.024,0c3.889-2.242,6.099-5.095,6.658-8.035l0.013-0.012
				L304.685,353.112z"/>
			<path style="fill:#F7D33E;" d="M264.989,337.323c-9.082,5.234-9.082,13.799,0,19.034c9.082,5.235,23.943,5.235,33.024,0
				c9.082-5.235,9.082-13.8,0-19.034C288.931,332.089,274.071,332.089,264.989,337.323z"/>
			<g>
				<path style="fill:#5E5EBC;" d="M281.501,357.558c-5.067,0-10.134-1.024-13.992-3.072c-3.802-2.018-5.896-4.738-5.895-7.659
					c0-2.921,2.094-5.64,5.895-7.657l0,0c7.715-4.094,20.268-4.094,27.983,0c3.802,2.017,5.895,4.736,5.896,7.657
					c0,2.921-2.093,5.641-5.895,7.659C291.636,356.535,286.568,357.558,281.501,357.558z M281.501,336.823
					c-4.942,0-9.885,0.999-13.648,2.995l0,0c-3.551,1.884-5.506,4.373-5.506,7.009c0,2.637,1.955,5.127,5.506,7.011
					c7.526,3.994,19.77,3.994,27.296,0c3.551-1.885,5.506-4.375,5.506-7.011c0-2.636-1.956-5.125-5.506-7.009
					C291.386,337.822,286.444,336.823,281.501,336.823z"/>
			</g>
			<g>
				<path style="fill:#7675E3;" d="M271.169,347.146l-1.671,0.055l1.17-2.87l1.502-0.044c1.142-2.064,2.975-3.034,5.377-3.097
					l0.554-0.014l-0.349,2.559l-0.814,0.023c-1.406,0.041-2.08,0.619-2.338,1.668c-0.278,1.137,0.162,1.812,1.76,1.759
					c4.572-0.15,4.801-6.113,9.769-6.242c2.338-0.061,4.194,0.816,5.407,2.772l1.404-0.041l1.268,2.718l-1.553,0.051
					c0.664,2.952-0.832,4.769-4.24,4.9l-1.735,0.066l-0.703-4.224l1.733-0.057c1.568-0.052,1.905-0.823,1.566-1.94
					c-0.312-1.031-0.992-1.625-2.369-1.585c-3.991,0.117-3.722,7.798-11.048,8.076C272.373,351.813,270.72,350.126,271.169,347.146z
					"/>
			</g>
			<path style="opacity:0.39;fill:#FFF4C5;" d="M264.989,337.323c-3.502,2.018-5.639,4.534-6.44,7.161h45.904
				c-0.801-2.627-2.938-5.142-6.44-7.161C288.932,332.089,274.071,332.089,264.989,337.323z"/>
		</g>
		<g>
			<path style="fill:#5E5EBC;" d="M304.685,344.788c0.149-0.816,0.162-1.638,0.055-2.456l0.085-3.816h-1.568
				c-1.133-1.704-2.87-3.302-5.244-4.67c-9.082-5.234-23.943-5.234-33.024,0c-2.374,1.368-4.111,2.966-5.244,4.67h-1.568
				c0,0,0.005,3.423,0.003,4.815c0,0.02,0,0.04,0,0.061c-0.001,0.266-0.001,0.455-0.002,0.507c0,0,0.018,0.024,0.049,0.064
				c0.248,3.247,2.485,6.452,6.762,8.917c9.082,5.235,23.943,5.235,33.024,0c3.889-2.242,6.099-5.095,6.658-8.035l0.013-0.012
				L304.685,344.788z"/>
			<path style="fill:#F7D33E;" d="M264.989,328.999c-9.082,5.234-9.082,13.799,0,19.034c9.082,5.235,23.943,5.235,33.024,0
				c9.082-5.235,9.082-13.8,0-19.034S274.071,323.765,264.989,328.999z"/>
			<g>
				<path style="fill:#5E5EBC;" d="M281.501,349.235c-5.067,0-10.134-1.024-13.992-3.072c-3.802-2.018-5.896-4.738-5.895-7.659
					c0-2.921,2.094-5.64,5.895-7.657l0,0c7.715-4.094,20.268-4.094,27.983,0c3.802,2.017,5.895,4.736,5.896,7.657
					c0,2.921-2.093,5.641-5.895,7.659C291.636,348.211,286.568,349.235,281.501,349.235z M281.501,328.5
					c-4.942,0-9.885,0.999-13.648,2.995l0,0c-3.551,1.884-5.506,4.373-5.506,7.009c0,2.637,1.955,5.127,5.506,7.012
					c7.526,3.994,19.77,3.994,27.296,0c3.551-1.885,5.506-4.375,5.506-7.012c0-2.636-1.956-5.125-5.506-7.009
					C291.386,329.498,286.444,328.5,281.501,328.5z"/>
			</g>
			<g>
				<path style="fill:#7675E3;" d="M271.169,338.822l-1.671,0.055l1.17-2.87l1.502-0.044c1.142-2.065,2.975-3.034,5.377-3.097
					l0.554-0.014l-0.349,2.559l-0.814,0.023c-1.406,0.041-2.08,0.619-2.338,1.669c-0.278,1.137,0.162,1.812,1.76,1.759
					c4.572-0.15,4.801-6.113,9.769-6.242c2.338-0.061,4.194,0.816,5.407,2.772l1.404-0.041l1.268,2.718l-1.553,0.051
					c0.664,2.952-0.832,4.769-4.24,4.9l-1.735,0.066l-0.703-4.224l1.733-0.057c1.568-0.052,1.905-0.823,1.566-1.94
					c-0.312-1.031-0.992-1.625-2.369-1.585c-3.991,0.117-3.722,7.798-11.048,8.076C272.373,343.49,270.72,341.803,271.169,338.822z"
					/>
			</g>
			<path style="opacity:0.39;fill:#FFF4C5;" d="M264.989,328.999c-3.502,2.018-5.639,4.534-6.44,7.161h45.904
				c-0.801-2.627-2.938-5.142-6.44-7.161C288.932,323.765,274.071,323.765,264.989,328.999z"/>
		</g>
		<g>
			<path style="fill:#5E5EBC;" d="M304.685,336.465c0.149-0.816,0.162-1.638,0.055-2.456l0.085-3.816h-1.568
				c-1.133-1.704-2.87-3.302-5.244-4.67c-9.082-5.234-23.943-5.234-33.024,0c-2.374,1.368-4.111,2.966-5.244,4.67h-1.568
				c0,0,0.005,3.423,0.003,4.816c0,0.02,0,0.04,0,0.061c-0.001,0.266-0.001,0.455-0.002,0.507c0,0,0.018,0.024,0.049,0.064
				c0.248,3.247,2.485,6.452,6.762,8.917c9.082,5.235,23.943,5.235,33.024,0c3.889-2.242,6.099-5.095,6.658-8.035l0.013-0.012
				L304.685,336.465z"/>
			<path style="fill:#F7D33E;" d="M264.989,320.676c-9.082,5.234-9.082,13.799,0,19.034c9.082,5.235,23.943,5.235,33.024,0
				c9.082-5.235,9.082-13.8,0-19.034C288.931,315.442,274.071,315.442,264.989,320.676z"/>
			<g>
				<path style="fill:#5E5EBC;" d="M281.501,340.911c-5.067,0-10.134-1.024-13.992-3.072c-3.802-2.018-5.896-4.738-5.895-7.659
					c0-2.921,2.094-5.64,5.895-7.657l0,0c7.715-4.094,20.268-4.094,27.983,0c3.802,2.017,5.895,4.736,5.896,7.657
					c0,2.921-2.093,5.641-5.895,7.659C291.636,339.888,286.568,340.911,281.501,340.911z M281.501,320.176
					c-4.942,0-9.885,0.999-13.648,2.995l0,0c-3.551,1.884-5.506,4.373-5.506,7.009c0,2.637,1.955,5.127,5.506,7.012
					c7.526,3.994,19.77,3.994,27.296,0c3.551-1.885,5.506-4.375,5.506-7.012c0-2.636-1.956-5.125-5.506-7.009
					C291.386,321.175,286.444,320.176,281.501,320.176z"/>
			</g>
			<g>
				<path style="fill:#7675E3;" d="M271.169,330.499l-1.671,0.055l1.17-2.87l1.502-0.044c1.142-2.064,2.975-3.034,5.377-3.097
					l0.554-0.014l-0.349,2.559l-0.814,0.023c-1.406,0.041-2.08,0.619-2.338,1.668c-0.278,1.137,0.162,1.812,1.76,1.759
					c4.572-0.15,4.801-6.113,9.769-6.242c2.338-0.061,4.194,0.817,5.407,2.772l1.404-0.041l1.268,2.718l-1.553,0.051
					c0.664,2.952-0.832,4.769-4.24,4.9l-1.735,0.066l-0.703-4.224l1.733-0.057c1.568-0.052,1.905-0.823,1.566-1.94
					c-0.312-1.031-0.992-1.625-2.369-1.585c-3.991,0.117-3.722,7.798-11.048,8.076C272.373,335.166,270.72,333.479,271.169,330.499z
					"/>
			</g>
			<path style="opacity:0.39;fill:#FFF4C5;" d="M264.989,320.676c-3.502,2.018-5.639,4.534-6.44,7.161h45.904
				c-0.801-2.627-2.938-5.142-6.44-7.161C288.932,315.442,274.071,315.442,264.989,320.676z"/>
		</g>
		<g>
			<path style="fill:#5E5EBC;" d="M304.685,328.141c0.149-0.816,0.162-1.638,0.055-2.456l0.085-3.816h-1.568
				c-1.133-1.704-2.87-3.302-5.244-4.67c-9.082-5.234-23.943-5.234-33.024,0c-2.374,1.368-4.111,2.966-5.244,4.67h-1.568
				c0,0,0.005,3.423,0.003,4.816c0,0.02,0,0.04,0,0.061c-0.001,0.266-0.001,0.455-0.002,0.507c0,0,0.018,0.024,0.049,0.064
				c0.248,3.247,2.485,6.452,6.762,8.917c9.082,5.235,23.943,5.235,33.024,0c3.889-2.242,6.099-5.095,6.658-8.035l0.013-0.012
				L304.685,328.141z"/>
			<path style="fill:#F7D33E;" d="M264.989,312.352c-9.082,5.234-9.082,13.799,0,19.034c9.082,5.235,23.943,5.235,33.024,0
				c9.082-5.235,9.082-13.8,0-19.034S274.071,307.118,264.989,312.352z"/>
			<g>
				<path style="fill:#5E5EBC;" d="M281.501,332.588c-5.067,0-10.134-1.024-13.992-3.072c-3.802-2.018-5.896-4.738-5.895-7.659
					c0-2.92,2.094-5.64,5.895-7.657l0,0c7.715-4.094,20.268-4.094,27.983,0c3.802,2.017,5.895,4.736,5.896,7.657
					c0,2.921-2.093,5.641-5.895,7.659C291.636,331.564,286.568,332.588,281.501,332.588z M281.501,311.853
					c-4.942,0-9.885,0.998-13.648,2.995l0,0c-3.551,1.884-5.506,4.373-5.506,7.009c0,2.637,1.955,5.127,5.506,7.011
					c7.526,3.994,19.77,3.994,27.296,0c3.551-1.885,5.506-4.375,5.506-7.011c0-2.636-1.956-5.125-5.506-7.009
					C291.386,312.851,286.444,311.853,281.501,311.853z"/>
			</g>
			<g>
				<path style="fill:#7675E3;" d="M271.169,322.175l-1.671,0.055l1.17-2.87l1.502-0.044c1.142-2.065,2.975-3.034,5.377-3.097
					l0.554-0.014l-0.349,2.559l-0.814,0.023c-1.406,0.041-2.08,0.619-2.338,1.669c-0.278,1.137,0.162,1.812,1.76,1.759
					c4.572-0.15,4.801-6.113,9.769-6.242c2.338-0.06,4.194,0.816,5.407,2.772l1.404-0.041l1.268,2.718l-1.553,0.051
					c0.664,2.952-0.832,4.769-4.24,4.9l-1.735,0.066l-0.703-4.224l1.733-0.057c1.568-0.052,1.905-0.823,1.566-1.939
					c-0.312-1.031-0.992-1.625-2.369-1.585c-3.991,0.117-3.722,7.798-11.048,8.076C272.373,326.843,270.72,325.156,271.169,322.175z
					"/>
			</g>
			<path style="opacity:0.39;fill:#FFF4C5;" d="M264.989,312.352c-3.502,2.019-5.639,4.534-6.44,7.161h45.904
				c-0.801-2.627-2.938-5.142-6.44-7.161C288.932,307.118,274.071,307.118,264.989,312.352z"/>
		</g>
		<g>
			<path style="fill:#5E5EBC;" d="M304.685,319.818c0.149-0.816,0.162-1.638,0.055-2.456l0.085-3.816h-1.568
				c-1.133-1.704-2.87-3.302-5.244-4.67c-9.082-5.234-23.943-5.234-33.024,0c-2.374,1.368-4.111,2.966-5.244,4.67h-1.568
				c0,0,0.005,3.423,0.003,4.816c0,0.02,0,0.04,0,0.061c-0.001,0.266-0.001,0.455-0.002,0.507c0,0,0.018,0.024,0.049,0.064
				c0.248,3.247,2.485,6.452,6.762,8.917c9.082,5.235,23.943,5.235,33.024,0c3.889-2.242,6.099-5.095,6.658-8.035l0.013-0.012
				L304.685,319.818z"/>
			<path style="fill:#F7D33E;" d="M264.989,304.029c-9.082,5.234-9.082,13.799,0,19.034c9.082,5.235,23.943,5.235,33.024,0
				c9.082-5.235,9.082-13.8,0-19.034C288.931,298.795,274.071,298.795,264.989,304.029z"/>
			<g>
				<path style="fill:#5E5EBC;" d="M281.501,324.264c-5.067,0-10.134-1.024-13.992-3.072c-3.802-2.018-5.896-4.738-5.895-7.659
					c0-2.921,2.094-5.64,5.895-7.657l0,0c7.715-4.094,20.268-4.094,27.983,0c3.802,2.017,5.895,4.736,5.896,7.657
					c0,2.921-2.093,5.641-5.895,7.659C291.636,323.241,286.568,324.264,281.501,324.264z M281.501,303.529
					c-4.942,0-9.885,0.999-13.648,2.995l0,0c-3.551,1.884-5.506,4.373-5.506,7.009c0,2.637,1.955,5.127,5.506,7.012
					c7.526,3.994,19.77,3.994,27.296,0c3.551-1.885,5.506-4.375,5.506-7.012c0-2.636-1.956-5.125-5.506-7.009
					C291.386,304.528,286.444,303.529,281.501,303.529z"/>
			</g>
			<g>
				<path style="fill:#7675E3;" d="M271.169,313.852l-1.671,0.055l1.17-2.87l1.502-0.044c1.142-2.064,2.975-3.034,5.377-3.097
					l0.554-0.014l-0.349,2.559l-0.814,0.023c-1.406,0.041-2.08,0.619-2.338,1.668c-0.278,1.137,0.162,1.812,1.76,1.759
					c4.572-0.15,4.801-6.113,9.769-6.242c2.338-0.061,4.194,0.816,5.407,2.772l1.404-0.041l1.268,2.718l-1.553,0.051
					c0.664,2.952-0.832,4.769-4.24,4.9l-1.735,0.066l-0.703-4.224l1.733-0.057c1.568-0.052,1.905-0.823,1.566-1.94
					c-0.312-1.031-0.992-1.625-2.369-1.585c-3.991,0.117-3.722,7.798-11.048,8.076C272.373,318.519,270.72,316.832,271.169,313.852z
					"/>
			</g>
			<path style="opacity:0.39;fill:#FFF4C5;" d="M264.989,304.029c-3.502,2.019-5.639,4.534-6.44,7.161h45.904
				c-0.801-2.627-2.938-5.142-6.44-7.161C288.932,298.795,274.071,298.795,264.989,304.029z"/>
		</g>
		<g>
			<path style="fill:#5E5EBC;" d="M304.685,311.494c0.149-0.816,0.162-1.638,0.055-2.456l0.085-3.816h-1.568
				c-1.133-1.704-2.87-3.302-5.244-4.67c-9.082-5.234-23.943-5.234-33.024,0c-2.374,1.368-4.111,2.966-5.244,4.67h-1.568
				c0,0,0.005,3.423,0.003,4.815c0,0.02,0,0.04,0,0.061c-0.001,0.266-0.001,0.455-0.002,0.507c0,0,0.018,0.024,0.049,0.064
				c0.248,3.247,2.485,6.452,6.762,8.917c9.082,5.235,23.943,5.235,33.024,0c3.889-2.242,6.099-5.095,6.658-8.035l0.013-0.012
				L304.685,311.494z"/>
			<path style="fill:#F7D33E;" d="M264.989,295.705c-9.082,5.234-9.082,13.799,0,19.034c9.082,5.235,23.943,5.235,33.024,0
				c9.082-5.235,9.082-13.8,0-19.034S274.071,290.471,264.989,295.705z"/>
			<g>
				<path style="fill:#5E5EBC;" d="M281.501,315.941c-5.067,0-10.134-1.024-13.992-3.072c-3.802-2.018-5.896-4.738-5.895-7.659
					c0-2.921,2.094-5.64,5.895-7.657l0,0c7.715-4.094,20.268-4.094,27.983,0c3.802,2.017,5.895,4.736,5.896,7.657
					c0,2.921-2.093,5.641-5.895,7.659C291.636,314.917,286.568,315.941,281.501,315.941z M281.501,295.206
					c-4.942,0-9.885,0.999-13.648,2.995l0,0c-3.551,1.884-5.506,4.373-5.506,7.009c0,2.637,1.955,5.127,5.506,7.012
					c7.526,3.994,19.77,3.994,27.296,0c3.551-1.885,5.506-4.375,5.506-7.012c0-2.636-1.956-5.125-5.506-7.009
					C291.386,296.204,286.444,295.206,281.501,295.206z"/>
			</g>
			<g>
				<path style="fill:#7675E3;" d="M271.169,305.528l-1.671,0.055l1.17-2.87l1.502-0.044c1.142-2.065,2.975-3.034,5.377-3.097
					l0.554-0.014l-0.349,2.559l-0.814,0.023c-1.406,0.041-2.08,0.619-2.338,1.669c-0.278,1.137,0.162,1.812,1.76,1.759
					c4.572-0.15,4.801-6.113,9.769-6.242c2.338-0.061,4.194,0.816,5.407,2.772l1.404-0.041l1.268,2.718l-1.553,0.051
					c0.664,2.952-0.832,4.769-4.24,4.9l-1.735,0.066l-0.703-4.224l1.733-0.057c1.568-0.052,1.905-0.823,1.566-1.939
					c-0.312-1.031-0.992-1.625-2.369-1.585c-3.991,0.117-3.722,7.798-11.048,8.076C272.373,310.196,270.72,308.509,271.169,305.528z
					"/>
			</g>
			<path style="opacity:0.39;fill:#FFF4C5;" d="M264.989,295.705c-3.502,2.018-5.639,4.534-6.44,7.161h45.904
				c-0.801-2.627-2.938-5.142-6.44-7.161C288.932,290.471,274.071,290.471,264.989,295.705z"/>
		</g>
		<g>
			<path style="fill:#5E5EBC;" d="M363.498,390.234c0.149-0.816,0.162-1.638,0.055-2.456l0.085-3.816h-1.568
				c-1.133-1.704-2.87-3.302-5.244-4.67c-9.082-5.234-23.943-5.234-33.024,0c-2.374,1.368-4.111,2.966-5.244,4.67h-1.567
				c0,0,0.005,3.423,0.002,4.816c0,0.02,0,0.04,0,0.061c0,0.266-0.001,0.455-0.002,0.507c0,0,0.018,0.024,0.049,0.064
				c0.248,3.247,2.485,6.452,6.762,8.917c9.082,5.235,23.943,5.235,33.024,0c3.889-2.242,6.099-5.095,6.658-8.035l0.013-0.012
				L363.498,390.234z"/>
			<path style="fill:#F7D33E;" d="M323.802,374.445c-9.082,5.234-9.082,13.799,0,19.034c9.082,5.235,23.943,5.235,33.024,0
				c9.082-5.235,9.082-13.8,0-19.034S332.884,369.211,323.802,374.445z"/>
			<g>
				<path style="fill:#5E5EBC;" d="M340.314,394.681c-5.067,0-10.134-1.024-13.992-3.072c-3.802-2.018-5.896-4.738-5.896-7.659
					c0-2.92,2.094-5.64,5.896-7.657l0,0c7.715-4.094,20.268-4.094,27.983,0c3.802,2.017,5.895,4.736,5.896,7.657
					c0,2.921-2.094,5.641-5.895,7.659C350.449,393.657,345.381,394.681,340.314,394.681z M340.314,373.946
					c-4.942,0-9.885,0.999-13.648,2.995l0,0c-3.55,1.884-5.506,4.373-5.506,7.009c0,2.637,1.955,5.127,5.506,7.012
					c7.526,3.994,19.77,3.994,27.296,0c3.551-1.885,5.506-4.375,5.506-7.012c0-2.636-1.956-5.125-5.506-7.009
					C350.199,374.944,345.257,373.946,340.314,373.946z"/>
			</g>
			<g>
				<path style="fill:#7675E3;" d="M329.982,384.268l-1.671,0.055l1.17-2.87l1.502-0.044c1.142-2.065,2.975-3.034,5.377-3.097
					l0.554-0.014l-0.349,2.559l-0.814,0.023c-1.406,0.041-2.08,0.619-2.338,1.669c-0.278,1.137,0.162,1.812,1.76,1.759
					c4.572-0.15,4.801-6.113,9.769-6.242c2.338-0.061,4.194,0.816,5.407,2.772l1.404-0.041l1.268,2.718l-1.553,0.051
					c0.664,2.952-0.832,4.769-4.24,4.9l-1.735,0.066l-0.703-4.224l1.733-0.057c1.568-0.052,1.905-0.823,1.566-1.94
					c-0.312-1.031-0.992-1.625-2.369-1.585c-3.991,0.117-3.722,7.798-11.048,8.076C331.186,388.936,329.533,387.249,329.982,384.268
					z"/>
			</g>
			<path style="opacity:0.39;fill:#FFF4C5;" d="M323.802,374.445c-3.502,2.018-5.639,4.534-6.44,7.161h45.904
				c-0.801-2.627-2.938-5.142-6.44-7.161C347.745,369.211,332.884,369.211,323.802,374.445z"/>
		</g>
		<g>
			<path style="fill:#5E5EBC;" d="M276.891,404.696c0.149-0.816,0.162-1.638,0.055-2.456l0.085-3.816h-1.568
				c-1.133-1.704-2.87-3.302-5.244-4.67c-9.082-5.234-23.943-5.234-33.024,0c-2.373,1.368-4.111,2.966-5.244,4.67h-1.567
				c0,0,0.005,3.423,0.003,4.815c0,0.02,0,0.04,0,0.061c-0.001,0.266-0.001,0.455-0.002,0.507c0,0,0.018,0.024,0.049,0.064
				c0.248,3.247,2.485,6.452,6.762,8.917c9.082,5.235,23.943,5.235,33.024,0c3.889-2.242,6.099-5.095,6.657-8.035l0.013-0.012
				L276.891,404.696z"/>
			<path style="fill:#F7D33E;" d="M237.194,388.907c-9.082,5.234-9.082,13.799,0,19.034s23.943,5.235,33.024,0
				c9.082-5.235,9.082-13.8,0-19.034S246.276,383.673,237.194,388.907z"/>
			<g>
				<path style="fill:#5E5EBC;" d="M253.707,409.143c-5.067,0-10.134-1.024-13.992-3.072c-3.802-2.018-5.896-4.738-5.895-7.659
					c0-2.921,2.094-5.64,5.895-7.657l0,0c7.715-4.094,20.268-4.094,27.983,0c3.802,2.017,5.895,4.736,5.896,7.657
					c0,2.921-2.094,5.641-5.895,7.659C263.841,408.119,258.774,409.143,253.707,409.143z M253.706,388.408
					c-4.942,0-9.885,0.999-13.648,2.995l0,0c-3.55,1.884-5.506,4.373-5.506,7.009c0,2.637,1.955,5.127,5.506,7.012
					c7.526,3.994,19.77,3.994,27.296,0c3.55-1.885,5.506-4.375,5.506-7.012c0-2.636-1.956-5.125-5.506-7.009
					C263.592,389.406,258.649,388.408,253.706,388.408z"/>
			</g>
			<g>
				<path style="fill:#7675E3;" d="M243.374,398.73l-1.671,0.055l1.17-2.87l1.502-0.044c1.142-2.064,2.975-3.034,5.377-3.097
					l0.554-0.014l-0.349,2.559l-0.814,0.023c-1.406,0.041-2.08,0.619-2.338,1.669c-0.278,1.137,0.162,1.812,1.76,1.759
					c4.572-0.15,4.801-6.113,9.769-6.242c2.338-0.061,4.194,0.816,5.407,2.772l1.404-0.041l1.268,2.718l-1.553,0.051
					c0.664,2.952-0.832,4.769-4.24,4.9l-1.735,0.066l-0.703-4.224l1.733-0.057c1.568-0.052,1.905-0.823,1.566-1.94
					c-0.312-1.031-0.992-1.625-2.369-1.585c-3.991,0.117-3.722,7.798-11.048,8.076C244.579,403.398,242.926,401.711,243.374,398.73z
					"/>
			</g>
			<path style="opacity:0.39;fill:#FFF4C5;" d="M237.195,388.907c-3.502,2.018-5.639,4.534-6.44,7.161h45.904
				c-0.801-2.627-2.938-5.142-6.44-7.161C261.137,383.673,246.276,383.673,237.195,388.907z"/>
		</g>
	</g>
</g>
<g id="DESIGNED_BY_FREEPIK">
	<g>
		<g id="XMLID_2_">
			<g id="XMLID_1043_">
				<path id="XMLID_1051_" style="fill:#1C252C;" d="M260.104,465.465c-0.432,0.443-0.803,0.931-1.108,1.453l-0.465-0.241
					c-0.067-0.298-0.349-0.503-0.659-0.466c-0.331,0.039-0.568,0.339-0.529,0.67c0.039,0.331,0.339,0.568,0.67,0.529
					c0.066-0.008,0.127-0.026,0.184-0.052l0.451,0.234c-0.251,0.554-0.433,1.139-0.539,1.744l0.747,0.132
					c0.23-1.306,0.85-2.507,1.792-3.473L260.104,465.465z"/>
				<path id="XMLID_1050_" style="fill:#1C252C;" d="M265.592,463.163c-0.171,0-0.341,0.006-0.51,0.017l-0.074-0.626
					c0.188-0.149,0.296-0.389,0.266-0.645c-0.046-0.393-0.402-0.674-0.795-0.628c-0.393,0.046-0.674,0.402-0.628,0.795
					c0.03,0.254,0.189,0.461,0.404,0.564l0.074,0.624c-0.714,0.116-1.403,0.332-2.06,0.646l0.327,0.684
					c0.934-0.447,1.942-0.673,2.995-0.673c0.496,0,0.993,0.053,1.475,0.158l0.161-0.741
					C266.692,463.222,266.142,463.163,265.592,463.163z"/>
				<path id="XMLID_1049_" style="fill:#1C252C;" d="M272.194,465.711c0.331-0.04,0.566-0.341,0.526-0.672
					c-0.04-0.331-0.341-0.566-0.672-0.526c-0.309,0.038-0.535,0.304-0.53,0.609l-0.416,0.363c-0.418-0.43-0.889-0.813-1.408-1.139
					l-0.404,0.641c1.134,0.715,2.021,1.726,2.563,2.925l0.69-0.313c-0.251-0.554-0.567-1.072-0.942-1.545l0.402-0.351
					C272.065,465.716,272.129,465.719,272.194,465.711z"/>
				<path id="XMLID_1048_" style="fill:#1C252C;" d="M265.044,473.372c-0.386,0.023-0.775,0.035-1.157,0.035
					c-0.88,0-1.733-0.061-2.478-0.179c-0.39-0.062-0.846-0.155-1.27-0.292c1.046,1.861,3.069,3.125,5.388,3.125
					c2.855,0,5.262-1.916,5.95-4.504c-0.682,0.449-1.505,0.825-2.459,1.123C267.839,473.047,266.463,473.286,265.044,473.372z"/>
				<path id="XMLID_1044_" style="fill:#1C252C;" d="M265.592,464.68c-3.352,0-6.08,2.666-6.08,5.943
					c0,0.426,0.046,0.849,0.137,1.261c0.673,0.483,2.706,0.89,5.348,0.731c2.879-0.173,5.297-0.957,6.672-2.159
					c-0.006-0.195-0.021-0.39-0.045-0.582C271.244,466.913,268.65,464.68,265.592,464.68z M263.432,471.194
					c-1.02,0-1.85-0.83-1.85-1.85c0-1.02,0.83-1.85,1.85-1.85c1.02,0,1.85,0.83,1.85,1.85
					C265.282,470.365,264.452,471.194,263.432,471.194z M268.17,470.286c-0.75,0-1.36-0.61-1.36-1.36s0.61-1.361,1.36-1.361
					c0.75,0,1.361,0.61,1.361,1.361S268.92,470.286,268.17,470.286z"/>
			</g>
			<path id="XMLID_1041_" style="fill:#1C252C;" d="M281.595,466.547c-0.295-0.116-0.805-0.309-1.382-0.237
				c-0.551,0.069-0.844,0.341-0.844,1.007v0.866h2.228v1.717h-2.228v5.455h-1.932v-5.455h-1.34v-1.717h1.34v-0.888
				c0-1.68,0.896-2.783,2.568-2.783c0.643,0,1.157,0.122,1.59,0.308L281.595,466.547z"/>
			<path id="XMLID_1039_" style="fill:#1C252C;" d="M286.298,469.879c-0.177-0.03-0.358-0.046-0.526-0.046
				c-0.896,0-1.51,0.548-1.51,1.614v3.908h-1.932v-7.172h1.873v0.785c0.451-0.673,1.14-0.977,2.021-0.977
				c0.414,0,0.848,0.128,1.094,0.337L286.298,469.879z"/>
			<path id="XMLID_88_" style="fill:#1C252C;" d="M293.965,471.757c0,0.222-0.015,0.489-0.037,0.651h-5.085
				c0.207,1.036,0.933,1.488,1.843,1.488c0.622,0,1.295-0.252,1.813-0.688l1.133,1.243c-0.814,0.748-1.85,1.088-3.057,1.088
				c-2.198,0-3.723-1.495-3.723-3.753c0-2.258,1.48-3.797,3.627-3.797C292.544,467.99,293.958,469.522,293.965,471.757z
				 M288.851,471.091h3.175c-0.177-0.918-0.733-1.436-1.562-1.436C289.554,469.655,289.021,470.203,288.851,471.091z"/>
			<path id="XMLID_85_" style="fill:#1C252C;" d="M301.618,471.757c0,0.222-0.015,0.489-0.037,0.651h-5.085
				c0.207,1.036,0.933,1.488,1.843,1.488c0.622,0,1.295-0.252,1.814-0.688l1.132,1.243c-0.814,0.748-1.85,1.088-3.057,1.088
				c-2.198,0-3.723-1.495-3.723-3.753c0-2.258,1.48-3.797,3.627-3.797C300.197,467.99,301.611,469.522,301.618,471.757z
				 M296.504,471.091h3.175c-0.178-0.918-0.733-1.436-1.562-1.436C297.207,469.655,296.674,470.203,296.504,471.091z"/>
			<path id="XMLID_62_" style="fill:#1C252C;" d="M309.964,471.764c0,2.154-1.495,3.775-3.471,3.775
				c-0.962,0-1.643-0.378-2.109-0.933v3.708h-1.924v-10.133h1.887v0.792c0.466-0.585,1.155-0.984,2.139-0.984
				C308.469,467.99,309.964,469.61,309.964,471.764z M304.287,471.764c0,1.132,0.748,1.976,1.843,1.976
				c1.14,0,1.85-0.881,1.85-1.976c0-1.095-0.71-1.976-1.85-1.976C305.035,469.788,304.287,470.632,304.287,471.764z"/>
			<path id="XMLID_9_" style="fill:#1C252C;" d="M313.068,465.836c0,0.696-0.54,1.229-1.236,1.229c-0.696,0-1.229-0.533-1.229-1.229
				c0-0.696,0.533-1.243,1.229-1.243C312.527,464.592,313.068,465.14,313.068,465.836z M312.809,475.354h-1.932v-7.172h1.932
				V475.354z"/>
			<path id="XMLID_3_" style="fill:#1C252C;" d="M316.032,470.736l2.701-2.554h2.368l-3.479,3.375l3.501,3.797h-2.376l-2.716-2.901
				v2.901H314.1v-10.658h1.932V470.736z"/>
		</g>
		<g>
			<path style="fill:#1C252C;" d="M184.412,475.289v-1.055c-0.527,0.718-1.391,1.23-2.387,1.23c-1.846,0-3.149-1.406-3.149-3.706
				c0-2.256,1.289-3.721,3.149-3.721c0.952,0,1.816,0.469,2.387,1.245v-3.765h1.099v9.77H184.412z M184.412,473.37v-3.208
				c-0.395-0.615-1.245-1.143-2.124-1.143c-1.421,0-2.27,1.172-2.27,2.739c0,1.567,0.85,2.724,2.27,2.724
				C183.168,474.483,184.017,473.986,184.412,473.37z"/>
			<path style="fill:#1C252C;" d="M186.932,471.744c0-2.051,1.465-3.706,3.486-3.706c2.139,0,3.398,1.67,3.398,3.794v0.279h-5.727
				c0.088,1.333,1.025,2.446,2.549,2.446c0.805,0,1.626-0.322,2.182-0.894l0.527,0.718c-0.703,0.703-1.655,1.084-2.812,1.084
				C188.44,475.465,186.932,473.956,186.932,471.744z M190.403,468.947c-1.509,0-2.256,1.274-2.314,2.358h4.643
				C192.718,470.25,192.015,468.947,190.403,468.947z"/>
			<path style="fill:#1C252C;" d="M194.607,474.351l0.571-0.791c0.469,0.542,1.362,1.011,2.329,1.011c1.084,0,1.67-0.513,1.67-1.216
				c0-1.714-4.38-0.659-4.38-3.281c0-1.098,0.952-2.036,2.636-2.036c1.201,0,2.051,0.454,2.622,1.026l-0.513,0.762
				c-0.424-0.513-1.201-0.894-2.109-0.894c-0.967,0-1.567,0.483-1.567,1.113c0,1.552,4.38,0.527,4.38,3.281
				c0,1.187-0.952,2.138-2.783,2.138C196.306,475.465,195.325,475.113,194.607,474.351z"/>
			<path style="fill:#1C252C;" d="M201.477,466.471c0-0.41,0.337-0.747,0.732-0.747c0.41,0,0.747,0.337,0.747,0.747
				c0,0.41-0.337,0.732-0.747,0.732C201.814,467.203,201.477,466.881,201.477,466.471z M201.667,475.289v-7.075h1.099v7.075H201.667
				z"/>
			<path style="fill:#1C252C;" d="M204.582,477.105l0.556-0.82c0.586,0.703,1.289,0.967,2.3,0.967c1.172,0,2.27-0.571,2.27-2.124
				v-1.011c-0.513,0.718-1.377,1.26-2.373,1.26c-1.845,0-3.149-1.377-3.149-3.662c0-2.27,1.289-3.677,3.149-3.677
				c0.952,0,1.802,0.469,2.373,1.245v-1.069h1.098v6.87c0,2.344-1.641,3.076-3.369,3.076
				C206.237,478.16,205.417,477.926,204.582,477.105z M209.709,473.253v-3.091c-0.381-0.615-1.23-1.143-2.109-1.143
				c-1.421,0-2.27,1.128-2.27,2.695c0,1.553,0.849,2.695,2.27,2.695C208.478,474.41,209.328,473.868,209.709,473.253z"/>
			<path style="fill:#1C252C;" d="M217.413,475.289v-4.629c0-1.245-0.63-1.641-1.582-1.641c-0.865,0-1.685,0.527-2.095,1.099v5.17
				h-1.099v-7.075h1.099v1.025c0.498-0.586,1.464-1.201,2.519-1.201c1.48,0,2.256,0.747,2.256,2.285v4.966H217.413z"/>
			<path style="fill:#1C252C;" d="M219.932,471.744c0-2.051,1.465-3.706,3.486-3.706c2.139,0,3.398,1.67,3.398,3.794v0.279h-5.727
				c0.088,1.333,1.025,2.446,2.549,2.446c0.806,0,1.626-0.322,2.183-0.894l0.527,0.718c-0.703,0.703-1.655,1.084-2.812,1.084
				C221.441,475.465,219.932,473.956,219.932,471.744z M223.404,468.947c-1.509,0-2.256,1.274-2.314,2.358h4.643
				C225.718,470.25,225.015,468.947,223.404,468.947z"/>
			<path style="fill:#1C252C;" d="M233.35,475.289v-1.055c-0.527,0.718-1.392,1.23-2.388,1.23c-1.846,0-3.149-1.406-3.149-3.706
				c0-2.256,1.289-3.721,3.149-3.721c0.952,0,1.817,0.469,2.388,1.245v-3.765h1.098v9.77H233.35z M233.35,473.37v-3.208
				c-0.396-0.615-1.245-1.143-2.124-1.143c-1.421,0-2.27,1.172-2.27,2.739c0,1.567,0.849,2.724,2.27,2.724
				C232.105,474.483,232.954,473.986,233.35,473.37z"/>
			<path style="fill:#1C252C;" d="M239.692,475.289v-9.77h1.098v3.765c0.572-0.776,1.421-1.245,2.388-1.245
				c1.845,0,3.149,1.465,3.149,3.721c0,2.299-1.304,3.706-3.149,3.706c-0.996,0-1.86-0.513-2.388-1.23v1.055H239.692z
				 M242.9,474.483c1.436,0,2.285-1.157,2.285-2.724c0-1.568-0.85-2.739-2.285-2.739c-0.864,0-1.728,0.527-2.109,1.143v3.208
				C241.171,473.986,242.036,474.483,242.9,474.483z"/>
			<path style="fill:#1C252C;" d="M247.528,477.061c0.161,0.073,0.425,0.117,0.601,0.117c0.483,0,0.805-0.161,1.055-0.747
				l0.469-1.069l-2.959-7.148h1.187l2.358,5.8l2.344-5.8h1.201l-3.545,8.51c-0.425,1.025-1.143,1.421-2.08,1.435
				c-0.234,0-0.601-0.044-0.805-0.103L247.528,477.061z"/>
		</g>
	</g>
</g>
</svg>
