<?xml version="1.0" encoding="utf-8"?>
<!-- Generator: Adobe Illustrator 27.5.0, SVG Export Plug-In . SVG Version: 6.00 Build 0)  -->
<svg version="1.1" xmlns="http://www.w3.org/2000/svg" xmlns:xlink="http://www.w3.org/1999/xlink" x="0px" y="0px"
	 viewBox="0 0 650 500" style="enable-background:new 0 0 650 500;" xml:space="preserve">
<g id="BACKGROUND">
	<rect style="fill:#F2E9DA;" width="650" height="500"/>
</g>
<g id="OBJECTS">
	<g>
		<path style="fill:#BCD4D8;" d="M29.448,328.841c21.838,65.567,88.157,113.93,158.946,106.857
			c95.38-4.538,187.148-92.291,282.911-49.203c70.596,38.173,148.242,21.62,159.4-66.125
			c15.761-71.751-42.088-172.831-102.88-210.853c-69.997-41.942-154.456-58.244-235.608-59.106
			C145.01,43.96-21.134,172.616,29.448,328.841z"/>
	</g>
	<g>
		<g>
			<path style="fill:#95BFCE;" d="M266.947,383.702v45.777c0,6.55-39.332,11.856-87.847,11.856s-87.847-5.306-87.847-11.856v-45.777
				c0,6.55,39.332,11.856,87.847,11.856S266.947,390.252,266.947,383.702z"/>
		</g>
		<g>
			<ellipse style="fill:#F2E9DA;" cx="179.1" cy="383.702" rx="87.847" ry="11.856"/>
		</g>
		<g>
			<path style="fill:#366985;" d="M249.883,360.824v22.042c0,3.154-31.692,5.709-70.783,5.709s-70.783-2.555-70.783-5.709v-22.042
				c0-3.154,31.692-5.709,70.783-5.709S249.883,357.671,249.883,360.824z"/>
		</g>
		<g>
			<path style="fill:#95BFCE;" d="M266.947,320.363v45.777c0,6.55-39.332,11.856-87.847,11.856s-87.847-5.306-87.847-11.856v-45.777
				c0,6.55,39.332,11.856,87.847,11.856S266.947,326.913,266.947,320.363z"/>
		</g>
		<g>
			<ellipse style="fill:#F2E9DA;" cx="179.1" cy="320.363" rx="87.847" ry="11.856"/>
		</g>
		<g>
			<path style="fill:#366985;" d="M249.883,297.486v22.042c0,3.154-31.692,5.709-70.783,5.709s-70.783-2.555-70.783-5.709v-22.042
				c0-3.154,31.692-5.709,70.783-5.709S249.883,294.332,249.883,297.486z"/>
		</g>
		<g>
			<path style="fill:#95BFCE;" d="M266.947,249.174v45.777c0,6.55-39.332,11.856-87.847,11.856s-87.847-5.306-87.847-11.856v-45.777
				c0,6.55,39.332,11.856,87.847,11.856S266.947,255.724,266.947,249.174z"/>
		</g>
		<g>
			<ellipse style="fill:#F2E9DA;" cx="179.1" cy="249.174" rx="87.847" ry="11.856"/>
		</g>
		<g>
			<path style="fill:#25292B;" d="M108.625,288.4c-6.205,0-11.252-5.048-11.252-11.252s5.048-11.252,11.252-11.252
				s11.252,5.048,11.252,11.252S114.83,288.4,108.625,288.4z M108.625,266.896c-5.653,0-10.252,4.599-10.252,10.252
				s4.599,10.252,10.252,10.252c5.653,0,10.252-4.599,10.252-10.252S114.278,266.896,108.625,266.896z"/>
		</g>
		<g>
			<circle style="fill:#4888A3;" cx="108.316" cy="349.179" r="10.752"/>
		</g>
		<g>
			<path style="fill:#25292B;" d="M108.316,423.771c-6.205,0-11.252-5.048-11.252-11.252c0-6.205,5.047-11.253,11.252-11.253
				s11.252,5.048,11.252,11.253C119.569,418.723,114.521,423.771,108.316,423.771z M108.316,402.266
				c-5.653,0-10.252,4.6-10.252,10.253s4.599,10.252,10.252,10.252c5.653,0,10.252-4.599,10.252-10.252
				S113.97,402.266,108.316,402.266z"/>
		</g>
		<g>
			<path style="fill:#F2E9DA;" d="M234.748,277.991h-94.68c-0.975,0-1.772-0.797-1.772-1.772l0,0c0-0.975,0.797-1.772,1.772-1.772
				h94.68c0.975,0,1.772,0.797,1.772,1.772l0,0C236.52,277.194,235.723,277.991,234.748,277.991z"/>
		</g>
		<g>
			<path style="fill:#F2E9DA;" d="M234.748,287.901h-94.68c-0.975,0-1.772-0.797-1.772-1.772l0,0c0-0.975,0.797-1.772,1.772-1.772
				h94.68c0.975,0,1.772,0.797,1.772,1.772l0,0C236.52,287.103,235.723,287.901,234.748,287.901z"/>
		</g>
		<g>
			<path style="fill:#F2E9DA;" d="M233.498,350.022h-94.68c-0.975,0-1.772-0.797-1.772-1.772l0,0c0-0.975,0.797-1.772,1.772-1.772
				h94.68c0.975,0,1.772,0.797,1.772,1.772l0,0C235.27,349.224,234.472,350.022,233.498,350.022z"/>
		</g>
		<g>
			<path style="fill:#F2E9DA;" d="M233.498,359.932h-94.68c-0.975,0-1.772-0.797-1.772-1.772l0,0c0-0.975,0.797-1.772,1.772-1.772
				h94.68c0.975,0,1.772,0.797,1.772,1.772l0,0C235.27,359.134,234.472,359.932,233.498,359.932z"/>
		</g>
		<g>
			<path style="fill:#F2E9DA;" d="M233.498,412.699h-94.68c-0.975,0-1.772-0.797-1.772-1.772v0c0-0.975,0.797-1.772,1.772-1.772
				h94.68c0.975,0,1.772,0.797,1.772,1.772v0C235.27,411.902,234.472,412.699,233.498,412.699z"/>
		</g>
		<g>
			<path style="fill:#F2E9DA;" d="M233.498,422.609h-94.68c-0.975,0-1.772-0.797-1.772-1.772l0,0c0-0.975,0.797-1.772,1.772-1.772
				h94.68c0.975,0,1.772,0.797,1.772,1.772l0,0C235.27,421.812,234.472,422.609,233.498,422.609z"/>
		</g>
	</g>
	<g>
		<g>
			<path style="fill:#95BFCE;" d="M586.077,402.426v31.547c0,4.514-27.105,8.171-60.539,8.171s-60.539-3.657-60.539-8.171v-31.547
				c0,4.514,27.105,8.171,60.539,8.171S586.077,406.94,586.077,402.426z"/>
		</g>
		<g>
			<ellipse style="fill:#F2E9DA;" cx="525.538" cy="402.426" rx="60.539" ry="8.171"/>
		</g>
		<g>
			<path style="fill:#366985;" d="M574.317,386.66v15.19c0,2.173-21.84,3.934-48.78,3.934c-26.939,0-48.78-1.761-48.78-3.934v-15.19
				c0-2.173,21.84-3.934,48.78-3.934C552.477,382.726,574.317,384.487,574.317,386.66z"/>
		</g>
		<g>
			<path style="fill:#95BFCE;" d="M586.077,358.777v31.547c0,4.514-27.105,8.171-60.539,8.171s-60.539-3.657-60.539-8.171v-31.547
				c0,4.514,27.105,8.171,60.539,8.171S586.077,363.291,586.077,358.777z"/>
		</g>
		<g>
			<ellipse style="fill:#F2E9DA;" cx="525.538" cy="358.777" rx="60.539" ry="8.171"/>
		</g>
		<g>
			<path style="fill:#366985;" d="M574.317,343.011v15.19c0,2.173-21.84,3.934-48.78,3.934c-26.939,0-48.78-1.761-48.78-3.934
				v-15.19c0-2.173,21.84-3.934,48.78-3.934C552.477,339.077,574.317,340.838,574.317,343.011z"/>
		</g>
		<g>
			<path style="fill:#95BFCE;" d="M586.077,309.718v31.547c0,4.514-27.105,8.171-60.539,8.171s-60.539-3.657-60.539-8.171v-31.547
				c0,4.514,27.105,8.171,60.539,8.171S586.077,314.232,586.077,309.718z"/>
		</g>
		<g>
			<ellipse style="fill:#F2E9DA;" cx="525.538" cy="309.718" rx="60.539" ry="8.171"/>
		</g>
		<g>
			<path style="fill:#25292B;" d="M476.971,336.905c-4.361,0-7.909-3.548-7.909-7.909s3.548-7.91,7.909-7.91s7.91,3.549,7.91,7.91
				S481.332,336.905,476.971,336.905z M476.971,322.086c-3.81,0-6.909,3.1-6.909,6.91c0,3.81,3.1,6.909,6.909,6.909
				c3.811,0,6.91-3.1,6.91-6.909C483.881,325.186,480.781,322.086,476.971,322.086z"/>
		</g>
		<g>
			<circle style="fill:#4888A3;" cx="476.758" cy="378.635" r="7.41"/>
		</g>
		<g>
			<path style="fill:#25292B;" d="M476.758,430.194c-4.361,0-7.909-3.548-7.909-7.909s3.548-7.91,7.909-7.91s7.91,3.549,7.91,7.91
				S481.119,430.194,476.758,430.194z M476.758,415.375c-3.81,0-6.909,3.1-6.909,6.91c0,3.81,3.1,6.909,6.909,6.909
				c3.811,0,6.91-3.1,6.91-6.909C483.668,418.475,480.568,415.375,476.758,415.375z"/>
		</g>
	</g>
	<g>
		<g>
			<g>
				<g>
					<g>
						<path style="fill:#F2E9DA;" d="M286.217,110.08L286.217,110.08c-0.167,0-0.321-0.089-0.403-0.233l-7.139-12.357
							c-0.084-0.144-0.084-0.322,0-0.466l7.139-12.357c0.083-0.144,0.237-0.233,0.403-0.233l0,0c0.167,0,0.321,0.089,0.403,0.233
							l7.155,12.357c0.084,0.144,0.084,0.323,0,0.467l-7.155,12.357C286.538,109.991,286.384,110.08,286.217,110.08z
							 M279.617,97.256l6.601,11.426l6.615-11.426l-6.615-11.426L279.617,97.256z"/>
					</g>
				</g>
			</g>
			<g>
				<g>
					<g>
						<path style="fill:#F2E9DA;" d="M270.038,93.877c-2.217,0-4.021-1.804-4.021-4.021s1.804-4.021,4.021-4.021
							s4.021,1.804,4.021,4.021S272.254,93.877,270.038,93.877z M270.038,86.769c-1.703,0-3.088,1.385-3.088,3.088
							s1.385,3.088,3.088,3.088s3.088-1.385,3.088-3.088S271.741,86.769,270.038,86.769z"/>
					</g>
				</g>
			</g>
			<g>
				<g>
					<g>
						<path style="fill:#F2E9DA;" d="M282.75,78.021c-1.916,0-3.475-1.559-3.475-3.475c0-1.916,1.559-3.475,3.475-3.475
							c1.916,0,3.475,1.559,3.475,3.475C286.226,76.462,284.667,78.021,282.75,78.021z M282.75,72.003
							c-1.402,0-2.543,1.141-2.543,2.543c0,1.402,1.14,2.543,2.543,2.543c1.402,0,2.543-1.141,2.543-2.543
							C285.293,73.144,284.153,72.003,282.75,72.003z"/>
					</g>
				</g>
			</g>
			<g>
				<g>
					<g>
						<path style="fill:#F2E9DA;" d="M266.483,79.754c-1.377,0-2.497-1.121-2.497-2.497s1.12-2.497,2.497-2.497
							s2.497,1.121,2.497,2.497S267.86,79.754,266.483,79.754z M266.483,75.692c-0.862,0-1.565,0.702-1.565,1.565
							s0.702,1.565,1.565,1.565s1.565-0.702,1.565-1.565S267.346,75.692,266.483,75.692z"/>
					</g>
				</g>
			</g>
		</g>
		<g>
			<g>
				<g>
					<g>
						<path style="fill:#F2E9DA;" d="M408.699,132.316L408.699,132.316c-0.167,0-0.321-0.089-0.404-0.233l-5.462-9.455
							c-0.083-0.144-0.083-0.322,0-0.466l5.462-9.455c0.083-0.144,0.237-0.233,0.404-0.233l0,0c0.166,0,0.32,0.088,0.403,0.232
							l5.474,9.455c0.084,0.145,0.084,0.323,0,0.468l-5.474,9.455C409.019,132.227,408.865,132.316,408.699,132.316z
							 M403.775,122.394l4.924,8.524l4.935-8.524l-4.935-8.524L403.775,122.394z"/>
					</g>
				</g>
			</g>
			<g>
				<g>
					<g>
						<path style="fill:#F2E9DA;" d="M395.775,118.121c-2.217,0-4.021-1.804-4.021-4.021c0-2.217,1.804-4.021,4.021-4.021
							s4.021,1.804,4.021,4.021C399.796,116.317,397.992,118.121,395.775,118.121z M395.775,111.012
							c-1.703,0-3.088,1.385-3.088,3.088s1.385,3.088,3.088,3.088s3.088-1.385,3.088-3.088S397.478,111.012,395.775,111.012z"/>
					</g>
				</g>
			</g>
			<g>
				<g>
					<g>
						<path style="fill:#F2E9DA;" d="M408.489,107.458c-1.916,0-3.476-1.559-3.476-3.475s1.559-3.475,3.476-3.475
							c1.916,0,3.475,1.559,3.475,3.475S410.405,107.458,408.489,107.458z M408.489,101.44c-1.402,0-2.543,1.14-2.543,2.543
							s1.141,2.543,2.543,2.543c1.402,0,2.543-1.14,2.543-2.543S409.891,101.44,408.489,101.44z"/>
					</g>
				</g>
			</g>
			<g>
				<g>
					<g>
						<path style="fill:#F2E9DA;" d="M395.775,103.471c-1.377,0-2.497-1.12-2.497-2.497s1.121-2.498,2.497-2.498
							s2.497,1.121,2.497,2.498S397.152,103.471,395.775,103.471z M395.775,99.409c-0.863,0-1.565,0.702-1.565,1.565
							c0,0.862,0.702,1.565,1.565,1.565s1.565-0.702,1.565-1.565C397.34,100.111,396.638,99.409,395.775,99.409z"/>
					</g>
				</g>
			</g>
		</g>
		<g>
			<g>
				<g>
					<g>
						<path style="fill:#F2E9DA;" d="M408.274,225.552L408.274,225.552c-0.167,0-0.321-0.089-0.404-0.233l-7.139-12.357
							c-0.083-0.144-0.083-0.322,0-0.466l7.139-12.357c0.083-0.144,0.237-0.233,0.404-0.233l0,0c0.166,0,0.32,0.089,0.403,0.233
							l7.155,12.357c0.084,0.144,0.084,0.323,0,0.467l-7.155,12.357C408.594,225.463,408.44,225.552,408.274,225.552z
							 M401.674,212.729l6.6,11.426l6.616-11.426l-6.616-11.426L401.674,212.729z"/>
					</g>
				</g>
			</g>
			<g>
				<g>
					<g>
						<path style="fill:#F2E9DA;" d="M405.74,194.891c-1.916,0-3.475-1.559-3.475-3.475c0-1.916,1.559-3.476,3.475-3.476
							s3.475,1.559,3.475,3.476C409.215,193.331,407.656,194.891,405.74,194.891z M405.74,188.872c-1.402,0-2.543,1.141-2.543,2.543
							c0,1.402,1.141,2.543,2.543,2.543c1.402,0,2.543-1.141,2.543-2.543C408.282,190.013,407.142,188.872,405.74,188.872z"/>
					</g>
				</g>
			</g>
			<g>
				<g>
					<g>
						<path style="fill:#F2E9DA;" d="M422.216,209.088c-1.377,0-2.497-1.12-2.497-2.497s1.121-2.497,2.497-2.497
							s2.497,1.121,2.497,2.497S423.593,209.088,422.216,209.088z M422.216,205.026c-0.863,0-1.565,0.702-1.565,1.565
							s0.702,1.565,1.565,1.565s1.565-0.702,1.565-1.565S423.079,205.026,422.216,205.026z"/>
					</g>
				</g>
			</g>
			<g>
				<g>
					<g>
						<path style="fill:#F2E9DA;" d="M423.113,196.167L423.113,196.167c-0.167,0-0.321-0.089-0.404-0.233l-4.484-7.761
							c-0.083-0.144-0.083-0.322,0-0.466l4.484-7.761c0.083-0.144,0.237-0.233,0.404-0.233l0,0c0.166,0,0.32,0.089,0.403,0.233
							l4.493,7.761c0.084,0.144,0.084,0.323,0,0.467l-4.493,7.761C423.433,196.078,423.279,196.167,423.113,196.167z
							 M419.168,187.94l3.945,6.83l3.954-6.83l-3.954-6.83L419.168,187.94z"/>
					</g>
				</g>
			</g>
			<g>
				<g>
					<g>
						<path style="fill:#F2E9DA;" d="M394.459,204.9c-1.377,0-2.497-1.121-2.497-2.497s1.121-2.497,2.497-2.497
							c1.377,0,2.497,1.12,2.497,2.497S395.836,204.9,394.459,204.9z M394.459,200.838c-0.863,0-1.565,0.702-1.565,1.565
							s0.702,1.565,1.565,1.565s1.565-0.702,1.565-1.565S395.322,200.838,394.459,200.838z"/>
					</g>
				</g>
			</g>
		</g>
		<g>
			<g>
				<g>
					<g>
						<path style="fill:#F2E9DA;" d="M94.039,185.984L94.039,185.984c-0.167,0-0.321-0.089-0.404-0.233l-5.462-9.455
							c-0.083-0.144-0.083-0.322,0-0.466l5.462-9.455c0.083-0.144,0.237-0.233,0.404-0.233l0,0c0.166,0,0.32,0.088,0.403,0.232
							l5.474,9.455c0.084,0.145,0.084,0.323,0,0.468l-5.474,9.455C94.359,185.896,94.205,185.984,94.039,185.984z M89.115,176.062
							l4.924,8.524l4.935-8.524l-4.935-8.524L89.115,176.062z"/>
					</g>
				</g>
			</g>
			<g>
				<g>
					<g>
						<path style="fill:#F2E9DA;" d="M81.116,171.789c-2.217,0-4.021-1.804-4.021-4.021c0-2.217,1.804-4.021,4.021-4.021
							s4.021,1.804,4.021,4.021C85.136,169.985,83.333,171.789,81.116,171.789z M81.116,164.681c-1.703,0-3.088,1.385-3.088,3.088
							s1.385,3.088,3.088,3.088s3.088-1.385,3.088-3.088S82.819,164.681,81.116,164.681z"/>
					</g>
				</g>
			</g>
			<g>
				<g>
					<g>
						<path style="fill:#F2E9DA;" d="M93.829,161.126c-1.916,0-3.476-1.559-3.476-3.475c0-1.916,1.559-3.475,3.476-3.475
							c1.916,0,3.475,1.559,3.475,3.475C97.304,159.567,95.745,161.126,93.829,161.126z M93.829,155.109
							c-1.402,0-2.543,1.14-2.543,2.543s1.141,2.543,2.543,2.543c1.402,0,2.543-1.14,2.543-2.543S95.231,155.109,93.829,155.109z"/>
					</g>
				</g>
			</g>
			<g>
				<g>
					<g>
						<path style="fill:#F2E9DA;" d="M81.116,157.139c-1.377,0-2.497-1.12-2.497-2.497s1.121-2.498,2.497-2.498
							c1.377,0,2.497,1.121,2.497,2.498S82.493,157.139,81.116,157.139z M81.116,153.077c-0.863,0-1.565,0.702-1.565,1.565
							c0,0.862,0.702,1.565,1.565,1.565s1.565-0.702,1.565-1.565C82.68,153.779,81.978,153.077,81.116,153.077z"/>
					</g>
				</g>
			</g>
		</g>
		<g>
			<g>
				<path style="fill:#25292B;" d="M581.935,299.743h-6c-0.276,0-0.5-0.224-0.5-0.5s0.224-0.5,0.5-0.5h6c0.276,0,0.5,0.224,0.5,0.5
					S582.211,299.743,581.935,299.743z M569.935,299.743h-6c-0.276,0-0.5-0.224-0.5-0.5s0.224-0.5,0.5-0.5h6
					c0.276,0,0.5,0.224,0.5,0.5S570.211,299.743,569.935,299.743z M557.939,299.646c-0.021,0-0.041-0.001-0.063-0.004
					c-2.06-0.254-4.06-1.001-5.784-2.159c-0.229-0.154-0.291-0.465-0.137-0.693c0.155-0.231,0.469-0.289,0.693-0.137
					c1.596,1.071,3.445,1.762,5.351,1.997c0.273,0.033,0.469,0.283,0.435,0.558C558.403,299.46,558.188,299.646,557.939,299.646z
					 M587.925,299.591c-0.239,0-0.451-0.173-0.492-0.418c-0.046-0.272,0.139-0.529,0.411-0.575c1.89-0.315,3.662-1.144,5.127-2.394
					c0.209-0.18,0.525-0.156,0.704,0.056c0.18,0.21,0.155,0.525-0.056,0.704c-1.602,1.368-3.542,2.274-5.611,2.62
					C587.98,299.589,587.952,299.591,587.925,299.591z M523.804,298.345c-0.276,0-0.5-0.224-0.5-0.5v-6c0-0.276,0.224-0.5,0.5-0.5
					s0.5,0.224,0.5,0.5v6C524.304,298.121,524.08,298.345,523.804,298.345z M548.332,293.204c-0.174,0-0.344-0.091-0.436-0.254
					c-1.02-1.805-1.609-3.857-1.704-5.937c-0.013-0.275,0.2-0.51,0.477-0.521c0.302-0.028,0.509,0.201,0.521,0.477
					c0.09,1.949,0.62,3.797,1.577,5.489c0.136,0.24,0.051,0.546-0.189,0.682C548.5,293.184,548.416,293.204,548.332,293.204z
					 M596.618,292.177c-0.053,0-0.106-0.009-0.16-0.026c-0.262-0.088-0.402-0.372-0.313-0.634c0.367-1.088,0.553-2.229,0.553-3.392
					v-2.385c0-0.276,0.224-0.5,0.5-0.5s0.5,0.224,0.5,0.5v2.385c0,1.271-0.204,2.521-0.605,3.712
					C597.021,292.045,596.827,292.177,596.618,292.177z M523.816,286.345c-0.008,0-0.016,0-0.023-0.001
					c-0.276-0.013-0.489-0.247-0.476-0.522c0.099-2.097,0.75-4.135,1.886-5.895c0.15-0.232,0.462-0.3,0.69-0.149
					c0.232,0.149,0.3,0.459,0.149,0.69c-1.039,1.612-1.637,3.48-1.728,5.4C524.304,286.136,524.082,286.345,523.816,286.345z
					 M545.43,281.69c-0.182,0-0.356-0.1-0.445-0.272c-0.874-1.708-2.188-3.164-3.801-4.209c-0.231-0.15-0.297-0.46-0.147-0.692
					c0.151-0.232,0.461-0.294,0.692-0.147c1.759,1.141,3.192,2.729,4.146,4.594c0.126,0.245,0.028,0.547-0.218,0.673
					C545.585,281.673,545.507,281.69,545.43,281.69z M597.197,280.24c-0.276,0-0.5-0.224-0.5-0.5v-6c0-0.276,0.224-0.5,0.5-0.5
					s0.5,0.224,0.5,0.5v6C597.697,280.017,597.474,280.24,597.197,280.24z M530.017,276.714c-0.181,0-0.355-0.099-0.444-0.271
					c-0.127-0.245-0.03-0.547,0.216-0.673c1.874-0.965,3.97-1.412,6.052-1.3c0.276,0.014,0.488,0.249,0.474,0.524
					c-0.014,0.275-0.213,0.51-0.524,0.474c-1.937-0.095-3.83,0.309-5.544,1.19C530.172,276.696,530.094,276.714,530.017,276.714z
					 M597.197,268.24c-0.276,0-0.5-0.224-0.5-0.5v-6c0-0.276,0.224-0.5,0.5-0.5s0.5,0.224,0.5,0.5v6
					C597.697,268.017,597.474,268.24,597.197,268.24z M597.197,256.24c-0.276,0-0.5-0.224-0.5-0.5v-6c0-0.276,0.224-0.5,0.5-0.5
					s0.5,0.224,0.5,0.5v6C597.697,256.017,597.474,256.24,597.197,256.24z M597.197,244.24c-0.276,0-0.5-0.224-0.5-0.5v-6
					c0-0.276,0.224-0.5,0.5-0.5s0.5,0.224,0.5,0.5v6C597.697,244.017,597.474,244.24,597.197,244.24z M597.197,232.24
					c-0.276,0-0.5-0.224-0.5-0.5v-6c0-0.276,0.224-0.5,0.5-0.5s0.5,0.224,0.5,0.5v6C597.697,232.017,597.474,232.24,597.197,232.24z
					 M597.024,220.251c-0.24,0-0.452-0.173-0.492-0.418c-0.313-1.893-1.083-3.71-2.226-5.258c-0.164-0.222-0.117-0.535,0.105-0.699
					c0.22-0.164,0.534-0.117,0.699,0.105c1.236,1.674,2.068,3.641,2.407,5.688c0.045,0.272-0.139,0.53-0.411,0.575
					C597.079,220.249,597.052,220.251,597.024,220.251z M590.165,210.944c-0.076,0-0.152-0.017-0.225-0.053
					c-1.718-0.865-3.57-1.303-5.507-1.303c-0.276,0-0.527-0.224-0.527-0.5s0.197-0.5,0.474-0.5c2.147,0,4.151,0.474,6.01,1.41
					c0.247,0.125,0.346,0.425,0.222,0.671C590.523,210.844,590.348,210.944,590.165,210.944z"/>
			</g>
		</g>
		<g>
			<g>
				<path style="fill:#25292B;" d="M60.332,356.888c-0.002,0-0.005,0-0.008,0c-0.421,0-0.838-0.021-1.249-0.06
					c-0.275-0.026-0.476-0.271-0.45-0.546c0.026-0.275,0.277-0.465,0.545-0.45c0.38,0.037,0.765,0.056,1.154,0.056
					c0.002,0,0.005,0,0.007,0c1.549,0,3.055-0.297,4.477-0.881c0.256-0.107,0.547,0.016,0.653,0.271
					c0.105,0.256-0.017,0.548-0.272,0.653C63.646,356.565,62.012,356.888,60.332,356.888z M53.527,354.841
					c-0.095,0-0.191-0.027-0.276-0.084c-1.735-1.152-3.179-2.729-4.175-4.557c-0.132-0.242-0.043-0.546,0.2-0.679
					c0.244-0.131,0.546-0.041,0.678,0.2c0.918,1.686,2.25,3.14,3.851,4.203c0.23,0.152,0.292,0.463,0.14,0.692
					C53.848,354.763,53.689,354.841,53.527,354.841z M69.784,352.45c-0.113,0-0.226-0.038-0.319-0.116
					c-0.212-0.176-0.241-0.491-0.064-0.704c1.231-1.479,2.088-3.252,2.478-5.129c0.056-0.271,0.321-0.451,0.591-0.388
					c0.271,0.056,0.444,0.32,0.388,0.591c-0.423,2.037-1.353,3.962-2.689,5.566C70.07,352.389,69.928,352.45,69.784,352.45z
					 M48.023,344.713c-0.273,0-0.497-0.22-0.5-0.494l0-6.006c0-0.276,0.224-0.5,0.5-0.5s0.5,0.224,0.5,0.5l0,5.994
					c0.003,0.276-0.218,0.503-0.494,0.506C48.027,344.713,48.025,344.713,48.023,344.713z M72.625,341.121
					c-0.276,0-0.5-0.224-0.5-0.5v-6c0-0.276,0.224-0.5,0.5-0.5s0.5,0.224,0.5,0.5v6C73.125,340.897,72.902,341.121,72.625,341.121z
					 M48.023,332.713c-0.276,0-0.5-0.224-0.5-0.5v-6c0-0.276,0.224-0.5,0.5-0.5s0.5,0.224,0.5,0.5v6
					C48.523,332.489,48.299,332.713,48.023,332.713z M72.625,329.121c-0.276,0-0.5-0.224-0.5-0.5v-6c0-0.276,0.224-0.5,0.5-0.5
					s0.5,0.224,0.5,0.5v6C73.125,328.897,72.902,329.121,72.625,329.121z M48.023,320.713c-0.276,0-0.5-0.224-0.5-0.5v-6
					c0-0.276,0.224-0.5,0.5-0.5s0.5,0.224,0.5,0.5v6C48.523,320.489,48.299,320.713,48.023,320.713z M72.625,317.121
					c-0.276,0-0.5-0.224-0.5-0.5v-6c0-0.276,0.224-0.5,0.5-0.5s0.5,0.224,0.5,0.5v6C73.125,316.897,72.902,317.121,72.625,317.121z
					 M48.023,308.713c-0.276,0-0.5-0.224-0.5-0.5v-6c0-0.276,0.224-0.5,0.5-0.5s0.5,0.224,0.5,0.5v6
					C48.523,308.489,48.299,308.713,48.023,308.713z M72.625,305.121c-0.276,0-0.5-0.224-0.5-0.5v-6c0-0.276,0.224-0.5,0.5-0.5
					s0.5,0.224,0.5,0.5v6C73.125,304.897,72.902,305.121,72.625,305.121z M48.023,296.713c-0.276,0-0.5-0.224-0.5-0.5v-6
					c0-0.276,0.224-0.5,0.5-0.5s0.5,0.224,0.5,0.5v6C48.523,296.489,48.299,296.713,48.023,296.713z M72.625,293.121
					c-0.276,0-0.5-0.224-0.5-0.5v-6c0-0.276,0.224-0.5,0.5-0.5s0.5,0.224,0.5,0.5v6C73.125,292.897,72.902,293.121,72.625,293.121z
					 M48.023,284.713c-0.276,0-0.5-0.224-0.5-0.5v-6c0-0.276,0.224-0.5,0.5-0.5s0.5,0.224,0.5,0.5v6
					C48.523,284.489,48.299,284.713,48.023,284.713z M72.625,281.121c-0.276,0-0.5-0.224-0.5-0.5v-6c0-0.276,0.224-0.5,0.5-0.5
					s0.5,0.224,0.5,0.5v6C73.125,280.897,72.902,281.121,72.625,281.121z M48.023,272.713c-0.276,0-0.5-0.224-0.5-0.5v-6
					c0-0.276,0.224-0.5,0.5-0.5s0.5,0.224,0.5,0.5v6C48.523,272.489,48.299,272.713,48.023,272.713z M72.625,269.121
					c-0.276,0-0.5-0.224-0.5-0.5v-6c0-0.276,0.224-0.5,0.5-0.5s0.5,0.224,0.5,0.5v6C73.125,268.897,72.902,269.121,72.625,269.121z
					 M48.023,260.713c-0.276,0-0.5-0.224-0.5-0.5v-6c0-0.276,0.224-0.5,0.5-0.5s0.5,0.224,0.5,0.5v6
					C48.523,260.489,48.299,260.713,48.023,260.713z M72.625,257.121c-0.276,0-0.5-0.224-0.5-0.5v-6c0-0.276,0.224-0.5,0.5-0.5
					s0.5,0.224,0.5,0.5v6C73.125,256.897,72.902,257.121,72.625,257.121z M48.023,248.713c-0.276,0-0.5-0.224-0.5-0.5v-0.857
					c0-1.667-0.341-3.279-1.013-4.791c-0.112-0.252,0.001-0.548,0.254-0.66c0.253-0.111,0.548,0.002,0.66,0.254
					c0.729,1.641,1.099,3.389,1.099,5.197v0.857C48.523,248.489,48.299,248.713,48.023,248.713z M72.854,245.136
					c-0.032,0-0.063-0.003-0.096-0.009c-0.271-0.053-0.448-0.315-0.396-0.586c0.397-2.041,1.302-3.977,2.618-5.599
					c0.173-0.214,0.488-0.248,0.703-0.073c0.214,0.174,0.248,0.489,0.073,0.703c-1.213,1.495-2.047,3.279-2.413,5.16
					C73.297,244.971,73.088,245.136,72.854,245.136z M43.314,238.177c-0.108,0-0.217-0.035-0.308-0.107
					c-1.514-1.189-3.312-1.996-5.198-2.332c-0.272-0.048-0.453-0.308-0.404-0.58c0.048-0.271,0.304-0.454,0.58-0.404
					c2.047,0.365,3.998,1.24,5.64,2.53c0.217,0.17,0.255,0.485,0.084,0.702C43.609,238.112,43.462,238.177,43.314,238.177z
					 M80.11,236.179c-0.194,0-0.379-0.114-0.46-0.304c-0.108-0.254,0.01-0.547,0.264-0.656c1.587-0.676,3.273-1.019,5.013-1.019
					c0.339,0,0.675-0.014,1.008-0.041c0.285-0.02,0.517,0.183,0.539,0.458s-0.183,0.516-0.458,0.539
					c-0.359,0.029-0.722,0.043-1.088,0.043c-1.604,0-3.159,0.316-4.621,0.939C80.242,236.166,80.175,236.179,80.11,236.179z
					 M31.908,235.555h-6c-0.276,0-0.5-0.224-0.5-0.5s0.224-0.5,0.5-0.5h6c0.276,0,0.5,0.224,0.5,0.5S32.185,235.555,31.908,235.555z
					 M91.632,233.331c-0.169,0-0.334-0.085-0.428-0.241c-0.143-0.236-0.068-0.543,0.168-0.687c1.642-0.996,3.053-2.38,4.081-4.004
					c0.146-0.234,0.456-0.304,0.689-0.155c0.233,0.147,0.303,0.457,0.155,0.689c-1.109,1.754-2.633,3.249-4.407,4.325
					C91.81,233.308,91.72,233.331,91.632,233.331z M97.81,223.545c-0.017,0-0.033-0.001-0.05-0.002
					c-0.275-0.027-0.476-0.272-0.448-0.547c0.041-0.409,0.061-0.823,0.061-1.243v-4.706c0-0.276,0.224-0.5,0.5-0.5
					s0.5,0.224,0.5,0.5v4.706c0,0.453-0.022,0.9-0.066,1.341C98.282,223.353,98.064,223.545,97.81,223.545z M97.873,211.548
					c-0.276,0-0.5-0.224-0.5-0.5v-5.317c0-0.238,0.006-0.474,0.019-0.708c0.015-0.276,0.251-0.489,0.525-0.474
					c0.276,0.015,0.488,0.25,0.474,0.525c-0.011,0.218-0.017,0.437-0.018,0.658v5.316C98.373,211.324,98.149,211.548,97.873,211.548
					z M99.556,199.842c-0.083,0-0.168-0.021-0.247-0.065c-0.24-0.136-0.324-0.441-0.188-0.682c1.024-1.802,2.476-3.368,4.198-4.527
					c0.23-0.156,0.54-0.094,0.694,0.135c0.154,0.229,0.094,0.54-0.135,0.694c-1.595,1.074-2.939,2.523-3.888,4.192
					C99.899,199.751,99.73,199.842,99.556,199.842z M109.163,193.389c-0.248,0-0.463-0.184-0.496-0.437
					c-0.035-0.274,0.159-0.524,0.433-0.56c0.566-0.072,1.146-0.109,1.72-0.109h4.338c0.276,0,0.5,0.224,0.5,0.5s-0.224,0.5-0.5,0.5
					h-4.338c-0.533,0-1.069,0.034-1.593,0.101C109.205,193.388,109.184,193.389,109.163,193.389z"/>
			</g>
		</g>
	</g>
	<g>
		<g>
			<rect x="310.744" y="386.524" style="fill:#25292B;" width="88.819" height="38.78"/>
		</g>
		<g>
			<g>
				<path style="fill:#366985;" d="M306.296,222.833l-39.963,5.088c-14.937,1.902-27.147,12.832-30.685,27.468l-5.892,48.525h41.421
					l-6.069,64.124l37.575,21.127h89.143l-10.193-71.166l5.745-22.61h33.174l-8.439-38.382
					c-3.092-14.064-14.209-24.968-28.33-27.789l-31.963-6.385H306.296z"/>
			</g>
			<g>
				<path style="fill:#F2E9DA;" d="M319.737,337.273v28.169h-77.35c-8.09,0-14.49-6.84-13.96-14.92l3.09-46.61h41.88l-2.96,23.72
					L319.737,337.273z"/>
			</g>
			<g>
				<polygon style="fill:#25292B;" points="280.583,304.412 256.536,304.412 256.536,303.412 279.748,303.412 284.121,279.27 
					285.105,279.447 				"/>
			</g>
			<g>
				
					<rect x="365.764" y="297.344" transform="matrix(0.2343 -0.9722 0.9722 0.2343 6.3997 603.8145)" style="fill:#25292B;" width="41.466" height="1"/>
			</g>
		</g>
		<g>
			<g>
				<path style="fill:#F2E9DA;" d="M477.455,251.654L477.455,251.654c-3.018-0.889-4.761-4.086-3.872-7.104l9.766-33.166
					c0.889-3.018,4.086-4.761,7.104-3.872l0,0c3.018,0.889,4.761,4.086,3.872,7.104l-9.766,33.166
					C483.67,250.801,480.473,252.543,477.455,251.654z"/>
			</g>
			<g>
				<path style="fill:#F2E9DA;" d="M483.835,256.849L483.835,256.849c-2.942-1.116-4.435-4.437-3.319-7.379l5.942-15.657
					c1.116-2.942,4.437-4.435,7.379-3.319l0,0c2.942,1.116,4.435,4.437,3.319,7.379l-5.942,15.657
					C490.097,256.472,486.777,257.965,483.835,256.849z"/>
			</g>
			<g>
				<path style="fill:#F2E9DA;" d="M491.207,263.148L491.207,263.148c-2.942-1.116-4.435-4.437-3.319-7.378l6.105-16.087
					c1.116-2.942,4.437-4.435,7.378-3.319h0c2.942,1.116,4.435,4.437,3.319,7.379l-6.105,16.087
					C497.469,262.771,494.149,264.264,491.207,263.148z"/>
			</g>
			<g>
				<path style="fill:#F2E9DA;" d="M498.557,262.015L498.557,262.015c-2.486-1.929-2.942-5.541-1.013-8.027l6.295-8.114
					c1.929-2.486,5.541-2.942,8.027-1.013v0c2.486,1.929,2.942,5.541,1.013,8.027l-6.295,8.114
					C504.655,263.488,501.043,263.944,498.557,262.015z"/>
			</g>
			<g>
				<path style="fill:#F2E9DA;" d="M496.007,247.323L496.007,247.323c-0.657,3.077-3.712,5.057-6.789,4.4l-16.827-3.593
					c-3.077-0.657-5.057-3.712-4.4-6.789v0c0.657-3.077,3.712-5.057,6.789-4.4l16.827,3.593
					C494.684,241.191,496.664,244.246,496.007,247.323z"/>
			</g>
			<g>
				<path style="fill:#F2E9DA;" d="M503.02,259.99c-2.62,12.98-17.73,20.71-17.73,20.71l-44.61,50.31
					c-6.41,8.39-16.36,13.3-26.92,13.3l-29.26-0.46l-4.17-28.63l6.44-19.99h28.56l1.12,3.69l45.12-33.66l6.42-23.92L503.02,259.99z"
					/>
			</g>
			<g>
				<path style="fill:#25292B;" d="M488.836,258.691c-0.006,0-0.013,0-0.019,0c-0.276-0.011-0.491-0.243-0.481-0.519
					c0.025-0.669,0.159-1.328,0.398-1.959l1.322-4.025c0.085-0.262,0.369-0.409,0.631-0.318c0.262,0.086,0.405,0.368,0.318,0.631
					l-1.329,4.047c-0.208,0.55-0.32,1.103-0.341,1.662C489.325,258.479,489.104,258.691,488.836,258.691z"/>
			</g>
			<g>
				<path style="fill:#25292B;" d="M493.208,264.013c-0.732,0-1.471-0.129-2.179-0.397c-1.327-0.504-2.451-1.46-3.166-2.694
					c-0.139-0.239-0.057-0.545,0.182-0.684c0.237-0.139,0.544-0.06,0.684,0.182c0.6,1.036,1.543,1.839,2.656,2.261
					c2.13,0.81,4.598,0.107,5.994-1.703c0.169-0.219,0.482-0.259,0.701-0.092c0.219,0.169,0.26,0.482,0.092,0.701
					C496.972,263.145,495.107,264.013,493.208,264.013z"/>
			</g>
			<g>
				<path style="fill:#25292B;" d="M502.044,263.711c-1.373,0-2.697-0.449-3.794-1.3c-0.308-0.239-0.594-0.508-0.851-0.799
					c-0.183-0.207-0.163-0.523,0.044-0.706c0.208-0.183,0.523-0.162,0.706,0.044c0.215,0.244,0.455,0.47,0.714,0.671
					c1.097,0.851,2.468,1.224,3.854,1.047c1.388-0.175,2.621-0.876,3.472-1.973c0.17-0.22,0.482-0.257,0.702-0.089
					c0.218,0.17,0.258,0.483,0.089,0.702c-1.015,1.308-2.484,2.144-4.138,2.352C502.575,263.694,502.309,263.711,502.044,263.711z"
					/>
			</g>
			<g>
				<path style="fill:#25292B;" d="M488.423,263.521c-0.004,0-0.008,0-0.013,0c-0.275-0.007-0.494-0.236-0.487-0.513
					c0.02-0.766-0.021-1.53-0.12-2.272c-0.037-0.273,0.155-0.525,0.429-0.562c0.266-0.051,0.525,0.154,0.562,0.429
					c0.106,0.794,0.15,1.612,0.13,2.431C488.916,263.305,488.693,263.521,488.423,263.521z"/>
			</g>
			<g>
				<path style="fill:#25292B;" d="M488.297,261.169c-0.246,0-0.461-0.183-0.494-0.434c-0.978-7.3-7.454-10.788-7.52-10.822
					c-0.225-0.119-0.325-0.386-0.233-0.623c0.091-0.236,0.342-0.369,0.591-0.304l8.702,2.252c2.794,0.597,5.574-1.206,6.175-4.021
					c0.29-1.357,0.031-2.752-0.73-3.926c-0.761-1.174-1.928-1.98-3.285-2.271l-16.827-3.593c-0.27-0.058-0.442-0.323-0.385-0.593
					c0.059-0.27,0.328-0.441,0.594-0.384l16.827,3.593c1.619,0.345,3.01,1.306,3.916,2.704c0.906,1.398,1.215,3.06,0.869,4.679
					c-0.718,3.354-4.03,5.499-7.383,4.785l-6.016-1.558c2.133,1.771,5.036,5.023,5.695,9.947c0.037,0.273-0.155,0.525-0.429,0.562
					C488.342,261.168,488.319,261.169,488.297,261.169z"/>
			</g>
			<g>
				<path style="fill:#25292B;" d="M486.983,240.047c-0.047,0-0.094-0.006-0.142-0.021c-0.265-0.078-0.416-0.356-0.338-0.621
					l2.646-8.984c0.078-0.265,0.354-0.417,0.621-0.338c0.265,0.078,0.416,0.356,0.338,0.621l-2.646,8.984
					C487.398,239.906,487.199,240.047,486.983,240.047z"/>
			</g>
			<g>
				<path style="fill:#25292B;" d="M495.18,243c-0.059,0-0.118-0.01-0.176-0.032c-0.259-0.097-0.39-0.385-0.292-0.644l2.326-6.199
					c0.097-0.259,0.387-0.388,0.644-0.292c0.259,0.097,0.39,0.385,0.292,0.644l-2.326,6.199C495.572,242.876,495.382,243,495.18,243
					z"/>
			</g>
			<g>
				<path style="fill:#25292B;" d="M497.775,261.781c-0.062,0-0.123-0.011-0.183-0.035c-0.258-0.101-0.384-0.391-0.282-0.647
					l6.063-15.407c0.101-0.258,0.396-0.381,0.647-0.282c0.258,0.101,0.384,0.392,0.282,0.648l-6.063,15.406
					C498.163,261.661,497.975,261.781,497.775,261.781z"/>
			</g>
		</g>
		<g>
			<path style="fill:#25292B;" d="M380.224,154.345c-4.222,8.314-13.442,12.794-22.534,12.47c-0.481,2.111-1.204,4.157-2.185,6.073
				c-3.009,5.851-8.193,10.471-14.396,12.711c-5.694,2.055-12.563,2.12-17.22-1.87c-4.573,0.805-9.304,0.398-13.739-1.12
				c-10.332-3.527-17.377-13.72-17.442-24.589c-0.028-5.434,1.481-11.128,5.129-15.285c3.083-3.518,7.684-5.573,12.248-5.101
				c-0.167-1.065-0.213-2.148-0.13-3.231c0.481-6.11,5.481-10.684,11.285-11.85c5.092-1.028,10.313,1.065,13.887,4.694
				c0.444-0.991,0.972-1.953,1.602-2.87c4.018-5.814,11.656-8.175,18.349-6.166c6.027,1.815,10.517,7.24,11.47,13.415
				c2.102-0.287,4.296-0.065,6.397,0.667C381.798,135.339,384.122,146.679,380.224,154.345z"/>
			<g>
				<g>
					<path style="fill:#F2E9DA;" d="M296.171,188.514c2.717,6.868,7.717,10.729,14.188,9.003l-4.063,25.315l31.231,31.228
						l14.512-26.87l-0.581-11.434l4.871-4.494c8.139-7.514,12.428-18.304,11.657-29.351l-1.679-24.078
						c-0.054,0.026-0.119,0.042-0.173,0.056c-4.215,1.191-8.682,1.17-13.042,0.755c-5.04-0.468-10.073-1.469-14.654-3.609
						c-0.069,1.39-0.68,2.806-1.64,3.815c-1.735,1.816-4.319,2.561-6.82,2.758c-3.504,0.267-7.076-0.426-10.231-1.99
						c-1.573,4.453-3.293,8.86-5.162,13.2l0.008,0.11c-0.012-0.01-0.024-0.02-0.035-0.031c-2.45-2.089-5.492-3.295-8.587-3.356
						c-1.609-0.032-3.229,0.247-4.792,0.866C294.377,173.107,293.254,181.151,296.171,188.514z"/>
				</g>
			</g>
			<g>
				<g>
					
						<ellipse transform="matrix(0.9976 -0.0696 0.0696 0.9976 -11.4803 25.5245)" style="fill:#25292B;" cx="360.709" cy="177.582" rx="3.602" ry="3.984"/>
				</g>
			</g>
			<g>
				<g>
					
						<ellipse transform="matrix(0.9976 -0.0696 0.0696 0.9976 -11.6392 24.0087)" style="fill:#25292B;" cx="338.867" cy="179.105" rx="3.602" ry="3.984"/>
				</g>
			</g>
			<g>
				<g>
					<path style="fill:#25292B;" d="M357.083,168.501c2.669-1.058,5.775-0.788,8.128,0.918c0.468,0.339,0.705,1.008,0.351,1.523
						c-0.32,0.466-1.023,0.714-1.523,0.351c-0.231-0.168-0.469-0.324-0.719-0.463c-0.122-0.068-0.246-0.132-0.371-0.193
						c-0.014-0.006-0.029-0.013-0.043-0.019c-0.066-0.028-0.131-0.055-0.198-0.081c-0.265-0.105-0.537-0.194-0.812-0.267
						c-0.138-0.037-0.277-0.068-0.416-0.098c-0.025-0.005-0.049-0.01-0.067-0.014c-0.077-0.012-0.154-0.023-0.231-0.033
						c-0.283-0.036-0.568-0.055-0.853-0.058c-0.143-0.002-0.285,0.001-0.428,0.007c-0.071,0.003-0.142,0.008-0.213,0.013
						c-0.004,0-0.001,0-0.004,0c-0.009,0.001-0.003,0.001-0.02,0.003c-0.283,0.037-0.563,0.084-0.841,0.151
						c-0.139,0.034-0.276,0.071-0.412,0.113c-0.068,0.021-0.136,0.044-0.203,0.066c-0.019,0.006-0.027,0.009-0.035,0.011
						c-0.013,0.005-0.021,0.008-0.039,0.015c-0.535,0.212-1.217,0.134-1.498-0.447C356.401,169.513,356.508,168.729,357.083,168.501
						z"/>
				</g>
			</g>
			<g>
				<g>
					<path style="fill:#25292B;" d="M341.832,171.031c-0.198,0.614-0.862,0.786-1.422,0.65c-0.018-0.004-0.026-0.007-0.04-0.01
						c-0.008-0.001-0.017-0.002-0.036-0.006c-0.07-0.013-0.14-0.026-0.211-0.037c-0.141-0.023-0.282-0.041-0.424-0.055
						c-0.284-0.028-0.568-0.035-0.854-0.033c-0.017,0-0.011,0-0.02,0c-0.003,0-0.001,0-0.004,0c-0.071,0.005-0.142,0.01-0.213,0.017
						c-0.142,0.013-0.284,0.031-0.425,0.052c-0.282,0.043-0.562,0.102-0.837,0.176c-0.075,0.02-0.15,0.042-0.224,0.065
						c-0.017,0.006-0.04,0.014-0.064,0.023c-0.134,0.049-0.267,0.1-0.399,0.155c-0.263,0.111-0.519,0.237-0.767,0.377
						c-0.062,0.035-0.123,0.071-0.184,0.108c-0.013,0.008-0.027,0.017-0.04,0.025c-0.115,0.078-0.229,0.158-0.34,0.243
						c-0.227,0.173-0.442,0.36-0.647,0.558c-0.445,0.428-1.176,0.28-1.557-0.137c-0.422-0.461-0.28-1.156,0.137-1.557
						c2.093-2.016,5.131-2.714,7.922-2.037C341.783,169.755,341.998,170.517,341.832,171.031z"/>
				</g>
			</g>
			<g>
				<polygon style="fill:#25292B;" points="359.456,193.762 347.567,193.059 347.626,192.061 358.071,192.678 352.832,175.886 
					353.787,175.588 				"/>
			</g>
			<g>
				<path style="fill:#25292B;" d="M307.364,194.336c-2.55,0-5.022-1.438-6.258-3.682c-1.311-2.382-1.11-5.454,0.5-7.645
					c0.882-1.2,2.052-1.968,3.294-2.164c0.947-0.149,1.893,0.07,2.625,0.558c-0.095-1.119-0.289-2.306-0.72-3.429
					c-0.621-1.614-1.667-2.85-2.947-3.479c-0.845-0.416-1.713-0.5-2.384-0.227c-0.962,0.39-1.528,1.438-2.071,2.569l-0.901-0.433
					c0.605-1.263,1.304-2.54,2.597-3.063c0.935-0.379,2.102-0.285,3.201,0.256c1.506,0.742,2.728,2.168,3.439,4.019
					c0.665,1.73,0.809,3.554,0.862,5.111l0.074,2.15l-1.014-1.897c-0.445-0.833-1.542-1.318-2.604-1.147
					c-0.965,0.152-1.929,0.797-2.644,1.769c-1.362,1.853-1.539,4.555-0.43,6.57c1.109,2.015,3.483,3.313,5.782,3.15l0.069,0.998
					C307.678,194.331,307.521,194.336,307.364,194.336z"/>
			</g>
			<g>
				<path style="fill:#25292B;" d="M343.604,219.502c-2.339,0-4.464-0.789-5.947-1.532c-2.367-1.186-4.448-2.878-6.284-4.372
					l0.631-0.775c1.796,1.461,3.832,3.117,6.101,4.253c1.698,0.851,4.296,1.767,7.003,1.3c2.238-0.384,4.214-1.599,6.492-3.304
					l0.6,0.801c-2.072,1.55-4.345,3.046-6.922,3.489C344.711,219.459,344.151,219.502,343.604,219.502z"/>
			</g>
			<g>
				<path style="fill:#25292B;" d="M347.174,201.973c-4.543-0.659-8.609-4.016-10.119-8.352l0.945-0.329
					c1.39,3.993,5.135,7.084,9.318,7.691L347.174,201.973z"/>
			</g>
		</g>
		<g>
			<rect x="280.258" y="372.856" style="fill:#95BFCE;" width="94.703" height="9.081"/>
		</g>
		<g>
			<g>
				<polygon style="fill:#95BFCE;" points="435.976,381.937 300.605,381.937 320.605,300.763 455.976,300.763 				"/>
			</g>
			<g>
				<rect x="280.258" y="372.356" style="fill:#25292B;" width="157.678" height="1"/>
			</g>
		</g>
		<g>
			<g>
				<g>
					<path style="fill:#366985;" d="M474.965,449.382c-4.355,6.344-11.307,10.34-18.861,10.966c-1.07,0.089-2.147,0.104-3.228,0.057
						l-71.612-3.128l-8.705-7.429l4.905-26l9.916-0.822l60.848-13.284c9.15-1.998,18.655,1.19,24.745,8.304l0.329,0.381
						C480.804,427.182,481.486,439.885,474.965,449.382z"/>
				</g>
				<g>
					<path style="fill:#F2E9DA;" d="M458.449,459.435l-0.68-0.734c4.873-4.505,8.383-10.281,9.883-16.265
						c1.598-6.372,0.935-13.206-1.819-18.751c-2.905-5.853-8.213-10.357-14.196-12.051l0.271-0.963
						c6.251,1.77,11.791,6.468,14.821,12.568c2.857,5.755,3.548,12.84,1.894,19.439
						C467.076,448.849,463.463,454.799,458.449,459.435z"/>
				</g>
				<g>
					<path style="fill:#25292B;" d="M385.354,451.517l-1-0.029c0.243-8.115,0.962-16.304,2.136-24.337l0.99,0.145
						C386.311,435.291,385.595,443.44,385.354,451.517z"/>
				</g>
				<g>
					<path style="fill:#F2E9DA;" d="M404.64,450.152c-1.904-7.607-1.825-15.629,0.23-23.196l0.965,0.262
						c-2.011,7.403-2.088,15.25-0.225,22.692L404.64,450.152z"/>
				</g>
				<g>
					<path style="fill:#F2E9DA;" d="M411.366,449.611c-1.877-7.199-1.596-15.047,0.792-22.096l0.947,0.32
						c-2.326,6.867-2.601,14.511-0.772,21.523L411.366,449.611z"/>
				</g>
				<g>
					<path style="fill:#F2E9DA;" d="M417.265,449.192c-1.492-7.193-0.706-14.869,2.211-21.611l0.918,0.396
						c-2.837,6.556-3.601,14.018-2.15,21.012L417.265,449.192z"/>
				</g>
				<g>
					<path style="fill:#25292B;" d="M443.412,455.016c-4.081-5.309-6.286-11.92-6.208-18.617c0.079-6.697,2.438-13.256,6.641-18.467
						l0.779,0.627c-4.063,5.038-6.344,11.378-6.42,17.852c-0.075,6.474,2.056,12.864,6.001,17.996L443.412,455.016z"/>
				</g>
			</g>
			<g>
				<path style="fill:#25292B;" d="M366.757,411.318l-15.042,48.586l-133.076-34.837c-15.016-3.931-25.101-16.854-26.3-31.308
					c-0.4-4.826,0.185-9.812,1.915-14.69c6.784-19.214,28.358-28.734,47.124-20.789L366.757,411.318z"/>
			</g>
			<g>
				<path style="fill:#25292B;" d="M310.744,434.269l14.409,40.63l156.918-62.94c14.163-6.351,21.982-20.758,20.783-35.212
					c-0.4-4.826-1.799-9.648-4.309-14.173c-9.857-17.834-32.705-23.67-49.905-12.742L310.744,434.269z"/>
			</g>
			<g>
				
					<rect x="305.844" y="405.332" transform="matrix(0.8496 -0.5274 0.5274 0.8496 -159.9828 250.5502)" style="fill:#F2E9DA;" width="107.094" height="1"/>
			</g>
			<g>
				
					<rect x="331.406" y="368.969" transform="matrix(0.3951 -0.9186 0.9186 0.3951 -163.7152 544.8742)" style="fill:#F2E9DA;" width="0.999" height="55.578"/>
			</g>
			<g>
				<g>
					<path style="fill:#366985;" d="M226.526,477.804c5.34,5.54,12.856,8.336,20.41,7.709c1.07-0.089,2.135-0.251,3.194-0.475
						l70.118-14.883l7.362-8.762l-9.121-24.836l-9.916,0.822l-62.206-3.079c-9.354-0.463-18.204,4.247-23.039,12.267l-0.262,0.43
						C217.109,456.869,218.529,469.511,226.526,477.804z"/>
				</g>
				<g>
					<path style="fill:#F2E9DA;" d="M244.472,484.998c-5.709-3.745-10.253-9.02-12.795-14.85c-2.719-6.237-3.205-13.34-1.334-19.486
						c1.983-6.517,6.674-12.063,12.548-14.838l0.427,0.904c-5.623,2.655-10.115,7.974-12.018,14.225
						c-1.803,5.923-1.331,12.773,1.294,18.795c2.465,5.655,6.878,10.773,12.427,14.414L244.472,484.998z"/>
				</g>
				<g>
					<path style="fill:#25292B;" d="M315.264,465.147c-1.568-7.925-3.616-15.845-6.087-23.54l0.952-0.307
						c2.482,7.732,4.54,15.69,6.116,23.653L315.264,465.147z"/>
				</g>
				<g>
					<path style="fill:#F2E9DA;" d="M310.384,475.406c-1.342,0-2.722-0.607-3.761-1.441c-2.463-1.977-3.98-5.196-4.638-9.843
						c-0.148-1.05-0.255-2.109-0.362-3.168c-0.248-2.464-0.503-5.011-1.323-7.35l0.254-0.089c-0.005-0.033-0.011-0.067-0.017-0.102
						l-0.369-0.297c0.089-0.11,0.178-0.222,0.268-0.333c-1.15-7.114-2.241-14.447-1.244-21.752c0.245-1.79,0.801-4.298,2.801-5.414
						c1.581-0.884,3.78-0.579,5.348,0.741c1.25,1.051,2.118,2.634,2.583,4.706c1.074,4.782-0.44,9.366-1.9,12.37
						c-1.712,3.523-4.131,6.634-6.53,9.628c0.016,0.102,0.033,0.204,0.049,0.306c6.356,2.877,11.154,8.665,12.552,15.165
						c0.291,1.352,0.722,4.661-1.542,6.221C311.889,475.212,311.143,475.406,310.384,475.406z M301.626,454.512
						c0.564,2.08,0.781,4.241,0.992,6.342c0.105,1.046,0.21,2.092,0.357,3.128c0.621,4.383,2.019,7.394,4.273,9.204
						c1.294,1.038,3.329,1.718,4.737,0.745c1.766-1.216,1.38-4.032,1.132-5.186C311.821,462.719,307.452,457.332,301.626,454.512z
						 M304.014,426.111c-0.548,0-1.076,0.124-1.534,0.38c-1.61,0.898-2.082,3.099-2.297,4.676
						c-0.936,6.857,0.014,13.802,1.096,20.563c2.174-2.734,4.314-5.579,5.846-8.732c1.39-2.859,2.834-7.214,1.824-11.714
						c-0.416-1.854-1.173-3.253-2.251-4.159C305.909,426.462,304.934,426.111,304.014,426.111z"/>
				</g>
				<g>
					<path style="fill:#F2E9DA;" d="M296.016,466.979l-0.997-0.08c0.612-7.646-0.757-15.373-3.959-22.344l0.909-0.418
						C295.242,451.263,296.642,459.161,296.016,466.979z"/>
				</g>
				<g>
					<path style="fill:#F2E9DA;" d="M289.293,467.553l-0.996-0.09c0.648-7.219-0.882-14.713-4.307-21.101l0.881-0.473
						C288.388,452.447,289.958,460.141,289.293,467.553z"/>
				</g>
				<g>
					<path style="fill:#F2E9DA;" d="M283.406,468.112l-0.999-0.039c0.278-7.138-1.704-14.372-5.582-20.37l0.84-0.543
						C281.653,453.33,283.692,460.771,283.406,468.112z"/>
				</g>
				<g>
					<path style="fill:#25292B;" d="M258.576,478.163l-0.883-0.471c3.046-5.711,4.095-12.366,2.954-18.739
						c-1.141-6.372-4.434-12.249-9.272-16.549l0.664-0.748c5.005,4.449,8.412,10.529,9.593,17.121
						C262.812,465.37,261.726,472.255,258.576,478.163z"/>
				</g>
			</g>
		</g>
	</g>
	<g>
		<g>
			<path style="fill:#25292B;" d="M577.709,271.959H453.122V121.166h124.587V271.959z M454.122,270.959h122.587V122.166H454.122
				V270.959z"/>
		</g>
		<g>
			<rect x="457.037" y="124.724" style="fill:#366985;" width="116.757" height="16.263"/>
		</g>
		<g>
			<g>
				<g>
					<g>
						<path style="fill:#F2E9DA;" d="M552.502,138.378c-0.153,0-0.307-0.05-0.436-0.153l-6.078-4.855
							c-0.166-0.133-0.263-0.334-0.263-0.547c0-0.213,0.097-0.414,0.263-0.547l6-4.793c0.302-0.241,0.742-0.192,0.983,0.11
							c0.241,0.302,0.192,0.742-0.11,0.983l-5.315,4.246l5.393,4.308c0.302,0.241,0.351,0.681,0.11,0.983
							C552.911,138.288,552.708,138.378,552.502,138.378z"/>
					</g>
				</g>
			</g>
			<g>
				<g>
					<g>
						<path style="fill:#F2E9DA;" d="M561.81,138.378c-0.206,0-0.409-0.09-0.547-0.263c-0.241-0.302-0.192-0.742,0.11-0.983
							l5.393-4.308l-5.315-4.246c-0.302-0.241-0.351-0.681-0.11-0.983c0.241-0.302,0.682-0.351,0.983-0.11l6,4.793
							c0.166,0.133,0.263,0.334,0.263,0.547c0,0.213-0.097,0.414-0.263,0.547l-6.078,4.855
							C562.117,138.328,561.963,138.378,561.81,138.378z"/>
					</g>
				</g>
			</g>
			<g>
				<g>
					<g>
						<path style="fill:#F2E9DA;" d="M555.791,139.662c-0.098,0.013-0.2,0.006-0.3-0.025c-0.369-0.114-0.577-0.505-0.463-0.874
							l3.761-12.227c0.113-0.369,0.505-0.577,0.874-0.463c0.369,0.114,0.577,0.505,0.463,0.874l-3.761,12.227
							C556.283,139.443,556.053,139.626,555.791,139.662z"/>
					</g>
				</g>
			</g>
		</g>
		<g>
			<rect x="457.037" y="152.245" style="fill:#95BFCE;" width="62.766" height="5.143"/>
		</g>
		<g>
			<rect x="522.653" y="152.245" style="fill:#366985;" width="30.549" height="5.143"/>
		</g>
		<g>
			<rect x="556.34" y="152.245" style="fill:#25292B;" width="17.454" height="5.143"/>
		</g>
		<g>
			<polyline style="fill:#95BFCE;" points="573.953,169.064 531.186,169.064 531.186,163.921 573.953,163.921 			"/>
		</g>
		<g>
			
				<rect x="497.788" y="163.921" transform="matrix(-1 -1.224647e-16 1.224647e-16 -1 1026.1248 332.9855)" style="fill:#366985;" width="30.549" height="5.143"/>
		</g>
		<g>
			<polyline style="fill:#25292B;" points="457.196,163.921 494.65,163.921 494.65,169.064 457.196,169.064 			"/>
		</g>
		<g>
			<rect x="457.196" y="176.569" style="fill:#366985;" width="22.766" height="5.143"/>
		</g>
		<g>
			<rect x="482.812" y="176.569" style="fill:#95BFCE;" width="63.549" height="5.143"/>
		</g>
		<g>
			<rect x="549.498" y="176.569" style="fill:#25292B;" width="24.454" height="5.143"/>
		</g>
		<g>
			<polyline style="fill:#95BFCE;" points="574.111,193.388 555.345,193.388 555.345,188.245 574.111,188.245 			"/>
		</g>
		<g>
			
				<rect x="497.946" y="188.245" transform="matrix(-1 -1.224647e-16 1.224647e-16 -1 1050.4417 381.6336)" style="fill:#366985;" width="54.549" height="5.143"/>
		</g>
		<g>
			<polyline style="fill:#25292B;" points="457.354,188.245 494.808,188.245 494.808,193.388 457.354,193.388 			"/>
		</g>
		<g>
			<rect x="457.354" y="207.804" style="fill:#95BFCE;" width="62.766" height="5.143"/>
		</g>
		<g>
			<rect x="522.97" y="207.804" style="fill:#366985;" width="30.549" height="5.143"/>
		</g>
		<g>
			<rect x="556.657" y="207.804" style="fill:#25292B;" width="17.454" height="5.143"/>
		</g>
		<g>
			<polyline style="fill:#95BFCE;" points="574.269,224.624 531.503,224.624 531.503,219.481 574.269,219.481 			"/>
		</g>
		<g>
			
				<rect x="498.105" y="219.481" transform="matrix(-1 -1.224647e-16 1.224647e-16 -1 1026.7585 444.1042)" style="fill:#366985;" width="30.549" height="5.143"/>
		</g>
		<g>
			<polyline style="fill:#25292B;" points="457.513,219.481 494.967,219.481 494.967,224.624 457.513,224.624 			"/>
		</g>
		<g>
			<rect x="457.513" y="232.128" style="fill:#366985;" width="22.766" height="5.143"/>
		</g>
		<g>
			<rect x="483.128" y="232.128" style="fill:#95BFCE;" width="63.549" height="5.143"/>
		</g>
		<g>
			<rect x="549.815" y="232.128" style="fill:#25292B;" width="24.454" height="5.143"/>
		</g>
		<g>
			<polyline style="fill:#95BFCE;" points="574.428,248.948 555.662,248.948 555.662,243.805 574.428,243.805 			"/>
		</g>
		<g>
			
				<rect x="498.263" y="243.805" transform="matrix(-1 -1.224647e-16 1.224647e-16 -1 1051.0753 492.7523)" style="fill:#366985;" width="54.549" height="5.143"/>
		</g>
		<g>
			<polyline style="fill:#25292B;" points="457.671,243.805 495.125,243.805 495.125,248.948 457.671,248.948 			"/>
		</g>
	</g>
	<g>
		<g>
			<path style="fill:#25292B;" d="M243.747,227.472H119.16V76.679h124.587V227.472z M120.16,226.472h122.587V77.679H120.16V226.472z
				"/>
		</g>
		<g>
			<rect x="123.075" y="80.237" style="fill:#366985;" width="116.757" height="16.263"/>
		</g>
		<g>
			<g>
				<g>
					<g>
						<path style="fill:#F2E9DA;" d="M218.539,93.891c-0.153,0-0.307-0.05-0.436-0.153l-6.078-4.855
							c-0.166-0.133-0.263-0.334-0.263-0.547c0-0.213,0.097-0.414,0.263-0.547l6-4.793c0.302-0.241,0.742-0.192,0.983,0.11
							c0.241,0.302,0.192,0.742-0.11,0.983l-5.315,4.246l5.393,4.308c0.302,0.241,0.351,0.681,0.11,0.983
							C218.948,93.801,218.745,93.891,218.539,93.891z"/>
					</g>
				</g>
			</g>
			<g>
				<g>
					<g>
						<path style="fill:#F2E9DA;" d="M227.847,93.891c-0.205,0-0.409-0.09-0.547-0.263c-0.241-0.302-0.192-0.742,0.11-0.983
							l5.393-4.308l-5.315-4.246c-0.302-0.241-0.351-0.681-0.11-0.983c0.241-0.302,0.682-0.351,0.983-0.11l6,4.793
							c0.166,0.133,0.263,0.334,0.263,0.547c0,0.213-0.097,0.414-0.263,0.547l-6.078,4.855
							C228.154,93.841,228,93.891,227.847,93.891z"/>
					</g>
				</g>
			</g>
			<g>
				<g>
					<g>
						<path style="fill:#F2E9DA;" d="M221.828,95.175c-0.098,0.013-0.199,0.006-0.3-0.025c-0.369-0.114-0.577-0.505-0.463-0.874
							l3.761-12.227c0.113-0.369,0.505-0.577,0.874-0.463c0.369,0.114,0.577,0.505,0.463,0.874l-3.761,12.227
							C222.32,94.956,222.09,95.139,221.828,95.175z"/>
					</g>
				</g>
			</g>
		</g>
		<g>
			<rect x="123.075" y="107.758" style="fill:#95BFCE;" width="62.766" height="5.143"/>
		</g>
		<g>
			<rect x="188.69" y="107.758" style="fill:#366985;" width="30.549" height="5.143"/>
		</g>
		<g>
			<rect x="222.377" y="107.758" style="fill:#F2E9DA;" width="17.454" height="5.143"/>
		</g>
		<g>
			<polyline style="fill:#95BFCE;" points="239.99,124.577 197.223,124.577 197.223,119.434 239.99,119.434 			"/>
		</g>
		<g>
			
				<rect x="163.825" y="119.434" transform="matrix(-1 -1.224647e-16 1.224647e-16 -1 358.1991 244.0114)" style="fill:#366985;" width="30.549" height="5.143"/>
		</g>
		<g>
			<polyline style="fill:#F2E9DA;" points="123.233,119.434 160.687,119.434 160.687,124.577 123.233,124.577 			"/>
		</g>
		<g>
			<rect x="123.233" y="132.082" style="fill:#366985;" width="22.766" height="5.143"/>
		</g>
		<g>
			<rect x="148.849" y="132.082" style="fill:#95BFCE;" width="63.549" height="5.143"/>
		</g>
		<g>
			<rect x="215.536" y="132.082" style="fill:#F2E9DA;" width="24.454" height="5.143"/>
		</g>
		<g>
			<polyline style="fill:#95BFCE;" points="240.148,148.901 221.382,148.901 221.382,143.758 240.148,143.758 			"/>
		</g>
		<g>
			
				<rect x="163.983" y="143.758" transform="matrix(-1 -1.224647e-16 1.224647e-16 -1 382.516 292.6595)" style="fill:#366985;" width="54.549" height="5.143"/>
		</g>
		<g>
			<polyline style="fill:#F2E9DA;" points="123.391,143.758 160.846,143.758 160.846,148.901 123.391,148.901 			"/>
		</g>
		<g>
			<rect x="123.391" y="163.317" style="fill:#95BFCE;" width="62.766" height="5.143"/>
		</g>
		<g>
			<rect x="189.007" y="163.317" style="fill:#366985;" width="30.549" height="5.143"/>
		</g>
		<g>
			<rect x="222.694" y="163.317" style="fill:#F2E9DA;" width="17.454" height="5.143"/>
		</g>
		<g>
			<polyline style="fill:#95BFCE;" points="240.307,180.136 197.54,180.136 197.54,174.994 240.307,174.994 			"/>
		</g>
		<g>
			
				<rect x="164.142" y="174.994" transform="matrix(-1 -1.224647e-16 1.224647e-16 -1 358.8328 355.1301)" style="fill:#366985;" width="30.549" height="5.143"/>
		</g>
		<g>
			<polyline style="fill:#F2E9DA;" points="123.55,174.994 161.004,174.994 161.004,180.136 123.55,180.136 			"/>
		</g>
		<g>
			<rect x="123.55" y="187.641" style="fill:#366985;" width="22.766" height="5.143"/>
		</g>
		<g>
			<rect x="149.166" y="187.641" style="fill:#95BFCE;" width="63.549" height="5.143"/>
		</g>
		<g>
			<rect x="215.852" y="187.641" style="fill:#F2E9DA;" width="24.454" height="5.143"/>
		</g>
		<g>
			<polyline style="fill:#95BFCE;" points="240.465,204.461 221.699,204.461 221.699,199.318 240.465,199.318 			"/>
		</g>
		<g>
			
				<rect x="164.3" y="199.318" transform="matrix(-1 -1.224647e-16 1.224647e-16 -1 383.1497 403.7782)" style="fill:#366985;" width="54.549" height="5.143"/>
		</g>
		<g>
			<polyline style="fill:#F2E9DA;" points="123.708,199.318 161.163,199.318 161.163,204.461 123.708,204.461 			"/>
		</g>
	</g>
	<g>
		<g>
			<path style="fill:#95BFCE;" d="M575.686,67.224v22.71c0,6.6-5.4,12-12,12h-21.68l-17.829,16.769l2.568-16.769h-61.258
				c-6.6,0-12-5.4-12-12v-22.71c0-6.6,5.4-12,12-12h98.2C570.286,55.224,575.686,60.624,575.686,67.224z"/>
		</g>
		<g>
			<g>
				<path style="fill:#F2E9DA;" d="M496.966,81.702c0,1.886-0.479,3.561-1.435,5.023c-0.957,1.464-2.337,2.6-4.14,3.412
					c-1.803,0.811-3.918,1.217-6.345,1.217c-2.025,0-3.723-0.142-5.097-0.426c-1.373-0.284-2.801-0.78-4.285-1.487v-7.322
					c1.567,0.804,3.196,1.432,4.888,1.882c1.692,0.451,3.245,0.676,4.66,0.676c1.22,0,2.115-0.211,2.684-0.634
					c0.568-0.423,0.853-0.968,0.853-1.633c0-0.416-0.115-0.78-0.343-1.092c-0.229-0.312-0.597-0.627-1.103-0.947
					c-0.506-0.319-1.855-0.97-4.046-1.955c-1.983-0.901-3.471-1.775-4.462-2.621c-0.992-0.846-1.726-1.817-2.205-2.912
					c-0.479-1.095-0.718-2.392-0.718-3.89c0-2.801,1.019-4.986,3.058-6.553c2.038-1.567,4.84-2.351,8.404-2.351
					c3.148,0,6.358,0.728,9.632,2.184l-2.517,6.345c-2.843-1.303-5.298-1.955-7.364-1.955c-1.068,0-1.845,0.187-2.33,0.562
					c-0.486,0.374-0.728,0.839-0.728,1.394c0,0.597,0.308,1.13,0.925,1.602c0.617,0.472,2.292,1.331,5.024,2.579
					c2.621,1.179,4.441,2.444,5.461,3.797C496.457,77.946,496.966,79.649,496.966,81.702z"/>
			</g>
			<g>
				<path style="fill:#F2E9DA;" d="M530.126,75.689c0,6.893-2.192,11.539-6.573,13.938l7.426,8.55h-10.235l-5.367-6.761
					l-0.021-0.021v-0.021l-0.021-0.021c-4.771,0-8.429-1.338-10.974-4.015c-2.545-2.676-3.817-6.573-3.817-11.691
					c0-5.062,1.265-8.927,3.797-11.597c2.531-2.67,6.209-4.004,11.036-4.004c4.84,0,8.508,1.325,11.004,3.973
					C528.878,66.668,530.126,70.559,530.126,75.689z M509.199,75.689c0,5.88,2.045,8.821,6.137,8.821
					c2.08,0,3.623-0.714,4.629-2.143c1.005-1.428,1.508-3.654,1.508-6.678c0-3.037-0.51-5.28-1.529-6.729
					c-1.019-1.449-2.542-2.174-4.566-2.174C511.258,66.786,509.199,69.754,509.199,75.689z"/>
			</g>
			<g>
				<path style="fill:#F2E9DA;" d="M535.617,90.938V60.524h8.217v23.777h11.712v6.636H535.617z"/>
			</g>
		</g>
	</g>
</g>
</svg>
