<?xml version="1.0" encoding="utf-8"?>
<!-- Generator: Adobe Illustrator 27.5.0, SVG Export Plug-In . SVG Version: 6.00 Build 0)  -->
<svg version="1.1" xmlns="http://www.w3.org/2000/svg" xmlns:xlink="http://www.w3.org/1999/xlink" x="0px" y="0px"
	 viewBox="0 0 750 500" style="enable-background:new 0 0 750 500;" xml:space="preserve">
<g id="background2">
	<g>
		<rect style="fill:#FBB03B;" width="750" height="500"/>
		<g>
			<defs>
				<rect id="SVGID_1_" width="750" height="500"/>
			</defs>
			<clipPath id="SVGID_00000021098454674496394670000010323562440255011971_">
				<use xlink:href="#SVGID_1_"  style="overflow:visible;"/>
			</clipPath>
			<g style="opacity:0.3;clip-path:url(#SVGID_00000021098454674496394670000010323562440255011971_);">
				<g>
					<g>
						<g>
							<polygon style="fill:#F4F4F4;" points="127.334,163.761 -160.749,163.761 -160.749,162.761 127.141,162.761 164.643,147.76 
								195.354,148.335 195.335,149.335 164.827,148.764 							"/>
						</g>
						<g>
							<path style="fill:#F4F4F4;" d="M167.345,228.002H83.761l-29.999-40c-11.598,0.036-209.204,0.653-213.165-0.008l0.164-0.986
								c3.915,0.653,211.156,0,213.248-0.007l0.251-0.001l0.151,0.201l29.85,39.8h83.084V228.002z"/>
						</g>
						<g>
							<polygon style="fill:#F4F4F4;" points="152.667,218.002 93.062,216.662 69.731,178.669 -147.321,178.669 -147.321,177.669 
								70.29,177.669 93.628,215.674 152.69,217.002 							"/>
						</g>
						<g>
							<rect x="90.011" y="187.669" style="fill:#F4F4F4;" width="60" height="1"/>
						</g>
						<g>
							<path style="fill:#F4F4F4;" d="M128.169,175.976l-0.316-0.948c1.98-0.66,30.016-1.853,33.977-2.018l21.208-16.568
								l0.615,0.788l-21.46,16.766l-0.161,0.007C149.197,174.536,129.587,175.503,128.169,175.976z"/>
						</g>
						<g>
							<path style="fill:#F4F4F4;" d="M201.339,349.334l-172.85-2.002l-38.665-33.333c-48.989-0.228-141.946-0.525-144.346-0.018
								l-0.292-0.956c2.021-0.672,130.217-0.093,144.827-0.025l0.185,0.001l0.14,0.12l38.528,33.215l172.484,1.998L201.339,349.334z
								"/>
						</g>
						<g>
							<path style="fill:#F4F4F4;" d="M164.011,302h-35.553l-28.667-31.331c-4.188,0.011-65.998,0.168-127.057,0.248
								c-36.954,0.049-66.406,0.059-87.537,0.033c-40.199-0.052-40.21-0.098-40.344-0.661l-0.091-0.386l0.359-0.183l0.221,0.442
								l0.123-0.469c3.635,0.621,252.034-0.02,254.544-0.026l0.221-0.001L128.899,301h35.111V302z"/>
						</g>
						<g>
							<polygon style="fill:#F4F4F4;" points="142.857,260 -149.321,260 -149.321,259 142.5,259 164.5,241 184.679,241 184.679,242 
								164.857,242 							"/>
						</g>
						<g>
							<path style="fill:#F4F4F4;" d="M68.009,291.334c-52.603-0.228-152.734-0.527-155.199-0.019l-0.289-0.956
								c2.021-0.672,139.79-0.093,155.492-0.025L68.009,291.334z"/>
						</g>
						<g>
							<rect x="56.679" y="324.334" style="fill:#F4F4F4;" width="88.666" height="1"/>
						</g>
					</g>
					<g>
						<circle style="fill:#F4F4F4;" cx="55.177" cy="324.668" r="3.5"/>
					</g>
					<g>
						<circle style="fill:#F4F4F4;" cx="68.011" cy="290.834" r="2.625"/>
					</g>
					<g>
						<circle style="fill:#F4F4F4;" cx="28.677" cy="346.211" r="2.625"/>
					</g>
					<g>
						<circle style="fill:#F4F4F4;" cx="164.677" cy="300.877" r="2.625"/>
					</g>
					<g>
						<path style="fill:#F4F4F4;" d="M102.636,270.166c0,1.451-1.174,2.625-2.623,2.625c-1.451,0-2.625-1.174-2.625-2.625
							c0-1.449,1.174-2.623,2.625-2.623C101.462,267.543,102.636,268.717,102.636,270.166z"/>
					</g>
					<g>
						<path style="fill:#F4F4F4;" d="M189.925,240.875c0,1.451-1.174,2.625-2.623,2.625c-1.451,0-2.625-1.174-2.625-2.625
							c0-1.449,1.174-2.623,2.625-2.623C188.751,238.252,189.925,239.426,189.925,240.875z"/>
					</g>
					<g>
						<path style="fill:#F4F4F4;" d="M169.302,227.543c0,1.451-1.176,2.625-2.625,2.625s-2.625-1.174-2.625-2.625
							c0-1.449,1.176-2.623,2.625-2.623S169.302,226.094,169.302,227.543z"/>
					</g>
					<g>
						<path style="fill:#F4F4F4;" d="M155.302,217.502c0,1.449-1.174,2.625-2.623,2.625c-1.451,0-2.625-1.176-2.625-2.625
							c0-1.449,1.174-2.625,2.625-2.625C154.128,214.877,155.302,216.053,155.302,217.502z"/>
					</g>
					<g>
						<circle style="fill:#F4F4F4;" cx="92.011" cy="186.835" r="2.625"/>
					</g>
					<g>
						<path style="fill:#F4F4F4;" d="M155.302,188.21c0,1.451-1.176,2.625-2.625,2.625s-2.625-1.174-2.625-2.625
							c0-1.449,1.176-2.623,2.625-2.623S155.302,186.76,155.302,188.21z"/>
					</g>
					<g>
						<path style="fill:#F4F4F4;" d="M130.636,175.501c0,1.451-1.176,2.625-2.625,2.625c-1.449,0-2.625-1.174-2.625-2.625
							c0-1.449,1.176-2.623,2.625-2.623C129.46,172.877,130.636,174.051,130.636,175.501z"/>
					</g>
					<g>
						<path style="fill:#F4F4F4;" d="M183.968,158.169c0,1.449-1.174,2.625-2.623,2.625c-1.451,0-2.625-1.176-2.625-2.625
							c0-1.449,1.174-2.625,2.625-2.625C182.794,155.544,183.968,156.719,183.968,158.169z"/>
					</g>
					<g>
						<path style="fill:#F4F4F4;" d="M198.677,148.835c0,1.451-1.174,2.625-2.623,2.625c-1.451,0-2.625-1.174-2.625-2.625
							c0-1.449,1.174-2.623,2.625-2.623C197.503,146.211,198.677,147.385,198.677,148.835z"/>
					</g>
					<g>
						<circle style="fill:#F4F4F4;" cx="144.677" cy="324.668" r="3.5"/>
					</g>
				</g>
				<g>
					<g>
						<polygon style="fill:#F4F4F4;" points="360.178,411.029 648.261,411.029 648.261,412.029 360.371,412.029 322.868,427.031 
							292.157,426.457 292.177,425.457 322.684,426.027 						"/>
					</g>
					<g>
						<path style="fill:#F4F4F4;" d="M320.167,346.789h83.585l29.998,40c11.598-0.037,209.204-0.654,213.166,0.008l-0.164,0.986
							c-3.916-0.654-211.156,0-213.248,0.006l-0.252,0.002l-0.15-0.201l-29.85-39.801h-83.085V346.789z"/>
					</g>
					<g>
						<polygon style="fill:#F4F4F4;" points="334.845,356.789 394.451,358.129 417.781,396.123 634.834,396.123 634.834,397.123 
							417.223,397.123 393.885,359.117 334.821,357.789 						"/>
					</g>
					<g>
						<rect x="337.501" y="386.123" style="fill:#F4F4F4;" width="60.001" height="1"/>
					</g>
					<g>
						<path style="fill:#F4F4F4;" d="M359.344,398.816l0.316,0.947c-1.98,0.66-30.017,1.853-33.978,2.02l-21.207,16.568
							l-0.615-0.789l21.459-16.766l0.162-0.006C338.315,400.256,357.926,399.289,359.344,398.816z"/>
					</g>
					<g>
						<path style="fill:#F4F4F4;" d="M499.173,132.457l172.85,2.002l38.666,33.333c48.99,0.228,141.946,0.525,144.345,0.018
							l0.292,0.956c-2.021,0.672-130.215,0.093-144.826,0.025l-0.185-0.001l-0.14-0.12l-38.529-33.215l-172.484-1.998
							L499.173,132.457z"/>
					</g>
					<g>
						<path style="fill:#F4F4F4;" d="M536.501,179.791h35.554l28.667,31.331c4.188-0.011,65.998-0.168,127.057-0.248
							c36.954-0.049,66.406-0.059,87.536-0.033c40.199,0.052,40.211,0.098,40.344,0.661l0.092,0.386l-0.359,0.183l-0.221-0.442
							l-0.123,0.469c-3.636-0.621-252.034,0.02-254.544,0.026l-0.221,0.001l-28.669-31.333h-35.112V179.791z"/>
					</g>
					<g>
						<polygon style="fill:#F4F4F4;" points="557.655,221.791 849.834,221.791 849.834,222.791 558.013,222.791 536.013,240.791 
							515.833,240.791 515.833,239.791 535.655,239.791 						"/>
					</g>
					<g>
						<path style="fill:#F4F4F4;" d="M632.504,190.457c52.603,0.228,152.735,0.527,155.199,0.019l0.29,0.956
							c-2.021,0.672-139.791,0.093-155.493,0.025L632.504,190.457z"/>
					</g>
					<g>
						<rect x="555.167" y="156.457" style="fill:#F4F4F4;" width="88.667" height="1"/>
					</g>
					<g>
						<circle style="fill:#F4F4F4;" cx="645.336" cy="157.123" r="3.5"/>
					</g>
					<g>
						<circle style="fill:#F4F4F4;" cx="632.502" cy="190.957" r="2.625"/>
					</g>
					<g>
						<path style="fill:#F4F4F4;" d="M706.544,166.957c0-1.451,1.176-2.625,2.625-2.625c1.449,0,2.625,1.174,2.625,2.625
							c0,1.449-1.176,2.623-2.625,2.623C707.72,169.58,706.544,168.406,706.544,166.957z"/>
					</g>
					<g>
						<path style="fill:#F4F4F4;" d="M669.212,135.58c0-1.449,1.174-2.625,2.623-2.625c1.451,0,2.625,1.176,2.625,2.625
							c0,1.449-1.174,2.625-2.625,2.625C670.386,138.205,669.212,137.029,669.212,135.58z"/>
					</g>
					<g>
						<circle style="fill:#F4F4F4;" cx="535.835" cy="180.914" r="2.625"/>
					</g>
					<g>
						<path style="fill:#F4F4F4;" d="M597.877,211.625c0-1.451,1.174-2.625,2.623-2.625c1.451,0,2.625,1.174,2.625,2.625
							c0,1.449-1.174,2.623-2.625,2.623C599.051,214.248,597.877,213.074,597.877,211.625z"/>
					</g>
					<g>
						<path style="fill:#F4F4F4;" d="M510.587,240.916c0-1.451,1.174-2.625,2.623-2.625c1.451,0,2.625,1.174,2.625,2.625
							c0,1.449-1.174,2.623-2.625,2.623C511.761,243.539,510.587,242.365,510.587,240.916z"/>
					</g>
					<path style="fill:#F4F4F4;" d="M318.21,347.248c0-1.451,1.176-2.625,2.625-2.625s2.625,1.174,2.625,2.625
						c0,1.449-1.176,2.623-2.625,2.623S318.21,348.697,318.21,347.248z"/>
					<path style="fill:#F4F4F4;" d="M332.21,357.289c0-1.449,1.174-2.625,2.623-2.625c1.451,0,2.625,1.176,2.625,2.625
						c0,1.449-1.174,2.625-2.625,2.625C333.384,359.914,332.21,358.738,332.21,357.289z"/>
					<circle style="fill:#F4F4F4;" cx="395.502" cy="387.957" r="2.625"/>
					<path style="fill:#F4F4F4;" d="M332.21,386.582c0-1.451,1.176-2.625,2.625-2.625s2.625,1.174,2.625,2.625
						c0,1.449-1.176,2.623-2.625,2.623S332.21,388.031,332.21,386.582z"/>
					<path style="fill:#F4F4F4;" d="M356.877,399.291c0-1.451,1.176-2.625,2.625-2.625c1.449,0,2.625,1.174,2.625,2.625
						c0,1.449-1.176,2.623-2.625,2.623C358.053,401.914,356.877,400.74,356.877,399.291z"/>
					<path style="fill:#F4F4F4;" d="M303.544,416.623c0-1.449,1.174-2.625,2.623-2.625c1.451,0,2.625,1.176,2.625,2.625
						c0,1.449-1.174,2.625-2.625,2.625C304.718,419.248,303.544,418.072,303.544,416.623z"/>
					<g>
						<polygon style="fill:#F4F4F4;" points="552.846,305.789 612.451,307.129 635.781,345.123 852.834,345.123 852.834,346.123 
							635.223,346.123 611.885,308.117 552.822,306.789 						"/>
					</g>
					<g>
						<rect x="555.502" y="335.123" style="fill:#F4F4F4;" width="60" height="1"/>
					</g>
					<g>
						<path style="fill:#F4F4F4;" d="M577.344,347.816l0.316,0.947c-1.98,0.66-30.016,1.853-33.977,2.02l-21.209,16.568
							l-0.615-0.789l21.461-16.766l0.16-0.006C556.314,349.256,575.926,348.289,577.344,347.816z"/>
					</g>
					<path style="fill:#F4F4F4;" d="M550.211,306.289c0-1.449,1.174-2.625,2.623-2.625c1.451,0,2.625,1.176,2.625,2.625
						c0,1.449-1.174,2.625-2.625,2.625C551.385,308.914,550.211,307.738,550.211,306.289z"/>
					<path style="fill:#F4F4F4;" d="M550.211,335.582c0-1.451,1.176-2.625,2.625-2.625c1.449,0,2.625,1.174,2.625,2.625
						c0,1.449-1.176,2.623-2.625,2.623C551.387,338.205,550.211,337.031,550.211,335.582z"/>
					<path style="fill:#F4F4F4;" d="M521.545,365.623c0-1.449,1.174-2.625,2.623-2.625c1.451,0,2.625,1.176,2.625,2.625
						c0,1.449-1.174,2.625-2.625,2.625C522.719,368.248,521.545,367.072,521.545,365.623z"/>
					<path style="fill:#F4F4F4;" d="M288.835,332.957c0-1.451,1.174-2.625,2.623-2.625c1.451,0,2.625,1.174,2.625,2.625
						c0,1.449-1.174,2.623-2.625,2.623C290.009,335.58,288.835,334.406,288.835,332.957z"/>
					<g>
						<path style="fill:#F4F4F4;" d="M552.335,157.123c0-1.934,1.566-3.5,3.5-3.5c1.933,0,3.501,1.566,3.501,3.5
							c0,1.932-1.568,3.5-3.501,3.5C553.901,160.623,552.335,159.055,552.335,157.123z"/>
					</g>
				</g>
			</g>
		</g>
		<rect x="125" style="fill:none;" width="500" height="500"/>
		<g>
			<g style="opacity:0.3;">
				<g>
					<rect x="358.19" y="126.726" style="fill:#F15A24;" width="8.606" height="72.234"/>
					<rect x="345.895" y="143.633" style="fill:#F15A24;" width="8.606" height="55.327"/>
					<rect x="333.599" y="126.726" style="fill:#F15A24;" width="8.607" height="72.234"/>
					<rect x="321.304" y="158.08" style="fill:#F15A24;" width="8.607" height="40.88"/>
				</g>
				<rect x="317.616" y="198.039" style="fill:#F15A24;" width="52.869" height="1.844"/>
			</g>
			<g>
				<g>
					<rect x="355.19" y="124.726" style="fill:#797BD1;" width="8.606" height="72.234"/>
					<rect x="342.895" y="141.633" style="fill:#74D6CF;" width="8.606" height="55.327"/>
					<rect x="330.599" y="124.726" style="fill:#797BD1;" width="8.607" height="72.234"/>
					<rect x="318.304" y="156.08" style="fill:#74D6CF;" width="8.607" height="40.88"/>
				</g>
				<rect x="314.616" y="196.039" style="fill:#4D4D4D;" width="52.869" height="1.844"/>
			</g>
			<path style="opacity:0.2;fill:#F15A24;" d="M223.901,201.058c0-0.385-0.014-0.768-0.035-1.147l12.955-4.21l-3.057-9.406
				l-12.871,4.183c-0.465-0.752-0.979-1.472-1.535-2.153l8.004-11.021l-8-5.813l-7.955,10.947c-0.813-0.333-1.648-0.616-2.51-0.842
				v-13.617h-9.891v13.533c-0.865,0.211-1.707,0.477-2.525,0.796l-8.005-11.019l-8.001,5.813l7.957,10.952
				c-0.57,0.672-1.096,1.383-1.574,2.126l-12.956-4.21l-3.056,9.406l12.876,4.184c-0.037,0.495-0.061,0.994-0.061,1.498
				c0,0.385,0.013,0.768,0.034,1.147l-12.954,4.209l3.057,9.405l12.871-4.181c0.465,0.752,0.979,1.472,1.537,2.154l-8.006,11.019
				l8,5.814l7.954-10.948c0.813,0.333,1.65,0.616,2.511,0.842l0.001,13.617h9.89v-13.534c0.865-0.21,1.707-0.477,2.524-0.795
				l8.006,11.018l8.002-5.813l-7.958-10.953c0.569-0.672,1.095-1.382,1.574-2.125l12.955,4.209l3.057-9.405l-12.877-4.185
				C223.877,202.06,223.901,201.562,223.901,201.058z"/>
			<path style="fill:#74D6CF;" d="M221.901,199.058c0-0.385-0.014-0.768-0.035-1.147l12.955-4.21l-3.057-9.406l-12.871,4.183
				c-0.465-0.752-0.979-1.472-1.535-2.153l8.004-11.021l-8-5.813l-7.955,10.947c-0.813-0.333-1.648-0.616-2.51-0.842v-13.617h-9.891
				v13.533c-0.865,0.211-1.707,0.477-2.525,0.796l-8.005-11.019l-8.001,5.813l7.957,10.952c-0.57,0.672-1.096,1.383-1.574,2.126
				l-12.956-4.21l-3.056,9.406l12.876,4.184c-0.037,0.495-0.061,0.994-0.061,1.498c0,0.385,0.013,0.768,0.034,1.147l-12.954,4.209
				l3.057,9.405l12.871-4.181c0.465,0.752,0.979,1.472,1.537,2.154l-8.006,11.019l8,5.814l7.954-10.948
				c0.813,0.333,1.65,0.616,2.511,0.842l0.001,13.617h9.89v-13.534c0.865-0.21,1.707-0.477,2.524-0.795l8.006,11.018l8.002-5.813
				l-7.958-10.953c0.569-0.672,1.095-1.382,1.574-2.125l12.955,4.209l3.057-9.405l-12.877-4.185
				C221.877,200.06,221.901,199.562,221.901,199.058z"/>
			<path style="opacity:0.3;fill:#F15A24;" d="M478.182,195.677c0-0.446-0.016-0.888-0.041-1.329l8.852-2.877
				c-0.505-3.903-1.701-7.589-3.469-10.929l-8.83,2.869c-0.54-0.872-1.136-1.706-1.781-2.497l5.47-7.529
				c-2.637-2.781-5.755-5.095-9.23-6.806l-5.457,7.511c-0.94-0.387-1.913-0.715-2.911-0.977v-9.305
				c-1.923-0.355-3.904-0.551-5.93-0.551c-1.888,0-3.736,0.172-5.535,0.48v9.281c-1.004,0.243-1.979,0.553-2.927,0.922l-5.478-7.539
				c-3.496,1.668-6.642,3.946-9.31,6.692l5.454,7.508c-0.66,0.78-1.269,1.603-1.823,2.464l-8.867-2.881
				c-1.808,3.32-3.049,6.993-3.602,10.886l8.832,2.869c-0.043,0.575-0.071,1.151-0.071,1.736c0,0.447,0.016,0.891,0.041,1.33
				l-8.854,2.877c0.506,3.903,1.702,7.589,3.47,10.929l8.83-2.87c0.54,0.872,1.136,1.707,1.782,2.499l-5.469,7.527
				c2.635,2.78,5.753,5.095,9.227,6.807l5.456-7.511c0.942,0.386,1.912,0.714,2.912,0.977v9.304
				c1.923,0.357,3.903,0.552,5.931,0.552c1.888,0,3.735-0.171,5.535-0.479v-9.28c1.003-0.245,1.979-0.553,2.926-0.923l5.477,7.538
				c3.497-1.668,6.643-3.945,9.311-6.693l-5.455-7.509c0.66-0.779,1.271-1.602,1.824-2.463l8.866,2.881
				c1.81-3.319,3.05-6.993,3.604-10.886l-8.832-2.87C478.15,196.84,478.182,196.262,478.182,195.677z M454.855,201.015
				c-2.948,0-5.337-2.39-5.337-5.338c0-2.947,2.389-5.337,5.337-5.337c2.946,0,5.337,2.39,5.337,5.337
				C460.191,198.624,457.801,201.015,454.855,201.015z"/>
			<path style="opacity:0.2;fill:#F15A24;" d="M231.409,226.673c-4.011,0-6.633,1.233-6.633,4.474
				c0,13.577,56.003,5.091,56.003,44.277c0,24.069-21.137,34.714-45.513,34.714c-18.822,0-39.805-6.325-54.152-17.279l13.269-26.845
				c11.108,9.257,30.238,16.816,41.192,16.816c5.246,0,8.641-1.697,8.641-5.555c0-14.039-56.004-4.781-56.004-42.735
				c0-21.599,18.205-35.176,46.283-35.176c17.125,0,34.867,5.092,47.055,12.806l-12.959,27.153
				C257.638,233.306,240.821,226.673,231.409,226.673z M407.05,200.907v27.154h-55.695v13.268h50.605v27.154h-50.605v13.422h57.084
				v27.153h-92.876v-108.15H407.05z M551.635,254.905c0,32.091-24.993,55.695-59.398,55.695c-34.403,0-59.398-23.451-59.398-55.695
				c0-32.09,24.994-55.077,59.398-55.077C526.642,199.828,551.635,222.97,551.635,254.905z M469.559,255.06
				c0,14.811,10.799,25.765,23.142,25.765c12.342,0,22.216-10.953,22.216-25.765c0-14.81-9.874-25.455-22.216-25.455
				C480.203,229.605,469.559,240.249,469.559,255.06z"/>
			<path style="fill:#F15A24;" d="M228.409,224.673c-4.011,0-6.633,1.233-6.633,4.474c0,13.577,56.003,5.091,56.003,44.277
				c0,24.069-21.137,34.714-45.513,34.714c-18.822,0-39.805-6.325-54.152-17.279l13.269-26.845
				c11.108,9.257,30.238,16.816,41.192,16.816c5.246,0,8.641-1.697,8.641-5.555c0-14.039-56.004-4.781-56.004-42.735
				c0-21.599,18.205-35.176,46.283-35.176c17.125,0,34.867,5.092,47.055,12.806l-12.959,27.153
				C254.638,231.306,237.821,224.673,228.409,224.673z M404.05,198.907v27.154h-55.695v13.268h50.605v27.154h-50.605v13.422h57.084
				v27.153h-92.876v-108.15H404.05z M548.635,252.905c0,32.091-24.993,55.695-59.398,55.695c-34.403,0-59.398-23.451-59.398-55.695
				c0-32.09,24.994-55.077,59.398-55.077C523.642,197.828,548.635,220.97,548.635,252.905z M466.559,253.06
				c0,14.811,10.799,25.765,23.142,25.765c12.342,0,22.216-10.953,22.216-25.765c0-14.81-9.874-25.455-22.216-25.455
				C477.203,227.605,466.559,238.249,466.559,253.06z"/>
			<path style="fill:none;stroke:#4D4D4D;stroke-miterlimit:10;" d="M223.409,226.673c-4.011,0-6.633,1.233-6.633,4.474
				c0,13.577,56.003,5.091,56.003,44.277c0,24.069-21.137,34.714-45.513,34.714c-18.822,0-39.805-6.325-54.152-17.279l13.269-26.845
				c11.108,9.257,30.238,16.816,41.192,16.816c5.246,0,8.641-1.697,8.641-5.555c0-14.039-56.004-4.781-56.004-42.735
				c0-21.599,18.205-35.176,46.283-35.176c17.125,0,34.867,5.092,47.055,12.806l-12.959,27.153
				C249.638,233.306,232.821,226.673,223.409,226.673z M399.05,200.907v27.154h-55.695v13.268h50.605v27.154h-50.605v13.422h57.084
				v27.153h-92.876v-108.15H399.05z M543.635,254.905c0,32.091-24.993,55.695-59.398,55.695c-34.403,0-59.398-23.451-59.398-55.695
				c0-32.09,24.994-55.077,59.398-55.077C518.642,199.828,543.635,222.97,543.635,254.905z M461.559,255.06
				c0,14.811,10.799,25.765,23.142,25.765c12.342,0,22.216-10.953,22.216-25.765c0-14.81-9.874-25.455-22.216-25.455
				C472.203,229.605,461.559,240.249,461.559,255.06z"/>
			<path style="opacity:0.2;fill:#8F3515;" d="M550.076,179.729c-17.224,0-31.185,13.961-31.185,31.184
				c0,17.223,13.961,31.184,31.185,31.184c17.222,0,31.183-13.961,31.183-31.184C581.259,193.69,567.298,179.729,550.076,179.729z"
				/>
			<g>
				<path style="fill:#4D4D4D;" d="M578.259,208.913c0,17.223-13.961,31.184-31.183,31.184c-17.224,0-31.185-13.961-31.185-31.184
					c0-17.222,13.961-31.184,31.185-31.184C564.298,177.729,578.259,191.69,578.259,208.913z"/>
				<path style="fill:#F4F4F4;" d="M570.191,208.913c0,12.767-10.35,23.116-23.115,23.116c-12.768,0-23.117-10.349-23.117-23.116
					c0-12.766,10.35-23.116,23.117-23.116C559.842,185.797,570.191,196.146,570.191,208.913z"/>
				<g>
					<rect x="545.536" y="210" style="fill:#4D4D4D;" width="11" height="1"/>
					<rect x="545.536" y="194" style="fill:#4D4D4D;" width="2" height="17"/>
				</g>
				<g>
					<path style="fill:#4D4D4D;" d="M528.757,208.694c0,0.482-0.391,0.872-0.873,0.872c-0.481,0-0.872-0.39-0.872-0.872
						c0-0.481,0.391-0.872,0.872-0.872C528.366,207.822,528.757,208.213,528.757,208.694z"/>
					<path style="fill:#4D4D4D;" d="M567.354,208.694c0,0.482-0.39,0.872-0.872,0.872c-0.482,0-0.871-0.39-0.871-0.872
						c0-0.481,0.39-0.872,0.871-0.872C566.965,207.822,567.354,208.213,567.354,208.694z"/>
				</g>
				<g>
					<path style="fill:#4D4D4D;" d="M547.184,227.122c0.481,0,0.872,0.391,0.872,0.872c0,0.482-0.391,0.872-0.872,0.872
						c-0.482,0-0.872-0.391-0.872-0.872C546.312,227.513,546.702,227.122,547.184,227.122z"/>
					<path style="fill:#4D4D4D;" d="M547.184,188.524c0.481,0,0.872,0.391,0.872,0.872s-0.391,0.872-0.872,0.872
						c-0.482,0-0.872-0.391-0.872-0.872S546.702,188.524,547.184,188.524z"/>
				</g>
			</g>
			<g style="opacity:0.2;">
				<path style="fill:#8F3515;" d="M249.983,350.392c0,0.009,0.002,0.016,0.002,0.024
					C250.172,350.317,249.987,349.031,249.983,350.392z"/>
				<path style="fill:#8F3515;" d="M203.839,350.426c0-0.012,0.001-0.02,0.001-0.03c0-0.004-0.001-0.007-0.001-0.011V350.426z"/>
				<path style="fill:#8F3515;" d="M264.481,291.329h-74.045c-1.886,0-3.901,1.355-3.901,3.183v44.579
					c0,1.827,2.016,3.21,3.901,3.21h30.434l-1.412,5.985c-0.173,0.732-0.219,1.492-0.162,2.14h-14.555
					c-0.226,0-0.891-1.451-0.901-0.03c0.005,0.928,0.675,1.507,0.901,1.507h45.221c0.225,0,0.027-0.572,0.023-1.486
					c-0.001,0-0.002,0-0.002,0.001c-0.007,0.003-0.013,0.009-0.021,0.009h-12.934c0.066-0.709-0.002-1.592-0.236-2.42l-1.604-5.705
					h29.293c1.886,0,3.526-1.383,3.526-3.21v-44.579C268.008,292.685,266.367,291.329,264.481,291.329z"/>
			</g>
			<g>
				<g>
					<g>
						<path style="fill:#D4D4D4;" d="M240.127,349.165c0.249-0.739,0.232-2.008-0.101-3.159l-2.608-9.051
							c-0.329-1.139-1.35-1.96-2.311-1.945l-8.409,0.128c-0.958,0.017-1.944,0.86-2.222,2.009l-2.209,9.14
							c-0.251,1.035-0.252,2.14-0.045,2.879H240.127z"/>
						<path style="fill:#F4F4F4;" d="M253.541,348.385c0,0.935,0.212,1.518-0.021,1.518h-46.331c-0.233,0-0.925-0.583-0.925-1.518
							v0.041c0-1.478,0.691,0,0.925,0h46.331c0.233,0,0.021-1.478,0.021,0V348.385z"/>
						<g>
							<path style="fill:#F4F4F4;" d="M272.008,337.091c0,1.827-1.681,3.21-3.612,3.21h-75.863c-1.932,0-3.997-1.383-3.997-3.21
								v-44.579c0-1.827,2.065-3.183,3.997-3.183h75.863c1.932,0,3.612,1.355,3.612,3.183V337.091z"/>
							<path style="fill:#74D6CF;" d="M267.576,331.239c0,1.502-0.404,3.15-2.177,3.15H195.7c-1.773,0-4.211-1.648-4.211-3.15
								v-36.612c0-1.501,2.438-2.343,4.211-2.343h69.699c1.772,0,2.177,0.842,2.177,2.343V331.239z"/>
							<path style="fill:#333333;" d="M232.401,337.235c0,1.154-0.886,2.09-1.979,2.09c-1.093,0-1.979-0.936-1.979-2.09
								c0-1.153,0.886-2.09,1.979-2.09C231.516,335.146,232.401,336.082,232.401,337.235z"/>
							<path style="fill:#333333;" d="M231.081,290.527c0,0.385-0.295,0.695-0.659,0.695c-0.362,0-0.659-0.311-0.659-0.695
								c0-0.383,0.297-0.695,0.659-0.695C230.786,289.832,231.081,290.145,231.081,290.527z"/>
						</g>
					</g>
				</g>
				<g>
					<g>
						<path style="fill:#F4F4F4;" d="M253.548,328.255c0,2.057-0.727,3.063-2.691,3.063H207.2c-1.966,0-4.006-1.007-4.006-3.063
							v-29.48c0-2.057,2.04-3.712,4.006-3.712h43.656c1.965,0,2.691,1.655,2.691,3.712V328.255z"/>
						<path style="fill:#B3B3B3;" d="M207.132,298.442c0,0.672-0.545,1.216-1.215,1.216c-0.672,0-1.215-0.544-1.215-1.216
							c0-0.669,0.543-1.213,1.215-1.213C206.587,297.229,207.132,297.773,207.132,298.442z"/>
						<path style="fill:#B3B3B3;" d="M211.575,298.442c0,0.672-0.543,1.216-1.215,1.216c-0.672,0-1.215-0.544-1.215-1.216
							c0-0.669,0.543-1.213,1.215-1.213C211.032,297.229,211.575,297.773,211.575,298.442z"/>
						<path style="fill:#B3B3B3;" d="M216.018,298.442c0,0.672-0.543,1.216-1.215,1.216s-1.215-0.544-1.215-1.216
							c0-0.669,0.543-1.213,1.215-1.213S216.018,297.773,216.018,298.442z"/>
					</g>
					<g>
						<rect x="206.215" y="304.126" style="fill:#797BD1;" width="45.318" height="25.178"/>
						<g>
							<polygon style="fill:#F4F4F4;" points="209.517,326.943 208.505,326.485 215.071,311.969 220.29,320.449 227.931,306.761 
								236.483,314.986 247.081,305.946 247.802,306.791 236.439,316.483 228.198,308.56 220.337,322.646 215.221,314.333 							
								"/>
						</g>
						<path style="fill:#F4F4F4;" d="M210.948,326.068c0,0.892-0.723,1.615-1.614,1.615c-0.893,0-1.615-0.724-1.615-1.615
							c0-0.893,0.723-1.614,1.615-1.614C210.226,324.454,210.948,325.176,210.948,326.068z"/>
						<path style="fill:#F4F4F4;" d="M217.058,312.181c0,0.893-0.723,1.616-1.613,1.616c-0.892,0-1.615-0.723-1.615-1.616
							c0-0.892,0.724-1.613,1.615-1.613C216.335,310.567,217.058,311.289,217.058,312.181z"/>
						<path style="fill:#F4F4F4;" d="M221.503,321.625c0,0.891-0.723,1.615-1.615,1.615c-0.893,0-1.615-0.725-1.615-1.615
							c0-0.892,0.723-1.614,1.615-1.614C220.78,320.011,221.503,320.733,221.503,321.625z"/>
						<path style="fill:#F4F4F4;" d="M229.834,307.183c0,0.893-0.722,1.613-1.614,1.613c-0.893,0-1.615-0.721-1.615-1.613
							c0-0.892,0.723-1.614,1.615-1.614C229.112,305.568,229.834,306.291,229.834,307.183z"/>
						<path style="fill:#F4F4F4;" d="M238.165,315.516c0,0.892-0.722,1.615-1.613,1.615c-0.892,0-1.615-0.724-1.615-1.615
							c0-0.893,0.724-1.616,1.615-1.616C237.443,313.899,238.165,314.623,238.165,315.516z"/>
						<path style="fill:#F4F4F4;" d="M249.276,306.627c0,0.893-0.724,1.615-1.615,1.615c-0.893,0-1.615-0.722-1.615-1.615
							c0-0.893,0.723-1.614,1.615-1.614C248.553,305.013,249.276,305.734,249.276,306.627z"/>
					</g>
				</g>
			</g>
			<g style="opacity:0.2;">
				<path style="fill:#8F3515;" d="M446.025,281.669c11.431,0,20.697-9.267,20.697-20.698c0-2.181-0.342-4.28-0.967-6.254
					l0.002-0.001c-0.178-0.562-0.383-1.111-0.607-1.65c-0.089-0.214-0.19-0.419-0.285-0.628c-0.159-0.351-0.322-0.697-0.499-1.037
					c-0.12-0.229-0.247-0.453-0.375-0.677c-0.179-0.313-0.366-0.62-0.561-0.923c-0.138-0.214-0.274-0.428-0.42-0.636
					c-0.227-0.326-0.467-0.64-0.712-0.952c-0.129-0.165-0.251-0.335-0.386-0.497c-0.374-0.449-0.767-0.881-1.179-1.297
					c-0.138-0.14-0.286-0.268-0.429-0.404c-0.298-0.285-0.6-0.564-0.914-0.831c-0.182-0.154-0.37-0.301-0.558-0.449
					c-0.297-0.235-0.6-0.462-0.91-0.681c-0.194-0.137-0.39-0.273-0.589-0.404c-0.344-0.225-0.697-0.436-1.055-0.64
					c-0.173-0.099-0.342-0.205-0.518-0.299c-0.532-0.284-1.076-0.549-1.635-0.788c-0.108-0.046-0.222-0.082-0.331-0.126
					c-0.465-0.189-0.935-0.363-1.415-0.518c-0.203-0.065-0.409-0.121-0.614-0.18c-0.403-0.116-0.811-0.222-1.223-0.314
					c-0.223-0.049-0.444-0.096-0.669-0.138c-0.43-0.081-0.865-0.145-1.304-0.199c-0.201-0.025-0.4-0.056-0.603-0.075
					c-0.641-0.06-1.287-0.098-1.943-0.098c-0.172,0-0.343,0.009-0.513,0.013v0.013c-11.192,0.275-20.186,9.413-20.186,20.67
					C425.327,272.402,434.594,281.669,446.025,281.669z"/>
				<rect x="423.791" y="286.178" style="fill:#8F3515;" width="46.107" height="2.253"/>
				<rect x="423.791" y="291.914" style="fill:#8F3515;" width="46.107" height="2.254"/>
				<rect x="423.791" y="297.652" style="fill:#8F3515;" width="46.107" height="2.254"/>
				<rect x="423.791" y="303.39" style="fill:#8F3515;" width="25.205" height="2.254"/>
			</g>
			<g>
				<g>
					<path style="fill:#74D6CF;" d="M461.723,260.971c0,11.432-9.267,20.698-20.697,20.698c-11.432,0-20.698-9.267-20.698-20.698
						c0-11.43,9.267-20.696,20.698-20.696C452.456,240.274,461.723,249.54,461.723,260.971z"/>
					<path style="fill:#F4F4F4;" d="M441.025,240.274c-0.172,0-0.343,0.009-0.513,0.013l0.409,20.479l19.836-6.051
						C458.105,246.344,450.274,240.274,441.025,240.274z"/>
				</g>
				<rect x="418.791" y="286.178" style="fill:#F4F4F4;" width="46.107" height="2.253"/>
				<rect x="418.791" y="291.914" style="fill:#F4F4F4;" width="46.107" height="2.254"/>
				<rect x="418.791" y="297.652" style="fill:#F4F4F4;" width="46.107" height="2.254"/>
				<rect x="418.791" y="303.39" style="fill:#F4F4F4;" width="25.205" height="2.254"/>
			</g>
			<path style="opacity:0.2;fill:#8F3515;" d="M331.954,300.928c0-0.331-0.011-0.66-0.029-0.985l11.133-3.618l-2.625-8.083
				l-11.062,3.594c-0.4-0.646-0.84-1.265-1.32-1.851l6.881-9.47l-6.876-4.997l-6.837,9.408c-0.697-0.287-1.417-0.53-2.157-0.724
				V272.5h-8.499v11.63c-0.744,0.181-1.468,0.411-2.17,0.685l-6.879-9.469l-6.877,4.995l6.838,9.411
				c-0.49,0.578-0.941,1.188-1.352,1.827l-11.136-3.617l-2.626,8.082l11.065,3.597c-0.03,0.426-0.054,0.854-0.054,1.287
				c0,0.331,0.012,0.66,0.03,0.985l-11.132,3.618l2.626,8.082l11.061-3.594c0.4,0.647,0.841,1.267,1.32,1.852l-6.879,9.47
				l6.875,4.996l6.836-9.408c0.697,0.287,1.418,0.53,2.158,0.724v11.702h8.499v-11.63c0.743-0.181,1.468-0.411,2.169-0.685
				l6.88,9.47l6.876-4.996l-6.838-9.413c0.489-0.577,0.94-1.186,1.353-1.824l11.134,3.616l2.627-8.082l-11.064-3.598
				C331.934,301.788,331.954,301.36,331.954,300.928z M314.663,312.065c-6.15,0-11.137-4.986-11.137-11.137
				c0-6.151,4.986-11.138,11.137-11.138c6.151,0,11.137,4.986,11.137,11.138C325.8,307.078,320.814,312.065,314.663,312.065z"/>
			<path style="fill:#4D4D4D;" d="M329.954,298.928c0-0.331-0.011-0.66-0.029-0.985l11.133-3.618l-2.625-8.083l-11.062,3.594
				c-0.4-0.646-0.84-1.265-1.32-1.851l6.881-9.47l-6.876-4.997l-6.837,9.408c-0.697-0.287-1.417-0.53-2.157-0.724V270.5h-8.499
				v11.63c-0.744,0.181-1.468,0.411-2.17,0.685l-6.879-9.469l-6.877,4.995l6.838,9.411c-0.49,0.578-0.941,1.188-1.352,1.827
				l-11.136-3.617l-2.626,8.082l11.065,3.597c-0.03,0.426-0.054,0.854-0.054,1.287c0,0.331,0.012,0.66,0.03,0.985l-11.132,3.618
				l2.626,8.082l11.061-3.594c0.4,0.647,0.841,1.267,1.32,1.852l-6.879,9.47l6.875,4.996l6.836-9.408
				c0.697,0.287,1.418,0.53,2.158,0.724v11.702h8.499v-11.63c0.743-0.181,1.468-0.411,2.169-0.685l6.88,9.47l6.876-4.996
				l-6.838-9.413c0.489-0.577,0.94-1.186,1.353-1.824l11.134,3.616l2.627-8.082l-11.064-3.598
				C329.934,299.788,329.954,299.36,329.954,298.928z M323.8,298.928c0,6.15-4.985,11.137-11.137,11.137
				c-6.15,0-11.137-4.986-11.137-11.137c0-6.151,4.986-11.138,11.137-11.138C318.814,287.79,323.8,292.776,323.8,298.928z"/>
			<g>
				<polygon style="opacity:0.2;fill:#F15A24;" points="405.424,313.829 420.635,313.52 428.506,326.539 421.168,339.866 
					405.958,340.173 398.086,327.154 				"/>
				<polygon style="opacity:0.2;fill:#F15A24;" points="406.979,343.603 422.19,343.294 430.063,356.313 422.724,369.638 
					407.516,369.946 399.643,356.93 				"/>
				<polygon style="opacity:0.2;fill:none;stroke:#F15A24;stroke-miterlimit:10;" points="380.541,330.044 395.752,329.735 
					403.625,342.754 396.288,356.081 381.078,356.387 373.206,343.371 				"/>
			</g>
		</g>
	</g>
</g>
<g id="background1">
	<g style="opacity:0.4;">
		<defs>
			
				<rect id="SVGID_00000121237355579540118980000004352306648377718956_" x="-587.464" style="opacity:0.4;" width="500" height="500"/>
		</defs>
		<clipPath id="SVGID_00000121252127161744789520000005181748420371867013_">
			<use xlink:href="#SVGID_00000121237355579540118980000004352306648377718956_"  style="overflow:visible;"/>
		</clipPath>
		<g style="clip-path:url(#SVGID_00000121252127161744789520000005181748420371867013_);">
			<g>
				<g>
					<polygon style="fill:#F4F4F4;" points="-158.118,305.789 -98.513,307.129 -75.183,345.123 141.87,345.123 141.87,346.123 
						-75.741,346.123 -99.079,308.117 -158.142,306.789 					"/>
				</g>
			</g>
		</g>
	</g>
</g>
<g id="designed_by_freepik">
	<g>
		<path style="fill:#F15A24;" d="M305.392,489.773v-0.159c-0.217,0.248-0.432,0.448-0.645,0.603
			c-0.211,0.155-0.439,0.273-0.688,0.354c-0.246,0.08-0.516,0.12-0.809,0.12c-0.387,0-0.746-0.081-1.076-0.244
			c-0.33-0.162-0.615-0.395-0.857-0.697c-0.242-0.302-0.424-0.656-0.549-1.064c-0.123-0.409-0.186-0.849-0.186-1.323
			c0-1.004,0.246-1.789,0.74-2.349c0.494-0.559,1.145-0.839,1.951-0.839c0.467,0,0.859,0.079,1.18,0.236
			c0.32,0.159,0.633,0.403,0.938,0.732v-2.37c0-0.329,0.064-0.579,0.197-0.746c0.133-0.17,0.322-0.254,0.566-0.254
			c0.246,0,0.434,0.078,0.566,0.233c0.133,0.154,0.199,0.381,0.199,0.684v7.082c0,0.306-0.07,0.537-0.213,0.688
			c-0.143,0.153-0.326,0.23-0.553,0.23c-0.221,0-0.404-0.079-0.549-0.238C305.462,490.295,305.392,490.068,305.392,489.773z
			 M302.208,487.415c0,0.437,0.068,0.807,0.203,1.112c0.137,0.307,0.324,0.537,0.56,0.689c0.238,0.157,0.496,0.235,0.777,0.235
			c0.285,0,0.545-0.076,0.779-0.224c0.234-0.144,0.424-0.372,0.563-0.674c0.141-0.305,0.211-0.684,0.211-1.14
			c0-0.426-0.07-0.794-0.211-1.103c-0.139-0.308-0.328-0.544-0.568-0.707c-0.238-0.163-0.5-0.242-0.785-0.242
			c-0.297,0-0.563,0.083-0.795,0.25c-0.232,0.165-0.414,0.405-0.543,0.717C302.27,486.643,302.208,487.005,302.208,487.415z
			 M312.528,487.822h-3.166c0.004,0.364,0.078,0.686,0.223,0.963c0.145,0.279,0.336,0.488,0.576,0.63
			c0.238,0.144,0.502,0.211,0.791,0.211c0.193,0,0.371-0.022,0.529-0.066c0.162-0.047,0.316-0.116,0.467-0.212
			c0.15-0.097,0.289-0.199,0.414-0.31c0.127-0.11,0.291-0.26,0.492-0.447c0.084-0.07,0.203-0.107,0.357-0.107
			c0.164,0,0.299,0.047,0.402,0.136c0.102,0.092,0.154,0.22,0.154,0.384c0,0.146-0.057,0.314-0.172,0.508
			c-0.115,0.193-0.287,0.38-0.519,0.56c-0.232,0.179-0.522,0.326-0.871,0.444c-0.35,0.116-0.752,0.176-1.207,0.176
			c-1.039,0-1.848-0.294-2.424-0.883c-0.578-0.588-0.867-1.386-0.867-2.394c0-0.475,0.072-0.914,0.215-1.319
			c0.143-0.407,0.35-0.756,0.621-1.044c0.273-0.291,0.609-0.512,1.01-0.669c0.398-0.155,0.842-0.23,1.328-0.23
			c0.631,0,1.174,0.13,1.625,0.396c0.455,0.266,0.793,0.606,1.018,1.026c0.225,0.419,0.34,0.847,0.34,1.283
			c0,0.402-0.117,0.664-0.352,0.784C313.28,487.76,312.952,487.822,312.528,487.822z M309.362,486.909h2.935
			c-0.039-0.548-0.189-0.961-0.447-1.232c-0.26-0.272-0.6-0.408-1.023-0.408c-0.402,0-0.734,0.138-0.992,0.414
			C309.575,485.958,309.419,486.369,309.362,486.909z M319.903,488.592c0,0.443-0.107,0.823-0.326,1.139
			c-0.217,0.316-0.537,0.555-0.963,0.717c-0.424,0.163-0.941,0.244-1.551,0.244c-0.58,0-1.078-0.089-1.494-0.263
			c-0.414-0.179-0.721-0.399-0.918-0.663c-0.197-0.266-0.297-0.531-0.297-0.798c0-0.177,0.063-0.328,0.191-0.452
			c0.125-0.126,0.285-0.188,0.478-0.188c0.17,0,0.301,0.04,0.391,0.122c0.092,0.083,0.18,0.199,0.262,0.347
			c0.166,0.287,0.365,0.5,0.596,0.642c0.232,0.142,0.547,0.213,0.945,0.213c0.326,0,0.592-0.071,0.799-0.215
			c0.207-0.143,0.311-0.307,0.311-0.492c0-0.281-0.107-0.488-0.324-0.616c-0.215-0.13-0.57-0.254-1.063-0.372
			c-0.559-0.138-1.012-0.281-1.361-0.433c-0.35-0.148-0.629-0.349-0.84-0.597c-0.209-0.248-0.314-0.55-0.314-0.91
			c0-0.322,0.098-0.626,0.291-0.913c0.193-0.285,0.48-0.514,0.857-0.684c0.377-0.173,0.832-0.258,1.367-0.258
			c0.418,0,0.795,0.043,1.129,0.13c0.334,0.085,0.613,0.201,0.836,0.347c0.223,0.146,0.393,0.306,0.51,0.482
			c0.117,0.177,0.174,0.349,0.174,0.52c0,0.182-0.063,0.333-0.186,0.451c-0.125,0.118-0.301,0.177-0.531,0.177
			c-0.166,0-0.307-0.047-0.424-0.142c-0.117-0.095-0.25-0.234-0.4-0.423c-0.121-0.156-0.266-0.282-0.432-0.376
			c-0.166-0.095-0.391-0.143-0.676-0.143c-0.293,0-0.537,0.062-0.73,0.188c-0.193,0.122-0.289,0.275-0.289,0.459
			c0,0.171,0.07,0.309,0.213,0.417c0.143,0.107,0.334,0.195,0.576,0.268c0.24,0.069,0.57,0.154,0.996,0.257
			c0.5,0.123,0.91,0.268,1.228,0.437c0.318,0.169,0.559,0.368,0.725,0.597C319.823,488.035,319.903,488.297,319.903,488.592z
			 M321.558,483.416c-0.225,0-0.418-0.067-0.578-0.207c-0.16-0.136-0.24-0.33-0.24-0.582c0-0.229,0.082-0.414,0.246-0.562
			c0.164-0.147,0.355-0.221,0.572-0.221c0.211,0,0.395,0.067,0.557,0.199c0.162,0.136,0.244,0.328,0.244,0.583
			c0,0.248-0.08,0.44-0.238,0.58C321.962,483.347,321.774,483.416,321.558,483.416z M322.358,485.074v4.641
			c0,0.322-0.078,0.566-0.23,0.73c-0.156,0.165-0.35,0.246-0.588,0.246c-0.238,0-0.43-0.085-0.578-0.252
			c-0.148-0.17-0.223-0.41-0.223-0.725v-4.594c0-0.317,0.074-0.556,0.223-0.717c0.148-0.161,0.34-0.242,0.578-0.242
			c0.238,0,0.432,0.081,0.588,0.242C322.28,484.565,322.358,484.788,322.358,485.074z M329.448,485.34v4.664
			c0,0.533-0.057,0.992-0.172,1.376c-0.113,0.384-0.299,0.701-0.551,0.953c-0.254,0.25-0.584,0.438-0.994,0.558
			c-0.408,0.122-0.918,0.183-1.525,0.183c-0.557,0-1.057-0.077-1.496-0.232c-0.438-0.155-0.775-0.354-1.012-0.599
			c-0.238-0.244-0.357-0.498-0.357-0.756c0-0.197,0.068-0.356,0.203-0.48c0.133-0.122,0.297-0.185,0.486-0.185
			c0.236,0,0.443,0.105,0.623,0.311c0.086,0.107,0.176,0.215,0.268,0.321c0.094,0.108,0.197,0.2,0.309,0.277
			c0.113,0.075,0.248,0.132,0.406,0.17c0.158,0.035,0.34,0.055,0.545,0.055c0.42,0,0.746-0.057,0.977-0.173
			c0.23-0.114,0.393-0.276,0.486-0.486c0.094-0.207,0.146-0.428,0.162-0.666c0.018-0.238,0.027-0.618,0.037-1.146
			c-0.25,0.347-0.537,0.61-0.863,0.791c-0.326,0.18-0.715,0.27-1.166,0.27c-0.541,0-1.014-0.138-1.42-0.411
			c-0.404-0.275-0.717-0.661-0.934-1.153c-0.217-0.496-0.326-1.065-0.326-1.713c0-0.482,0.066-0.916,0.199-1.304
			c0.133-0.39,0.322-0.717,0.566-0.984c0.244-0.268,0.527-0.467,0.848-0.602c0.32-0.134,0.672-0.201,1.055-0.201
			c0.459,0,0.855,0.087,1.193,0.26c0.334,0.176,0.646,0.449,0.935,0.821v-0.219c0-0.277,0.068-0.492,0.207-0.647
			c0.139-0.151,0.318-0.228,0.535-0.228c0.311,0,0.52,0.102,0.621,0.302C329.397,484.668,329.448,484.958,329.448,485.34z
			 M324.759,487.375c0,0.65,0.143,1.143,0.43,1.476c0.287,0.334,0.658,0.5,1.113,0.5c0.268,0,0.521-0.071,0.76-0.215
			c0.24-0.144,0.434-0.358,0.586-0.647c0.148-0.288,0.225-0.637,0.225-1.05c0-0.653-0.145-1.164-0.435-1.528
			c-0.291-0.364-0.674-0.547-1.148-0.547c-0.463,0-0.832,0.175-1.111,0.523C324.897,486.235,324.759,486.731,324.759,487.375z
			 M332.02,485.052v0.193c0.285-0.372,0.596-0.645,0.936-0.821c0.338-0.175,0.725-0.262,1.164-0.262
			c0.428,0,0.809,0.093,1.144,0.277c0.336,0.183,0.588,0.445,0.752,0.782c0.107,0.196,0.178,0.409,0.209,0.634
			c0.031,0.229,0.047,0.517,0.047,0.872v2.987c0,0.322-0.074,0.566-0.223,0.73c-0.148,0.165-0.34,0.246-0.578,0.246
			c-0.24,0-0.435-0.085-0.586-0.252c-0.152-0.17-0.227-0.41-0.227-0.725v-2.676c0-0.53-0.074-0.936-0.223-1.215
			c-0.147-0.28-0.441-0.42-0.887-0.42c-0.287,0-0.551,0.085-0.787,0.256c-0.238,0.17-0.412,0.404-0.522,0.703
			c-0.08,0.238-0.119,0.685-0.119,1.341v2.011c0,0.326-0.076,0.57-0.228,0.732c-0.15,0.163-0.348,0.244-0.59,0.244
			c-0.232,0-0.424-0.085-0.574-0.252c-0.15-0.17-0.227-0.41-0.227-0.725v-4.641c0-0.306,0.068-0.534,0.201-0.685
			c0.135-0.151,0.318-0.227,0.551-0.227c0.143,0,0.273,0.033,0.387,0.101c0.115,0.067,0.207,0.167,0.275,0.299
			C331.987,484.697,332.02,484.859,332.02,485.052z M341.868,487.822h-3.166c0.006,0.364,0.078,0.686,0.223,0.963
			c0.145,0.279,0.336,0.488,0.576,0.63c0.238,0.144,0.502,0.211,0.791,0.211c0.193,0,0.371-0.022,0.531-0.066
			c0.158-0.047,0.315-0.116,0.465-0.212c0.15-0.097,0.287-0.199,0.416-0.31c0.125-0.11,0.289-0.26,0.49-0.447
			c0.084-0.07,0.203-0.107,0.355-0.107c0.166,0,0.301,0.047,0.404,0.136c0.103,0.092,0.154,0.22,0.154,0.384
			c0,0.146-0.059,0.314-0.172,0.508c-0.115,0.193-0.289,0.38-0.52,0.56c-0.23,0.179-0.522,0.326-0.871,0.444
			c-0.35,0.116-0.752,0.176-1.207,0.176c-1.039,0-1.848-0.294-2.426-0.883c-0.576-0.588-0.865-1.386-0.865-2.394
			c0-0.475,0.072-0.914,0.215-1.319c0.142-0.407,0.35-0.756,0.621-1.044c0.273-0.291,0.609-0.512,1.008-0.669
			c0.4-0.155,0.842-0.23,1.33-0.23c0.631,0,1.174,0.13,1.625,0.396c0.455,0.266,0.793,0.606,1.02,1.026
			c0.223,0.419,0.336,0.847,0.336,1.283c0,0.402-0.115,0.664-0.35,0.784C342.62,487.76,342.292,487.822,341.868,487.822z
			 M338.702,486.909h2.936c-0.039-0.548-0.19-0.961-0.447-1.232c-0.26-0.272-0.6-0.408-1.023-0.408
			c-0.404,0-0.734,0.138-0.994,0.414C338.915,485.958,338.759,486.369,338.702,486.909z M348.466,489.773v-0.159
			c-0.217,0.248-0.432,0.448-0.643,0.603c-0.211,0.155-0.439,0.273-0.688,0.354c-0.246,0.08-0.516,0.12-0.809,0.12
			c-0.389,0-0.746-0.081-1.076-0.244c-0.33-0.162-0.615-0.395-0.857-0.697c-0.24-0.302-0.424-0.656-0.549-1.064
			c-0.123-0.409-0.186-0.849-0.186-1.323c0-1.004,0.246-1.789,0.74-2.349c0.494-0.559,1.145-0.839,1.951-0.839
			c0.467,0,0.859,0.079,1.18,0.236c0.32,0.159,0.633,0.403,0.936,0.732v-2.37c0-0.329,0.068-0.579,0.199-0.746
			c0.133-0.17,0.322-0.254,0.566-0.254c0.246,0,0.434,0.078,0.566,0.233c0.133,0.154,0.199,0.381,0.199,0.684v7.082
			c0,0.306-0.07,0.537-0.213,0.688c-0.143,0.153-0.326,0.23-0.553,0.23c-0.221,0-0.404-0.079-0.549-0.238
			C348.538,490.295,348.466,490.068,348.466,489.773z M345.282,487.415c0,0.437,0.068,0.807,0.205,1.112
			c0.137,0.307,0.324,0.537,0.56,0.689c0.238,0.157,0.496,0.235,0.775,0.235c0.287,0,0.547-0.076,0.781-0.224
			c0.234-0.144,0.424-0.372,0.563-0.674c0.141-0.305,0.211-0.684,0.211-1.14c0-0.426-0.07-0.794-0.211-1.103
			c-0.139-0.308-0.33-0.544-0.568-0.707c-0.24-0.163-0.502-0.242-0.785-0.242c-0.297,0-0.563,0.083-0.795,0.25
			c-0.232,0.165-0.414,0.405-0.543,0.717C345.347,486.643,345.282,487.005,345.282,487.415z M355.083,482.691v2.453
			c0.305-0.313,0.613-0.555,0.93-0.721c0.316-0.165,0.709-0.248,1.176-0.248c0.537,0,1.008,0.126,1.414,0.378
			c0.404,0.254,0.719,0.62,0.941,1.101c0.225,0.479,0.336,1.05,0.336,1.709c0,0.486-0.063,0.932-0.188,1.339
			c-0.125,0.404-0.305,0.755-0.541,1.054c-0.238,0.301-0.525,0.529-0.863,0.691c-0.338,0.163-0.711,0.244-1.117,0.244
			c-0.25,0-0.484-0.028-0.703-0.089c-0.221-0.058-0.406-0.134-0.56-0.23s-0.285-0.195-0.395-0.299
			c-0.109-0.101-0.252-0.255-0.43-0.459v0.159c0,0.302-0.074,0.531-0.221,0.686c-0.145,0.155-0.33,0.232-0.557,0.232
			c-0.228,0-0.412-0.077-0.547-0.232c-0.137-0.154-0.205-0.384-0.205-0.686v-7.013c0-0.323,0.064-0.569,0.197-0.736
			c0.133-0.166,0.318-0.25,0.555-0.25c0.25,0,0.441,0.08,0.576,0.237C355.015,482.172,355.083,482.398,355.083,482.691z
			 M355.159,487.462c0,0.642,0.148,1.13,0.441,1.475c0.295,0.343,0.682,0.516,1.16,0.516c0.406,0,0.758-0.177,1.053-0.527
			c0.293-0.353,0.441-0.853,0.441-1.51c0-0.424-0.061-0.788-0.184-1.093c-0.123-0.306-0.297-0.544-0.521-0.709
			c-0.225-0.167-0.488-0.25-0.789-0.25c-0.309,0-0.584,0.083-0.824,0.25c-0.24,0.165-0.432,0.407-0.568,0.723
			C355.229,486.65,355.159,487.027,355.159,487.462z M361.977,490.892l0.148-0.358l-1.992-4.979
			c-0.123-0.284-0.184-0.492-0.184-0.621c0-0.138,0.035-0.266,0.105-0.382c0.072-0.116,0.17-0.214,0.295-0.283
			c0.125-0.071,0.254-0.106,0.389-0.106c0.232,0,0.408,0.073,0.527,0.221c0.119,0.147,0.223,0.358,0.314,0.632l1.369,3.953
			l1.299-3.676c0.102-0.297,0.195-0.531,0.279-0.7c0.082-0.168,0.17-0.282,0.262-0.341c0.094-0.06,0.225-0.089,0.397-0.089
			c0.123,0,0.24,0.033,0.352,0.097c0.113,0.066,0.199,0.153,0.262,0.264c0.06,0.108,0.092,0.225,0.092,0.345
			c-0.018,0.076-0.041,0.181-0.078,0.318c-0.035,0.137-0.078,0.276-0.129,0.418l-2.111,5.483c-0.182,0.48-0.359,0.858-0.535,1.134
			c-0.174,0.275-0.402,0.486-0.69,0.634c-0.287,0.147-0.674,0.219-1.16,0.219c-0.473,0-0.83-0.051-1.066-0.151
			c-0.238-0.104-0.355-0.291-0.355-0.56c0-0.185,0.057-0.326,0.17-0.427c0.111-0.099,0.279-0.151,0.5-0.151
			c0.088,0,0.172,0.014,0.256,0.037c0.102,0.023,0.191,0.035,0.266,0.035c0.186,0,0.332-0.027,0.439-0.083
			c0.105-0.055,0.201-0.149,0.287-0.285C361.77,491.354,361.866,491.155,361.977,490.892z M385.427,484.302
			c-0.543,0-0.814,0.189-0.814,0.577c0,0.173,0.066,0.314,0.197,0.421c0.131,0.108,0.315,0.16,0.557,0.16h0.447v4.255
			c0,0.316,0.074,0.559,0.227,0.725c0.154,0.167,0.344,0.25,0.572,0.25c0.242,0,0.438-0.083,0.59-0.25
			c0.154-0.166,0.23-0.408,0.23-0.725v-4.255h0.395c0.289,0,0.516-0.032,0.68-0.107c0.164-0.069,0.244-0.238,0.244-0.498
			c0-0.37-0.307-0.554-0.924-0.554h-0.395v-0.382c0-0.32,0.041-0.564,0.121-0.734c0.086-0.169,0.273-0.256,0.564-0.256
			c0.107,0,0.242,0.012,0.389,0.033c0.156,0.025,0.268,0.036,0.33,0.036c0.133,0,0.252-0.052,0.348-0.156
			c0.1-0.107,0.15-0.234,0.15-0.382c0-0.463-0.471-0.69-1.42-0.69c-0.531,0-0.951,0.068-1.258,0.202
			c-0.307,0.136-0.525,0.351-0.652,0.647c-0.131,0.296-0.191,0.695-0.191,1.199v0.482H385.427 M390.726,488.372
			c0-0.483,0.014-0.891,0.045-1.227c0.033-0.335,0.09-0.625,0.17-0.869c0.084-0.24,0.201-0.423,0.353-0.549
			c0.148-0.122,0.344-0.184,0.58-0.184c0.172,0,0.373,0.034,0.602,0.106c0.227,0.071,0.369,0.11,0.432,0.11
			c0.158,0,0.305-0.063,0.441-0.192c0.135-0.126,0.203-0.288,0.203-0.484c0-0.278-0.158-0.504-0.48-0.672
			c-0.32-0.169-0.648-0.254-0.99-0.254s-0.609,0.085-0.816,0.254c-0.203,0.168-0.4,0.416-0.594,0.748
			c-0.014-0.332-0.078-0.58-0.197-0.748c-0.119-0.169-0.313-0.254-0.582-0.254c-0.525,0-0.789,0.362-0.789,1.085v4.472
			c0,0.322,0.078,0.564,0.227,0.727c0.148,0.169,0.34,0.248,0.578,0.248c0.236,0,0.432-0.079,0.584-0.244
			c0.152-0.16,0.234-0.404,0.234-0.73V488.372 M398.167,487.82h-3.168c0.006,0.364,0.078,0.688,0.223,0.965
			c0.147,0.277,0.336,0.486,0.576,0.63c0.24,0.142,0.502,0.209,0.793,0.209c0.193,0,0.369-0.02,0.531-0.067
			c0.158-0.043,0.315-0.114,0.463-0.212c0.152-0.093,0.289-0.195,0.416-0.31c0.127-0.108,0.291-0.258,0.492-0.443
			c0.084-0.07,0.203-0.109,0.355-0.109c0.168,0,0.301,0.047,0.404,0.138c0.103,0.092,0.152,0.218,0.152,0.382
			c0,0.147-0.055,0.314-0.166,0.508c-0.117,0.195-0.289,0.382-0.522,0.561c-0.234,0.177-0.525,0.326-0.873,0.442
			c-0.35,0.118-0.752,0.176-1.207,0.176c-1.041,0-1.85-0.292-2.426-0.879c-0.576-0.592-0.867-1.39-0.867-2.397
			c0-0.473,0.072-0.914,0.217-1.321c0.139-0.407,0.348-0.752,0.623-1.044c0.272-0.293,0.605-0.514,1.006-0.669
			c0.398-0.153,0.84-0.23,1.328-0.23c0.631,0,1.174,0.132,1.627,0.4c0.451,0.262,0.797,0.604,1.018,1.024
			c0.226,0.421,0.338,0.847,0.338,1.285c0,0.401-0.117,0.662-0.35,0.782C398.919,487.76,398.591,487.82,398.167,487.82
			 M394.999,486.907h2.935c-0.039-0.548-0.185-0.961-0.445-1.23c-0.262-0.274-0.598-0.408-1.023-0.408
			c-0.404,0-0.736,0.136-0.994,0.412C395.214,485.958,395.054,486.367,394.999,486.907 M404.901,487.82h-3.166
			c0.004,0.364,0.078,0.688,0.221,0.965c0.145,0.277,0.336,0.486,0.574,0.63c0.24,0.142,0.502,0.209,0.795,0.209
			c0.191,0,0.369-0.02,0.525-0.067c0.162-0.043,0.316-0.114,0.469-0.212c0.15-0.093,0.287-0.195,0.414-0.31
			c0.125-0.108,0.291-0.258,0.494-0.443c0.084-0.07,0.203-0.109,0.354-0.109c0.168,0,0.301,0.047,0.406,0.138
			c0.101,0.092,0.15,0.218,0.15,0.382c0,0.147-0.055,0.314-0.172,0.508c-0.109,0.195-0.283,0.382-0.518,0.561
			c-0.23,0.177-0.523,0.326-0.871,0.442c-0.348,0.118-0.754,0.176-1.207,0.176c-1.041,0-1.848-0.292-2.426-0.879
			c-0.578-0.592-0.867-1.39-0.867-2.397c0-0.473,0.072-0.914,0.217-1.321c0.141-0.407,0.348-0.752,0.621-1.044
			c0.272-0.293,0.607-0.514,1.008-0.669c0.398-0.153,0.844-0.23,1.328-0.23c0.631,0,1.174,0.132,1.631,0.4
			c0.451,0.262,0.791,0.604,1.014,1.024c0.223,0.421,0.34,0.847,0.34,1.285c0,0.401-0.119,0.662-0.35,0.782
			C405.651,487.76,405.323,487.82,404.901,487.82 M401.735,486.907h2.934c-0.039-0.548-0.189-0.961-0.445-1.23
			c-0.264-0.274-0.602-0.408-1.025-0.408c-0.404,0-0.734,0.136-0.996,0.412C401.946,485.958,401.788,486.367,401.735,486.907
			 M408.446,485.063v0.192c0.305-0.372,0.621-0.646,0.953-0.819c0.322-0.177,0.697-0.264,1.111-0.264
			c0.496,0,0.959,0.128,1.377,0.382c0.42,0.256,0.75,0.63,0.994,1.118c0.242,0.492,0.365,1.071,0.365,1.741
			c0,0.494-0.07,0.949-0.211,1.364c-0.139,0.413-0.334,0.76-0.58,1.041c-0.244,0.278-0.533,0.496-0.867,0.646
			c-0.338,0.149-0.693,0.225-1.078,0.225c-0.461,0-0.852-0.091-1.164-0.276c-0.314-0.181-0.613-0.454-0.9-0.809v2.411
			c0,0.703-0.26,1.06-0.775,1.06c-0.307,0-0.506-0.091-0.608-0.273c-0.094-0.184-0.146-0.447-0.146-0.798v-6.934
			c0-0.306,0.068-0.53,0.201-0.686c0.133-0.149,0.318-0.227,0.553-0.227c0.228,0,0.414,0.077,0.559,0.232
			C408.376,484.548,408.446,484.769,408.446,485.063 M411.62,487.396c0-0.424-0.066-0.788-0.195-1.091
			c-0.131-0.304-0.313-0.536-0.541-0.699c-0.229-0.163-0.488-0.246-0.77-0.246c-0.445,0-0.822,0.179-1.129,0.523
			c-0.307,0.351-0.463,0.864-0.463,1.544c0,0.636,0.154,1.136,0.461,1.49c0.303,0.355,0.678,0.531,1.131,0.531
			c0.268,0,0.518-0.078,0.748-0.229c0.23-0.156,0.414-0.389,0.551-0.697C411.55,488.21,411.62,487.836,411.62,487.396
			 M414.876,483.412c-0.227,0-0.418-0.071-0.576-0.207c-0.162-0.138-0.24-0.33-0.24-0.582c0-0.226,0.08-0.414,0.246-0.563
			c0.164-0.144,0.354-0.219,0.57-0.219c0.213,0,0.396,0.066,0.559,0.197c0.162,0.136,0.244,0.332,0.244,0.585
			c0,0.248-0.08,0.442-0.236,0.58C415.284,483.341,415.097,483.412,414.876,483.412 M415.679,485.07v4.646
			c0,0.32-0.078,0.563-0.23,0.725c-0.156,0.169-0.352,0.248-0.588,0.248c-0.238,0-0.428-0.083-0.58-0.25
			c-0.146-0.172-0.221-0.412-0.221-0.723v-4.6c0-0.315,0.074-0.554,0.221-0.715c0.152-0.165,0.342-0.244,0.58-0.244
			c0.236,0,0.432,0.079,0.588,0.244C415.601,484.564,415.679,484.786,415.679,485.07 M420.896,489.957
			c0.182,0.275,0.33,0.468,0.436,0.576c0.107,0.106,0.262,0.156,0.459,0.156c0.225,0,0.412-0.071,0.553-0.219
			c0.141-0.149,0.213-0.347,0.213-0.604c0-0.087-0.029-0.186-0.082-0.284c-0.053-0.102-0.145-0.243-0.264-0.438l-1.66-2.591
			l0.859-0.78c0.438-0.394,0.658-0.71,0.658-0.944c0-0.189-0.068-0.351-0.199-0.477c-0.139-0.128-0.307-0.193-0.51-0.193
			c-0.168,0-0.313,0.045-0.43,0.13c-0.121,0.085-0.291,0.25-0.516,0.482l-1.82,1.896v-3.898c0-0.325-0.076-0.577-0.221-0.744
			c-0.148-0.17-0.346-0.254-0.594-0.254c-0.254,0-0.455,0.092-0.594,0.279c-0.137,0.189-0.209,0.459-0.209,0.814v6.851
			c0,0.322,0.074,0.564,0.215,0.727c0.143,0.169,0.34,0.248,0.588,0.248c0.213,0,0.404-0.083,0.566-0.25
			c0.164-0.166,0.248-0.402,0.248-0.713v-1.278l0.879-0.821L420.896,489.957 M424.415,490.69c0.236,0,0.443-0.077,0.623-0.238
			c0.174-0.156,0.264-0.376,0.264-0.656c0-0.24-0.09-0.45-0.264-0.62c-0.18-0.169-0.391-0.254-0.639-0.254
			c-0.25,0-0.457,0.085-0.629,0.258c-0.17,0.172-0.256,0.378-0.256,0.616c0,0.284,0.09,0.506,0.268,0.66
			C423.96,490.612,424.169,490.69,424.415,490.69 M432.466,488.702c0-0.167-0.066-0.328-0.197-0.477
			c-0.129-0.147-0.293-0.224-0.49-0.224c-0.168,0-0.309,0.053-0.422,0.153c-0.113,0.103-0.221,0.242-0.318,0.423
			c-0.178,0.308-0.381,0.534-0.615,0.684c-0.23,0.149-0.51,0.223-0.834,0.223c-0.24,0-0.463-0.044-0.666-0.14
			c-0.201-0.093-0.371-0.227-0.516-0.404c-0.143-0.179-0.25-0.393-0.324-0.647c-0.074-0.252-0.113-0.533-0.113-0.835
			c0-0.64,0.146-1.149,0.438-1.52c0.295-0.37,0.682-0.556,1.158-0.556c0.332,0,0.605,0.073,0.82,0.225
			c0.219,0.148,0.422,0.372,0.621,0.669c0.109,0.154,0.209,0.265,0.299,0.335c0.09,0.067,0.201,0.104,0.338,0.104
			c0.201,0,0.377-0.067,0.523-0.201c0.145-0.134,0.215-0.299,0.215-0.488c0-0.19-0.064-0.394-0.193-0.612
			c-0.127-0.216-0.313-0.419-0.555-0.614c-0.244-0.19-0.539-0.347-0.891-0.47c-0.352-0.121-0.734-0.182-1.154-0.182
			c-0.674,0-1.26,0.136-1.746,0.415c-0.484,0.274-0.857,0.668-1.111,1.172c-0.258,0.506-0.387,1.089-0.387,1.75
			c0,0.971,0.281,1.747,0.84,2.327c0.563,0.577,1.344,0.867,2.346,0.867c0.469,0,0.893-0.063,1.27-0.189
			c0.375-0.124,0.686-0.293,0.932-0.498c0.248-0.205,0.434-0.42,0.553-0.649C432.405,489.116,432.466,488.901,432.466,488.702
			 M439.452,487.427c0,0.477-0.076,0.919-0.223,1.323c-0.152,0.405-0.369,0.752-0.654,1.041c-0.283,0.29-0.625,0.514-1.02,0.668
			c-0.398,0.153-0.842,0.232-1.334,0.232c-0.49,0-0.932-0.079-1.324-0.236c-0.391-0.154-0.73-0.382-1.016-0.67
			c-0.287-0.295-0.504-0.642-0.656-1.039c-0.143-0.398-0.219-0.839-0.219-1.319c0-0.486,0.076-0.934,0.223-1.337
			c0.152-0.405,0.369-0.75,0.648-1.036c0.283-0.287,0.621-0.506,1.019-0.663c0.402-0.155,0.842-0.232,1.324-0.232
			c0.488,0,0.934,0.077,1.334,0.238c0.398,0.155,0.738,0.38,1.027,0.666c0.285,0.295,0.5,0.638,0.648,1.037
			C439.378,486.503,439.452,486.942,439.452,487.427 M437.827,487.427c0-0.656-0.147-1.166-0.436-1.528
			c-0.289-0.37-0.682-0.551-1.17-0.551c-0.318,0-0.598,0.082-0.838,0.244c-0.242,0.161-0.426,0.401-0.557,0.721
			c-0.131,0.318-0.195,0.689-0.195,1.114c0,0.421,0.063,0.785,0.191,1.097c0.131,0.318,0.315,0.559,0.555,0.723
			c0.24,0.167,0.519,0.25,0.844,0.25c0.488,0,0.881-0.182,1.17-0.55C437.681,488.578,437.827,488.072,437.827,487.427
			 M445.628,487.545c0-0.688,0.06-1.168,0.176-1.439c0.109-0.207,0.258-0.38,0.449-0.504c0.193-0.124,0.396-0.189,0.609-0.189
			c0.264,0,0.463,0.071,0.596,0.213c0.127,0.14,0.209,0.315,0.238,0.523c0.027,0.209,0.043,0.482,0.043,0.829v2.701
			c0,0.333,0.078,0.587,0.234,0.757c0.156,0.171,0.357,0.256,0.604,0.256c0.252,0,0.457-0.085,0.609-0.252
			c0.154-0.172,0.23-0.422,0.23-0.761v-3.136c0-0.623-0.068-1.081-0.207-1.373c-0.158-0.318-0.396-0.566-0.715-0.74
			c-0.32-0.171-0.705-0.258-1.145-0.258c-0.381,0-0.727,0.079-1.039,0.238c-0.313,0.159-0.605,0.403-0.879,0.73
			c-0.191-0.322-0.432-0.566-0.725-0.728c-0.291-0.159-0.641-0.24-1.047-0.24c-0.395,0-0.748,0.077-1.07,0.238
			c-0.318,0.155-0.619,0.399-0.902,0.73v-0.151c0-0.26-0.072-0.463-0.221-0.61c-0.148-0.143-0.334-0.221-0.557-0.221
			c-0.227,0-0.412,0.077-0.555,0.238c-0.141,0.155-0.209,0.384-0.209,0.688v4.595c0,0.333,0.078,0.587,0.234,0.757
			c0.156,0.171,0.355,0.256,0.604,0.256c0.248,0,0.447-0.085,0.602-0.256c0.15-0.17,0.227-0.424,0.227-0.757v-2.169
			c0-0.678,0.086-1.195,0.254-1.552c0.168-0.366,0.516-0.546,1.045-0.546c0.264,0,0.459,0.071,0.582,0.219
			c0.121,0.14,0.197,0.327,0.227,0.546c0.025,0.224,0.039,0.539,0.039,0.944v2.558c0,0.339,0.078,0.589,0.233,0.761
			c0.148,0.167,0.348,0.252,0.594,0.252c0.254,0,0.455-0.085,0.611-0.252c0.154-0.172,0.231-0.422,0.231-0.761V487.545
			 M370.278,487.037c-0.002-0.004-0.002-0.006-0.002-0.006S370.276,487.033,370.278,487.037z M370.358,487.551
			c0.002,0,0.002,0,0.002,0c-0.031-0.148-0.055-0.292-0.072-0.434C370.306,487.26,370.329,487.407,370.358,487.551z
			 M370.895,489.041c-0.004-0.006-0.008-0.014-0.012-0.021C370.888,489.027,370.892,489.035,370.895,489.041z M370.843,488.942
			c-0.014-0.027-0.027-0.057-0.039-0.084C370.815,488.888,370.829,488.915,370.843,488.942z M370.509,488.124
			c0.08,0.248,0.176,0.488,0.287,0.72c-0.113-0.237-0.207-0.478-0.285-0.72H370.509z M376.542,480.884
			c0.314,0,0.545,0.025,0.809,0.069l0.076-0.473c0,0-0.732-0.223-1.691-0.146l-0.076-0.258c0.299-0.061,0.523-0.325,0.523-0.639
			c0-0.36-0.297-0.653-0.66-0.653c-0.365,0-0.66,0.293-0.66,0.653c0,0.314,0.225,0.577,0.521,0.639l0.084,0.287
			c-1.02,0.14-1.832,0.535-1.832,0.535l0.145,0.436c0.617-0.203,1.152-0.327,1.639-0.38
			C375.893,480.905,376.251,480.884,376.542,480.884z M370.882,483.274l0.004-0.006c0.025-0.031,0.047-0.06,0.072-0.089l-0.197-0.14
			l-0.303-0.221c-0.018,0.023-0.496,0.461-0.875,1.269c-0.016-0.024-0.035-0.05-0.057-0.073c-0.113-0.122-0.271-0.185-0.473-0.182
			c-0.002,0-0.006,0-0.01,0c-0.125,0-0.211-0.041-0.266-0.094c0.055-0.069,0.088-0.156,0.088-0.254c0-0.229-0.188-0.414-0.418-0.414
			s-0.416,0.186-0.416,0.414c0,0.229,0.185,0.413,0.416,0.413c0.037,0,0.07-0.006,0.105-0.012c0.102,0.112,0.266,0.211,0.504,0.207
			c0.123-0.002,0.213,0.029,0.272,0.096c0.07,0.075,0.094,0.183,0.102,0.266c-0.002,0-0.002,0.003-0.002,0.003
			c-0.271,0.736-0.195,1.653-0.195,1.653l0.66,0.025c0.014-0.334,0.063-0.917,0.232-1.382
			C370.454,483.857,370.866,483.296,370.882,483.274z M382.286,481.432c-0.23,0-0.418,0.185-0.418,0.413
			c0,0.037,0.006,0.071,0.016,0.103c-0.115,0.103-0.215,0.266-0.211,0.504c0.002,0.12-0.029,0.209-0.098,0.27
			c-0.053,0.046-0.119,0.069-0.184,0.087c-0.49-0.682-1.096-1.101-1.096-1.101l-0.475,0.504c0.359,0.323,0.725,0.729,1.08,1.234
			c0.246,0.347,0.498,0.798,0.709,1.246l0.639-0.301c0,0-0.291-0.715-0.703-1.358c0.072-0.023,0.142-0.061,0.207-0.118
			c0.125-0.112,0.185-0.271,0.182-0.469c0-0.13,0.043-0.217,0.094-0.273c0.072,0.053,0.16,0.087,0.258,0.087
			c0.23,0,0.418-0.186,0.418-0.414C382.704,481.616,382.517,481.432,382.286,481.432z M380.628,487.131
			c-0.881,0.424-2.328,0.986-4.234,1.249c-0.748,0.102-1.473,0.142-2.139,0.142c-0.869,0-1.637-0.064-2.225-0.138
			c-0.672-0.085-1.197-0.188-1.52-0.26c0.078,0.242,0.172,0.482,0.285,0.72c0,0.006,0.004,0.011,0.008,0.015
			c0.012,0.027,0.025,0.057,0.039,0.084c0.014,0.026,0.027,0.054,0.041,0.077c0.004,0.008,0.008,0.016,0.012,0.021
			c0.188,0.355,0.416,0.678,0.674,0.959c0.898,0.977,1.814,1.13,1.822,1.132l0.016,0.002l0.014,0.004
			c0.008,0.004,0.82,0.264,2.055,0.264c1.213,0,2.406-0.244,3.541-0.724c0.842-0.426,1.637-1.075,2.031-1.652
			c0.305-0.447,0.525-0.926,0.656-1.422c0.068-0.264,0.125-0.686,0.092-1.13C381.548,486.639,381.157,486.875,380.628,487.131z
			 M371.165,483.479c-0.025,0.037-0.408,0.574-0.709,1.396c-0.225,0.616-0.215,1.514-0.215,1.525l0,0
			c0,0.211,0.012,0.42,0.035,0.627c0,0,0,0.006,0.002,0.01c0.002,0.027,0.006,0.053,0.01,0.08c0.017,0.142,0.041,0.286,0.072,0.434
			c0.438,0.11,3.045,0.713,5.961,0.31c1.828-0.252,3.215-0.787,4.057-1.192c0.701-0.337,1.15-0.643,1.324-0.767
			c-0.174-0.638-0.65-1.636-1.088-2.258c-1.252-1.774-2.602-2.232-3.295-2.345c-0.264-0.042-0.477-0.067-0.777-0.067
			c-0.279,0-0.625,0.023-1.086,0.071c-0.465,0.049-0.982,0.169-1.582,0.368c-0.842,0.279-1.602,0.719-2.201,1.27l-0.02,0.018
			C371.563,483.04,371.378,483.211,371.165,483.479z M378.823,483.067c0.602,0,1.09,0.482,1.09,1.079
			c0,0.595-0.488,1.081-1.09,1.081c-0.6,0-1.086-0.486-1.086-1.081C377.737,483.55,378.224,483.067,378.823,483.067z
			 M373.679,483.024c0.973,0,1.76,0.781,1.76,1.744c0,0.965-0.787,1.744-1.76,1.744c-0.969,0-1.756-0.779-1.756-1.744
			C371.923,483.806,372.71,483.024,373.679,483.024z"/>
	</g>
</g>
</svg>
