<?xml version="1.0" encoding="utf-8"?>
<!-- Generator: Adobe Illustrator 27.5.0, SVG Export Plug-In . SVG Version: 6.00 Build 0)  -->
<svg version="1.1" id="Слой_1" xmlns="http://www.w3.org/2000/svg" xmlns:xlink="http://www.w3.org/1999/xlink" x="0px" y="0px"
	 viewBox="0 0 3005.8 2000" style="enable-background:new 0 0 3005.8 2000;" xml:space="preserve">
<g>
	<rect style="fill:#FAFAFA;" width="3005.8" height="2000"/>
	<polygon style="fill:#5C81FE;" points="2704.441,1631.334 2463.94,1445.939 2463.94,1549.198 2434.47,1549.198 2201.826,1549.198 
		830.889,1549.198 830.889,1715.117 2348.486,1715.117 2434.47,1715.117 2463.94,1715.117 2463.94,1816.728 	"/>
	<linearGradient id="SVGID_1_" gradientUnits="userSpaceOnUse" x1="2562.0857" y1="385.0749" x2="1992.6121" y2="764.7244">
		<stop  offset="0" style="stop-color:#40D5E6"/>
		<stop  offset="1" style="stop-color:#4B69E0"/>
	</linearGradient>
	<path style="fill:url(#SVGID_1_);" d="M2341.314,265.184l-165.143,35.593l76.453,150.644l27.206-57.128
		c122.268,58.226,174.37,205.069,116.145,327.337C2337.749,843.898,2190.906,896,2068.638,837.774
		c-122.268-58.226-174.37-205.069-116.145-327.338l-71.98-34.277c-77.127,161.958-8.111,356.469,153.847,433.596
		c161.96,77.127,356.47,8.111,433.597-153.847s8.111-356.469-153.848-433.596L2341.314,265.184z"/>
	<g>
		<defs>
			<filter id="Adobe_OpacityMaskFilter" filterUnits="userSpaceOnUse" x="504.927" y="153.357" width="1561.761" height="1561.76">
				<feFlood  style="flood-color:white;flood-opacity:1" result="back"/>
				<feBlend  in="SourceGraphic" in2="back" mode="normal"/>
			</filter>
		</defs>
		
			<mask maskUnits="userSpaceOnUse" x="504.927" y="153.357" width="1561.761" height="1561.76" id="SVGID_00000134251793716610600730000009550431863320877204_">
			<g style="filter:url(#Adobe_OpacityMaskFilter);">
				<defs>
					
						<filter id="Adobe_OpacityMaskFilter_00000125582905577167288070000017187724993822204582_" filterUnits="userSpaceOnUse" x="504.927" y="153.357" width="1561.761" height="1561.76">
						<feFlood  style="flood-color:white;flood-opacity:1" result="back"/>
						<feBlend  in="SourceGraphic" in2="back" mode="normal"/>
					</filter>
				</defs>
				
					<mask maskUnits="userSpaceOnUse" x="504.927" y="153.357" width="1561.761" height="1561.76" id="SVGID_00000134251793716610600730000009550431863320877204_">
					<g style="filter:url(#Adobe_OpacityMaskFilter_00000125582905577167288070000017187724993822204582_);">
					</g>
				</mask>
				
					<linearGradient id="SVGID_00000056400441603103244430000000115503537135876007_" gradientUnits="userSpaceOnUse" x1="504.9267" y1="934.2371" x2="2066.6875" y2="934.2371">
					<stop  offset="0" style="stop-color:#000000"/>
					<stop  offset="1" style="stop-color:#FFFFFF"/>
				</linearGradient>
				
					<path style="mask:url(#SVGID_00000134251793716610600730000009550431863320877204_);fill:url(#SVGID_00000056400441603103244430000000115503537135876007_);" d="
					M1285.807,1715.117c-105.381,0-207.654-20.658-303.979-61.4c-92.997-39.334-176.499-95.627-248.187-167.314
					s-127.982-155.189-167.315-248.187c-40.741-96.324-61.399-198.598-61.399-303.979c0-105.382,20.658-207.656,61.399-303.979
					c39.334-92.997,95.628-176.499,167.315-248.187s155.189-127.98,248.187-167.314c96.324-40.742,198.598-61.4,303.979-61.4
					c105.382,0,207.655,20.658,303.979,61.4c92.997,39.334,176.498,95.627,248.186,167.314
					c71.688,71.688,127.981,155.19,167.315,248.187c40.741,96.323,61.4,198.598,61.4,303.979c0,105.381-20.658,207.654-61.4,303.979
					c-39.335,92.997-95.628,176.499-167.315,248.187c-71.688,71.688-155.189,127.98-248.186,167.314
					C1493.462,1694.459,1391.188,1715.117,1285.807,1715.117z M1285.807,319.275c-339.091,0-614.962,275.87-614.962,614.962
					c0,339.091,275.871,614.961,614.962,614.961c339.092,0,614.962-275.87,614.962-614.961
					C1900.768,595.146,1624.898,319.275,1285.807,319.275z"/>
			</g>
		</mask>
		
			<linearGradient id="SVGID_00000087413592417580728950000008314362795518797759_" gradientUnits="userSpaceOnUse" x1="504.9267" y1="934.2371" x2="2066.6875" y2="934.2371">
			<stop  offset="0" style="stop-color:#40D5E6"/>
			<stop  offset="1" style="stop-color:#5577FF"/>
		</linearGradient>
		<path style="fill:url(#SVGID_00000087413592417580728950000008314362795518797759_);" d="M1285.807,1715.117
			c-105.381,0-207.654-20.658-303.979-61.4c-92.997-39.334-176.499-95.627-248.187-167.314s-127.982-155.189-167.315-248.187
			c-40.741-96.324-61.399-198.598-61.399-303.979c0-105.382,20.658-207.656,61.399-303.979
			c39.334-92.997,95.628-176.499,167.315-248.187s155.189-127.98,248.187-167.314c96.324-40.742,198.598-61.4,303.979-61.4
			c105.382,0,207.655,20.658,303.979,61.4c92.997,39.334,176.498,95.627,248.186,167.314
			c71.688,71.688,127.981,155.19,167.315,248.187c40.741,96.323,61.4,198.598,61.4,303.979c0,105.381-20.658,207.654-61.4,303.979
			c-39.335,92.997-95.628,176.499-167.315,248.187c-71.688,71.688-155.189,127.98-248.186,167.314
			C1493.462,1694.459,1391.188,1715.117,1285.807,1715.117z M1285.807,319.275c-339.091,0-614.962,275.87-614.962,614.962
			c0,339.091,275.871,614.961,614.962,614.961c339.092,0,614.962-275.87,614.962-614.961
			C1900.768,595.146,1624.898,319.275,1285.807,319.275z"/>
	</g>
	<defs>
		
			<filter id="Adobe_OpacityMaskFilter_00000002350683457660134620000011079857378976037806_" filterUnits="userSpaceOnUse" x="700.998" y="1268.396" width="1177.282" height="232.919">
			<feFlood  style="flood-color:white;flood-opacity:1" result="back"/>
			<feBlend  in="SourceGraphic" in2="back" mode="normal"/>
		</filter>
	</defs>
	
		<mask maskUnits="userSpaceOnUse" x="700.998" y="1268.396" width="1177.282" height="232.919" id="SVGID_00000034058442216997197700000008831520183409027200_">
		<g style="filter:url(#Adobe_OpacityMaskFilter_00000002350683457660134620000011079857378976037806_);">
			<defs>
				
					<filter id="Adobe_OpacityMaskFilter_00000129190713651664034560000007968714786027914125_" filterUnits="userSpaceOnUse" x="700.998" y="1268.396" width="1177.282" height="232.919">
					<feFlood  style="flood-color:white;flood-opacity:1" result="back"/>
					<feBlend  in="SourceGraphic" in2="back" mode="normal"/>
				</filter>
			</defs>
			
				<mask maskUnits="userSpaceOnUse" x="700.998" y="1268.396" width="1177.282" height="232.919" id="SVGID_00000034058442216997197700000008831520183409027200_">
				<g style="filter:url(#Adobe_OpacityMaskFilter_00000129190713651664034560000007968714786027914125_);">
				</g>
			</mask>
			
				<linearGradient id="SVGID_00000096752148579023343400000001330683324797964974_" gradientUnits="userSpaceOnUse" x1="1289.6392" y1="1306.5242" x2="1289.6392" y2="1636.9126">
				<stop  offset="0" style="stop-color:#000000"/>
				<stop  offset="1" style="stop-color:#FFFFFF"/>
			</linearGradient>
			
				<rect x="700.998" y="1268.396" style="mask:url(#SVGID_00000034058442216997197700000008831520183409027200_);fill:url(#SVGID_00000096752148579023343400000001330683324797964974_);" width="1177.282" height="232.919"/>
		</g>
	</mask>
	
		<linearGradient id="SVGID_00000054265955771628449870000018204736238797002908_" gradientUnits="userSpaceOnUse" x1="1289.6392" y1="1306.5242" x2="1289.6392" y2="1636.9126">
		<stop  offset="0" style="stop-color:#40D5E6"/>
		<stop  offset="1" style="stop-color:#5577FF"/>
	</linearGradient>
	
		<rect x="700.998" y="1268.396" style="fill:url(#SVGID_00000054265955771628449870000018204736238797002908_);" width="1177.282" height="232.919"/>
	<g>
		<defs>
			
				<filter id="Adobe_OpacityMaskFilter_00000037680895388702428860000012385054724748883854_" filterUnits="userSpaceOnUse" x="326.553" y="1549.188" width="959.255" height="165.925">
				<feFlood  style="flood-color:white;flood-opacity:1" result="back"/>
				<feBlend  in="SourceGraphic" in2="back" mode="normal"/>
			</filter>
		</defs>
		
			<mask maskUnits="userSpaceOnUse" x="326.553" y="1549.188" width="959.255" height="165.925" id="SVGID_00000129907434881011319800000001968365790921213098_">
			<g style="filter:url(#Adobe_OpacityMaskFilter_00000037680895388702428860000012385054724748883854_);">
				<defs>
					
						<filter id="Adobe_OpacityMaskFilter_00000059267988801648302200000015525284533451181722_" filterUnits="userSpaceOnUse" x="326.553" y="1549.188" width="959.255" height="165.925">
						<feFlood  style="flood-color:white;flood-opacity:1" result="back"/>
						<feBlend  in="SourceGraphic" in2="back" mode="normal"/>
					</filter>
				</defs>
				
					<mask maskUnits="userSpaceOnUse" x="326.553" y="1549.188" width="959.255" height="165.925" id="SVGID_00000129907434881011319800000001968365790921213098_">
					<g style="filter:url(#Adobe_OpacityMaskFilter_00000059267988801648302200000015525284533451181722_);">
					</g>
				</mask>
				
					<linearGradient id="SVGID_00000173858289514263850740000014255355718864928919_" gradientUnits="userSpaceOnUse" x1="326.5527" y1="1632.1509" x2="1285.8076" y2="1632.1509">
					<stop  offset="0" style="stop-color:#000000"/>
					<stop  offset="1" style="stop-color:#FFFFFF"/>
				</linearGradient>
				
					<rect x="326.553" y="1549.188" style="mask:url(#SVGID_00000129907434881011319800000001968365790921213098_);fill:url(#SVGID_00000173858289514263850740000014255355718864928919_);" width="959.255" height="165.925"/>
			</g>
		</mask>
		
			<linearGradient id="SVGID_00000033346078428824892100000013063909137621627796_" gradientUnits="userSpaceOnUse" x1="326.5527" y1="1632.1509" x2="1285.8076" y2="1632.1509">
			<stop  offset="0" style="stop-color:#40D5E6"/>
			<stop  offset="1" style="stop-color:#5577FF"/>
		</linearGradient>
		
			<rect x="326.553" y="1549.188" style="fill:url(#SVGID_00000033346078428824892100000013063909137621627796_);" width="959.255" height="165.925"/>
	</g>
	<g>
		<rect x="852.101" y="662.615" style="fill:#E0E0E0;" width="191.268" height="19.584"/>
	</g>
	<g>
		<rect x="1096.897" y="810.081" style="fill:#E0E0E0;" width="138.096" height="19.584"/>
	</g>
	<g>
		<rect x="1256.506" y="810.081" style="fill:#1487E3;" width="91.641" height="19.584"/>
	</g>
	<g>
		<rect x="1443.732" y="1402.126" style="fill:#1487E3;" width="91.641" height="19.584"/>
	</g>
	<g>
		<rect x="854.271" y="1180.925" style="fill:#1487E3;" width="91.641" height="19.584"/>
	</g>
	<g>
		<rect x="1366.252" y="810.081" style="fill:#E0E0E0;" width="221.258" height="19.584"/>
	</g>
	<g>
		<rect x="854.271" y="1106.647" style="fill:#E0E0E0;" width="142.175" height="19.584"/>
	</g>
	<g>
		<rect x="1236.293" y="1254.659" style="fill:#E0E0E0;" width="142.175" height="19.583"/>
	</g>
	<g>
		<rect x="1052.454" y="1254.659" style="fill:#E0E0E0;" width="86.793" height="19.583"/>
	</g>
	<g>
		<rect x="854.271" y="1254.659" style="fill:#1487E3;" width="171.959" height="19.583"/>
	</g>
	<g>
		<rect x="854.271" y="1328.392" style="fill:#E0E0E0;" width="94.846" height="19.584"/>
	</g>
	<g>
		<rect x="1080.578" y="662.615" style="fill:#78C2FF;" width="135.78" height="19.584"/>
	</g>
	<g>
		<rect x="1080.578" y="883.815" style="fill:#1487E3;" width="135.78" height="19.584"/>
	</g>
	<g>
		<rect x="1012.688" y="957.549" style="fill:#E0E0E0;" width="58.015" height="19.584"/>
	</g>
	<g>
		<rect x="954.673" y="1032.37" style="fill:#78C2FF;" width="130.31" height="19.584"/>
	</g>
	<g>
		<rect x="1104.683" y="1032.37" style="fill:#1487E3;" width="179.893" height="19.584"/>
	</g>
	<g>
		<rect x="854.271" y="958.093" style="fill:#1487E3;" width="135.781" height="19.584"/>
	</g>
	<g>
		<rect x="854.271" y="1032.37" style="fill:#1487E3;" width="80.566" height="19.584"/>
	</g>
	<g>
		<rect x="1098.055" y="958.093" style="fill:#FF8761;" width="76.009" height="19.584"/>
	</g>
	<g>
		<rect x="856.549" y="1402.126" style="fill:#FF8761;" width="76.01" height="19.584"/>
	</g>
	<g>
		<rect x="853.727" y="810.081" style="fill:#78C2FF;" width="135.781" height="19.584"/>
	</g>
	<g>
		<rect x="973.805" y="1180.925" style="fill:#78C2FF;" width="135.78" height="19.584"/>
	</g>
	<g>
		<rect x="975.479" y="1328.392" style="fill:#78C2FF;" width="135.78" height="19.584"/>
	</g>
	<g>
		<rect x="1216.686" y="1328.392" style="fill:#78C2FF;" width="135.781" height="19.584"/>
	</g>
	<g>
		<rect x="853.727" y="883.815" style="fill:#78C2FF;" width="193.559" height="19.584"/>
	</g>
	<g>
		<rect x="1277.034" y="1402.126" style="fill:#78C2FF;" width="135.781" height="19.584"/>
	</g>
	<g>
		<rect x="1252.915" y="662.615" style="fill:#1487E3;" width="172.99" height="19.584"/>
	</g>
	<g>
		<rect x="961.254" y="1402.126" style="fill:#1487E3;" width="172.99" height="19.584"/>
	</g>
	<g>
		<rect x="1564.461" y="1402.126" style="fill:#1487E3;" width="172.99" height="19.584"/>
	</g>
	<g>
		<rect x="1537.835" y="1254.659" style="fill:#1487E3;" width="172.99" height="19.583"/>
	</g>
	<g>
		<rect x="1489.553" y="883.815" style="fill:#1487E3;" width="172.99" height="19.584"/>
	</g>
	<g>
		<rect x="1166.42" y="1254.659" style="fill:#FF8761;" width="37.292" height="19.583"/>
	</g>
	<g>
		<rect x="1553.854" y="662.615" style="fill:#FF8761;" width="172.99" height="19.584"/>
	</g>
	<g>
		<rect x="1356.46" y="883.815" style="fill:#FF8761;" width="101.433" height="19.584"/>
	</g>
	<g>
		<rect x="1277.034" y="1182.014" style="fill:#FF8761;" width="101.434" height="19.583"/>
	</g>
	<g>
		<rect x="1457.892" y="662.615" style="fill:#E0E0E0;" width="63.321" height="19.584"/>
	</g>
	<g>
		<rect x="1252.915" y="883.815" style="fill:#E0E0E0;" width="63.321" height="19.584"/>
	</g>
	<g>
		<rect x="852.101" y="736.348" style="fill:#1487E3;" width="99.062" height="19.584"/>
	</g>
	<g>
		<rect x="1116.415" y="1107.191" style="fill:#1487E3;" width="78.214" height="19.584"/>
	</g>
	<g>
		<rect x="975.479" y="736.348" style="fill:#1487E3;" width="31.986" height="19.584"/>
	</g>
	<g>
		<rect x="1378.468" y="1328.392" style="fill:#E0E0E0;" width="264.381" height="19.584"/>
	</g>
	<g>
		<rect x="1030.966" y="736.348" style="fill:#FF8761;" width="32.64" height="19.584"/>
	</g>
	<g>
		<rect x="1521.214" y="736.348" style="fill:#1487E3;" width="86.495" height="19.584"/>
	</g>
	<g>
		<rect x="1607.709" y="810.081" style="fill:#FF8761;" width="86.495" height="19.584"/>
	</g>
	<g>
		<rect x="1414.645" y="1254.659" style="fill:#FF8761;" width="86.495" height="19.583"/>
	</g>
	<g>
		<rect x="1162.94" y="1402.126" style="fill:#FF8761;" width="86.495" height="19.584"/>
	</g>
	<g>
		<rect x="1314.278" y="736.348" style="fill:#1487E3;" width="184.037" height="19.584"/>
	</g>
	<g>
		<rect x="1142.974" y="1182.014" style="fill:#1487E3;" width="107.523" height="19.583"/>
	</g>
	<g>
		<rect x="1136.059" y="1328.392" style="fill:#1487E3;" width="53.762" height="19.584"/>
	</g>
	<g>
		<rect x="1224.846" y="736.348" style="fill:#78C2FF;" width="63.32" height="19.584"/>
	</g>
	<g>
		<rect x="1011.708" y="810.081" style="fill:#FF8761;" width="63.321" height="19.584"/>
	</g>
	<g>
		<rect x="1024.329" y="1107.191" style="fill:#FF8761;" width="63.321" height="19.584"/>
	</g>
	<g>
		<rect x="1090.37" y="736.348" style="fill:#1487E3;" width="110.322" height="19.584"/>
	</g>
	<g>
		<g>
			<g>
				<path style="fill:#323657;" d="M827.862,1478.526c-0.023-0.01-0.05-0.014-0.084-0.007
					C828.131,1478.674,828.181,1478.688,827.862,1478.526z"/>
			</g>
		</g>
	</g>
	
		<linearGradient id="SVGID_00000080893815252784090610000016930141264092068506_" gradientUnits="userSpaceOnUse" x1="1602.8896" y1="493.2166" x2="1643.9423" y2="493.2166">
		<stop  offset="0" style="stop-color:#FFAE70"/>
		<stop  offset="1" style="stop-color:#FFD970"/>
	</linearGradient>
	<polygon style="fill:url(#SVGID_00000080893815252784090610000016930141264092068506_);" points="1612.511,503.194 
		1643.942,503.194 1634.321,483.239 1602.89,483.239 	"/>
	
		<linearGradient id="SVGID_00000053527893063844586700000002452185962611948475_" gradientUnits="userSpaceOnUse" x1="1588.1805" y1="493.2166" x2="1605.292" y2="493.2166">
		<stop  offset="0" style="stop-color:#FFAE70"/>
		<stop  offset="1" style="stop-color:#FFD970"/>
	</linearGradient>
	<polygon style="fill:url(#SVGID_00000053527893063844586700000002452185962611948475_);" points="1597.802,503.194 
		1605.292,503.194 1595.671,483.239 1588.181,483.239 	"/>
	
		<linearGradient id="SVGID_00000143605871429067804850000002997257215919661999_" gradientUnits="userSpaceOnUse" x1="1484.9795" y1="474.4402" x2="1616.4814" y2="474.4402">
		<stop  offset="0" style="stop-color:#FFAE70"/>
		<stop  offset="1" style="stop-color:#FFD970"/>
	</linearGradient>
	<polygon style="fill:url(#SVGID_00000143605871429067804850000002997257215919661999_);" points="1489.203,479.429 
		1616.481,479.429 1612.257,469.452 1484.979,469.452 	"/>
	
		<rect x="2134.755" y="996.35" transform="matrix(-1 -1.224647e-16 1.224647e-16 -1 4369.6152 1999.7168)" style="fill:#FFD770;" width="100.105" height="7.018"/>
	
		<rect x="2134.755" y="1009.575" transform="matrix(-1 -1.224647e-16 1.224647e-16 -1 4369.6152 2048.6523)" style="fill:#FFD770;" width="100.105" height="29.502"/>
	
		<rect x="2087.731" y="1048.996" transform="matrix(-1 -1.224647e-16 1.224647e-16 -1 4234.5186 2102.4004)" style="fill:#FFD770;" width="59.056" height="4.408"/>
	
		<rect x="2087.731" y="1055.334" transform="matrix(-1 -1.224647e-16 1.224647e-16 -1 4234.5186 2122.6074)" style="fill:#FFD770;" width="59.056" height="11.939"/>
	
		<rect x="2117.67" y="951.294" transform="matrix(-1 -1.224647e-16 1.224647e-16 -1 4239.748 1985.248)" style="fill:#FFD770;" width="4.408" height="82.66"/>
	
		<rect x="837.669" y="388.066" transform="matrix(-1 -1.224647e-16 1.224647e-16 -1 1754.1884 790.417)" style="fill:#FFFFFF;" width="78.851" height="14.284"/>
	
		<rect x="837.669" y="381.4" transform="matrix(-1 -1.224647e-16 1.224647e-16 -1 1754.1884 765.4888)" style="fill:#FFFFFF;" width="78.851" height="2.688"/>
	<g>
		<polygon style="fill:#FF8761;" points="1619.554,669.512 1721.958,567.108 2142.673,567.108 2142.673,561.885 1719.794,561.885 
			1615.859,665.819 		"/>
	</g>
	
		<linearGradient id="SVGID_00000095297100032316670750000017000268717439370381_" gradientUnits="userSpaceOnUse" x1="1289.6392" y1="1303.6779" x2="1289.6392" y2="1688.314">
		<stop  offset="0" style="stop-color:#40D5E6"/>
		<stop  offset="1" style="stop-color:#4B69E0"/>
	</linearGradient>
	
		<rect x="700.998" y="1497.725" style="fill:url(#SVGID_00000095297100032316670750000017000268717439370381_);" width="1177.282" height="232.918"/>
	<g>
		<polygon style="fill:#78C2FF;" points="968.73,903.56 972.424,899.867 776.73,704.174 406.364,704.174 406.364,709.397 
			774.566,709.397 		"/>
	</g>
	<g>
		<polygon style="fill:#1487E3;" points="1358.666,668.157 1362.359,664.464 1197.195,499.301 964.905,499.301 964.905,504.524 
			1195.032,504.524 		"/>
	</g>
	
		<linearGradient id="SVGID_00000016765178576990431900000007275306627218330810_" gradientUnits="userSpaceOnUse" x1="1548.9174" y1="1289.4419" x2="1548.9174" y2="1606.5178">
		<stop  offset="0" style="stop-color:#40D5E6"/>
		<stop  offset="1" style="stop-color:#4B69E0"/>
	</linearGradient>
	<polygon style="fill:url(#SVGID_00000016765178576990431900000007275306627218330810_);" points="1878.28,1730.643 
		1878.28,1497.725 1449.839,1497.725 1219.555,1728.009 	"/>
	<g>
		<g>
			<rect x="1914.433" y="426.853" style="fill:#609AE8;" width="37.142" height="112.811"/>
		</g>
		<g>
			<path style="fill:#9CC7FF;" d="M2077.048,481.196h-288.09c-9.009,0-16.312-7.302-16.312-16.312V271.261
				c0-9.009,7.303-16.312,16.312-16.312h288.09c9.009,0,16.313,7.303,16.313,16.312v193.623
				C2093.36,473.894,2086.057,481.196,2077.048,481.196z"/>
		</g>
		<g>
			<rect x="1785.207" y="267.858" style="fill:#FFFFFF;" width="295.593" height="177.883"/>
		</g>
		
			<rect x="1849.457" y="535.407" transform="matrix(-1 -1.224647e-16 1.224647e-16 -1 3866.0068 1079.3291)" style="fill:#9CC7FF;" width="167.093" height="8.515"/>
		
			<rect x="1970.11" y="321.843" transform="matrix(-1 -1.224647e-16 1.224647e-16 -1 4035.2244 753.5137)" style="fill:#D7D7E6;" width="95.004" height="109.827"/>
		
			<rect x="1857.544" y="321.843" transform="matrix(-1 -1.224647e-16 1.224647e-16 -1 3812.9727 657.3775)" style="fill:#D7D7E6;" width="97.885" height="13.691"/>
		
			<rect x="1857.544" y="349.955" transform="matrix(-1 -1.224647e-16 1.224647e-16 -1 3812.9727 713.6001)" style="fill:#D7D7E6;" width="97.885" height="13.691"/>
		
			<rect x="1857.544" y="375.195" transform="matrix(-1 -1.224647e-16 1.224647e-16 -1 3812.9727 806.8652)" style="fill:#D7D7E6;" width="97.885" height="56.476"/>
		
			<rect x="1802.179" y="318.72" transform="matrix(-1 -1.224647e-16 1.224647e-16 -1 3645.8896 750.3901)" style="fill:#D7D7E6;" width="41.532" height="112.951"/>
		
			<rect x="1803.145" y="281.557" transform="matrix(-1 -1.224647e-16 1.224647e-16 -1 3869.2244 591.3183)" style="fill:#D7D7E6;" width="262.935" height="28.205"/>
	</g>
	<g>
		<path style="fill:#9CC7FF;" d="M1013.762,474.769h131.613c8.62,0,15.608-6.987,15.608-15.607V260.184
			c0-8.62-6.988-15.608-15.608-15.608h-131.613c-8.62,0-15.608,6.988-15.608,15.608v198.977
			C998.153,467.781,1005.142,474.769,1013.762,474.769z"/>
		
			<rect x="1007.152" y="255.218" transform="matrix(-1 -1.224647e-16 1.224647e-16 -1 2159.1357 699.3477)" style="fill:#FFFFFF;" width="144.831" height="188.912"/>
		
			<rect x="1016.886" y="268.803" transform="matrix(-1 -1.224647e-16 1.224647e-16 -1 2159.8223 562.7529)" style="fill:#D7D7E6;" width="126.051" height="25.147"/>
		
			<rect x="1091.054" y="303.7" transform="matrix(-1 -1.224647e-16 1.224647e-16 -1 2233.9902 730.6655)" style="fill:#D7D7E6;" width="51.883" height="123.265"/>
		
			<rect x="1016.886" y="303.7" transform="matrix(-1 -1.224647e-16 1.224647e-16 -1 2098.3025 621.6768)" style="fill:#D7D7E6;" width="64.531" height="14.276"/>
		
			<rect x="1016.886" y="328.379" transform="matrix(-1 -1.224647e-16 1.224647e-16 -1 2098.3025 671.0342)" style="fill:#D7D7E6;" width="64.531" height="14.276"/>
		
			<rect x="1016.886" y="353.058" transform="matrix(-1 -1.224647e-16 1.224647e-16 -1 2098.3025 720.3916)" style="fill:#D7D7E6;" width="64.531" height="14.276"/>
		
			<rect x="1016.886" y="377.736" transform="matrix(-1 -1.224647e-16 1.224647e-16 -1 2098.3025 804.7011)" style="fill:#D7D7E6;" width="64.531" height="49.229"/>
	</g>
	<g>
		<path style="fill:#609AE8;" d="M465.022,672.682h253.83V511.764c0-6.316-5.121-11.436-11.436-11.436H476.458
			c-6.316,0-11.436,5.12-11.436,11.436V672.682z"/>
		
			<rect x="472.105" y="509.501" transform="matrix(-1 -1.224647e-16 1.224647e-16 -1 1183.8739 1173.0098)" style="fill:#FFFFFF;" width="239.663" height="154.008"/>
		<path style="fill:#9CC7FF;" d="M452.78,672.682h278.315v2.674c0,5.517-4.474,9.99-9.99,9.99H462.77
			c-5.517,0-9.989-4.473-9.989-9.99V672.682z"/>
		
			<rect x="482.128" y="520.694" transform="matrix(-1 -1.224647e-16 1.224647e-16 -1 1183.627 1062.8022)" style="fill:#D7D7E6;" width="219.371" height="21.415"/>
		
			<rect x="626.286" y="554.206" transform="matrix(-1 -1.224647e-16 1.224647e-16 -1 1327.7852 1206.522)" style="fill:#D7D7E6;" width="75.213" height="98.111"/>
		
			<rect x="541.435" y="554.206" transform="matrix(-1 -1.224647e-16 1.224647e-16 -1 1158.0839 1206.522)" style="fill:#D7D7E6;" width="75.213" height="98.111"/>
		
			<rect x="482.128" y="554.206" transform="matrix(-1 -1.224647e-16 1.224647e-16 -1 1010.12 1122.4297)" style="fill:#D7D7E6;" width="45.864" height="14.019"/>
		
			<rect x="482.128" y="575.878" transform="matrix(-1 -1.224647e-16 1.224647e-16 -1 1010.12 1165.7739)" style="fill:#D7D7E6;" width="45.864" height="14.018"/>
		
			<rect x="482.128" y="597.55" transform="matrix(-1 -1.224647e-16 1.224647e-16 -1 1010.12 1249.8662)" style="fill:#D7D7E6;" width="45.864" height="54.767"/>
	</g>
	<g>
		<polygon style="fill:#2A6993;" points="561.158,919.584 504.669,886.97 504.669,908.475 420.689,908.475 420.689,930.693 
			504.669,930.693 504.669,952.198 		"/>
		<polygon style="fill:#2A6993;" points="420.689,848.046 477.178,880.66 477.178,859.156 561.158,859.156 561.158,836.937 
			477.178,836.937 477.178,815.433 		"/>
	</g>
	<g>
		<polygon style="fill:#2A6993;" points="1386.594,454.814 1344.259,430.371 1344.259,446.488 1281.318,446.488 1281.318,463.14 
			1344.259,463.14 1344.259,479.256 		"/>
		<polygon style="fill:#2A6993;" points="1281.318,401.199 1323.654,425.642 1323.654,409.525 1386.594,409.525 1386.594,392.874 
			1323.654,392.874 1323.654,376.757 		"/>
	</g>
	<g>
		<g>
			<path style="fill:#FFFFFF;" d="M1958.492,842.785c-5.618-0.426-10.839-2.516-14.87-5.983c-4.573-3.933-7.082-9.161-7.07-14.729
				c-0.775-10.962-4.189-22.29-7.006-30.054c-13.421-10.704-20.646-27.236-19.348-44.351c2.155-28.429,27.037-49.803,55.465-47.648
				c28.43,2.156,49.805,27.038,47.649,55.466c-1.174,15.477-9.106,29.419-21.796,38.36c-3.858,10.49-6.174,20.092-6.886,28.55
				c-0.129,11.383-10.955,20.558-24.178,20.469C1959.794,842.861,1959.141,842.834,1958.492,842.785z M1965.344,704.238
				c-26.102-1.979-48.949,17.647-50.928,43.75c-1.206,15.902,5.601,31.256,18.21,41.074l0.478,0.372l0.208,0.568
				c2.955,8.047,6.648,20.106,7.466,31.855l0.006,0.161c-0.03,4.336,1.958,8.449,5.597,11.577c3.737,3.214,8.747,5.007,14.101,5.04
				c10.923,0.073,19.858-7.262,19.92-16.351v-0.081l0.007-0.08c0.751-9.028,3.23-19.246,7.373-30.372l0.233-0.628l0.553-0.379
				c11.952-8.193,19.434-21.16,20.527-35.578C2011.073,729.064,1991.446,706.217,1965.344,704.238z"/>
		</g>
		<g>
			<polygon style="fill:#FFFFFF;" points="1948.907,825.152 1942.136,768.806 1953.884,778.524 1961.169,770.44 1967.466,778.023 
				1978.443,768.722 1971.768,825.158 1967.567,824.661 1972.98,778.894 1966.94,784.013 1961.038,776.904 1954.312,784.368 
				1947.599,778.815 1953.107,824.648 			"/>
		</g>
		<g>
			
				<rect x="1942.065" y="837.707" transform="matrix(1 0.0067 -0.0067 1 5.7152 -13.1363)" style="fill:#FFFFFF;" width="36.674" height="14.779"/>
		</g>
		<g>
			
				<rect x="1936.239" y="822.61" transform="matrix(1 0.0067 -0.0067 1 5.6433 -13.1352)" style="fill:#FFFFFF;" width="48.468" height="23.79"/>
		</g>
	</g>
	<g>
		<path style="fill:#5B83C2;" d="M2075.497,1694.245c-1.073,7.514-46.215,39.128-55.106,45.445
			c-7.136,5.069-13.338,7.396-24.126,11.45c-0.004,0-0.004,0-0.007,0c-24.509,6.445-178.293,52.334-178.293,52.334
			c-0.404-1.563-0.623-2.92-1.528-4.677c-5.74,2.29-11.648,3.771-15.401,4.945c-5.726,1.789-51.171,3.221-60.474,5.01
			s-27.911,4.652-35.426-2.505c-7.515-7.156,4.651-22.544,15.028-26.479c10.378-3.937,48.309-5.01,55.108-5.726
			c6.799-0.716,15.745-3.221,20.039-1.789c1.357,0.45,7.354-1.31,14.926-3.926c-0.185-2.788-0.232-4.545-0.232-4.545l40.379-11.64
			l-7.479-71.497c0,0,17.566-66.2,87.757-15.698c0,0,15.658,4.605,21.026,6.037c0.38,0.1,0.983,0.114,1.796,0.05
			c10.707-0.805,56.718-14.722,73.351-14.722c17.892,0,23.617-1.073,30.059,2.147
			C2063.331,1661.682,2076.571,1686.729,2075.497,1694.245z"/>
		<path style="fill:#5B83C2;" d="M2003.594,1806.248c-7.515,7.157-26.122,4.294-35.427,2.505c-9.303-1.789-54.749-3.221-60.475-5.01
			c-5.725-1.789-16.46-4.294-23.975-9.304c-0.605-0.404-1.986-1.005-4.016-1.764c0,0-0.003,0.003-0.007,0.007l-11.364,8.198
			l-158.012-50.298c-9.465-2.595-16.979-6.545-21.982-10.893c-8.229-7.157-54.033-37.932-55.107-45.445
			c-1.073-7.516,12.167-32.563,18.607-35.784c6.442-3.221,12.167-2.147,30.059-2.147s69.778,16.104,75.146,14.672
			c2.441-0.651,7.494-3.225,12.281-5.84c5.74-3.135,11.097-6.327,11.097-6.327c76.854-34.306,85.405,21.828,85.405,21.828
			l-4.548,69.303c0,0,6.405,3.178,14.735,7.136l38.093,10.764l-4.988,3.6c2.154,0.694,3.683,1.013,4.301,0.806
			c4.294-1.432,13.24,1.073,20.039,1.789c6.8,0.716,44.729,1.789,55.107,5.726
			C1998.941,1783.704,2011.108,1799.092,2003.594,1806.248z"/>
		<path style="fill:#5478B3;" d="M1769.323,1665.146c5.3,0.372,41.109,21.112,49.607,26.072
			c-12.914-6.746-61.889-20.232-61.889-20.232C1759.483,1670.334,1764.536,1667.761,1769.323,1665.146z"/>
		<path style="fill:#5478B3;" d="M1953.485,1671.039c0,0-61.691,14.968-72.981,21.234c0.512-0.372,32.511-24.687,49.312-27.929
			c0,0,16.502,5.209,21.87,6.641c0.38,0.1,0.983,0.114,1.796,0.05C1953.485,1671.039,1953.485,1671.039,1953.485,1671.039z"/>
		<path style="fill:#EEA886;" d="M2003.594,1806.248c-7.515,7.157-26.122,4.294-35.427,2.505c-9.303-1.789-54.749-3.221-60.475-5.01
			c-1.646-0.515-3.703-1.088-5.982-1.761c0-0.003-0.004-0.003-0.004-0.003c-5.646-1.672-12.635-3.973-17.988-7.54
			c-0.605-0.404-1.986-1.005-4.016-1.764l28.596-20.637l0.819-0.591c2.154,0.694,3.683,1.013,4.301,0.806
			c4.294-1.432,13.24,1.073,20.039,1.789c6.8,0.716,44.729,1.789,55.107,5.726
			C1998.941,1783.704,2011.108,1799.092,2003.594,1806.248z"/>
		<path style="fill:#C5CDDB;" d="M2003.594,1806.248c-7.515,7.157-26.122,4.294-35.427,2.505c-9.303-1.789-54.749-3.221-60.475-5.01
			c-1.646-0.515-3.703-1.088-5.982-1.761c0-0.003-0.004-0.003-0.004-0.003c-0.004-0.004-0.007-0.004-0.007-0.004
			s12.51-12.378,6.599-29.937l0.819-0.591c2.154,0.694,3.683,1.013,4.301,0.806c4.294-1.432,13.24,1.073,20.039,1.789
			c6.8,0.716,44.729,1.789,55.107,5.726C1998.941,1783.704,2011.108,1799.092,2003.594,1806.248z"/>
		<path style="fill:#E55353;" d="M1785.011,1680.941c0.082,0.189,0.063,0.329-0.058,0.422
			C1784.241,1681.896,1784.355,1681.667,1785.011,1680.941z"/>
		<path style="fill:#DCE6FA;" d="M1991.823,1597.271c-0.598-1.21-33.197-52.484-42.024-75.862
			c-8.828-23.381-30.059-34.116-40.078-37.455c-3.575-1.191-9.944-3.267-16.661-5.438c-12.101-3.915-25.324-8.159-25.324-8.159
			h-41.749c0,0-14.464,4.845-29.822,10.227c-0.011,0.008-0.018,0.012-0.018,0.012c-14.153,4.963-29.06,10.384-34.095,12.903
			c-10.496,5.246-28.148,42.701-31.726,46.995c-3.578,4.294-31.097,55.301-35.068,74.906c-3.084,15.226,87.288,59.827,89.754,65.542
			c2.862-3.175,16.023-15.796,16.023-15.796s-4.215-2.651-10.151-6.555c24.208,1.109,83.361-0.978,91.85-0.552
			c1.707,0.086,3.56,0.032,5.468-0.118c-0.008,0.004-0.011,0.008-0.011,0.008c2.627,1.907,19.566,16.872,19.566,16.872
			s41.749-17.334,60.947-36.736C1995.971,1610.511,1994.825,1603.354,1991.823,1597.271z M1754.447,1631.198
			c-8.946-10.735-21.259-17.23-18.16-22c3.103-4.771,29.343-50.098,29.343-50.098s13.598,29.818,17.416,45.327
			c3.818,15.505,3.517,22.604,1.907,27.432c-1.442,4.327-2.602,7.269-3.9,20.15
			C1770.354,1644.703,1758.548,1636.118,1754.447,1631.198z M1939.031,1626.073c-3.51,3.987-17.391,12.808-29.872,20.068
			c-0.948-8.653-2.384-22.269-2.541-27.164c-0.236-7.393,2.863-28.627,6.681-36.735c3.818-8.112,6.441-30.299,6.441-30.299
			s31.608,42.94,36.617,47.475C1961.367,1603.948,1950.884,1612.609,1939.031,1626.073z"/>
		<g>
			<path style="fill:#EEA886;" d="M1851.836,1355.611c0,0,32.649,5.144,27.678,56.226c-4.972,51.082-33.787,46.895-35.713,46.843
				c-1.926-0.051-28.927,0.932-31.032-61.437C1812.768,1397.243,1811.85,1351.125,1851.836,1355.611z"/>
		</g>
		<g>
			<path style="fill:#EEA886;" d="M1880.018,1397.408c0,0,3.575-3.819,4.887,0.047c1.311,3.866-4.877,21.108-5.099,21.915
				c0,0-0.653,1.499-1.511,0.674C1877.438,1419.219,1880.018,1397.408,1880.018,1397.408z"/>
		</g>
		<g>
			<path style="fill:#EEA886;" d="M1813.648,1396.762c0,0-3.501-3.887-4.887-0.047c-1.386,3.84,4.414,21.195,4.675,22.009
				c0,0,0.623,1.512,1.497,0.703C1815.808,1418.618,1813.648,1396.762,1813.648,1396.762z"/>
		</g>
		<g>
			<path style="fill:#434343;" d="M1880.003,1405.243l-4.674,6.248c0,0,0.132-13.699-0.618-15.848
				c-0.75-2.147-1.897-8.71-2.524-10.257c-0.627-1.548-28.036-9.229-52.247,2.243c0,0,1.065,9.85-1.256,10.727
				c-2.32,0.877-1.183,16.044-1.183,16.044l-3.844-4.336c0,0-5.882-39.3-4.43-43.396c1.453-4.096,6.082-28.723,55.753-14.104
				c0,0,15.484-3.28,18.593,7.411C1886.681,1370.666,1880.003,1405.243,1880.003,1405.243z"/>
		</g>
		<path style="fill:#49699C;" d="M1803.8,1731.89c0,0-49.978-29.951-71.806-34.663c-20.628-4.452-28.151-12.166-28.151-12.166
			s32.802,0,54.63,15.506C1773.297,1711.097,1803.8,1731.89,1803.8,1731.89z"/>
		<path style="fill:#49699C;" d="M1848.199,1752.772c0,0,86.928-45.646,122.419-55.546c20.326-5.67,28.149-12.166,28.149-12.166
			s-53.74,5.248-86.423,24.929C1896.768,1719.369,1848.199,1752.772,1848.199,1752.772z"/>
		<path style="fill:#EEA886;" d="M1816.437,1798.798c-5.74,2.29-11.648,3.771-15.401,4.945c-5.726,1.789-51.171,3.221-60.474,5.01
			s-27.911,4.652-35.426-2.505c-7.515-7.156,4.651-22.544,15.028-26.479c10.378-3.937,48.309-5.01,55.108-5.726
			c6.799-0.716,15.745-3.221,20.039-1.789c1.357,0.45,7.354-1.31,14.926-3.926
			C1810.465,1772.869,1816.437,1798.798,1816.437,1798.798z"/>
		<path style="fill:#5B83C2;" d="M1848.199,1794.473l85.457-25.288l-16.898-5.161
			C1916.758,1764.023,1848.465,1788.78,1848.199,1794.473z"/>
		<polygon style="fill:#49699C;" points="1848.199,1794.473 1888.19,1782.273 1860.461,1798.376 		"/>
		<path style="fill:#525252;" d="M1820.731,1692.273c-0.079-0.047-0.72-0.423-1.801-1.056
			C1819.646,1691.59,1820.251,1691.944,1820.731,1692.273z"/>
		<path style="fill:#C5CDDB;" d="M1801.035,1803.743c-5.726,1.789-51.171,3.221-60.474,5.01s-27.911,4.652-35.426-2.505
			c-7.515-7.156,4.651-22.544,15.028-26.479c10.378-3.937,48.309-5.01,55.108-5.726c6.799-0.716,15.745-3.221,20.039-1.789
			C1795.309,1772.254,1783.838,1789.788,1801.035,1803.743z"/>
		<path style="fill:#DCE6FA;" d="M1893.059,1478.516c0,0-13.69,60.156-46.297,60.156c-32.604,0-50.616-58.077-50.616-58.077
			s0.007-0.004,0.018-0.012c15.358-5.382,29.822-10.227,29.822-10.227h41.749
			C1867.735,1470.356,1880.958,1474.601,1893.059,1478.516z"/>
		<path style="fill:#525252;" d="M1772.788,1685.061l-13.168-74.908l170.259-3.937l-10.966,73.715c0,0-54.346,19.894-72.791,31.496
			C1846.122,1711.427,1799.507,1692.273,1772.788,1685.061z"/>
		<path style="fill:#6E6E6E;" d="M1856.146,1655.327c0,6.192-4.272,11.212-9.542,11.212c-5.271,0-9.543-5.02-9.543-11.212
			s4.272-11.213,9.543-11.213C1851.874,1644.114,1856.146,1649.135,1856.146,1655.327z"/>
		<path style="fill:#EEA886;" d="M1868.162,1470.495c-0.014-0.047-0.025-0.094-0.046-0.139c-2.033-4.548-1.04-26.722-1.04-26.722
			s-41.582-10.584-40.396-2.491c1.188,8.093-3.581,30.185-3.581,30.185l-21.333,7.303c0,0,22.729,61.027,48.85,53.155
			c26.122-7.873,35.985-55.355,35.985-55.355L1868.162,1470.495z"/>
		<path style="fill:#A77860;" d="M1826.614,1449.363c0,0,7.363,9.419,18.994,9.419c7.648,0,13.686-2.671,21.305-10.101
			c0,0-3.85,14.638-21.255,15.95C1845.658,1464.632,1832.371,1465.465,1826.614,1449.363z"/>
	</g>
	<g>
		<polygon style="fill:#78C2FF;" points="1718.617,1004.05 1547.721,1004.05 1547.721,1127.918 1547.721,1154.008 
			1573.811,1127.918 1718.617,1127.918 		"/>
	</g>
	<g>
		<g>
			<path style="fill:#35527A;" d="M1463.284,1723.08c0,0,1.779,14.523,4.139,20.929c2.358,6.406,15.172,21.193,9.76,35.399
				c-5.869,15.405-31.488,0.557-41.938-4.145c-10.449-4.7-8.07-13.225-9.185-23.669c-1.114-10.445-6.212-10.728-4.331-18.072
				c1.881-7.344,13.309-21.403,13.309-21.403L1463.284,1723.08z"/>
		</g>
		<g>
			<g>
				<path style="fill:#EEA886;" d="M1439.975,1704.519c0,0-6.559,9.178-6.378,9.43c0.18,0.251,28.092,17.244,30.035,11.732
					c1.544-4.378,2.191-10.723,2.191-10.723L1439.975,1704.519z"/>
			</g>
		</g>
		<g>
			<path style="fill:#35527A;" d="M1345.358,1733.349c0,0-8.516,7.464-16.162,18.934c-7.646,11.469-27.943,12.078-28.813,27.734
				c-0.869,15.656,27.596,16.139,42.542,11.041c14.945-5.097,17.204-20.389,26.241-24.212c9.037-3.823,13.729-6.918,13.034-14.382
				s-5.696-19.58-5.696-19.58s-5.614,1.793-8.916,2.156C1364.286,1735.404,1353.179,1735.533,1345.358,1733.349z"/>
		</g>
		<g>
			<path style="fill:#FFD670;" d="M1447.8,1309.163c0,0-5.729,34.063-10.345,56.562c0,0,0,0,0,0.002
				c-1.873,9.124-3.563,16.347-4.612,18.621c-1.319,2.861-12.071,14.406-25.228,27.953c-23.09,23.768-53.594,53.698-53.594,53.698
				l-11.924-22.636c0,0,27.095-31.764,45.462-52.959c8.503-9.809,15.134-17.351,16.349-18.438
				c3.84-3.436,8.297-37.285,14.563-65.176c6.265-27.891,18.82-43.304,18.82-43.304L1447.8,1309.163z"/>
		</g>
		<g>
			<path style="fill:#EEA886;" d="M1407.614,1412.301c-23.09,23.768-53.594,53.698-53.594,53.698l-11.924-22.636
				c0,0,27.095-31.764,45.462-52.959C1393.189,1393.165,1403.525,1399.752,1407.614,1412.301z"/>
		</g>
		<g>
			<path style="fill:#EEA886;" d="M1346.695,1722.919l-1.337,10.43c0,0,14.82,5.236,31.146-0.465l0.332-9.274L1346.695,1722.919z"/>
		</g>
		<g>
			<path style="fill:#FFD670;" d="M1557.065,1461.396c0.852,3.031-156.964,0-156.964,0s43.655-31.776,46.485-40.265
				c2.829-8.488-11.116-59.42-12.936-75.993c-1.455-13.259-5.101-72.59,3.639-81.651c9.137-9.474,42.038-19.402,42.038-19.402
				l47.967,1.78c0,0,7.916,1.655,13.575,4.283c5.659,2.627,38.021,14.154,43.276,30.323c5.255,16.168-32.292,68.153-32.292,68.153
				s-0.072,2.337-0.186,6.165c0,0.002,0,0.002,0,0.002c-0.146,5.105-0.359,12.864-0.556,21.28
				c-0.251,10.899-0.471,22.9-0.471,31.668C1550.642,1428.353,1556.215,1458.363,1557.065,1461.396z"/>
		</g>
		<g>
			<path style="fill:#293F5E;" d="M1557.066,1461.396c0,0,21.466,31.527,21.768,53.051c0.303,21.523-38.093,93.613-43.904,103.927
				c-17.467,31.002-65.373,97.878-65.373,97.878s-8.258-0.209-34.025-10.213c0,0,31.869-88.335,35.909-97.507
				c17.132-38.892,26.694-66.48,20.934-73.149c-5.76-6.67-21.462-13.356-26.009-17.298c-4.548-3.94-83.766,14.97-92.065,17.121
				c-21.493,5.574-11.697,42.973-6.941,59.739c7.955,28.05,14.908,129.35,14.908,129.35s-15.31,6.523-40.952,1.011
				c0,0-50.354-182.908-51.971-201.099c-1.616-18.189-2.411-48.182,121.677-70.979L1557.066,1461.396z"/>
		</g>
		<g>
			<path style="fill:#EEA886;" d="M1492.49,1139.867c0,0-41.638-9.393-32.127,43.009c9.511,52.4,19.525,56.52,44.646,45.675
				c25.121-10.845,22.871-44.417,24.135-60.88C1530.408,1151.208,1505.772,1140.438,1492.49,1139.867z"/>
		</g>
		<g>
			<path style="fill:#EEA886;" d="M1481.472,1257.534c0,0,18.441,19.551,47.585,1.782c0,0-6.518-42.367-3.087-63.004
				c3.431-20.637-38.025,31.976-38.025,31.976c0.547,0.286,0.906,2.255,0.99,5.057c0.07,2.375-0.057,5.348-0.435,8.397
				C1487.642,1248.603,1485.509,1255.848,1481.472,1257.534z"/>
		</g>
		<g>
			<path style="fill:#3A3F47;" d="M1527.115,1194.56c0,0-1.074-16.51-7.104-17.025c-6.031-0.516-6.958,6.134-6.958,6.134
				l-6.091,1.149c0,0,1.925-14.471-4.096-16.999c-6.021-2.528-39.014,7.966-43.847,3.719c-4.834-4.247-2.56-33.601,6.182-37.617
				c8.741-4.018,32.883-13.02,50.571-1.047c0,0,13.787-1.572,15.832,9.555C1533.649,1153.555,1530.863,1186.286,1527.115,1194.56z"
				/>
		</g>
		<g>
			<path style="fill:#A77860;" d="M1488.499,1241.742c30.066-9.271,32.331-27.375,32.363-27.657
				c-9.9,17.012-31.928,19.26-31.928,19.26C1489.005,1235.72,1488.878,1238.692,1488.499,1241.742z"/>
		</g>
		<g>
			<path style="fill:#EEA886;" d="M1541.364,1250.375c0,0-22.019,43.832-57.59,41.002c-35.571-2.829-6.063-46.886-4.446-47.293
				C1481.104,1243.636,1515.809,1234.989,1541.364,1250.375z"/>
		</g>
		<g>
			<path style="fill:#FFD670;" d="M1382.05,1459.176c0,0,108.988,13.437,175.017,2.22l-126.168-15.764
				C1430.898,1445.632,1430.153,1448.849,1382.05,1459.176z"/>
		</g>
		<g>
			<path style="fill:#EEA886;" d="M1463.563,1440.668l-8.117,4.113c0,0,1.848,12.896,6.295,16.804l9.11-2.323
				C1470.851,1459.262,1468.953,1445.114,1463.563,1440.668z"/>
		</g>
		<g>
			<path style="fill:#FFD670;" d="M1589.68,1414.26c-1.623,1.879-23.051,10.497-47.255,19.82l-0.002,0.002
				c-33.068,12.739-70.368,24.788-70.368,24.788l-8.491-18.201c0,0,39.062-21.226,65.457-36.111
				c12.469-7.031,22.109-12.647,23.471-13.945c4.244-4.042,5.344-10.523,2.224-21.827c-3.121-11.305-10.308-63.261-11.116-69.323
				c-0.809-6.063,2.021-22.232,17.18-23.041s22.872,3.471,22.872,3.471s3.806,1.582,6.636,38.366
				C1593.115,1355.041,1593.52,1409.813,1589.68,1414.26z"/>
		</g>
		<g>
			<path style="fill:#A88D4A;" d="M1551.669,1354.789c0,0.002,0,0.002,0,0.002c-0.146,5.105-0.359,12.864-0.556,21.28
				c-14.794-36.263-6.247-65.203-6.101-65.689C1543.411,1320.222,1551.554,1354.306,1551.669,1354.789z"/>
		</g>
		<g>
			<path style="fill:#A88D4A;" d="M1437.455,1365.725c0,0,0,0,0,0.002c-1.873,9.124-3.563,16.347-4.612,18.621
				c-5.053-24.456-0.507-55.765-0.507-55.765C1433.027,1343.539,1437.455,1365.725,1437.455,1365.725z"/>
		</g>
		<g>
			<path style="fill:#EEA886;" d="M1542.425,1434.08l-0.002,0.002c-33.068,12.739-71.571,25.18-71.571,25.18l-7.288-18.593
				c0,0,39.062-21.226,65.457-36.111C1529.021,1404.558,1538.623,1409.235,1542.425,1434.08z"/>
		</g>
		<g>
			<polygon style="fill:#444C94;" points="1461.214,1460.34 1306.305,1458.062 1384.517,1497.773 			"/>
		</g>
		<g>
			<polygon style="fill:#303669;" points="1384.517,1497.773 1461.214,1468.064 1461.214,1460.34 1378.454,1490.194 			"/>
		</g>
		<g>
			<g>
				<path style="fill:#EEA886;" d="M1457.199,1445.063c0,0-9.676-1.507-16.365-3.063c-5.176-1.205-18.044,0.455-21.321,3.776
					c-3.278,3.321-13.703,26.465-15.674,27.877c-1.972,1.412,1.01,4.682,4.473,3.04c0,0,3.178,10.126,11.023,6.336
					c7.846-3.791,13.172-12.069,17.281-13.527c4.108-1.458,28.033-8.813,28.033-8.813S1463.364,1442.598,1457.199,1445.063z"/>
			</g>
		</g>
		<g>
			<g>
				<path style="fill:#EEA886;" d="M1421.874,1444.259c0,0-6.216,3.003-7.838,4.341c-1.623,1.338-8.2,6.262-9.793,7.42
					c-1.594,1.159,2.402,4.452,14.162-0.641C1430.163,1450.286,1421.874,1444.259,1421.874,1444.259z"/>
			</g>
		</g>
		<g>
			<polygon style="fill:#303669;" points="1384.517,1497.773 1338.438,1371.967 1189.896,1374.393 1233.809,1490.325 			"/>
		</g>
		<g>
			<path style="fill:#518AFA;" d="M1290.91,1427.622c4.532,9.062,3.163,18.931-3.058,22.043c-6.222,3.112-14.94-1.711-19.474-10.772
				c-4.532-9.062-3.163-18.93,3.059-22.042C1277.659,1413.738,1286.377,1418.561,1290.91,1427.622z"/>
		</g>
		<g>
			<path style="fill:#EEA886;" d="M1513.181,1176.672c0.549-4.623,9.687-6.317,10.422,0.613c0.736,6.932-4.152,19.096-7.62,17.899
				C1512.515,1193.987,1512.425,1183.046,1513.181,1176.672z"/>
		</g>
	</g>
	<g>
		<path style="fill:#323657;" d="M853.032,1211.329c0,0-5.411,75.877,9.415,84.958c9.287,5.688,46.317,24.876,45.22,28.474
			c-1.099,3.598-20.908,32.015-20.908,32.015s-71.13-46.84-73.423-61.601c-2.24-14.422,3.502-111.099,13.276-115.552
			c7.323-3.336,11.189-0.577,20.417,6.274C859.98,1195.513,853.032,1211.329,853.032,1211.329z"/>
		<g>
			<g>
				<path style="fill:#EAD8CF;" d="M982.667,1232.993l6.269-2.319c0,0-7.818-18.353-11.23-17.905
					c-3.932,0.515-8.837,1.811-8.837,1.811L982.667,1232.993z"/>
			</g>
		</g>
		<g>
			<g>
				<path style="fill:#DA9B5B;" d="M984.099,1236.159c-0.802-0.597-13.326-24.625-13.326-24.625l-26.76,3.636l14.459,28.461
					L984.099,1236.159z"/>
			</g>
		</g>
		<g>
			<g>
				<path style="fill:#424773;" d="M844.763,1763.507c0,0-2.212,15.354-2.488,17.659c-0.276,2.307-24.606-1.358-24.606-1.358
					l-1.97-18.277C815.699,1761.53,841.722,1761.342,844.763,1763.507z"/>
			</g>
		</g>
		<g>
			<g>
				<path style="fill:#292C47;" d="M842.533,1779.214c0,0,7.708,9.251,15.164,13.283c7.455,4.033,19.171,5.63,23.579,9.804
					c3.183,3.013,11.591,15.984-19.373,15.723c-30.964-0.262-45.893,1.832-49.211-3.142c-3.317-4.973,4.801-36.708,4.801-36.708
					S824.826,1780.813,842.533,1779.214z"/>
			</g>
		</g>
		<g>
			<g>
				<path style="fill:#424773;" d="M966.521,1763.507c0,0-2.211,15.354-2.488,17.659c-0.276,2.307-24.605-1.358-24.605-1.358
					l-1.971-18.277C937.457,1761.53,963.479,1761.342,966.521,1763.507z"/>
			</g>
		</g>
		<g>
			<g>
				<path style="fill:#292C47;" d="M964.292,1779.214c0,0,7.708,9.251,15.163,13.283c7.455,4.033,34.891,7.345,39.299,11.519
					c3.183,3.013,8.475,15.142-35.092,14.008c-30.954-0.806-45.894,1.832-49.211-3.142c-3.317-4.973,4.8-36.708,4.8-36.708
					S946.16,1780.993,964.292,1779.214z"/>
			</g>
		</g>
		<g>
			<g>
				<path style="fill:#292C47;" d="M853.49,1369.014c0,0-22.859,36.319-21.154,69.15c1.705,32.83-2.037,67.9-5.471,102.196
					c-3.828,38.233-14.258,117.801-14.826,138.252c-0.568,20.452,0.746,97.407,0.746,97.407l39.654-0.296
					c0,0,14.073-155.466,20.895-171.611c6.821-16.146,34.822-132.945,35.959-145.862
					C910.431,1445.333,853.49,1369.014,853.49,1369.014z"/>
			</g>
		</g>
		<g>
			<g>
				<path style="fill:#292C47;" d="M973.829,1373.935c0,0,9.029,89.251,11.304,109.346c2.274,20.094,0.716,107.161,1.854,119.72
					c1.137,12.559-7.599,145.388-9.753,170.685l-43.579-0.277c0,0-3.007-107.452-3.007-159.658s-13.396-112.98-28.744-147.426
					c-15.349-34.445-50.482-35.261-59.917-99.169C841.986,1367.154,961.055,1353.665,973.829,1373.935z"/>
			</g>
		</g>
		<g>
			<g>
				<path style="fill:#EEA886;" d="M877.641,1062.789c0,0,27.236-18.192,46.364,1.296c19.128,19.489,28.526,65.315,14.791,74.459
					c-13.735,9.145-37.038,11.547-48.098-0.862c-11.059-12.409-22.864-31.335-25.769-45.157S870.734,1068.605,877.641,1062.789z"/>
			</g>
		</g>
		<g>
			<g>
				<path style="fill:#EEA886;" d="M929.535,1141.633c0,0-0.356,19.143,1.754,23.224c2.11,4.08-39.752,4.187-39.752,4.187
					s-3.398-22.196-9.841-40.952C875.254,1109.337,929.535,1141.633,929.535,1141.633z"/>
			</g>
		</g>
		<g>
			<g>
				<path style="fill:#754836;" d="M882.743,1127.784c0,0,3.905,3.977,14.961-0.528c11.056-4.506,21.461-23.079,25.858-25.885
					c4.398-2.807,3.78-5.633,3.78-5.633l4.033,3.677l5.168-0.878c0,0-7.863-12.568-2.172-19.79
					c5.692-7.223-17.69-42.508-51.474-20.965c0,0-26.439,14.457-21.622,30.297C866.095,1103.918,874.528,1121.267,882.743,1127.784z
					"/>
			</g>
		</g>
		<g>
			<g>
				<path style="fill:#E2D2CA;" d="M933.774,1164.365c0,0-0.133-7.798-3.667-8.546c-3.534-0.747-39.011-4.158-43.349-2.453v9.083
					C886.759,1162.449,895.117,1167.594,933.774,1164.365z"/>
			</g>
		</g>
		<g>
			<g>
				<path style="fill:#EEA886;" d="M925.204,1090.068c-1.279-2.545-9.955-8.637-10.637,0.235
					c-0.682,8.872,8.529,18.419,11.983,16.603C930.006,1105.089,928.448,1096.522,925.204,1090.068z"/>
			</g>
		</g>
		<g>
			<g>
				<path style="fill:#323657;" d="M1074.572,1256.49c-0.016-0.007-0.034-0.009-0.057-0.005
					C1074.758,1256.593,1074.792,1256.602,1074.572,1256.49z"/>
			</g>
		</g>
		<g>
			<g>
				<path style="fill:#323657;" d="M985.591,1175.171c-25.244-4.437-51.817-10.807-51.817-10.807l-47.017-1.916
					c0,0-43.15,9.499-60.144,17.175c-1.611,0.728-1.619,38.495-6.043,48.399l14.09,29.724c0,0,8.139,58.88,9.828,85.066
					c0.775,12.021-16.786,112.725-16.786,112.725s18.817,5.54,50.905,9.077c32.089,3.537,112.264-1.278,112.769-5.068
					c0.507-3.791-15.526-141.124-16.236-148.236c-1.089-10.915,3.152-61.353,3.152-61.353c6.046,8.12,34.791,43.429,50.856,60.878
					c9.452,10.266,44.204,28.09,52.262,31.69c17.421,7.783,45.328,25.649,46.352,23.783c0.817-1.122,19.557-32.815,17.361-33.548
					c-1.923-0.641-60.301-36.344-76.964-45.185c-6.096-3.234-29.837-43.945-29.837-43.945S999.518,1181.43,985.591,1175.171z"/>
			</g>
		</g>
		<g>
			<g>
				<path style="fill:#754836;" d="M869.767,1067.477c0,0-38.957,10.446,11.398,58.8L869.767,1067.477z"/>
			</g>
		</g>
		<path style="fill:#EFAA88;" d="M1167.29,1373.356c0,0-3.429,0.084-4.945-0.61c0,0-2.664-1.475-4.622-2.409
			c-0.622-0.294-1.171-0.537-1.541-0.656c-1.549-0.501-5.097-1.137-8.479-3.385c-3.378-2.243-14.511-11.379-14.511-11.379
			l6.104-10.868l2.461-10.529c0,0,24.625,0.844,28.016,2.571c0.331,0.171,0.651,0.351,0.938,0.544
			c2.729,1.74,4.026,4.183,5.355,5.259c0.484,0.398,5.043,4.683,4.925,6.549c-0.16,2.59-1.323,4.319-2.866,5.203
			c0,0-0.538,5.057-2.977,7.46c0,0-0.347,4.681-4.232,6.806C1170.917,1367.911,1170.032,1372.621,1167.29,1373.356z"/>
	</g>
	<g>
		<path style="fill:#E8734D;" d="M593.934,1117.22c3.816,12.508-1.063,25.08-10.901,28.082c-9.837,3.002-20.906-4.704-24.723-17.211
			c-3.816-12.508,1.065-25.081,10.901-28.082C579.049,1097.007,590.117,1104.713,593.934,1117.22z"/>
		<path style="fill:#323657;" d="M642.123,1184.452c0,0,13.909,4.361,21.851,15.282c7.942,10.921,9.184,26.174,9.539,33.978
			c0.354,7.804,2.482,37.955,2.482,37.955l-23.589,6.616L642.123,1184.452z"/>
		<g>
			<path style="fill:#292C47;" d="M742.095,1790.274c0,0,17.691,23.817,15.265,27.592c-2.427,3.775-21.031,4.314-32.355,0
				c-11.325-4.313-11.595-32.227-16.718-44.22c-2.144-5.021,2.445-19.841,8.898-20.916c6.454-1.075,13.473,2.082,13.473,2.082
				S723.963,1771.706,742.095,1790.274z"/>
		</g>
		<g>
			<g>
				<path style="fill:#EEA886;" d="M730.775,1754.62c0,0,3.722,10.143,5.082,19.826c1.128,8.032,12.604,25.085,12.065,27.242
					c-0.54,2.157-15.1,4.11-21.032-1.45c-5.932-5.561-9.749-21.733-11.055-31.406c-1.217-9.01-2.752-13.46-2.752-13.46
					S725.113,1748.688,730.775,1754.62z"/>
			</g>
		</g>
		<g>
			<path style="fill:#292C47;" d="M588.105,1790.67c0,0,17.054,23.422,14.627,27.196c-2.427,3.775-21.031,4.314-32.356,0
				c-11.325-4.313-11.595-32.227-16.718-44.22c-2.145-5.021,2.445-19.841,8.898-20.916c6.453-1.075,14.021,2.312,14.021,2.312
				S569.974,1772.102,588.105,1790.67z"/>
		</g>
		<g>
			<g>
				<path style="fill:#EEA886;" d="M576.578,1755.042c0,0,1.349,11.055,3.505,18.874c2.157,7.819,13.752,25.615,13.213,27.772
					c-0.54,2.157-15.1,4.11-21.032-1.45c-5.932-5.561-10.516-21.66-11.055-31.406c-0.539-9.745,1.349-16.102,1.349-16.102
					S570.916,1749.11,576.578,1755.042z"/>
			</g>
		</g>
		<g>
			<g>
				<path style="fill:#EEA886;" d="M661.798,1367.295c0,0,15.181,70.624,18.667,88.405c3.487,17.781,13.249,103.899,14.295,118.543
					s15.842,69.819,15.145,75.049c-0.697,5.23,21.935,110.287,21.935,110.287s-7.729,6.222-15.878,0.563
					c-4.191-2.911-49.658-98.354-49.658-124.503c0-36.146-26.729-83.329-30.178-91.416c-32.038-75.124-25.73-98.092-29.914-102.973
					c-4.184-4.882-4.547,3.015-6.987,13.823c-2.44,10.809-7.667,104.248-10.805,116.103s-0.701,51.95-2.444,72.172
					c-1.743,20.223-9.397,111.694-9.397,111.694s-5.928,9.288-14.244,0.241c-1.79-1.946-14.358-101.895-14.707-125.952
					c-0.349-24.058-0.721-57.234-1.394-67.64c-6.46-99.691-22.335-113.93,2.669-184.484
					C595.719,1245.103,661.798,1367.295,661.798,1367.295z"/>
			</g>
		</g>
		<g>
			<path style="fill:#323657;" d="M559.847,1347.558c0,0-43.25,60.53-24.629,189.293c0,0,102.583,13.953,157.541-16.14
				c0,0-22.726-132.758-30.961-153.416C653.563,1346.637,559.847,1347.558,559.847,1347.558z"/>
		</g>
		<g>
			<polygon style="fill:#292C47;" points="707.813,1771.552 707.813,1796.486 711.048,1796.486 711.048,1777.214 			"/>
		</g>
		<g>
			<polygon style="fill:#292C47;" points="553.185,1771.552 553.185,1796.486 556.421,1796.486 556.421,1777.214 			"/>
		</g>
		<g>
			<path style="fill:#323657;" d="M617.891,1175.554c0,0,18.7,7.792,24.232,8.898c5.532,1.106,24.232,28.723,27.995,38.903
				c3.762,10.18,0,25.449-7.746,43.375c-7.745,17.926-0.442,23.9-3.983,41.826s7.891,56.149,8.555,66.107
				c0.664,9.959-104.04,11.568-124.621-6.578c0,0,20.685-30.981,23.341-35.407c2.655-4.426,0.442-28.548-1.992-34.744
				c-2.434-6.197-18.636-58.892-18.636-58.892s-13.255-40.47-1.281-49.769c10.401-8.077,38.749-10.957,43.839-12.728
				C592.683,1174.776,607.489,1174.005,617.891,1175.554z"/>
		</g>
		<g>
			<path style="fill:#EEA886;" d="M625.498,1157.165c0,0-0.436,3.996-0.952,9.519c-0.224,2.448-0.469,5.198-0.697,8.035
				c-0.649,8.045-1.176,16.76-0.867,21.192c0,0-16.559,16.596-35.389-19.362c0,0,7.923-14.824,1.958-35.021
				C583.586,1121.335,625.498,1157.165,625.498,1157.165z"/>
		</g>
		<polygon style="fill:#EEA886;" points="667.139,1290.658 669.912,1297.415 663.974,1293.162 		"/>
		<g>
			<g>
				<g>
					<path style="fill:#EEA987;" d="M631.143,1065.328c0,0,37.125,11.668,16.972,75.735c-20.153,64.067-70.855-7.425-65.552-46.459
						C587.866,1055.57,631.143,1065.328,631.143,1065.328z"/>
				</g>
			</g>
		</g>
		<g>
			<g>
				<g>
					<path style="fill:#E8734D;" d="M651.909,1102.712c0,0-18.447,18.103-49.318,20.365c0,0-11.864,13.911-12.775,19.371
						c0,0-32.305-53.949,6.313-75.094C637.045,1044.952,664.354,1091.114,651.909,1102.712z"/>
				</g>
			</g>
		</g>
		<g>
			<g>
				<g>
					<path style="fill:#EEA987;" d="M602.351,1122.715c-0.238-4.663-3.111-15.274-10.041-12.305s0.424,24.579,5.021,23.25
						C597.33,1133.66,602.917,1133.746,602.351,1122.715z"/>
				</g>
			</g>
		</g>
		<path style="fill:#A77860;" d="M624.546,1166.684c-0.224,2.448-0.469,5.198-0.697,8.035h-0.006
			c-21.464-10.6-24.752-25.881-24.848-26.354C615.381,1166.7,624.546,1166.684,624.546,1166.684z"/>
		<path style="fill:#1D3B54;" d="M672.054,1233.269c0,0,1.016,22.561-4.039,35.49l-4.647-2.41
			C663.367,1266.349,671.966,1243.777,672.054,1233.269z"/>
		<g>
			<g>
				<path style="fill:#EEA886;" d="M591.524,1306.62c0,0,8.571-5.677,9.907-6.503c1.336-0.826,6.017-0.561,10.835,0.961
					c4.681,1.479,9.953,3.517,11.411,4.336c0.76,0.428,1.519,0.567,1.189,2.779c-0.33,2.212-1.824,3.9-1.824,3.9
					s0.876,2.918-1.124,4.859c0,0,0.698,2.782-1.934,4.617c0,0,0.608,2.734-1.416,3.905c0,0-4.378,0.602-6.033,0.25
					c-2.34-0.496-14.595-3.316-23.19-5.58C589.345,1320.146,585.788,1318.025,591.524,1306.62z"/>
			</g>
		</g>
		<g>
			<path style="fill:#EEA886;" d="M621.079,1304.715c0,0,22.205,4.875,21.933,6.597c-0.395,2.5-5.899,3.421-22.759-1.224
				C603.861,1305.573,621.079,1304.715,621.079,1304.715z"/>
		</g>
		<path style="fill:#323657;" d="M566.352,1185.548c-5.04-3.049-21.851-2.711-28.42,13.07
			c-6.568,15.781-11.939,33.749-16.544,41.996c-4.606,8.246-20.257,45.903-15.608,50.424c4.648,4.521,14.198,9.9,28.578,13.283
			c14.848,3.493,57.889,19.529,57.889,19.529l5.496-23.307c0,0-18.93-9.032-29.854-13.414c-9.724-3.899-8.518-4.928-24.548-10.604
			c0,0,9.197-23.443,13.336-29.705C560.815,1240.56,589.022,1199.259,566.352,1185.548z"/>
		<g>
			<path style="fill:#857B77;" d="M624.956,1346.338l57.607-4.65c2.592-0.209,4.93-1.64,6.294-3.854l59.702-96.836
				c3.333-5.407-0.513-12.383-6.864-12.449l-61.726-0.653c-3.022-0.032-5.815,1.607-7.258,4.262l-55.585,102.139
				C614.026,1339.994,618.489,1346.859,624.956,1346.338z"/>
		</g>
		<g>
			<g>
				<path style="fill:#EEA886;" d="M705.617,1310.741c0,0,3.622-3.363,6.851-8.073c3.229-4.711,13.787-22.69,12.821-23.819
					s-16.645-1.511-19.485,1.047c-2.842,2.559,2.797,3.562,2.797,3.562s-8.572,0.884-7.961,3.303c0.612,2.419,5.774,1.75,5.774,1.75
					s-6.899,1.323-5.854,3.448c1.045,2.125,4.365,2.103,4.365,2.103s-6.116,0.766-5.359,3.087c0.756,2.321,10.43,4.511,9.137,6.438
					C707.409,1305.513,705.617,1310.741,705.617,1310.741z"/>
			</g>
		</g>
		<path style="fill:#EEA886;" d="M584.857,1177.232c0,0,20.795,33.862,37.289,33.463c16.495-0.399,5.241-31.32,5.241-31.32
			S614.73,1169.246,584.857,1177.232z"/>
		<path style="fill:#918682;" d="M693.185,1290.867c-5.571,5.571-13.098,7.077-16.81,3.364c-3.712-3.713-2.206-11.238,3.365-16.81
			s13.097-7.078,16.81-3.365C700.262,1277.77,698.756,1285.296,693.185,1290.867z"/>
		<path style="fill:#E8734D;" d="M654.923,1093.813c0,0,2.321,8.886-1.593,24.441c0,0,0.608-14.64-2.451-18.63
			C647.819,1095.633,654.923,1093.813,654.923,1093.813z"/>
	</g>
</g>
</svg>
