<?xml version="1.0" encoding="utf-8"?>
<!-- Generator: Adobe Illustrator 27.5.0, SVG Export Plug-In . SVG Version: 6.00 Build 0)  -->
<svg version="1.1" xmlns="http://www.w3.org/2000/svg" xmlns:xlink="http://www.w3.org/1999/xlink" x="0px" y="0px"
	 viewBox="0 0 750 500" style="enable-background:new 0 0 750 500;" xml:space="preserve">
<g id="BACKGROUND">
	<rect style="fill:#FFFFFF;" width="750" height="500"/>
</g>
<g id="OBJECTS">
	<path style="opacity:0.38;fill:#8FCEFD;" d="M177.146,90.57V68.632h-13.903c-0.936-3.444-2.303-6.709-4.039-9.737l9.835-9.835
		l-15.512-15.512l-9.835,9.835c-3.029-1.735-6.293-3.103-9.737-4.039V25.44h-21.938v13.903c-3.444,0.936-6.709,2.304-9.737,4.039
		l-9.835-9.835L76.932,49.06l9.835,9.835c-1.735,3.029-3.103,6.293-4.039,9.737H68.825V90.57h13.903
		c0.936,3.444,2.304,6.709,4.039,9.737l-9.835,9.835l15.512,15.512l9.835-9.835c3.029,1.735,6.293,3.103,9.737,4.039v13.903h21.938
		v-13.903c3.444-0.936,6.709-2.304,9.737-4.039l9.835,9.835l15.512-15.512l-9.835-9.835c1.735-3.029,3.103-6.293,4.039-9.737
		H177.146z M122.986,100.105c-11.324,0-20.504-9.18-20.504-20.505c0-11.324,9.18-20.505,20.504-20.505
		c11.324,0,20.505,9.18,20.505,20.505C143.49,90.925,134.31,100.105,122.986,100.105z"/>
	<path style="opacity:0.38;fill:#8FCEFD;" d="M722.713,435.142v-19.117h-12.116c-0.816-3.001-2.007-5.846-3.52-8.486l8.57-8.57
		l-13.518-13.518l-8.57,8.57c-2.639-1.512-5.484-2.704-8.485-3.52v-12.115h-19.117v12.115c-3.002,0.816-5.846,2.007-8.486,3.52
		l-8.57-8.57l-13.518,13.518l8.57,8.57c-1.512,2.639-2.704,5.484-3.52,8.486h-12.116v19.117h12.116
		c0.816,3.001,2.007,5.846,3.52,8.485l-8.57,8.57l13.518,13.518l8.57-8.57c2.639,1.512,5.484,2.704,8.486,3.52v12.116h19.117
		v-12.116c3.001-0.816,5.846-2.007,8.485-3.52l8.57,8.57l13.518-13.518l-8.57-8.57c1.512-2.639,2.704-5.484,3.52-8.485H722.713z
		 M675.516,443.451c-9.868,0-17.868-8-17.868-17.868c0-9.868,8-17.868,17.868-17.868c9.869,0,17.869,8,17.869,17.868
		C693.384,435.451,685.384,443.451,675.516,443.451z"/>
	<rect x="34.914" y="89.563" style="opacity:0.38;fill:#8FCEFD;" width="679.928" height="325.058"/>
	<g>
		<g>
			<path style="fill:#59C2FC;" d="M171.887,176.426h-4.326v-14.363H90.034v14.363h-4.326c-7.412,0-13.421,6.009-13.421,13.421
				v224.254h113.022V189.847C185.308,182.435,179.3,176.426,171.887,176.426z"/>
			<path style="fill:#202060;" d="M166.421,183.473h-3.777v-13.937H94.951v13.937h-3.777c-6.472,0-11.718,5.831-11.718,13.023
				v217.605h98.684V196.496C178.139,189.304,172.893,183.473,166.421,183.473z"/>
			<linearGradient id="SVGID_1_" gradientUnits="userSpaceOnUse" x1="90.9677" y1="215.584" x2="166.6272" y2="215.584">
				<stop  offset="0" style="stop-color:#00FFAB"/>
				<stop  offset="0.9995" style="stop-color:#251DFA"/>
			</linearGradient>
			<rect x="90.968" y="201.804" style="fill:url(#SVGID_1_);" width="75.66" height="27.561"/>
			
				<linearGradient id="SVGID_00000048498707775155029690000015672164764691129731_" gradientUnits="userSpaceOnUse" x1="90.9677" y1="259.6077" x2="166.6272" y2="259.6077">
				<stop  offset="0" style="stop-color:#00FFAB"/>
				<stop  offset="0.9995" style="stop-color:#251DFA"/>
			</linearGradient>
			
				<rect x="90.968" y="245.827" style="fill:url(#SVGID_00000048498707775155029690000015672164764691129731_);" width="75.66" height="27.561"/>
			
				<linearGradient id="SVGID_00000120544124027443547860000006492650587736922044_" gradientUnits="userSpaceOnUse" x1="90.9677" y1="303.6314" x2="166.6272" y2="303.6314">
				<stop  offset="0" style="stop-color:#00FFAB"/>
				<stop  offset="0.9995" style="stop-color:#251DFA"/>
			</linearGradient>
			
				<rect x="90.968" y="289.851" style="fill:url(#SVGID_00000120544124027443547860000006492650587736922044_);" width="75.66" height="27.561"/>
			
				<linearGradient id="SVGID_00000130636870657767345670000016036822469088032408_" gradientUnits="userSpaceOnUse" x1="90.9677" y1="373.9882" x2="166.6272" y2="373.9882">
				<stop  offset="0" style="stop-color:#00FFAB"/>
				<stop  offset="0.9995" style="stop-color:#251DFA"/>
			</linearGradient>
			
				<rect x="90.968" y="333.875" style="fill:url(#SVGID_00000130636870657767345670000016036822469088032408_);" width="75.66" height="80.227"/>
			
				<ellipse transform="matrix(0.7071 -0.7071 0.7071 0.7071 -219.293 180.0234)" style="fill:#FFFFFF;" cx="107.661" cy="354.722" rx="10.216" ry="10.216"/>
			
				<ellipse transform="matrix(0.2288 -0.9735 0.9735 0.2288 -295.5162 404.7142)" style="fill:#FFFFFF;" cx="107.661" cy="388.86" rx="10.216" ry="10.216"/>
		</g>
		<rect x="104.426" y="300.529" style="fill:#9F88FA;" width="62.201" height="8.28"/>
		<rect x="104.426" y="256.411" style="fill:#9F88FA;" width="62.201" height="8.28"/>
		<rect x="104.426" y="212.293" style="fill:#9F88FA;" width="62.201" height="8.28"/>
	</g>
	<g>
		<path style="fill:#59C2FC;" d="M504.708,357.564c11.413,0,20.664-9.444,20.664-21.094V184.781c0-11.65-9.252-21.094-20.664-21.094
			h-259.66c-11.412,0-20.664,9.444-20.664,21.094V336.47c0,11.65,9.252,21.094,20.664,21.094h99.022v21.031h-51.152v9.915h163.919
			v-9.915h-51.152v-21.031H504.708z"/>
		<g>
			<rect x="341.989" y="343.532" style="fill:#202060;" width="61.615" height="34.703"/>
			<g>
				<path style="fill:#4141AA;" d="M504.708,156.953h-259.66c-11.412,0-20.664,9.444-20.664,21.094v151.688
					c0,11.65,9.252,21.094,20.664,21.094h259.66c11.413,0,20.664-9.444,20.664-21.094V178.047
					C525.372,166.397,516.12,156.953,504.708,156.953z"/>
				
					<linearGradient id="SVGID_00000124159408510452404400000008254751512445480883_" gradientUnits="userSpaceOnUse" x1="235.1971" y1="253.891" x2="514.5591" y2="253.891">
					<stop  offset="0" style="stop-color:#00FFAB"/>
					<stop  offset="0.9995" style="stop-color:#251DFA"/>
				</linearGradient>
				<path style="fill:url(#SVGID_00000124159408510452404400000008254751512445480883_);" d="M495.379,167.401H254.377
					c-10.592,0-19.18,8.426-19.18,18.821V321.56c0,10.394,8.587,18.821,19.18,18.821h241.003c10.593,0,19.18-8.426,19.18-18.821
					V186.222C514.559,175.828,505.972,167.401,495.379,167.401z"/>
			</g>
			<path style="fill:#4141AA;" d="M457.013,381.776H292.743v-0.336c0-5.29,4.289-9.579,9.579-9.579h145.112
				c5.29,0,9.579,4.289,9.579,9.579V381.776z"/>
		</g>
	</g>
	<rect x="553.935" y="177.589" style="fill:#4141AA;" width="144.4" height="89.628"/>
	<rect x="553.935" y="278.033" style="fill:#4141AA;" width="144.4" height="89.628"/>
	
		<linearGradient id="SVGID_00000065074056829480430660000003645508547625903492_" gradientUnits="userSpaceOnUse" x1="559.3713" y1="222.4032" x2="692.8979" y2="222.4032">
		<stop  offset="0" style="stop-color:#03D4C6"/>
		<stop  offset="0.999" style="stop-color:#03FCA9"/>
	</linearGradient>
	
		<rect x="559.371" y="184.255" style="fill:url(#SVGID_00000065074056829480430660000003645508547625903492_);" width="133.527" height="76.296"/>
	<rect x="559.371" y="284.699" style="fill:#FFFFFF;" width="133.527" height="76.296"/>
	<g>
		<g>
			<path style="opacity:0.35;fill:#4141AA;" d="M541.385,94.363V78.628h-9.972c-0.672-2.47-1.652-4.812-2.897-6.984l7.054-7.054
				l-11.127-11.126l-7.054,7.054c-2.172-1.245-4.514-2.225-6.984-2.897v-9.972h-15.735v9.972c-2.47,0.672-4.812,1.652-6.984,2.897
				l-7.054-7.054L469.506,64.59l7.054,7.054c-1.245,2.172-2.225,4.514-2.897,6.984h-9.972v15.735h9.972
				c0.672,2.47,1.652,4.812,2.897,6.984l-7.054,7.054l11.126,11.126l7.054-7.054c2.172,1.245,4.514,2.225,6.984,2.897v9.972h15.735
				v-9.972c2.47-0.672,4.812-1.652,6.984-2.897l7.054,7.054l11.127-11.126l-7.054-7.054c1.245-2.172,2.225-4.514,2.897-6.984
				H541.385z M502.538,101.203c-8.122,0-14.707-6.585-14.707-14.707s6.585-14.707,14.707-14.707c8.123,0,14.707,6.585,14.707,14.707
				S510.661,101.203,502.538,101.203z"/>
			
				<linearGradient id="SVGID_00000115491719351212809840000007027054702983605926_" gradientUnits="userSpaceOnUse" x1="457.7451" y1="81.2252" x2="535.4397" y2="81.2252">
				<stop  offset="0" style="stop-color:#03D4C6"/>
				<stop  offset="0.999" style="stop-color:#03FCA9"/>
			</linearGradient>
			<path style="fill:url(#SVGID_00000115491719351212809840000007027054702983605926_);" d="M535.44,89.093V73.357h-9.972
				c-0.672-2.47-1.652-4.812-2.897-6.984l7.054-7.054l-11.126-11.126l-7.054,7.054c-2.172-1.245-4.514-2.225-6.984-2.897v-9.972
				h-15.735v9.972c-2.47,0.672-4.812,1.652-6.984,2.897l-7.054-7.054L463.56,59.319l7.054,7.054
				c-1.245,2.172-2.225,4.514-2.897,6.984h-9.972v15.735h9.972c0.672,2.47,1.652,4.812,2.897,6.984l-7.054,7.054l11.126,11.126
				l7.054-7.054c2.172,1.245,4.514,2.225,6.984,2.897v9.972h15.735V110.1c2.47-0.672,4.812-1.652,6.984-2.897l7.054,7.054
				l11.126-11.126l-7.054-7.054c1.245-2.172,2.225-4.514,2.897-6.984H535.44z M496.592,95.932c-8.123,0-14.707-6.585-14.707-14.707
				c0-8.122,6.585-14.707,14.707-14.707c8.122,0,14.707,6.585,14.707,14.707C511.3,89.348,504.715,95.932,496.592,95.932z"/>
		</g>
		<g>
			<path style="opacity:0.35;fill:#4141AA;" d="M602.55,133.693v-11.43h-7.243c-0.488-1.794-1.2-3.495-2.104-5.073l5.124-5.124
				l-8.082-8.082l-5.124,5.124c-1.578-0.904-3.279-1.616-5.073-2.104v-7.243h-11.429v7.243c-1.794,0.488-3.495,1.2-5.073,2.104
				l-5.124-5.124l-8.082,8.082l5.124,5.124c-0.904,1.578-1.616,3.279-2.104,5.073h-7.243v11.43h7.243
				c0.488,1.794,1.2,3.495,2.104,5.073l-5.124,5.124l8.082,8.082l5.124-5.124c1.578,0.904,3.279,1.616,5.073,2.104v7.243h11.429
				v-7.243c1.794-0.488,3.495-1.2,5.073-2.104l5.124,5.124l8.082-8.082l-5.124-5.124c0.904-1.578,1.616-3.279,2.104-5.073H602.55z
				 M574.332,138.661c-5.9,0-10.683-4.783-10.683-10.683c0-5.9,4.783-10.683,10.683-10.683c5.9,0,10.683,4.783,10.683,10.683
				C585.015,133.878,580.232,138.661,574.332,138.661z"/>
			
				<linearGradient id="SVGID_00000019660443032289451840000001876720876817170049_" gradientUnits="userSpaceOnUse" x1="541.7963" y1="124.1495" x2="598.2307" y2="124.1495">
				<stop  offset="0" style="stop-color:#03D4C6"/>
				<stop  offset="0.999" style="stop-color:#03FCA9"/>
			</linearGradient>
			<path style="fill:url(#SVGID_00000019660443032289451840000001876720876817170049_);" d="M598.231,129.864v-11.429h-7.243
				c-0.488-1.794-1.2-3.495-2.104-5.073l5.124-5.124l-8.082-8.082l-5.124,5.124c-1.578-0.904-3.279-1.616-5.073-2.104v-7.243
				h-11.429v7.243c-1.794,0.488-3.495,1.2-5.073,2.104l-5.124-5.124l-8.082,8.082l5.124,5.124c-0.904,1.578-1.616,3.279-2.104,5.073
				h-7.243v11.429h7.243c0.488,1.795,1.2,3.495,2.104,5.073l-5.124,5.124l8.082,8.082l5.124-5.124
				c1.578,0.904,3.279,1.616,5.073,2.104v7.243h11.429v-7.243c1.794-0.488,3.495-1.2,5.073-2.104l5.124,5.124l8.082-8.082
				l-5.124-5.124c0.904-1.578,1.616-3.279,2.104-5.073H598.231z M570.013,134.832c-5.9,0-10.683-4.783-10.683-10.683
				s4.783-10.683,10.683-10.683s10.683,4.783,10.683,10.683S575.913,134.832,570.013,134.832z"/>
		</g>
	</g>
	<g>
		<path style="opacity:0.35;fill:#4141AA;" d="M246.66,388.477h-83.312c-3.659,0-6.625,2.966-6.625,6.625v45.909
			c0,3.659,2.966,6.625,6.625,6.625h57.917l25.795,16.015l-0.4-16.015c3.659,0,6.625-2.966,6.625-6.625v-45.909
			C253.286,391.443,250.32,388.477,246.66,388.477z M176.83,426.888c-4.968,0-8.995-4.027-8.995-8.995
			c0-4.968,4.027-8.995,8.995-8.995c4.968,0,8.995,4.027,8.995,8.995C185.825,422.861,181.798,426.888,176.83,426.888z
			 M205.005,426.888c-4.968,0-8.995-4.027-8.995-8.995c0-4.968,4.027-8.995,8.995-8.995c4.968,0,8.995,4.027,8.995,8.995
			C213.999,422.861,209.972,426.888,205.005,426.888z M233.179,426.888c-4.968,0-8.995-4.027-8.995-8.995
			c0-4.968,4.027-8.995,8.995-8.995c4.968,0,8.995,4.027,8.995,8.995C242.174,422.861,238.147,426.888,233.179,426.888z"/>
		
			<linearGradient id="SVGID_00000111885319457711481530000002593804266883587490_" gradientUnits="userSpaceOnUse" x1="150.9745" y1="420.2999" x2="247.5368" y2="420.2999">
			<stop  offset="0" style="stop-color:#03D4C6"/>
			<stop  offset="0.999" style="stop-color:#03FCA9"/>
		</linearGradient>
		<path style="fill:url(#SVGID_00000111885319457711481530000002593804266883587490_);" d="M240.911,382.712H157.6
			c-3.659,0-6.625,2.966-6.625,6.625v45.909c0,3.659,2.966,6.625,6.625,6.625h57.917l25.795,16.015l-0.4-16.015
			c3.659,0,6.625-2.966,6.625-6.625v-45.909C247.537,385.679,244.571,382.712,240.911,382.712z M171.081,421.124
			c-4.968,0-8.995-4.027-8.995-8.995c0-4.968,4.027-8.995,8.995-8.995c4.968,0,8.995,4.027,8.995,8.995
			C180.076,417.097,176.049,421.124,171.081,421.124z M199.256,421.124c-4.968,0-8.995-4.027-8.995-8.995
			c0-4.968,4.027-8.995,8.995-8.995c4.968,0,8.995,4.027,8.995,8.995C208.25,417.097,204.223,421.124,199.256,421.124z
			 M227.43,421.124c-4.968,0-8.995-4.027-8.995-8.995c0-4.968,4.027-8.995,8.995-8.995c4.968,0,8.995,4.027,8.995,8.995
			C236.425,417.097,232.398,421.124,227.43,421.124z"/>
	</g>
	<g>
		<g>
			<polygon style="fill:#202060;" points="596.858,242.507 576.753,222.403 596.858,202.299 600.016,205.457 583.07,222.403 
				600.016,239.349 			"/>
		</g>
		<g>
			<polygon style="fill:#202060;" points="655.411,242.507 652.253,239.349 669.199,222.403 652.253,205.457 655.411,202.299 
				675.516,222.403 			"/>
		</g>
		<g>
			
				<rect x="605.902" y="220.17" transform="matrix(0.4366 -0.8996 0.8996 0.4366 152.859 688.9092)" style="fill:#202060;" width="41.185" height="4.466"/>
		</g>
	</g>
	<g>
		<path style="fill:#4141AA;" d="M645.218,301.561h-34.36c-3.676,0-6.656,2.98-6.656,6.656v34.36c0,3.676,2.98,6.656,6.656,6.656
			h34.36c3.676,0,6.656-2.98,6.656-6.656v-34.36C651.874,304.541,648.894,301.561,645.218,301.561z"/>
		
			<linearGradient id="SVGID_00000065067222811822168280000015122346664355564983_" gradientUnits="userSpaceOnUse" x1="600.395" y1="320.6556" x2="648.0676" y2="320.6556">
			<stop  offset="0" style="stop-color:#00FFAB"/>
			<stop  offset="0.9995" style="stop-color:#251DFA"/>
		</linearGradient>
		<path style="fill:url(#SVGID_00000065067222811822168280000015122346664355564983_);" d="M641.411,296.819h-34.36
			c-3.676,0-6.656,2.98-6.656,6.656v34.36c0,3.676,2.98,6.656,6.656,6.656h34.36c3.676,0,6.656-2.98,6.656-6.656v-34.36
			C648.068,299.799,645.087,296.819,641.411,296.819z"/>
		<polygon style="fill:#FFFFFF;" points="634.586,320.656 615.854,309.841 615.854,331.47 		"/>
	</g>
	<g>
		<path style="fill:#8FCEFD;" d="M196.33,87.928h-66.037c-1.797,0-3.254-1.457-3.254-3.254v-1.82c0-1.797,1.457-3.254,3.254-3.254
			h66.037c1.797,0,3.254,1.457,3.254,3.254v1.82C199.583,86.471,198.127,87.928,196.33,87.928z"/>
		<path style="fill:#8FCEFD;" d="M243.9,136.526H130.293c-1.797,0-3.254-1.457-3.254-3.254v-1.82c0-1.797,1.457-3.254,3.254-3.254
			H243.9c1.797,0,3.254,1.457,3.254,3.254v1.82C247.154,135.07,245.697,136.526,243.9,136.526z"/>
		<path style="fill:#8FCEFD;" d="M196.33,119.533h-66.037c-1.797,0-3.254-1.457-3.254-3.254v-1.82c0-1.797,1.457-3.254,3.254-3.254
			h66.037c1.797,0,3.254,1.457,3.254,3.254v1.82C199.583,118.076,198.127,119.533,196.33,119.533z"/>
		<path style="fill:#8FCEFD;" d="M243.9,87.928h-31.408c-1.797,0-3.254-1.457-3.254-3.254v-1.82c0-1.797,1.457-3.254,3.254-3.254
			H243.9c1.797,0,3.254,1.457,3.254,3.254v1.82C247.154,86.471,245.697,87.928,243.9,87.928z"/>
		<path style="fill:#8FCEFD;" d="M243.9,119.533h-31.408c-1.797,0-3.254-1.457-3.254-3.254v-1.82c0-1.797,1.457-3.254,3.254-3.254
			H243.9c1.797,0,3.254,1.457,3.254,3.254v1.82C247.154,118.076,245.697,119.533,243.9,119.533z"/>
		<path style="fill:#8FCEFD;" d="M174.783,103.975h-44.298c-1.903,0-3.445-1.542-3.445-3.445v-1.927
			c0-1.903,1.542-3.445,3.445-3.445h44.298c1.903,0,3.445,1.542,3.445,3.445v1.927C178.228,102.433,176.685,103.975,174.783,103.975
			z"/>
		<path style="fill:#8FCEFD;" d="M221.405,103.975h-30.937c-1.903,0-3.445-1.542-3.445-3.445v-1.927
			c0-1.903,1.542-3.445,3.445-3.445h30.937c1.903,0,3.445,1.542,3.445,3.445v1.927C224.85,102.433,223.308,103.975,221.405,103.975z
			"/>
		<path style="fill:#8FCEFD;" d="M243.709,103.975h-6.597c-1.903,0-3.445-1.542-3.445-3.445v-1.927c0-1.903,1.542-3.445,3.445-3.445
			h6.597c1.903,0,3.445,1.542,3.445,3.445v1.927C247.154,102.433,245.612,103.975,243.709,103.975z"/>
	</g>
	<g>
		<path style="fill:#8FCEFD;" d="M550.665,399.694h61.935c1.797,0,3.254-1.457,3.254-3.254v-1.349c0-1.797-1.457-3.254-3.254-3.254
			h-61.935c-1.797,0-3.254,1.457-3.254,3.254v1.349C547.412,398.237,548.868,399.694,550.665,399.694z"/>
		<path style="fill:#8FCEFD;" d="M505.784,445.544h106.816c1.797,0,3.254-1.457,3.254-3.254v-1.349c0-1.797-1.457-3.254-3.254-3.254
			H505.784c-1.797,0-3.254,1.457-3.254,3.254v1.349C502.531,444.087,503.987,445.544,505.784,445.544z"/>
		<path style="fill:#8FCEFD;" d="M550.665,429.511h61.935c1.797,0,3.254-1.457,3.254-3.254v-1.349c0-1.797-1.457-3.254-3.254-3.254
			h-61.935c-1.797,0-3.254,1.457-3.254,3.254v1.349C547.412,428.055,548.868,429.511,550.665,429.511z"/>
		<path style="fill:#8FCEFD;" d="M505.784,399.694h29.264c1.797,0,3.254-1.457,3.254-3.254v-1.349c0-1.797-1.457-3.254-3.254-3.254
			h-29.264c-1.797,0-3.254,1.457-3.254,3.254v1.349C502.531,398.237,503.987,399.694,505.784,399.694z"/>
		<path style="fill:#8FCEFD;" d="M505.784,429.511h29.264c1.797,0,3.254-1.457,3.254-3.254v-1.349c0-1.797-1.457-3.254-3.254-3.254
			h-29.264c-1.797,0-3.254,1.457-3.254,3.254v1.349C502.531,428.055,503.987,429.511,505.784,429.511z"/>
		<path style="fill:#8FCEFD;" d="M571.005,414.834h41.404c1.903,0,3.445-1.542,3.445-3.445v-1.429c0-1.903-1.542-3.445-3.445-3.445
			h-41.404c-1.903,0-3.445,1.542-3.445,3.445v1.429C567.56,413.291,569.102,414.834,571.005,414.834z"/>
		<path style="fill:#8FCEFD;" d="M527.019,414.834h28.798c1.903,0,3.445-1.542,3.445-3.445v-1.429c0-1.903-1.543-3.445-3.445-3.445
			h-28.798c-1.903,0-3.445,1.542-3.445,3.445v1.429C523.574,413.291,525.116,414.834,527.019,414.834z"/>
		<path style="fill:#8FCEFD;" d="M505.976,414.834h5.834c1.903,0,3.445-1.542,3.445-3.445v-1.429c0-1.903-1.542-3.445-3.445-3.445
			h-5.834c-1.903,0-3.445,1.542-3.445,3.445v1.429C502.531,413.291,504.073,414.834,505.976,414.834z"/>
	</g>
	<g>
		<path style="fill:#4141AA;" d="M311.425,189.767h-32.819c-4.206,0-7.616-3.41-7.616-7.615v-32.819c0-4.206,3.41-7.615,7.616-7.615
			h32.819c4.206,0,7.615,3.41,7.615,7.615v32.819C319.041,186.357,315.631,189.767,311.425,189.767z"/>
		<path style="fill:#FFFFFF;" d="M307.026,183.088h-32.819c-4.206,0-7.615-3.41-7.615-7.615v-32.819
			c0-4.206,3.409-7.615,7.615-7.615h32.819c4.206,0,7.615,3.41,7.615,7.615v32.819C314.642,179.678,311.232,183.088,307.026,183.088
			z"/>
		<path style="fill:#8FCEFD;" d="M305.326,155.377V153.3h-5.236l2.149-5.178l-1.919-0.796l-2.479,5.974h-9.691l2.149-5.178
			l-1.919-0.796l-2.479,5.974h-10.772v2.078h9.91l-2.906,7.004h-7.004v2.078h6.142l-3.055,7.362l1.919,0.796l3.385-8.158h9.691
			l-3.055,7.362l1.919,0.796l3.385-8.158h9.866v-2.078h-9.004l2.906-7.004H305.326z M294.072,162.381h-9.691l2.906-7.004h9.691
			L294.072,162.381z"/>
	</g>
	<g>
		<path style="fill:#4141AA;" d="M472.883,367.745h-32.819c-4.206,0-7.616-3.41-7.616-7.616V327.31c0-4.206,3.41-7.616,7.616-7.616
			h32.819c4.206,0,7.615,3.41,7.615,7.616v32.819C480.498,364.336,477.089,367.745,472.883,367.745z"/>
		<path style="fill:#FFFFFF;" d="M468.484,361.066h-32.819c-4.206,0-7.615-3.41-7.615-7.616v-32.819c0-4.206,3.41-7.616,7.615-7.616
			h32.819c4.206,0,7.616,3.41,7.616,7.616v32.819C476.099,357.657,472.689,361.066,468.484,361.066z"/>
		<g>
			<circle style="fill:#8FCEFD;" cx="451.836" cy="328.066" r="7.721"/>
			<path style="fill:#8FCEFD;" d="M451.835,335.787L451.835,335.787c-7.108,0-12.87,4.897-12.87,10.939V355h25.74v-8.275
				C464.706,340.684,458.943,335.787,451.835,335.787z"/>
		</g>
	</g>
	
		<ellipse transform="matrix(0.2306 -0.9731 0.9731 0.2306 -67.2454 178.8305)" style="fill:#9F88FA;" cx="79.455" cy="131.936" rx="8.228" ry="8.228"/>
	
		<ellipse transform="matrix(0.7071 -0.7071 0.7071 0.7071 103.0916 499.7033)" style="fill:#202060;" cx="654.741" cy="125.409" rx="10.716" ry="10.716"/>
	
		<ellipse transform="matrix(0.7071 -0.7071 0.7071 0.7071 -211.6508 324.8172)" style="fill:#202060;" cx="286.264" cy="417.894" rx="10.716" ry="10.716"/>
	<circle style="fill:#9F88FA;" cx="660.102" cy="414.102" r="8.228"/>
	<circle style="fill:none;stroke:#9F88FA;stroke-width:5;stroke-miterlimit:10;" cx="72.286" cy="412.129" r="18.218"/>
	
		<line style="fill:none;stroke:#8FCEFD;stroke-miterlimit:10;stroke-dasharray:3;" x1="34.914" y1="68.567" x2="315.786" y2="68.567"/>
	<polyline style="fill:none;stroke:#8FCEFD;stroke-miterlimit:10;stroke-dasharray:3;" points="721.523,297.583 721.523,432.682 
		628.038,432.682 	"/>
	
		<line style="fill:none;stroke:#8FCEFD;stroke-miterlimit:10;stroke-dasharray:3;" x1="319.597" y1="430.347" x2="472.44" y2="430.347"/>
	
		<line style="fill:none;stroke:#8FCEFD;stroke-miterlimit:10;stroke-dasharray:3;" x1="319.597" y1="438.823" x2="472.44" y2="438.823"/>
	
		<line style="fill:none;stroke:#8FCEFD;stroke-miterlimit:10;stroke-dasharray:3;" x1="559.371" y1="72.377" x2="714.842" y2="72.377"/>
	<g>
		<path style="fill:#FFFFFF;" d="M134.609,185.894c0,3.21-2.602,5.812-5.812,5.812c-3.21,0-5.812-2.602-5.812-5.812
			s2.602-5.812,5.812-5.812C132.007,180.082,134.609,182.684,134.609,185.894z"/>
		<path style="fill:#FFFFFF;" d="M253.348,185.894c0,3.21-2.602,5.812-5.812,5.812s-5.812-2.602-5.812-5.812
			s2.602-5.812,5.812-5.812S253.348,182.684,253.348,185.894z"/>
		<line style="fill:none;stroke:#FFFFFF;stroke-miterlimit:10;" x1="128.797" y1="185.894" x2="247.154" y2="185.894"/>
	</g>
	<g>
		<path style="fill:#FFFFFF;" d="M506.465,325.563c0,3.21-2.602,5.812-5.812,5.812c-3.21,0-5.812-2.602-5.812-5.812
			c0-3.21,2.602-5.812,5.812-5.812C503.863,319.751,506.465,322.353,506.465,325.563z"/>
		<polyline style="fill:none;stroke:#FFFFFF;stroke-miterlimit:10;" points="500.653,325.563 542.641,325.563 542.641,222.403 
			568.073,222.403 		"/>
		<path style="fill:#FFFFFF;" d="M573.833,222.403c0,3.181-2.579,5.76-5.76,5.76c-3.181,0-5.76-2.579-5.76-5.76
			c0-3.181,2.579-5.76,5.76-5.76C571.254,216.643,573.833,219.222,573.833,222.403z"/>
	</g>
	<g style="opacity:0.7;">
		<rect x="246.293" y="201.928" style="fill:#FFFFFF;" width="46.451" height="4.075"/>
		<rect x="246.293" y="210.38" style="fill:#FFFFFF;" width="46.451" height="4.075"/>
		<rect x="246.293" y="218.831" style="fill:#FFFFFF;" width="46.451" height="4.075"/>
		<rect x="246.293" y="227.283" style="fill:#FFFFFF;" width="46.451" height="4.075"/>
	</g>
	<g style="opacity:0.7;">
		<rect x="466.209" y="239.176" style="fill:#FFFFFF;" width="38.587" height="4.075"/>
		<rect x="466.209" y="247.628" style="fill:#FFFFFF;" width="38.587" height="4.075"/>
		<rect x="466.209" y="256.079" style="fill:#FFFFFF;" width="38.587" height="4.075"/>
		<rect x="466.209" y="264.531" style="fill:#FFFFFF;" width="38.587" height="4.075"/>
	</g>
	<g>
		<rect x="407.699" y="124.366" style="fill:#8FCEFD;" width="15.982" height="15.982"/>
		<rect x="428.211" y="124.366" style="fill:#8FCEFD;" width="15.982" height="15.982"/>
		<rect x="448.723" y="124.366" style="fill:#8FCEFD;" width="15.982" height="15.982"/>
	</g>
</g>
<g id="TEXTS">
	<g>
		<g>
			<text transform="matrix(1 0 0 1 291.0752 275.4697)" style="fill:#FFFFFF; font-family:'Poppins-Black'; font-size:96.3408px;">API</text>
		</g>
		<g>
			
				<text transform="matrix(1 0 0 1 252.8687 297.4951)" style="fill:#FFFFFF; font-family:'Poppins-Regular'; font-size:12.6505px;">APPLICATION PROGRAMMING INTERFACE</text>
		</g>
	</g>
</g>
</svg>
