<?xml version="1.0" encoding="utf-8"?>
<!-- Generator: Adobe Illustrator 27.5.0, SVG Export Plug-In . SVG Version: 6.00 Build 0)  -->
<svg version="1.1" xmlns="http://www.w3.org/2000/svg" xmlns:xlink="http://www.w3.org/1999/xlink" x="0px" y="0px"
	 viewBox="0 0 500 500" style="enable-background:new 0 0 500 500;" xml:space="preserve">
<g id="Background">
	<rect style="fill:#8DB3FF;" width="500" height="500"/>
</g>
<g id="Objects">
	<g>
		<g>
			<g>
				<g>
					
						<polygon style="fill:none;stroke:#0148A2;stroke-width:2.5;stroke-linecap:round;stroke-linejoin:round;stroke-miterlimit:10;" points="
						412.756,201.677 389.288,215.227 365.82,201.677 365.82,174.579 389.288,161.03 412.756,174.579 					"/>
					
						<line style="fill:none;stroke:#0148A2;stroke-width:2.5;stroke-linecap:round;stroke-linejoin:round;stroke-miterlimit:10;" x1="412.756" y1="174.579" x2="436.223" y2="161.03"/>
					
						<line style="fill:none;stroke:#0148A2;stroke-width:2.5;stroke-linecap:round;stroke-linejoin:round;stroke-miterlimit:10;" x1="436.223" y1="215.227" x2="412.756" y2="201.677"/>
					
						<line style="fill:none;stroke:#0148A2;stroke-width:2.5;stroke-linecap:round;stroke-linejoin:round;stroke-miterlimit:10;" x1="366.896" y1="201.677" x2="343.429" y2="215.227"/>
					
						<line style="fill:none;stroke:#0148A2;stroke-width:2.5;stroke-linecap:round;stroke-linejoin:round;stroke-miterlimit:10;" x1="389.288" y1="135.729" x2="389.288" y2="159.269"/>
				</g>
				<g>
					<path style="fill:#0148A2;" d="M393.419,161.03c0,2.281-1.849,4.131-4.131,4.131c-2.28,0-4.13-1.85-4.13-4.131
						c0-2.282,1.85-4.131,4.13-4.131C391.57,156.899,393.419,158.749,393.419,161.03z"/>
					<path style="fill:#0148A2;" d="M393.419,215.227c0,2.282-1.849,4.13-4.131,4.13c-2.28,0-4.13-1.848-4.13-4.13
						c0-2.282,1.85-4.13,4.13-4.13C391.57,211.097,393.419,212.945,393.419,215.227z"/>
					<path style="fill:#0148A2;" d="M416.887,174.862c0,2.281-1.849,4.131-4.131,4.131c-2.281,0-4.13-1.85-4.13-4.131
						c0-2.281,1.849-4.13,4.13-4.13C415.038,170.731,416.887,172.581,416.887,174.862z"/>
					<path style="fill:#0148A2;" d="M440.354,161.03c0,2.281-1.851,4.131-4.132,4.131c-2.28,0-4.13-1.85-4.13-4.131
						c0-2.282,1.85-4.131,4.13-4.131C438.504,156.899,440.354,158.749,440.354,161.03z"/>
					<path style="fill:#0148A2;" d="M393.42,135.728c0,2.282-1.85,4.132-4.132,4.132c-2.28,0-4.13-1.85-4.13-4.132
						c0-2.281,1.85-4.13,4.13-4.13C391.57,131.598,393.42,133.447,393.42,135.728z"/>
					<path style="fill:#0148A2;" d="M440.354,215.227c0,2.282-1.851,4.13-4.132,4.13c-2.28,0-4.13-1.848-4.13-4.13
						c0-2.282,1.85-4.13,4.13-4.13C438.504,211.097,440.354,212.945,440.354,215.227z"/>
					<path style="fill:#0148A2;" d="M347.558,215.227c0,2.282-1.85,4.13-4.131,4.13c-2.281,0-4.131-1.848-4.131-4.13
						c0-2.282,1.85-4.13,4.131-4.13C345.708,211.097,347.558,212.945,347.558,215.227z"/>
					<path style="fill:#0148A2;" d="M416.887,201.253c0,2.281-1.849,4.131-4.131,4.131c-2.281,0-4.13-1.851-4.13-4.131
						c0-2.281,1.849-4.13,4.13-4.13C415.038,197.123,416.887,198.972,416.887,201.253z"/>
					<path style="fill:#0148A2;" d="M369.951,174.862c0,2.281-1.849,4.131-4.131,4.131c-2.28,0-4.13-1.85-4.13-4.131
						c0-2.281,1.85-4.13,4.13-4.13C368.102,170.731,369.951,172.581,369.951,174.862z"/>
					<path style="fill:#0148A2;" d="M369.951,201.253c0,2.281-1.849,4.131-4.131,4.131c-2.28,0-4.13-1.851-4.13-4.131
						c0-2.281,1.85-4.13,4.13-4.13C368.102,197.123,369.951,198.972,369.951,201.253z"/>
				</g>
			</g>
			<g>
				<g>
					
						<polygon style="fill:none;stroke:#0148A2;stroke-width:2.5;stroke-linecap:round;stroke-linejoin:round;stroke-miterlimit:10;" points="
						133.105,377.728 109.638,391.279 86.17,377.728 86.17,350.631 109.638,337.082 133.105,350.631 					"/>
					
						<line style="fill:none;stroke:#0148A2;stroke-width:2.5;stroke-linecap:round;stroke-linejoin:round;stroke-miterlimit:10;" x1="133.105" y1="350.631" x2="156.572" y2="337.082"/>
					
						<line style="fill:none;stroke:#0148A2;stroke-width:2.5;stroke-linecap:round;stroke-linejoin:round;stroke-miterlimit:10;" x1="156.572" y1="391.279" x2="133.105" y2="377.728"/>
					
						<line style="fill:none;stroke:#0148A2;stroke-width:2.5;stroke-linecap:round;stroke-linejoin:round;stroke-miterlimit:10;" x1="87.246" y1="377.728" x2="63.778" y2="391.279"/>
					
						<line style="fill:none;stroke:#0148A2;stroke-width:2.5;stroke-linecap:round;stroke-linejoin:round;stroke-miterlimit:10;" x1="109.638" y1="311.78" x2="109.638" y2="335.32"/>
				</g>
				<g>
					<path style="fill:#0148A2;" d="M113.769,337.082c0,2.281-1.849,4.131-4.131,4.131c-2.28,0-4.13-1.85-4.13-4.131
						c0-2.281,1.85-4.131,4.13-4.131C111.92,332.951,113.769,334.801,113.769,337.082z"/>
					<path style="fill:#0148A2;" d="M113.769,391.279c0,2.281-1.849,4.13-4.131,4.13c-2.28,0-4.13-1.849-4.13-4.13
						c0-2.282,1.85-4.131,4.13-4.131C111.92,387.148,113.769,388.997,113.769,391.279z"/>
					<path style="fill:#0148A2;" d="M137.236,350.914c0,2.281-1.849,4.131-4.131,4.131c-2.281,0-4.13-1.85-4.13-4.131
						c0-2.281,1.849-4.131,4.13-4.131C135.388,346.783,137.236,348.633,137.236,350.914z"/>
					<path style="fill:#0148A2;" d="M160.704,337.082c0,2.281-1.851,4.131-4.132,4.131c-2.28,0-4.13-1.85-4.13-4.131
						c0-2.281,1.85-4.131,4.13-4.131C158.853,332.951,160.704,334.801,160.704,337.082z"/>
					<path style="fill:#0148A2;" d="M113.769,311.779c0,2.282-1.85,4.133-4.132,4.133c-2.28,0-4.13-1.851-4.13-4.133
						c0-2.28,1.85-4.13,4.13-4.13C111.92,307.649,113.769,309.499,113.769,311.779z"/>
					<path style="fill:#0148A2;" d="M160.704,391.279c0,2.281-1.851,4.13-4.132,4.13c-2.28,0-4.13-1.849-4.13-4.13
						c0-2.282,1.85-4.131,4.13-4.131C158.853,387.148,160.704,388.997,160.704,391.279z"/>
					<path style="fill:#0148A2;" d="M67.907,391.279c0,2.281-1.85,4.13-4.131,4.13c-2.281,0-4.131-1.849-4.131-4.13
						c0-2.282,1.85-4.131,4.131-4.131C66.058,387.148,67.907,388.997,67.907,391.279z"/>
					<path style="fill:#0148A2;" d="M137.236,377.305c0,2.281-1.849,4.131-4.131,4.131c-2.281,0-4.13-1.85-4.13-4.131
						c0-2.281,1.849-4.13,4.13-4.13C135.388,373.175,137.236,375.023,137.236,377.305z"/>
					<path style="fill:#0148A2;" d="M90.301,350.914c0,2.281-1.849,4.131-4.131,4.131c-2.28,0-4.13-1.85-4.13-4.131
						c0-2.281,1.85-4.131,4.13-4.131C88.452,346.783,90.301,348.633,90.301,350.914z"/>
					<path style="fill:#0148A2;" d="M90.301,377.305c0,2.281-1.849,4.131-4.131,4.131c-2.28,0-4.13-1.85-4.13-4.131
						c0-2.281,1.85-4.13,4.13-4.13C88.452,373.175,90.301,375.023,90.301,377.305z"/>
				</g>
			</g>
		</g>
		<g>
			<path style="fill:#A9CCFF;" d="M350.737,171.194c1.285-5.338-1.48-10.397-6.516-11.571c-2.596-0.605-5.314-0.059-7.645,1.309
				c0.102-0.969,0.172-1.947,0.172-2.951c0-12.082-7.557-21.877-16.881-21.877c-7.369,0-13.617,6.128-15.922,14.658
				c-2.986-3.039-6.805-4.66-10.5-4.045c-6.504,1.084-10.172,8.69-8.254,17.032c-1.256-0.633-2.654-0.996-4.135-0.996
				c-4.754,0-8.701,3.641-9.533,8.441H350.737z"/>
			<path style="fill:#A9CCFF;" d="M140.227,280.216c1.285-5.338-1.48-10.397-6.516-11.571c-2.596-0.605-5.314-0.059-7.645,1.309
				c0.102-0.969,0.172-1.947,0.172-2.951c0-12.082-7.557-21.877-16.881-21.877c-7.369,0-13.617,6.128-15.922,14.658
				c-2.986-3.039-6.805-4.66-10.5-4.045c-6.504,1.084-10.172,8.689-8.254,17.032c-1.256-0.633-2.654-0.996-4.135-0.996
				c-4.754,0-8.701,3.641-9.533,8.441H140.227z"/>
			<path style="fill:#A9CCFF;" d="M428.146,395.924c1.285-5.338-1.48-10.397-6.516-11.571c-2.596-0.605-5.315-0.059-7.645,1.309
				c0.102-0.969,0.172-1.947,0.172-2.951c0-12.082-7.557-21.877-16.881-21.877c-7.369,0-13.617,6.128-15.922,14.658
				c-2.986-3.039-6.805-4.66-10.5-4.045c-6.504,1.084-10.172,8.689-8.254,17.032c-1.256-0.633-2.654-0.996-4.135-0.996
				c-4.754,0-8.701,3.641-9.533,8.441H428.146z"/>
			<path style="fill:#A9CCFF;" d="M226.572,117.127c1.285-5.338-1.48-10.398-6.516-11.571c-2.596-0.605-5.315-0.059-7.645,1.309
				c0.102-0.969,0.172-1.947,0.172-2.951c0-12.082-7.557-21.877-16.881-21.877c-7.369,0-13.617,6.128-15.922,14.658
				c-2.986-3.039-6.805-4.66-10.499-4.045c-6.504,1.084-10.172,8.689-8.255,17.032c-1.256-0.633-2.653-0.996-4.135-0.996
				c-4.753,0-8.7,3.641-9.533,8.441H226.572z"/>
		</g>
		<g>
			<path style="fill:#A9CCFF;" d="M363.889,128.247c0,3.454-2.801,6.254-6.254,6.254c-3.455,0-6.254-2.8-6.254-6.254
				c0-3.454,2.799-6.253,6.254-6.253C361.088,121.993,363.889,124.793,363.889,128.247z"/>
			<path style="fill:#A9CCFF;" d="M432.375,332.205c0,3.455-2.801,6.254-6.254,6.254c-3.455,0-6.254-2.799-6.254-6.254
				c0-3.453,2.799-6.253,6.254-6.253C429.574,325.952,432.375,328.752,432.375,332.205z"/>
			<path style="fill:#A9CCFF;" d="M80.134,191.238c0,3.454-2.801,6.254-6.254,6.254c-3.455,0-6.254-2.8-6.254-6.254
				c0-3.454,2.799-6.253,6.254-6.253C77.333,184.984,80.134,187.784,80.134,191.238z"/>
			<path style="fill:#A9CCFF;" d="M80.134,323.715c0,3.454-2.801,6.254-6.254,6.254c-3.455,0-6.254-2.8-6.254-6.254
				s2.799-6.254,6.254-6.254C77.333,317.461,80.134,320.261,80.134,323.715z"/>
			<path style="fill:#A9CCFF;" d="M178.111,147.499c0,2.201-1.785,3.987-3.986,3.987c-2.203,0-3.986-1.786-3.986-3.987
				c0-2.202,1.783-3.986,3.986-3.986C176.326,143.512,178.111,145.296,178.111,147.499z"/>
			<path style="fill:#A9CCFF;" d="M100.778,228.35c0,2.201-1.785,3.987-3.986,3.987c-2.203,0-3.986-1.786-3.986-3.987
				c0-2.202,1.783-3.986,3.986-3.986C98.993,224.364,100.778,226.148,100.778,228.35z"/>
			<path style="fill:#A9CCFF;" d="M187.45,385.815c0,2.201-1.785,3.987-3.986,3.987c-2.203,0-3.986-1.786-3.986-3.987
				c0-2.202,1.783-3.986,3.986-3.986C185.665,381.828,187.45,383.612,187.45,385.815z"/>
			<path style="fill:#A9CCFF;" d="M331.395,393.345c0,2.201-1.785,3.986-3.986,3.986c-2.203,0-3.986-1.785-3.986-3.986
				c0-2.202,1.783-3.986,3.986-3.986C329.609,389.358,331.395,391.143,331.395,393.345z"/>
			<path style="fill:#A9CCFF;" d="M414.387,256.658c0,2.201-1.785,3.987-3.986,3.987c-2.203,0-3.986-1.786-3.986-3.987
				c0-2.202,1.783-3.986,3.986-3.986C412.602,252.672,414.387,254.456,414.387,256.658z"/>
			<path style="fill:#A9CCFF;" d="M289.908,103.567c0,2.201-1.785,3.987-3.986,3.987c-2.203,0-3.986-1.786-3.986-3.987
				c0-2.202,1.783-3.986,3.986-3.986C288.123,99.581,289.908,101.365,289.908,103.567z"/>
		</g>
		<path style="fill:#75A1F9;" d="M441.387,418.526c0,4.872-3.449,8.819-7.704,8.819H66.317c-4.254,0-7.704-3.947-7.704-8.819l0,0
			c0-4.872,3.45-8.819,7.704-8.819h367.365C437.938,409.707,441.387,413.654,441.387,418.526L441.387,418.526z"/>
		<g>
			<path style="fill:#29354A;" d="M420.826,310.17v-13.123h-8.449c-0.543-1.956-1.32-3.814-2.305-5.538l5.982-5.98l-9.279-9.278
				l-5.988,5.985c-1.725-0.977-3.578-1.75-5.529-2.288v-8.47h-13.123v8.47c-1.951,0.538-3.805,1.311-5.531,2.288l-5.988-5.985
				l-9.277,9.278l5.98,5.98c-0.983,1.725-1.76,3.582-2.303,5.538h-8.449v13.123H365c0.537,1.963,1.314,3.825,2.297,5.559
				l-5.959,5.957l9.277,9.28l5.951-5.95c1.736,0.986,3.602,1.768,5.568,2.311v8.408h13.123v-8.408
				c1.967-0.543,3.832-1.324,5.568-2.311l5.949,5.95l9.279-9.28l-5.957-5.957c0.98-1.733,1.758-3.596,2.297-5.559H420.826z
				 M388.695,315.289c-6.434,0-11.652-5.218-11.652-11.652c0-6.436,5.219-11.654,11.652-11.654c6.438,0,11.652,5.218,11.652,11.654
				C400.348,310.071,395.133,315.289,388.695,315.289z"/>
			<path style="fill:#29354A;" d="M363.524,117.658v-13.123h-8.449c-0.543-1.956-1.32-3.813-2.305-5.538l5.982-5.979l-9.279-9.279
				l-5.988,5.986c-1.725-0.977-3.578-1.751-5.529-2.289v-8.47h-13.123v8.47c-1.951,0.538-3.805,1.313-5.531,2.289l-5.988-5.986
				l-9.277,9.279l5.98,5.979c-0.982,1.726-1.76,3.582-2.303,5.538h-8.449v13.123h8.434c0.537,1.963,1.315,3.825,2.297,5.559
				l-5.959,5.957l9.277,9.28l5.951-5.95c1.736,0.986,3.602,1.768,5.568,2.311v8.408h13.123v-8.408
				c1.967-0.543,3.832-1.324,5.568-2.311l5.949,5.95l9.279-9.28l-5.957-5.957c0.98-1.733,1.758-3.596,2.297-5.559H363.524z
				 M331.394,122.777c-6.434,0-11.652-5.218-11.652-11.652c0-6.437,5.219-11.654,11.652-11.654c6.438,0,11.652,5.218,11.652,11.654
				C343.046,117.56,337.831,122.777,331.394,122.777z"/>
			<path style="fill:#29354A;" d="M143.422,244.117v-13.123h-8.45c-0.542-1.956-1.32-3.813-2.304-5.538l5.981-5.98l-9.279-9.279
				l-5.987,5.986c-1.725-0.977-3.578-1.751-5.529-2.288v-8.471H104.73v8.471c-1.951,0.537-3.806,1.312-5.531,2.288l-5.988-5.986
				l-9.277,9.279l5.979,5.98c-0.982,1.725-1.759,3.582-2.302,5.538h-8.449v13.123h8.433c0.537,1.963,1.314,3.825,2.297,5.559
				l-5.958,5.957l9.277,9.28l5.951-5.95c1.735,0.986,3.602,1.768,5.568,2.311v8.408h13.123v-8.408
				c1.966-0.543,3.831-1.324,5.567-2.311l5.949,5.95l9.279-9.28l-5.957-5.957c0.98-1.733,1.758-3.596,2.297-5.559H143.422z
				 M111.291,249.236c-6.435,0-11.652-5.218-11.652-11.652c0-6.436,5.218-11.653,11.652-11.653c6.437,0,11.652,5.217,11.652,11.653
				C122.943,244.019,117.728,249.236,111.291,249.236z"/>
		</g>
		<g>
			<g>
				<rect x="83.219" y="145.685" style="fill:#FC2863;" width="14.799" height="19.892"/>
				<rect x="105.286" y="135.72" style="fill:#FC2863;" width="14.8" height="29.857"/>
				<rect x="126.562" y="125.247" style="fill:#FC2863;" width="14.801" height="40.331"/>
			</g>
			<g>
				<polygon style="fill:#FBD131;" points="140.409,99.88 128.986,101.521 132.137,104.656 115.274,118.537 106.761,111.001 
					83.219,130.427 85.241,132.72 106.688,115.021 115.2,122.555 134.313,106.822 138.072,110.562 				"/>
				<path style="fill:#FBD131;" d="M88.512,131.532c0,2.373-1.924,4.297-4.297,4.297c-2.373,0-4.297-1.924-4.297-4.297
					c0-2.373,1.924-4.297,4.297-4.297C86.588,127.234,88.512,129.159,88.512,131.532z"/>
				<path style="fill:#FBD131;" d="M110.919,113.575c0,2.373-1.924,4.297-4.297,4.297c-2.373,0-4.297-1.924-4.297-4.297
					c0-2.373,1.924-4.297,4.297-4.297C108.996,109.278,110.919,111.202,110.919,113.575z"/>
				<path style="fill:#FBD131;" d="M119.717,119.906c0,2.373-1.923,4.297-4.297,4.297c-2.373,0-4.297-1.924-4.297-4.297
					c0-2.373,1.924-4.297,4.297-4.297C117.794,115.609,119.717,117.533,119.717,119.906z"/>
			</g>
		</g>
		<g>
			<g>
				<g>
					<g>
						
							<rect x="202.14" y="376.682" transform="matrix(-1 -1.224647e-16 1.224647e-16 -1 499.5615 777.6865)" style="fill:#FFFFFF;" width="95.282" height="24.323"/>
						
							<rect x="202.14" y="376.682" transform="matrix(-1 -1.224647e-16 1.224647e-16 -1 499.5615 761.5058)" style="fill:#D7EFF5;" width="95.282" height="8.143"/>
						<path style="fill:#D7EFF5;" d="M201.292,401.005h96.974c11.375,0,20.594,7.844,20.594,17.521H180.704
							C180.704,408.849,189.921,401.005,201.292,401.005z"/>
					</g>
					<g>
						<path style="fill:#FFFFFF;" d="M116.178,376.682h267.641c2.699,0,4.879-2.184,4.879-4.878V189.858
							c0-2.692-2.18-4.873-4.879-4.873H116.178c-2.693,0-4.875,2.182-4.875,4.873v181.946
							C111.303,374.498,113.484,376.682,116.178,376.682z"/>
						<path style="fill:#29354A;" d="M119.058,346.265h261.886c2.689,0,4.875-2.18,4.875-4.874V192.272
							c0-2.693-2.186-4.875-4.875-4.875H119.058c-2.691,0-4.874,2.182-4.874,4.875v149.119
							C114.184,344.085,116.366,346.265,119.058,346.265z"/>
						<path style="fill:#6981F7;" d="M130.082,331.94h239.834c2.348,0,4.256-1.904,4.256-4.251V205.975
							c0-2.35-1.908-4.255-4.256-4.255H130.082c-2.349,0-4.251,1.905-4.251,4.255V327.69
							C125.831,330.036,127.733,331.94,130.082,331.94z"/>
						<path style="fill:#D7EFF5;" d="M256.447,361.002c0,3.682-2.984,6.667-6.667,6.667c-3.682,0-6.667-2.985-6.667-6.667
							c0-3.682,2.985-6.667,6.667-6.667C253.463,354.335,256.447,357.32,256.447,361.002z"/>
					</g>
				</g>
				<g>
					
						<text transform="matrix(1 0 0 1 136.7734 323.7144)" style="fill:#92A9FC; font-family:'RobotoCondensed-Regular'; font-size:24.1436px;">0101001101100110101</text>
					
						<text transform="matrix(1 0 0 1 136.7734 228.3823)" style="fill:#92A9FC; font-family:'RobotoCondensed-Regular'; font-size:24.1436px;">0101001101100110101</text>
					
						<text transform="matrix(1 0 0 1 136.7734 291.1528)" style="fill:#92A9FC; font-family:'RobotoCondensed-Regular'; font-size:24.1436px;">1101010101001101100</text>
					
						<text transform="matrix(1 0 0 1 136.7734 259.8169)" style="fill:#92A9FC; font-family:'RobotoCondensed-Regular'; font-size:24.1436px;">1010011001010101011</text>
				</g>
			</g>
			<g>
				<path style="fill:#29354A;" d="M324.648,211.352c0,41.228-33.422,74.648-74.649,74.648c-41.227,0-74.647-33.42-74.647-74.648
					c0-41.227,33.421-74.648,74.647-74.648C291.227,136.705,324.648,170.126,324.648,211.352z"/>
				<g>
					<g>
						<path style="fill:none;stroke:#FFFFFF;stroke-width:2.5974;stroke-miterlimit:10;" d="M268.032,211.123
							c0,28.47-8.074,51.548-18.033,51.548c-9.959,0-18.031-23.078-18.031-51.548c0-28.471,8.072-51.549,18.031-51.549
							C259.958,159.574,268.032,182.652,268.032,211.123z"/>
						<path style="fill:none;stroke:#FFFFFF;stroke-width:2.5974;stroke-miterlimit:10;" d="M262.75,200.469
							c24.092,20.131,37.914,41.221,30.874,47.104c-7.042,5.885-32.283-5.664-56.376-25.796
							c-24.093-20.132-37.914-41.22-30.872-47.104C213.418,168.788,238.657,180.337,262.75,200.469z"/>
						<path style="fill:none;stroke:#FFFFFF;stroke-width:2.5974;stroke-miterlimit:10;" d="M237.249,200.469
							c-24.091,20.131-37.915,41.221-30.873,47.104c7.042,5.885,32.281-5.664,56.374-25.796
							c24.092-20.132,37.915-41.22,30.874-47.104C286.582,168.788,261.343,180.337,237.249,200.469z"/>
					</g>
					<path style="fill:#FBD131;" d="M259.026,211.121c0,4.987-4.04,9.027-9.027,9.027c-4.986,0-9.025-4.04-9.025-9.027
						c0-4.984,4.039-9.025,9.025-9.025C254.986,202.096,259.026,206.137,259.026,211.121z"/>
					<g>
						<path style="fill:#FC2863;" d="M279.177,176.266c0,2.114-1.714,3.827-3.828,3.827c-2.111,0-3.824-1.713-3.824-3.827
							c0-2.112,1.713-3.826,3.824-3.826C277.463,172.439,279.177,174.153,279.177,176.266z"/>
						<path style="fill:#FC2863;" d="M217,197.939c0,2.113-1.711,3.826-3.825,3.826s-3.829-1.713-3.829-3.826
							c0-2.113,1.715-3.826,3.829-3.826S217,195.826,217,197.939z"/>
						<path style="fill:#FC2863;" d="M262.275,256.658c0,2.114-1.712,3.827-3.826,3.827c-2.113,0-3.826-1.713-3.826-3.827
							c0-2.113,1.713-3.826,3.826-3.826C260.563,252.832,262.275,254.545,262.275,256.658z"/>
					</g>
				</g>
			</g>
			<g>
				<path style="fill:#EBEDEF;" d="M438.283,359.426h-148.67c-0.582,0-1.053-0.471-1.053-1.052V304.66
					c0-0.58,0.471-1.054,1.053-1.054h148.67c0.582,0,1.053,0.474,1.053,1.054v53.714
					C439.336,358.955,438.865,359.426,438.283,359.426z"/>
				<path style="fill:#0148A2;" d="M436.444,357.513H291.453c-0.541,0-0.98-0.438-0.98-0.979V306.5c0-0.541,0.439-0.98,0.98-0.98
					h144.991c0.54,0,0.98,0.44,0.98,0.98v50.033C437.424,357.075,436.984,357.513,436.444,357.513z"/>
				<path style="fill:#EBEDEF;" d="M288.56,304.66v14.488h150.775V304.66c0-0.58-0.471-1.054-1.053-1.054h-148.67
					C289.031,303.606,288.56,304.08,288.56,304.66z"/>
				<g>
					<path style="fill:#FBD131;" d="M419.003,311.426c0,1.028-0.835,1.862-1.865,1.862c-1.026,0-1.86-0.834-1.86-1.862
						c0-1.03,0.834-1.865,1.86-1.865C418.168,309.56,419.003,310.396,419.003,311.426z"/>
					<path style="fill:#FBD131;" d="M426.351,311.426c0,1.028-0.833,1.862-1.863,1.862c-1.028,0-1.862-0.834-1.862-1.862
						c0-1.03,0.834-1.865,1.862-1.865C425.518,309.56,426.351,310.396,426.351,311.426z"/>
					<path style="fill:#FBD131;" d="M433.697,311.426c0,1.028-0.833,1.862-1.864,1.862c-1.027,0-1.86-0.834-1.86-1.862
						c0-1.03,0.833-1.865,1.86-1.865C432.864,309.56,433.697,310.396,433.697,311.426z"/>
				</g>
				<g>
					<rect x="347.361" y="328.902" style="fill:#FC2863;" width="22.878" height="3.342"/>
					<rect x="375.835" y="328.902" style="fill:#6981F7;" width="25.797" height="3.342"/>
					<rect x="375.835" y="336.348" style="fill:#6981F7;" width="36.691" height="3.343"/>
					<rect x="407.227" y="328.902" style="fill:#083273;" width="13.201" height="3.342"/>
					<rect x="347.361" y="343.589" style="fill:#6981F7;" width="22.878" height="3.343"/>
					<rect x="375.835" y="343.589" style="fill:#FC2863;" width="21.623" height="3.343"/>
					<rect x="401.632" y="343.589" style="fill:#FBD131;" width="26.968" height="3.343"/>
					<rect x="347.361" y="336.348" style="fill:#083273;" width="22.878" height="3.343"/>
				</g>
				<g>
					<polyline style="fill:none;stroke:#FBD131;stroke-width:3;stroke-linejoin:round;stroke-miterlimit:10;" points="
						329.103,345.753 336.95,337.901 329.103,330.056 					"/>
					<polyline style="fill:none;stroke:#FBD131;stroke-width:3;stroke-linejoin:round;stroke-miterlimit:10;" points="
						306.195,345.753 298.35,337.901 306.195,330.056 					"/>
					
						<line style="fill:none;stroke:#FBD131;stroke-width:3;stroke-linejoin:round;stroke-miterlimit:10;" x1="321.572" y1="330.056" x2="313.532" y2="346.529"/>
				</g>
			</g>
			<g>
				<path style="fill:#EBEDEF;" d="M131.559,325.501H59.666c-0.582,0-1.053-0.471-1.053-1.052v-53.714
					c0-0.58,0.471-1.054,1.053-1.054h71.893c0.582,0,1.053,0.474,1.053,1.054v53.714
					C132.611,325.03,132.141,325.501,131.559,325.501z"/>
				<path style="fill:#0148A2;" d="M129.72,323.588H61.506c-0.542,0-0.98-0.438-0.98-0.979v-50.033c0-0.541,0.438-0.98,0.98-0.98
					h68.213c0.54,0,0.979,0.44,0.979,0.98v50.033C130.699,323.15,130.26,323.588,129.72,323.588z"/>
				<path style="fill:#EBEDEF;" d="M58.613,270.735v14.488h73.998v-14.488c0-0.58-0.471-1.054-1.053-1.054H59.666
					C59.084,269.682,58.613,270.155,58.613,270.735z"/>
				<g>
					<path style="fill:#FBD131;" d="M112.278,277.501c0,1.028-0.835,1.862-1.865,1.862c-1.026,0-1.86-0.834-1.86-1.862
						c0-1.03,0.834-1.865,1.86-1.865C111.443,275.636,112.278,276.471,112.278,277.501z"/>
					<path style="fill:#FBD131;" d="M119.626,277.501c0,1.028-0.833,1.862-1.863,1.862c-1.028,0-1.862-0.834-1.862-1.862
						c0-1.03,0.834-1.865,1.862-1.865C118.793,275.636,119.626,276.471,119.626,277.501z"/>
					<path style="fill:#FBD131;" d="M126.973,277.501c0,1.028-0.833,1.862-1.864,1.862c-1.027,0-1.86-0.834-1.86-1.862
						c0-1.03,0.833-1.865,1.86-1.865C126.14,275.636,126.973,276.471,126.973,277.501z"/>
				</g>
				<g>
					<rect x="69.11" y="294.978" style="fill:#6981F7;" width="25.797" height="3.342"/>
					<rect x="69.11" y="302.423" style="fill:#6981F7;" width="36.691" height="3.343"/>
					<rect x="100.503" y="294.978" style="fill:#083273;" width="13.201" height="3.342"/>
					<rect x="69.11" y="309.664" style="fill:#FC2863;" width="21.623" height="3.343"/>
					<rect x="94.907" y="309.664" style="fill:#FBD131;" width="26.968" height="3.343"/>
				</g>
			</g>
		</g>
		<g>
			<path style="fill:#EBEDEF;" d="M244.131,126.836h-52.138c-0.564,0-1.021-0.457-1.021-1.021V73.678
				c0-0.564,0.457-1.024,1.021-1.024h52.138c0.564,0,1.021,0.46,1.021,1.024v52.137
				C245.153,126.379,244.696,126.836,244.131,126.836z"/>
			<path style="fill:#0148A2;" d="M242.038,124.663h-47.951c-0.519,0-0.939-0.422-0.939-0.939V75.771c0-0.519,0.421-0.94,0.939-0.94
				h47.951c0.52,0,0.939,0.422,0.939,0.94v47.953C242.977,124.24,242.558,124.663,242.038,124.663z"/>
			<path style="fill:#EBEDEF;" d="M190.972,73.678v14.063h54.181V73.678c0-0.564-0.457-1.024-1.021-1.024h-52.138
				C191.43,72.654,190.972,73.114,190.972,73.678z"/>
			<g>
				<path style="fill:#FBD131;" d="M225.417,80.246c0,0.996-0.812,1.807-1.811,1.807c-0.997,0-1.809-0.811-1.809-1.807
					c0-0.999,0.811-1.811,1.809-1.811C224.605,78.435,225.417,79.246,225.417,80.246z"/>
				<path style="fill:#FBD131;" d="M232.548,80.246c0,0.996-0.809,1.807-1.809,1.807c-0.998,0-1.808-0.811-1.808-1.807
					c0-0.999,0.81-1.811,1.808-1.811C231.739,78.435,232.548,79.246,232.548,80.246z"/>
				<path style="fill:#FBD131;" d="M239.681,80.246c0,0.996-0.809,1.807-1.81,1.807c-0.999,0-1.807-0.811-1.807-1.807
					c0-0.999,0.808-1.811,1.807-1.811C238.872,78.435,239.681,79.246,239.681,80.246z"/>
			</g>
			<g>
				<polyline style="fill:none;stroke:#FBD131;stroke-width:2.705;stroke-linejoin:round;stroke-miterlimit:10;" points="
					227.43,112.579 233.664,106.346 227.43,100.112 				"/>
				<polyline style="fill:none;stroke:#FBD131;stroke-width:2.705;stroke-linejoin:round;stroke-miterlimit:10;" points="
					209.24,112.579 203.008,106.346 209.24,100.112 				"/>
				
					<line style="fill:none;stroke:#FBD131;stroke-width:2.705;stroke-linejoin:round;stroke-miterlimit:10;" x1="221.449" y1="100.112" x2="215.065" y2="113.195"/>
			</g>
		</g>
	</g>
</g>
</svg>
