<?xml version="1.0" encoding="utf-8"?>
<!-- Generator: Adobe Illustrator 27.5.0, SVG Export Plug-In . SVG Version: 6.00 Build 0)  -->
<svg version="1.1" xmlns="http://www.w3.org/2000/svg" xmlns:xlink="http://www.w3.org/1999/xlink" x="0px" y="0px"
	 viewBox="0 0 500 500" style="enable-background:new 0 0 500 500;" xml:space="preserve">
<g id="BACKGROUND">
	
		<linearGradient id="SVGID_1_" gradientUnits="userSpaceOnUse" x1="2.300138e-05" y1="250.0001" x2="500.0001" y2="250.0001" gradientTransform="matrix(-1 0 0 -1 500.0001 500.0001)">
		<stop  offset="0" style="stop-color:#3A49C7"/>
		<stop  offset="1" style="stop-color:#25287B"/>
	</linearGradient>
	<polygon style="fill:url(#SVGID_1_);" points="0,0 500,0 500,500 0,500 	"/>
</g>
<g id="OBJECTS">
	<g>
		
			<linearGradient id="SVGID_00000029045013965116651890000001749346558496327067_" gradientUnits="userSpaceOnUse" x1="92.1455" y1="377.6866" x2="412.0719" y2="377.6866">
			<stop  offset="0.0308" style="stop-color:#00006A"/>
			<stop  offset="1" style="stop-color:#00006A"/>
		</linearGradient>
		
			<ellipse style="opacity:0.3;fill:url(#SVGID_00000029045013965116651890000001749346558496327067_);" cx="252.109" cy="377.687" rx="159.963" ry="16.325"/>
		
			<linearGradient id="SVGID_00000015337031494510098250000014841695054853874831_" gradientUnits="userSpaceOnUse" x1="342.0147" y1="405.4024" x2="421.2731" y2="405.4024">
			<stop  offset="0.0308" style="stop-color:#00006A"/>
			<stop  offset="1" style="stop-color:#00006A"/>
		</linearGradient>
		
			<ellipse style="opacity:0.3;fill:url(#SVGID_00000015337031494510098250000014841695054853874831_);" cx="381.644" cy="405.402" rx="39.629" ry="7.134"/>
		
			<linearGradient id="SVGID_00000099662539486159464870000000176193165667217027_" gradientUnits="userSpaceOnUse" x1="86.5879" y1="403.2665" x2="185.7738" y2="403.2665">
			<stop  offset="0.0308" style="stop-color:#00006A"/>
			<stop  offset="1" style="stop-color:#00006A"/>
		</linearGradient>
		
			<ellipse style="opacity:0.3;fill:url(#SVGID_00000099662539486159464870000000176193165667217027_);" cx="136.181" cy="403.267" rx="49.593" ry="10.001"/>
	</g>
	<g id="Background_00000124143858067030962170000003459485905055262860_" style="opacity:0.7;">
		
			<linearGradient id="Background_00000073714609069786809460000010459530440408531899_" gradientUnits="userSpaceOnUse" x1="230.5111" y1="466.4891" x2="317.4735" y2="148.2678" gradientTransform="matrix(0.97 -0.0473 0.0487 0.9988 -11.3399 -78.9034)">
			<stop  offset="0" style="stop-color:#3E51C9;stop-opacity:0.67"/>
			<stop  offset="0.1086" style="stop-color:#4456CB;stop-opacity:0.67"/>
			<stop  offset="0.2468" style="stop-color:#5364CF;stop-opacity:0.67"/>
			<stop  offset="0.4011" style="stop-color:#6D7CD6;stop-opacity:0.67"/>
			<stop  offset="0.567" style="stop-color:#929DE0;stop-opacity:0.67"/>
			<stop  offset="0.7423" style="stop-color:#C1C7EE;stop-opacity:0.67"/>
			<stop  offset="0.9229" style="stop-color:#F9F9FD;stop-opacity:0.67"/>
			<stop  offset="0.9412" style="stop-color:#FFFFFF;stop-opacity:0.67"/>
		</linearGradient>
		
			<path id="Background_00000150103854038677434350000016994220511700853120_" style="fill:url(#Background_00000073714609069786809460000010459530440408531899_);" d="
			M89.925,341.475c-22.466-36.277-0.26-69.476,7.727-92.032c15.338-43.317,0.195-52.542,2.745-92.305
			c3.078-48.005,51.659-59.297,91.598-37.962c22.552,12.047,47.638,41.272,70.489,24.977c32.659-23.289,68.289-34.65,92.27-13.217
			c18.298,16.353,10.518,39.575,32.823,70.436c12.746,17.635,29.708,35.152,39.011,66.6c5.818,19.667,9.894,49.202-7.755,73.605
			L89.925,341.475z"/>
	</g>
	
		<linearGradient id="SVGID_00000129178830252976418610000008594666774566202000_" gradientUnits="userSpaceOnUse" x1="68.5456" y1="341.7481" x2="435.6718" y2="341.7481">
		<stop  offset="0" style="stop-color:#93FFFF"/>
		<stop  offset="1" style="stop-color:#98D2FC"/>
	</linearGradient>
	
		<line style="fill:none;stroke:url(#SVGID_00000129178830252976418610000008594666774566202000_);stroke-miterlimit:10;" x1="68.546" y1="341.748" x2="435.672" y2="341.748"/>
	
		<linearGradient id="_x3C_Path_x3E__00000096764678319050778900000000938686275080453022_" gradientUnits="userSpaceOnUse" x1="344.1557" y1="170.8755" x2="408.8258" y2="170.8755" gradientTransform="matrix(0.9717 -0.2363 0.2363 0.9717 -29.5867 93.4942)">
		<stop  offset="0.6886" style="stop-color:#D6E5FF"/>
		<stop  offset="0.9861" style="stop-color:#ECF3FF"/>
	</linearGradient>
	
		<path id="_x3C_Path_x3E__00000059293191415157330770000002740961275620742818_" style="fill:url(#_x3C_Path_x3E__00000096764678319050778900000000938686275080453022_);" d="
		M406.464,166.367l-2.734-0.049c-1.365-0.025-2.587-0.917-2.956-2.231c-0.489-1.743-1.164-3.41-2-4.978
		c-0.653-1.224-0.383-2.737,0.615-3.7l2.153-2.077c1.252-1.208,1.288-3.201,0.08-4.453l-2.596-2.691
		c-1.208-1.252-3.201-1.288-4.453-0.08l-2.278,2.198c-0.993,0.958-2.499,1.206-3.712,0.548c-1.654-0.897-3.421-1.614-5.276-2.122
		c-1.363-0.373-2.274-1.661-2.249-3.074l0.043-2.415c0.031-1.739-1.353-3.174-3.092-3.205l-3.739-0.067
		c-1.739-0.031-3.174,1.353-3.205,3.092l-0.056,3.111c-0.024,1.359-0.928,2.52-2.217,2.951c-1.469,0.49-2.877,1.114-4.212,1.856
		c-1.175,0.653-2.625,0.546-3.644-0.332l-3.169-2.728c-1.318-1.135-3.307-0.986-4.441,0.332l-2.439,2.834
		c-1.135,1.318-0.986,3.307,0.332,4.441l2.465,2.122c1.093,0.941,1.419,2.51,0.759,3.792c-0.62,1.206-1.146,2.47-1.566,3.782
		c-0.416,1.3-1.669,2.15-3.034,2.125l-2.734-0.049c-1.739-0.031-3.174,1.353-3.205,3.092l-0.067,3.739
		c-0.031,1.739,1.353,3.174,3.092,3.205l2.716,0.049c1.373,0.025,2.605,0.921,2.978,2.243c0.281,0.997,0.623,1.969,1.021,2.912
		c0.569,1.347,0.105,2.907-1.086,3.755l-1.802,1.282c-1.417,1.008-1.749,2.974-0.741,4.392l2.167,3.047
		c1.008,1.417,2.974,1.749,4.392,0.741l2.783-1.98c1.079-0.768,2.507-0.755,3.613-0.026c1.547,1.019,3.214,1.871,4.976,2.53
		c1.272,0.476,2.134,1.667,2.109,3.025l-0.056,3.114c-0.031,1.739,1.353,3.174,3.092,3.205l3.739,0.067
		c1.739,0.031,3.174-1.353,3.205-3.092l0.043-2.415c0.025-1.414,0.983-2.667,2.359-2.992c1.862-0.439,3.644-1.087,5.321-1.917
		c1.232-0.61,2.723-0.308,3.678,0.681l2.235,2.317c1.207,1.252,3.201,1.288,4.453,0.08l2.691-2.596
		c1.252-1.208,1.288-3.201,0.08-4.453l-2.095-2.172c-0.964-0.999-1.179-2.523-0.48-3.723c0.9-1.546,1.64-3.197,2.195-4.932
		c0.416-1.3,1.671-2.148,3.036-2.123l2.732,0.049c1.739,0.031,3.174-1.353,3.205-3.092l0.067-3.738
		C409.587,167.833,408.203,166.398,406.464,166.367z M376.398,187.454c-9.169-0.165-16.469-7.731-16.304-16.901
		c0.165-9.169,7.731-16.469,16.9-16.304c9.169,0.165,16.469,7.731,16.304,16.901C393.134,180.319,385.567,187.619,376.398,187.454z"
		/>
	<g>
		<g id="_x3C_Group_x3E__00000129189239097836037190000007050095679799202437_">
			
				<linearGradient id="_x3C_Path_x3E__00000026849834827811964350000018225334336841528202_" gradientUnits="userSpaceOnUse" x1="-191.377" y1="265.1084" x2="-109.0137" y2="345.8614" gradientTransform="matrix(-0.9433 -0.3319 -0.3319 0.9433 335.2423 2.5993)">
				<stop  offset="0" style="stop-color:#98D2FC"/>
				<stop  offset="1" style="stop-color:#1A2E9D"/>
			</linearGradient>
			
				<path id="_x3C_Path_x3E__00000127004766677986551730000003523047634743146890_" style="fill:url(#_x3C_Path_x3E__00000026849834827811964350000018225334336841528202_);" d="
				M345.871,368.898c0,0,4.858-55.791,39.684-57.052c34.826-1.26,45.903,9.931,50.479,12.2c4.576,2.268-8.072,3.825-19.414,13.289
				c-11.342,9.465-12.253,22.313-36.321,24.632c-24.067,2.319-34.288,19.103-34.288,19.103L345.871,368.898z"/>
			
				<path id="_x3C_Path_x3E__00000111154163654685330060000017324678429827178412_" style="fill:none;stroke:#1A2E9D;stroke-width:1.0039;stroke-linecap:round;stroke-miterlimit:10;" d="
				M346.011,381.07c0,0,15.606-56.391,69.285-54.48"/>
		</g>
		<g id="_x3C_Group_x3E__00000057841454533619677480000010332105292027553204_">
			
				<linearGradient id="_x3C_Path_x3E__00000170963269750264065100000013310520991507991743_" gradientUnits="userSpaceOnUse" x1="-179.956" y1="255.6543" x2="-78.5264" y2="273.5107" gradientTransform="matrix(-1 -0.0077 -0.0077 1 230.5352 37.1118)">
				<stop  offset="0.1302" style="stop-color:#98D2FC"/>
				<stop  offset="1" style="stop-color:#1A2E9D"/>
			</linearGradient>
			
				<path id="_x3C_Path_x3E__00000023249338477839663100000012025947548543048616_" style="fill:url(#_x3C_Path_x3E__00000170963269750264065100000013310520991507991743_);" d="
				M356.417,327.055c0,0-12.068-48.527,16.98-59.686c29.048-11.159,41.647-4.917,46.169-4.328c4.522,0.59-5.708,5.57-12.544,16.851
				c-6.836,11.281-3.881,22.397-23.536,31.331c-19.654,8.934-23.421,26.072-23.421,26.072L356.417,327.055z"/>
			
				<path id="_x3C_Path_x3E__00000169522446785322816250000014805843895233261489_" style="fill:none;stroke:#1A2E9D;stroke-width:1.0039;stroke-linecap:round;stroke-miterlimit:10;" d="
				M360.064,337.295c0,0-3.165-52.149,42.725-66.094"/>
		</g>
	</g>
	<g>
		
			<linearGradient id="SVGID_00000165926705562832550880000004716006649319923884_" gradientUnits="userSpaceOnUse" x1="88.2878" y1="202.3665" x2="228.5077" y2="202.3665" gradientTransform="matrix(0.9559 -0.2936 0.2936 0.9559 -50.1631 54.8628)">
			<stop  offset="0.2829" style="stop-color:#D6E5FF"/>
			<stop  offset="0.8425" style="stop-color:#ECF3FF"/>
		</linearGradient>
		<path style="fill:url(#SVGID_00000165926705562832550880000004716006649319923884_);" d="M224.699,188.862l-5.923,0.246
			c-2.957,0.122-5.717-1.652-6.685-4.448c-1.284-3.709-2.958-7.23-4.97-10.516c-1.571-2.565-1.182-5.874,0.855-8.087l4.392-4.772
			c2.554-2.775,2.375-7.094-0.4-9.648l-5.965-5.49c-2.775-2.554-7.095-2.375-9.648,0.4l-4.648,5.05
			c-2.025,2.201-5.254,2.932-7.964,1.665c-3.695-1.728-7.612-3.052-11.692-3.913c-2.999-0.632-5.136-3.301-5.263-6.364l-0.217-5.232
			c-0.156-3.768-3.337-6.695-7.105-6.539l-8.1,0.336c-3.768,0.156-6.696,3.337-6.539,7.105l0.28,6.74
			c0.122,2.945-1.683,5.574-4.418,6.672c-3.116,1.25-6.083,2.781-8.876,4.559c-2.46,1.566-5.61,1.519-7.929-0.249l-7.21-5.496
			c-2.999-2.286-7.284-1.708-9.57,1.291l-4.915,6.447c-2.286,2.999-1.708,7.283,1.291,9.57l5.608,4.275
			c2.487,1.896,3.393,5.249,2.131,8.11c-1.188,2.691-2.162,5.494-2.903,8.387c-0.733,2.868-3.335,4.868-6.293,4.991l-5.924,0.246
			c-3.768,0.157-6.696,3.338-6.539,7.105l0.336,8.1c0.156,3.768,3.338,6.696,7.105,6.539l5.885-0.244
			c2.976-0.123,5.756,1.658,6.733,4.47c0.737,2.122,1.603,4.181,2.586,6.171c1.404,2.842,0.601,6.279-1.868,8.266l-3.735,3.006
			c-2.938,2.364-3.403,6.663-1.038,9.601l5.083,6.315c2.364,2.938,6.663,3.403,9.601,1.038l5.769-4.643
			c2.236-1.8,5.328-1.956,7.815-0.522c3.479,2.006,7.196,3.635,11.096,4.834c2.815,0.866,4.832,3.332,4.954,6.275l0.28,6.747
			c0.156,3.768,3.337,6.696,7.105,6.539l8.1-0.336c3.768-0.156,6.696-3.338,6.539-7.105l-0.217-5.233
			c-0.127-3.064,1.784-5.899,4.721-6.778c3.973-1.189,7.747-2.822,11.27-4.835c2.588-1.479,5.854-1.018,8.048,1.001l5.136,4.727
			c2.775,2.554,7.094,2.375,9.648-0.4l5.49-5.965c2.554-2.775,2.375-7.095-0.4-9.648l-4.815-4.431
			c-2.215-2.039-2.877-5.308-1.519-7.995c1.749-3.461,3.138-7.131,4.116-10.958c0.733-2.868,3.339-4.863,6.297-4.986l5.92-0.246
			c3.768-0.156,6.696-3.338,6.539-7.105l-0.336-8.1C231.648,191.634,228.467,188.706,224.699,188.862z M172.561,240.605
			c-21.431,6.57-44.131-5.477-50.701-26.909c-6.57-21.431,5.476-44.131,26.908-50.701c21.431-6.57,44.131,5.477,50.702,26.908
			C206.039,211.334,193.992,234.034,172.561,240.605z"/>
		
			<linearGradient id="SVGID_00000051375530137107135440000016274598508009948300_" gradientUnits="userSpaceOnUse" x1="124.4882" y1="202.3666" x2="192.3073" y2="202.3666" gradientTransform="matrix(0.9559 -0.2936 0.2936 0.9559 -50.1631 54.8628)">
			<stop  offset="0.2829" style="stop-color:#D6E5FF"/>
			<stop  offset="0.8425" style="stop-color:#ECF3FF"/>
		</linearGradient>
		<path style="fill:url(#SVGID_00000051375530137107135440000016274598508009948300_);" d="M150.709,169.385
			c-17.873,5.489-27.949,24.497-22.46,42.37c5.489,17.873,24.497,27.948,42.37,22.459c17.873-5.489,27.948-24.496,22.459-42.369
			C187.589,173.971,168.583,163.896,150.709,169.385z M169.019,229.003c-15,4.607-30.952-3.848-35.559-18.848
			c-4.607-15,3.849-30.952,18.849-35.559c15-4.607,30.951,3.85,35.558,18.85C192.474,208.445,184.019,224.396,169.019,229.003z"/>
	</g>
	<g>
		
			<linearGradient id="_x3C_Rectangle_x3E__00000128486925228634298330000006616695636821364614_" gradientUnits="userSpaceOnUse" x1="108.8759" y1="360.7575" x2="396.2862" y2="360.7575">
			<stop  offset="0" style="stop-color:#ECF3FF"/>
			<stop  offset="0.8551" style="stop-color:#D6E5FF"/>
		</linearGradient>
		
			<path id="_x3C_Rectangle_x3E__00000157989505756529922800000007193738108316737417_" style="fill:url(#_x3C_Rectangle_x3E__00000128486925228634298330000006616695636821364614_);" d="
			M394.044,376.868H111.129c-2.119,0-3.062-2.663-1.416-3.997l34.832-28.225H361.02l34.443,28.253
			C397.088,374.233,396.146,376.868,394.044,376.868z"/>
		
			<linearGradient id="_x3C_Rectangle_x3E__00000031898697406093319450000014482460131654907555_" gradientUnits="userSpaceOnUse" x1="139.9554" y1="227.1592" x2="340.1835" y2="310.3298">
			<stop  offset="0.0763" style="stop-color:#25287B"/>
			<stop  offset="0.9582" style="stop-color:#3A49C7"/>
		</linearGradient>
		
			<path id="_x3C_Rectangle_x3E__00000034071344561738930020000001173730845379049358_" style="fill:url(#_x3C_Rectangle_x3E__00000031898697406093319450000014482460131654907555_);" d="
			M361.02,344.647H144.545v-136.92c0-3.576,2.899-6.475,6.475-6.475h203.525c3.576,0,6.475,2.899,6.475,6.475V344.647z"/>
		
			<linearGradient id="_x3C_Rectangle_x3E__00000127038787585491689110000008804112175052015776_" gradientUnits="userSpaceOnUse" x1="108.8757" y1="378.8738" x2="396.2863" y2="378.8738">
			<stop  offset="0" style="stop-color:#3359FA"/>
			<stop  offset="0.9329" style="stop-color:#5587F6"/>
		</linearGradient>
		
			<path id="_x3C_Rectangle_x3E__00000001622146242837502340000011585455567378660789_" style="fill:url(#_x3C_Rectangle_x3E__00000127038787585491689110000008804112175052015776_);" d="
			M396.188,375.202c-0.245,0.907-1.019,1.666-2.145,1.666H111.129c-1.139,0-1.919-0.774-2.159-1.692
			c-0.057,0.169-0.095,0.348-0.095,0.536v5.128c0,0.956,0.775,1.732,1.732,1.732h283.947c0.956,0,1.732-0.775,1.732-1.732v-5.085
			C396.286,375.561,396.247,375.377,396.188,375.202z"/>
		
			<linearGradient id="_x3C_Rectangle_x3E__00000119100008010069207320000005421361905065378715_" gradientUnits="userSpaceOnUse" x1="216.605" y1="377.9442" x2="281.7889" y2="377.9442">
			<stop  offset="0" style="stop-color:#ECF3FF"/>
			<stop  offset="0.8551" style="stop-color:#D6E5FF"/>
		</linearGradient>
		
			<path id="_x3C_Rectangle_x3E__00000109011962082445961760000013130050648475754906_" style="fill:url(#_x3C_Rectangle_x3E__00000119100008010069207320000005421361905065378715_);" d="
			M279.586,379.046h-60.87c-1.166,0-2.111-0.945-2.111-2.111v-0.091h65.184l0,0C281.789,378.059,280.803,379.046,279.586,379.046z"
			/>
		
			<linearGradient id="_x3C_Rectangle_x3E__00000045593950483828926840000014373935601694975902_" gradientUnits="userSpaceOnUse" x1="146.1435" y1="355.2961" x2="360.6171" y2="355.2961">
			<stop  offset="0" style="stop-color:#3359FA"/>
			<stop  offset="0.9329" style="stop-color:#5587F6"/>
		</linearGradient>
		
			<path id="_x3C_Rectangle_x3E__00000139972972914990463730000014376113029010971525_" style="fill:url(#_x3C_Rectangle_x3E__00000045593950483828926840000014373935601694975902_);" d="
			M155.894,349.835h194.743c0.297,0,0.583,0.116,0.796,0.325l8.84,8.647c0.729,0.713,0.224,1.951-0.796,1.951H147.284
			c-1.013,0-1.521-1.223-0.806-1.941l8.61-8.647C155.301,349.955,155.591,349.835,155.894,349.835z"/>
		
			<linearGradient id="_x3C_Rectangle_x3E__00000153678146286849512450000007586649283790525629_" gradientUnits="userSpaceOnUse" x1="218.387" y1="369.179" x2="281.1763" y2="369.179">
			<stop  offset="0" style="stop-color:#3359FA"/>
			<stop  offset="0.9329" style="stop-color:#5587F6"/>
		</linearGradient>
		
			<path id="_x3C_Rectangle_x3E__00000050649884017364097560000000396161779194344332_" style="fill:url(#_x3C_Rectangle_x3E__00000153678146286849512450000007586649283790525629_);" d="
			M280.122,373.431h-60.681c-0.834,0-1.337-0.924-0.884-1.624l4.137-6.399c0.194-0.3,0.527-0.481,0.884-0.481h53.499
			c0.406,0,0.776,0.234,0.951,0.6l3.044,6.399C281.405,372.625,280.896,373.431,280.122,373.431z"/>
		
			<linearGradient id="SVGID_00000080914981201145401740000001331493704502197653_" gradientUnits="userSpaceOnUse" x1="206.8583" y1="391.5386" x2="289.3945" y2="177.2023">
			<stop  offset="0" style="stop-color:#8093F9"/>
			<stop  offset="1" style="stop-color:#8CDCFD"/>
		</linearGradient>
		<path style="fill:url(#SVGID_00000080914981201145401740000001331493704502197653_);" d="M345.906,335.222h-186.65
			c-2.612,0-4.729-2.117-4.729-4.729V215.111c0-2.612,2.117-4.729,4.729-4.729h186.651c2.612,0,4.729,2.117,4.729,4.729v115.382
			C350.635,333.105,348.518,335.222,345.906,335.222z"/>
	</g>
	<g>
		<g>
			
				<linearGradient id="SVGID_00000014630980100558602520000007969106518657748133_" gradientUnits="userSpaceOnUse" x1="556.2017" y1="115.491" x2="633.5062" y2="115.491" gradientTransform="matrix(-1 0 0 -1 727.6735 369.3989)">
				<stop  offset="0" style="stop-color:#5587F6"/>
				<stop  offset="0.3971" style="stop-color:#4A78F7"/>
				<stop  offset="0.9993" style="stop-color:#3359FA"/>
			</linearGradient>
			<path style="fill:url(#SVGID_00000014630980100558602520000007969106518657748133_);" d="M98.168,224.386h69.304
				c2.209,0,4,1.791,4,4.001v51.043c0,2.209-1.791,4-4,4H98.168c-2.209,0-4.001-1.791-4.001-4v-51.043
				C94.167,226.177,95.958,224.386,98.168,224.386z"/>
		</g>
		<g id="Board_1_Part_00000100371392593680281690000015358019611766866311_">
			<g id="Board_1_Part_00000046302316671248573950000013888723861416466319_">
				
					<linearGradient id="Board_1_Part_00000048474712510381839760000011997630902038325129_" gradientUnits="userSpaceOnUse" x1="125.729" y1="254.6689" x2="138.7817" y2="254.6689">
					<stop  offset="0" style="stop-color:#E4A64B"/>
					<stop  offset="0.2328" style="stop-color:#E8BA59"/>
					<stop  offset="0.5887" style="stop-color:#EED26A"/>
					<stop  offset="0.8069" style="stop-color:#F0DB70"/>
				</linearGradient>
				
					<path id="Board_1_Part_00000051349284937013117020000018350104424887730077_" style="fill:url(#Board_1_Part_00000048474712510381839760000011997630902038325129_);" d="
					M126.719,270.441c-0.116,0-0.232-0.019-0.348-0.064c-0.511-0.191-0.771-0.762-0.578-1.274l11.073-29.561
					c0.191-0.512,0.754-0.779,1.274-0.578c0.51,0.192,0.771,0.762,0.578,1.274l-11.073,29.56
					C127.496,270.195,127.119,270.441,126.719,270.441z"/>
			</g>
		</g>
		<g id="Board_1_Part_00000101071399682039863630000016767479586105391037_">
			
				<linearGradient id="Board_1_Part_00000148640038082751545460000008428213803792958851_" gradientUnits="userSpaceOnUse" x1="103.5536" y1="255.1286" x2="122.2905" y2="255.1286">
				<stop  offset="0" style="stop-color:#E4A64B"/>
				<stop  offset="0.2328" style="stop-color:#E8BA59"/>
				<stop  offset="0.5887" style="stop-color:#EED26A"/>
				<stop  offset="0.8069" style="stop-color:#F0DB70"/>
			</linearGradient>
			
				<path id="Board_1_Part_00000133513661721786742220000016210289727295494533_" style="fill:url(#Board_1_Part_00000148640038082751545460000008428213803792958851_);" d="
				M121.3,262.888c-0.128,0-0.255-0.023-0.379-0.076l-17.022-7.072c-0.457-0.19-0.462-0.836-0.007-1.033l16.79-7.257
				c0.499-0.217,1.083,0.012,1.301,0.516c0.217,0.501-0.014,1.085-0.516,1.301l-12.502,5.405c-0.454,0.196-0.449,0.842,0.008,1.032
				l12.707,5.277c0.506,0.211,0.744,0.789,0.536,1.294C122.056,262.658,121.689,262.888,121.3,262.888z"/>
		</g>
		<g id="Board_1_Part">
			
				<linearGradient id="Board_1_Part_00000176008370909699040390000017062074694640951743_" gradientUnits="userSpaceOnUse" x1="-404.3325" y1="255.1286" x2="-385.5956" y2="255.1286" gradientTransform="matrix(-1 0 0 1 -244.3788 0)">
				<stop  offset="0" style="stop-color:#E4A64B"/>
				<stop  offset="0.2328" style="stop-color:#E8BA59"/>
				<stop  offset="0.5887" style="stop-color:#EED26A"/>
				<stop  offset="0.8069" style="stop-color:#F0DB70"/>
			</linearGradient>
			
				<path id="Board_1_Part_00000176042826991421352750000016106387947827434682_" style="fill:url(#Board_1_Part_00000176008370909699040390000017062074694640951743_);" d="
				M142.207,262.888c0.128,0,0.255-0.023,0.379-0.076l17.022-7.072c0.458-0.19,0.462-0.836,0.007-1.033l-16.79-7.257
				c-0.499-0.217-1.083,0.012-1.301,0.516c-0.217,0.501,0.013,1.085,0.516,1.301l12.501,5.405c0.454,0.196,0.449,0.842-0.008,1.032
				l-12.707,5.277c-0.506,0.211-0.744,0.789-0.535,1.294C141.451,262.658,141.818,262.888,142.207,262.888z"/>
		</g>
	</g>
	<g>
		
			<linearGradient id="Lock_Part_00000061429883194944190350000007806788130236888760_" gradientUnits="userSpaceOnUse" x1="353.6427" y1="345.1106" x2="398.7145" y2="345.1106" gradientTransform="matrix(-1 0 0 1 756.5745 0)">
			<stop  offset="0" style="stop-color:#3A49C7"/>
			<stop  offset="1" style="stop-color:#25287B"/>
		</linearGradient>
		
			<path id="Lock_Part_00000096041439048185553840000005459005117931668155_" style="fill:url(#Lock_Part_00000061429883194944190350000007806788130236888760_);" d="
			M402.673,358.39h-8.681c0.07-0.628,0.172-1.247,0.172-1.896c0-8.482-6.176-15.382-13.767-15.382
			c-7.592,0-13.768,6.9-13.768,15.382c0,0.649,0.102,1.268,0.172,1.896h-8.682c-0.06,0-0.11,0.031-0.168,0.036
			c-0.046-0.64-0.09-1.28-0.09-1.932c0-13.619,10.109-24.699,22.536-24.699c12.426,0,22.536,11.08,22.536,24.699
			c0,0.652-0.044,1.293-0.089,1.932C402.783,358.422,402.733,358.39,402.673,358.39z"/>
		
			<linearGradient id="SVGID_00000154396268949819793710000017120860443022610862_" gradientUnits="userSpaceOnUse" x1="360.9177" y1="390.7023" x2="404.4568" y2="368.9715">
			<stop  offset="0" style="stop-color:#E4A64B"/>
			<stop  offset="0.2328" style="stop-color:#E8BA59"/>
			<stop  offset="0.5887" style="stop-color:#EED26A"/>
			<stop  offset="0.8069" style="stop-color:#F0DB70"/>
		</linearGradient>
		<path style="fill:url(#SVGID_00000154396268949819793710000017120860443022610862_);" d="M401.612,405.311H359.18
			c-1.72,0-3.114-1.394-3.114-3.114v-42.432c0-1.72,1.394-3.114,3.114-3.114h42.432c1.72,0,3.114,1.394,3.114,3.114v42.432
			C404.726,403.917,403.332,405.311,401.612,405.311z"/>
		
			<linearGradient id="Lock_Part_00000147898932333142727250000003732887316926797734_" gradientUnits="userSpaceOnUse" x1="-921.6105" y1="380.0064" x2="-912.7814" y2="380.0064" gradientTransform="matrix(1 0 0 1 1297.5919 0)">
			<stop  offset="0" style="stop-color:#3A49C7"/>
			<stop  offset="1" style="stop-color:#25287B"/>
		</linearGradient>
		
			<path id="Lock_Part_00000054223669640316419460000005235004196876940718_" style="fill:url(#Lock_Part_00000147898932333142727250000003732887316926797734_);" d="
			M384.811,374.607c0-2.714-2.448-4.855-5.256-4.337c-1.7,0.314-3.107,1.671-3.469,3.362c-0.477,2.228,0.729,4.249,2.584,5.038
			v9.568c0,0.874,0.709,1.583,1.583,1.583h0.229c0.906,0,1.64-0.734,1.64-1.639v-9.511
			C383.702,377.997,384.811,376.432,384.811,374.607z"/>
	</g>
	<g>
		
			<linearGradient id="_x3C_Rectangle_x3E__00000109013732831050014920000017331497544876979881_" gradientUnits="userSpaceOnUse" x1="187.3262" y1="235.0894" x2="381.9247" y2="234.6264">
			<stop  offset="0" style="stop-color:#D6E5FF"/>
			<stop  offset="0.306" style="stop-color:#DEEAFF"/>
			<stop  offset="1" style="stop-color:#ECF3FF"/>
		</linearGradient>
		
			<path id="_x3C_Rectangle_x3E__00000139992963100842699270000010933521496640963004_" style="fill:url(#_x3C_Rectangle_x3E__00000109013732831050014920000017331497544876979881_);" d="
			M373.152,308.678H198.722c-5.75,0-10.411-4.661-10.411-10.411V171.443c0-5.75,4.661-10.411,10.411-10.411h174.431
			c5.75,0,10.411,4.661,10.411,10.411v126.823C383.564,304.017,378.902,308.678,373.152,308.678z"/>
		
			<linearGradient id="_x3C_Rectangle_x3E__00000121265481639245654620000017112769527676367781_" gradientUnits="userSpaceOnUse" x1="168.6196" y1="185.5489" x2="329.1679" y2="171.7538" gradientTransform="matrix(-1 0 0 1 567.6566 0)">
			<stop  offset="0" style="stop-color:#3A49C7"/>
			<stop  offset="1" style="stop-color:#25287B"/>
		</linearGradient>
		
			<path id="_x3C_Rectangle_x3E__00000017511330452097402370000008952645455034994093_" style="fill:url(#_x3C_Rectangle_x3E__00000121265481639245654620000017112769527676367781_);" d="
			M188.31,189.774h195.254v-18.331c0-5.75-4.661-10.411-10.411-10.411H198.722c-5.75,0-10.411,4.661-10.411,10.411V189.774z"/>
		<circle style="fill:#F7F5FC;" cx="369.461" cy="175.876" r="2.233"/>
		<path style="fill:#F7F5FC;" d="M363.01,175.876c0,1.233-1,2.233-2.233,2.233s-2.233-1-2.233-2.233c0-1.234,1-2.233,2.233-2.233
			S363.01,174.643,363.01,175.876z"/>
		<circle style="fill:#F7F5FC;" cx="352.133" cy="175.876" r="2.233"/>
		
			<linearGradient id="SVGID_00000003099768329481079960000000932150717880635806_" gradientUnits="userSpaceOnUse" x1="205.9063" y1="209.5696" x2="239.8914" y2="206.6495" gradientTransform="matrix(-1 0 0 1 463.748 0)">
			<stop  offset="0" style="stop-color:#3A49C7"/>
			<stop  offset="1" style="stop-color:#25287B"/>
		</linearGradient>
		<path style="fill:url(#SVGID_00000003099768329481079960000000932150717880635806_);" d="M214.888,209.255h38.188
			c0.959,0,1.736-0.777,1.736-1.736l0,0c0-0.959-0.777-1.736-1.736-1.736h-38.188c-0.959,0-1.736,0.777-1.736,1.736l0,0
			C213.153,208.478,213.93,209.255,214.888,209.255z"/>
		
			<linearGradient id="SVGID_00000089574354246856103740000006470455291837053106_" gradientUnits="userSpaceOnUse" x1="211.6345" y1="222.7606" x2="228.6323" y2="221.3">
			<stop  offset="0" style="stop-color:#5587F6"/>
			<stop  offset="1" style="stop-color:#3359FA"/>
		</linearGradient>
		<path style="fill:url(#SVGID_00000089574354246856103740000006470455291837053106_);" d="M232.247,223.471h-17.358
			c-0.959,0-1.736-0.777-1.736-1.736l0,0c0-0.959,0.777-1.736,1.736-1.736h17.358c0.959,0,1.736,0.777,1.736,1.736l0,0
			C233.983,222.694,233.206,223.471,232.247,223.471z"/>
		
			<linearGradient id="SVGID_00000167360487531867318430000002695150677295520166_" gradientUnits="userSpaceOnUse" x1="235.5007" y1="224.0547" x2="273.0893" y2="220.8249">
			<stop  offset="0" style="stop-color:#E4A64B"/>
			<stop  offset="0.2328" style="stop-color:#E8BA59"/>
			<stop  offset="0.5887" style="stop-color:#EED26A"/>
			<stop  offset="0.8069" style="stop-color:#F0DB70"/>
		</linearGradient>
		<path style="fill:url(#SVGID_00000167360487531867318430000002695150677295520166_);" d="M283.193,223.523h-42.607
			c-0.959,0-1.736-0.777-1.736-1.736l0,0c0-0.959,0.777-1.736,1.736-1.736h42.607c0.959,0,1.736,0.777,1.736,1.736l0,0
			C284.929,222.746,284.152,223.523,283.193,223.523z"/>
		
			<linearGradient id="SVGID_00000075876785709172402220000015929811589982541967_" gradientUnits="userSpaceOnUse" x1="219.2464" y1="230.8676" x2="230.6666" y2="229.8863">
			<stop  offset="0" style="stop-color:#E4A64B"/>
			<stop  offset="0.2328" style="stop-color:#E8BA59"/>
			<stop  offset="0.5887" style="stop-color:#EED26A"/>
			<stop  offset="0.8069" style="stop-color:#F0DB70"/>
		</linearGradient>
		<path style="fill:url(#SVGID_00000075876785709172402220000015929811589982541967_);" d="M232.523,231.915h-10.519
			c-0.959,0-1.736-0.777-1.736-1.736l0,0c0-0.959,0.777-1.736,1.736-1.736h10.519c0.959,0,1.736,0.777,1.736,1.736l0,0
			C234.259,231.137,233.482,231.915,232.523,231.915z"/>
		
			<linearGradient id="SVGID_00000129165165351618348890000003552556937993462441_" gradientUnits="userSpaceOnUse" x1="230.0523" y1="233.5207" x2="284.5923" y2="228.8343" gradientTransform="matrix(-1 0 0 1 540.9008 0)">
			<stop  offset="0" style="stop-color:#5587F6"/>
			<stop  offset="1" style="stop-color:#3359FA"/>
		</linearGradient>
		<path style="fill:url(#SVGID_00000129165165351618348890000003552556937993462441_);" d="M240.862,231.967h63.393
			c0.959,0,1.736-0.777,1.736-1.736l0,0c0-0.959-0.777-1.736-1.736-1.736h-63.393c-0.959,0-1.736,0.777-1.736,1.736l0,0
			C239.127,231.189,239.904,231.967,240.862,231.967z"/>
		
			<linearGradient id="SVGID_00000098913491838547259570000000066763423393903778_" gradientUnits="userSpaceOnUse" x1="236.9606" y1="240.571" x2="262.8076" y2="238.3501">
			<stop  offset="0" style="stop-color:#E4A64B"/>
			<stop  offset="0.2328" style="stop-color:#E8BA59"/>
			<stop  offset="0.5887" style="stop-color:#EED26A"/>
			<stop  offset="0.8069" style="stop-color:#F0DB70"/>
		</linearGradient>
		<path style="fill:url(#SVGID_00000098913491838547259570000000066763423393903778_);" d="M269.211,240.748h-28.209
			c-0.959,0-1.736-0.777-1.736-1.736l0,0c0-0.959,0.777-1.736,1.736-1.736h28.209c0.959,0,1.736,0.777,1.736,1.736l0,0
			C270.947,239.971,270.17,240.748,269.211,240.748z"/>
		
			<linearGradient id="SVGID_00000158001525201709177190000015938919335014330270_" gradientUnits="userSpaceOnUse" x1="222.5336" y1="247.8177" x2="229.0258" y2="247.2599" gradientTransform="matrix(-1 0 0 1 457.1845 0)">
			<stop  offset="0" style="stop-color:#5587F6"/>
			<stop  offset="1" style="stop-color:#3359FA"/>
		</linearGradient>
		<path style="fill:url(#SVGID_00000158001525201709177190000015938919335014330270_);" d="M227.855,249.162h4.476
			c0.959,0,1.736-0.777,1.736-1.736l0,0c0-0.959-0.777-1.736-1.736-1.736h-4.476c-0.959,0-1.736,0.777-1.736,1.736l0,0
			C226.119,248.385,226.896,249.162,227.855,249.162z"/>
		
			<linearGradient id="SVGID_00000056412788018130465340000000314036003913391019_" gradientUnits="userSpaceOnUse" x1="231.6094" y1="249.9419" x2="273.3144" y2="246.3584" gradientTransform="matrix(-1 0 0 1 525.9935 0)">
			<stop  offset="0" style="stop-color:#3A49C7"/>
			<stop  offset="1" style="stop-color:#25287B"/>
		</linearGradient>
		<path style="fill:url(#SVGID_00000056412788018130465340000000314036003913391019_);" d="M241.278,249.162h47.655
			c0.959,0,1.736-0.777,1.736-1.736l0,0c0-0.959-0.777-1.736-1.736-1.736h-47.655c-0.959,0-1.736,0.777-1.736,1.736l0,0
			C239.542,248.385,240.319,249.162,241.278,249.162z"/>
		
			<linearGradient id="SVGID_00000078012727286345878350000018301457785807611522_" gradientUnits="userSpaceOnUse" x1="213.0406" y1="269.7518" x2="230.0384" y2="268.2913">
			<stop  offset="0" style="stop-color:#E4A64B"/>
			<stop  offset="0.2328" style="stop-color:#E8BA59"/>
			<stop  offset="0.5887" style="stop-color:#EED26A"/>
			<stop  offset="0.8069" style="stop-color:#F0DB70"/>
		</linearGradient>
		<path style="fill:url(#SVGID_00000078012727286345878350000018301457785807611522_);" d="M233.653,270.462h-17.358
			c-0.959,0-1.736-0.777-1.736-1.736l0,0c0-0.959,0.777-1.736,1.736-1.736h17.358c0.959,0,1.736,0.777,1.736,1.736l0,0
			C235.389,269.685,234.612,270.462,233.653,270.462z"/>
		
			<linearGradient id="SVGID_00000148660857690851674230000016940843417199573672_" gradientUnits="userSpaceOnUse" x1="232.6894" y1="271.0459" x2="270.278" y2="267.8161" gradientTransform="matrix(-1 0 0 1 522.3738 0)">
			<stop  offset="0" style="stop-color:#5587F6"/>
			<stop  offset="1" style="stop-color:#3359FA"/>
		</linearGradient>
		<path style="fill:url(#SVGID_00000148660857690851674230000016940843417199573672_);" d="M241.992,270.514h42.607
			c0.959,0,1.736-0.777,1.736-1.736l0,0c0-0.959-0.777-1.736-1.736-1.736h-42.607c-0.959,0-1.736,0.777-1.736,1.736l0,0
			C240.256,269.737,241.033,270.514,241.992,270.514z"/>
		
			<linearGradient id="SVGID_00000161596188294062208400000009843951679670718354_" gradientUnits="userSpaceOnUse" x1="216.4351" y1="277.8588" x2="227.8552" y2="276.8775" gradientTransform="matrix(-1 0 0 1 453.1224 0)">
			<stop  offset="0" style="stop-color:#3A49C7"/>
			<stop  offset="1" style="stop-color:#25287B"/>
		</linearGradient>
		<path style="fill:url(#SVGID_00000161596188294062208400000009843951679670718354_);" d="M223.41,278.906h10.519
			c0.959,0,1.736-0.777,1.736-1.736l0,0c0-0.959-0.777-1.736-1.736-1.736H223.41c-0.959,0-1.736,0.777-1.736,1.736l0,0
			C221.675,278.129,222.452,278.906,223.41,278.906z"/>
		
			<linearGradient id="SVGID_00000153697450435108810140000011858960470679093141_" gradientUnits="userSpaceOnUse" x1="235.6756" y1="280.5119" x2="290.2156" y2="275.8255">
			<stop  offset="0" style="stop-color:#E4A64B"/>
			<stop  offset="0.2328" style="stop-color:#E8BA59"/>
			<stop  offset="0.5887" style="stop-color:#EED26A"/>
			<stop  offset="0.8069" style="stop-color:#F0DB70"/>
		</linearGradient>
		<path style="fill:url(#SVGID_00000153697450435108810140000011858960470679093141_);" d="M305.662,278.958h-63.393
			c-0.959,0-1.736-0.777-1.736-1.736l0,0c0-0.959,0.777-1.736,1.736-1.736h63.393c0.959,0,1.736,0.777,1.736,1.736l0,0
			C307.398,278.181,306.62,278.958,305.662,278.958z"/>
		
			<linearGradient id="SVGID_00000083054250565514906070000011426674389277824698_" gradientUnits="userSpaceOnUse" x1="212.5031" y1="286.8268" x2="227.0189" y2="285.5795" gradientTransform="matrix(-1 0 0 1 449.605 0)">
			<stop  offset="0" style="stop-color:#5587F6"/>
			<stop  offset="1" style="stop-color:#3359FA"/>
		</linearGradient>
		<path style="fill:url(#SVGID_00000083054250565514906070000011426674389277824698_);" d="M219.754,287.687h14.315
			c0.959,0,1.736-0.777,1.736-1.736l0,0c0-0.959-0.777-1.736-1.736-1.736h-14.315c-0.959,0-1.736,0.777-1.736,1.736l0,0
			C218.018,286.91,218.795,287.687,219.754,287.687z"/>
		
			<linearGradient id="SVGID_00000037688662225690459310000004069675145866196383_" gradientUnits="userSpaceOnUse" x1="234.1494" y1="287.5623" x2="259.9963" y2="285.3414" gradientTransform="matrix(-1 0 0 1 508.8073 0)">
			<stop  offset="0" style="stop-color:#3A49C7"/>
			<stop  offset="1" style="stop-color:#25287B"/>
		</linearGradient>
		<path style="fill:url(#SVGID_00000037688662225690459310000004069675145866196383_);" d="M242.408,287.739h28.209
			c0.959,0,1.736-0.777,1.736-1.736l0,0c0-0.959-0.777-1.736-1.736-1.736h-28.209c-0.959,0-1.736,0.777-1.736,1.736l0,0
			C240.672,286.962,241.449,287.739,242.408,287.739z"/>
		
			<linearGradient id="SVGID_00000001627346298158202680000012546561316554948009_" gradientUnits="userSpaceOnUse" x1="308.5272" y1="278.9291" x2="334.3741" y2="276.7082" gradientTransform="matrix(-1 0 0 1 657.5632 0)">
			<stop  offset="0" style="stop-color:#5587F6"/>
			<stop  offset="1" style="stop-color:#3359FA"/>
		</linearGradient>
		<path style="fill:url(#SVGID_00000001627346298158202680000012546561316554948009_);" d="M316.786,279.106h28.209
			c0.959,0,1.736-0.777,1.736-1.736l0,0c0-0.959-0.777-1.736-1.736-1.736h-28.209c-0.959,0-1.736,0.777-1.736,1.736l0,0
			C315.05,278.329,315.827,279.106,316.786,279.106z"/>
		
			<linearGradient id="SVGID_00000127739640126382075890000001603323054151101862_" gradientUnits="userSpaceOnUse" x1="284.0631" y1="272.0053" x2="338.6031" y2="267.3189" gradientTransform="matrix(-1 0 0 1 648.9224 0)">
			<stop  offset="0" style="stop-color:#3A49C7"/>
			<stop  offset="1" style="stop-color:#25287B"/>
		</linearGradient>
		<path style="fill:url(#SVGID_00000127739640126382075890000001603323054151101862_);" d="M294.873,270.451h63.393
			c0.959,0,1.736-0.777,1.736-1.736l0,0c0-0.959-0.777-1.736-1.736-1.736h-63.393c-0.959,0-1.736,0.777-1.736,1.736l0,0
			C293.137,269.674,293.915,270.451,294.873,270.451z"/>
		
			<linearGradient id="SVGID_00000140693699085396270540000009653248046903245474_" gradientUnits="userSpaceOnUse" x1="265.5527" y1="242.0314" x2="320.0927" y2="237.3451" gradientTransform="matrix(-1 0 0 1 611.9017 0)">
			<stop  offset="0" style="stop-color:#5587F6"/>
			<stop  offset="1" style="stop-color:#3359FA"/>
		</linearGradient>
		<path style="fill:url(#SVGID_00000140693699085396270540000009653248046903245474_);" d="M276.363,240.477h63.393
			c0.959,0,1.736-0.777,1.736-1.736l0,0c0-0.959-0.777-1.736-1.736-1.736h-63.393c-0.959,0-1.736,0.777-1.736,1.736l0,0
			C274.627,239.7,275.404,240.477,276.363,240.477z"/>
		
			<linearGradient id="SVGID_00000030485639250983992490000017997703181176635301_" gradientUnits="userSpaceOnUse" x1="302.4438" y1="232.2622" x2="340.0325" y2="229.0324" gradientTransform="matrix(-1 0 0 1 661.8828 0)">
			<stop  offset="0" style="stop-color:#3A49C7"/>
			<stop  offset="1" style="stop-color:#25287B"/>
		</linearGradient>
		<path style="fill:url(#SVGID_00000030485639250983992490000017997703181176635301_);" d="M311.746,231.731h42.607
			c0.959,0,1.736-0.777,1.736-1.736l0,0c0-0.959-0.777-1.736-1.736-1.736h-42.607c-0.959,0-1.736,0.777-1.736,1.736l0,0
			C310.011,230.953,310.788,231.731,311.746,231.731z"/>
		
			<linearGradient id="SVGID_00000158708607883074738130000007408163163448066183_" gradientUnits="userSpaceOnUse" x1="280.4829" y1="225.0123" x2="335.0229" y2="220.3259" gradientTransform="matrix(-1 0 0 1 641.7621 0)">
			<stop  offset="0" style="stop-color:#3A49C7"/>
			<stop  offset="1" style="stop-color:#25287B"/>
		</linearGradient>
		<path style="fill:url(#SVGID_00000158708607883074738130000007408163163448066183_);" d="M291.293,223.458h63.393
			c0.959,0,1.736-0.777,1.736-1.736l0,0c0-0.959-0.777-1.736-1.736-1.736h-63.393c-0.959,0-1.736,0.777-1.736,1.736l0,0
			C289.557,222.681,290.334,223.458,291.293,223.458z"/>
		
			<linearGradient id="SVGID_00000142150888786482639950000005851253479767154328_" gradientUnits="userSpaceOnUse" x1="290.0784" y1="250.7161" x2="344.6184" y2="246.0298">
			<stop  offset="0" style="stop-color:#E4A64B"/>
			<stop  offset="0.2328" style="stop-color:#E8BA59"/>
			<stop  offset="0.5887" style="stop-color:#EED26A"/>
			<stop  offset="0.8069" style="stop-color:#F0DB70"/>
		</linearGradient>
		<path style="fill:url(#SVGID_00000142150888786482639950000005851253479767154328_);" d="M360.065,249.162h-63.393
			c-0.959,0-1.736-0.777-1.736-1.736l0,0c0-0.959,0.777-1.736,1.736-1.736h63.393c0.959,0,1.736,0.777,1.736,1.736l0,0
			C361.8,248.385,361.023,249.162,360.065,249.162z"/>
		
			<linearGradient id="SVGID_00000106831821160210511770000014299158269788598674_" gradientUnits="userSpaceOnUse" x1="269.6283" y1="288.7573" x2="315.7271" y2="284.7962" gradientTransform="matrix(-1 0 0 1 608.2006 0)">
			<stop  offset="0" style="stop-color:#3A49C7"/>
			<stop  offset="1" style="stop-color:#25287B"/>
		</linearGradient>
		<path style="fill:url(#SVGID_00000106831821160210511770000014299158269788598674_);" d="M279.688,287.712h53.043
			c0.959,0,1.736-0.777,1.736-1.736v0c0-0.959-0.777-1.736-1.736-1.736h-53.043c-0.959,0-1.736,0.777-1.736,1.736v0
			C277.952,286.935,278.729,287.712,279.688,287.712z"/>
		
			<linearGradient id="SVGID_00000113342589073327547820000002382831312297913518_" gradientUnits="userSpaceOnUse" x1="338.8079" y1="286.8898" x2="357.6997" y2="285.2665">
			<stop  offset="0" style="stop-color:#E4A64B"/>
			<stop  offset="0.2328" style="stop-color:#E8BA59"/>
			<stop  offset="0.5887" style="stop-color:#EED26A"/>
			<stop  offset="0.8069" style="stop-color:#F0DB70"/>
		</linearGradient>
		<path style="fill:url(#SVGID_00000113342589073327547820000002382831312297913518_);" d="M361.911,287.486H342.23
			c-0.959,0-1.736-0.777-1.736-1.736l0,0c0-0.959,0.777-1.736,1.736-1.736h19.681c0.959,0,1.736,0.777,1.736,1.736l0,0
			C363.647,286.709,362.87,287.486,361.911,287.486z"/>
		
			<linearGradient id="SVGID_00000103249846599172213160000012090660709226204314_" gradientUnits="userSpaceOnUse" x1="228.1785" y1="240.2042" x2="243.3531" y2="238.9003" gradientTransform="matrix(-1 0 0 1 463.748 0)">
			<stop  offset="0" style="stop-color:#3A49C7"/>
			<stop  offset="1" style="stop-color:#25287B"/>
		</linearGradient>
		<path style="fill:url(#SVGID_00000103249846599172213160000012090660709226204314_);" d="M217.355,241.025h15.123
			c0.959,0,1.736-0.777,1.736-1.736l0,0c0-0.959-0.777-1.736-1.736-1.736h-15.123c-0.959,0-1.736,0.777-1.736,1.736l0,0
			C215.619,240.247,216.396,241.025,217.355,241.025z"/>
	</g>
	<g>
		<path style="opacity:0.2;fill:#CCF2FF;" d="M74.296,285.211c0,2.714-2.201,4.915-4.915,4.915c-2.715,0-4.915-2.201-4.915-4.915
			c0-2.715,2.2-4.915,4.915-4.915C72.095,280.295,74.296,282.496,74.296,285.211z"/>
		<path style="fill:#CCF2FF;" d="M433.927,295.042c0,1.83-1.484,3.314-3.314,3.314c-1.83,0-3.314-1.484-3.314-3.314
			c0-1.831,1.484-3.314,3.314-3.314C432.443,291.728,433.927,293.211,433.927,295.042z"/>
		<path style="fill:#B1E5F2;" d="M72.257,219.238h-2.904v-2.902c0-0.633-0.515-1.148-1.149-1.148c-0.634,0-1.148,0.515-1.148,1.148
			v2.902h-2.902c-0.634,0-1.149,0.515-1.149,1.148c0,0.634,0.515,1.149,1.149,1.149h2.902v2.903c0,0.634,0.515,1.148,1.148,1.148
			c0.634,0,1.149-0.515,1.149-1.148v-2.903h2.904c0.634,0,1.149-0.515,1.149-1.149C73.405,219.752,72.891,219.238,72.257,219.238z"
			/>
		<path style="fill:#B1E5F2;" d="M298.075,139.314h4.405v-4.403c0-0.961,0.781-1.741,1.743-1.741c0.961,0,1.742,0.78,1.742,1.741
			v4.403h4.402c0.961,0,1.743,0.781,1.743,1.742c0,0.962-0.781,1.743-1.743,1.743h-4.402v4.404c0,0.961-0.781,1.742-1.742,1.742
			c-0.962,0-1.743-0.781-1.743-1.742v-4.404h-4.405c-0.962,0-1.742-0.781-1.742-1.743
			C296.333,140.094,297.113,139.314,298.075,139.314z"/>
		<path style="fill:#CCF2FF;" d="M98.867,299.245c0,1.729-1.402,3.131-3.131,3.131c-1.729,0-3.132-1.402-3.132-3.131
			c0-1.729,1.402-3.131,3.132-3.131C97.465,296.114,98.867,297.516,98.867,299.245z"/>
		<path style="opacity:0.2;fill:#CCF2FF;" d="M426.446,209.016c0,2.714-2.2,4.915-4.915,4.915c-2.715,0-4.915-2.2-4.915-4.915
			c0-2.715,2.201-4.915,4.915-4.915C424.246,204.101,426.446,206.301,426.446,209.016z"/>
		<path style="opacity:0.2;fill:#CCF2FF;" d="M248.413,112.929h5.858v-5.855c0-1.278,1.039-2.316,2.318-2.316
			c1.278,0,2.316,1.038,2.316,2.316v5.855h5.854c1.278,0,2.317,1.038,2.317,2.316c0,1.279-1.039,2.317-2.317,2.317h-5.854v5.856
			c0,1.279-1.039,2.317-2.316,2.317c-1.279,0-2.318-1.038-2.318-2.317v-5.856h-5.858c-1.279,0-2.317-1.038-2.317-2.317
			C246.096,113.967,247.133,112.929,248.413,112.929z"/>
		<path style="fill:#B1E5F2;" d="M406.374,238.131h-2.904v-2.902c0-0.633-0.515-1.148-1.149-1.148c-0.633,0-1.148,0.515-1.148,1.148
			v2.902h-2.902c-0.634,0-1.149,0.515-1.149,1.148c0,0.634,0.515,1.149,1.149,1.149h2.902v2.903c0,0.634,0.515,1.148,1.148,1.148
			c0.634,0,1.149-0.515,1.149-1.148v-2.903h2.904c0.634,0,1.149-0.515,1.149-1.149C407.522,238.646,407.008,238.131,406.374,238.131
			z"/>
	</g>
	<g id="Database">
		
			<linearGradient id="Database_Part_00000063619487220789357730000012103534090407235992_" gradientUnits="userSpaceOnUse" x1="137.5452" y1="393.157" x2="137.5223" y2="366.6216">
			<stop  offset="0.3084" style="stop-color:#3359FA"/>
			<stop  offset="0.8728" style="stop-color:#5587F6"/>
		</linearGradient>
		
			<ellipse id="Database_Part_00000168839817227339471680000012557302487873494198_" style="fill:url(#Database_Part_00000063619487220789357730000012103534090407235992_);" cx="137.532" cy="377.363" rx="36.746" ry="10.632"/>
		
			<linearGradient id="Database_Part_00000032642354437647818150000005742275336547591861_" gradientUnits="userSpaceOnUse" x1="137.1858" y1="413.4823" x2="137.521" y2="387.7413">
			<stop  offset="0" style="stop-color:#1A2E9D"/>
			<stop  offset="0.9009" style="stop-color:#98D2FC"/>
		</linearGradient>
		
			<path id="Database_Part_00000093884242878693712050000015753571444973794965_" style="fill:url(#Database_Part_00000032642354437647818150000005742275336547591861_);" d="
			M137.532,387.995c-20.294,0-36.746-4.76-36.746-10.632v19.096c0,5.872,16.451,10.632,36.746,10.632
			c20.294,0,36.746-4.76,36.746-10.632v-19.096C174.277,383.235,157.826,387.995,137.532,387.995z"/>
		
			<linearGradient id="Database_Part_00000028294134430311437680000015781738050228767639_" gradientUnits="userSpaceOnUse" x1="137.5992" y1="361.9317" x2="137.4312" y2="335.7388">
			<stop  offset="0.3084" style="stop-color:#3359FA"/>
			<stop  offset="0.8728" style="stop-color:#5587F6"/>
		</linearGradient>
		
			<ellipse id="Database_Part_00000088852157195796052050000013407420338504688533_" style="fill:url(#Database_Part_00000028294134430311437680000015781738050228767639_);" cx="137.532" cy="351.403" rx="36.746" ry="10.632"/>
		
			<linearGradient id="Database_Part_00000126322005266129089140000009577379651439804821_" gradientUnits="userSpaceOnUse" x1="137.5547" y1="362.2891" x2="138.1694" y2="397.5667">
			<stop  offset="0" style="stop-color:#98D2FC"/>
			<stop  offset="1" style="stop-color:#1A2E9D"/>
		</linearGradient>
		
			<path id="Database_Part_00000140721447532535657200000016702168503583880366_" style="fill:url(#Database_Part_00000126322005266129089140000009577379651439804821_);" d="
			M137.532,362.035c-20.294,0-36.746-4.76-36.746-10.632v19.096c0,5.872,16.452,10.632,36.746,10.632
			c20.294,0,36.746-4.76,36.746-10.632v-19.096C174.277,357.275,157.826,362.035,137.532,362.035z"/>
		
			<linearGradient id="Database_Part_00000009586297878043600280000005812175963356123071_" gradientUnits="userSpaceOnUse" x1="137.7587" y1="339.9445" x2="137.1663" y2="302.651">
			<stop  offset="0.3084" style="stop-color:#3359FA"/>
			<stop  offset="0.8728" style="stop-color:#5587F6"/>
		</linearGradient>
		
			<ellipse id="Database_Part_00000045612204545883633950000001176584950731543185_" style="fill:url(#Database_Part_00000009586297878043600280000005812175963356123071_);" cx="137.532" cy="325.651" rx="36.746" ry="10.632"/>
		
			<linearGradient id="Database_Part_00000000203545891764260640000007562110997826048683_" gradientUnits="userSpaceOnUse" x1="138.0224" y1="366.5259" x2="137.4585" y2="330.5412">
			<stop  offset="0" style="stop-color:#1A2E9D"/>
			<stop  offset="0.9009" style="stop-color:#98D2FC"/>
		</linearGradient>
		<path id="Database_Part" style="fill:url(#Database_Part_00000000203545891764260640000007562110997826048683_);" d="
			M137.532,336.283c-20.294,0-36.746-4.76-36.746-10.632v19.096c0,5.872,16.451,10.632,36.746,10.632s36.746-4.76,36.746-10.632
			v-19.096C174.277,331.523,157.826,336.283,137.532,336.283z"/>
	</g>
</g>
</svg>
