<?xml version="1.0" encoding="utf-8"?>
<!-- Generator: Adobe Illustrator 27.5.0, SVG Export Plug-In . SVG Version: 6.00 Build 0)  -->
<svg version="1.1" xmlns="http://www.w3.org/2000/svg" xmlns:xlink="http://www.w3.org/1999/xlink" x="0px" y="0px"
	 viewBox="0 0 750 500" style="enable-background:new 0 0 750 500;" xml:space="preserve">
<g id="BACKGROUND">
	<rect style="fill:#E5E6F8;" width="750" height="500"/>
</g>
<g id="OBJECTS">
	<g>
		<path style="opacity:0.3;fill:#6258CC;" d="M587.855,267.541l-1.426-7.771c-4.37-19.825-14.384-37.809-29.101-52.145
			c-19.614-19.107-45.46-29.629-72.777-29.629c-13.789,0-27.296,2.719-40.147,8.081l-9.239,3.855l0.609,0.233
			c-10.204,5.385-19.357,12.319-27.226,20.681l-0.018,0.019l-0.032,0.034l-4.685,5.11l-4.607,5.025l-22.474,24.513l-3.809-4.334
			l-0.082,0.089l-19.42-21.183l-1.018-1.111l-2.124-2.316l-5.14-5.607l-0.185-0.2c-3.313-3.52-6.869-6.815-10.59-9.815
			c-11.054-8.909-24.098-15.558-37.896-19.347l0.394-0.299l-8.902-1.659c-6.298-1.174-12.708-1.769-19.05-1.769
			c-26.883,0-52.43,10.234-71.936,28.818c-16.888,16.089-27.911,37.375-31.29,60.258l-1.068-1.19l-0.039,10.406l-0.021,5.649
			l-0.001,0.107c-0.002,0.092-0.003,0.201-0.003,0.31c0,56.939,45.839,103.367,102.552,104.336l-0.427,0.477l9.916-0.742
			c22.013-1.648,42.887-10.219,59.641-24.351l6.534-5.866l3.819-4.102l-0.003-0.06l30.148-32.882l27.446,29.938l0.98,1.069
			l3.168,3.456l0.19,0.205c17.152,18.226,40.314,29.695,65.236,32.315c0,0,9.978,0.568,10.797,0.568
			c27.508,0,53.482-10.649,73.139-29.986c19.632-19.312,30.711-45.061,31.196-72.504
			C588.886,284.224,587.971,268.361,587.855,267.541z M308.625,319.836l-0.038,0.042c-7.838,8.285-17.808,13.824-28.835,16.019
			l-2.762,0.55l-0.042-0.04l-1.855,0.206c-2.104,0.233-4.184,0.352-6.181,0.352c-29.774,0-54.264-24.224-54.593-53.999l-0.003-0.267
			l-0.036-3.297l0.113-0.095l0.142-1.654c2.397-27.986,26.283-49.908,54.378-49.908c4.057,0,8.106,0.444,12.034,1.319l4.331,0.965
			l0.16,0.225l1.221,0.419c5.956,2.042,11.503,5.113,16.486,9.129c1.914,1.542,3.745,3.235,5.444,5.03l3.855,4.205l2.15,2.345
			l1.01,1.101l25.785,28.126l1.599,1.744l-31.234,34.069L308.625,319.836z M293.247,357.486l-17.711-16.891L293.247,357.486
			L293.247,357.486z M268.913,223.739c4.102,0,8.12,0.436,12.032,1.245C277.033,224.175,273.014,223.739,268.913,223.739
			c-1.901,0-3.782,0.092-5.639,0.27c-5.966,0.575-11.678,2.066-17.005,4.31c5.327-2.245,11.038-3.735,17.005-4.31
			C265.131,223.831,267.012,223.739,268.913,223.739z M211.622,294.677c-0.611-2.827-1.017-5.729-1.2-8.688
			c-0.061-0.986-0.098-1.979-0.109-2.978l-0.001-0.067l0.001,0.067c0.011,0.999,0.047,1.992,0.109,2.978
			C210.605,288.948,211.011,291.849,211.622,294.677z M210.543,277.311L210.543,277.311c1.828-21.337,15.081-39.295,33.45-47.976
			C225.624,238.016,212.371,255.974,210.543,277.311z M214.056,302.919c-0.671-1.775-1.257-3.59-1.755-5.44
			C212.799,299.329,213.386,301.144,214.056,302.919z M217.624,310.615c-0.911-1.642-1.746-3.333-2.5-5.066
			C215.878,307.283,216.713,308.973,217.624,310.615z M288.944,227.246c5.983,2.173,11.612,5.325,16.715,9.438
			C300.556,232.571,294.928,229.42,288.944,227.246z M297.711,356.208l-17.176-16.381l18.286,17.439l0,0L297.711,356.208z
			 M294.743,379.276c-0.288,0.077-0.572,0.168-0.861,0.243C294.171,379.444,294.455,379.353,294.743,379.276z M311.578,322.544
			l-0.059,0.064L311.578,322.544l3.129-3.412l32.695-35.663v0l-32.695,35.663L311.578,322.544z M567.655,226.161
			c0.916,1.349,1.797,2.719,2.644,4.107C569.453,228.88,568.572,227.51,567.655,226.161z M444.88,319.88l-3.005-3.278l-0.713-0.778
			l-0.676-0.737l-0.442-0.482l-2.643-2.883l-22.855-24.93l0.036-0.036l-4.024-4.389l-0.035,0.038l-0.046-0.05l25.941-28.296
			l4.646-5.068l3.811-4.157c5.32-5.623,11.58-9.963,18.609-12.899l1.652-0.69l0.027-0.079l2.845-0.898
			c5.307-1.674,10.872-2.523,16.54-2.523c24.406,0,45.44,15.676,52.338,39.008l0.384,1.298l0.18,0.132l0.769,4.172
			c0.275,1.492,0.474,2.814,0.607,4.041l0.132,1.212l0.099,0.909l0.062,2.413c0.005,0.195,0.011,0.389,0.018,0.584l0.002,0.05
			c0.009,0.263,0.019,0.526,0.019,0.791c0,30.112-24.498,54.61-54.61,54.61c-0.426,0-0.85-0.015-1.273-0.03l-0.458-0.015
			l-1.366-0.042l-0.186,0.135l-4.173-0.562C464.698,334.782,453.56,329.053,444.88,319.88z M451.454,330.759
			c-2.042-1.404-4.006-2.946-5.88-4.622c-1.25-1.117-2.459-2.294-3.626-3.528l-3.025-3.3l3.025,3.3
			c1.167,1.235,2.377,2.411,3.626,3.528C447.448,327.813,449.412,329.355,451.454,330.759z M446.231,238.005
			c0.303-0.263,0.613-0.514,0.92-0.769C446.844,237.491,446.534,237.742,446.231,238.005z M453.758,232.454
			c0.413-0.256,0.836-0.492,1.255-0.737C454.594,231.962,454.171,232.198,453.758,232.454z M460.402,228.93
			c0.513-0.232,1.021-0.474,1.54-0.691l0,0C461.423,228.456,460.915,228.698,460.402,228.93z M467.303,226.302
			c5.506-1.683,11.298-2.562,17.248-2.562C478.602,223.739,472.809,224.619,467.303,226.302z M407.727,285.281l0.077,0.084h0
			L407.727,285.281L407.727,285.281z M411.73,289.648l22.718,24.781L411.73,289.648L411.73,289.648z M475.753,345.953l1.811-1.311
			l5.134-3.717L475.753,345.953z M559.865,216.097c-1.698-1.924-3.476-3.793-5.332-5.602
			C556.389,212.304,558.167,214.173,559.865,216.097z M452.8,187.202c-2.315,0.775-4.601,1.633-6.852,2.572h0
			C448.199,188.835,450.485,187.977,452.8,187.202z M461.616,184.695c-2.952,0.698-5.87,1.523-8.742,2.482
			C455.746,186.217,458.664,185.393,461.616,184.695z M440.799,192.091L440.799,192.091c-3.298,1.598-6.498,3.396-9.609,5.345
			C434.301,195.487,437.501,193.689,440.799,192.091z M406.768,218.716l4.67-5.094L406.768,218.716l-4.607,5.025L406.768,218.716z
			 M402.161,223.741l-22.667,24.723l0,0L402.161,223.741z M318.066,194.87c3.22,1.805,6.345,3.791,9.356,5.95
			c1.506,1.08,2.983,2.203,4.43,3.369c0.895,0.721,1.779,1.46,2.652,2.215c1.746,1.51,3.446,3.085,5.091,4.716
			c0.822,0.816,1.631,1.646,2.424,2.488l0.17,0.183l5.14,5.607l-5.14-5.607l-0.17-0.183c-0.793-0.843-1.602-1.673-2.424-2.489
			c-1.645-1.632-3.345-3.207-5.091-4.716c-0.873-0.755-1.757-1.493-2.652-2.215c-1.447-1.166-2.924-2.289-4.43-3.369
			C324.411,198.661,321.286,196.675,318.066,194.87c-1.61-0.903-3.244-1.76-4.899-2.572
			C314.822,193.11,316.456,193.967,318.066,194.87z M278.501,190.323l-0.083,0.063l8.811-6.682L278.501,190.323z M199.627,286.5
			l-0.634,0.533l-8.772,7.384L199.627,286.5z M170.571,262.34c-0.578,2.854-1.034,5.742-1.363,8.658l0,0
			C169.537,268.082,169.992,265.194,170.571,262.34z M189.832,299.982l11.833-9.961l0.233-0.196L189.832,299.982l-21.246-23.679l0,0
			L189.832,299.982z M322.437,367.195c4.996-3.143,9.728-6.73,14.122-10.733C332.165,360.465,327.433,364.052,322.437,367.195z
			 M317.917,369.865c1.048-0.586,2.081-1.198,3.108-1.821C319.998,368.667,318.965,369.28,317.917,369.865z M344.995,347.853
			l30.156-32.891l0,0L344.995,347.853z M379.407,316.152L379.407,316.152l0.047,0.052l0,0L379.407,316.152z M411.453,351.104
			c1.99,2.115,4.07,4.129,6.223,6.05C415.523,355.233,413.443,353.219,411.453,351.104z"/>
		<g>
			<g>
				<path style="fill:#6258CC;" d="M451.748,350.559l20.564-14.888c-13.198-1.777-25.277-7.936-34.613-17.813l-3.025-3.3
					l-0.713-0.778l-0.676-0.737l-0.442-0.482l-2.643-2.882l-29.405-32.074l28.423-31.003l4.646-5.068l3.832-4.18
					c5.75-6.084,12.544-10.752,19.996-13.864l8.6-24.746L436.55,187.34c-10.915,5.287-20.897,12.537-29.333,21.5l-0.014,0.015
					l-0.014,0.015l-4.67,5.094l-4.607,5.025h0l-25.427,27.734l-26.264-28.648l-1.018-1.111h0l-2.124-2.316l-5.14-5.607l-0.17-0.183
					c-3.173-3.372-6.588-6.535-10.166-9.42c-11.574-9.328-25.104-15.921-39.447-19.382l-22.304,16.915l17.859,25.162
					c6.354,2.178,12.317,5.461,17.701,9.8c2.061,1.661,4.033,3.484,5.862,5.419l3.876,4.228l2.15,2.345l1.009,1.101l25.785,28.126
					l4.081,4.451l-33.716,36.776l-3.128,3.412l-0.059,0.064c-8.472,8.965-19.205,14.873-30.984,17.218l18.286,17.439l-22.525,25.165
					c23.823-1.783,46.532-12.131,63.514-29.067l0.007,0.137l2.331-2.543l0.355-0.373l-0.001-0.014l2.493-2.719l31.738-34.617
					l3.446,3.759l24.711,26.954l2.242,2.445v0l0.98,1.069l3.168,3.456l0.172,0.185c16.52,17.553,38.943,28.558,62.72,31.058
					L451.748,350.559z"/>
				<path style="fill:#FFA865;" d="M400.795,277.604l28.423-31.003l4.646-5.068l3.832-4.18c5.75-6.084,12.544-10.752,19.996-13.864
					l8.6-24.746L436.55,187.34c-10.915,5.287-20.897,12.537-29.333,21.5l-0.014,0.015l-0.014,0.015l-4.67,5.094l-4.607,5.025h0
					l-25.427,27.734l-1.537-1.677c-0.267,0.241-0.533,0.484-0.8,0.726l-25.26,28.791l-0.733,0.44
					c-0.26,0.569-0.609,1.049-1.015,1.473l1.034,1.128l-33.716,36.776l-3.128,3.412l-0.059,0.064
					c-8.472,8.965-19.205,14.873-30.984,17.218l18.286,17.439l-22.525,25.165c23.823-1.783,46.532-12.131,63.514-29.067l0.007,0.137
					l2.331-2.543l0.355-0.373l-0.001-0.014l2.493-2.719l31.738-34.617L400.795,277.604z"/>
				<path style="fill:#FF6A81;" d="M266.442,377.934l22.556-25.199l-17.712-16.891c-2.182,0.242-4.39,0.376-6.623,0.376
					c-31.958,0-58.246-26.001-58.599-57.961l-0.003-0.267l-20.479,17.239l-21.246-23.679l-0.021,5.672l-0.002,0.127
					c-0.001,0.084-0.003,0.168-0.003,0.253c0,55.335,45.018,100.353,100.353,100.353
					C265.257,377.957,265.85,377.945,266.442,377.934z"/>
				<path style="fill:#00C0CB;" d="M185.972,289.666l20.322-17.106c2.582-30.145,27.957-53.572,58.37-53.572
					c4.406,0,8.722,0.483,12.906,1.415l-17.232-24.279l22.642-17.172c-6.016-1.121-12.148-1.701-18.316-1.701
					c-25.849,0-50.415,9.842-69.173,27.712c-17.197,16.384-27.897,37.958-30.532,61.283L185.972,289.666z"/>
				<path style="fill:#FF6A81;" d="M471.351,196.391l-8.795,25.306c5.653-1.784,11.617-2.709,17.745-2.709
					c26.383,0,48.943,17.403,56.18,41.879l23.32,17.063l19.016-19.468c-3.849-19.936-13.681-38.249-28.534-52.718
					c-18.861-18.374-43.714-28.493-69.981-28.493c-13.342,0-26.466,2.707-38.604,7.772L471.351,196.391z"/>
				<path style="fill:#00C0CB;" d="M579.639,263.354l-19.4,19.861l-22.327-16.337c0.263,1.427,0.491,2.869,0.65,4.333l0.132,1.212
					l0.091,0.083l0.092,3.57c0.005,0.184,0.011,0.368,0.017,0.552c0.011,0.325,0.023,0.649,0.023,0.977
					c0,32.321-26.295,58.616-58.616,58.616c-0.621,0-1.236-0.027-1.854-0.046l-21.207,15.354l17.794,26.287
					c1.751,0.093,3.507,0.142,5.267,0.142c26.45,0,51.427-10.241,70.33-28.836c18.879-18.572,29.534-43.331,30-69.719l0.118-6.65
					l-0.212,0.163C580.389,269.698,580.088,266.508,579.639,263.354z"/>
			</g>
			<g>
				<path style="fill:#FFFFFF;" d="M583.927,265.259c-0.097-0.826-1.747-10.24-1.747-10.24
					c-4.371-19.825-14.385-37.809-29.101-52.145c-19.613-19.107-45.459-29.629-72.777-29.629c-13.789,0-27.296,2.719-40.147,8.081
					l-8.629,4.088c-10.204,5.385-19.357,12.319-27.226,20.681l-0.018,0.019l-0.032,0.034l-9.292,10.134l-22.474,24.513
					l-26.453-28.855l-5.14-5.607l-0.185-0.2c-3.313-3.52-6.869-6.815-10.59-9.815c-11.054-8.91-24.098-15.558-37.896-19.347
					l-8.507-1.958c-6.299-1.174-12.708-1.769-19.05-1.769c-26.883,0-52.43,10.235-71.936,28.818
					c-16.888,16.089-27.911,37.375-31.29,60.258l-1.127,14.865l-0.002,0.107c-0.002,0.092-0.003,0.201-0.003,0.31
					c0,56.939,45.839,103.367,102.552,104.336l9.489-0.265c22.013-1.648,42.887-10.219,59.641-24.351l10.353-9.969l-0.003-0.06
					l30.148-32.882l25.204,27.493l2.242,2.445l0.98,1.069l3.168,3.456l0.191,0.205c17.152,18.225,40.314,29.695,65.236,32.315
					c0,0,9.978,0.568,10.797,0.568c27.508,0,53.482-10.649,73.139-29.986c19.632-19.312,30.711-45.061,31.196-72.504
					L583.927,265.259z M550.283,205.744c14.853,14.469,24.685,32.782,28.534,52.718l-2.044,2.093l-16.972,17.375l-23.32-17.063
					c-7.237-24.476-29.796-41.879-56.18-41.879c-6.128,0-12.092,0.925-17.745,2.709l7.521-21.64l1.274-3.667l-3.625-1.389
					l-26.029-9.978c12.138-5.064,25.262-7.771,38.604-7.771C506.569,177.251,531.422,187.37,550.283,205.744z M480.302,332.214
					c-0.426,0-0.85-0.015-1.273-0.03l-0.458-0.015l-1.365-0.042l-0.186,0.134l-4.173-0.562
					c-12.397-1.669-23.536-7.399-32.215-16.572l-3.005-3.278l-0.713-0.778l-0.676-0.737l-0.442-0.482l-2.643-2.883l-26.923-29.367
					l25.941-28.296l4.646-5.068l3.811-4.157c5.32-5.623,11.58-9.963,18.609-12.898l1.652-0.69l0.028-0.079l2.845-0.898
					c5.307-1.674,10.872-2.523,16.54-2.523c24.406,0,45.439,15.676,52.338,39.008l0.384,1.298l0.18,0.132l0.769,4.172
					c0.275,1.492,0.474,2.813,0.607,4.041l0.132,1.212l0.099,0.909l0.062,2.413c0.005,0.195,0.011,0.389,0.018,0.584l0.002,0.051
					c0.009,0.263,0.019,0.526,0.019,0.791C534.911,307.716,510.414,332.214,480.302,332.214z M337.768,208.858l0.17,0.183
					l5.14,5.607l2.124,2.316h0l1.018,1.111l23.561,25.7l-28.32,30.871l-1.368-1.492l-25.785-28.126l-1.009-1.101l-2.15-2.345
					l-3.876-4.228c-1.828-1.934-3.8-3.757-5.862-5.419c-5.383-4.339-11.347-7.622-17.7-9.8l-2.874-4.049l-14.985-21.113
					l10.822-8.208l11.482-8.708c14.344,3.461,27.874,10.054,39.447,19.382C331.18,202.323,334.596,205.486,337.768,208.858z
					 M272.742,331.696l-0.042-0.04l-1.856,0.206c-2.104,0.233-4.184,0.352-6.181,0.352c-29.774,0-54.264-24.224-54.593-53.999
					l-0.003-0.267l-0.036-3.298l0.113-0.095l0.142-1.654c2.397-27.986,26.283-49.908,54.378-49.908
					c4.057,0,8.106,0.444,12.034,1.319l4.331,0.965l0.16,0.225l1.221,0.419c5.956,2.042,11.503,5.113,16.486,9.129
					c1.914,1.542,3.745,3.235,5.444,5.03l3.855,4.205l2.15,2.345l1.01,1.101l25.785,28.126l1.599,1.744l-31.234,34.069l-3.128,3.412
					l-0.038,0.042c-7.838,8.285-17.808,13.824-28.835,16.02L272.742,331.696z M195.49,204.964
					c18.758-17.871,43.324-27.712,69.173-27.712c6.168,0,12.3,0.58,18.316,1.701l-8.728,6.619l-10.822,8.207l-3.093,2.346
					l2.247,3.165l14.985,21.113c-4.184-0.932-8.499-1.415-12.905-1.415c-30.413,0-55.787,23.427-58.37,53.572l-2.812,2.367
					l-8.737,7.355l-8.772,7.384l-21.014-23.42C167.594,242.921,178.293,221.348,195.49,204.964z M264.663,377.957
					c-55.335,0-100.353-45.018-100.353-100.353c0-0.085,0.001-0.169,0.003-0.253l0.002-0.127l0.021-5.672l21.246,23.679
					l11.833-9.961l8.646-7.278l0.003,0.267c0.353,31.96,26.641,57.961,58.599,57.961c2.233,0,4.441-0.134,6.623-0.376l17.711,16.891
					l-19.937,22.273l-2.619,2.926C265.849,377.945,265.257,377.957,264.663,377.957z M340.746,343.102l-2.493,2.719l0.001,0.014
					l-0.355,0.373l-2.331,2.543l-0.007-0.137c-16.982,16.936-39.69,27.283-63.513,29.067l19.936-22.273l2.589-2.892l-1.11-1.058
					l-17.176-16.381c11.78-2.345,22.512-8.254,30.984-17.218l0.059-0.064l3.128-3.412l32.695-35.663l0.005,0.005l32.103-34.995
					l-0.016-0.015l22.667-24.723h0l4.607-5.025l4.67-5.093l0.014-0.015l0.014-0.015c8.436-8.963,18.418-16.213,29.333-21.5
					l3.714,1.424l26.029,9.978l-7.52,21.64l-1.08,3.106c-7.451,3.113-14.245,7.78-19.995,13.864l-3.832,4.18l-4.646,5.068
					l-26.225,28.605l-0.037-0.034l-32.103,34.994l0.048,0.044L340.746,343.102z M407.203,346.353l-0.172-0.185l-3.168-3.456
					l-0.98-1.069v0l-2.242-2.445l-24.711-26.954l-0.773-0.843l28.32-30.871l26.722,29.148l2.643,2.882l0.442,0.482l0.676,0.737
					l0.713,0.778l3.025,3.3c9.336,9.877,21.415,16.036,34.613,17.813l-17.42,12.612l-3.144,2.276l2.176,3.214l16,23.637
					C446.146,374.911,423.723,363.906,407.203,346.353z M580.631,279.402c-0.466,26.387-11.121,51.147-30,69.719
					c-18.903,18.595-43.88,28.836-70.33,28.836c-1.76,0-3.516-0.048-5.266-0.142l-1.794-2.65l-16-23.637l16.073-11.638l5.134-3.717
					c0.617,0.019,1.233,0.046,1.854,0.046c32.321,0,58.616-26.295,58.616-58.616c0-0.327-0.012-0.652-0.023-0.977
					c-0.006-0.184-0.012-0.368-0.017-0.552l-0.092-3.57l-0.091-0.083l-0.132-1.212c-0.16-1.465-0.387-2.906-0.65-4.333
					l22.327,16.337l2.428-2.485l16.972-17.375C580.088,266.509,580.631,279.402,580.631,279.402z"/>
				<g>
					<polygon style="opacity:0.3;fill:#0F0B38;" points="372.484,314.413 376.224,318.487 410.171,281.637 406.31,277.616 					"/>
					<polygon style="opacity:0.3;fill:#0F0B38;" points="334.85,273.258 338.739,277.604 372.485,240.795 368.676,236.461 					"/>
				</g>
			</g>
		</g>
	</g>
	<g>
		<g>
			
				<polyline style="fill:none;stroke:#221276;stroke-width:1.6025;stroke-linecap:round;stroke-linejoin:round;stroke-miterlimit:10;" points="
				608.432,398.64 608.432,311.304 560.358,311.304 			"/>
			
				<circle style="fill:#FFFFFF;stroke:#221276;stroke-width:1.6025;stroke-linecap:round;stroke-linejoin:round;stroke-miterlimit:10;" cx="562.386" cy="311.126" r="3.606"/>
		</g>
		<g>
			<g>
				<path style="opacity:0.3;fill:#6258CC;" d="M657.343,455.458c0,4.425-3.587,8.012-8.012,8.012h-73.227
					c-4.425,0-8.012-3.587-8.012-8.012v-89.473c0-4.425,3.587-8.012,8.012-8.012h73.227c4.425,0,8.012,3.587,8.012,8.012V455.458z"
					/>
				<path style="fill:#FFFFFF;" d="M653.344,450.459c0,4.425-3.587,8.012-8.012,8.012h-73.227c-4.425,0-8.012-3.587-8.012-8.012
					v-89.473c0-4.425,3.587-8.012,8.012-8.012h73.227c4.425,0,8.012,3.587,8.012,8.012V450.459z"/>
				<path style="fill:#00C0CB;" d="M653.344,425.736v-64.749c0-4.425-3.587-8.012-8.012-8.012h-73.227
					c-4.425,0-8.012,3.587-8.012,8.012v64.749H653.344z"/>
			</g>
			<g>
				<path style="fill:#FFFFFF;" d="M602.22,377.487c0.383-0.884,0.668-1.814,0.848-2.765l-1.927-0.364
					c0.031-0.167,0.06-0.335,0.084-0.504c0.092-0.65,0.127-1.299,0.106-1.941l1.958-0.066c-0.033-0.967-0.174-1.932-0.421-2.867
					l-1.893,0.499c-0.208-0.791-0.505-1.559-0.888-2.292l1.738-0.905c-0.445-0.854-0.986-1.661-1.608-2.397l-1.498,1.265
					c-0.535-0.634-1.131-1.201-1.78-1.692l1.182-1.561c-0.772-0.584-1.61-1.082-2.49-1.48l-0.807,1.785
					c-0.743-0.335-1.526-0.588-2.339-0.754l0.393-1.922c-0.26-0.053-0.525-0.099-0.789-0.137c-0.957-0.136-1.929-0.166-2.886-0.089
					l0.157,1.953c-0.823,0.065-1.632,0.223-2.416,0.469l-0.586-1.868c-0.92,0.289-1.81,0.681-2.646,1.167l0.985,1.695
					c-0.376,0.219-0.742,0.461-1.095,0.727c-0.307,0.231-0.6,0.476-0.878,0.733l-1.332-1.438c-0.709,0.657-1.345,1.393-1.89,2.187
					l1.614,1.108c-0.465,0.677-0.853,1.405-1.156,2.172l-1.821-0.723c-0.355,0.894-0.611,1.832-0.761,2.787l1.938,0.305
					c-0.009,0.056-0.018,0.112-0.026,0.168c-0.109,0.765-0.137,1.529-0.089,2.283l-1.956,0.127c0.063,0.965,0.234,1.925,0.509,2.853
					l1.877-0.557c0.232,0.783,0.553,1.542,0.959,2.263l-1.71,0.958c0.471,0.84,1.036,1.63,1.68,2.347l1.459-1.31
					c0.553,0.617,1.167,1.165,1.832,1.637l-1.133,1.597c0.789,0.56,1.642,1.032,2.536,1.402l0.751-1.809
					c0.751,0.311,1.542,0.54,2.36,0.681l-0.334,1.933c0.131,0.023,0.264,0.044,0.395,0.062c0.823,0.117,1.659,0.155,2.484,0.115
					l-0.097-1.957c0.826-0.04,1.639-0.172,2.429-0.393l0.528,1.885c0.929-0.26,1.831-0.625,2.681-1.085l-0.932-1.724
					c0.481-0.261,0.947-0.559,1.392-0.894c0.215-0.162,0.423-0.33,0.624-0.505l1.288,1.478c0.728-0.634,1.386-1.35,1.956-2.127
					l-1.579-1.157c0.487-0.663,0.897-1.379,1.223-2.135L602.22,377.487z M589.342,378.696c-3.534-0.502-5.993-3.773-5.491-7.308
					c0.502-3.534,3.773-5.993,7.308-5.491c3.534,0.502,5.993,3.773,5.491,7.308S592.876,379.198,589.342,378.696z"/>
				<path style="fill:#FFFFFF;" d="M639.77,395.231c0.392-1.428,0.625-2.906,0.693-4.392l-3.011-0.137
					c0.012-0.261,0.018-0.522,0.018-0.785c0-1.009-0.088-2.004-0.258-2.978l2.966-0.524c-0.259-1.465-0.683-2.903-1.26-4.273
					l-2.773,1.168c-0.488-1.159-1.106-2.264-1.847-3.296l2.449-1.753c-0.862-1.204-1.859-2.315-2.965-3.302l-2.007,2.249
					c-0.951-0.85-1.981-1.583-3.074-2.191l1.461-2.631c-1.301-0.722-2.683-1.299-4.11-1.715l-0.842,2.891
					c-1.203-0.349-2.45-0.565-3.723-0.642l0.183-3.009c-0.407-0.025-0.821-0.037-1.23-0.037c-1.486,0-2.971,0.164-4.412,0.489
					l0.661,2.938c-1.238,0.277-2.436,0.692-3.575,1.235l-1.295-2.716c-1.338,0.638-2.608,1.428-3.774,2.347l1.865,2.367
					c-0.525,0.415-1.029,0.862-1.51,1.342c-0.417,0.418-0.81,0.853-1.178,1.305l-2.338-1.901c-0.937,1.152-1.746,2.41-2.404,3.737
					l2.696,1.337c-0.562,1.131-0.994,2.323-1.29,3.556l-2.928-0.707c-0.347,1.437-0.534,2.92-0.557,4.406l3.015,0.046
					c-0.001,0.087-0.003,0.174-0.003,0.262c0,1.188,0.122,2.357,0.358,3.494l-2.949,0.616c0.304,1.456,0.772,2.88,1.392,4.232
					l2.736-1.253c0.523,1.142,1.175,2.227,1.948,3.236l-2.395,1.828c0.898,1.177,1.929,2.257,3.064,3.209l1.937-2.309
					c0.975,0.82,2.028,1.521,3.141,2.095l-1.379,2.675c1.322,0.682,2.723,1.216,4.162,1.587l0.752-2.916
					c1.211,0.311,2.463,0.489,3.739,0.527l-0.091,3.013c0.204,0.006,0.411,0.009,0.615,0.009c1.278,0,2.558-0.122,3.806-0.362
					l-0.57-2.958c1.248-0.239,2.458-0.615,3.612-1.122l1.21,2.755c1.357-0.597,2.652-1.347,3.847-2.23l-1.79-2.422
					c0.676-0.501,1.32-1.056,1.926-1.662c0.292-0.292,0.573-0.594,0.841-0.903l2.279,1.972c0.971-1.122,1.818-2.354,2.517-3.66
					l-2.653-1.42c0.597-1.115,1.067-2.292,1.401-3.513L639.77,395.231z M620.432,399.853c-5.487,0-9.936-4.448-9.936-9.936
					c0-5.487,4.448-9.936,9.936-9.936s9.936,4.448,9.936,9.936C630.367,395.405,625.919,399.853,620.432,399.853z"/>
			</g>
		</g>
	</g>
	<g>
		<g>
			
				<polyline style="fill:none;stroke:#221276;stroke-width:1.6025;stroke-linecap:round;stroke-linejoin:round;stroke-miterlimit:10;" points="
				374.988,454.73 374.988,351.144 307.693,351.144 			"/>
			
				<path style="fill:#FFFFFF;stroke:#221276;stroke-width:1.6025;stroke-linecap:round;stroke-linejoin:round;stroke-miterlimit:10;" d="
				M313.327,350.966c0-1.991-1.614-3.606-3.606-3.606s-3.606,1.614-3.606,3.606c0,1.991,1.614,3.605,3.606,3.605
				S313.327,352.957,313.327,350.966z"/>
		</g>
		<g>
			<g>
				<path style="opacity:0.3;fill:#6258CC;" d="M423.678,474.792c0,4.425-3.587,8.012-8.013,8.012h-73.227
					c-4.425,0-8.012-3.587-8.012-8.012v-89.473c0-4.425,3.587-8.012,8.012-8.012h73.227c4.425,0,8.013,3.587,8.013,8.012V474.792z"
					/>
				<path style="fill:#FFFFFF;" d="M419.68,469.792c0,4.425-3.587,8.012-8.012,8.012H338.44c-4.425,0-8.012-3.587-8.012-8.012
					V380.32c0-4.425,3.587-8.012,8.012-8.012h73.227c4.425,0,8.012,3.587,8.012,8.012V469.792z"/>
				<path style="fill:#FFA865;" d="M419.68,445.069V380.32c0-4.425-3.587-8.012-8.012-8.012H338.44
					c-4.425,0-8.012,3.587-8.012,8.012v64.749H419.68z"/>
			</g>
			<g>
				<g>
					<g>
						<path style="fill:#FFFFFF;" d="M395.722,404.926h-4.548c0-8.57-6.972-15.543-15.543-15.543
							c-6.113,0-11.681,3.605-14.187,9.184l-4.15-1.863c3.237-7.21,10.435-11.869,18.336-11.869
							C386.71,384.835,395.722,393.848,395.722,404.926z"/>
					</g>
					<g>
						<polygon style="fill:#FFFFFF;" points="398.369,397.011 394.789,409.179 386.041,399.995 						"/>
					</g>
				</g>
				<g>
					<g>
						<path style="fill:#FFFFFF;" d="M377.296,425.887c-11.078,0-20.091-9.013-20.091-20.091h4.548
							c0,8.57,6.972,15.543,15.542,15.543c6.113,0,11.682-3.605,14.187-9.183l4.149,1.863
							C392.395,421.228,385.198,425.887,377.296,425.887z"/>
					</g>
					<g>
						<polygon style="fill:#FFFFFF;" points="354.559,413.711 358.139,401.543 366.887,410.727 						"/>
					</g>
				</g>
			</g>
		</g>
	</g>
	<g>
		<g>
			
				<polyline style="fill:none;stroke:#221276;stroke-width:1.6025;stroke-linecap:round;stroke-linejoin:round;stroke-miterlimit:10;" points="
				138.567,398.64 138.567,311.304 186.642,311.304 			"/>
			
				<circle style="fill:#FFFFFF;stroke:#221276;stroke-width:1.6025;stroke-linecap:round;stroke-linejoin:round;stroke-miterlimit:10;" cx="184.613" cy="311.126" r="3.606"/>
		</g>
		<g>
			<g>
				<path style="opacity:0.3;fill:#6258CC;" d="M184.01,455.458c0,4.425-3.587,8.012-8.012,8.012H102.77
					c-4.425,0-8.012-3.587-8.012-8.012v-89.473c0-4.425,3.587-8.012,8.012-8.012h73.227c4.425,0,8.012,3.587,8.012,8.012V455.458z"
					/>
				<path style="fill:#FFFFFF;" d="M180.011,450.459c0,4.425-3.587,8.012-8.012,8.012H98.772c-4.425,0-8.012-3.587-8.012-8.012
					v-89.473c0-4.425,3.587-8.012,8.012-8.012h73.227c4.425,0,8.012,3.587,8.012,8.012V450.459z"/>
				<path style="fill:#FF6A81;" d="M180.011,425.736v-64.749c0-4.425-3.587-8.012-8.012-8.012H98.772
					c-4.425,0-8.012,3.587-8.012,8.012v64.749H180.011z"/>
			</g>
			<g>
				<g>
					<g>
						<path style="fill:#FFFFFF;" d="M116.833,360.225l5.577,5.577l-5.233,5.234l-5.577-5.577c-1.213,3.211-0.535,6.974,2.05,9.559
							c3.519,3.519,9.224,3.519,12.743,0c3.519-3.519,3.519-9.224,0-12.743C123.807,359.69,120.044,359.012,116.833,360.225z"/>
						
							<rect x="122.662" y="366.73" transform="matrix(0.7071 -0.7071 0.7071 0.7071 -228.0815 199.0262)" style="fill:#FFFFFF;" width="7.08" height="16.196"/>
					</g>
					<g>
						<path style="fill:#FFFFFF;" d="M154.605,408.465l-5.577-5.577l5.234-5.234l5.577,5.577c1.213-3.211,0.535-6.974-2.05-9.559
							c-3.519-3.519-9.224-3.519-12.743,0c-3.519,3.519-3.519,9.224,0,12.743C147.631,409,151.394,409.678,154.605,408.465z"/>
						
							<rect x="141.729" y="385.797" transform="matrix(0.7071 -0.7071 0.7071 0.7071 -235.9774 218.0893)" style="fill:#FFFFFF;" width="7.08" height="16.196"/>
					</g>
				</g>
				<g>
					<g>
						<path style="fill:#FFFFFF;" d="M149.182,365.771l5.111,5.111c1.059-1.24,3.073-3.988,4.439-6.411l-3.139-3.139
							C153.17,362.698,150.423,364.712,149.182,365.771z"/>
						<path style="fill:#FFFFFF;" d="M159.438,363.12c0.643-1.357,0.929-2.46,0.495-2.895l-0.095-0.095
							c-0.434-0.434-1.538-0.147-2.894,0.495L159.438,363.12z"/>
					</g>
					<g>
						
							<rect x="115.139" y="380.442" transform="matrix(0.7071 -0.7071 0.7071 0.7071 -231.7649 208.6463)" style="fill:#FFFFFF;" width="41.674" height="7.292"/>
						
							<rect x="117.789" y="397.208" transform="matrix(0.7071 -0.7071 0.7071 0.7071 -248.5313 201.7015)" style="fill:#FFFFFF;" width="2.841" height="7.292"/>
						<path style="fill:#FFFFFF;" d="M114.599,400.309l-2.339,2.339c-1.398,1.398-1.398,3.664,0,5.061l0.095,0.095
							c1.398,1.398,3.664,1.398,5.062,0l2.338-2.339L114.599,400.309z"/>
					</g>
				</g>
			</g>
		</g>
	</g>
	<g>
		<g>
			
				<polyline style="fill:none;stroke:#221276;stroke-width:1.6025;stroke-linecap:round;stroke-linejoin:round;stroke-miterlimit:10;" points="
				608.432,176.4 608.432,251.728 560.358,251.728 			"/>
			
				<circle style="fill:#FFFFFF;stroke:#221276;stroke-width:1.6025;stroke-linecap:round;stroke-linejoin:round;stroke-miterlimit:10;" cx="562.386" cy="251.906" r="3.606"/>
		</g>
		<g>
			<g>
				<path style="opacity:0.3;fill:#6258CC;" d="M657.343,197.48c0,4.425-3.587,8.012-8.012,8.012h-73.227
					c-4.425,0-8.012-3.587-8.012-8.012v-89.473c0-4.425,3.587-8.012,8.012-8.012h73.227c4.425,0,8.012,3.587,8.012,8.012V197.48z"/>
				<path style="fill:#FFFFFF;" d="M653.344,192.48c0,4.425-3.587,8.012-8.012,8.012h-73.227c-4.425,0-8.012-3.587-8.012-8.012
					v-89.473c0-4.425,3.587-8.012,8.012-8.012h73.227c4.425,0,8.012,3.587,8.012,8.012V192.48z"/>
				<path style="fill:#FF6A81;" d="M653.344,167.757v-64.749c0-4.425-3.587-8.012-8.012-8.012h-73.227
					c-4.425,0-8.012,3.587-8.012,8.012v64.749H653.344z"/>
			</g>
			<g>
				<g>
					
						<rect x="603.227" y="113.015" transform="matrix(0.7071 -0.7071 0.7071 0.7071 84.7805 466.3368)" style="fill:#FFFFFF;" width="4.162" height="35.629"/>
					<g>
						<path style="fill:#FFFFFF;" d="M631.474,114.024c3.122-5.579,4.427-10.172,2.619-11.979
							c-1.807-1.807-6.399-0.503-11.979,2.619L631.474,114.024z"/>
						<path style="fill:#FFFFFF;" d="M620.035,105.882c-5.694,3.486-12.131,8.578-17.611,14.058
							c-2.411,2.411-4.597,4.857-6.517,7.257l13.034,13.034c2.4-1.92,4.846-4.106,7.257-6.517
							c5.48-5.48,10.572-11.917,14.058-17.611L620.035,105.882z"/>
					</g>
					<g>
						<path style="fill:#FFFFFF;" d="M609.977,153.275l12.011-12.011c1.364-1.364,1.364-3.576,0-4.939
							c-1.364-1.364-3.576-1.364-4.939,0l-12.011,12.011L609.977,153.275z"/>
						<path style="fill:#FFFFFF;" d="M587.491,130.789l12.011-12.011c1.364-1.364,1.364-3.576,0-4.939
							c-1.364-1.364-3.575-1.364-4.939,0l-12.011,12.011L587.491,130.789z"/>
					</g>
				</g>
				<g>
					<polygon style="fill:#FFFFFF;" points="604.544,145.015 591.123,131.594 596.538,131.124 604.308,138.893 					"/>
					<path style="fill:#FFFFFF;" d="M588.879,139.365c-2.18,2.18-3.643,11.537-3.643,11.537s9.357-1.464,11.537-3.643
						c2.18-2.18,2.18-5.714,0-7.894C594.594,137.185,591.059,137.185,588.879,139.365z"/>
				</g>
			</g>
		</g>
	</g>
	<g>
		<g>
			
				<polyline style="fill:none;stroke:#221276;stroke-width:1.6025;stroke-linecap:round;stroke-linejoin:round;stroke-miterlimit:10;" points="
				374.988,100.413 374.988,198 307.693,198 			"/>
			
				<circle style="fill:#FFFFFF;stroke:#221276;stroke-width:1.6025;stroke-linecap:round;stroke-linejoin:round;stroke-miterlimit:10;" cx="309.721" cy="198.178" r="3.606"/>
		</g>
		<g>
			<g>
				<path style="opacity:0.3;fill:#6258CC;" d="M423.678,177.791c0,4.425-3.587,8.012-8.013,8.012h-73.227
					c-4.425,0-8.012-3.587-8.012-8.012V88.319c0-4.425,3.587-8.012,8.012-8.012h73.227c4.425,0,8.013,3.587,8.013,8.012V177.791z"/>
				<path style="fill:#FFFFFF;" d="M419.68,172.792c0,4.425-3.587,8.012-8.012,8.012H338.44c-4.425,0-8.012-3.587-8.012-8.012
					V83.319c0-4.425,3.587-8.012,8.012-8.012h73.227c4.425,0,8.012,3.587,8.012,8.012V172.792z"/>
				<path style="fill:#FFA865;" d="M419.68,148.069V83.319c0-4.425-3.587-8.012-8.012-8.012H338.44
					c-4.425,0-8.012,3.587-8.012,8.012v64.749H419.68z"/>
			</g>
			<g>
				<g>
					<path style="fill:#FFFFFF;" d="M396.211,83.678h-23.242c-2.038,0-3.689,1.637-3.689,3.656v7.243
						c0,2.019,1.652,3.657,3.689,3.657h16.897l5.977,5.485v-5.485h0.369c2.038,0,3.689-1.637,3.689-3.657v-7.243
						C399.9,85.315,398.248,83.678,396.211,83.678z"/>
					<g>
						<ellipse style="fill:#FFA865;" cx="378.435" cy="90.919" rx="1.48" ry="1.467"/>
						<path style="fill:#FFA865;" d="M386.07,90.919c0,0.81-0.663,1.467-1.48,1.467c-0.817,0-1.48-0.657-1.48-1.467
							c0-0.81,0.663-1.467,1.48-1.467C385.407,89.452,386.07,90.109,386.07,90.919z"/>
						<ellipse style="fill:#FFA865;" cx="390.744" cy="90.919" rx="1.48" ry="1.467"/>
					</g>
				</g>
				<g>
					<path style="fill:#FFFFFF;" d="M395.259,114.232h-23.242c-2.038,0-3.689,1.637-3.689,3.657v7.243
						c0,2.02,1.652,3.657,3.689,3.657h16.897l5.977,5.485v-5.485h0.369c2.037,0,3.689-1.637,3.689-3.657v-7.243
						C398.948,115.869,397.296,114.232,395.259,114.232z"/>
					<g>
						<ellipse style="fill:#FFA865;" cx="377.483" cy="121.473" rx="1.48" ry="1.467"/>
						<ellipse style="fill:#FFA865;" cx="383.637" cy="121.473" rx="1.48" ry="1.467"/>
						<path style="fill:#FFA865;" d="M391.272,121.473c0,0.81-0.663,1.467-1.48,1.467s-1.48-0.657-1.48-1.467
							c0-0.81,0.663-1.467,1.48-1.467S391.272,120.663,391.272,121.473z"/>
					</g>
				</g>
				<g>
					<g>
						<path style="fill:#FFFFFF;" d="M353.981,111.609c-2.285-0.286-4.058-2.227-4.058-4.572v-7.243
							c0-2.541,2.082-4.608,4.641-4.608h23.242c2.559,0,4.641,2.067,4.641,4.608v7.243c0,2.541-2.082,4.608-4.641,4.608h-16.526
							l-7.299,6.698V111.609z"/>
						<path style="fill:#FFA865;" d="M377.807,96.137c2.038,0,3.689,1.637,3.689,3.657v7.243c0,2.019-1.652,3.657-3.689,3.657
							H360.91l-5.977,5.485v-5.485h-0.369c-2.037,0-3.689-1.637-3.689-3.657v-7.243c0-2.02,1.652-3.657,3.689-3.657H377.807
							 M377.807,94.234h-23.242c-3.083,0-5.592,2.494-5.592,5.56v7.243c0,2.537,1.718,4.682,4.058,5.347v3.794v4.329l3.19-2.927
							l5.431-4.984h16.156c3.084,0,5.592-2.494,5.592-5.56v-7.243C383.399,96.728,380.89,94.234,377.807,94.234L377.807,94.234z"/>
					</g>
					<g>
						<path style="fill:#FFA865;" d="M370.86,103.378c0,0.81,0.663,1.467,1.48,1.467c0.817,0,1.48-0.657,1.48-1.467
							c0-0.81-0.663-1.467-1.48-1.467C371.523,101.911,370.86,102.568,370.86,103.378z"/>
						<path style="fill:#FFA865;" d="M364.705,103.378c0,0.81,0.663,1.467,1.48,1.467c0.818,0,1.48-0.657,1.48-1.467
							c0-0.81-0.663-1.467-1.48-1.467C365.368,101.911,364.705,102.568,364.705,103.378z"/>
						<ellipse style="fill:#FFA865;" cx="360.031" cy="103.378" rx="1.48" ry="1.467"/>
					</g>
				</g>
			</g>
		</g>
	</g>
	<g>
		<g>
			
				<polyline style="fill:none;stroke:#221276;stroke-width:1.6025;stroke-linecap:round;stroke-linejoin:round;stroke-miterlimit:10;" points="
				138.567,176.4 138.567,251.728 186.642,251.728 			"/>
			
				<circle style="fill:#FFFFFF;stroke:#221276;stroke-width:1.6025;stroke-linecap:round;stroke-linejoin:round;stroke-miterlimit:10;" cx="184.613" cy="251.906" r="3.606"/>
		</g>
		<g>
			<g>
				<path style="opacity:0.3;fill:#6258CC;" d="M184.01,197.48c0,4.425-3.587,8.012-8.012,8.012H102.77
					c-4.425,0-8.012-3.587-8.012-8.012v-89.473c0-4.425,3.587-8.012,8.012-8.012h73.227c4.425,0,8.012,3.587,8.012,8.012V197.48z"/>
				<path style="fill:#FFFFFF;" d="M180.011,192.48c0,4.425-3.587,8.012-8.012,8.012H98.772c-4.425,0-8.012-3.587-8.012-8.012
					v-89.473c0-4.425,3.587-8.012,8.012-8.012h73.227c4.425,0,8.012,3.587,8.012,8.012V192.48z"/>
				<path style="fill:#00C0CB;" d="M180.011,167.757v-64.749c0-4.425-3.587-8.012-8.012-8.012H98.772
					c-4.425,0-8.012,3.587-8.012,8.012v64.749H180.011z"/>
			</g>
			<g>
				<g>
					<path style="fill:#FFFFFF;" d="M147.68,149.895c0,1.719-1.393,3.113-3.112,3.113h-33.2c-1.719,0-3.112-1.393-3.112-3.113
						v-45.442c0-1.719,1.394-3.112,3.112-3.112h33.2c1.719,0,3.112,1.394,3.112,3.112V149.895z"/>
					<g>
						<g>
							<g>
								<path style="fill:none;stroke:#00C0CB;stroke-width:2;stroke-miterlimit:10;" d="M125.872,137.525
									c0,1.387-1.124,2.511-2.511,2.511h-9.71c-1.387,0-2.511-1.124-2.511-2.511v-9.71c0-1.387,1.124-2.511,2.511-2.511h9.71
									c1.387,0,2.511,1.124,2.511,2.511V137.525z"/>
								<g>
									
										<line style="fill:none;stroke:#00C0CB;stroke-width:2;stroke-linecap:round;stroke-linejoin:round;stroke-miterlimit:10;" x1="132.181" y1="128.194" x2="143.796" y2="128.194"/>
									
										<line style="fill:none;stroke:#00C0CB;stroke-width:2;stroke-linecap:round;stroke-linejoin:round;stroke-miterlimit:10;" x1="132.181" y1="132.67" x2="143.796" y2="132.67"/>
									
										<line style="fill:none;stroke:#00C0CB;stroke-width:2;stroke-linecap:round;stroke-linejoin:round;stroke-miterlimit:10;" x1="132.181" y1="137.146" x2="137.132" y2="137.146"/>
								</g>
							</g>
							
								<polyline style="fill:none;stroke:#00C0CB;stroke-width:2;stroke-linecap:round;stroke-linejoin:round;stroke-miterlimit:10;" points="
								114.697,133.047 118.753,137.103 129.943,125.913 							"/>
						</g>
						<g>
							<g>
								<path style="fill:none;stroke:#00C0CB;stroke-width:2;stroke-miterlimit:10;" d="M125.872,117.522
									c0,1.387-1.124,2.511-2.511,2.511h-9.71c-1.387,0-2.511-1.124-2.511-2.511v-9.71c0-1.387,1.124-2.511,2.511-2.511h9.71
									c1.387,0,2.511,1.124,2.511,2.511V117.522z"/>
								<g>
									
										<line style="fill:none;stroke:#00C0CB;stroke-width:2;stroke-linecap:round;stroke-linejoin:round;stroke-miterlimit:10;" x1="132.181" y1="108.191" x2="143.796" y2="108.191"/>
									
										<line style="fill:none;stroke:#00C0CB;stroke-width:2;stroke-linecap:round;stroke-linejoin:round;stroke-miterlimit:10;" x1="132.181" y1="112.667" x2="143.796" y2="112.667"/>
									
										<line style="fill:none;stroke:#00C0CB;stroke-width:2;stroke-linecap:round;stroke-linejoin:round;stroke-miterlimit:10;" x1="132.181" y1="117.143" x2="137.132" y2="117.143"/>
								</g>
							</g>
							
								<polyline style="fill:none;stroke:#00C0CB;stroke-width:2;stroke-linecap:round;stroke-linejoin:round;stroke-miterlimit:10;" points="
								114.697,112.688 118.753,116.744 129.943,105.554 							"/>
						</g>
					</g>
				</g>
				
					<path style="fill:#FFFFFF;stroke:#00C0CB;stroke-width:2;stroke-linecap:round;stroke-linejoin:round;stroke-miterlimit:10;" d="
					M138.719,148.859l3.915-8.783l21.626-21.626c1.432-1.432,3.754-1.432,5.185,0l0,0c1.432,1.432,1.432,3.754,0,5.185
					l-21.626,21.626L138.719,148.859L138.719,148.859z"/>
			</g>
		</g>
	</g>
	<g>
		<path style="fill:#221276;" d="M531.685,47.186c0,8.976-7.277,16.253-16.253,16.253H234.568c-8.976,0-16.253-7.277-16.253-16.253
			v-6.499c0-8.976,7.277-16.253,16.253-16.253h280.864c8.976,0,16.253,7.277,16.253,16.253V47.186z"/>
	</g>
</g>
<g id="TEXTS">
	<g>
		<path id="SVGID_x5F_1_x5F_" style="fill:none;" d="M183.278,287.488c0,0-0.402,33.324,38.837,59.246
			c39.239,25.922,84.775,4.124,84.775,4.124"/>
		<text>		<textPath  xlink:href="#SVGID_x5F_1_x5F_" startOffset="0.4395%">
<tspan  style="fill:#FFFFFF; font-family:'OpenSans-Extrabold'; font-size:11.2174px; letter-spacing:25;">BUILD</tspan>		</textPath>
</text>
		<path id="SVGID_x5F_00000160890601081357526710000014012898080915202436_x5F_" style="fill:none;" d="M453.979,359.51
			c0,0,29.992,14.53,70.136-9.968c40.144-24.497,39.77-74.98,39.77-74.98"/>
		<text>		<textPath  xlink:href="#SVGID_x5F_00000160890601081357526710000014012898080915202436_x5F_" startOffset="0.4395%">
<tspan  style="fill:#FFFFFF; font-family:'OpenSans-Extrabold'; font-size:11.2174px; letter-spacing:25;">OPERATE</tspan>		</textPath>
</text>
		<path id="SVGID_x5F_00000181766310793595639730000002185680492204043188_x5F_" style="fill:none;" d="M191.92,284.767
			c0,0-3.41-39.407,29.175-63.486c32.584-24.079,73.37-1.575,73.37-1.575"/>
		<text>		<textPath  xlink:href="#SVGID_x5F_00000181766310793595639730000002185680492204043188_x5F_" startOffset="0.3905%">
<tspan  style="fill:#FFFFFF; font-family:'OpenSans-Extrabold'; font-size:11.2174px; letter-spacing:25;">PLAN</tspan>		</textPath>
</text>
		<path id="SVGID_x5F_00000099649240698228610930000005394516554229956491_x5F_" style="fill:none;" d="M453.538,211.441
			c0,0,35.896-16.614,69.625,5.833s26.445,68.457,26.445,68.457"/>
		<text>		<textPath  xlink:href="#SVGID_x5F_00000099649240698228610930000005394516554229956491_x5F_" startOffset="0.3905%">
<tspan  style="fill:#FFFFFF; font-family:'OpenSans-Extrabold'; font-size:11.2174px; letter-spacing:25;">DEPLOY</tspan>		</textPath>
</text>
		<g>
			<path id="SVGID_x5F_00000095316230805848478000000012233863970814924197_x5F_" style="fill:none;" d="M286.027,201.936
				l152.174,161.275"/>
			<text>			<textPath  xlink:href="#SVGID_x5F_00000095316230805848478000000012233863970814924197_x5F_" startOffset="7.349%">
<tspan  style="fill:#FFFFFF; font-family:'OpenSans-Extrabold'; font-size:11.2174px; letter-spacing:25;">CONTINOUS                     FEEDBACK</tspan>			</textPath>
</text>
		</g>
		<g>
			<path id="SVGID_x5F_00000084489789529963880280000015510732323907318448_x5F_" style="fill:none;" d="M299.216,364.266
				l149.033-164.182"/>
			<text>			<textPath  xlink:href="#SVGID_x5F_00000084489789529963880280000015510732323907318448_x5F_" startOffset="7.349%">
<tspan  style="fill:#FFFFFF; font-family:'OpenSans-Extrabold'; font-size:11.2174px; letter-spacing:25;">CONTINOUS INTEGRATION</tspan>			</textPath>
</text>
		</g>
	</g>
	<rect x="96.278" y="157.609" style="fill:none;" width="78.215" height="44.049"/>
	<text transform="matrix(1 0 0 1 102.5521 164.3878)"><tspan x="0" y="0" style="fill:#FFFFFF; font-family:'OpenSans-Extrabold'; font-size:8.9199px;">LOREM IPSUM </tspan><tspan x="5.324" y="12.714" style="fill:#221276; font-family:'OpenSans'; font-size:7.6456px;">Dolor sit amet, </tspan><tspan x="10.863" y="21.889" style="fill:#221276; font-family:'OpenSans'; font-size:7.6456px;">consectetur </tspan><tspan x="6.165" y="31.063" style="fill:#221276; font-family:'OpenSans'; font-size:7.6456px;">adipiscing elit.</tspan></text>
	<rect x="96.611" y="415.588" style="fill:none;" width="78.215" height="44.049"/>
	<text transform="matrix(1 0 0 1 102.8858 422.3668)"><tspan x="0" y="0" style="fill:#FFFFFF; font-family:'OpenSans-Extrabold'; font-size:8.9199px;">LOREM IPSUM </tspan><tspan x="5.324" y="12.714" style="fill:#221276; font-family:'OpenSans'; font-size:7.6456px;">Dolor sit amet, </tspan><tspan x="10.863" y="21.889" style="fill:#221276; font-family:'OpenSans'; font-size:7.6456px;">consectetur </tspan><tspan x="6.165" y="31.063" style="fill:#221276; font-family:'OpenSans'; font-size:7.6456px;">adipiscing elit.</tspan></text>
	<rect x="336.28" y="434.921" style="fill:none;" width="78.215" height="44.049"/>
	<text transform="matrix(1 0 0 1 342.5544 441.7001)"><tspan x="0" y="0" style="fill:#FFFFFF; font-family:'OpenSans-Extrabold'; font-size:8.9199px;">LOREM IPSUM </tspan><tspan x="5.324" y="12.714" style="fill:#221276; font-family:'OpenSans'; font-size:7.6456px;">Dolor sit amet, </tspan><tspan x="10.863" y="21.889" style="fill:#221276; font-family:'OpenSans'; font-size:7.6456px;">consectetur </tspan><tspan x="6.165" y="31.063" style="fill:#221276; font-family:'OpenSans'; font-size:7.6456px;">adipiscing elit.</tspan></text>
	<rect x="336.28" y="137.921" style="fill:none;" width="78.215" height="44.049"/>
	<text transform="matrix(1 0 0 1 342.5544 144.6995)"><tspan x="0" y="0" style="fill:#FFFFFF; font-family:'OpenSans-Extrabold'; font-size:8.9199px;">LOREM IPSUM </tspan><tspan x="5.324" y="12.714" style="fill:#221276; font-family:'OpenSans'; font-size:7.6456px;">Dolor sit amet, </tspan><tspan x="10.863" y="21.889" style="fill:#221276; font-family:'OpenSans'; font-size:7.6456px;">consectetur </tspan><tspan x="6.165" y="31.063" style="fill:#221276; font-family:'OpenSans'; font-size:7.6456px;">adipiscing elit.</tspan></text>
	<rect x="569.945" y="415.588" style="fill:none;" width="78.215" height="44.049"/>
	<text transform="matrix(1 0 0 1 576.2191 422.3668)"><tspan x="0" y="0" style="fill:#FFFFFF; font-family:'OpenSans-Extrabold'; font-size:8.9199px;">LOREM IPSUM </tspan><tspan x="5.324" y="12.714" style="fill:#221276; font-family:'OpenSans'; font-size:7.6456px;">Dolor sit amet, </tspan><tspan x="10.863" y="21.889" style="fill:#221276; font-family:'OpenSans'; font-size:7.6456px;">consectetur </tspan><tspan x="6.165" y="31.063" style="fill:#221276; font-family:'OpenSans'; font-size:7.6456px;">adipiscing elit.</tspan></text>
	<rect x="569.611" y="157.609" style="fill:none;" width="78.215" height="44.049"/>
	<text transform="matrix(1 0 0 1 575.8859 164.3878)"><tspan x="0" y="0" style="fill:#FFFFFF; font-family:'OpenSans-Extrabold'; font-size:8.9199px;">LOREM IPSUM </tspan><tspan x="5.324" y="12.714" style="fill:#221276; font-family:'OpenSans'; font-size:7.6456px;">Dolor sit amet, </tspan><tspan x="10.863" y="21.889" style="fill:#221276; font-family:'OpenSans'; font-size:7.6456px;">consectetur </tspan><tspan x="6.165" y="31.063" style="fill:#221276; font-family:'OpenSans'; font-size:7.6456px;">adipiscing elit.</tspan></text>
	<rect x="228.051" y="33.721" style="fill:none;" width="293.897" height="34.887"/>
	
		<text transform="matrix(1 0 0 1 240.1445 53.5121)" style="fill:#FFFFFF; font-family:'Bungee-Regular'; font-size:27.4882px; letter-spacing:1;">DEVOPS CONCEPT</text>
</g>
</svg>
