<?xml version="1.0" encoding="utf-8"?>
<!-- Generator: Adobe Illustrator 27.5.0, SVG Export Plug-In . SVG Version: 6.00 Build 0)  -->
<svg version="1.1" xmlns="http://www.w3.org/2000/svg" xmlns:xlink="http://www.w3.org/1999/xlink" x="0px" y="0px"
	 viewBox="0 0 3415 2500" style="enable-background:new 0 0 3415 2500;" xml:space="preserve">
<g id="Background">
	<rect style="fill:#FFFFFF;" width="3415" height="2500"/>
</g>
<g id="Illustration">
	<g id="AI-Enhanced_Chatbots_for_Customer_Support_1_">
		<g>
			<g>
				<polygon style="fill:#BFC8D6;" points="2563.05,537.301 2349.695,527.913 2349.888,523.508 2561.435,532.816 2679.323,426.196 
					2919.753,438.735 2919.523,443.139 2680.922,430.695 				"/>
				<path style="fill:#BFC8D6;" d="M2949.264,442.482c0,9.558-7.946,16.903-17.761,16.403c-9.829-0.5-17.808-8.675-17.808-18.258
					c0-9.584,7.979-16.926,17.808-16.401C2941.318,424.751,2949.264,432.924,2949.264,442.482z"/>
			</g>
			<g>
				<polygon style="fill:#BFC8D6;" points="2623.16,592.156 2349.703,581.159 2349.88,576.753 2621.526,587.677 2730.295,488.442 
					2872.031,495.216 2871.82,499.621 2731.914,492.934 				"/>
				<path style="fill:#BFC8D6;" d="M2883.72,498.879c0,9.605-8.024,17.018-17.935,16.558c-9.926-0.461-17.982-8.642-17.982-18.273
					c0-9.63,8.057-17.043,17.982-16.556C2875.696,481.095,2883.72,489.274,2883.72,498.879z"/>
			</g>
			<g>
				<polygon style="fill:#BFC8D6;" points="2667.821,639.941 2339.309,627.832 2339.47,623.426 2666.171,635.468 2741.965,565.83 
					2995.47,576.519 2995.285,580.925 2743.604,570.313 				"/>
				<path style="fill:#BFC8D6;" d="M3009.035,579.298c0,9.516-7.876,16.908-17.604,16.51c-9.742-0.398-17.65-8.456-17.65-17.997
					c0-9.541,7.908-16.932,17.65-16.508C3001.159,561.726,3009.035,569.782,3009.035,579.298z"/>
			</g>
			<polygon style="fill:#BFC8D6;" points="2524.563,507.853 2352.325,499.929 2352.527,495.525 2522.959,503.365 2590.743,442.373 
				2593.693,445.651 			"/>
			<g>
				<polygon style="fill:#BFC8D6;" points="2705.271,685.922 2377.422,674.905 2377.57,670.498 2703.609,681.454 2766.888,622.942 
					3051.932,633.789 3051.764,638.195 2768.543,627.418 				"/>
				<path style="fill:#BFC8D6;" d="M3080,637.063c0,9.466-7.792,16.852-17.417,16.498c-9.639-0.354-17.463-8.335-17.463-17.825
					c0-9.49,7.824-16.876,17.463-16.497C3072.208,619.618,3080,627.597,3080,637.063z"/>
			</g>
		</g>
		<g>
			<g>
				<g>
					<g>
						<linearGradient id="SVGID_1_" gradientUnits="userSpaceOnUse" x1="2535.3657" y1="1652.04" x2="1831.0353" y2="1051.2137">
							<stop  offset="0" style="stop-color:#444B8C"/>
							<stop  offset="0.9964" style="stop-color:#26264F"/>
						</linearGradient>
						<path style="fill:url(#SVGID_1_);" d="M2363.596,400.626v1471.872c0,22.011-18.804,26.748-40.127,27.445l-730.85,37.797
							l-11.072,0.362c-22.719,0.743-41.339-17.282-41.339-40.057V375.079c0-22.775,18.62-40.8,41.339-40.057l15.026,0.491
							l733.525,57.051C2351.421,393.262,2363.596,378.615,2363.596,400.626z"/>
						
							<linearGradient id="SVGID_00000165950466908995349210000006250079103906658492_" gradientUnits="userSpaceOnUse" x1="-880.7219" y1="2879.2402" x2="1714.7388" y2="2975.7891" gradientTransform="matrix(0 -1 1 0 -932.0323 981.3226)">
							<stop  offset="0" style="stop-color:#444B8C"/>
							<stop  offset="0.9964" style="stop-color:#26264F"/>
						</linearGradient>
						<path style="fill:url(#SVGID_00000165950466908995349210000006250079103906658492_);" d="M2386.365,400.626v1471.872
							c0,22.011-17.417,40.59-38.74,41.287l-743.309,24.317c-22.719,0.743-41.339-17.282-41.339-40.057V375.079
							c0-22.775,18.62-40.8,41.339-40.057l743.309,24.317C2368.947,360.036,2386.365,378.615,2386.365,400.626z"/>
						
							<linearGradient id="SVGID_00000091702433718948810290000002151899143454316707_" gradientUnits="userSpaceOnUse" x1="1588.6801" y1="1164.1278" x2="2362.3071" y2="1164.1278">
							<stop  offset="0" style="stop-color:#FF9085"/>
							<stop  offset="1" style="stop-color:#FB6FBB"/>
						</linearGradient>
						<path style="fill:url(#SVGID_00000091702433718948810290000002151899143454316707_);" d="M2362.307,481.541v1363.515
							c0,20.55-16.277,37.875-36.202,38.501l-698.945,21.956c-21.149,0.665-38.48-16.152-38.48-37.372V460.199
							c0-21.219,17.331-38.076,38.48-37.459l698.945,20.382C2346.03,443.703,2362.307,460.991,2362.307,481.541z"/>
					</g>
					<path style="fill:#DE8BDF;" d="M1995.498,392.991c0,7.756-6.178,13.856-13.803,13.625c-7.63-0.231-13.819-6.713-13.819-14.477
						c0-7.765,6.189-13.865,13.819-13.625C1989.32,378.754,1995.498,385.235,1995.498,392.991z"/>
				</g>
				
					<linearGradient id="SVGID_00000028290429350563522920000013463324461008812448_" gradientUnits="userSpaceOnUse" x1="1941.8551" y1="1135.6841" x2="2386.364" y2="1135.6841">
					<stop  offset="0" style="stop-color:#FF9085"/>
					<stop  offset="1" style="stop-color:#FB6FBB"/>
				</linearGradient>
				<path style="opacity:0.3;fill:url(#SVGID_00000028290429350563522920000013463324461008812448_);" d="M2386.364,399.786
					c0-21.842-17.328-39.746-39.158-40.46l-405.351-13.261C2092.21,505.4,2126.017,639.08,2129.876,730.434
					c11.015,260.759-213.624,374.367-171.856,659.537c11.451,78.177,36.774,127.274,46.666,262.322
					c8.432,115.134-0.382,210.431-9.163,273.01l352.102-11.519c21.322-0.697,38.739-19.276,38.739-41.287V399.786z"/>
			</g>
			<g>
				<path style="opacity:0.74;fill:#FFFFFF;" d="M1774.058,885.955l-19.127-0.743c-16.408-0.638-26.448-18.299-18.18-32.019
					c11.453-19.006,26.087-43.512,37.547-63.453c3.569-6.211,3.174-13.99-1.084-19.989c-3.313-4.668-6.726-8.79-6.726-16.713
					c0-119.306,101.159-211.438,223.858-205.878c120.454,5.458,216.495,103.346,216.495,218.728
					c0,44.476-14.187,85.381-38.433,118.81c-16.508,22.76-25.311,50.426-25.311,78.927v154.204l-201.509-0.401l-9.295-59.167
					c-3.959-25.202-28.391-42.209-53.692-37.283l-28.549,5.598c-30.936,6.066-60.89-15.345-64.713-46.392
					C1779.556,933.214,1775.689,894.032,1774.058,885.955z"/>
				
					<linearGradient id="SVGID_00000124842745840735497540000015835237017584116366_" gradientUnits="userSpaceOnUse" x1="1951.6902" y1="724.2415" x2="2165.6108" y2="724.2415">
					<stop  offset="0" style="stop-color:#AA80F9"/>
					<stop  offset="0.9964" style="stop-color:#6165D7"/>
				</linearGradient>
				<path style="fill:url(#SVGID_00000124842745840735497540000015835237017584116366_);" d="M2149.793,728.553
					c-0.846-0.251-1.69-0.43-2.534-0.572c0.117-8.848-1.096-17.577-3.508-25.932c0.783-0.314,1.556-0.664,2.311-1.083
					c10.114-5.616,13.517-18.596,7.612-29.008c-5.911-10.421-18.921-14.345-29.068-8.748c-0.757,0.417-1.464,0.888-2.145,1.383
					c-5.987-6.413-12.935-12.017-20.688-16.566c0.316-0.789,0.602-1.599,0.825-2.446c2.993-11.357-3.834-23.369-15.266-26.838
					c-11.452-3.476-23.192,2.932-26.204,14.323c-0.224,0.849-0.377,1.702-0.494,2.554c-8.899-0.464-17.647,0.429-25.986,2.559
					c-0.344-0.809-0.724-1.611-1.172-2.395c-6.021-10.533-19.272-14.53-29.608-8.911c-10.352,5.629-13.843,18.761-7.788,29.315
					c0.451,0.786,0.953,1.523,1.481,2.234c-6.271,5.855-11.686,12.714-15.998,20.429c-0.812-0.349-1.643-0.669-2.511-0.926
					c-11.643-3.452-23.578,3.062-26.641,14.561c-3.064,11.505,3.92,23.61,15.582,27.028c0.869,0.255,1.737,0.437,2.604,0.582
					c-0.12,8.968,1.125,17.813,3.602,26.272c-0.803,0.321-1.597,0.678-2.372,1.105c-10.402,5.738-13.911,18.934-7.826,29.458
					c6.079,10.514,19.42,14.357,29.787,8.599c0.772-0.428,1.494-0.91,2.188-1.416c6.099,6.414,13.161,11.99,21.025,16.483
					c-0.32,0.799-0.61,1.617-0.836,2.472c-3.034,11.474,3.883,23.463,15.433,26.768c11.53,3.299,23.307-3.309,26.323-14.75
					c0.225-0.852,0.377-1.707,0.494-2.561c8.891,0.343,17.606-0.666,25.892-2.899c0.341,0.801,0.718,1.595,1.163,2.37
					c5.968,10.402,19.064,14.174,29.242,8.442c10.162-5.724,13.582-18.766,7.648-29.148c-0.443-0.774-0.936-1.499-1.453-2.198
					c6.149-5.856,11.447-12.688,15.661-20.345c0.793,0.34,1.604,0.649,2.451,0.897c11.342,3.324,22.927-3.176,25.894-14.509
					C2167.878,743.808,2161.116,731.911,2149.793,728.553z M2049.382,762.48c-21.407-6.243-34.243-28.573-28.611-49.84
					c5.628-21.248,27.539-33.289,48.88-26.93c21.272,6.339,33.96,28.58,28.399,49.713
					C2092.483,756.574,2070.719,768.703,2049.382,762.48z"/>
				
					<linearGradient id="SVGID_00000159437631375191298910000012441600521532987017_" gradientUnits="userSpaceOnUse" x1="1823.3472" y1="720.5597" x2="1935.9508" y2="720.5597">
					<stop  offset="0" style="stop-color:#AA80F9"/>
					<stop  offset="0.9964" style="stop-color:#6165D7"/>
				</linearGradient>
				<path style="fill:url(#SVGID_00000159437631375191298910000012441600521532987017_);" d="M1927.564,722.863
					c-0.448-0.13-0.896-0.224-1.343-0.299c0.062-4.609-0.581-9.157-1.858-13.509c0.415-0.164,0.824-0.346,1.224-0.564
					c5.36-2.93,7.164-9.697,4.033-15.118c-3.133-5.424-10.022-7.453-15.391-4.529c-0.4,0.218-0.775,0.464-1.135,0.722
					c-3.166-3.331-6.837-6.239-10.933-8.595c0.167-0.411,0.318-0.833,0.436-1.273c1.581-5.912-2.024-12.148-8.057-13.93
					c-6.038-1.785-12.223,1.566-13.809,7.487c-0.118,0.441-0.198,0.884-0.26,1.327c-4.683-0.227-9.284,0.25-13.667,1.367
					c-0.181-0.419-0.38-0.834-0.616-1.24c-3.163-5.455-10.119-7.504-15.539-4.573c-5.425,2.933-7.254,9.741-4.082,15.201
					c0.236,0.406,0.5,0.788,0.776,1.156c-3.285,3.04-6.121,6.597-8.378,10.596c-0.425-0.18-0.86-0.345-1.314-0.477
					c-6.09-1.778-12.328,1.602-13.928,7.551c-1.6,5.952,2.048,12.212,8.143,13.981c0.454,0.132,0.908,0.226,1.362,0.301
					c-0.063,4.642,0.589,9.221,1.884,13.601c-0.42,0.166-0.836,0.35-1.241,0.57c-5.439,2.963-7.272,9.787-4.092,15.239
					c3.179,5.449,10.159,7.456,15.588,4.489c0.404-0.221,0.782-0.47,1.146-0.731c3.196,3.331,6.899,6.232,11.024,8.573
					c-0.168,0.413-0.32,0.837-0.438,1.28c-1.592,5.943,2.037,12.173,8.103,13.911c6.06,1.737,12.254-1.667,13.841-7.602
					c0.118-0.442,0.199-0.886,0.26-1.329c4.681,0.195,9.273-0.314,13.641-1.459c0.18,0.417,0.379,0.83,0.614,1.234
					c3.148,5.419,10.062,7.407,15.439,4.445c5.373-2.959,7.182-9.742,4.043-15.155c-0.234-0.403-0.494-0.781-0.768-1.146
					c3.252-3.04,6.056-6.59,8.286-10.573c0.42,0.177,0.849,0.339,1.298,0.47c6.008,1.744,12.15-1.632,13.724-7.538
					C1937.154,730.821,1933.567,724.616,1927.564,722.863z M1874.551,740.451c-11.251-3.257-17.99-14.843-15.034-25.869
					c2.955-11.021,14.47-17.282,25.704-13.993c11.215,3.283,17.913,14.845,14.976,25.835
					C1897.259,737.419,1885.784,743.703,1874.551,740.451z"/>
				
					<linearGradient id="SVGID_00000085952541258956740630000001970059862755370151_" gradientUnits="userSpaceOnUse" x1="1898.5027" y1="617.0273" x2="1980.069" y2="617.0273">
					<stop  offset="0" style="stop-color:#AA80F9"/>
					<stop  offset="0.9964" style="stop-color:#6165D7"/>
				</linearGradient>
				<path style="fill:url(#SVGID_00000085952541258956740630000001970059862755370151_);" d="M1973.981,618.986
					c-0.325-0.098-0.65-0.169-0.974-0.225c0.045-3.357-0.421-6.672-1.349-9.849c0.301-0.117,0.598-0.247,0.888-0.404
					c3.89-2.105,5.2-7.024,2.927-10.989c-2.274-3.967-7.273-5.481-11.168-3.379c-0.29,0.156-0.562,0.333-0.823,0.52
					c-2.296-2.442-4.959-4.578-7.928-6.314c0.121-0.298,0.231-0.605,0.316-0.925c1.146-4.296-1.468-8.853-5.841-10.18
					c-4.376-1.328-8.857,1.08-10.006,5.381c-0.085,0.32-0.143,0.642-0.188,0.964c-3.392-0.189-6.724,0.135-9.898,0.927
					c-0.131-0.306-0.275-0.609-0.446-0.906c-2.289-3.983-7.324-5.507-11.246-3.402c-3.925,2.106-5.247,7.047-2.953,11.033
					c0.171,0.297,0.361,0.575,0.561,0.844c-2.376,2.193-4.427,4.765-6.06,7.66c-0.307-0.133-0.622-0.255-0.95-0.354
					c-4.403-1.325-8.912,1.098-10.069,5.414c-1.156,4.317,1.48,8.887,5.886,10.207c0.328,0.099,0.657,0.17,0.984,0.227
					c-0.045,3.374,0.425,6.706,1.362,9.898c-0.304,0.118-0.604,0.25-0.897,0.408c-3.932,2.122-5.257,7.072-2.958,11.053
					c2.298,3.98,7.345,5.483,11.272,3.358c0.293-0.158,0.566-0.337,0.829-0.525c2.313,2.443,4.992,4.574,7.977,6.303
					c-0.121,0.3-0.231,0.607-0.317,0.928c-1.152,4.312,1.475,8.866,5.865,10.17c4.387,1.303,8.873-1.134,10.023-5.441
					c0.086-0.321,0.144-0.644,0.188-0.966c3.391,0.171,6.718-0.169,9.884-0.975c0.13,0.304,0.274,0.607,0.444,0.902
					c2.282,3.964,7.294,5.456,11.193,3.335c3.897-2.12,5.21-7.048,2.933-11.009c-0.17-0.295-0.359-0.572-0.557-0.839
					c2.359-2.194,4.393-4.762,6.011-7.648c0.305,0.132,0.616,0.253,0.941,0.35c4.36,1.306,8.819-1.116,9.961-5.408
					C1980.942,624.837,1978.338,620.297,1973.981,618.986z M1935.546,631.479c-8.146-2.436-13.023-10.903-10.884-18.905
					c2.139-8,10.476-12.492,18.613-10.04c8.127,2.45,12.983,10.903,10.854,18.887
					C1951.999,629.407,1943.683,633.913,1935.546,631.479z"/>
			</g>
			<g>
				<path style="opacity:0.74;fill:#FFFFFF;" d="M1759.011,1261.23l468.005-3.757c18.693-0.15,33.81-14.288,33.81-31.579
					s-15.118-31.253-33.81-31.186l-468.005,1.683c-20.003,0.072-36.256,14.681-36.256,32.63S1739.008,1261.39,1759.011,1261.23z"/>
				<path style="opacity:0.74;fill:#FFFFFF;" d="M2227.015,1302.344l-468.005,5.239c-20.003,0.224-36.256,14.956-36.256,32.905
					c0,17.949,16.254,32.245,36.256,31.933l468.005-7.312c18.693-0.292,33.81-14.545,33.81-31.836
					C2260.826,1315.982,2245.708,1302.135,2227.015,1302.344z"/>
			</g>
		</g>
		<g>
			<path style="fill:#F4F7FA;" d="M1661.768,2165c0,0,1454.847-48.929,1150.638-150.856
				c-304.209-101.928,177.41-116.725,188.134-193.353c10.724-76.628-1117.276-81.856-1428.432-65.806
				c-311.157,16.05-1052.12,7.19-1102.645,160.316C418.939,2068.427,1148.301,2162.795,1661.768,2165z"/>
			<path style="fill:#D8DEE8;" d="M1604.316,1938.102l656.51,18.201l-337.011,33.286c-20.738,2.048-31.101,26.133-18.33,42.6v0
				c5.179,6.677,13.233,10.483,21.681,10.245l148.626-4.192l423.274-128.231l-153.049-131.694L1604.316,1938.102z"/>
			<path style="fill:#D8DEE8;" d="M1130.951,1979.474c0,0-308.953-18.995-307.197,17.878
				c1.756,36.873,210.207,94.816,549.335,115.886c339.128,21.07,598.995-93.06,286.453-126.421
				C1347,1953.455,1130.951,1979.474,1130.951,1979.474z"/>
		</g>
		<g>
			<g>
				<polygon style="fill:#BFC8D6;" points="911.55,1339.047 777.796,1212.822 460.334,1213.264 460.328,1208.854 779.547,1208.41 
					913.284,1334.619 1141.614,1332.202 1141.661,1336.611 				"/>
				<path style="fill:#BFC8D6;" d="M423.048,1211.111c0,11.415,10.036,20.641,22.395,20.606
					c12.338-0.035,22.325-9.289,22.325-20.668c0-11.38-9.986-20.605-22.325-20.606
					C433.084,1190.442,423.048,1199.696,423.048,1211.111z"/>
			</g>
			<g>
				<polygon style="fill:#BFC8D6;" points="843.981,1398.84 718.425,1281.477 576.744,1282.371 576.716,1277.961 720.154,1277.056 
					845.692,1394.404 1141.605,1390.006 1141.67,1394.416 				"/>
				<path style="fill:#BFC8D6;" d="M562.275,1281.313c0,11.304,9.84,20.39,21.96,20.295c12.099-0.095,21.891-9.307,21.891-20.575
					c0-11.269-9.793-20.355-21.891-20.296C572.115,1260.797,562.275,1270.009,562.275,1281.313z"/>
			</g>
			<g>
				<polygon style="fill:#BFC8D6;" points="792.96,1452.001 704.698,1370.14 373.018,1374.338 372.962,1369.928 706.405,1365.708 
					794.654,1447.559 1152.449,1440.889 1152.53,1445.298 				"/>
				<path style="fill:#BFC8D6;" d="M355.437,1372.356c0,11.47,10.131,20.625,22.608,20.449c12.456-0.176,22.537-9.587,22.537-21.02
					c0-11.433-10.081-20.589-22.537-20.449C365.568,1351.474,355.437,1360.886,355.437,1372.356z"/>
			</g>
			<polygon style="fill:#BFC8D6;" points="954.164,1307.662 877.348,1234.769 880.384,1231.57 955.909,1303.237 1138.866,1301.714 
				1138.903,1306.123 			"/>
			<g>
				<polygon style="fill:#BFC8D6;" points="749.625,1503.926 675.212,1435.401 511.787,1438.227 511.712,1433.819 676.9,1430.961 
					751.305,1499.478 1112.52,1491.417 1112.619,1495.825 				"/>
				<path style="fill:#BFC8D6;" d="M475.882,1436.643c0,11.373,9.961,20.406,22.229,20.176c12.247-0.23,22.16-9.606,22.16-20.944
					c0-11.337-9.913-20.371-22.16-20.177C485.843,1415.893,475.882,1425.27,475.882,1436.643z"/>
			</g>
		</g>
		<g>
			<g>
				
					<linearGradient id="SVGID_00000113343518511679978560000017216816174125028015_" gradientUnits="userSpaceOnUse" x1="2394.5623" y1="1330.0537" x2="2876.7466" y2="1330.0537" gradientTransform="matrix(1 0 0 1 -5.9077 0.3914)">
					<stop  offset="0" style="stop-color:#AA80F9"/>
					<stop  offset="0.9964" style="stop-color:#6165D7"/>
				</linearGradient>
				<path style="fill:url(#SVGID_00000113343518511679978560000017216816174125028015_);" d="M2859.87,938.731
					c-33.694,58.013-132.946,92.19-95.973,174.714c10.725,23.982,27.042,47.481,28.681,74.403
					c1.686,27.621-21.644,46.974-37.334,66.738c-16.437,20.68-28.368,42.395-30.272,69.245
					c-2.843,39.648,23.163,67.292,41.865,99.227c21.644,36.9,5.35,59.965-22.271,87.394
					c-59.146,58.735-21.571,149.865-30.127,222.17c-8.459,71.511-45.841,125.113-112.941,152.71
					c-32.586,13.424-67.557,20.438-102.433,24.68c-26.897,3.277-56.518,1.06-84.332,3.086c-0.025,0.024-0.048-0.006-0.073-0.006
					c-3.977,0.289-7.905,1.127-11.785,1.127h-0.025c-4.82,0-9.569,1.428-14.196,2.44c44.902-9.882,136.971-127.387,122.51-191.643
					c-14.461-64.28-51.433-110.861-7.592-173.959c43.841-63.099-0.458-68.663-42.227-136.148
					c-41.769-67.485-48.204-122.122,10.556-155.72c58.737-33.574,55.314-33.886,11.931-198.503
					c-43.408-164.64,115.689-290.089,212.096-313.612c24.705-6.026,63.268-2.17,86.236,8.797c4.073,1.952,8.026,4.145,11.906,6.628
					c15.546,9.809,29.381,23.499,40.95,39.262C2862.281,838.948,2885.225,895.058,2859.87,938.731z"/>
				
					<linearGradient id="SVGID_00000098930905499441846240000009018541268407451285_" gradientUnits="userSpaceOnUse" x1="2420.6411" y1="1337.406" x2="2876.7466" y2="1337.406" gradientTransform="matrix(1 0 0 1 -5.9077 0.3914)">
					<stop  offset="0" style="stop-color:#AA80F9"/>
					<stop  offset="0.9964" style="stop-color:#6165D7"/>
				</linearGradient>
				<path style="opacity:0.3;fill:url(#SVGID_00000098930905499441846240000009018541268407451285_);" d="M2859.87,938.731
					c-33.694,58.013-132.946,92.19-95.973,174.714c10.725,23.982,27.042,47.481,28.681,74.403
					c1.686,27.621-21.644,46.974-37.334,66.738c-16.437,20.68-28.368,42.395-30.272,69.245
					c-2.843,39.648,23.163,67.292,41.865,99.227c21.644,36.9,5.35,59.965-22.271,87.394
					c-59.146,58.735-21.571,149.865-30.127,222.17c-8.459,71.511-45.841,125.113-112.941,152.71
					c-32.586,13.424-67.557,20.438-102.433,24.68c-26.897,3.277-56.518,1.06-84.332,3.086c17.353-3.061,35.647-11.69,50.06-18.993
					c46.637-23.691,94.792-53.505,119.111-101.637c12.725-25.186,5.591-37.358-4.989-62.736
					c-16.293-39.142-22.97-82.091-3.062-121.884c19.523-39.021,50.326-76.451,49.192-122.365
					c-1.759-70.69-93.66-119.183-47.746-192.284c28.055-44.637,80.596-73.679,88.864-130.054
					c5.616-38.177-18.534-69.872-30.199-104.265c-12.414-36.562-12.678-76.137-6.218-113.953
					c18.847-110.218,95.66-160.013,164.325-182.427c15.546,9.809,29.381,23.499,40.95,39.262
					C2862.281,838.948,2885.225,895.058,2859.87,938.731z"/>
			</g>
			<g>
				
					<linearGradient id="SVGID_00000130617740244915582020000012733062144742839708_" gradientUnits="userSpaceOnUse" x1="2419.8457" y1="1492.5498" x2="3046.5969" y2="1492.5498" gradientTransform="matrix(1 0 0 1 -5.9077 0.3914)">
					<stop  offset="0.0036" style="stop-color:#E38DDD"/>
					<stop  offset="1" style="stop-color:#9571F6"/>
				</linearGradient>
				<path style="fill:url(#SVGID_00000130617740244915582020000012733062144742839708_);" d="M2931.381,1505.919
					c-54.904,23.066-98.793,44.974-86.815,113.858c19.282,110.869-41.769,178.377-110.868,207.879
					c-66.738,28.513-233.885,67.317-311.829-2.507c-2.748-2.434-5.399-5.037-7.93-7.785c17.715-2.627,98.022,62.713,125.329-106
					c27.331-168.713,94.817-89.972,157.964-156.879c63.171-66.883-43.866-130.729-23.306-301.707
					c5.639-46.806,62.833-110.797,106.698-124.679c37.985-12.003,80.092-7.037,118.895,8.749c0.772,0.313,1.567,0.651,2.338,0.964
					c50.904,21.379,95.83,61.291,117.834,105.735C3066.496,1338.146,3034.199,1462.729,2931.381,1505.919z"/>
				
					<linearGradient id="SVGID_00000163753419189377390560000013055101013766531491_" gradientUnits="userSpaceOnUse" x1="2427.7754" y1="1500.7411" x2="3046.5969" y2="1500.7411" gradientTransform="matrix(1 0 0 1 -5.9077 0.3914)">
					<stop  offset="0.0036" style="stop-color:#E38DDD"/>
					<stop  offset="1" style="stop-color:#9571F6"/>
				</linearGradient>
				<path style="opacity:0.3;fill:url(#SVGID_00000163753419189377390560000013055101013766531491_);" d="M2931.381,1505.919
					c-54.904,23.066-98.793,44.974-86.815,113.858c19.282,110.869-41.769,178.377-110.868,207.879
					c-66.738,28.513-233.885,67.317-311.829-2.507c33.164,11.713,73.294,19.98,107.59,15.979
					c49.024-5.688,94.383-42.708,122.51-81.657c23.235-32.176,37.985-69.557,60.857-101.975
					c15.859-22.487,39.961-37.068,56.062-59.169c15.666-21.499,25.765-47.408,34.49-72.354
					c10.942-31.261,13.93-64.039,11.978-96.962c-5.278-90.117-54.06-207.903,40.106-268.832c14.34-9.28,30.079-16.582,46.396-22.367
					c50.904,21.379,95.83,61.291,117.834,105.735C3066.496,1338.146,3034.199,1462.729,2931.381,1505.919z"/>
			</g>
		</g>
		<g>
			<g>
				<g>
					
						<linearGradient id="SVGID_00000146478065802651532860000016893283864600737463_" gradientUnits="userSpaceOnUse" x1="1378.6014" y1="1695.5797" x2="1368.2222" y2="1900.569">
						<stop  offset="0" style="stop-color:#FF9085"/>
						<stop  offset="1" style="stop-color:#FB6FBB"/>
					</linearGradient>
					<polygon style="fill:url(#SVGID_00000146478065802651532860000016893283864600737463_);" points="1367.664,1852.924 
						1851.88,1731.806 1876.099,1849.446 1432.812,2054.039 1081.816,1967.336 870.08,1759.443 					"/>
					
						<linearGradient id="SVGID_00000082339982576843413760000014047016390428400274_" gradientUnits="userSpaceOnUse" x1="1378.6014" y1="1695.5797" x2="1368.2222" y2="1900.569">
						<stop  offset="0" style="stop-color:#FFC444"/>
						<stop  offset="0.9964" style="stop-color:#F36F56"/>
					</linearGradient>
					<polygon style="fill:url(#SVGID_00000082339982576843413760000014047016390428400274_);" points="1367.664,1852.924 
						1851.88,1731.806 1876.099,1849.446 1432.812,2054.039 1081.816,1967.336 870.08,1759.443 					"/>
				</g>
				<g>
					
						<linearGradient id="SVGID_00000005963499705439727000000011509495750072194950_" gradientUnits="userSpaceOnUse" x1="1352.4418" y1="1879.4723" x2="1959.1121" y2="1879.4723">
						<stop  offset="0" style="stop-color:#FFC444"/>
						<stop  offset="0.9964" style="stop-color:#F36F56"/>
					</linearGradient>
					<path style="fill:url(#SVGID_00000005963499705439727000000011509495750072194950_);" d="M1352.442,2015.758
						c96.24-51.595,167.317-104.146,215.563-143.868c94.927-78.156,138.472-137.113,234.574-160.411
						c17.177-4.163,115.03-27.885,146.606,15.569c34.961,48.111-33.009,148.717-41.266,160.938
						c-122.779,181.733-435.441,173.252-533.513,167.359C1367.085,2042.148,1359.764,2028.953,1352.442,2015.758z"/>
					
						<linearGradient id="SVGID_00000096020989800491185430000008936827459309757345_" gradientUnits="userSpaceOnUse" x1="1352.4414" y1="1880.8843" x2="1959.1108" y2="1880.8843">
						<stop  offset="0" style="stop-color:#FF9085"/>
						<stop  offset="1" style="stop-color:#FB6FBB"/>
					</linearGradient>
					<path style="opacity:0.3;fill:url(#SVGID_00000096020989800491185430000008936827459309757345_);" d="M1949.185,1727.048
						c-9.228-12.698-24.178-19.551-41.059-22.941c5.617,19.45,6.129,37.701-0.89,53.646
						c-19.185,43.582-75.998,30.158-115.901,81.304c-39.191,50.231-12.062,98.643-46.707,119.361
						c-39.708,23.746-88.935-31.731-131.47-5.19c-28.92,18.044-19.923,52.277-53.625,70.924
						c-23.291,12.887-46.122,6.793-72.654,3.459c-30.411-3.821-72.074-4.638-124.371,6.287c3.966,7.148,7.933,14.296,11.901,21.445
						c98.07,5.894,410.732,14.373,533.511-167.359C1916.176,1875.765,1984.147,1775.159,1949.185,1727.048z"/>
				</g>
				<g>
					
						<linearGradient id="SVGID_00000062893608607005111170000000502125020335628429_" gradientUnits="userSpaceOnUse" x1="1524.2365" y1="2115.5327" x2="1407.4711" y2="1970.2247">
						<stop  offset="0" style="stop-color:#AA80F9"/>
						<stop  offset="0.9964" style="stop-color:#6165D7"/>
					</linearGradient>
					<path style="fill:url(#SVGID_00000062893608607005111170000000502125020335628429_);" d="M1425.202,2042.915
						c0,0,17.634-12.645,43.223-4.028c25.589,8.617,66.222,15.571,66.16,28.083c-0.062,12.512-40.716,20.342-68.81,15.2
						C1438.902,2077.25,1417.766,2053.894,1425.202,2042.915z"/>
					
						<linearGradient id="SVGID_00000013154683084941278800000009206177177159892894_" gradientUnits="userSpaceOnUse" x1="1452.5488" y1="2081.0264" x2="1291.6697" y2="1878.63">
						<stop  offset="0" style="stop-color:#FFC444"/>
						<stop  offset="0.9964" style="stop-color:#F36F56"/>
					</linearGradient>
					<path style="fill:url(#SVGID_00000013154683084941278800000009206177177159892894_);" d="M1399.359,2021.558l47.095,15.149
						c0,0,7.65,12.743-2.675,20.825c-10.324,8.082-46.2-9.01-46.2-9.01L1399.359,2021.558z"/>
				</g>
				
					<linearGradient id="SVGID_00000107588210497342266390000002474851934927195816_" gradientUnits="userSpaceOnUse" x1="1106.1958" y1="1872.6836" x2="972.5219" y2="2150.7256">
					<stop  offset="0" style="stop-color:#FFC444"/>
					<stop  offset="0.9964" style="stop-color:#F36F56"/>
				</linearGradient>
				<path style="fill:url(#SVGID_00000107588210497342266390000002474851934927195816_);" d="M744.767,1804.46
					c-13.905,80.962,160.825,168.544,200.826,188.593c81.522,40.861,234.915,98.545,462.577,76.508
					c3.028-18.164,6.055-36.328,9.082-54.491c-30.075-10.303-74.644-27.05-126.36-52.488
					c-88.261-43.417-121.774-74.423-244.249-148.47c-135.525-81.936-175.003-92.447-215.382-82.307
					C796.732,1740.477,751.228,1766.839,744.767,1804.46z"/>
			</g>
			<g>
				<g>
					
						<linearGradient id="SVGID_00000013156904494225482960000005910567426839829434_" gradientUnits="userSpaceOnUse" x1="1405.8536" y1="1802.3126" x2="1246.2732" y2="1291.1373">
						<stop  offset="0" style="stop-color:#311944"/>
						<stop  offset="1" style="stop-color:#6B3976"/>
					</linearGradient>
					<path style="fill:url(#SVGID_00000013156904494225482960000005910567426839829434_);" d="M926.834,1650.502
						c-29.536-106.823,19.219-250.96,121.956-320.458c83.857-56.725,182.113-53.044,212.774-51.896
						c33.562,1.258,30.095,5.615,135.743,25.161c146.671,27.138,160.212,20.558,202.878,41.007
						c80.227,38.449,119.155,108.307,126.44,121.9c37.282,69.564,67.624,198.887-3.187,262.13
						c-40.254,35.953-96.686,35.805-128.442,32.435c-2.162-14.271-4.324-28.543-6.487-42.815
						c6.463-5.006,44.591-35.568,49.301-89.52c5.415-62.005-37.926-102.026-42.814-106.387
						c-15.373,29.675-34.293,74.737-42.814,132.335c-11.001,74.382,0.391,135.546,10.038,171.513
						c-38.789,21.291-102.932,50.181-186.484,59.424c-62.949,6.964-140.889,15.588-190.718-23.353
						c-70.312-54.949-76.256-198.047-6.813-346.987c-25.418,17.026-62.242,47.828-77.518,96.589
						c-2.31,7.372-6.221,21.841-7.785,77.844C1090.093,1790.044,957.444,1761.199,926.834,1650.502z"/>
					
						<linearGradient id="SVGID_00000085218078933343038690000004909582802401331631_" gradientUnits="userSpaceOnUse" x1="1303.5094" y1="1380.2572" x2="1325.5651" y2="1737.0421">
						<stop  offset="0" style="stop-color:#311944"/>
						<stop  offset="1" style="stop-color:#6B3976"/>
					</linearGradient>
					<path style="opacity:0.3;fill:url(#SVGID_00000085218078933343038690000004909582802401331631_);" d="M1402.98,1724.453
						c-35.382,4.338-45.012,41.073-77.845,38.922c-71.438-4.677-128.776-128.353-98.602-195.907
						c19.675-44.045,70.965-51.727,67.465-80.439c-2.8-22.974-38.396-40.653-67.465-41.517
						c-45.257-1.343-75.141,38.068-85.628,51.896c-24.507,32.32-29.792,67.806-30.346,90.63
						c17.984-35.281,46.627-58.97,67.644-73.049c-69.443,148.941-63.499,292.039,6.813,346.988
						c49.829,38.939,127.769,30.317,190.718,23.353c67.814-7.502,122.838-27.946,161.901-46.764
						C1499.678,1776.779,1451.334,1718.524,1402.98,1724.453z"/>
				</g>
				<g>
					
						<linearGradient id="SVGID_00000026850704881913384220000006527637144416252811_" gradientUnits="userSpaceOnUse" x1="1112.269" y1="1845.6055" x2="1527.3433" y2="1845.6055">
						<stop  offset="0" style="stop-color:#AA80F9"/>
						<stop  offset="0.9964" style="stop-color:#6165D7"/>
					</linearGradient>
					<polygon style="fill:url(#SVGID_00000026850704881913384220000006527637144416252811_);" points="1526.284,1825.219 
						1112.269,1819.039 1222.363,1872.172 1527.343,1852.211 					"/>
					<path style="fill:#D8DEE8;" d="M1097.66,1830.041v0.002c0,7.748,4.847,14.669,12.129,17.317l132.291,51.862l0.604-35.955
						l-130.414-44.228C1104.953,1816.935,1097.66,1822.427,1097.66,1830.041z"/>
				</g>
				
					<linearGradient id="SVGID_00000153666496542415098540000005103382370728000901_" gradientUnits="userSpaceOnUse" x1="1134.5588" y1="1887.0061" x2="974.9781" y2="1375.8298">
					<stop  offset="0" style="stop-color:#311944"/>
					<stop  offset="1" style="stop-color:#6B3976"/>
				</linearGradient>
				<path style="fill:url(#SVGID_00000153666496542415098540000005103382370728000901_);" d="M946.852,1579.322
					c31.948-30.239,110.324-11.193,139.562,32.257c21.523,31.984,3.71,58.304,19.461,98.602
					c19.296,49.367,92.079,94.001,136.808,108.857c-7.001,15.074-4.941,18.978-11.942,34.051
					c-28.454-3.554-234.132-35.06-284.446-157.179C943.674,1689.547,912.593,1611.75,946.852,1579.322z"/>
				<g>
					<path style="fill:#D8DEE8;" d="M1253.665,1610.99l-29.183,265.715c-1.007,9.168,11.829,22.827,21.042,22.391l428.115-26.283
						c7.033-0.333,12.891-5.511,14.083-12.452l53.733-256.631c1.604-9.341-15.184-18.986-24.657-18.72l-448.635,12.615
						C1260.671,1597.836,1254.483,1603.54,1253.665,1610.99z"/>
					<path style="fill:#FFFFFF;" d="M1263.449,1618.738l-29.182,265.715c-1.007,9.169,6.416,17.067,15.629,16.632l433.528-20.523
						c7.034-0.333,12.891-5.511,14.082-12.451l44.291-257.806c1.605-9.34-5.742-17.812-15.215-17.545l-448.636,12.614
						C1270.455,1605.583,1264.267,1611.289,1263.449,1618.738z"/>
					
						<linearGradient id="SVGID_00000047026724202525479850000007080532387847613333_" gradientUnits="userSpaceOnUse" x1="1234.1747" y1="1752.7806" x2="1703.6184" y2="1752.7806">
						<stop  offset="0.494" style="stop-color:#EBEFF2"/>
						<stop  offset="1" style="stop-color:#FFFFFF"/>
					</linearGradient>
					<path style="fill:url(#SVGID_00000047026724202525479850000007080532387847613333_);" d="M1518.016,1818.299
						c-37.854-16.044-24.494-46.639-69.194-84.763c-58.97-50.293-119.077-28.483-140.12-67.465
						c-6.553-12.142-9.681-31.034,1.732-61.611l-32.487,0.914c-7.492,0.21-13.679,5.916-14.498,13.365l-29.183,265.715
						c-1.006,9.167,6.417,17.067,15.63,16.632l433.528-20.523c7.034-0.332,12.891-5.51,14.082-12.451l6.112-35.575
						c-13.154-7.32-28.873-13.976-47.212-17.697C1592.804,1801.938,1561.597,1836.768,1518.016,1818.299z"/>
				</g>
			</g>
			<g>
				
					<linearGradient id="SVGID_00000042715566136231479380000003671136882873676176_" gradientUnits="userSpaceOnUse" x1="1393.0305" y1="1265.8701" x2="1337.2422" y2="1399.5021">
					<stop  offset="0" style="stop-color:#FFC444"/>
					<stop  offset="0.9964" style="stop-color:#F36F56"/>
				</linearGradient>
				<path style="fill:url(#SVGID_00000042715566136231479380000003671136882873676176_);" d="M1413.716,1260.509
					c0,0-33.482,36.206-61.274,39.975c-27.792,3.769-67.957-3.614-74.877,0c-6.92,3.613,34.904,18.493,68.076,27.591
					c33.172,9.1,93.4,27.276,110.052,23.296c16.651-3.982-18.197-25.332-31.997-30.991c-13.8-5.661,5.952-34.736,5.952-34.736
					L1413.716,1260.509z"/>
				<g>
					
						<linearGradient id="SVGID_00000000905240978787350760000011786909694886742188_" gradientUnits="userSpaceOnUse" x1="-1374.2357" y1="208.797" x2="-1434.7843" y2="55.0146" gradientTransform="matrix(-0.7945 -0.6073 -0.6073 0.7945 359.7434 314.8682)">
						<stop  offset="0" style="stop-color:#311944"/>
						<stop  offset="1" style="stop-color:#6B3976"/>
					</linearGradient>
					<path style="fill:url(#SVGID_00000000905240978787350760000011786909694886742188_);" d="M1463.395,1281.242
						c12.107-3.338,23.166-16.929,23.029-31.013c-0.119-12.117-8.627-20.387-13.719-25.338
						c-14.756-14.35-40.404-23.332-58.997-13.899c-11.018,5.591-16.047,30.966-17.161,35.365c-1.26,4.977,0.683,8.514,1.22,13.422
						c0.742,6.807,1.829,17.558,3.41,35.356c3.113-2.496,7.172-5.422,12.149-8.156c1.914-1.05,9.471-5.1,17.64-6.991
						C1447.338,1276.197,1451.919,1284.408,1463.395,1281.242z"/>
					
						<linearGradient id="SVGID_00000008124411565866195290000013688212879153090199_" gradientUnits="userSpaceOnUse" x1="2594.1848" y1="217.1225" x2="2591.4001" y2="441.4759" gradientTransform="matrix(0.8301 0.5575 -0.5575 0.8301 -598.0524 -367.0619)">
						<stop  offset="0" style="stop-color:#FFC444"/>
						<stop  offset="0.9964" style="stop-color:#F36F56"/>
					</linearGradient>
					<path style="fill:url(#SVGID_00000008124411565866195290000013688212879153090199_);" d="M1394.226,1275.839
						c0,0-2.808,25.672,19.456,40.625c19.934,13.386,55.505-27.039,50.341-45.414c-1.724-6.13-8.861-13.62-16.87-16.849
						c-4.73-1.907-7.293-1.306-14.961-4.571c-7.073-3.012-8.236-4.949-11.169-4.822c-3.67,0.159-8.838,3.496-14.707,18.803
						c-0.797-6.455-4.059-11.212-8.26-12.131c-0.67-0.145-2.657-0.262-4.426,0.515
						C1387.23,1254.814,1386.887,1264.443,1394.226,1275.839z"/>
					
						<linearGradient id="SVGID_00000017504063607647094340000011201016812952915605_" gradientUnits="userSpaceOnUse" x1="-1392.7301" y1="216.1656" x2="-1453.3442" y2="62.2169" gradientTransform="matrix(-0.7945 -0.6073 -0.6073 0.7945 359.7434 314.8682)">
						<stop  offset="0" style="stop-color:#311944"/>
						<stop  offset="1" style="stop-color:#6B3976"/>
					</linearGradient>
					<path style="fill:url(#SVGID_00000017504063607647094340000011201016812952915605_);" d="M1422.126,1241.599
						c0.389,1.388-5.041,2.65-8.973,7.322c-7.634,9.072-6.813,27.65,2.14,36.07c5.294,4.977,9.528,2.737,19.768,9.031
						c6.341,3.897,10.646,8.402,13.201,11.438c-4.952,12.584-15.657,20.688-26.201,20.149c-11.356-0.581-18.42-10.976-21.374-15.322
						c-1.976-2.909-8.321-12.21-6.761-23.398c1.624-11.659,9.916-13.051,8.842-22.612c-0.542-4.822-3.13-8.723-2.424-16.707
						c0.192-2.168,0.564-3.931,0.851-5.087C1410.091,1241.066,1421.561,1239.59,1422.126,1241.599z"/>
					
						<linearGradient id="SVGID_00000090973323238525669380000011529159444379817394_" gradientUnits="userSpaceOnUse" x1="-1452.0514" y1="123.4078" x2="-1448.8995" y2="151.5063" gradientTransform="matrix(-0.7945 -0.6073 -0.6073 0.7945 359.7434 314.8682)">
						<stop  offset="0" style="stop-color:#FFC444"/>
						<stop  offset="1" style="stop-color:#F36F56"/>
					</linearGradient>
					<path style="fill:url(#SVGID_00000090973323238525669380000011529159444379817394_);" d="M1438.432,1303.968
						c0,0-5.75-1.018-12.528-6.873c-0.33-0.284-0.787-0.475-0.969-0.331c-0.68,0.546,1.544,7.061,6.638,9.109
						c3.618,1.455,8.1,0.422,8.251-0.602C1439.889,1304.838,1439.184,1304.36,1438.432,1303.968z"/>
				</g>
			</g>
		</g>
		<g>
			<g>
				
					<linearGradient id="SVGID_00000178171402964702503440000013095438416914150057_" gradientUnits="userSpaceOnUse" x1="1134.2614" y1="309.5434" x2="136.9472" y2="815.6345">
					<stop  offset="0" style="stop-color:#FFC444"/>
					<stop  offset="0.9964" style="stop-color:#F36F56"/>
				</linearGradient>
				<path style="fill:url(#SVGID_00000178171402964702503440000013095438416914150057_);" d="M1195.948,600.178l-779.447-27.874
					C371.592,570.697,335,539.429,335,502.472v-85.296c0-36.957,36.592-65.109,81.501-62.891l779.447,38.509
					c40.413,1.996,73.017,31.825,73.017,66.633v80.336C1268.965,574.572,1236.361,601.623,1195.948,600.178z"/>
				<path style="opacity:0.74;fill:#FFFFFF;" d="M501.06,451.996l617.578,26.878c10.152,0.442,18.372-6.264,18.372-14.978
					c0-8.714-8.22-16.153-18.372-16.616L501.06,419.125c-11.004-0.502-19.937,6.459-19.937,15.547
					C481.124,443.761,490.056,451.518,501.06,451.996z"/>
				<path style="opacity:0.74;fill:#FFFFFF;" d="M501.06,514.665l437.354,17.31c10.394,0.411,18.809-6.403,18.809-15.219v0
					c0-8.817-8.415-16.314-18.809-16.747L501.06,481.794c-11.004-0.458-19.937,6.538-19.937,15.626v0
					C481.124,506.508,490.056,514.23,501.06,514.665z"/>
			</g>
			<g>
				
					<linearGradient id="SVGID_00000021107372453871946890000016355151473972463027_" gradientUnits="userSpaceOnUse" x1="1139.356" y1="802.1658" x2="126.7692" y2="1316.0071">
					<stop  offset="0" style="stop-color:#FFC444"/>
					<stop  offset="0.9964" style="stop-color:#F36F56"/>
				</linearGradient>
				<path style="fill:url(#SVGID_00000021107372453871946890000016355151473972463027_);" d="M1195.948,1082.902l-779.447-3.12
					c-44.909-0.18-81.501-30.286-81.501-67.243v-85.297c0-36.957,36.592-66.271,81.501-65.479l779.447,13.755
					c40.413,0.713,73.017,29.506,73.017,64.314v80.336C1268.965,1054.977,1236.361,1083.064,1195.948,1082.902z"/>
				<path style="opacity:0.74;fill:#FFFFFF;" d="M1118.638,932.459l-617.578-8.541c-11.004-0.152-19.937,7.092-19.937,16.181l0,0
					c0,9.089,8.932,16.561,19.937,16.691l617.578,7.264c10.152,0.119,18.372-6.848,18.372-15.562v0
					C1137.01,939.778,1128.79,932.6,1118.638,932.459z"/>
				<path style="opacity:0.74;fill:#FFFFFF;" d="M938.414,990.911l-437.354-4.324c-11.004-0.109-19.937,7.17-19.937,16.259
					c0,9.089,8.932,16.526,19.937,16.612l437.354,3.42c10.394,0.081,18.809-7,18.809-15.817S948.808,991.014,938.414,990.911z"/>
			</g>
			<g>
				
					<linearGradient id="SVGID_00000001648150607045358810000001898768091528566932_" gradientUnits="userSpaceOnUse" x1="846.1057" y1="853.727" x2="1496.213" y2="642.4792">
					<stop  offset="0" style="stop-color:#AA80F9"/>
					<stop  offset="0.9964" style="stop-color:#6165D7"/>
				</linearGradient>
				<path style="fill:url(#SVGID_00000001648150607045358810000001898768091528566932_);" d="M1583.284,848.319l-739.261-14.744
					c-42.535-0.848-77.187-30.693-77.187-66.657v-83.003c0-35.963,34.653-63.954,77.187-62.525l739.261,24.831
					c38.382,1.289,69.352,29.831,69.352,63.757v78.298C1652.636,822.201,1621.666,849.085,1583.284,848.319z"/>
				<path style="opacity:0.74;fill:#FFFFFF;" d="M1509.874,700.567l-585.745-17.439c-10.426-0.31-18.889,6.609-18.889,15.456
					c0,8.846,8.463,16.252,18.889,16.541l585.745,16.227c9.639,0.267,17.444-6.4,17.444-14.891
					C1527.318,707.969,1519.513,700.854,1509.874,700.567z"/>
				<path style="opacity:0.74;fill:#FFFFFF;" d="M1338.816,754.84l-414.687-10.711c-10.426-0.269-18.889,6.684-18.889,15.53
					c0,8.846,8.463,16.219,18.889,16.466l414.687,9.853c9.861,0.234,17.847-6.538,17.847-15.127
					C1356.662,762.263,1348.677,755.094,1338.816,754.84z"/>
			</g>
		</g>
		<g>
			<path style="fill:#D8DEE8;" d="M2018.404,1987.27v-506.051c0-29.802,26.394-54.207,58.82-54.509l529.04-4.932
				c29.938-0.279,54.113,22.575,54.113,51.045v483.426c0,28.469-24.174,52.808-54.112,54.367l-529.041,27.552
				C2044.798,2039.856,2018.404,2017.072,2018.404,1987.27z"/>
			<path style="opacity:0.74;fill:#FFFFFF;" d="M2600.029,1985.946l-516.087,25.941c-20.456,1.028-37.082-13.374-37.082-32.17
				v-492.691c0-18.797,16.626-34.219,37.082-34.447l516.087-5.748c18.952-0.211,34.278,14.231,34.278,32.257v472.496
				C2634.306,1969.61,2618.981,1984.993,2600.029,1985.946z"/>
			<g>
				
					<linearGradient id="SVGID_00000019647944688392989110000002174910876216643731_" gradientUnits="userSpaceOnUse" x1="2130.7332" y1="1874.3257" x2="2774.3711" y2="1413.5908">
					<stop  offset="0" style="stop-color:#AA80F9"/>
					<stop  offset="0.7157" style="stop-color:#6165D7"/>
				</linearGradient>
				<path style="fill:url(#SVGID_00000019647944688392989110000002174910876216643731_);" d="M2230.361,1782.314l-34.236,97.333
					l-44.262,1.83l112.083-308.855l50.803-1.005l110.015,298.579l-44.277,1.83l-34.472-93.708L2230.361,1782.314z
					 M2337.372,1748.082l-31.788-86.277c-7.246-19.622-12.079-37.519-16.916-54.978l-0.969,0.021
					c-4.841,18.138-10.169,36.752-16.474,55.405l-32.089,89.01L2337.372,1748.082z"/>
				
					<linearGradient id="SVGID_00000039819431504950894140000000468791976715877248_" gradientUnits="userSpaceOnUse" x1="2199.9817" y1="1926.5961" x2="2814.1697" y2="1486.9423">
					<stop  offset="0" style="stop-color:#AA80F9"/>
					<stop  offset="0.9964" style="stop-color:#6165D7"/>
				</linearGradient>
				<path style="fill:url(#SVGID_00000039819431504950894140000000468791976715877248_);" d="M2512.473,1567.705v298.865
					l-40.892,1.69v-299.746L2512.473,1567.705z"/>
			</g>
			<path style="opacity:0.5;fill:#FFFFFF;" d="M2385.423,1716.614c-151.318-97.399-200.469-207.13-212.565-290.795l-97.067,0.905
				c-31.638,0.295-57.387,24.103-57.387,53.176v508.691c0,29.073,25.749,51.3,57.387,49.652l427.348-22.256
				C2527.591,1915.656,2515.641,1800.43,2385.423,1716.614z"/>
		</g>
	</g>
</g>
</svg>
